  0
SECTION
  2
HEADER
  9
$ACADVER
  1
AC1015
  9
$ACADMAINTVER
 70
     6
  9
$DWGCODEPAGE
  3
ANSI_1252
  9
$INSBASE
 10
0.0
 20
0.0
 30
0.0
  9
$EXTMIN
 10
-75.4088066536
 20
-53.9849017864
 30
0.0
  9
$EXTMAX
 10
75.4232210198
 20
104.1751437605
 30
0.0
  9
$LIMMIN
 10
0.0
 20
0.0
  9
$LIMMAX
 10
420.0
 20
297.0
  9
$ORTHOMODE
 70
     0
  9
$REGENMODE
 70
     1
  9
$FILLMODE
 70
     1
  9
$QTEXTMODE
 70
     0
  9
$MIRRTEXT
 70
     1
  9
$LTSCALE
 40
1.0
  9
$ATTMODE
 70
     1
  9
$TEXTSIZE
 40
3.5
  9
$TRACEWID
 40
1.0
  9
$TEXTSTYLE
  7
Standard
  9
$CLAYER
  8
0
  9
$CELTYPE
  6
ByLayer
  9
$CECOLOR
 62
   256
  9
$CELTSCALE
 40
1.0
  9
$DISPSILH
 70
     0
  9
$DIMSCALE
 40
1.0
  9
$DIMASZ
 40
3.302
  9
$DIMEXO
 40
0.0
  9
$DIMDLI
 40
3.75
  9
$DIMRND
 40
0.0
  9
$DIMDLE
 40
0.0
  9
$DIMEXE
 40
1.0
  9
$DIMTP
 40
0.0
  9
$DIMTM
 40
0.0
  9
$DIMTXT
 40
3.5
  9
$DIMCEN
 40
2.5
  9
$DIMTSZ
 40
0.0
  9
$DIMTOL
 70
     0
  9
$DIMLIM
 70
     0
  9
$DIMTIH
 70
     1
  9
$DIMTOH
 70
     1
  9
$DIMSE1
 70
     0
  9
$DIMSE2
 70
     0
  9
$DIMTAD
 70
     1
  9
$DIMZIN
 70
     1
  9
$DIMBLK
  1

  9
$DIMASO
 70
     1
  9
$DIMSHO
 70
     1
  9
$DIMPOST
  1

  9
$DIMAPOST
  1

  9
$DIMALT
 70
     0
  9
$DIMALTD
 70
     3
  9
$DIMALTF
 40
0.0393700787
  9
$DIMLFAC
 40
1.0
  9
$DIMTOFL
 70
     1
  9
$DIMTVP
 40
0.0
  9
$DIMTIX
 70
     0
  9
$DIMSOXD
 70
     0
  9
$DIMSAH
 70
     0
  9
$DIMBLK1
  1

  9
$DIMBLK2
  1

  9
$DIMSTYLE
  2
ISO-25
  9
$DIMCLRD
 70
     0
  9
$DIMCLRE
 70
     0
  9
$DIMCLRT
 70
     0
  9
$DIMTFAC
 40
1.0
  9
$DIMGAP
 40
1.524
  9
$DIMJUST
 70
     0
  9
$DIMSD1
 70
     0
  9
$DIMSD2
 70
     0
  9
$DIMTOLJ
 70
     0
  9
$DIMTZIN
 70
     1
  9
$DIMALTZ
 70
     0
  9
$DIMALTTZ
 70
     0
  9
$DIMUPT
 70
     0
  9
$DIMDEC
 70
     2
  9
$DIMTDEC
 70
     2
  9
$DIMALTU
 70
     2
  9
$DIMALTTD
 70
     3
  9
$DIMTXSTY
  7
Standard
  9
$DIMAUNIT
 70
     0
  9
$DIMADEC
 70
     2
  9
$DIMALTRND
 40
0.0
  9
$DIMAZIN
 70
     0
  9
$DIMDSEP
 70
    44
  9
$DIMATFIT
 70
     3
  9
$DIMFRAC
 70
     0
  9
$DIMLDRBLK
  1

  9
$DIMLUNIT
 70
     2
  9
$DIMLWD
 70
    -2
  9
$DIMLWE
 70
    -2
  9
$DIMTMOVE
 70
     0
  9
$LUNITS
 70
     2
  9
$LUPREC
 70
     2
  9
$SKETCHINC
 40
1.0
  9
$FILLETRAD
 40
0.0
  9
$AUNITS
 70
     0
  9
$AUPREC
 70
     2
  9
$MENU
  1
.
  9
$ELEVATION
 40
0.0
  9
$PELEVATION
 40
0.0
  9
$THICKNESS
 40
0.0
  9
$LIMCHECK
 70
     0
  9
$CHAMFERA
 40
0.0
  9
$CHAMFERB
 40
0.0
  9
$CHAMFERC
 40
0.0
  9
$CHAMFERD
 40
0.0
  9
$SKPOLY
 70
     0
  9
$TDCREATE
 40
2460092.623064931
  9
$TDUCREATE
 40
2460092.831398264
  9
$TDUPDATE
 40
2460092.62310206
  9
$TDUUPDATE
 40
2460092.831435394
  9
$TDINDWG
 40
0.0000000116
  9
$TDUSRTIMER
 40
0.0000000116
  9
$USRTIMER
 70
     1
  9
$ANGBASE
 50
0.0
  9
$ANGDIR
 70
     0
  9
$PDMODE
 70
     0
  9
$PDSIZE
 40
-1.0
  9
$PLINEWID
 40
0.0
  9
$SPLFRAME
 70
     0
  9
$SPLINETYPE
 70
     6
  9
$SPLINESEGS
 70
     8
  9
$HANDSEED
  5
C7
  9
$SURFTAB1
 70
     6
  9
$SURFTAB2
 70
     6
  9
$SURFTYPE
 70
     6
  9
$SURFU
 70
     6
  9
$SURFV
 70
     6
  9
$UCSBASE
  2

  9
$UCSNAME
  2

  9
$UCSORG
 10
0.0
 20
0.0
 30
0.0
  9
$UCSXDIR
 10
1.0
 20
0.0
 30
0.0
  9
$UCSYDIR
 10
0.0
 20
1.0
 30
0.0
  9
$UCSORTHOREF
  2

  9
$UCSORTHOVIEW
 70
     0
  9
$UCSORGTOP
 10
0.0
 20
0.0
 30
0.0
  9
$UCSORGBOTTOM
 10
0.0
 20
0.0
 30
0.0
  9
$UCSORGLEFT
 10
0.0
 20
0.0
 30
0.0
  9
$UCSORGRIGHT
 10
0.0
 20
0.0
 30
0.0
  9
$UCSORGFRONT
 10
0.0
 20
0.0
 30
0.0
  9
$UCSORGBACK
 10
0.0
 20
0.0
 30
0.0
  9
$PUCSBASE
  2

  9
$PUCSNAME
  2

  9
$PUCSORG
 10
0.0
 20
0.0
 30
0.0
  9
$PUCSXDIR
 10
1.0
 20
0.0
 30
0.0
  9
$PUCSYDIR
 10
0.0
 20
1.0
 30
0.0
  9
$PUCSORTHOREF
  2

  9
$PUCSORTHOVIEW
 70
     0
  9
$PUCSORGTOP
 10
0.0
 20
0.0
 30
0.0
  9
$PUCSORGBOTTOM
 10
0.0
 20
0.0
 30
0.0
  9
$PUCSORGLEFT
 10
0.0
 20
0.0
 30
0.0
  9
$PUCSORGRIGHT
 10
0.0
 20
0.0
 30
0.0
  9
$PUCSORGFRONT
 10
0.0
 20
0.0
 30
0.0
  9
$PUCSORGBACK
 10
0.0
 20
0.0
 30
0.0
  9
$USERI1
 70
     0
  9
$USERI2
 70
     0
  9
$USERI3
 70
     0
  9
$USERI4
 70
     0
  9
$USERI5
 70
     0
  9
$USERR1
 40
0.0
  9
$USERR2
 40
0.0
  9
$USERR3
 40
0.0
  9
$USERR4
 40
0.0
  9
$USERR5
 40
0.0
  9
$WORLDVIEW
 70
     1
  9
$SHADEDGE
 70
     3
  9
$SHADEDIF
 70
    70
  9
$TILEMODE
 70
     1
  9
$MAXACTVP
 70
    64
  9
$PINSBASE
 10
0.0
 20
0.0
 30
0.0
  9
$PLIMCHECK
 70
     0
  9
$PEXTMIN
 10
1.0000000000E+20
 20
1.0000000000E+20
 30
1.0000000000E+20
  9
$PEXTMAX
 10
-1.0000000000E+20
 20
-1.0000000000E+20
 30
-1.0000000000E+20
  9
$PLIMMIN
 10
0.0
 20
0.0
  9
$PLIMMAX
 10
420.0
 20
297.0
  9
$UNITMODE
 70
     0
  9
$VISRETAIN
 70
     1
  9
$PLINEGEN
 70
     0
  9
$PSLTSCALE
 70
     1
  9
$TREEDEPTH
 70
  3020
  9
$CMLSTYLE
  2
Standard
  9
$CMLJUST
 70
     0
  9
$CMLSCALE
 40
20.0
  9
$PROXYGRAPHICS
 70
     1
  9
$MEASUREMENT
 70
     1
  9
$CELWEIGHT
370
    -1
  9
$ENDCAPS
280
     0
  9
$JOINSTYLE
280
     0
  9
$LWDISPLAY
290
     1
  9
$INSUNITS
 70
     4
  9
$HYPERLINKBASE
  1

  9
$STYLESHEET
  1

  9
$XEDIT
290
     1
  9
$CEPSNTYPE
380
     0
  9
$PSTYLEMODE
290
     1
  9
$FINGERPRINTGUID
  2
{8d2951bd-549d-4165-9161-68d156be9138}
  9
$VERSIONGUID
  2
{FAEB1C32-E019-11D5-929B-00C0DF256EC4}
  9
$EXTNAMES
290
     1
  9
$PSVPSCALE
 40
0.0
  9
$OLESTARTUP
290
     0
  0
ENDSEC
  0
SECTION
  2
CLASSES
  0
CLASS
  1
ACDBDICTIONARYWDFLT
  2
AcDbDictionaryWithDefault
  3
ObjectDBX Classes
 90
        0
280
     0
281
     0
  0
CLASS
  1
VISUALSTYLE
  2
AcDbVisualStyle
  3
ObjectDBX Classes
 90
     4095
280
     0
281
     0
  0
CLASS
  1
MATERIAL
  2
AcDbMaterial
  3
ObjectDBX Classes
 90
     1153
280
     0
281
     0
  0
CLASS
  1
SCALE
  2
AcDbScale
  3
ObjectDBX Classes
 90
     1153
280
     0
281
     0
  0
CLASS
  1
TABLESTYLE
  2
AcDbTableStyle
  3
ObjectDBX Classes
 90
     4095
280
     0
281
     0
  0
CLASS
  1
MLEADERSTYLE
  2
AcDbMLeaderStyle
  3
ACDB_MLEADERSTYLE_CLASS
 90
     4095
280
     0
281
     0
  0
CLASS
  1
SUN
  2
AcDbSun
  3
SCENEOE
 90
     1153
280
     0
281
     0
  0
CLASS
  1
ACDBPLACEHOLDER
  2
AcDbPlaceHolder
  3
ObjectDBX Classes
 90
        0
280
     0
281
     0
  0
CLASS
  1
LAYOUT
  2
AcDbLayout
  3
ObjectDBX Classes
 90
        0
280
     0
281
     0
  0
ENDSEC
  0
SECTION
  2
TABLES
  0
TABLE
  2
VPORT
  5
8
330
0
100
AcDbSymbolTable
 70
     1
  0
VPORT
  5
29
330
8
100
AcDbSymbolTableRecord
100
AcDbViewportTableRecord
  2
*Active
 70
     0
 10
0.0
 20
0.0
 11
1.0
 21
1.0
 12
0.0072071831
 22
25.095120987
 13
0.0
 23
0.0
 14
10.0
 24
10.0
 15
10.0
 25
10.0
 16
0.0
 26
0.0
 36
1.0
 17
0.0
 27
0.0
 37
0.0
 40
161.3232464579
 41
0.9536670728
 42
50.0
 43
0.0
 44
0.0
 50
0.0
 51
0.0
 71
     0
 72
   100
 73
     1
 74
     3
 75
     0
 76
     0
 77
     0
 78
     0
281
     0
 65
     1
110
0.0
120
0.0
130
0.0
111
1.0
121
0.0
131
0.0
112
0.0
122
1.0
132
0.0
 79
     0
146
0.0
  0
ENDTAB
  0
TABLE
  2
LTYPE
  5
5
330
0
100
AcDbSymbolTable
 70
     6
  0
LTYPE
  5
14
330
5
100
AcDbSymbolTableRecord
100
AcDbLinetypeTableRecord
  2
ByBlock
 70
     0
  3

 72
    65
 73
     0
 40
0.0
  0
LTYPE
  5
15
330
5
100
AcDbSymbolTableRecord
100
AcDbLinetypeTableRecord
  2
ByLayer
 70
     0
  3

 72
    65
 73
     0
 40
0.0
  0
LTYPE
  5
16
330
5
100
AcDbSymbolTableRecord
100
AcDbLinetypeTableRecord
  2
Continuous
 70
     0
  3
Solid line
 72
    65
 73
     0
 40
0.0
  0
LTYPE
  5
5E
330
5
100
AcDbSymbolTableRecord
100
AcDbLinetypeTableRecord
  2
HIDDEN
 70
     0
  3
Hidden __ __ __ __ __ __ __ __ __ __ __ __ __ __
 72
    65
 73
     2
 40
1.905
 49
1.27
 74
     0
 49
-0.635
 74
     0
  0
LTYPE
  5
5F
330
5
100
AcDbSymbolTableRecord
100
AcDbLinetypeTableRecord
  2
PHANTOM
 70
     0
  3
Phantom ______  __  __  ______  __  __  ______
 72
    65
 73
     6
 40
12.7
 49
6.35
 74
     0
 49
-1.27
 74
     0
 49
1.27
 74
     0
 49
-1.27
 74
     0
 49
1.27
 74
     0
 49
-1.27
 74
     0
  0
LTYPE
  5
60
330
5
100
AcDbSymbolTableRecord
100
AcDbLinetypeTableRecord
  2
CENTER
 70
     0
  3
Center ____ _ ____ _ ____ _ ____ _ ____ _ ____
 72
    65
 73
     4
 40
10.16
 49
6.35
 74
     0
 49
-1.27
 74
     0
 49
1.27
 74
     0
 49
-1.27
 74
     0
  0
LTYPE
  5
61
330
5
100
AcDbSymbolTableRecord
100
AcDbLinetypeTableRecord
  2
CENTERX2
 70
     0
  3
Center (2x) ________  __  ________  __  _____
 72
    65
 73
     4
 40
20.32
 49
12.7
 74
     0
 49
-2.54
 74
     0
 49
2.54
 74
     0
 49
-2.54
 74
     0
  0
LTYPE
  5
62
330
5
100
AcDbSymbolTableRecord
100
AcDbLinetypeTableRecord
  2
DOT2
 70
     0
  3
Dot (.5x) ........................................
 72
    65
 73
     2
 40
0.635
 49
0.0
 74
     0
 49
-0.635
 74
     0
  0
ENDTAB
  0
TABLE
  2
LAYER
  5
2
330
0
100
AcDbSymbolTable
 70
     1
  0
LAYER
  5
10
330
2
100
AcDbSymbolTableRecord
100
AcDbLayerTableRecord
  2
0
 70
     0
 62
     7
  6
Continuous
370
    -3
390
F
  0
ENDTAB
  0
TABLE
  2
STYLE
  5
3
330
0
100
AcDbSymbolTable
 70
     2
  0
STYLE
  5
11
330
3
100
AcDbSymbolTableRecord
100
AcDbTextStyleTableRecord
  2
Standard
 70
     0
 40
0.0
 41
1.0
 50
0.0
 71
     0
 42
3.5
  3
txt
  4

  0
STYLE
  5
C3
330
3
100
AcDbSymbolTableRecord
100
AcDbTextStyleTableRecord
  2
SLDTEXTSTYLE0
 70
     0
 40
0.0
 41
0.7
 50
0.0
 71
     0
 42
3.5
  3
TXT
  4

  0
ENDTAB
  0
TABLE
  2
VIEW
  5
6
330
0
100
AcDbSymbolTable
 70
     0
  0
ENDTAB
  0
TABLE
  2
UCS
  5
7
330
0
100
AcDbSymbolTable
 70
     0
  0
ENDTAB
  0
TABLE
  2
APPID
  5
9
330
0
100
AcDbSymbolTable
 70
     1
  0
APPID
  5
12
330
9
100
AcDbSymbolTableRecord
100
AcDbRegAppTableRecord
  2
ACAD
 70
     0
  0
ENDTAB
  0
TABLE
  2
DIMSTYLE
  5
A
330
0
100
AcDbSymbolTable
 70
     1
100
AcDbDimStyleTable
  0
DIMSTYLE
105
27
330
A
100
AcDbSymbolTableRecord
100
AcDbDimStyleTableRecord
  2
ISO-25
 70
     0
 41
2.5
 42
0.625
 43
3.75
 44
1.25
 73
     0
 74
     0
 77
     1
 78
     8
140
2.5
141
2.5
143
0.0393700787
147
0.625
171
     3
172
     1
178
     0
271
     2
272
     2
274
     3
278
    44
283
     0
284
     8
340
11
  0
ENDTAB
  0
TABLE
  2
BLOCK_RECORD
  5
1
330
0
100
AcDbSymbolTable
 70
     1
  0
BLOCK_RECORD
  5
1F
330
1
100
AcDbSymbolTableRecord
100
AcDbBlockTableRecord
  2
*Model_Space
340
22
  0
BLOCK_RECORD
  5
1B
330
1
100
AcDbSymbolTableRecord
100
AcDbBlockTableRecord
  2
*Paper_Space
340
1E
  0
BLOCK_RECORD
  5
23
330
1
100
AcDbSymbolTableRecord
100
AcDbBlockTableRecord
  2
*Paper_Space0
340
26
  0
ENDTAB
  0
ENDSEC
  0
SECTION
  2
BLOCKS
  0
BLOCK
  5
20
330
1F
100
AcDbEntity
  8
0
100
AcDbBlockBegin
  2
*Model_Space
 70
     0
 10
0.0
 20
0.0
 30
0.0
  3
*Model_Space
  1

  0
ENDBLK
  5
21
330
1F
100
AcDbEntity
  8
0
100
AcDbBlockEnd
  0
BLOCK
  5
1C
330
1B
100
AcDbEntity
 67
     1
  8
0
100
AcDbBlockBegin
  2
*Paper_Space
 70
     0
 10
0.0
 20
0.0
 30
0.0
  3
*Paper_Space
  1

  0
ENDBLK
  5
1D
330
1B
100
AcDbEntity
 67
     1
  8
0
100
AcDbBlockEnd
  0
BLOCK
  5
24
330
23
100
AcDbEntity
  8
0
100
AcDbBlockBegin
  2
*Paper_Space0
 70
     0
 10
0.0
 20
0.0
 30
0.0
  3
*Paper_Space0
  1

  0
ENDBLK
  5
25
330
23
100
AcDbEntity
  8
0
100
AcDbBlockEnd
  0
ENDSEC
  0
SECTION
  2
ENTITIES
  0
LINE
  5
63
330
1F
100
AcDbEntity
  8
0
  6
Continuous
 62
     7
370
    25
100
AcDbLine
 10
13.7807436876
 20
47.0808991557
 30
0.0
 11
16.3550076126
 21
46.1407523443
 31
0.0
  0
SPLINE
  5
64
330
1F
100
AcDbEntity
  8
0
  6
Continuous
 62
     7
370
    25
100
AcDbSpline
210
0.0
220
0.0
230
1.0
 70
     8
 71
     3
 72
     9
 73
     5
 74
     0
 42
0.00000001
 43
0.00000001
 40
0.0
 40
0.0
 40
0.0
 40
0.0
 40
0.7424578222393318
 40
1.0
 40
1.0
 40
1.0
 40
1.0
 10
16.18846736568056
 20
53.67361013514634
 30
0.0
 10
13.96806429985668
 20
53.93311467965891
 30
0.0
 10
10.91620802037642
 20
49.90539163451828
 30
0.0
 10
13.09374631525803
 20
47.41979224951177
 30
0.0
 10
13.78074368757663
 20
47.08089915574173
 30
0.0
  0
LINE
  5
65
330
1F
100
AcDbEntity
  8
0
  6
Continuous
 62
     7
370
    25
100
AcDbLine
 10
18.7627312907
 20
52.7334633237
 30
0.0
 11
16.1884673657
 21
53.6736101351
 31
0.0
  0
LINE
  5
66
330
1F
100
AcDbEntity
  8
0
  6
Continuous
 62
     7
370
    25
100
AcDbLine
 10
16.3550076126
 20
46.1407523443
 30
0.0
 11
18.7627312907
 21
52.7334633237
 31
0.0
  0
SPLINE
  5
67
330
1F
100
AcDbEntity
  8
0
  6
Continuous
 62
     7
370
    25
100
AcDbSpline
210
0.0
220
0.0
230
1.0
 70
     8
 71
     3
 72
     8
 73
     4
 74
     0
 42
0.00000001
 43
0.00000001
 40
0.0
 40
0.0
 40
0.0
 40
0.0
 40
1.0
 40
1.0
 40
1.0
 40
1.0
 10
5.150598359130919
 20
57.66913992646869
 30
0.0
 10
1.644788847942451
 20
58.03635446353078
 30
0.0
 10
0.0085408243564923
 20
52.41324226259107
 30
0.0
 10
3.033642309382856
 20
50.99074319658745
 30
0.0
  0
LINE
  5
68
330
1F
100
AcDbEntity
  8
0
  6
Continuous
 62
     7
370
    25
100
AcDbLine
 10
7.8004112285
 20
56.6859920663
 30
0.0
 11
5.1505983591
 21
57.6691399265
 31
0.0
  0
LINE
  5
69
330
1F
100
AcDbEntity
  8
0
  6
Continuous
 62
     7
370
    25
100
AcDbLine
 10
5.4080731107
 20
50.2380826625
 30
0.0
 11
7.8004112285
 21
56.6859920663
 31
0.0
  0
LINE
  5
6A
330
1F
100
AcDbEntity
  8
0
  6
Continuous
 62
     7
370
    25
100
AcDbLine
 10
3.0336423094
 20
50.9907431966
 30
0.0
 11
5.4080731107
 21
50.2380826625
 31
0.0
  0
LINE
  5
6B
330
1F
100
AcDbEntity
  8
0
  6
Continuous
 62
     7
370
    25
100
AcDbLine
 10
-3.158596755
 20
53.2631905083
 30
0.0
 11
-1.8200759856
 21
52.7334633237
 31
0.0
  0
LINE
  5
6C
330
1F
100
AcDbEntity
  8
0
  6
Continuous
 62
     7
370
    25
100
AcDbLine
 10
-0.8352043613
 20
59.885347925
 30
0.0
 11
-3.158596755
 21
53.2631905083
 31
0.0
  0
LINE
  5
6D
330
1F
100
AcDbEntity
  8
0
  6
Continuous
 62
     7
370
    25
100
AcDbLine
 10
0.5220931347
 20
59.4091383637
 30
0.0
 11
-0.8352043613
 21
59.885347925
 31
0.0
  0
LINE
  5
6E
330
1F
100
AcDbEntity
  8
0
  6
Continuous
 62
     7
370
    25
100
AcDbLine
 10
-1.8200759856
 20
52.7334633237
 30
0.0
 11
0.5220931347
 21
59.4091383637
 31
0.0
  0
LINE
  5
6F
330
1F
100
AcDbEntity
  8
0
  6
Continuous
 62
     7
370
    25
100
AcDbLine
 10
-13.0833640863
 20
56.460724833
 30
0.0
 11
-11.9105224587
 21
56.1503703152
 31
0.0
  0
LINE
  5
70
330
1F
100
AcDbEntity
  8
0
  6
Continuous
 62
     7
370
    25
100
AcDbLine
 10
-10.7692761182
 20
63.0563626781
 30
0.0
 11
-13.0833640863
 21
56.460724833
 31
0.0
  0
LINE
  5
71
330
1F
100
AcDbEntity
  8
0
  6
Continuous
 62
     7
370
    25
100
AcDbLine
 10
-9.6280297777
 20
62.6559549409
 30
0.0
 11
-10.7692761182
 21
63.0563626781
 31
0.0
  0
LINE
  5
72
330
1F
100
AcDbEntity
  8
0
  6
Continuous
 62
     7
370
    25
100
AcDbLine
 10
-11.9105224587
 20
56.1503703152
 30
0.0
 11
-9.6280297777
 21
62.6559549409
 31
0.0
  0
LINE
  5
73
330
1F
100
AcDbEntity
  8
0
  6
Continuous
 62
     7
370
    25
100
AcDbLine
 10
-33.8671319597
 20
63.3917496239
 30
0.0
 11
-33.2604172338
 21
63.1788829868
 31
0.0
  0
LINE
  5
74
330
1F
100
AcDbEntity
  8
0
  6
Continuous
 62
     7
370
    25
100
AcDbLine
 10
-36.1587400255
 20
69.253213826
 30
0.0
 11
-33.8671319597
 21
63.3917496239
 31
0.0
  0
LINE
  5
75
330
1F
100
AcDbEntity
  8
0
  6
Continuous
 62
     7
370
    25
100
AcDbLine
 10
-37.5070800568
 20
65.4101608996
 30
0.0
 11
-36.1587400255
 21
69.253213826
 31
0.0
  0
LINE
  5
76
330
1F
100
AcDbEntity
  8
0
  6
Continuous
 62
     7
370
    25
100
AcDbLine
 10
-38.7076357418
 20
65.8313773961
 30
0.0
 11
-37.5070800568
 21
65.4101608996
 31
0.0
  0
LINE
  5
77
330
1F
100
AcDbEntity
  8
0
  6
Continuous
 62
     7
370
    25
100
AcDbLine
 10
-36.3065243717
 20
72.675050256
 30
0.0
 11
-38.7076357418
 21
65.8313773961
 31
0.0
  0
LINE
  5
78
330
1F
100
AcDbEntity
  8
0
  6
Continuous
 62
     7
370
    25
100
AcDbLine
 10
-35.5508982262
 20
72.409937857
 30
0.0
 11
-36.3065243717
 21
72.675050256
 31
0.0
  0
LINE
  5
79
330
1F
100
AcDbEntity
  8
0
  6
Continuous
 62
     7
370
    25
100
AcDbLine
 10
-33.4097862972
 20
66.6374123621
 30
0.0
 11
-35.5508982262
 21
72.409937857
 31
0.0
  0
LINE
  5
7A
330
1F
100
AcDbEntity
  8
0
  6
Continuous
 62
     7
370
    25
100
AcDbLine
 10
-32.046987782
 20
70.5216750114
 30
0.0
 11
-33.4097862972
 21
66.6374123621
 31
0.0
  0
LINE
  5
7B
330
1F
100
AcDbEntity
  8
0
  6
Continuous
 62
     7
370
    25
100
AcDbLine
 10
-30.8335583302
 20
70.0959417373
 30
0.0
 11
-32.046987782
 21
70.5216750114
 31
0.0
  0
LINE
  5
7C
330
1F
100
AcDbEntity
  8
0
  6
Continuous
 62
     7
370
    25
100
AcDbLine
 10
-33.2604172338
 20
63.1788829868
 30
0.0
 11
-30.8335583302
 21
70.0959417373
 31
0.0
  0
SPLINE
  5
7D
330
1F
100
AcDbEntity
  8
0
  6
Continuous
 62
     7
370
    25
100
AcDbSpline
210
0.0
220
0.0
230
1.0
 70
     8
 71
     3
 72
    17
 73
    13
 74
     0
 42
0.00000001
 43
0.00000001
 40
0.0
 40
0.0
 40
0.0
 40
0.0
 40
0.1008012628561389
 40
0.2176961933575756
 40
0.2842510782410732
 40
0.3827182252820055
 40
0.5555772224974805
 40
0.5882978586642128
 40
0.6633569543346446
 40
0.7438011032763373
 40
0.8524066419008081
 40
1.0
 40
1.0
 40
1.0
 40
1.0
 10
-18.10557648995825
 20
59.53620504705448
 30
0.0
 10
-17.91000464160077
 20
58.78361771905449
 30
0.0
 10
-17.51729933404792
 20
58.34472295473154
 30
0.0
 10
-17.02414831249483
 20
57.73803613821404
 30
0.0
 10
-15.45384522061728
 20
57.71846236285114
 30
0.0
 10
-14.3489968601556
 20
58.79346909699944
 30
0.0
 10
-14.77978520615832
 20
60.52593965802497
 30
0.0
 10
-15.88424012330724
 20
61.08096111646594
 30
0.0
 10
-16.27162985228995
 20
61.82040993765153
 30
0.0
 10
-16.55734983320486
 20
62.97702464633846
 30
0.0
 10
-15.01450251332148
 20
64.26969395305775
 30
0.0
 10
-14.14928545931443
 20
62.89291634931039
 30
0.0
 10
-14.24250055634957
 20
62.10630206324374
 30
0.0
  0
LINE
  5
7E
330
1F
100
AcDbEntity
  8
0
  6
Continuous
 62
     7
370
    25
100
AcDbLine
 10
-17.2908640293
 20
59.6901603351
 30
0.0
 11
-18.10557649
 21
59.5362050471
 31
0.0
  0
SPLINE
  5
7F
330
1F
100
AcDbEntity
  8
0
  6
Continuous
 62
     7
370
    25
100
AcDbSpline
210
0.0
220
0.0
230
1.0
 70
     8
 71
     3
 72
    15
 73
    11
 74
     0
 42
0.00000001
 43
0.00000001
 40
0.0
 40
0.0
 40
0.0
 40
0.0
 40
0.2321632522145393
 40
0.4014784601918637
 40
0.4747352669320821
 40
0.6623621626477142
 40
0.6931687769937319
 40
0.7668135449092269
 40
0.8632147212442107
 40
1.0
 40
1.0
 40
1.0
 40
1.0
 10
-13.25598115800916
 20
62.10630206324375
 30
0.0
 10
-13.12327671710105
 20
63.09815692686679
 30
0.0
 10
-14.38417785178525
 20
65.13797302164934
 30
0.0
 10
-16.96771359816747
 20
64.08841947189522
 30
0.0
 10
-17.32197428466343
 20
62.12988590515866
 30
0.0
 10
-16.54282968568265
 20
60.8782900493881
 30
0.0
 10
-15.54184328098289
 20
60.0960068708827
 30
0.0
 10
-15.08147930655923
 20
59.19687962362941
 30
0.0
 10
-16.40593478960088
 20
57.73493466552039
 30
0.0
 10
-17.37482171609949
 20
59.22354697557955
 30
0.0
 10
-17.29086402934854
 20
59.69016033507123
 30
0.0
  0
LINE
  5
80
330
1F
100
AcDbEntity
  8
0
  6
Continuous
 62
     7
370
    25
100
AcDbLine
 10
-14.2425005563
 20
62.1063020632
 30
0.0
 11
-13.255981158
 21
62.1063020632
 31
0.0
  0
SPLINE
  5
81
330
1F
100
AcDbEntity
  8
0
  6
Continuous
 62
     7
370
    25
100
AcDbSpline
210
0.0
220
0.0
230
1.0
 70
    11
 71
     3
 72
    14
 73
    10
 74
     0
 42
0.00000001
 43
0.00000001
 40
0.0
 40
0.0
 40
0.0
 40
0.0
 40
0.1176265555876437
 40
0.2399388517863633
 40
0.3542215333899811
 40
0.505351266887917
 40
0.6490901802235917
 40
0.8446942232221487
 40
1.0
 40
1.0
 40
1.0
 40
1.0
 10
-47.75273654913548
 20
68.55477785116548
 30
0.0
 10
-46.95595215116185
 20
68.24051285794619
 30
0.0
 10
-45.03012194506881
 20
68.38616623559444
 30
0.0
 10
-43.21315180525257
 20
70.36492128905304
 30
0.0
 10
-42.49581771398815
 20
73.21697329439462
 30
0.0
 10
-44.68973147921641
 20
76.06889924913378
 30
0.0
 10
-48.65883332971898
 20
75.28539669468226
 30
0.0
 10
-50.60146493459484
 20
71.42634759324763
 30
0.0
 10
-48.80475426089753
 20
68.96971110022794
 30
0.0
 10
-47.75273654913548
 20
68.55477785116548
 30
0.0
  0
LINE
  5
82
330
1F
100
AcDbEntity
  8
0
  6
Continuous
 62
     7
370
    25
100
AcDbLine
 10
11.3014305233
 20
-29.3562763873
 30
0.0
 11
32.3199815893
 21
33.0037362728
 31
0.0
  0
LINE
  5
83
330
1F
100
AcDbEntity
  8
0
  6
Continuous
 62
     7
370
    25
100
AcDbLine
 10
-12.8410104106
 20
29.5520646762
 30
0.0
 11
11.3014305233
 21
-29.3562763873
 31
0.0
  0
LINE
  5
84
330
1F
100
AcDbEntity
  8
0
  6
Continuous
 62
     7
370
    25
100
AcDbLine
 10
-26.4088143036
 20
-10.702300141
 30
0.0
 11
-12.8410104106
 21
29.5520646762
 31
0.0
  0
LINE
  5
85
330
1F
100
AcDbEntity
  8
0
  6
Continuous
 62
     7
370
    25
100
AcDbLine
 10
-33.9985468585
 20
-8.1441675417
 30
0.0
 11
-26.4088143036
 21
-10.702300141
 31
0.0
  0
LINE
  5
86
330
1F
100
AcDbEntity
  8
0
  6
Continuous
 62
     7
370
    25
100
AcDbLine
 10
-13.2559811584
 20
53.3970231716
 30
0.0
 11
-33.9985468585
 21
-8.1441675417
 31
0.0
  0
LINE
  5
87
330
1F
100
AcDbEntity
  8
0
  6
Continuous
 62
     7
370
    25
100
AcDbLine
 10
10.4091154133
 20
-5.0303724435
 30
0.0
 11
-13.2559811584
 21
53.3970231716
 31
0.0
  0
LINE
  5
88
330
1F
100
AcDbEntity
  8
0
  6
Continuous
 62
     7
370
    25
100
AcDbLine
 10
24.1560342018
 20
35.7554089833
 30
0.0
 11
10.4091154133
 21
-5.0303724435
 31
0.0
  0
LINE
  5
89
330
1F
100
AcDbEntity
  8
0
  6
Continuous
 62
     7
370
    25
100
AcDbLine
 10
32.3199815893
 20
33.0037362728
 30
0.0
 11
24.1560342018
 21
35.7554089833
 31
0.0
  0
SPLINE
  5
8A
330
1F
100
AcDbEntity
  8
0
  6
Continuous
 62
     7
370
    25
100
AcDbSpline
210
0.0
220
0.0
230
1.0
 70
     8
 71
     3
 72
    16
 73
    12
 74
     0
 42
0.00000001
 43
0.00000001
 40
0.0000464187494343
 40
0.0000464187494343
 40
0.0000464187494343
 40
0.0000464187494343
 40
0.0254295713242455
 40
0.0508127238990566
 40
0.1015790290486789
 40
0.1523453341983013
 40
0.2031116393479236
 40
0.2538779444975459
 40
0.3046442496471682
 40
0.3554105547967906
 40
0.3570635185913032
 40
0.3570635185913032
 40
0.3570635185913032
 40
0.3570635185913032
 10
-0.0000000000003053
 20
104.1751437604719
 30
0.0
 10
-2.154495583295379
 20
104.1496395080975
 30
0.0
 10
-6.440273839673639
 20
103.9514963640946
 30
0.0
 10
-15.1444255969041
 20
102.9228075361568
 30
0.0
 10
-25.88225697599983
 20
100.3709282176726
 30
0.0
 10
-37.88674827379314
 20
95.0789334136309
 30
0.0
 10
-48.22226757975825
 20
87.22613385213172
 30
0.0
 10
-56.8610379432923
 20
77.2324131456083
 30
0.0
 10
-63.92402604717949
 20
66.01476122653838
 30
0.0
 10
-67.6150231008025
 20
57.91781964019424
 30
0.0
 10
-69.1797355154524
 20
53.70233788163224
 30
0.0
 10
-69.22876782969855
 20
53.56930836140012
 30
0.0
  0
LINE
  5
8B
330
1F
100
AcDbEntity
  8
0
  6
Continuous
 62
     7
370
    25
100
AcDbLine
 10
-68.1451655145
 20
45.3057338269
 30
0.0
 11
-69.2287678297
 21
53.5693083614
 31
0.0
  0
LINE
  5
8C
330
1F
100
AcDbEntity
  8
0
  6
Continuous
 62
     7
370
    25
100
AcDbLine
 10
-48.6497207842
 20
63.178882987
 30
0.0
 11
-68.1451655145
 21
45.3057338269
 31
0.0
  0
LINE
  5
8D
330
1F
100
AcDbEntity
  8
0
  6
Continuous
 62
     7
370
    25
100
AcDbLine
 10
-18.6786522298
 20
52.4201173624
 30
0.0
 11
-48.6497207842
 21
63.178882987
 31
0.0
  0
LINE
  5
8E
330
1F
100
AcDbEntity
  8
0
  6
Continuous
 62
     7
370
    25
100
AcDbLine
 10
-38.1566236218
 20
-5.3691440756
 30
0.0
 11
-18.6786522298
 21
52.4201173624
 31
0.0
  0
LINE
  5
8F
330
1F
100
AcDbEntity
  8
0
  6
Continuous
 62
     7
370
    25
100
AcDbLine
 10
-70.6908573376
 20
6.3097253211
 30
0.0
 11
-38.1566236218
 21
-5.3691440756
 31
0.0
  0
LINE
  5
90
330
1F
100
AcDbEntity
  8
0
  6
Continuous
 62
     7
370
    25
100
AcDbLine
 10
-73.7564916928
 20
29.6883187727
 30
0.0
 11
-70.6908573376
 21
6.3097253211
 31
0.0
  0
LINE
  5
91
330
1F
100
AcDbEntity
  8
0
  6
Continuous
 62
     7
370
    25
100
AcDbLine
 10
-74.792591835
 20
28.6522186308
 30
0.0
 11
-73.7564916928
 21
29.6883187727
 31
0.0
  0
SPLINE
  5
92
330
1F
100
AcDbEntity
  8
0
  6
Continuous
 62
     7
370
    25
100
AcDbSpline
210
0.0
220
0.0
230
1.0
 70
     8
 71
     3
 72
    17
 73
    13
 74
     0
 42
0.00000001
 43
0.00000001
 40
0.4566351935335638
 40
0.4566351935335638
 40
0.4566351935335638
 40
0.4566351935335638
 40
0.4569431650960352
 40
0.5077094702456575
 40
0.5584757753952798
 40
0.6092420805449021
 40
0.6600083856945245
 40
0.7107746908441468
 40
0.736157843418958
 40
0.7615409959937691
 40
0.7869241485685803
 40
0.8123073011433914
 40
0.8123073011433914
 40
0.8123073011433914
 40
0.8123073011433914
 10
-74.79259183504615
 20
28.65221863079619
 30
0.0
 10
-74.79515822907504
 20
28.62583717346726
 30
0.0
 10
-75.21934559832933
 20
24.25045980414534
 30
0.0
 10
-75.5944095921995
 20
15.44269283473165
 30
0.0
 10
-75.13374371043263
 20
2.171776207955096
 30
0.0
 10
-73.69268210617115
 20
-10.93505656381058
 30
0.0
 10
-70.60906384592575
 20
-23.60427199855485
 30
0.0
 10
-66.19551904089522
 20
-33.65915956387036
 30
0.0
 10
-61.43010550384363
 20
-40.89130914793702
 30
0.0
 10
-57.19972284015861
 20
-45.76463817163191
 30
0.0
 10
-52.3954061902161
 20
-50.13533055197868
 30
0.0
 10
-48.86395000927355
 20
-52.75570012490697
 30
0.0
 10
-47.05547439804706
 20
-53.98490178644145
 30
0.0
  0
LINE
  5
93
330
1F
100
AcDbEntity
  8
0
  6
Continuous
 62
     7
370
    25
100
AcDbLine
 10
-47.055474398
 20
-53.9849017864
 30
0.0
 11
47.055474398
 21
-53.9849017864
 31
0.0
  0
SPLINE
  5
94
330
1F
100
AcDbEntity
  8
0
  6
Continuous
 62
     7
370
    25
100
AcDbSpline
210
0.0
220
0.0
230
1.0
 70
     8
 71
     3
 72
    10
 73
     6
 74
     0
 42
0.00000001
 43
0.00000001
 40
0.1876926988566094
 40
0.1876926988566094
 40
0.1876926988566094
 40
0.1876926988566094
 40
0.2130758514314207
 40
0.2384590040062319
 40
0.258252849759021
 40
0.258252849759021
 40
0.258252849759021
 40
0.258252849759021
 10
47.05547439804729
 20
-53.98490178644131
 30
0.0
 10
48.86395000927378
 20
-52.75570012490682
 30
0.0
 10
52.39540619021627
 20
-50.13533055197851
 30
0.0
 10
56.84708999641816
 20
-46.0854433548654
 30
0.0
 10
59.39432676517497
 20
-43.22708685941441
 30
0.0
 10
60.4456940784603
 20
-41.91998015541932
 30
0.0
  0
LINE
  5
95
330
1F
100
AcDbEntity
  8
0
  6
Continuous
 62
     7
370
    25
100
AcDbLine
 10
27.2744236021
 20
-29.7829910595
 30
0.0
 11
60.4456940785
 21
-41.9199801554
 31
0.0
  0
LINE
  5
96
330
1F
100
AcDbEntity
  8
0
  6
Continuous
 62
     7
370
    25
100
AcDbLine
 10
75.4232210198
 20
13.9156315733
 30
0.0
 11
27.2744236021
 21
-29.7829910595
 31
0.0
  0
SPLINE
  5
97
330
1F
100
AcDbEntity
  8
0
  6
Continuous
 62
     7
370
    25
100
AcDbSpline
210
0.0
220
0.0
230
1.0
 70
     8
 71
     3
 72
    19
 73
    15
 74
     0
 42
0.00000001
 43
0.00000001
 40
0.4864927496407396
 40
0.4864927496407396
 40
0.4864927496407396
 40
0.4864927496407396
 40
0.4922905297543439
 40
0.5430568349039663
 40
0.5938231400535887
 40
0.6445894452032112
 40
0.6953557503528336
 40
0.746122055502456
 40
0.7968883606520785
 40
0.8476546658017009
 40
0.8984209709513233
 40
0.9491872761009457
 40
0.9745704286757568
 40
0.9999535812505681
 40
0.9999535812505681
 40
0.9999535812505681
 40
0.9999535812505681
 10
75.42322101982523
 20
13.91563157332192
 30
0.0
 10
75.4257443764393
 20
14.41931193516031
 30
0.0
 10
75.42879708007385
 20
19.33183292245558
 30
0.0
 10
75.03351492284347
 20
28.61439052583021
 30
0.0
 10
73.07312215425857
 20
41.53816317545348
 30
0.0
 10
69.37183067615753
 20
54.06391021966679
 30
0.0
 10
63.92402604717928
 20
66.01476122653885
 30
0.0
 10
56.86103794329201
 20
77.23241314560872
 30
0.0
 10
48.22226757975784
 20
87.22613385213215
 30
0.0
 10
37.88674827379268
 20
95.07893341363119
 30
0.0
 10
25.88225697599927
 20
100.3709282176728
 30
0.0
 10
15.14442559690351
 20
102.9228075361569
 30
0.0
 10
6.440273839673046
 20
103.9514963640946
 30
0.0
 10
2.154495583294781
 20
104.1496395080975
 30
0.0
 10
-0.0000000000002993
 20
104.1751437604719
 30
0.0
  0
SPLINE
  5
98
330
1F
100
AcDbEntity
  8
0
  6
Continuous
 62
     7
370
    25
100
AcDbSpline
210
0.0
220
0.0
230
1.0
 70
    11
 71
     3
 72
    16
 73
    12
 74
     0
 42
0.00000001
 43
0.00000001
 40
0.0
 40
0.0
 40
0.0
 40
0.0
 40
0.0741639408166802
 40
0.1641728577157723
 40
0.3135127201901737
 40
0.36835355230509
 40
0.4179119934597213
 40
0.6018641021995232
 40
0.7617493991340104
 40
0.9301201551226308
 40
1.0
 40
1.0
 40
1.0
 40
1.0
 10
-27.94578149770643
 20
61.51101019583576
 30
0.0
 10
-27.45859618311331
 20
61.32130069651653
 30
0.0
 10
-26.29364283226189
 20
61.16100028568085
 30
0.0
 10
-24.09460337537449
 20
61.87742524876565
 30
0.0
 10
-23.0740216267424
 20
64.03234755211862
 30
0.0
 10
-23.20946698118237
 20
65.80007447523519
 30
0.0
 10
-23.8623285393311
 20
67.75390312276097
 30
0.0
 10
-27.34569603888015
 20
68.91399205818627
 30
0.0
 10
-30.23957600845501
 20
65.99134329677887
 30
0.0
 10
-29.85162594700988
 20
62.65424195650466
 30
0.0
 10
-28.40482444816739
 20
61.68976108526005
 30
0.0
 10
-27.94578149770643
 20
61.51101019583576
 30
0.0
  0
LINE
  5
99
330
1F
100
AcDbEntity
  8
0
  6
Continuous
 62
     7
370
    25
100
AcDbLine
 10
-55.8291041793
 20
71.6825998969
 30
0.0
 11
-52.7095616951
 21
70.5216750114
 31
0.0
  0
LINE
  5
9A
330
1F
100
AcDbEntity
  8
0
  6
Continuous
 62
     7
370
    25
100
AcDbLine
 10
-55.4809017024
 20
72.675050256
 30
0.0
 11
-55.8291041793
 21
71.6825998969
 31
0.0
  0
LINE
  5
9B
330
1F
100
AcDbEntity
  8
0
  6
Continuous
 62
     7
370
    25
100
AcDbLine
 10
-53.6083256836
 20
71.964336363
 30
0.0
 11
-55.4809017024
 21
72.675050256
 31
0.0
  0
LINE
  5
9C
330
1F
100
AcDbEntity
  8
0
  6
Continuous
 62
     7
370
    25
100
AcDbLine
 10
-53.1293964954
 20
73.2262102636
 30
0.0
 11
-53.6083256836
 21
71.964336363
 31
0.0
  0
LINE
  5
9D
330
1F
100
AcDbEntity
  8
0
  6
Continuous
 62
     7
370
    25
100
AcDbLine
 10
-54.9068953905
 20
73.9296655306
 30
0.0
 11
-53.1293964954
 21
73.2262102636
 31
0.0
  0
LINE
  5
9E
330
1F
100
AcDbEntity
  8
0
  6
Continuous
 62
     7
370
    25
100
AcDbLine
 10
-54.4870605902
 20
74.990508954
 30
0.0
 11
-54.9068953905
 21
73.9296655306
 31
0.0
  0
LINE
  5
9F
330
1F
100
AcDbEntity
  8
0
  6
Continuous
 62
     7
370
    25
100
AcDbLine
 10
-52.7095616951
 20
74.287053687
 30
0.0
 11
-54.4870605902
 21
74.990508954
 31
0.0
  0
LINE
  5
A0
330
1F
100
AcDbEntity
  8
0
  6
Continuous
 62
     7
370
    25
100
AcDbLine
 10
-51.5760432902
 20
77.5178197567
 30
0.0
 11
-52.7095616951
 21
74.287053687
 31
0.0
  0
LINE
  5
A1
330
1F
100
AcDbEntity
  8
0
  6
Continuous
 62
     7
370
    25
100
AcDbLine
 10
-50.4864338348
 20
77.1355288865
 30
0.0
 11
-51.5760432902
 21
77.5178197567
 31
0.0
  0
LINE
  5
A2
330
1F
100
AcDbEntity
  8
0
  6
Continuous
 62
     7
370
    25
100
AcDbLine
 10
-52.7095616951
 20
70.5216750114
 30
0.0
 11
-50.4864338348
 21
77.1355288865
 31
0.0
  0
LINE
  5
A3
330
1F
100
AcDbEntity
  8
0
  6
Continuous
 62
     7
370
    25
100
AcDbLine
 10
-22.2044526339
 20
59.885347925
 30
0.0
 11
-20.9339995971
 21
59.4031626281
 31
0.0
  0
LINE
  5
A4
330
1F
100
AcDbEntity
  8
0
  6
Continuous
 62
     7
370
    25
100
AcDbLine
 10
-19.9604906214
 20
66.2811120343
 30
0.0
 11
-22.2044526339
 21
59.885347925
 31
0.0
  0
LINE
  5
A5
330
1F
100
AcDbEntity
  8
0
  6
Continuous
 62
     7
370
    25
100
AcDbLine
 10
-18.6786522295
 20
65.8313773961
 30
0.0
 11
-19.9604906214
 21
66.2811120343
 31
0.0
  0
LINE
  5
A6
330
1F
100
AcDbEntity
  8
0
  6
Continuous
 62
     7
370
    25
100
AcDbLine
 10
-20.9339995971
 20
59.4031626281
 30
0.0
 11
-18.6786522295
 21
65.8313773961
 31
0.0
  0
LINE
  5
A7
330
1F
100
AcDbEntity
  8
0
  6
Continuous
 62
     7
370
    25
100
AcDbLine
 10
-5.5530642239
 20
53.8742858765
 30
0.0
 11
-4.3436032254
 21
53.5693083613
 31
0.0
  0
LINE
  5
A8
330
1F
100
AcDbEntity
  8
0
  6
Continuous
 62
     7
370
    25
100
AcDbLine
 10
-6.1050346203
 20
58.0554506844
 30
0.0
 11
-5.5530642239
 21
53.8742858765
 31
0.0
  0
LINE
  5
A9
330
1F
100
AcDbEntity
  8
0
  6
Continuous
 62
     7
370
    25
100
AcDbLine
 10
-6.4342125318
 20
58.0554506844
 30
0.0
 11
-6.1050346203
 21
58.0554506844
 31
0.0
  0
LINE
  5
AA
330
1F
100
AcDbEntity
  8
0
  6
Continuous
 62
     7
370
    25
100
AcDbLine
 10
-8.9759634945
 20
54.8659989816
 30
0.0
 11
-6.4342125318
 21
58.0554506844
 31
0.0
  0
LINE
  5
AB
330
1F
100
AcDbEntity
  8
0
  6
Continuous
 62
     7
370
    25
100
AcDbLine
 10
-10.2800960609
 20
55.3821168398
 30
0.0
 11
-8.9759634945
 21
54.8659989816
 31
0.0
  0
LINE
  5
AC
330
1F
100
AcDbEntity
  8
0
  6
Continuous
 62
     7
370
    25
100
AcDbLine
 10
-5.395833172
 20
61.5110101958
 30
0.0
 11
-10.2800960609
 21
55.3821168398
 31
0.0
  0
LINE
  5
AD
330
1F
100
AcDbEntity
  8
0
  6
Continuous
 62
     7
370
    25
100
AcDbLine
 10
-4.8266277535
 20
61.2857439238
 30
0.0
 11
-5.395833172
 21
61.5110101958
 31
0.0
  0
LINE
  5
AE
330
1F
100
AcDbEntity
  8
0
  6
Continuous
 62
     7
370
    25
100
AcDbLine
 10
-4.3436032254
 20
53.5693083613
 30
0.0
 11
-4.8266277535
 21
61.2857439238
 31
0.0
  0
SPLINE
  5
AF
330
1F
100
AcDbEntity
  8
0
  6
Continuous
 62
     7
370
    25
100
AcDbSpline
210
0.0
220
0.0
230
1.0
 70
     8
 71
     3
 72
    12
 73
     8
 74
     0
 42
0.00000001
 43
0.00000001
 40
0.0
 40
0.0
 40
0.0
 40
0.0
 40
0.3102862063402534
 40
0.381282036234289
 40
0.4853599540236907
 40
0.724357742212997
 40
1.0
 40
1.0
 40
1.0
 40
1.0
 10
23.081485014778
 20
46.88799665028753
 30
0.0
 10
23.70892662939618
 20
47.09004030600881
 30
0.0
 10
24.65701016547796
 20
47.35388296377123
 30
0.0
 10
25.2198233254525
 20
48.31529101153286
 30
0.0
 10
25.36006357378925
 20
49.23506876973989
 30
0.0
 10
25.03029158038026
 20
50.77919050499992
 30
0.0
 10
23.66287907822777
 20
51.09484163568479
 30
0.0
 10
23.081485014778
 20
50.99074319658741
 30
0.0
  0
SPLINE
  5
B0
330
1F
100
AcDbEntity
  8
0
  6
Continuous
 62
     7
370
    25
100
AcDbSpline
210
0.0
220
0.0
230
1.0
 70
     8
 71
     3
 72
    14
 73
    10
 74
     0
 42
0.00000001
 43
0.00000001
 40
0.0
 40
0.0
 40
0.0
 40
0.0
 40
0.217369778864252
 40
0.3377665846134248
 40
0.4553076251844672
 40
0.5653435549084739
 40
0.7019454425606667
 40
0.8206815574365104
 40
1.0
 40
1.0
 40
1.0
 40
1.0
 10
21.9605272628002
 20
47.56250536437572
 30
0.0
 10
21.31569821038029
 20
47.61065166768412
 30
0.0
 10
20.2997866757338
 20
46.99148937043962
 30
0.0
 10
20.19896012027874
 20
45.58756590425875
 30
0.0
 10
20.64911460826168
 20
44.61363642932674
 30
0.0
 10
21.66953851770102
 20
44.12947063464939
 30
0.0
 10
22.80993003852106
 20
44.35587298097872
 30
0.0
 10
23.61279210291778
 20
45.50414360433604
 30
0.0
 10
23.26883319349297
 20
46.4302382095885
 30
0.0
 10
23.081485014778
 20
46.88799665028753
 30
0.0
  0
LINE
  5
B1
330
1F
100
AcDbEntity
  8
0
  6
Continuous
 62
     7
370
    25
100
AcDbLine
 10
21.2973552775
 20
49.2314758007
 30
0.0
 11
21.9605272628
 21
47.5625053644
 31
0.0
  0
LINE
  5
B2
330
1F
100
AcDbEntity
  8
0
  6
Continuous
 62
     7
370
    25
100
AcDbLine
 10
19.8505766743
 20
48.6565926167
 30
0.0
 11
21.2973552775
 21
49.2314758007
 31
0.0
  0
LINE
  5
B3
330
1F
100
AcDbEntity
  8
0
  6
Continuous
 62
     7
370
    25
100
AcDbLine
 10
19.3952832298
 20
49.8024059435
 30
0.0
 11
19.8505766743
 21
48.6565926167
 31
0.0
  0
LINE
  5
B4
330
1F
100
AcDbEntity
  8
0
  6
Continuous
 62
     7
370
    25
100
AcDbLine
 10
20.491728164
 20
50.2380826625
 30
0.0
 11
19.3952832298
 21
49.8024059435
 31
0.0
  0
LINE
  5
B5
330
1F
100
AcDbEntity
  8
0
  6
Continuous
 62
     7
370
    25
100
AcDbLine
 10
19.9002796544
 20
51.7265503588
 30
0.0
 11
20.491728164
 21
50.2380826625
 31
0.0
  0
LINE
  5
B6
330
1F
100
AcDbEntity
  8
0
  6
Continuous
 62
     7
370
    25
100
AcDbLine
 10
20.1193820846
 20
52.2345826306
 30
0.0
 11
19.9002796544
 21
51.7265503588
 31
0.0
  0
LINE
  5
B7
330
1F
100
AcDbEntity
  8
0
  6
Continuous
 62
     7
370
    25
100
AcDbLine
 10
21.2973552775
 20
51.7265503588
 30
0.0
 11
20.1193820846
 21
52.2345826306
 31
0.0
  0
LINE
  5
B8
330
1F
100
AcDbEntity
  8
0
  6
Continuous
 62
     7
370
    25
100
AcDbLine
 10
21.7931470402
 20
50.4788170212
 30
0.0
 11
21.2973552775
 21
51.7265503588
 31
0.0
  0
LINE
  5
B9
330
1F
100
AcDbEntity
  8
0
  6
Continuous
 62
     7
370
    25
100
AcDbLine
 10
23.0814850148
 20
50.9907431966
 30
0.0
 11
21.7931470402
 21
50.4788170212
 31
0.0
  0
LINE
  5
BA
330
1F
100
AcDbEntity
  8
0
  6
Continuous
 62
     7
370
    25
100
AcDbLine
 10
26.5079730028
 20
42.6494823533
 30
0.0
 11
28.8182621588
 21
41.7981450934
 31
0.0
  0
SPLINE
  5
BB
330
1F
100
AcDbEntity
  8
0
  6
Continuous
 62
     7
370
    25
100
AcDbSpline
210
0.0
220
0.0
230
1.0
 70
     8
 71
     3
 72
    10
 73
     6
 74
     0
 42
0.00000001
 43
0.00000001
 40
0.0
 40
0.0
 40
0.0
 40
0.0
 40
0.3420662556671058
 40
0.568234640970479
 40
1.0
 40
1.0
 40
1.0
 40
1.0
 10
27.54504516493818
 20
46.30582012135775
 30
0.0
 10
26.99992596408651
 20
46.17491494843286
 30
0.0
 10
25.89812158858794
 20
45.91721446338362
 30
0.0
 10
25.13518498508899
 20
44.15951477445996
 30
0.0
 10
25.78001184692317
 20
42.95084216055746
 30
0.0
 10
26.50797300280061
 20
42.64948235326216
 30
0.0
  0
LINE
  5
BC
330
1F
100
AcDbEntity
  8
0
  6
Continuous
 62
     7
370
    25
100
AcDbLine
 10
26.5968759252
 20
49.5255575392
 30
0.0
 11
27.5450451649
 21
46.3058201214
 31
0.0
  0
LINE
  5
BD
330
1F
100
AcDbEntity
  8
0
  6
Continuous
 62
     7
370
    25
100
AcDbLine
 10
26.7920456429
 20
50.0677064194
 30
0.0
 11
26.5968759252
 21
49.5255575392
 31
0.0
  0
LINE
  5
BE
330
1F
100
AcDbEntity
  8
0
  6
Continuous
 62
     7
370
    25
100
AcDbLine
 10
28.298044687
 20
49.5255575392
 30
0.0
 11
26.7920456429
 21
50.0677064194
 31
0.0
  0
LINE
  5
BF
330
1F
100
AcDbEntity
  8
0
  6
Continuous
 62
     7
370
    25
100
AcDbLine
 10
28.9268455843
 20
46.7738631663
 30
0.0
 11
28.298044687
 21
49.5255575392
 31
0.0
  0
LINE
  5
C0
330
1F
100
AcDbEntity
  8
0
  6
Continuous
 62
     7
370
    25
100
AcDbLine
 10
29.7316482353
 20
49.0094705195
 30
0.0
 11
28.9268455843
 21
46.7738631663
 31
0.0
  0
LINE
  5
C1
330
1F
100
AcDbEntity
  8
0
  6
Continuous
 62
     7
370
    25
100
AcDbLine
 10
31.2212438022
 20
48.4732267738
 30
0.0
 11
29.7316482353
 21
49.0094705195
 31
0.0
  0
LINE
  5
C2
330
1F
100
AcDbEntity
  8
0
  6
Continuous
 62
     7
370
    25
100
AcDbLine
 10
28.8182621588
 20
41.7981450934
 30
0.0
 11
31.2212438022
 21
48.4732267738
 31
0.0
  0
MTEXT
  5
C4
330
1F
100
AcDbEntity
  8
0
  6
Continuous
 62
     7
100
AcDbMText
 10
-75.4088066536
 20
-55.0044681781
 30
0.0
 40
4.83362
 41
0.0
 71
     1
 72
     1
  1
SOLIDWORKS Educational Product.
  7
SLDTEXTSTYLE0
 73
     1
 44
1.0
  0
MTEXT
  5
C5
330
1F
100
AcDbEntity
  8
0
  6
Continuous
 62
     7
100
AcDbMText
 10
-75.4088066536
 20
-62.2548981781
 30
0.0
 40
4.83362
 41
0.0
 71
     1
 72
     1
  1
For Instructional Use Only.
  7
SLDTEXTSTYLE0
 73
     1
 44
1.0
  0
ENDSEC
  0
SECTION
  2
OBJECTS
  0
DICTIONARY
  5
C
330
0
100
AcDbDictionary
281
     1
  3
ACAD_GROUP
350
D
  3
ACAD_LAYOUT
350
1A
  3
ACAD_MLINESTYLE
350
17
  3
ACAD_PLOTSETTINGS
350
19
  3
ACAD_PLOTSTYLENAME
350
E
  3
ACAD_SCALELIST
350
47
  3
DWGPROPS
350
C6
  0
DICTIONARY
  5
D
102
{ACAD_REACTORS
330
C
102
}
330
C
100
AcDbDictionary
281
     1
  0
DICTIONARY
  5
1A
102
{ACAD_REACTORS
330
C
102
}
330
C
100
AcDbDictionary
281
     1
  3
Layout1
350
1E
  3
Layout2
350
26
  3
Model
350
22
  0
DICTIONARY
  5
17
102
{ACAD_REACTORS
330
C
102
}
330
C
100
AcDbDictionary
281
     1
  3
Standard
350
18
  0
DICTIONARY
  5
19
102
{ACAD_REACTORS
330
C
102
}
330
C
100
AcDbDictionary
281
     1
  0
ACDBDICTIONARYWDFLT
  5
E
102
{ACAD_REACTORS
330
C
102
}
330
C
100
AcDbDictionary
281
     1
  3
Normal
350
F
100
AcDbDictionaryWithDefault
340
F
  0
DICTIONARY
  5
47
102
{ACAD_REACTORS
330
C
102
}
330
C
100
AcDbDictionary
281
     1
  3
A0
350
48
  3
A1
350
49
  3
A2
350
4A
  3
A3
350
4B
  3
A4
350
4C
  3
A5
350
4D
  3
A6
350
4E
  3
A7
350
4F
  3
A8
350
50
  3
A9
350
51
  3
B0
350
52
  3
B1
350
53
  3
B2
350
54
  3
B3
350
55
  3
B4
350
56
  3
B5
350
57
  3
B6
350
58
  0
XRECORD
  5
C6
102
{ACAD_REACTORS
330
C
102
}
330
C
100
AcDbXrecord
280
     1
  1
DWGPROPS COOKIE
  2

  3

  4

  6

  7

  8
nugenjs
  9

300
=
301
=
302
=
303
=
304
=
305
=
306
=
307
=
308
=
309
=
 40
0.0
 41
2460092.831398264
 42
2460092.831435394
  1

 90
        0
  0
LAYOUT
  5
1E
102
{ACAD_REACTORS
330
1A
102
}
330
1A
100
AcDbPlotSettings
  1

  2
none_device
  4

  6

 40
0.0
 41
0.0
 42
0.0
 43
0.0
 44
0.0
 45
0.0
 46
0.0
 47
0.0
 48
0.0
 49
0.0
140
0.0
141
0.0
142
1.0
143
1.0
 70
   688
 72
     1
 73
     0
 74
     5
  7

 75
    16
147
1.0
148
0.0
149
0.0
100
AcDbLayout
  1
Layout1
 70
     1
 71
     1
 10
0.0
 20
0.0
 11
420.0
 21
297.0
 12
0.0
 22
0.0
 32
0.0
 14
1.0000000000E+20
 24
1.0000000000E+20
 34
1.0000000000E+20
 15
-1.0000000000E+20
 25
-1.0000000000E+20
 35
-1.0000000000E+20
146
0.0
 13
0.0
 23
0.0
 33
0.0
 16
1.0
 26
0.0
 36
0.0
 17
0.0
 27
1.0
 37
0.0
 76
     0
330
1B
  0
LAYOUT
  5
26
102
{ACAD_REACTORS
330
1A
102
}
330
1A
100
AcDbPlotSettings
  1

  2
none_device
  4

  6

 40
0.0
 41
0.0
 42
0.0
 43
0.0
 44
0.0
 45
0.0
 46
0.0
 47
0.0
 48
0.0
 49
0.0
140
0.0
141
0.0
142
1.0
143
1.0
 70
   688
 72
     1
 73
     0
 74
     5
  7

 75
    16
147
1.0
148
0.0
149
0.0
100
AcDbLayout
  1
Layout2
 70
     1
 71
     2
 10
0.0
 20
0.0
 11
0.0
 21
0.0
 12
0.0
 22
0.0
 32
0.0
 14
0.0
 24
0.0
 34
0.0
 15
0.0
 25
0.0
 35
0.0
146
0.0
 13
0.0
 23
0.0
 33
0.0
 16
1.0
 26
0.0
 36
0.0
 17
0.0
 27
1.0
 37
0.0
 76
     0
330
23
  0
LAYOUT
  5
22
102
{ACAD_REACTORS
330
1A
102
}
330
1A
100
AcDbPlotSettings
  1

  2
none_device
  4
ANSI_A_(11.00_x_8.50_Inches)
  6

 40
6.35
 41
19.05
 42
6.35000508
 43
19.05000254
 44
279.4
 45
215.9
 46
133.3402575126
 47
54.9858945937
 48
0.0
 49
0.0
140
0.0
141
0.0
142
0.0532055992
143
1.0
 70
  1696
 72
     0
 73
     0
 74
     0
  7

 75
     0
147
0.0179189148
148
-1300.4909072572
149
0.0
100
AcDbLayout
  1
Model
 70
     1
 71
     0
 10
0.0
 20
0.0
 11
420.0
 21
297.0
 12
0.0
 22
0.0
 32
0.0
 14
-75.4088066536
 24
-53.9849017864
 34
0.0
 15
75.4232210198
 25
104.1751437605
 35
0.0
146
0.0
 13
0.0
 23
0.0
 33
0.0
 16
1.0
 26
0.0
 36
0.0
 17
0.0
 27
1.0
 37
0.0
 76
     0
330
1F
331
29
  0
MLINESTYLE
  5
18
102
{ACAD_REACTORS
330
17
102
}
330
17
100
AcDbMlineStyle
  2
Standard
 70
     0
  3

 62
   256
 51
90.0
 52
90.0
 71
     2
 49
0.5
 62
   256
  6
BYLAYER
 49
-0.5
 62
   256
  6
BYLAYER
  0
ACDBPLACEHOLDER
  5
F
102
{ACAD_REACTORS
330
E
102
}
330
E
  0
SCALE
  5
48
102
{ACAD_REACTORS
330
47
102
}
330
47
100
AcDbScale
 70
     0
300
1:1
140
1.0
141
1.0
290
     1
  0
SCALE
  5
49
102
{ACAD_REACTORS
330
47
102
}
330
47
100
AcDbScale
 70
     0
300
1:2
140
1.0
141
2.0
290
     0
  0
SCALE
  5
4A
102
{ACAD_REACTORS
330
47
102
}
330
47
100
AcDbScale
 70
     0
300
1:4
140
1.0
141
4.0
290
     0
  0
SCALE
  5
4B
102
{ACAD_REACTORS
330
47
102
}
330
47
100
AcDbScale
 70
     0
300
1:5
140
1.0
141
5.0
290
     0
  0
SCALE
  5
4C
102
{ACAD_REACTORS
330
47
102
}
330
47
100
AcDbScale
 70
     0
300
1:8
140
1.0
141
8.0
290
     0
  0
SCALE
  5
4D
102
{ACAD_REACTORS
330
47
102
}
330
47
100
AcDbScale
 70
     0
300
1:10
140
1.0
141
10.0
290
     0
  0
SCALE
  5
4E
102
{ACAD_REACTORS
330
47
102
}
330
47
100
AcDbScale
 70
     0
300
1:16
140
1.0
141
16.0
290
     0
  0
SCALE
  5
4F
102
{ACAD_REACTORS
330
47
102
}
330
47
100
AcDbScale
 70
     0
300
1:20
140
1.0
141
20.0
290
     0
  0
SCALE
  5
50
102
{ACAD_REACTORS
330
47
102
}
330
47
100
AcDbScale
 70
     0
300
1:30
140
1.0
141
30.0
290
     0
  0
SCALE
  5
51
102
{ACAD_REACTORS
330
47
102
}
330
47
100
AcDbScale
 70
     0
300
1:40
140
1.0
141
40.0
290
     0
  0
SCALE
  5
52
102
{ACAD_REACTORS
330
47
102
}
330
47
100
AcDbScale
 70
     0
300
1:50
140
1.0
141
50.0
290
     0
  0
SCALE
  5
53
102
{ACAD_REACTORS
330
47
102
}
330
47
100
AcDbScale
 70
     0
300
1:100
140
1.0
141
100.0
290
     0
  0
SCALE
  5
54
102
{ACAD_REACTORS
330
47
102
}
330
47
100
AcDbScale
 70
     0
300
2:1
140
2.0
141
1.0
290
     0
  0
SCALE
  5
55
102
{ACAD_REACTORS
330
47
102
}
330
47
100
AcDbScale
 70
     0
300
4:1
140
4.0
141
1.0
290
     0
  0
SCALE
  5
56
102
{ACAD_REACTORS
330
47
102
}
330
47
100
AcDbScale
 70
     0
300
8:1
140
8.0
141
1.0
290
     0
  0
SCALE
  5
57
102
{ACAD_REACTORS
330
47
102
}
330
47
100
AcDbScale
 70
     0
300
10:1
140
10.0
141
1.0
290
     0
  0
SCALE
  5
58
102
{ACAD_REACTORS
330
47
102
}
330
47
100
AcDbScale
 70
     0
300
100:1
140
100.0
141
1.0
290
     0
  0
ENDSEC
  0
EOF
