  0
SECTION
  2
HEADER
  9
$ACADVER
  1
AC1015
  9
$ACADMAINTVER
 70
     6
  9
$DWGCODEPAGE
  3
ANSI_1252
  9
$INSBASE
 10
0.0
 20
0.0
 30
0.0
  9
$EXTMIN
 10
-76.3497525299
 20
-162.9877253557
 30
0.0
  9
$EXTMAX
 10
76.349752604
 20
105.1752130767
 30
0.0
  9
$LIMMIN
 10
0.0
 20
0.0
  9
$LIMMAX
 10
420.0
 20
297.0
  9
$ORTHOMODE
 70
     0
  9
$REGENMODE
 70
     1
  9
$FILLMODE
 70
     1
  9
$QTEXTMODE
 70
     0
  9
$MIRRTEXT
 70
     1
  9
$LTSCALE
 40
1.0
  9
$ATTMODE
 70
     1
  9
$TEXTSIZE
 40
3.5
  9
$TRACEWID
 40
1.0
  9
$TEXTSTYLE
  7
Standard
  9
$CLAYER
  8
0
  9
$CELTYPE
  6
ByLayer
  9
$CECOLOR
 62
   256
  9
$CELTSCALE
 40
1.0
  9
$DISPSILH
 70
     0
  9
$DIMSCALE
 40
1.0
  9
$DIMASZ
 40
3.302
  9
$DIMEXO
 40
0.0
  9
$DIMDLI
 40
3.75
  9
$DIMRND
 40
0.0
  9
$DIMDLE
 40
0.0
  9
$DIMEXE
 40
1.0
  9
$DIMTP
 40
0.0
  9
$DIMTM
 40
0.0
  9
$DIMTXT
 40
3.5
  9
$DIMCEN
 40
2.5
  9
$DIMTSZ
 40
0.0
  9
$DIMTOL
 70
     0
  9
$DIMLIM
 70
     0
  9
$DIMTIH
 70
     1
  9
$DIMTOH
 70
     1
  9
$DIMSE1
 70
     0
  9
$DIMSE2
 70
     0
  9
$DIMTAD
 70
     1
  9
$DIMZIN
 70
     1
  9
$DIMBLK
  1

  9
$DIMASO
 70
     1
  9
$DIMSHO
 70
     1
  9
$DIMPOST
  1

  9
$DIMAPOST
  1

  9
$DIMALT
 70
     0
  9
$DIMALTD
 70
     3
  9
$DIMALTF
 40
0.0393700787
  9
$DIMLFAC
 40
1.0
  9
$DIMTOFL
 70
     1
  9
$DIMTVP
 40
0.0
  9
$DIMTIX
 70
     0
  9
$DIMSOXD
 70
     0
  9
$DIMSAH
 70
     0
  9
$DIMBLK1
  1

  9
$DIMBLK2
  1

  9
$DIMSTYLE
  2
ISO-25
  9
$DIMCLRD
 70
     0
  9
$DIMCLRE
 70
     0
  9
$DIMCLRT
 70
     0
  9
$DIMTFAC
 40
1.0
  9
$DIMGAP
 40
1.524
  9
$DIMJUST
 70
     0
  9
$DIMSD1
 70
     0
  9
$DIMSD2
 70
     0
  9
$DIMTOLJ
 70
     0
  9
$DIMTZIN
 70
     1
  9
$DIMALTZ
 70
     0
  9
$DIMALTTZ
 70
     0
  9
$DIMUPT
 70
     0
  9
$DIMDEC
 70
     2
  9
$DIMTDEC
 70
     2
  9
$DIMALTU
 70
     2
  9
$DIMALTTD
 70
     3
  9
$DIMTXSTY
  7
Standard
  9
$DIMAUNIT
 70
     0
  9
$DIMADEC
 70
     2
  9
$DIMALTRND
 40
0.0
  9
$DIMAZIN
 70
     0
  9
$DIMDSEP
 70
    44
  9
$DIMATFIT
 70
     3
  9
$DIMFRAC
 70
     0
  9
$DIMLDRBLK
  1

  9
$DIMLUNIT
 70
     2
  9
$DIMLWD
 70
    -2
  9
$DIMLWE
 70
    -2
  9
$DIMTMOVE
 70
     0
  9
$LUNITS
 70
     2
  9
$LUPREC
 70
     2
  9
$SKETCHINC
 40
1.0
  9
$FILLETRAD
 40
0.0
  9
$AUNITS
 70
     0
  9
$AUPREC
 70
     2
  9
$MENU
  1
.
  9
$ELEVATION
 40
0.0
  9
$PELEVATION
 40
0.0
  9
$THICKNESS
 40
0.0
  9
$LIMCHECK
 70
     0
  9
$CHAMFERA
 40
0.0
  9
$CHAMFERB
 40
0.0
  9
$CHAMFERC
 40
0.0
  9
$CHAMFERD
 40
0.0
  9
$SKPOLY
 70
     0
  9
$TDCREATE
 40
2460096.845902778
  9
$TDUCREATE
 40
2460097.054236111
  9
$TDUPDATE
 40
2460096.845985706
  9
$TDUUPDATE
 40
2460097.054319039
  9
$TDINDWG
 40
0.0000000116
  9
$TDUSRTIMER
 40
0.0000000116
  9
$USRTIMER
 70
     1
  9
$ANGBASE
 50
0.0
  9
$ANGDIR
 70
     0
  9
$PDMODE
 70
     0
  9
$PDSIZE
 40
-1.0
  9
$PLINEWID
 40
0.0
  9
$SPLFRAME
 70
     0
  9
$SPLINETYPE
 70
     6
  9
$SPLINESEGS
 70
     8
  9
$HANDSEED
  5
E7
  9
$SURFTAB1
 70
     6
  9
$SURFTAB2
 70
     6
  9
$SURFTYPE
 70
     6
  9
$SURFU
 70
     6
  9
$SURFV
 70
     6
  9
$UCSBASE
  2

  9
$UCSNAME
  2

  9
$UCSORG
 10
0.0
 20
0.0
 30
0.0
  9
$UCSXDIR
 10
1.0
 20
0.0
 30
0.0
  9
$UCSYDIR
 10
0.0
 20
1.0
 30
0.0
  9
$UCSORTHOREF
  2

  9
$UCSORTHOVIEW
 70
     0
  9
$UCSORGTOP
 10
0.0
 20
0.0
 30
0.0
  9
$UCSORGBOTTOM
 10
0.0
 20
0.0
 30
0.0
  9
$UCSORGLEFT
 10
0.0
 20
0.0
 30
0.0
  9
$UCSORGRIGHT
 10
0.0
 20
0.0
 30
0.0
  9
$UCSORGFRONT
 10
0.0
 20
0.0
 30
0.0
  9
$UCSORGBACK
 10
0.0
 20
0.0
 30
0.0
  9
$PUCSBASE
  2

  9
$PUCSNAME
  2

  9
$PUCSORG
 10
0.0
 20
0.0
 30
0.0
  9
$PUCSXDIR
 10
1.0
 20
0.0
 30
0.0
  9
$PUCSYDIR
 10
0.0
 20
1.0
 30
0.0
  9
$PUCSORTHOREF
  2

  9
$PUCSORTHOVIEW
 70
     0
  9
$PUCSORGTOP
 10
0.0
 20
0.0
 30
0.0
  9
$PUCSORGBOTTOM
 10
0.0
 20
0.0
 30
0.0
  9
$PUCSORGLEFT
 10
0.0
 20
0.0
 30
0.0
  9
$PUCSORGRIGHT
 10
0.0
 20
0.0
 30
0.0
  9
$PUCSORGFRONT
 10
0.0
 20
0.0
 30
0.0
  9
$PUCSORGBACK
 10
0.0
 20
0.0
 30
0.0
  9
$USERI1
 70
     0
  9
$USERI2
 70
     0
  9
$USERI3
 70
     0
  9
$USERI4
 70
     0
  9
$USERI5
 70
     0
  9
$USERR1
 40
0.0
  9
$USERR2
 40
0.0
  9
$USERR3
 40
0.0
  9
$USERR4
 40
0.0
  9
$USERR5
 40
0.0
  9
$WORLDVIEW
 70
     1
  9
$SHADEDGE
 70
     3
  9
$SHADEDIF
 70
    70
  9
$TILEMODE
 70
     1
  9
$MAXACTVP
 70
    64
  9
$PINSBASE
 10
0.0
 20
0.0
 30
0.0
  9
$PLIMCHECK
 70
     0
  9
$PEXTMIN
 10
1.0000000000E+20
 20
1.0000000000E+20
 30
1.0000000000E+20
  9
$PEXTMAX
 10
-1.0000000000E+20
 20
-1.0000000000E+20
 30
-1.0000000000E+20
  9
$PLIMMIN
 10
0.0
 20
0.0
  9
$PLIMMAX
 10
420.0
 20
297.0
  9
$UNITMODE
 70
     0
  9
$VISRETAIN
 70
     1
  9
$PLINEGEN
 70
     0
  9
$PSLTSCALE
 70
     1
  9
$TREEDEPTH
 70
  3020
  9
$CMLSTYLE
  2
Standard
  9
$CMLJUST
 70
     0
  9
$CMLSCALE
 40
20.0
  9
$PROXYGRAPHICS
 70
     1
  9
$MEASUREMENT
 70
     1
  9
$CELWEIGHT
370
    -1
  9
$ENDCAPS
280
     0
  9
$JOINSTYLE
280
     0
  9
$LWDISPLAY
290
     1
  9
$INSUNITS
 70
     4
  9
$HYPERLINKBASE
  1

  9
$STYLESHEET
  1

  9
$XEDIT
290
     1
  9
$CEPSNTYPE
380
     0
  9
$PSTYLEMODE
290
     1
  9
$FINGERPRINTGUID
  2
{76e12ed0-3b05-4818-9312-d354a5df01e9}
  9
$VERSIONGUID
  2
{FAEB1C32-E019-11D5-929B-00C0DF256EC4}
  9
$EXTNAMES
290
     1
  9
$PSVPSCALE
 40
0.0
  9
$OLESTARTUP
290
     0
  0
ENDSEC
  0
SECTION
  2
CLASSES
  0
CLASS
  1
ACDBDICTIONARYWDFLT
  2
AcDbDictionaryWithDefault
  3
ObjectDBX Classes
 90
        0
280
     0
281
     0
  0
CLASS
  1
VISUALSTYLE
  2
AcDbVisualStyle
  3
ObjectDBX Classes
 90
     4095
280
     0
281
     0
  0
CLASS
  1
MATERIAL
  2
AcDbMaterial
  3
ObjectDBX Classes
 90
     1153
280
     0
281
     0
  0
CLASS
  1
SCALE
  2
AcDbScale
  3
ObjectDBX Classes
 90
     1153
280
     0
281
     0
  0
CLASS
  1
TABLESTYLE
  2
AcDbTableStyle
  3
ObjectDBX Classes
 90
     4095
280
     0
281
     0
  0
CLASS
  1
MLEADERSTYLE
  2
AcDbMLeaderStyle
  3
ACDB_MLEADERSTYLE_CLASS
 90
     4095
280
     0
281
     0
  0
CLASS
  1
SUN
  2
AcDbSun
  3
SCENEOE
 90
     1153
280
     0
281
     0
  0
CLASS
  1
ACDBPLACEHOLDER
  2
AcDbPlaceHolder
  3
ObjectDBX Classes
 90
        0
280
     0
281
     0
  0
CLASS
  1
LAYOUT
  2
AcDbLayout
  3
ObjectDBX Classes
 90
        0
280
     0
281
     0
  0
ENDSEC
  0
SECTION
  2
TABLES
  0
TABLE
  2
VPORT
  5
8
330
0
100
AcDbSymbolTable
 70
     1
  0
VPORT
  5
29
330
8
100
AcDbSymbolTableRecord
100
AcDbViewportTableRecord
  2
*Active
 70
     0
 10
0.0
 20
0.0
 11
1.0
 21
1.0
 12
0.0000000371
 22
-28.9062561395
 13
0.0
 23
0.0
 14
10.0
 24
10.0
 15
10.0
 25
10.0
 16
0.0
 26
0.0
 36
1.0
 17
0.0
 27
0.0
 37
0.0
 40
273.5261972011
 41
0.5694280724
 42
50.0
 43
0.0
 44
0.0
 50
0.0
 51
0.0
 71
     0
 72
   100
 73
     1
 74
     3
 75
     0
 76
     0
 77
     0
 78
     0
281
     0
 65
     1
110
0.0
120
0.0
130
0.0
111
1.0
121
0.0
131
0.0
112
0.0
122
1.0
132
0.0
 79
     0
146
0.0
  0
ENDTAB
  0
TABLE
  2
LTYPE
  5
5
330
0
100
AcDbSymbolTable
 70
     6
  0
LTYPE
  5
14
330
5
100
AcDbSymbolTableRecord
100
AcDbLinetypeTableRecord
  2
ByBlock
 70
     0
  3

 72
    65
 73
     0
 40
0.0
  0
LTYPE
  5
15
330
5
100
AcDbSymbolTableRecord
100
AcDbLinetypeTableRecord
  2
ByLayer
 70
     0
  3

 72
    65
 73
     0
 40
0.0
  0
LTYPE
  5
16
330
5
100
AcDbSymbolTableRecord
100
AcDbLinetypeTableRecord
  2
Continuous
 70
     0
  3
Solid line
 72
    65
 73
     0
 40
0.0
  0
LTYPE
  5
5E
330
5
100
AcDbSymbolTableRecord
100
AcDbLinetypeTableRecord
  2
HIDDEN
 70
     0
  3
Hidden __ __ __ __ __ __ __ __ __ __ __ __ __ __
 72
    65
 73
     2
 40
1.905
 49
1.27
 74
     0
 49
-0.635
 74
     0
  0
LTYPE
  5
5F
330
5
100
AcDbSymbolTableRecord
100
AcDbLinetypeTableRecord
  2
PHANTOM
 70
     0
  3
Phantom ______  __  __  ______  __  __  ______
 72
    65
 73
     6
 40
12.7
 49
6.35
 74
     0
 49
-1.27
 74
     0
 49
1.27
 74
     0
 49
-1.27
 74
     0
 49
1.27
 74
     0
 49
-1.27
 74
     0
  0
LTYPE
  5
60
330
5
100
AcDbSymbolTableRecord
100
AcDbLinetypeTableRecord
  2
CENTER
 70
     0
  3
Center ____ _ ____ _ ____ _ ____ _ ____ _ ____
 72
    65
 73
     4
 40
10.16
 49
6.35
 74
     0
 49
-1.27
 74
     0
 49
1.27
 74
     0
 49
-1.27
 74
     0
  0
LTYPE
  5
61
330
5
100
AcDbSymbolTableRecord
100
AcDbLinetypeTableRecord
  2
CENTERX2
 70
     0
  3
Center (2x) ________  __  ________  __  _____
 72
    65
 73
     4
 40
20.32
 49
12.7
 74
     0
 49
-2.54
 74
     0
 49
2.54
 74
     0
 49
-2.54
 74
     0
  0
LTYPE
  5
62
330
5
100
AcDbSymbolTableRecord
100
AcDbLinetypeTableRecord
  2
DOT2
 70
     0
  3
Dot (.5x) ........................................
 72
    65
 73
     2
 40
0.635
 49
0.0
 74
     0
 49
-0.635
 74
     0
  0
ENDTAB
  0
TABLE
  2
LAYER
  5
2
330
0
100
AcDbSymbolTable
 70
     1
  0
LAYER
  5
10
330
2
100
AcDbSymbolTableRecord
100
AcDbLayerTableRecord
  2
0
 70
     0
 62
     7
  6
Continuous
370
    -3
390
F
  0
ENDTAB
  0
TABLE
  2
STYLE
  5
3
330
0
100
AcDbSymbolTable
 70
     2
  0
STYLE
  5
11
330
3
100
AcDbSymbolTableRecord
100
AcDbTextStyleTableRecord
  2
Standard
 70
     0
 40
0.0
 41
1.0
 50
0.0
 71
     0
 42
3.5
  3
txt
  4

  0
STYLE
  5
E3
330
3
100
AcDbSymbolTableRecord
100
AcDbTextStyleTableRecord
  2
SLDTEXTSTYLE0
 70
     0
 40
0.0
 41
0.7
 50
0.0
 71
     0
 42
3.5
  3
TXT
  4

  0
ENDTAB
  0
TABLE
  2
VIEW
  5
6
330
0
100
AcDbSymbolTable
 70
     0
  0
ENDTAB
  0
TABLE
  2
UCS
  5
7
330
0
100
AcDbSymbolTable
 70
     0
  0
ENDTAB
  0
TABLE
  2
APPID
  5
9
330
0
100
AcDbSymbolTable
 70
     1
  0
APPID
  5
12
330
9
100
AcDbSymbolTableRecord
100
AcDbRegAppTableRecord
  2
ACAD
 70
     0
  0
ENDTAB
  0
TABLE
  2
DIMSTYLE
  5
A
330
0
100
AcDbSymbolTable
 70
     1
100
AcDbDimStyleTable
  0
DIMSTYLE
105
27
330
A
100
AcDbSymbolTableRecord
100
AcDbDimStyleTableRecord
  2
ISO-25
 70
     0
 41
2.5
 42
0.625
 43
3.75
 44
1.25
 73
     0
 74
     0
 77
     1
 78
     8
140
2.5
141
2.5
143
0.0393700787
147
0.625
171
     3
172
     1
178
     0
271
     2
272
     2
274
     3
278
    44
283
     0
284
     8
340
11
  0
ENDTAB
  0
TABLE
  2
BLOCK_RECORD
  5
1
330
0
100
AcDbSymbolTable
 70
     1
  0
BLOCK_RECORD
  5
1F
330
1
100
AcDbSymbolTableRecord
100
AcDbBlockTableRecord
  2
*Model_Space
340
22
  0
BLOCK_RECORD
  5
1B
330
1
100
AcDbSymbolTableRecord
100
AcDbBlockTableRecord
  2
*Paper_Space
340
1E
  0
BLOCK_RECORD
  5
23
330
1
100
AcDbSymbolTableRecord
100
AcDbBlockTableRecord
  2
*Paper_Space0
340
26
  0
ENDTAB
  0
ENDSEC
  0
SECTION
  2
BLOCKS
  0
BLOCK
  5
20
330
1F
100
AcDbEntity
  8
0
100
AcDbBlockBegin
  2
*Model_Space
 70
     0
 10
0.0
 20
0.0
 30
0.0
  3
*Model_Space
  1

  0
ENDBLK
  5
21
330
1F
100
AcDbEntity
  8
0
100
AcDbBlockEnd
  0
BLOCK
  5
1C
330
1B
100
AcDbEntity
 67
     1
  8
0
100
AcDbBlockBegin
  2
*Paper_Space
 70
     0
 10
0.0
 20
0.0
 30
0.0
  3
*Paper_Space
  1

  0
ENDBLK
  5
1D
330
1B
100
AcDbEntity
 67
     1
  8
0
100
AcDbBlockEnd
  0
BLOCK
  5
24
330
23
100
AcDbEntity
  8
0
100
AcDbBlockBegin
  2
*Paper_Space0
 70
     0
 10
0.0
 20
0.0
 30
0.0
  3
*Paper_Space0
  1

  0
ENDBLK
  5
25
330
23
100
AcDbEntity
  8
0
100
AcDbBlockEnd
  0
ENDSEC
  0
SECTION
  2
ENTITIES
  0
LINE
  5
63
330
1F
100
AcDbEntity
  8
0
  6
CENTERX2
 62
   254
100
AcDbLine
 10
-47.3621026218
 20
-54.9849017864
 30
0.0
 11
47.3621026218
 21
-54.9849017864
 31
0.0
  0
LINE
  5
64
330
1F
100
AcDbEntity
  8
0
  6
Continuous
 62
   254
100
AcDbLine
 10
-47.055474398
 20
-53.9849017864
 30
0.0
 11
47.055474398
 21
-53.9849017864
 31
0.0
  0
LINE
  5
65
330
1F
100
AcDbEntity
  8
0
  6
Continuous
 62
   141
100
AcDbLine
 10
42.8074996727
 20
43.4339960239
 30
0.0
 11
40.5527633445
 21
37.1268888955
 31
0.0
  0
LINE
  5
66
330
1F
100
AcDbEntity
  8
0
  6
Continuous
 62
   141
100
AcDbLine
 10
40.5527633445
 20
37.1268888955
 30
0.0
 11
39.308766322
 21
37.5716070875
 31
0.0
  0
LINE
  5
67
330
1F
100
AcDbEntity
  8
0
  6
Continuous
 62
   141
100
AcDbLine
 10
41.9180797052
 20
40.9460479003
 30
0.0
 11
40.7514368935
 21
41.3631126299
 31
0.0
  0
LINE
  5
68
330
1F
100
AcDbEntity
  8
0
  6
Continuous
 62
   141
100
AcDbLine
 10
40.7514368935
 20
41.3631126299
 30
0.0
 11
39.8224563697
 21
44.5011232249
 31
0.0
  0
LINE
  5
69
330
1F
100
AcDbEntity
  8
0
  6
Continuous
 62
   141
100
AcDbLine
 10
40.7514368935
 20
41.3631126299
 30
0.0
 11
39.105131023
 21
40.8510358086
 31
0.0
  0
LINE
  5
6A
330
1F
100
AcDbEntity
  8
0
  6
Continuous
 62
   141
100
AcDbLine
 10
32.0666362018
 20
47.4483488386
 30
0.0
 11
34.3488011175
 21
41.3631126299
 31
0.0
  0
LINE
  5
6B
330
1F
100
AcDbEntity
  8
0
  6
Continuous
 62
   141
100
AcDbLine
 10
31.972327209
 20
41.9514045206
 30
0.0
 11
35.7598900487
 21
43.4339960239
 31
0.0
  0
LINE
  5
6C
330
1F
100
AcDbEntity
  8
0
  6
Continuous
 62
   141
100
AcDbLine
 10
34.3488011175
 20
46.6470806654
 30
0.0
 11
31.4575989507
 21
45.1881324482
 31
0.0
  0
LINE
  5
6D
330
1F
100
AcDbEntity
  8
0
  6
Continuous
 62
   141
100
AcDbLine
 10
26.6946952305
 20
49.3123433092
 30
0.0
 11
28.4674645712
 21
48.6584082553
 31
0.0
  0
LINE
  5
6E
330
1F
100
AcDbEntity
  8
0
  6
Continuous
 62
   141
100
AcDbLine
 10
28.4674645712
 20
48.6584082553
 30
0.0
 11
26.0471746749
 21
42.0971821849
 31
0.0
  0
LINE
  5
6F
330
1F
100
AcDbEntity
  8
0
  6
Continuous
 62
   141
100
AcDbLine
 10
26.0471746749
 20
42.0971821849
 30
0.0
 11
24.1993693288
 21
42.7787963469
 31
0.0
  0
LINE
  5
70
330
1F
100
AcDbEntity
  8
0
  6
Continuous
 62
   141
100
AcDbLine
 10
7.5585720363
 20
56.5593477824
 30
0.0
 11
5.2418609102
 21
49.9447205859
 31
0.0
  0
LINE
  5
71
330
1F
100
AcDbEntity
  8
0
  6
Continuous
 62
   141
100
AcDbLine
 10
2.0841507767
 20
50.793332923
 30
0.0
 11
1.254304859
 21
57.1108330033
 31
0.0
  0
LINE
  5
72
330
1F
100
AcDbEntity
  8
0
  6
Continuous
 62
   141
100
AcDbLine
 10
1.254304859
 20
57.1108330033
 30
0.0
 11
-2.9941158424
 21
52.2185182855
 31
0.0
  0
LINE
  5
73
330
1F
100
AcDbEntity
  8
0
  6
Continuous
 62
   141
100
AcDbLine
 10
-6.3950789301
 20
53.7177734812
 30
0.0
 11
-4.1501658533
 21
60.0410534145
 31
0.0
  0
LINE
  5
74
330
1F
100
AcDbEntity
  8
0
  6
Continuous
 62
   141
100
AcDbLine
 10
-12.4236115505
 20
56.3515456344
 30
0.0
 11
-12.1854683575
 21
55.8633296676
 31
0.0
  0
LINE
  5
75
330
1F
100
AcDbEntity
  8
0
  6
Continuous
 62
   141
100
AcDbLine
 10
-10.3355155269
 20
58.1719568251
 30
0.0
 11
-11.3855829971
 21
59.467076085
 31
0.0
  0
LINE
  5
76
330
1F
100
AcDbEntity
  8
0
  6
Continuous
 62
   141
100
AcDbLine
 10
-8.025094313
 20
60.4552781219
 30
0.0
 11
-8.3961075277
 21
61.4861781297
 31
0.0
  0
LINE
  5
77
330
1F
100
AcDbEntity
  8
0
  6
Continuous
 62
   141
100
AcDbLine
 10
-14.8085158336
 20
63.9726809017
 30
0.0
 11
-17.1955670747
 21
57.4381030374
 31
0.0
  0
LINE
  5
78
330
1F
100
AcDbEntity
  8
0
  6
Continuous
 62
   141
100
AcDbLine
 10
-28.6163629868
 20
68.8810233338
 30
0.0
 11
-30.7704236226
 21
62.8106778342
 31
0.0
  0
LINE
  5
79
330
1F
100
AcDbEntity
  8
0
  6
Continuous
 62
   141
100
AcDbLine
 10
-30.7704236226
 20
62.8106778342
 30
0.0
 11
-33.8304487487
 21
70.2447948773
 31
0.0
  0
LINE
  5
7A
330
1F
100
AcDbEntity
  8
0
  6
Continuous
 62
   141
100
AcDbLine
 10
-33.8304487487
 20
70.2447948773
 30
0.0
 11
-35.8828012735
 21
64.4610724022
 31
0.0
  0
LINE
  5
7B
330
1F
100
AcDbEntity
  8
0
  6
Continuous
 62
   141
100
AcDbLine
 10
-56.0431596661
 20
71.199832447
 30
0.0
 11
-53.5856351922
 21
70.3414400445
 31
0.0
  0
LINE
  5
7C
330
1F
100
AcDbEntity
  8
0
  6
Continuous
 62
   141
100
AcDbLine
 10
-53.5856351922
 20
70.3414400445
 30
0.0
 11
-51.2486995846
 21
77.0319424684
 31
0.0
  0
LINE
  5
7D
330
1F
100
AcDbEntity
  8
0
  6
Continuous
 62
   141
100
AcDbLine
 10
-52.5752518906
 20
73.2341050827
 30
0.0
 11
-54.9134155218
 21
74.0508057577
 31
0.0
  0
LINE
  5
7E
330
1F
100
AcDbEntity
  8
0
  6
Continuous
 62
   141
100
AcDbLine
 10
14.3313248476
 20
53.8265282037
 30
0.0
 11
16.1040941883
 21
53.1725931499
 31
0.0
  0
LINE
  5
7F
330
1F
100
AcDbEntity
  8
0
  6
Continuous
 62
   141
100
AcDbLine
 10
16.1040941883
 20
53.1725931499
 30
0.0
 11
13.683804292
 21
46.6113670795
 31
0.0
  0
LINE
  5
80
330
1F
100
AcDbEntity
  8
0
  6
Continuous
 62
   141
100
AcDbLine
 10
13.683804292
 20
46.6113670795
 30
0.0
 11
11.8359989459
 21
47.2929812414
 31
0.0
  0
SPLINE
  5
81
330
1F
100
AcDbEntity
  8
0
  6
Continuous
 62
   141
100
AcDbSpline
210
0.0
220
0.0
230
1.0
 70
     8
 71
     3
 72
    25
 73
    21
 74
     0
 42
0.00000001
 43
0.00000001
 40
0.0
 40
0.0
 40
0.0
 40
0.0
 40
0.0499871640715175
 40
0.0993153424626875
 40
0.1489895496392455
 40
0.1989103837494295
 40
0.248775485698247
 40
0.311645364753594
 40
0.3749060209437947
 40
0.4378172346948226
 40
0.5002210243610972
 40
0.5625177870230712
 40
0.6251383284100426
 40
0.6881529533903589
 40
0.7508075454403307
 40
0.8003174897385446
 40
0.8499427949794752
 40
0.9000790948266211
 40
0.9503828199836224
 40
0.9999999999999999
 40
0.9999999999999999
 40
0.9999999999999999
 40
0.9999999999999999
 10
47.0554530620575
 20
-53.98490178644131
 30
0.0
 10
55.25207730204751
 20
-47.49012539905305
 30
0.0
 10
62.0880882950097
 20
-39.75894537332302
 30
0.0
 10
67.31882054701087
 20
-30.77890855473781
 30
0.0
 10
71.03478585927277
 20
-21.01835952474648
 30
0.0
 10
73.41892266350725
 20
-10.86212034097335
 30
0.0
 10
74.97034442335027
 20
2.19912351712395
 30
0.0
 10
75.42414950034573
 20
15.42615634545231
 30
0.0
 10
74.80026523963868
 20
28.57306968558441
 30
0.0
 10
72.7829723693392
 20
41.47182557455183
 30
0.0
 10
69.08074515101134
 20
53.96809421344325
 30
0.0
 10
63.65482880136111
 20
65.89256137857181
 30
0.0
 10
56.5984075666842
 20
77.02842461018432
 30
0.0
 10
47.93947608935267
 20
86.86931366129475
 30
0.0
 10
39.80917085975981
 20
93.28699693383497
 30
0.0
 10
30.63453849834745
 20
98.14654441892296
 30
0.0
 10
20.69395570322593
 20
101.4939529521187
 30
0.0
 10
10.3561529326114
 20
103.4652965079199
 30
0.0
 10
-0.0000000000002993
 20
104.1751437604719
 30
0.0
 10
3.460571010828428
 20
104.0231989566301
 30
0.0
 10
-0.0000000000002993
 20
104.1751437604719
 30
0.0
  0
SPLINE
  5
82
330
1F
100
AcDbEntity
  8
0
  6
Continuous
 62
   141
100
AcDbSpline
210
0.0
220
0.0
230
1.0
 70
     8
 71
     3
 72
    25
 73
    21
 74
     0
 42
0.00000001
 43
0.00000001
 40
0.0
 40
0.0
 40
0.0
 40
0.0
 40
0.0496171839823787
 40
0.0999209131602581
 40
0.1500572170148993
 40
0.1996825262224806
 40
0.2491924744781243
 40
0.3118470715362037
 40
0.3748617015534058
 40
0.437482247945763
 40
0.4997790155872426
 40
0.5621828102415779
 40
0.6250940290212259
 40
0.6883546902679781
 40
0.7512245743486411
 40
0.8010896802832765
 40
0.8510105183837334
 40
0.9006847295308509
 40
0.9500129118649215
 40
1.0
 40
1.0
 40
1.0
 40
1.0
 10
-0.0000000000003053
 20
104.1751437604719
 30
0.0
 10
-10.35615293261197
 20
103.4652965079198
 30
0.0
 10
-20.69395570322649
 20
101.4939529521186
 30
0.0
 10
-30.63453849834795
 20
98.14654441892273
 30
0.0
 10
-39.80917085976025
 20
93.28699693383467
 30
0.0
 10
-47.93947608935308
 20
86.86931366129436
 30
0.0
 10
-56.59840756668449
 20
77.02842461018389
 30
0.0
 10
-63.65482880136133
 20
65.89256137857137
 30
0.0
 10
-69.08074515101151
 20
53.96809421344285
 30
0.0
 10
-72.78297236933928
 20
41.47182557455144
 30
0.0
 10
-74.8002652396387
 20
28.573069685584
 30
0.0
 10
-75.42414950034569
 20
15.42615634545192
 30
0.0
 10
-74.9703444233502
 20
2.199123517123575
 30
0.0
 10
-73.41892266350716
 20
-10.86212034097368
 30
0.0
 10
-71.03478585927267
 20
-21.01835952474678
 30
0.0
 10
-67.3188205470107
 20
-30.77890855473809
 30
0.0
 10
-62.08808829500952
 20
-39.75894537332329
 30
0.0
 10
-55.25207730204728
 20
-47.49012539905327
 30
0.0
 10
-47.05547439804706
 20
-53.98490178644145
 30
0.0
 10
-49.86981498287567
 20
-51.91560243958147
 30
0.0
 10
-47.05547439804707
 20
-53.98490178644146
 30
0.0
  0
SPLINE
  5
83
330
1F
100
AcDbEntity
  8
0
  6
Continuous
 62
   141
100
AcDbSpline
210
0.0
220
0.0
230
1.0
 70
     8
 71
     3
 72
    25
 73
    21
 74
     0
 42
0.00000001
 43
0.00000001
 40
0.0
 40
0.0
 40
0.0
 40
0.0
 40
0.0495733192102029
 40
0.0998602898070581
 40
0.1500974792414056
 40
0.1999529089035212
 40
0.249723257377859
 40
0.3124726597726597
 40
0.3753964039972053
 40
0.4379146654886018
 40
0.5001231356197758
 40
0.5623566230570894
 40
0.6249651446720063
 40
0.6878132867658601
 40
0.7504151483421879
 40
0.8002487054060854
 40
0.8502496171733447
 40
0.9001982637746979
 40
0.9498737158195721
 40
1.0
 40
1.0
 40
1.0
 40
1.0
 10
-0.0000000000000007
 20
105.1752130766772
 30
0.0
 10
-10.48800798156653
 20
104.4567514175112
 30
0.0
 10
-20.96296565406175
 20
102.4581094606327
 30
0.0
 10
-31.05647986802123
 20
99.0499957260002
 30
0.0
 10
-40.40015747398054
 20
94.10311873357212
 30
0.0
 10
-48.67433673481757
 20
87.55081515976129
 30
0.0
 10
-57.45476696814014
 20
77.5521647479411
 30
0.0
 10
-64.58555621412376
 20
66.27359625283613
 30
0.0
 10
-70.0616839151014
 20
54.19970266324562
 30
0.0
 10
-73.79076274258297
 20
41.5457213561762
 30
0.0
 10
-75.81155929884683
 20
28.50403228081418
 30
0.0
 10
-76.42452393058497
 20
15.24133854467155
 30
0.0
 10
-75.95318634320773
 20
1.92201047142395
 30
0.0
 10
-74.3643439810841
 20
-11.25800659770271
 30
0.0
 10
-71.92120722399666
 20
-21.53949144795664
 30
0.0
 10
-68.1147916504176
 20
-31.43597554030889
 30
0.0
 10
-62.74031413569298
 20
-40.56336674787032
 30
0.0
 10
-55.72139119895675
 20
-48.41862363774679
 30
0.0
 10
-47.36210262085079
 20
-54.98490178709954
 30
0.0
 10
-50.23074349119226
 20
-52.89281246491309
 30
0.0
 10
-47.3621026208508
 20
-54.98490178709955
 30
0.0
  0
SPLINE
  5
84
330
1F
100
AcDbEntity
  8
0
  6
Continuous
 62
   141
100
AcDbSpline
210
0.0
220
0.0
230
1.0
 70
     8
 71
     3
 72
    25
 73
    21
 74
     0
 42
0.00000001
 43
0.00000001
 40
0.0
 40
0.0
 40
0.0
 40
0.0
 40
0.0501263316081893
 40
0.0998017811727322
 40
0.1497504252801427
 40
0.19975133455081
 40
0.2495848891264917
 40
0.3121867475770883
 40
0.375034886532895
 40
0.4376434050217169
 40
0.499876889351666
 40
0.5620853563767387
 40
0.6246036147465693
 40
0.6875273558293
 40
0.7502767550909754
 40
0.8000471010802455
 40
0.8499025282530536
 40
0.9001397151790305
 40
0.9504266832650253
 40
0.9999999999999999
 40
0.9999999999999999
 40
0.9999999999999999
 40
0.9999999999999999
 10
47.36208915710449
 20
-54.98490178666967
 30
0.0
 10
55.72139119948678
 20
-48.41862363725676
 30
0.0
 10
62.74031413609407
 20
-40.56336674731738
 30
0.0
 10
68.11479165069653
 20
-31.43597553972229
 30
0.0
 10
71.92120722417353
 20
-21.53949144737516
 30
0.0
 10
74.36434398118433
 20
-11.25800659714105
 30
0.0
 10
75.95318634324538
 20
1.922010471949018
 30
0.0
 10
76.4245239305843
 20
15.24133854514994
 30
0.0
 10
75.81155929880606
 20
28.50403228124025
 30
0.0
 10
73.79076274250149
 20
41.5457213565462
 30
0.0
 10
70.06168391498527
 20
54.19970266355735
 30
0.0
 10
64.58555621398759
 20
66.27359625308863
 30
0.0
 10
57.45476696799752
 20
77.55216474813443
 30
0.0
 10
48.67433673467911
 20
87.55081515989207
 30
0.0
 10
40.40015747385341
 20
94.1031187336549
 30
0.0
 10
31.05647986791581
 20
99.049995726045
 30
0.0
 10
20.96296565398739
 20
102.458109460652
 30
0.0
 10
10.48800798152861
 20
104.456751417516
 30
0.0
 10
-0.0000000000000007
 20
105.1752130766772
 30
0.0
 10
3.504549243411105
 20
105.0213418326247
 30
0.0
 10
-0.0000000000000007
 20
105.1752130766772
 30
0.0
  0
SPLINE
  5
85
330
1F
100
AcDbEntity
  8
0
  6
Continuous
 62
   141
100
AcDbSpline
210
0.0
220
0.0
230
1.0
 70
     8
 71
     3
 72
    11
 73
     7
 74
     0
 42
0.00000001
 43
0.00000001
 40
0.0
 40
0.0
 40
0.0
 40
0.0
 40
0.2508493062814262
 40
0.5012654069430423
 40
0.7477990543196089
 40
1.0
 40
1.0
 40
1.0
 40
1.0
 10
39.30875658988953
 20
37.57160708746787
 30
0.0
 10
38.5211583791855
 20
38.20880256731134
 30
0.0
 10
38.19260885179273
 20
39.16527652965409
 30
0.0
 10
38.37122923475352
 20
40.14477295117755
 30
0.0
 10
39.10513102300684
 20
40.8510358085632
 30
0.0
 10
38.82030415890701
 20
40.64128609993741
 30
0.0
 10
39.10513102300684
 20
40.8510358085632
 30
0.0
  0
SPLINE
  5
86
330
1F
100
AcDbEntity
  8
0
  6
Continuous
 62
   141
100
AcDbSpline
210
0.0
220
0.0
230
1.0
 70
     8
 71
     3
 72
    11
 73
     7
 74
     0
 42
0.00000001
 43
0.00000001
 40
0.0
 40
0.0
 40
0.0
 40
0.0
 40
0.2432795606992643
 40
0.49067369996408
 40
0.7500936209644711
 40
1.0
 40
1.0
 40
1.0
 40
1.0
 10
35.75986623764038
 20
43.43399602387522
 30
0.0
 10
36.43619668910652
 20
44.33858701564601
 30
0.0
 10
36.25978148578104
 20
45.47353297539244
 30
0.0
 10
35.48064833112861
 20
46.39198161974988
 30
0.0
 10
34.34880111753458
 20
46.64708066535361
 30
0.0
 10
34.75114825227148
 20
46.60979848784352
 30
0.0
 10
34.34880111753458
 20
46.64708066535361
 30
0.0
  0
SPLINE
  5
87
330
1F
100
AcDbEntity
  8
0
  6
Continuous
 62
   141
100
AcDbSpline
210
0.0
220
0.0
230
1.0
 70
     8
 71
     3
 72
    13
 73
     9
 74
     0
 42
0.00000001
 43
0.00000001
 40
0.0
 40
0.0
 40
0.0
 40
0.0
 40
0.1209237659233034
 40
0.2447592421939045
 40
0.4310102308291998
 40
0.6122579328577167
 40
0.8030902175386411
 40
1.0
 40
1.0
 40
1.0
 40
1.0
 10
31.97231888771057
 20
41.95140452056556
 30
0.0
 10
31.47905310796725
 20
41.42762165262133
 30
0.0
 10
31.44441295930506
 20
40.69162630042661
 30
0.0
 10
32.05337906391311
 20
39.76576659979808
 30
0.0
 10
33.12246569631975
 20
39.62428516642176
 30
0.0
 10
34.08859734291837
 20
40.22077707895862
 30
0.0
 10
34.34880111753458
 20
41.3631126299499
 30
0.0
 10
34.32245682058726
 20
40.94873359435238
 30
0.0
 10
34.34880111753458
 20
41.3631126299499
 30
0.0
  0
SPLINE
  5
88
330
1F
100
AcDbEntity
  8
0
  6
Continuous
 62
   141
100
AcDbSpline
210
0.0
220
0.0
230
1.0
 70
     8
 71
     3
 72
    11
 73
     7
 74
     0
 42
0.00000001
 43
0.00000001
 40
0.0
 40
0.0
 40
0.0
 40
0.0
 40
0.2479479493797021
 40
0.5029841275318304
 40
0.7506647850200943
 40
1.0
 40
1.0
 40
1.0
 40
1.0
 10
24.19936656951904
 20
42.77879634687338
 30
0.0
 10
22.8384069630633
 20
44.64086478615668
 30
0.0
 10
22.91519295286009
 20
47.01196261172961
 30
0.0
 10
24.44951330103704
 20
48.73065634213611
 30
0.0
 10
26.69469523050693
 20
49.31234330916111
 30
0.0
 10
25.90960618416863
 20
49.20470355546541
 30
0.0
 10
26.69469523050693
 20
49.31234330916111
 30
0.0
  0
SPLINE
  5
89
330
1F
100
AcDbEntity
  8
0
  6
Continuous
 62
   141
100
AcDbSpline
210
0.0
220
0.0
230
1.0
 70
     8
 71
     3
 72
    13
 73
     9
 74
     0
 42
0.00000001
 43
0.00000001
 40
0.0
 40
0.0
 40
0.0
 40
0.0
 40
0.1643089789374353
 40
0.3006439830393535
 40
0.48494907079019
 40
0.6392306355240419
 40
0.7787391528162934
 40
1.0
 40
1.0
 40
1.0
 40
1.0
 10
-12.18546181917191
 20
55.86332966762875
 30
0.0
 10
-11.5624176298487
 20
55.25718270079693
 30
0.0
 10
-10.84167605282465
 20
55.22985459218317
 30
0.0
 10
-10.00880796046859
 20
55.73683546093007
 30
0.0
 10
-9.634236234153422
 20
56.4620136404051
 30
0.0
 10
-9.685833433817823
 20
57.19825631536547
 30
0.0
 10
-10.33551552688266
 20
58.17195682513115
 30
0.0
 10
-10.07217925222804
 20
57.86978282467099
 30
0.0
 10
-10.33551552688266
 20
58.17195682513115
 30
0.0
  0
SPLINE
  5
8A
330
1F
100
AcDbEntity
  8
0
  6
Continuous
 62
   141
100
AcDbSpline
210
0.0
220
0.0
230
1.0
 70
     8
 71
     3
 72
    12
 73
     8
 74
     0
 42
0.00000001
 43
0.00000001
 40
0.0
 40
0.0
 40
0.0
 40
0.0
 40
0.1739943539928158
 40
0.3543314653753262
 40
0.5357500646967255
 40
0.719426699845573
 40
1.0
 40
1.0
 40
1.0
 40
1.0
 10
-11.38558238744736
 20
59.46707608497653
 30
0.0
 10
-11.70502438725563
 20
60.38144214555692
 30
0.0
 10
-11.47324568783833
 20
61.35818623291795
 30
0.0
 10
-10.74243876545918
 20
62.05517611182906
 30
0.0
 10
-9.743951833307891
 20
62.27527452015276
 30
0.0
 10
-8.396107527705674
 20
61.48617812968604
 30
0.0
 10
-8.819387704494403
 20
61.85115351449988
 30
0.0
 10
-8.396107527705674
 20
61.48617812968604
 30
0.0
  0
SPLINE
  5
8B
330
1F
100
AcDbEntity
  8
0
  6
Continuous
 62
   141
100
AcDbSpline
210
0.0
220
0.0
230
1.0
 70
     8
 71
     3
 72
    17
 73
    13
 74
     0
 42
0.00000001
 43
0.00000001
 40
0.0
 40
0.0
 40
0.0
 40
0.0
 40
0.0617128351130932
 40
0.1220028477930541
 40
0.2514350123510246
 40
0.3796214901869021
 40
0.4990698686941731
 40
0.619606595067153
 40
0.7471700947431701
 40
0.8773436892611441
 40
0.938712718899251
 40
1.0
 40
1.0
 40
1.0
 40
1.0
 10
-24.0313708782196
 20
59.46707608497653
 30
0.0
 10
-25.18633820993407
 20
60.14085691648045
 30
0.0
 10
-25.89298718101804
 20
61.23953084154222
 30
0.0
 10
-25.80808862602058
 20
64.04265858463305
 30
0.0
 10
-24.0684591090475
 20
66.20778359627502
 30
0.0
 10
-21.48968027530597
 20
66.42716887468924
 30
0.0
 10
-19.66501575958661
 20
64.55862751107979
 30
0.0
 10
-19.65331393595161
 20
61.794727623995
 30
0.0
 10
-21.45412088442466
 20
59.6239699539386
 30
0.0
 10
-22.72454164101563
 20
59.23142004426606
 30
0.0
 10
-24.03137877213268
 20
59.46707608497653
 30
0.0
 10
-23.59626891537961
 20
59.34207593235034
 30
0.0
 10
-24.03137877213268
 20
59.46707608497653
 30
0.0
  0
SPLINE
  5
8C
330
1F
100
AcDbEntity
  8
0
  6
Continuous
 62
   141
100
AcDbSpline
210
0.0
220
0.0
230
1.0
 70
     8
 71
     3
 72
    11
 73
     7
 74
     0
 42
0.00000001
 43
0.00000001
 40
0.0
 40
0.0
 40
0.0
 40
0.0
 40
0.2479477656902438
 40
0.5029840061352108
 40
0.7506647241197201
 40
1.0
 40
1.0
 40
1.0
 40
1.0
 10
11.83599233627319
 20
47.29298124142995
 30
0.0
 10
10.47503658018772
 20
49.15504968071326
 30
0.0
 10
10.55182256998451
 20
51.52614750628618
 30
0.0
 10
12.08614291816147
 20
53.24484123669267
 30
0.0
 10
14.33132484763137
 20
53.82652820371769
 30
0.0
 10
13.54623581296073
 20
53.71888845939724
 30
0.0
 10
14.33132484763137
 20
53.82652820371769
 30
0.0
  0
SPLINE
  5
8D
330
1F
100
AcDbEntity
  8
0
  6
Continuous
 62
   141
100
AcDbSpline
210
0.0
220
0.0
230
1.0
 70
     8
 71
     3
 72
    17
 73
    13
 74
     0
 42
0.00000001
 43
0.00000001
 40
0.0
 40
0.0
 40
0.0
 40
0.0
 40
0.0617134480358575
 40
0.122003421332224
 40
0.2514355013404704
 40
0.3796218954403524
 40
0.4990701959196668
 40
0.6196068435537405
 40
0.747170259900714
 40
0.8773437693846361
 40
0.938712758934296
 40
1.0
 40
1.0
 40
1.0
 40
1.0
 10
-47.05986380577087
 20
67.7569248434483
 30
0.0
 10
-48.2148475235561
 20
68.43070567495224
 30
0.0
 10
-48.92149649464005
 20
69.52937960001401
 30
0.0
 10
-48.83659793964259
 20
72.33250734310481
 30
0.0
 10
-47.09696842266951
 20
74.49763235474681
 30
0.0
 10
-44.51818958892798
 20
74.71701763316102
 30
0.0
 10
-42.69352507320864
 20
72.8484762695516
 30
0.0
 10
-42.68182324957363
 20
70.08457638246679
 30
0.0
 10
-44.48263019804666
 20
67.91381871241036
 30
0.0
 10
-45.75305095463762
 20
67.52126880273784
 30
0.0
 10
-47.0598880857547
 20
67.75692484344829
 30
0.0
 10
-46.62477822900603
 20
67.63192469081291
 30
0.0
 10
-47.0598880857547
 20
67.75692484344829
 30
0.0
  0
LWPOLYLINE
  5
90
330
1F
100
AcDbEntity
  8
0
  6
Continuous
 62
   254
370
    25
100
AcDbPolyline
 90
        3
 70
   128
 43
0.0
 10
-14.1064147502
 20
-57.8297381931
 10
-14.3972103421
 20
-64.5034015597
 10
-15.1724683401
 20
-82.3165159523
  0
SPLINE
  5
91
330
1F
100
AcDbEntity
  8
0
  6
Continuous
 62
   254
370
    25
100
AcDbSpline
210
0.0
220
0.0
230
1.0
 70
    24
 71
     3
 72
    13
 73
     9
 74
     0
 42
0.00000001
 43
0.00000001
 40
0.6628875855581734
 40
0.6628875855581734
 40
0.6628875855581734
 40
0.6628875855581734
 40
0.6875
 40
0.71875
 40
0.75
 40
0.78125
 40
0.8125
 40
0.8584076114059469
 40
0.8584076114059469
 40
0.8584076114059469
 40
0.8584076114059469
 10
-13.29360078502146
 20
-57.82973819307814
 30
0.0
 10
-13.35129658039944
 20
-57.82973819307814
 30
0.0
 10
-13.45228918059724
 20
-57.82973819307813
 30
0.0
 10
-13.54675815543526
 20
-57.82973819307813
 30
0.0
 10
-13.62002893400751
 20
-57.82973819307813
 30
0.0
 10
-13.72472769432686
 20
-57.82973819307813
 30
0.0
 10
-13.9130808593505
 20
-57.82973819307813
 30
0.0
 10
-14.03973335806114
 20
-57.82973819307813
 30
0.0
 10
-14.10641976303201
 20
-57.82973819307813
 30
0.0
  0
SPLINE
  5
92
330
1F
100
AcDbEntity
  8
0
  6
Continuous
 62
   254
370
    25
100
AcDbSpline
210
0.0
220
0.0
230
1.0
 70
     8
 71
     3
 72
    64
 73
    60
 74
     0
 42
0.00000001
 43
0.00000001
 40
0.0
 40
0.0
 40
0.0
 40
0.0
 40
0.03125
 40
0.03125
 40
0.0625
 40
0.0625
 40
0.1249999999999999
 40
0.1249999999999999
 40
0.1874999999999999
 40
0.1874999999999999
 40
0.2499999999999999
 40
0.2499999999999999
 40
0.2812499999999999
 40
0.2812499999999999
 40
0.3124999999999999
 40
0.3124999999999999
 40
0.3437499999999998
 40
0.3437499999999998
 40
0.3749999999999998
 40
0.3749999999999998
 40
0.3906250000000001
 40
0.3906250000000001
 40
0.4062500000000003
 40
0.4062500000000003
 40
0.4375000000000007
 40
0.4375000000000007
 40
0.4687500000000011
 40
0.4687500000000011
 40
0.5000000000000016
 40
0.5000000000000016
 40
0.531250000000002
 40
0.531250000000002
 40
0.5468750000000022
 40
0.5468750000000022
 40
0.5625000000000024
 40
0.5625000000000024
 40
0.5937500000000027
 40
0.5937500000000027
 40
0.6093750000000028
 40
0.6093750000000028
 40
0.6250000000000028
 40
0.6250000000000028
 40
0.6562500000000027
 40
0.6562500000000027
 40
0.6875000000000026
 40
0.6875000000000026
 40
0.7500000000000017
 40
0.7500000000000017
 40
0.7812500000000012
 40
0.7812500000000012
 40
0.8125000000000008
 40
0.8125000000000008
 40
0.8750000000000006
 40
0.8750000000000006
 40
0.9375000000000004
 40
0.9375000000000004
 40
0.9687500000000002
 40
0.9687500000000002
 40
1.0
 40
1.0
 40
1.0
 40
1.0
 10
-13.29344713783038
 20
-57.82973819120707
 30
0.0
 10
-13.21668661316067
 20
-58.33929013271059
 30
0.0
 10
-13.13117651927195
 20
-58.84730692391749
 30
0.0
 10
-12.95177525789727
 20
-59.86187001574217
 30
0.0
 10
-12.85679615222126
 20
-60.36822543119423
 30
0.0
 10
-12.5533839958482
 20
-61.88405018990415
 30
0.0
 10
-12.32681910813421
 20
-62.88956601814799
 30
0.0
 10
-11.81442610825662
 20
-64.87894447784633
 30
0.0
 10
-11.52919510033582
 20
-65.86414686445124
 30
0.0
 10
-10.86828994445698
 20
-67.80499990933204
 30
0.0
 10
-10.49371360652523
 20
-68.76100927014348
 30
0.0
 10
-9.81553467974147
 20
-70.15701830472537
 30
0.0
 10
-9.568255719742476
 20
-70.61838884300822
 30
0.0
 10
-9.027375544426606
 20
-71.50990794781242
 30
0.0
 10
-8.734959801248637
 20
-71.93929830714794
 30
0.0
 10
-8.092159142788839
 20
-72.75489903652526
 30
0.0
 10
-7.740879010429636
 20
-73.14044257862368
 30
0.0
 10
-6.963124003044091
 20
-73.8555187165628
 30
0.0
 10
-6.546698917552161
 20
-74.17407529122524
 30
0.0
 10
-5.878775111501345
 20
-74.58526654469368
 30
0.0
 10
-5.648831485730878
 20
-74.71137827264901
 30
0.0
 10
-5.174482142208583
 20
-74.94191158590748
 30
0.0
 10
-4.929017666307637
 20
-75.04684574895583
 30
0.0
 10
-4.1852978995204
 20
-75.32530927898043
 30
0.0
 10
-3.676841413417034
 20
-75.46368970739225
 30
0.0
 10
-2.640385954161338
 20
-75.66739883296817
 30
0.0
 10
-2.110637142542976
 20
-75.73361413234657
 30
0.0
 10
-1.056506965998476
 20
-75.81458881419515
 30
0.0
 10
-0.529787987254529
 20
-75.82967593223782
 30
0.0
 10
0.523240500390197
 20
-75.82980007022027
 30
0.0
 10
1.049550347703823
 20
-75.81486192554026
 30
0.0
 10
1.838499928735763
 20
-75.75464604336048
 30
0.0
 10
2.101396808688158
 20
-75.72823970674514
 30
0.0
 10
2.626980027636534
 20
-75.65997589224042
 30
0.0
 10
2.890501079159779
 20
-75.61803872278
 30
0.0
 10
3.670776976398497
 20
-75.46527181853939
 30
0.0
 10
4.178870893935779
 20
-75.32706328550613
 30
0.0
 10
4.918220984770102
 20
-75.0512011414059
 30
0.0
 10
5.160929825974428
 20
-74.9479944729147
 30
0.0
 10
5.638183280050532
 20
-74.71702504936599
 30
0.0
 10
5.871997910391878
 20
-74.58918130756031
 30
0.0
 10
6.54402014093914
 20
-74.17621773954515
 30
0.0
 10
6.958311325395758
 20
-73.8590168698276
 30
0.0
 10
7.728797551964908
 20
-73.15244754447383
 30
0.0
 10
8.087261499989998
 20
-72.76070257840792
 30
0.0
 10
9.056380894125343
 20
-71.53227510269596
 30
0.0
 10
9.581239311201763
 20
-70.63802998133062
 30
0.0
 10
10.26502947344656
 20
-69.23237746631128
 30
0.0
 10
10.47377819305309
 20
-68.75516173382876
 30
0.0
 10
10.85912775498395
 20
-67.7955233161261
 30
0.0
 10
11.03643906931236
 20
-67.31170511216641
 30
0.0
 10
11.53328813657117
 20
-65.85111817034395
 30
0.0
 10
11.81819778370756
 20
-64.8653359963243
 30
0.0
 10
12.32939817752735
 20
-62.87851358825823
 30
0.0
 10
12.55480924981933
 20
-61.87724438156712
 30
0.0
 10
12.85720272588252
 20
-60.36604210816959
 30
0.0
 10
12.95197919332584
 20
-59.86074070274528
 30
0.0
 10
13.13115063938215
 20
-58.8474356682364
 30
0.0
 10
13.21662321381964
 20
-58.33971252926084
 30
0.0
 10
13.29344706720391
 20
-57.82973819307814
 30
0.0
  0
SPLINE
  5
93
330
1F
100
AcDbEntity
  8
0
  6
Continuous
 62
   254
370
    25
100
AcDbSpline
210
0.0
220
0.0
230
1.0
 70
    24
 71
     3
 72
    13
 73
     9
 74
     0
 42
0.00000001
 43
0.00000001
 40
0.1415922359551031
 40
0.1415922359551031
 40
0.1415922359551031
 40
0.1415922359551031
 40
0.1875
 40
0.21875
 40
0.25
 40
0.28125
 40
0.3125
 40
0.3371134179946516
 40
0.3371134179946516
 40
0.3371134179946516
 40
0.3371134179946516
 10
14.1064204282118
 20
-57.82973819307813
 30
0.0
 10
14.03973385916798
 20
-57.82973819307813
 30
0.0
 10
13.91308112455355
 20
-57.82973819307813
 30
0.0
 10
13.72472769432685
 20
-57.82973819307813
 30
0.0
 10
13.62002893400751
 20
-57.82973819307813
 30
0.0
 10
13.54675815543525
 20
-57.82973819307813
 30
0.0
 10
13.45228809229534
 20
-57.82973819307813
 30
0.0
 10
13.35129295177814
 20
-57.82973819307813
 30
0.0
 10
13.29359372744666
 20
-57.82973819307813
 30
0.0
  0
LWPOLYLINE
  5
96
330
1F
100
AcDbEntity
  8
0
  6
Continuous
 62
   254
370
    25
100
AcDbPolyline
 90
        3
 70
   128
 43
0.0
 10
18.3716713115
 20
-156.0706204204
 10
18.2265027012
 20
-152.7173223661
 10
18.1313836746
 20
-150.5204207789
  0
SPLINE
  5
97
330
1F
100
AcDbEntity
  8
0
  6
Continuous
 62
   254
370
    25
100
AcDbSpline
210
0.0
220
0.0
230
1.0
 70
     8
 71
     3
 72
    18
 73
    14
 74
     0
 42
0.00000001
 43
0.00000001
 40
0.0
 40
0.0
 40
0.0
 40
0.0
 40
0.0533507270650214
 40
0.1825347697234352
 40
0.2364742062152486
 40
0.2921545308189536
 40
0.3463325127604786
 40
0.4022887489995884
 40
0.4880632689528078
 40
0.576351803667099
 40
0.6959615306205436
 40
0.8185808012898147
 40
0.9999999999999999
 40
0.9999999999999999
 40
0.9999999999999999
 40
0.9999999999999999
 10
18.68784611032212
 20
-159.2420039566229
 30
0.0
 10
18.7020511707706
 20
-159.2348186752946
 30
0.0
 10
18.7506525222519
 20
-159.2102348740082
 30
0.0
 10
18.40942221469895
 20
-159.382997970266
 30
0.0
 10
17.83703028508597
 20
-159.66919524162
 30
0.0
 10
17.19162486270886
 20
-159.9875647832525
 30
0.0
 10
16.24491872529656
 20
-160.4373829112089
 30
0.0
 10
14.96153295900203
 20
-161.0030480544496
 30
0.0
 10
13.2927742749757
 20
-161.6410458767936
 30
0.0
 10
10.92416495339764
 20
-162.2528331702086
 30
0.0
 10
8.056777219380661
 20
-162.6265886138582
 30
0.0
 10
4.308538051834246
 20
-162.8124621561869
 30
0.0
 10
1.61013322552313
 20
-162.9222281737667
 30
0.0
 10
0.0000000000000017
 20
-162.9877253557369
 30
0.0
  0
SPLINE
  5
98
330
1F
100
AcDbEntity
  8
0
  6
Continuous
 62
   254
370
    25
100
AcDbSpline
210
0.0
220
0.0
230
1.0
 70
     8
 71
     3
 72
    19
 73
    15
 74
     0
 42
0.00000001
 43
0.00000001
 40
0.0
 40
0.0
 40
0.0
 40
0.0
 40
0.1882156742026652
 40
0.3064624454769908
 40
0.4267408771160183
 40
0.5068107037421147
 40
0.5889845623737537
 40
0.6384545440530877
 40
0.6886234390924955
 40
0.7297229901960665
 40
0.7723112781262116
 40
0.8492964783535335
 40
0.927955062174152
 40
0.9999999999999999
 40
0.9999999999999999
 40
0.9999999999999999
 40
0.9999999999999999
 10
0.0000000000000009
 20
-162.9877253557369
 30
0.0
 10
-1.671043454483735
 20
-162.9209847871401
 30
0.0
 10
-4.391922391526867
 20
-162.8123143591784
 30
0.0
 10
-8.166356998103456
 20
-162.6159757718716
 30
0.0
 10
-10.92879012103464
 20
-162.2482978959647
 30
0.0
 10
-13.20712871595665
 20
-161.6636845505167
 30
0.0
 10
-14.75847175955177
 20
-161.0838145706109
 30
0.0
 10
-15.96937738241359
 20
-160.5618795169279
 30
0.0
 10
-16.81988917324213
 20
-160.16579394535
 30
0.0
 10
-17.46907252920794
 20
-159.8509626687342
 30
0.0
 10
-18.01918231648446
 20
-159.5786271050615
 30
0.0
 10
-18.42102550318014
 20
-159.3767024329254
 30
0.0
 10
-18.7161417220555
 20
-159.2277304523821
 30
0.0
 10
-18.69699793832086
 20
-159.2373873872063
 30
0.0
 10
-18.68784611032211
 20
-159.2420039566229
 30
0.0
  0
SPLINE
  5
9A
330
1F
100
AcDbEntity
  8
0
  6
Continuous
 62
   254
370
    25
100
AcDbSpline
210
0.0
220
0.0
230
1.0
 70
     8
 71
     3
 72
    15
 73
    11
 74
     0
 42
0.00000001
 43
0.00000001
 40
0.0
 40
0.0
 40
0.0
 40
0.0
 40
0.167280310890927
 40
0.2776528739114947
 40
0.3940851483606743
 40
0.5410179473771775
 40
0.6674498690337454
 40
0.7390903703029975
 40
0.8431676134356343
 40
0.981335835425652
 40
0.981335835425652
 40
0.981335835425652
 40
0.981335835425652
 10
-0.0000000000000007
 20
105.1752130766772
 30
0.0
 10
-14.21864501017586
 20
105.0086912909476
 30
0.0
 10
-39.48152225921833
 20
99.34717550885489
 30
0.0
 10
-62.55409340749818
 20
72.76360937353373
 30
0.0
 10
-75.69425727334918
 20
42.6529912568537
 30
0.0
 10
-77.34750854116304
 20
8.432134550618532
 30
0.0
 10
-73.54931511662355
 20
-21.56629367759602
 30
0.0
 10
-61.22151492770215
 20
-45.30109954038605
 30
0.0
 10
-38.84137748655793
 20
-61.93166109405031
 30
0.0
 10
-18.35608622579189
 20
-69.05278993213562
 30
0.0
 10
-15.17246834012834
 20
-82.31651595233838
 30
0.0
  0
SPLINE
  5
9B
330
1F
100
AcDbEntity
  8
0
  6
Continuous
 62
   254
370
    25
100
AcDbSpline
210
0.0
220
0.0
230
1.0
 70
     8
 71
     3
 72
    15
 73
    11
 74
     0
 42
0.00000001
 43
0.00000001
 40
0.0
 40
0.0
 40
0.0
 40
0.0
 40
0.167280310890927
 40
0.2776528739114947
 40
0.3940851483606743
 40
0.5410179473771775
 40
0.6674498690337454
 40
0.7390903703029975
 40
0.8431676134356343
 40
0.9813358535631589
 40
0.9813358535631589
 40
0.9813358535631589
 40
0.9813358535631589
 10
-0.0000000000000007
 20
105.1752130766772
 30
0.0
 10
14.21864501017585
 20
105.0086912909475
 30
0.0
 10
39.48152225921834
 20
99.34717550885492
 30
0.0
 10
62.55409340749816
 20
72.76360937353373
 30
0.0
 10
75.69425727334918
 20
42.6529912568537
 30
0.0
 10
77.34750854116308
 20
8.432134550618565
 30
0.0
 10
73.54931511662357
 20
-21.566293677596
 30
0.0
 10
61.22151492770217
 20
-45.30109954038604
 30
0.0
 10
38.8413761933498
 20
-61.93166205502645
 30
0.0
 10
18.35608315822478
 20
-69.05279099848805
 30
0.0
 10
15.17246708637689
 20
-82.31652117577414
 30
0.0
  0
SPLINE
  5
9C
330
1F
100
AcDbEntity
  8
0
  6
Continuous
 62
   254
370
    25
100
AcDbSpline
210
0.0
220
0.0
230
1.0
 70
     8
 71
     3
 72
     9
 73
     5
 74
     0
 42
0.00000001
 43
0.00000001
 40
0.5567772649377399
 40
0.5567772649377399
 40
0.5567772649377399
 40
0.5567772649377399
 40
0.6377850287156832
 40
0.647597433790064
 40
0.647597433790064
 40
0.647597433790064
 40
0.647597433790064
 10
-18.13138280849137
 20
-150.5204085590278
 30
0.0
 10
-18.24832001662242
 20
-152.1702345750415
 30
0.0
 10
-18.3399256785588
 20
-154.0201986732718
 30
0.0
 10
-18.37194980191948
 20
-155.8705307541028
 30
0.0
 10
-18.37167130596524
 20
-156.0706244177341
 30
0.0
  0
SPLINE
  5
9D
330
1F
100
AcDbEntity
  8
0
  6
Continuous
 62
   254
370
    25
100
AcDbSpline
210
0.0
220
0.0
230
1.0
 70
     8
 71
     3
 72
     9
 73
     5
 74
     0
 42
0.00000001
 43
0.00000001
 40
0.5567774649401854
 40
0.5567774649401854
 40
0.5567774649401854
 40
0.5567774649401854
 40
0.6377850287156832
 40
0.6475973684475708
 40
0.6475973684475708
 40
0.6475973684475708
 40
0.6475973684475708
 10
18.13138367461992
 20
-150.5204207789394
 30
0.0
 10
18.24832042008669
 20
-152.1702427229529
 30
0.0
 10
18.33992568317424
 20
-154.020201417042
 30
0.0
 10
18.37194975583864
 20
-155.8705280915816
 30
0.0
 10
18.37167131152846
 20
-156.0706204203597
 30
0.0
  0
SPLINE
  5
A7
330
1F
100
AcDbEntity
  8
0
  6
Continuous
 62
   254
370
    25
100
AcDbSpline
210
0.0
220
0.0
230
1.0
 70
     8
 71
     3
 72
    19
 73
    15
 74
     0
 42
0.00000001
 43
0.00000001
 40
0.4864927496407396
 40
0.4864927496407396
 40
0.4864927496407396
 40
0.4864927496407396
 40
0.4922905297543439
 40
0.5430568349039663
 40
0.5938231400535887
 40
0.6445894452032112
 40
0.6953557503528336
 40
0.746122055502456
 40
0.7968883606520785
 40
0.8476546658017009
 40
0.8984209709513233
 40
0.9491872761009457
 40
0.9745704286757568
 40
0.9999535812505681
 40
0.9999535812505681
 40
0.9999535812505681
 40
0.9999535812505681
 10
75.42322101982523
 20
13.91563157332192
 30
0.0
 10
75.4257443764393
 20
14.41931193516031
 30
0.0
 10
75.42879708007385
 20
19.33183292245558
 30
0.0
 10
75.03351492284347
 20
28.61439052583021
 30
0.0
 10
73.07312215425857
 20
41.53816317545348
 30
0.0
 10
69.37183067615753
 20
54.0639102196668
 30
0.0
 10
63.92402604717928
 20
66.01476122653885
 30
0.0
 10
56.86103794329201
 20
77.23241314560872
 30
0.0
 10
48.22226757975784
 20
87.22613385213215
 30
0.0
 10
37.88674827379268
 20
95.07893341363119
 30
0.0
 10
25.88225697599927
 20
100.3709282176728
 30
0.0
 10
15.14442559690351
 20
102.9228075361569
 30
0.0
 10
6.440273839673046
 20
103.9514963640946
 30
0.0
 10
2.154495583294781
 20
104.1496395080975
 30
0.0
 10
-0.0000000000002993
 20
104.1751437604719
 30
0.0
  0
SPLINE
  5
A9
330
1F
100
AcDbEntity
  8
0
  6
Continuous
 62
   254
370
    25
100
AcDbSpline
210
0.0
220
0.0
230
1.0
 70
     8
 71
     3
 72
    10
 73
     6
 74
     0
 42
0.00000001
 43
0.00000001
 40
0.1876926988566094
 40
0.1876926988566094
 40
0.1876926988566094
 40
0.1876926988566094
 40
0.2130758514314207
 40
0.2384590040062319
 40
0.258252849759021
 40
0.258252849759021
 40
0.258252849759021
 40
0.258252849759021
 10
47.05547439804729
 20
-53.98490178644131
 30
0.0
 10
48.86395000927378
 20
-52.75570012490682
 30
0.0
 10
52.39540619021627
 20
-50.13533055197851
 30
0.0
 10
56.84708999641816
 20
-46.0854433548654
 30
0.0
 10
59.39432676517497
 20
-43.22708685941441
 30
0.0
 10
60.4456940784603
 20
-41.91998015541932
 30
0.0
  0
SPLINE
  5
AB
330
1F
100
AcDbEntity
  8
0
  6
Continuous
 62
   254
370
    25
100
AcDbSpline
210
0.0
220
0.0
230
1.0
 70
     8
 71
     3
 72
    17
 73
    13
 74
     0
 42
0.00000001
 43
0.00000001
 40
0.4566351935335638
 40
0.4566351935335638
 40
0.4566351935335638
 40
0.4566351935335638
 40
0.4569431650960352
 40
0.5077094702456575
 40
0.5584757753952798
 40
0.6092420805449021
 40
0.6600083856945245
 40
0.7107746908441468
 40
0.736157843418958
 40
0.7615409959937691
 40
0.7869241485685803
 40
0.8123073011433914
 40
0.8123073011433914
 40
0.8123073011433914
 40
0.8123073011433914
 10
-74.79259183504615
 20
28.65221863079619
 30
0.0
 10
-74.79515822907504
 20
28.62583717346726
 30
0.0
 10
-75.21934559832933
 20
24.25045980414534
 30
0.0
 10
-75.5944095921995
 20
15.44269283473165
 30
0.0
 10
-75.13374371043263
 20
2.171776207955098
 30
0.0
 10
-73.69268210617115
 20
-10.93505656381058
 30
0.0
 10
-70.60906384592575
 20
-23.60427199855485
 30
0.0
 10
-66.19551904089522
 20
-33.65915956387036
 30
0.0
 10
-61.43010550384363
 20
-40.89130914793702
 30
0.0
 10
-57.19972284015861
 20
-45.76463817163191
 30
0.0
 10
-52.3954061902161
 20
-50.13533055197868
 30
0.0
 10
-48.86395000927355
 20
-52.75570012490697
 30
0.0
 10
-47.05547439804706
 20
-53.98490178644145
 30
0.0
  0
SPLINE
  5
B0
330
1F
100
AcDbEntity
  8
0
  6
Continuous
 62
   254
370
    25
100
AcDbSpline
210
0.0
220
0.0
230
1.0
 70
     8
 71
     3
 72
    16
 73
    12
 74
     0
 42
0.00000001
 43
0.00000001
 40
0.0000464187494343
 40
0.0000464187494343
 40
0.0000464187494343
 40
0.0000464187494343
 40
0.0254295713242455
 40
0.0508127238990566
 40
0.1015790290486789
 40
0.1523453341983013
 40
0.2031116393479236
 40
0.2538779444975459
 40
0.3046442496471682
 40
0.3554105547967906
 40
0.3570635185913032
 40
0.3570635185913032
 40
0.3570635185913032
 40
0.3570635185913032
 10
-0.0000000000003053
 20
104.1751437604719
 30
0.0
 10
-2.154495583295379
 20
104.1496395080975
 30
0.0
 10
-6.440273839673639
 20
103.9514963640946
 30
0.0
 10
-15.1444255969041
 20
102.9228075361568
 30
0.0
 10
-25.88225697599983
 20
100.3709282176726
 30
0.0
 10
-37.88674827379314
 20
95.0789334136309
 30
0.0
 10
-48.22226757975825
 20
87.22613385213172
 30
0.0
 10
-56.8610379432923
 20
77.2324131456083
 30
0.0
 10
-63.92402604717949
 20
66.01476122653838
 30
0.0
 10
-67.6150231008025
 20
57.91781964019424
 30
0.0
 10
-69.1797355154524
 20
53.70233788163224
 30
0.0
 10
-69.22876782969855
 20
53.56930836140011
 30
0.0
  0
CIRCLE
  5
B3
330
1F
100
AcDbEntity
  8
0
  6
Continuous
 62
   254
370
    25
100
AcDbCircle
 10
15.5523967551
 20
60.5577616728
 30
0.0
 40
0.7937499999999975
  0
SPLINE
  5
BF
330
1F
100
AcDbEntity
  8
0
  6
Continuous
 62
   254
370
    25
100
AcDbSpline
210
0.0
220
0.0
230
1.0
 70
     8
 71
     3
 72
    11
 73
     7
 74
     0
 42
0.00000001
 43
0.00000001
 40
0.2948227864398621
 40
0.2948227864398621
 40
0.2948227864398621
 40
0.2948227864398621
 40
0.3399916143054766
 40
0.3907579194550991
 40
0.4415242246047215
 40
0.4419844951299636
 40
0.4419844951299636
 40
0.4419844951299636
 40
0.4419844951299636
 10
65.60641996258579
 20
-34.14903530078722
 30
0.0
 10
67.46305364038436
 20
-30.76004047936005
 30
0.0
 10
70.72239678144545
 20
-23.13863739181311
 30
0.0
 10
73.69268210617125
 20
-10.93505656381025
 30
0.0
 10
74.6577449500595
 20
-2.157557203836154
 30
0.0
 10
74.97607830201488
 20
2.278843342425618
 30
0.0
 10
74.97892508894424
 20
2.318706594320846
 30
0.0
  0
LINE
  5
C1
330
1F
100
AcDbEntity
  8
0
  6
Continuous
 62
   254
370
    25
100
AcDbLine
 10
18.7529939428
 20
-159.2392161013
 30
0.0
 11
15.4279464192
 21
-81.5380372608
 31
0.0
  0
LINE
  5
C2
330
1F
100
AcDbEntity
  8
0
  6
Continuous
 62
   254
370
    25
100
AcDbLine
 10
-15.4279463834
 20
-81.5380364243
 30
0.0
 11
-18.7529939428
 21
-159.2392161013
 31
0.0
  0
LINE
  5
C3
330
1F
100
AcDbEntity
  8
0
  6
Continuous
 62
   254
370
    25
100
AcDbLine
 10
15.1724670864
 20
-82.3165211758
 30
0.0
 11
14.1064153348
 21
-57.8297381931
 31
0.0
  0
LINE
  5
C4
330
1F
100
AcDbEntity
  8
0
  6
Continuous
 62
   254
370
    25
100
AcDbLine
 10
-18.1313828085
 20
-150.520408559
 30
0.0
 11
-18.371671306
 21
-156.0706244177
 31
0.0
  0
LINE
  5
C5
330
1F
100
AcDbEntity
  8
0
  6
Continuous
 62
   254
370
    25
100
AcDbLine
 10
13.2936334221
 20
-57.8297381931
 30
0.0
 11
-13.2936597865
 21
-57.8297381931
 31
0.0
  0
LINE
  5
C6
330
1F
100
AcDbEntity
  8
0
  6
Continuous
 62
   254
370
    25
100
AcDbLine
 10
-66.4171330247
 20
35.755408983
 30
0.0
 11
-63.3360779734
 21
12.6627979281
 31
0.0
  0
LINE
  5
C7
330
1F
100
AcDbEntity
  8
0
  6
Continuous
 62
   254
370
    25
100
AcDbLine
 10
-47.055474398
 20
53.5693083613
 30
0.0
 11
-66.4171330247
 21
35.755408983
 31
0.0
  0
LINE
  5
C8
330
1F
100
AcDbEntity
  8
0
  6
Continuous
 62
   254
370
    25
100
AcDbLine
 10
-29.1490370353
 20
47.1335945735
 30
0.0
 11
-47.055474398
 21
53.5693083613
 31
0.0
  0
LINE
  5
C9
330
1F
100
AcDbEntity
  8
0
  6
Continuous
 62
   254
370
    25
100
AcDbLine
 10
-35.5508982262
 20
27.7216545904
 30
0.0
 11
-29.1490370353
 21
47.1335945735
 31
0.0
  0
LINE
  5
CA
330
1F
100
AcDbEntity
  8
0
  6
Continuous
 62
   254
370
    25
100
AcDbLine
 10
-55.8291041793
 20
35.0098005794
 30
0.0
 11
-35.5508982262
 21
27.7216545904
 31
0.0
  0
LINE
  5
CB
330
1F
100
AcDbEntity
  8
0
  6
Continuous
 62
   254
370
    25
100
AcDbLine
 10
-58.7512165706
 20
26.8794479524
 30
0.0
 11
-55.8291041793
 21
35.0098005794
 31
0.0
  0
LINE
  5
CC
330
1F
100
AcDbEntity
  8
0
  6
Continuous
 62
   254
370
    25
100
AcDbLine
 10
-38.1566236218
 20
19.47759
 30
0.0
 11
-58.7512165706
 21
26.8794479524
 31
0.0
  0
LINE
  5
CD
330
1F
100
AcDbEntity
  8
0
  6
Continuous
 62
   254
370
    25
100
AcDbLine
 10
-43.2099209243
 20
5.4175253968
 30
0.0
 11
-38.1566236218
 21
19.47759
 31
0.0
  0
LINE
  5
CE
330
1F
100
AcDbEntity
  8
0
  6
Continuous
 62
   254
370
    25
100
AcDbLine
 10
-63.3360779734
 20
12.6627979281
 30
0.0
 11
-43.2099209243
 21
5.4175253968
 31
0.0
  0
LINE
  5
CF
330
1F
100
AcDbEntity
  8
0
  6
Continuous
 62
   254
370
    25
100
AcDbLine
 10
75.4232210198
 20
13.9156315733
 30
0.0
 11
27.2744236021
 21
-29.7829910595
 31
0.0
  0
LINE
  5
D0
330
1F
100
AcDbEntity
  8
0
  6
Continuous
 62
   254
370
    25
100
AcDbLine
 10
-47.055474398
 20
-53.9849017864
 30
0.0
 11
47.055474398
 21
-53.9849017864
 31
0.0
  0
LINE
  5
D1
330
1F
100
AcDbEntity
  8
0
  6
Continuous
 62
   254
370
    25
100
AcDbLine
 10
-73.7564916928
 20
29.6883187727
 30
0.0
 11
-70.6908573376
 21
6.3097253211
 31
0.0
  0
LINE
  5
D2
330
1F
100
AcDbEntity
  8
0
  6
Continuous
 62
   254
370
    25
100
AcDbLine
 10
-70.6908573376
 20
6.3097253211
 30
0.0
 11
-38.1566236218
 21
-5.3691440756
 31
0.0
  0
LINE
  5
D3
330
1F
100
AcDbEntity
  8
0
  6
Continuous
 62
   254
370
    25
100
AcDbLine
 10
-38.1566236218
 20
-5.3691440756
 30
0.0
 11
-18.6786522298
 21
52.4201173624
 31
0.0
  0
LINE
  5
D4
330
1F
100
AcDbEntity
  8
0
  6
Continuous
 62
   254
370
    25
100
AcDbLine
 10
-48.6497207842
 20
63.178882987
 30
0.0
 11
-68.1451655145
 21
45.3057338269
 31
0.0
  0
LINE
  5
D5
330
1F
100
AcDbEntity
  8
0
  6
Continuous
 62
   254
370
    25
100
AcDbLine
 10
-74.792591835
 20
28.6522186308
 30
0.0
 11
-73.7564916928
 21
29.6883187727
 31
0.0
  0
LINE
  5
D6
330
1F
100
AcDbEntity
  8
0
  6
Continuous
 62
   254
370
    25
100
AcDbLine
 10
-12.8410104106
 20
29.5520646762
 30
0.0
 11
11.3014305233
 21
-29.3562763873
 31
0.0
  0
LINE
  5
D7
330
1F
100
AcDbEntity
  8
0
  6
Continuous
 62
   254
370
    25
100
AcDbLine
 10
24.1560342018
 20
35.7554089833
 30
0.0
 11
10.4091154133
 21
-5.0303724435
 31
0.0
  0
LINE
  5
D8
330
1F
100
AcDbEntity
  8
0
  6
Continuous
 62
   254
370
    25
100
AcDbLine
 10
-18.6786522298
 20
52.4201173624
 30
0.0
 11
-48.6497207842
 21
63.178882987
 31
0.0
  0
LINE
  5
D9
330
1F
100
AcDbEntity
  8
0
  6
Continuous
 62
   254
370
    25
100
AcDbLine
 10
-13.2559811584
 20
53.3970231716
 30
0.0
 11
-33.9985468585
 21
-8.1441675417
 31
0.0
  0
LINE
  5
DA
330
1F
100
AcDbEntity
  8
0
  6
Continuous
 62
   254
370
    25
100
AcDbLine
 10
-68.1451655145
 20
45.3057338269
 30
0.0
 11
-69.2287678297
 21
53.5693083614
 31
0.0
  0
LINE
  5
DB
330
1F
100
AcDbEntity
  8
0
  6
Continuous
 62
   254
370
    25
100
AcDbLine
 10
27.2744236021
 20
-29.7829910595
 30
0.0
 11
60.4456940785
 21
-41.9199801554
 31
0.0
  0
LINE
  5
DC
330
1F
100
AcDbEntity
  8
0
  6
Continuous
 62
   254
370
    25
100
AcDbLine
 10
11.3014305233
 20
-29.3562763873
 30
0.0
 11
32.3199815893
 21
33.0037362728
 31
0.0
  0
LINE
  5
DD
330
1F
100
AcDbEntity
  8
0
  6
Continuous
 62
   254
370
    25
100
AcDbLine
 10
32.3199815893
 20
33.0037362728
 30
0.0
 11
24.1560342018
 21
35.7554089833
 31
0.0
  0
LINE
  5
DE
330
1F
100
AcDbEntity
  8
0
  6
Continuous
 62
   254
370
    25
100
AcDbLine
 10
-33.9985468585
 20
-8.1441675417
 30
0.0
 11
-26.4088143036
 21
-10.702300141
 31
0.0
  0
LINE
  5
DF
330
1F
100
AcDbEntity
  8
0
  6
Continuous
 62
   254
370
    25
100
AcDbLine
 10
10.4091154133
 20
-5.0303724435
 30
0.0
 11
-13.2559811584
 21
53.3970231716
 31
0.0
  0
LINE
  5
E0
330
1F
100
AcDbEntity
  8
0
  6
Continuous
 62
   254
370
    25
100
AcDbLine
 10
-26.4088143036
 20
-10.702300141
 30
0.0
 11
-12.8410104106
 21
29.5520646762
 31
0.0
  0
LINE
  5
E1
330
1F
100
AcDbEntity
  8
0
  6
Continuous
 62
   254
370
    25
100
AcDbLine
 10
65.6064199626
 20
-34.1490353008
 30
0.0
 11
43.4597548827
 21
-26.2443957852
 31
0.0
  0
LINE
  5
E2
330
1F
100
AcDbEntity
  8
0
  6
Continuous
 62
   254
370
    25
100
AcDbLine
 10
43.4597548827
 20
-26.2443957852
 30
0.0
 11
74.9789250889
 21
2.3187065943
 31
0.0
  0
MTEXT
  5
E4
330
1F
100
AcDbEntity
  8
0
  6
Continuous
 62
   141
100
AcDbMText
 10
-76.3497525299
 20
-164.0072917474
 30
0.0
 40
4.83362
 41
0.0
 71
     1
 72
     1
  1
SOLIDWORKS Educational Product.
  7
SLDTEXTSTYLE0
 73
     1
 44
1.0
  0
MTEXT
  5
E5
330
1F
100
AcDbEntity
  8
0
  6
Continuous
 62
   141
100
AcDbMText
 10
-76.3497525299
 20
-171.2577217474
 30
0.0
 40
4.83362
 41
0.0
 71
     1
 72
     1
  1
For Instructional Use Only.
  7
SLDTEXTSTYLE0
 73
     1
 44
1.0
  0
ENDSEC
  0
SECTION
  2
OBJECTS
  0
DICTIONARY
  5
C
330
0
100
AcDbDictionary
281
     1
  3
ACAD_GROUP
350
D
  3
ACAD_LAYOUT
350
1A
  3
ACAD_MLINESTYLE
350
17
  3
ACAD_PLOTSETTINGS
350
19
  3
ACAD_PLOTSTYLENAME
350
E
  3
ACAD_SCALELIST
350
47
  3
DWGPROPS
350
E6
  0
DICTIONARY
  5
D
102
{ACAD_REACTORS
330
C
102
}
330
C
100
AcDbDictionary
281
     1
  0
DICTIONARY
  5
1A
102
{ACAD_REACTORS
330
C
102
}
330
C
100
AcDbDictionary
281
     1
  3
Layout1
350
1E
  3
Layout2
350
26
  3
Model
350
22
  0
DICTIONARY
  5
17
102
{ACAD_REACTORS
330
C
102
}
330
C
100
AcDbDictionary
281
     1
  3
Standard
350
18
  0
DICTIONARY
  5
19
102
{ACAD_REACTORS
330
C
102
}
330
C
100
AcDbDictionary
281
     1
  0
ACDBDICTIONARYWDFLT
  5
E
102
{ACAD_REACTORS
330
C
102
}
330
C
100
AcDbDictionary
281
     1
  3
Normal
350
F
100
AcDbDictionaryWithDefault
340
F
  0
DICTIONARY
  5
47
102
{ACAD_REACTORS
330
C
102
}
330
C
100
AcDbDictionary
281
     1
  3
A0
350
48
  3
A1
350
49
  3
A2
350
4A
  3
A3
350
4B
  3
A4
350
4C
  3
A5
350
4D
  3
A6
350
4E
  3
A7
350
4F
  3
A8
350
50
  3
A9
350
51
  3
B0
350
52
  3
B1
350
53
  3
B2
350
54
  3
B3
350
55
  3
B4
350
56
  3
B5
350
57
  3
B6
350
58
  0
XRECORD
  5
E6
102
{ACAD_REACTORS
330
C
102
}
330
C
100
AcDbXrecord
280
     1
  1
DWGPROPS COOKIE
  2

  3

  4

  6

  7

  8
John
  9

300
=
301
=
302
=
303
=
304
=
305
=
306
=
307
=
308
=
309
=
 40
0.0
 41
2460097.054236111
 42
2460097.054319039
  1

 90
        0
  0
LAYOUT
  5
1E
102
{ACAD_REACTORS
330
1A
102
}
330
1A
100
AcDbPlotSettings
  1

  2
none_device
  4

  6

 40
0.0
 41
0.0
 42
0.0
 43
0.0
 44
0.0
 45
0.0
 46
0.0
 47
0.0
 48
0.0
 49
0.0
140
0.0
141
0.0
142
1.0
143
1.0
 70
   688
 72
     1
 73
     0
 74
     5
  7

 75
    16
147
1.0
148
0.0
149
0.0
100
AcDbLayout
  1
Layout1
 70
     1
 71
     1
 10
0.0
 20
0.0
 11
420.0
 21
297.0
 12
0.0
 22
0.0
 32
0.0
 14
1.0000000000E+20
 24
1.0000000000E+20
 34
1.0000000000E+20
 15
-1.0000000000E+20
 25
-1.0000000000E+20
 35
-1.0000000000E+20
146
0.0
 13
0.0
 23
0.0
 33
0.0
 16
1.0
 26
0.0
 36
0.0
 17
0.0
 27
1.0
 37
0.0
 76
     0
330
1B
  0
LAYOUT
  5
26
102
{ACAD_REACTORS
330
1A
102
}
330
1A
100
AcDbPlotSettings
  1

  2
none_device
  4

  6

 40
0.0
 41
0.0
 42
0.0
 43
0.0
 44
0.0
 45
0.0
 46
0.0
 47
0.0
 48
0.0
 49
0.0
140
0.0
141
0.0
142
1.0
143
1.0
 70
   688
 72
     1
 73
     0
 74
     5
  7

 75
    16
147
1.0
148
0.0
149
0.0
100
AcDbLayout
  1
Layout2
 70
     1
 71
     2
 10
0.0
 20
0.0
 11
0.0
 21
0.0
 12
0.0
 22
0.0
 32
0.0
 14
0.0
 24
0.0
 34
0.0
 15
0.0
 25
0.0
 35
0.0
146
0.0
 13
0.0
 23
0.0
 33
0.0
 16
1.0
 26
0.0
 36
0.0
 17
0.0
 27
1.0
 37
0.0
 76
     0
330
23
  0
LAYOUT
  5
22
102
{ACAD_REACTORS
330
1A
102
}
330
1A
100
AcDbPlotSettings
  1

  2
none_device
  4
ANSI_A_(11.00_x_8.50_Inches)
  6

 40
6.35
 41
19.05
 42
6.35000508
 43
19.05000254
 44
279.4
 45
215.9
 46
133.3499974305
 47
111.9399166606
 48
0.0
 49
0.0
140
0.0
141
0.0
142
0.0313801752
143
1.0
 70
  1696
 72
     0
 73
     0
 74
     0
  7

 75
     0
147
0.0179189148
148
-1300.4909072572
149
0.0
100
AcDbLayout
  1
Model
 70
     1
 71
     0
 10
0.0
 20
0.0
 11
420.0
 21
297.0
 12
0.0
 22
0.0
 32
0.0
 14
-76.3497525299
 24
-162.9877253557
 34
0.0
 15
76.349752604
 25
105.1752130767
 35
0.0
146
0.0
 13
0.0
 23
0.0
 33
0.0
 16
1.0
 26
0.0
 36
0.0
 17
0.0
 27
1.0
 37
0.0
 76
     0
330
1F
331
29
  0
MLINESTYLE
  5
18
102
{ACAD_REACTORS
330
17
102
}
330
17
100
AcDbMlineStyle
  2
Standard
 70
     0
  3

 62
   256
 51
90.0
 52
90.0
 71
     2
 49
0.5
 62
   256
  6
BYLAYER
 49
-0.5
 62
   256
  6
BYLAYER
  0
ACDBPLACEHOLDER
  5
F
102
{ACAD_REACTORS
330
E
102
}
330
E
  0
SCALE
  5
48
102
{ACAD_REACTORS
330
47
102
}
330
47
100
AcDbScale
 70
     0
300
1:1
140
1.0
141
1.0
290
     1
  0
SCALE
  5
49
102
{ACAD_REACTORS
330
47
102
}
330
47
100
AcDbScale
 70
     0
300
1:2
140
1.0
141
2.0
290
     0
  0
SCALE
  5
4A
102
{ACAD_REACTORS
330
47
102
}
330
47
100
AcDbScale
 70
     0
300
1:4
140
1.0
141
4.0
290
     0
  0
SCALE
  5
4B
102
{ACAD_REACTORS
330
47
102
}
330
47
100
AcDbScale
 70
     0
300
1:5
140
1.0
141
5.0
290
     0
  0
SCALE
  5
4C
102
{ACAD_REACTORS
330
47
102
}
330
47
100
AcDbScale
 70
     0
300
1:8
140
1.0
141
8.0
290
     0
  0
SCALE
  5
4D
102
{ACAD_REACTORS
330
47
102
}
330
47
100
AcDbScale
 70
     0
300
1:10
140
1.0
141
10.0
290
     0
  0
SCALE
  5
4E
102
{ACAD_REACTORS
330
47
102
}
330
47
100
AcDbScale
 70
     0
300
1:16
140
1.0
141
16.0
290
     0
  0
SCALE
  5
4F
102
{ACAD_REACTORS
330
47
102
}
330
47
100
AcDbScale
 70
     0
300
1:20
140
1.0
141
20.0
290
     0
  0
SCALE
  5
50
102
{ACAD_REACTORS
330
47
102
}
330
47
100
AcDbScale
 70
     0
300
1:30
140
1.0
141
30.0
290
     0
  0
SCALE
  5
51
102
{ACAD_REACTORS
330
47
102
}
330
47
100
AcDbScale
 70
     0
300
1:40
140
1.0
141
40.0
290
     0
  0
SCALE
  5
52
102
{ACAD_REACTORS
330
47
102
}
330
47
100
AcDbScale
 70
     0
300
1:50
140
1.0
141
50.0
290
     0
  0
SCALE
  5
53
102
{ACAD_REACTORS
330
47
102
}
330
47
100
AcDbScale
 70
     0
300
1:100
140
1.0
141
100.0
290
     0
  0
SCALE
  5
54
102
{ACAD_REACTORS
330
47
102
}
330
47
100
AcDbScale
 70
     0
300
2:1
140
2.0
141
1.0
290
     0
  0
SCALE
  5
55
102
{ACAD_REACTORS
330
47
102
}
330
47
100
AcDbScale
 70
     0
300
4:1
140
4.0
141
1.0
290
     0
  0
SCALE
  5
56
102
{ACAD_REACTORS
330
47
102
}
330
47
100
AcDbScale
 70
     0
300
8:1
140
8.0
141
1.0
290
     0
  0
SCALE
  5
57
102
{ACAD_REACTORS
330
47
102
}
330
47
100
AcDbScale
 70
     0
300
10:1
140
10.0
141
1.0
290
     0
  0
SCALE
  5
58
102
{ACAD_REACTORS
330
47
102
}
330
47
100
AcDbScale
 70
     0
300
100:1
140
100.0
141
1.0
290
     0
  0
ENDSEC
  0
EOF
