  0
SECTION
  2
HEADER
  9
$ACADVER
  1
AC1015
  9
$ACADMAINTVER
 70
     6
  9
$DWGCODEPAGE
  3
ANSI_1252
  9
$INSBASE
 10
0.0
 20
0.0
 30
0.0
  9
$EXTMIN
 10
-76.3497525299
 20
-162.9877253557
 30
0.0
  9
$EXTMAX
 10
76.349752604
 20
105.1752130767
 30
0.0
  9
$LIMMIN
 10
0.0
 20
0.0
  9
$LIMMAX
 10
420.0
 20
297.0
  9
$ORTHOMODE
 70
     0
  9
$REGENMODE
 70
     1
  9
$FILLMODE
 70
     1
  9
$QTEXTMODE
 70
     0
  9
$MIRRTEXT
 70
     1
  9
$LTSCALE
 40
1.0
  9
$ATTMODE
 70
     1
  9
$TEXTSIZE
 40
3.5
  9
$TRACEWID
 40
1.0
  9
$TEXTSTYLE
  7
Standard
  9
$CLAYER
  8
0
  9
$CELTYPE
  6
ByLayer
  9
$CECOLOR
 62
   256
  9
$CELTSCALE
 40
1.0
  9
$DISPSILH
 70
     0
  9
$DIMSCALE
 40
1.0
  9
$DIMASZ
 40
3.302
  9
$DIMEXO
 40
0.0
  9
$DIMDLI
 40
3.75
  9
$DIMRND
 40
0.0
  9
$DIMDLE
 40
0.0
  9
$DIMEXE
 40
1.0
  9
$DIMTP
 40
0.0
  9
$DIMTM
 40
0.0
  9
$DIMTXT
 40
3.5
  9
$DIMCEN
 40
2.5
  9
$DIMTSZ
 40
0.0
  9
$DIMTOL
 70
     0
  9
$DIMLIM
 70
     0
  9
$DIMTIH
 70
     1
  9
$DIMTOH
 70
     1
  9
$DIMSE1
 70
     0
  9
$DIMSE2
 70
     0
  9
$DIMTAD
 70
     1
  9
$DIMZIN
 70
     1
  9
$DIMBLK
  1

  9
$DIMASO
 70
     1
  9
$DIMSHO
 70
     1
  9
$DIMPOST
  1

  9
$DIMAPOST
  1

  9
$DIMALT
 70
     0
  9
$DIMALTD
 70
     3
  9
$DIMALTF
 40
0.0393700787
  9
$DIMLFAC
 40
1.0
  9
$DIMTOFL
 70
     1
  9
$DIMTVP
 40
0.0
  9
$DIMTIX
 70
     0
  9
$DIMSOXD
 70
     0
  9
$DIMSAH
 70
     0
  9
$DIMBLK1
  1

  9
$DIMBLK2
  1

  9
$DIMSTYLE
  2
ISO-25
  9
$DIMCLRD
 70
     0
  9
$DIMCLRE
 70
     0
  9
$DIMCLRT
 70
     0
  9
$DIMTFAC
 40
1.0
  9
$DIMGAP
 40
1.524
  9
$DIMJUST
 70
     0
  9
$DIMSD1
 70
     0
  9
$DIMSD2
 70
     0
  9
$DIMTOLJ
 70
     0
  9
$DIMTZIN
 70
     1
  9
$DIMALTZ
 70
     0
  9
$DIMALTTZ
 70
     0
  9
$DIMUPT
 70
     0
  9
$DIMDEC
 70
     2
  9
$DIMTDEC
 70
     2
  9
$DIMALTU
 70
     2
  9
$DIMALTTD
 70
     3
  9
$DIMTXSTY
  7
Standard
  9
$DIMAUNIT
 70
     0
  9
$DIMADEC
 70
     2
  9
$DIMALTRND
 40
0.0
  9
$DIMAZIN
 70
     0
  9
$DIMDSEP
 70
    44
  9
$DIMATFIT
 70
     3
  9
$DIMFRAC
 70
     0
  9
$DIMLDRBLK
  1

  9
$DIMLUNIT
 70
     2
  9
$DIMLWD
 70
    -2
  9
$DIMLWE
 70
    -2
  9
$DIMTMOVE
 70
     0
  9
$LUNITS
 70
     2
  9
$LUPREC
 70
     2
  9
$SKETCHINC
 40
1.0
  9
$FILLETRAD
 40
0.0
  9
$AUNITS
 70
     0
  9
$AUPREC
 70
     2
  9
$MENU
  1
.
  9
$ELEVATION
 40
0.0
  9
$PELEVATION
 40
0.0
  9
$THICKNESS
 40
0.0
  9
$LIMCHECK
 70
     0
  9
$CHAMFERA
 40
0.0
  9
$CHAMFERB
 40
0.0
  9
$CHAMFERC
 40
0.0
  9
$CHAMFERD
 40
0.0
  9
$SKPOLY
 70
     0
  9
$TDCREATE
 40
2460099.011626296
  9
$TDUCREATE
 40
2460099.21995963
  9
$TDUPDATE
 40
2460099.011664734
  9
$TDUUPDATE
 40
2460099.219998067
  9
$TDINDWG
 40
0.0000000116
  9
$TDUSRTIMER
 40
0.0000000116
  9
$USRTIMER
 70
     1
  9
$ANGBASE
 50
0.0
  9
$ANGDIR
 70
     0
  9
$PDMODE
 70
     0
  9
$PDSIZE
 40
-1.0
  9
$PLINEWID
 40
0.0
  9
$SPLFRAME
 70
     0
  9
$SPLINETYPE
 70
     6
  9
$SPLINESEGS
 70
     8
  9
$HANDSEED
  5
157
  9
$SURFTAB1
 70
     6
  9
$SURFTAB2
 70
     6
  9
$SURFTYPE
 70
     6
  9
$SURFU
 70
     6
  9
$SURFV
 70
     6
  9
$UCSBASE
  2

  9
$UCSNAME
  2

  9
$UCSORG
 10
0.0
 20
0.0
 30
0.0
  9
$UCSXDIR
 10
1.0
 20
0.0
 30
0.0
  9
$UCSYDIR
 10
0.0
 20
1.0
 30
0.0
  9
$UCSORTHOREF
  2

  9
$UCSORTHOVIEW
 70
     0
  9
$UCSORGTOP
 10
0.0
 20
0.0
 30
0.0
  9
$UCSORGBOTTOM
 10
0.0
 20
0.0
 30
0.0
  9
$UCSORGLEFT
 10
0.0
 20
0.0
 30
0.0
  9
$UCSORGRIGHT
 10
0.0
 20
0.0
 30
0.0
  9
$UCSORGFRONT
 10
0.0
 20
0.0
 30
0.0
  9
$UCSORGBACK
 10
0.0
 20
0.0
 30
0.0
  9
$PUCSBASE
  2

  9
$PUCSNAME
  2

  9
$PUCSORG
 10
0.0
 20
0.0
 30
0.0
  9
$PUCSXDIR
 10
1.0
 20
0.0
 30
0.0
  9
$PUCSYDIR
 10
0.0
 20
1.0
 30
0.0
  9
$PUCSORTHOREF
  2

  9
$PUCSORTHOVIEW
 70
     0
  9
$PUCSORGTOP
 10
0.0
 20
0.0
 30
0.0
  9
$PUCSORGBOTTOM
 10
0.0
 20
0.0
 30
0.0
  9
$PUCSORGLEFT
 10
0.0
 20
0.0
 30
0.0
  9
$PUCSORGRIGHT
 10
0.0
 20
0.0
 30
0.0
  9
$PUCSORGFRONT
 10
0.0
 20
0.0
 30
0.0
  9
$PUCSORGBACK
 10
0.0
 20
0.0
 30
0.0
  9
$USERI1
 70
     0
  9
$USERI2
 70
     0
  9
$USERI3
 70
     0
  9
$USERI4
 70
     0
  9
$USERI5
 70
     0
  9
$USERR1
 40
0.0
  9
$USERR2
 40
0.0
  9
$USERR3
 40
0.0
  9
$USERR4
 40
0.0
  9
$USERR5
 40
0.0
  9
$WORLDVIEW
 70
     1
  9
$SHADEDGE
 70
     3
  9
$SHADEDIF
 70
    70
  9
$TILEMODE
 70
     1
  9
$MAXACTVP
 70
    64
  9
$PINSBASE
 10
0.0
 20
0.0
 30
0.0
  9
$PLIMCHECK
 70
     0
  9
$PEXTMIN
 10
1.0000000000E+20
 20
1.0000000000E+20
 30
1.0000000000E+20
  9
$PEXTMAX
 10
-1.0000000000E+20
 20
-1.0000000000E+20
 30
-1.0000000000E+20
  9
$PLIMMIN
 10
0.0
 20
0.0
  9
$PLIMMAX
 10
420.0
 20
297.0
  9
$UNITMODE
 70
     0
  9
$VISRETAIN
 70
     1
  9
$PLINEGEN
 70
     0
  9
$PSLTSCALE
 70
     1
  9
$TREEDEPTH
 70
  3020
  9
$CMLSTYLE
  2
Standard
  9
$CMLJUST
 70
     0
  9
$CMLSCALE
 40
20.0
  9
$PROXYGRAPHICS
 70
     1
  9
$MEASUREMENT
 70
     1
  9
$CELWEIGHT
370
    -1
  9
$ENDCAPS
280
     0
  9
$JOINSTYLE
280
     0
  9
$LWDISPLAY
290
     1
  9
$INSUNITS
 70
     4
  9
$HYPERLINKBASE
  1

  9
$STYLESHEET
  1

  9
$XEDIT
290
     1
  9
$CEPSNTYPE
380
     0
  9
$PSTYLEMODE
290
     1
  9
$FINGERPRINTGUID
  2
{a16309f3-957e-4730-b9d6-a86c15ee6b86}
  9
$VERSIONGUID
  2
{FAEB1C32-E019-11D5-929B-00C0DF256EC4}
  9
$EXTNAMES
290
     1
  9
$PSVPSCALE
 40
0.0
  9
$OLESTARTUP
290
     0
  0
ENDSEC
  0
SECTION
  2
CLASSES
  0
CLASS
  1
ACDBDICTIONARYWDFLT
  2
AcDbDictionaryWithDefault
  3
ObjectDBX Classes
 90
        0
280
     0
281
     0
  0
CLASS
  1
VISUALSTYLE
  2
AcDbVisualStyle
  3
ObjectDBX Classes
 90
     4095
280
     0
281
     0
  0
CLASS
  1
MATERIAL
  2
AcDbMaterial
  3
ObjectDBX Classes
 90
     1153
280
     0
281
     0
  0
CLASS
  1
SCALE
  2
AcDbScale
  3
ObjectDBX Classes
 90
     1153
280
     0
281
     0
  0
CLASS
  1
TABLESTYLE
  2
AcDbTableStyle
  3
ObjectDBX Classes
 90
     4095
280
     0
281
     0
  0
CLASS
  1
MLEADERSTYLE
  2
AcDbMLeaderStyle
  3
ACDB_MLEADERSTYLE_CLASS
 90
     4095
280
     0
281
     0
  0
CLASS
  1
SUN
  2
AcDbSun
  3
SCENEOE
 90
     1153
280
     0
281
     0
  0
CLASS
  1
ACDBPLACEHOLDER
  2
AcDbPlaceHolder
  3
ObjectDBX Classes
 90
        0
280
     0
281
     0
  0
CLASS
  1
LAYOUT
  2
AcDbLayout
  3
ObjectDBX Classes
 90
        0
280
     0
281
     0
  0
ENDSEC
  0
SECTION
  2
TABLES
  0
TABLE
  2
VPORT
  5
8
330
0
100
AcDbSymbolTable
 70
     1
  0
VPORT
  5
29
330
8
100
AcDbSymbolTableRecord
100
AcDbViewportTableRecord
  2
*Active
 70
     0
 10
0.0
 20
0.0
 11
1.0
 21
1.0
 12
0.0000000371
 22
-28.9062561395
 13
0.0
 23
0.0
 14
10.0
 24
10.0
 15
10.0
 25
10.0
 16
0.0
 26
0.0
 36
1.0
 17
0.0
 27
0.0
 37
0.0
 40
273.5261972011
 41
0.5694280724
 42
50.0
 43
0.0
 44
0.0
 50
0.0
 51
0.0
 71
     0
 72
   100
 73
     1
 74
     3
 75
     0
 76
     0
 77
     0
 78
     0
281
     0
 65
     1
110
0.0
120
0.0
130
0.0
111
1.0
121
0.0
131
0.0
112
0.0
122
1.0
132
0.0
 79
     0
146
0.0
  0
ENDTAB
  0
TABLE
  2
LTYPE
  5
5
330
0
100
AcDbSymbolTable
 70
     6
  0
LTYPE
  5
14
330
5
100
AcDbSymbolTableRecord
100
AcDbLinetypeTableRecord
  2
ByBlock
 70
     0
  3

 72
    65
 73
     0
 40
0.0
  0
LTYPE
  5
15
330
5
100
AcDbSymbolTableRecord
100
AcDbLinetypeTableRecord
  2
ByLayer
 70
     0
  3

 72
    65
 73
     0
 40
0.0
  0
LTYPE
  5
16
330
5
100
AcDbSymbolTableRecord
100
AcDbLinetypeTableRecord
  2
Continuous
 70
     0
  3
Solid line
 72
    65
 73
     0
 40
0.0
  0
LTYPE
  5
5E
330
5
100
AcDbSymbolTableRecord
100
AcDbLinetypeTableRecord
  2
HIDDEN
 70
     0
  3
Hidden __ __ __ __ __ __ __ __ __ __ __ __ __ __
 72
    65
 73
     2
 40
1.905
 49
1.27
 74
     0
 49
-0.635
 74
     0
  0
LTYPE
  5
5F
330
5
100
AcDbSymbolTableRecord
100
AcDbLinetypeTableRecord
  2
PHANTOM
 70
     0
  3
Phantom ______  __  __  ______  __  __  ______
 72
    65
 73
     6
 40
12.7
 49
6.35
 74
     0
 49
-1.27
 74
     0
 49
1.27
 74
     0
 49
-1.27
 74
     0
 49
1.27
 74
     0
 49
-1.27
 74
     0
  0
LTYPE
  5
60
330
5
100
AcDbSymbolTableRecord
100
AcDbLinetypeTableRecord
  2
CENTER
 70
     0
  3
Center ____ _ ____ _ ____ _ ____ _ ____ _ ____
 72
    65
 73
     4
 40
10.16
 49
6.35
 74
     0
 49
-1.27
 74
     0
 49
1.27
 74
     0
 49
-1.27
 74
     0
  0
LTYPE
  5
61
330
5
100
AcDbSymbolTableRecord
100
AcDbLinetypeTableRecord
  2
CENTERX2
 70
     0
  3
Center (2x) ________  __  ________  __  _____
 72
    65
 73
     4
 40
20.32
 49
12.7
 74
     0
 49
-2.54
 74
     0
 49
2.54
 74
     0
 49
-2.54
 74
     0
  0
LTYPE
  5
62
330
5
100
AcDbSymbolTableRecord
100
AcDbLinetypeTableRecord
  2
DOT2
 70
     0
  3
Dot (.5x) ........................................
 72
    65
 73
     2
 40
0.635
 49
0.0
 74
     0
 49
-0.635
 74
     0
  0
ENDTAB
  0
TABLE
  2
LAYER
  5
2
330
0
100
AcDbSymbolTable
 70
     1
  0
LAYER
  5
10
330
2
100
AcDbSymbolTableRecord
100
AcDbLayerTableRecord
  2
0
 70
     0
 62
     7
  6
Continuous
370
    -3
390
F
  0
ENDTAB
  0
TABLE
  2
STYLE
  5
3
330
0
100
AcDbSymbolTable
 70
     2
  0
STYLE
  5
11
330
3
100
AcDbSymbolTableRecord
100
AcDbTextStyleTableRecord
  2
Standard
 70
     0
 40
0.0
 41
1.0
 50
0.0
 71
     0
 42
3.5
  3
txt
  4

  0
STYLE
  5
153
330
3
100
AcDbSymbolTableRecord
100
AcDbTextStyleTableRecord
  2
SLDTEXTSTYLE0
 70
     0
 40
0.0
 41
0.7
 50
0.0
 71
     0
 42
3.5
  3
TXT
  4

  0
ENDTAB
  0
TABLE
  2
VIEW
  5
6
330
0
100
AcDbSymbolTable
 70
     0
  0
ENDTAB
  0
TABLE
  2
UCS
  5
7
330
0
100
AcDbSymbolTable
 70
     0
  0
ENDTAB
  0
TABLE
  2
APPID
  5
9
330
0
100
AcDbSymbolTable
 70
     1
  0
APPID
  5
12
330
9
100
AcDbSymbolTableRecord
100
AcDbRegAppTableRecord
  2
ACAD
 70
     0
  0
ENDTAB
  0
TABLE
  2
DIMSTYLE
  5
A
330
0
100
AcDbSymbolTable
 70
     1
100
AcDbDimStyleTable
  0
DIMSTYLE
105
27
330
A
100
AcDbSymbolTableRecord
100
AcDbDimStyleTableRecord
  2
ISO-25
 70
     0
 41
2.5
 42
0.625
 43
3.75
 44
1.25
 73
     0
 74
     0
 77
     1
 78
     8
140
2.5
141
2.5
143
0.0393700787
147
0.625
171
     3
172
     1
178
     0
271
     2
272
     2
274
     3
278
    44
283
     0
284
     8
340
11
  0
ENDTAB
  0
TABLE
  2
BLOCK_RECORD
  5
1
330
0
100
AcDbSymbolTable
 70
     1
  0
BLOCK_RECORD
  5
1F
330
1
100
AcDbSymbolTableRecord
100
AcDbBlockTableRecord
  2
*Model_Space
340
22
  0
BLOCK_RECORD
  5
1B
330
1
100
AcDbSymbolTableRecord
100
AcDbBlockTableRecord
  2
*Paper_Space
340
1E
  0
BLOCK_RECORD
  5
23
330
1
100
AcDbSymbolTableRecord
100
AcDbBlockTableRecord
  2
*Paper_Space0
340
26
  0
ENDTAB
  0
ENDSEC
  0
SECTION
  2
BLOCKS
  0
BLOCK
  5
20
330
1F
100
AcDbEntity
  8
0
100
AcDbBlockBegin
  2
*Model_Space
 70
     0
 10
0.0
 20
0.0
 30
0.0
  3
*Model_Space
  1

  0
ENDBLK
  5
21
330
1F
100
AcDbEntity
  8
0
100
AcDbBlockEnd
  0
BLOCK
  5
1C
330
1B
100
AcDbEntity
 67
     1
  8
0
100
AcDbBlockBegin
  2
*Paper_Space
 70
     0
 10
0.0
 20
0.0
 30
0.0
  3
*Paper_Space
  1

  0
ENDBLK
  5
1D
330
1B
100
AcDbEntity
 67
     1
  8
0
100
AcDbBlockEnd
  0
BLOCK
  5
24
330
23
100
AcDbEntity
  8
0
100
AcDbBlockBegin
  2
*Paper_Space0
 70
     0
 10
0.0
 20
0.0
 30
0.0
  3
*Paper_Space0
  1

  0
ENDBLK
  5
25
330
23
100
AcDbEntity
  8
0
100
AcDbBlockEnd
  0
ENDSEC
  0
SECTION
  2
ENTITIES
  0
LWPOLYLINE
  5
65
330
1F
100
AcDbEntity
  8
0
  6
Continuous
 62
     7
370
    25
100
AcDbPolyline
 90
        3
 70
   128
 43
0.0
 10
-14.1064147502
 20
-57.8297381931
 10
-14.3972103421
 20
-64.5034015597
 10
-15.1724683401
 20
-82.3165159523
  0
SPLINE
  5
66
330
1F
100
AcDbEntity
  8
0
  6
Continuous
 62
     7
370
    25
100
AcDbSpline
210
0.0
220
0.0
230
1.0
 70
    24
 71
     3
 72
    13
 73
     9
 74
     0
 42
0.00000001
 43
0.00000001
 40
0.6628875855581734
 40
0.6628875855581734
 40
0.6628875855581734
 40
0.6628875855581734
 40
0.6875
 40
0.71875
 40
0.75
 40
0.78125
 40
0.8125
 40
0.8584076114059469
 40
0.8584076114059469
 40
0.8584076114059469
 40
0.8584076114059469
 10
-13.29360078502146
 20
-57.82973819307814
 30
0.0
 10
-13.35129658039944
 20
-57.82973819307814
 30
0.0
 10
-13.45228918059724
 20
-57.82973819307813
 30
0.0
 10
-13.54675815543526
 20
-57.82973819307813
 30
0.0
 10
-13.62002893400751
 20
-57.82973819307813
 30
0.0
 10
-13.72472769432686
 20
-57.82973819307813
 30
0.0
 10
-13.9130808593505
 20
-57.82973819307813
 30
0.0
 10
-14.03973335806114
 20
-57.82973819307813
 30
0.0
 10
-14.10641976303201
 20
-57.82973819307813
 30
0.0
  0
SPLINE
  5
67
330
1F
100
AcDbEntity
  8
0
  6
Continuous
 62
     7
370
    25
100
AcDbSpline
210
0.0
220
0.0
230
1.0
 70
     8
 71
     3
 72
    64
 73
    60
 74
     0
 42
0.00000001
 43
0.00000001
 40
0.0
 40
0.0
 40
0.0
 40
0.0
 40
0.03125
 40
0.03125
 40
0.0625
 40
0.0625
 40
0.1249999999999999
 40
0.1249999999999999
 40
0.1874999999999999
 40
0.1874999999999999
 40
0.2499999999999999
 40
0.2499999999999999
 40
0.2812499999999999
 40
0.2812499999999999
 40
0.3124999999999999
 40
0.3124999999999999
 40
0.3437499999999998
 40
0.3437499999999998
 40
0.3749999999999998
 40
0.3749999999999998
 40
0.3906250000000001
 40
0.3906250000000001
 40
0.4062500000000003
 40
0.4062500000000003
 40
0.4375000000000007
 40
0.4375000000000007
 40
0.4687500000000011
 40
0.4687500000000011
 40
0.5000000000000016
 40
0.5000000000000016
 40
0.531250000000002
 40
0.531250000000002
 40
0.5468750000000022
 40
0.5468750000000022
 40
0.5625000000000024
 40
0.5625000000000024
 40
0.5937500000000027
 40
0.5937500000000027
 40
0.6093750000000028
 40
0.6093750000000028
 40
0.6250000000000028
 40
0.6250000000000028
 40
0.6562500000000027
 40
0.6562500000000027
 40
0.6875000000000026
 40
0.6875000000000026
 40
0.7500000000000017
 40
0.7500000000000017
 40
0.7812500000000012
 40
0.7812500000000012
 40
0.8125000000000008
 40
0.8125000000000008
 40
0.8750000000000006
 40
0.8750000000000006
 40
0.9375000000000004
 40
0.9375000000000004
 40
0.9687500000000002
 40
0.9687500000000002
 40
1.0
 40
1.0
 40
1.0
 40
1.0
 10
-13.29344713783038
 20
-57.82973819120707
 30
0.0
 10
-13.21668661316067
 20
-58.33929013271059
 30
0.0
 10
-13.13117651927195
 20
-58.84730692391749
 30
0.0
 10
-12.95177525789727
 20
-59.86187001574217
 30
0.0
 10
-12.85679615222126
 20
-60.36822543119423
 30
0.0
 10
-12.5533839958482
 20
-61.88405018990415
 30
0.0
 10
-12.32681910813421
 20
-62.88956601814799
 30
0.0
 10
-11.81442610825662
 20
-64.87894447784633
 30
0.0
 10
-11.52919510033582
 20
-65.86414686445124
 30
0.0
 10
-10.86828994445698
 20
-67.80499990933204
 30
0.0
 10
-10.49371360652523
 20
-68.76100927014348
 30
0.0
 10
-9.81553467974147
 20
-70.15701830472537
 30
0.0
 10
-9.568255719742476
 20
-70.61838884300822
 30
0.0
 10
-9.027375544426606
 20
-71.50990794781242
 30
0.0
 10
-8.734959801248637
 20
-71.93929830714794
 30
0.0
 10
-8.092159142788839
 20
-72.75489903652526
 30
0.0
 10
-7.740879010429636
 20
-73.14044257862368
 30
0.0
 10
-6.963124003044091
 20
-73.8555187165628
 30
0.0
 10
-6.546698917552161
 20
-74.17407529122524
 30
0.0
 10
-5.878775111501345
 20
-74.58526654469368
 30
0.0
 10
-5.648831485730878
 20
-74.71137827264901
 30
0.0
 10
-5.174482142208583
 20
-74.94191158590748
 30
0.0
 10
-4.929017666307637
 20
-75.04684574895583
 30
0.0
 10
-4.1852978995204
 20
-75.32530927898043
 30
0.0
 10
-3.676841413417034
 20
-75.46368970739225
 30
0.0
 10
-2.640385954161338
 20
-75.66739883296817
 30
0.0
 10
-2.110637142542976
 20
-75.73361413234657
 30
0.0
 10
-1.056506965998476
 20
-75.81458881419515
 30
0.0
 10
-0.529787987254529
 20
-75.82967593223782
 30
0.0
 10
0.523240500390197
 20
-75.82980007022027
 30
0.0
 10
1.049550347703823
 20
-75.81486192554026
 30
0.0
 10
1.838499928735763
 20
-75.75464604336048
 30
0.0
 10
2.101396808688158
 20
-75.72823970674514
 30
0.0
 10
2.626980027636534
 20
-75.65997589224042
 30
0.0
 10
2.890501079159779
 20
-75.61803872278
 30
0.0
 10
3.670776976398497
 20
-75.46527181853939
 30
0.0
 10
4.178870893935779
 20
-75.32706328550613
 30
0.0
 10
4.918220984770102
 20
-75.0512011414059
 30
0.0
 10
5.160929825974428
 20
-74.9479944729147
 30
0.0
 10
5.638183280050532
 20
-74.71702504936599
 30
0.0
 10
5.871997910391878
 20
-74.58918130756031
 30
0.0
 10
6.54402014093914
 20
-74.17621773954515
 30
0.0
 10
6.958311325395758
 20
-73.8590168698276
 30
0.0
 10
7.728797551964908
 20
-73.15244754447383
 30
0.0
 10
8.087261499989998
 20
-72.76070257840792
 30
0.0
 10
9.056380894125343
 20
-71.53227510269596
 30
0.0
 10
9.581239311201763
 20
-70.63802998133062
 30
0.0
 10
10.26502947344656
 20
-69.23237746631128
 30
0.0
 10
10.47377819305309
 20
-68.75516173382876
 30
0.0
 10
10.85912775498395
 20
-67.7955233161261
 30
0.0
 10
11.03643906931236
 20
-67.31170511216641
 30
0.0
 10
11.53328813657117
 20
-65.85111817034395
 30
0.0
 10
11.81819778370756
 20
-64.8653359963243
 30
0.0
 10
12.32939817752735
 20
-62.87851358825823
 30
0.0
 10
12.55480924981933
 20
-61.87724438156712
 30
0.0
 10
12.85720272588252
 20
-60.36604210816959
 30
0.0
 10
12.95197919332584
 20
-59.86074070274528
 30
0.0
 10
13.13115063938215
 20
-58.8474356682364
 30
0.0
 10
13.21662321381964
 20
-58.33971252926084
 30
0.0
 10
13.29344706720391
 20
-57.82973819307814
 30
0.0
  0
SPLINE
  5
68
330
1F
100
AcDbEntity
  8
0
  6
Continuous
 62
     7
370
    25
100
AcDbSpline
210
0.0
220
0.0
230
1.0
 70
    24
 71
     3
 72
    13
 73
     9
 74
     0
 42
0.00000001
 43
0.00000001
 40
0.1415922359551031
 40
0.1415922359551031
 40
0.1415922359551031
 40
0.1415922359551031
 40
0.1875
 40
0.21875
 40
0.25
 40
0.28125
 40
0.3125
 40
0.3371134179946516
 40
0.3371134179946516
 40
0.3371134179946516
 40
0.3371134179946516
 10
14.1064204282118
 20
-57.82973819307813
 30
0.0
 10
14.03973385916798
 20
-57.82973819307813
 30
0.0
 10
13.91308112455355
 20
-57.82973819307813
 30
0.0
 10
13.72472769432685
 20
-57.82973819307813
 30
0.0
 10
13.62002893400751
 20
-57.82973819307813
 30
0.0
 10
13.54675815543525
 20
-57.82973819307813
 30
0.0
 10
13.45228809229534
 20
-57.82973819307813
 30
0.0
 10
13.35129295177814
 20
-57.82973819307813
 30
0.0
 10
13.29359372744666
 20
-57.82973819307813
 30
0.0
  0
LWPOLYLINE
  5
6B
330
1F
100
AcDbEntity
  8
0
  6
Continuous
 62
     7
370
    25
100
AcDbPolyline
 90
        3
 70
   128
 43
0.0
 10
18.3716713115
 20
-156.0706204204
 10
18.2265027012
 20
-152.7173223661
 10
18.1313836746
 20
-150.5204207789
  0
SPLINE
  5
6C
330
1F
100
AcDbEntity
  8
0
  6
Continuous
 62
     7
370
    25
100
AcDbSpline
210
0.0
220
0.0
230
1.0
 70
     8
 71
     3
 72
    18
 73
    14
 74
     0
 42
0.00000001
 43
0.00000001
 40
0.0
 40
0.0
 40
0.0
 40
0.0
 40
0.0533507270650214
 40
0.1825347697234352
 40
0.2364742062152486
 40
0.2921545308189536
 40
0.3463325127604786
 40
0.4022887489995884
 40
0.4880632689528078
 40
0.576351803667099
 40
0.6959615306205436
 40
0.8185808012898147
 40
0.9999999999999999
 40
0.9999999999999999
 40
0.9999999999999999
 40
0.9999999999999999
 10
18.68784611032212
 20
-159.2420039566229
 30
0.0
 10
18.7020511707706
 20
-159.2348186752946
 30
0.0
 10
18.7506525222519
 20
-159.2102348740082
 30
0.0
 10
18.40942221469895
 20
-159.382997970266
 30
0.0
 10
17.83703028508597
 20
-159.66919524162
 30
0.0
 10
17.19162486270886
 20
-159.9875647832525
 30
0.0
 10
16.24491872529656
 20
-160.4373829112089
 30
0.0
 10
14.96153295900203
 20
-161.0030480544496
 30
0.0
 10
13.2927742749757
 20
-161.6410458767936
 30
0.0
 10
10.92416495339764
 20
-162.2528331702086
 30
0.0
 10
8.056777219380661
 20
-162.6265886138582
 30
0.0
 10
4.308538051834246
 20
-162.8124621561869
 30
0.0
 10
1.61013322552313
 20
-162.9222281737667
 30
0.0
 10
0.0000000000000017
 20
-162.9877253557369
 30
0.0
  0
SPLINE
  5
6D
330
1F
100
AcDbEntity
  8
0
  6
Continuous
 62
     7
370
    25
100
AcDbSpline
210
0.0
220
0.0
230
1.0
 70
     8
 71
     3
 72
    19
 73
    15
 74
     0
 42
0.00000001
 43
0.00000001
 40
0.0
 40
0.0
 40
0.0
 40
0.0
 40
0.1882153166339186
 40
0.3077133347120229
 40
0.426743201870835
 40
0.5078441607861368
 40
0.5889695652896985
 40
0.6388665945489641
 40
0.6886261080069994
 40
0.7304232819891298
 40
0.772278753333589
 40
0.8500015409598745
 40
0.9279517068562884
 40
0.9999999999999999
 40
0.9999999999999999
 40
0.9999999999999999
 40
0.9999999999999999
 10
0.0000000000000009
 20
-162.9877253557369
 30
0.0
 10
-1.671053749415539
 20
-162.9211979876765
 30
0.0
 10
-4.403060532454466
 20
-162.8124323534996
 30
0.0
 10
-8.177373260803362
 20
-162.6140209829553
 30
0.0
 10
-10.9486018580519
 20
-162.2476811371982
 30
0.0
 10
-13.21307574155617
 20
-161.6535760442219
 30
0.0
 10
-14.76768149130354
 20
-161.0814012240521
 30
0.0
 10
-15.97501748097414
 20
-160.5589045319237
 30
0.0
 10
-16.82724260975331
 20
-160.1622777962373
 30
0.0
 10
-17.46611825864982
 20
-159.8526653530887
 30
0.0
 10
-18.02518097485211
 20
-159.5754713027964
 30
0.0
 10
-18.43047747131213
 20
-159.3724526003785
 30
0.0
 10
-18.71350568264413
 20
-159.2288853574219
 30
0.0
 10
-18.6979217708647
 20
-159.2370036802382
 30
0.0
 10
-18.69043639900558
 20
-159.2409031289782
 30
0.0
  0
SPLINE
  5
6F
330
1F
100
AcDbEntity
  8
0
  6
Continuous
 62
     7
370
    25
100
AcDbSpline
210
0.0
220
0.0
230
1.0
 70
     8
 71
     3
 72
    15
 73
    11
 74
     0
 42
0.00000001
 43
0.00000001
 40
0.0
 40
0.0
 40
0.0
 40
0.0
 40
0.167280310890927
 40
0.2776528739114947
 40
0.3940851483606743
 40
0.5410179473771775
 40
0.6674498690337454
 40
0.7390903703029975
 40
0.8431676134356343
 40
0.981335835425652
 40
0.981335835425652
 40
0.981335835425652
 40
0.981335835425652
 10
-0.0000000000000007
 20
105.1752130766772
 30
0.0
 10
-14.21864501017586
 20
105.0086912909476
 30
0.0
 10
-39.48152225921833
 20
99.34717550885489
 30
0.0
 10
-62.55409340749818
 20
72.76360937353373
 30
0.0
 10
-75.69425727334918
 20
42.6529912568537
 30
0.0
 10
-77.34750854116304
 20
8.432134550618532
 30
0.0
 10
-73.54931511662355
 20
-21.56629367759602
 30
0.0
 10
-61.22151492770215
 20
-45.30109954038605
 30
0.0
 10
-38.84137748655793
 20
-61.93166109405031
 30
0.0
 10
-18.35608622579189
 20
-69.05278993213562
 30
0.0
 10
-15.17246834012834
 20
-82.31651595233838
 30
0.0
  0
SPLINE
  5
70
330
1F
100
AcDbEntity
  8
0
  6
Continuous
 62
     7
370
    25
100
AcDbSpline
210
0.0
220
0.0
230
1.0
 70
     8
 71
     3
 72
    15
 73
    11
 74
     0
 42
0.00000001
 43
0.00000001
 40
0.0
 40
0.0
 40
0.0
 40
0.0
 40
0.167280310890927
 40
0.2776528739114947
 40
0.3940851483606743
 40
0.5410179473771775
 40
0.6674498690337454
 40
0.7390903703029975
 40
0.8431676134356343
 40
0.9813358535631589
 40
0.9813358535631589
 40
0.9813358535631589
 40
0.9813358535631589
 10
-0.0000000000000007
 20
105.1752130766772
 30
0.0
 10
14.21864501017585
 20
105.0086912909475
 30
0.0
 10
39.48152225921834
 20
99.34717550885492
 30
0.0
 10
62.55409340749816
 20
72.76360937353373
 30
0.0
 10
75.69425727334918
 20
42.6529912568537
 30
0.0
 10
77.34750854116308
 20
8.432134550618565
 30
0.0
 10
73.54931511662357
 20
-21.566293677596
 30
0.0
 10
61.22151492770217
 20
-45.30109954038604
 30
0.0
 10
38.8413761933498
 20
-61.93166205502645
 30
0.0
 10
18.35608315822478
 20
-69.05279099848805
 30
0.0
 10
15.17246708637689
 20
-82.31652117577414
 30
0.0
  0
SPLINE
  5
71
330
1F
100
AcDbEntity
  8
0
  6
Continuous
 62
     7
370
    25
100
AcDbSpline
210
0.0
220
0.0
230
1.0
 70
     8
 71
     3
 72
     9
 73
     5
 74
     0
 42
0.00000001
 43
0.00000001
 40
0.5567772649377399
 40
0.5567772649377399
 40
0.5567772649377399
 40
0.5567772649377399
 40
0.6377850287156832
 40
0.647597433790064
 40
0.647597433790064
 40
0.647597433790064
 40
0.647597433790064
 10
-18.13138280849137
 20
-150.5204085590278
 30
0.0
 10
-18.24832001662242
 20
-152.1702345750415
 30
0.0
 10
-18.3399256785588
 20
-154.0201986732718
 30
0.0
 10
-18.37194980191948
 20
-155.8705307541028
 30
0.0
 10
-18.37167130596524
 20
-156.0706244177341
 30
0.0
  0
SPLINE
  5
72
330
1F
100
AcDbEntity
  8
0
  6
Continuous
 62
     7
370
    25
100
AcDbSpline
210
0.0
220
0.0
230
1.0
 70
     8
 71
     3
 72
     9
 73
     5
 74
     0
 42
0.00000001
 43
0.00000001
 40
0.5567774649401854
 40
0.5567774649401854
 40
0.5567774649401854
 40
0.5567774649401854
 40
0.6377850287156832
 40
0.6475973684475708
 40
0.6475973684475708
 40
0.6475973684475708
 40
0.6475973684475708
 10
18.13138367461992
 20
-150.5204207789394
 30
0.0
 10
18.24832042008669
 20
-152.1702427229529
 30
0.0
 10
18.33992568317424
 20
-154.020201417042
 30
0.0
 10
18.37194975583864
 20
-155.8705280915816
 30
0.0
 10
18.37167131152846
 20
-156.0706204203597
 30
0.0
  0
SPLINE
  5
73
330
1F
100
AcDbEntity
  8
0
  6
Continuous
 62
     7
370
    25
100
AcDbSpline
210
0.0
220
0.0
230
1.0
 70
     8
 71
     3
 72
    19
 73
    15
 74
     0
 42
0.00000001
 43
0.00000001
 40
0.4864927496407396
 40
0.4864927496407396
 40
0.4864927496407396
 40
0.4864927496407396
 40
0.4922905297543439
 40
0.5430568349039663
 40
0.5938231400535887
 40
0.6445894452032112
 40
0.6953557503528336
 40
0.746122055502456
 40
0.7968883606520785
 40
0.8476546658017009
 40
0.8984209709513233
 40
0.9491872761009457
 40
0.9745704286757568
 40
0.9999535812505681
 40
0.9999535812505681
 40
0.9999535812505681
 40
0.9999535812505681
 10
75.42322101982523
 20
13.91563157332192
 30
0.0
 10
75.4257443764393
 20
14.41931193516031
 30
0.0
 10
75.42879708007385
 20
19.33183292245558
 30
0.0
 10
75.03351492284347
 20
28.61439052583021
 30
0.0
 10
73.07312215425857
 20
41.53816317545348
 30
0.0
 10
69.37183067615753
 20
54.0639102196668
 30
0.0
 10
63.92402604717928
 20
66.01476122653885
 30
0.0
 10
56.86103794329201
 20
77.23241314560872
 30
0.0
 10
48.22226757975784
 20
87.22613385213215
 30
0.0
 10
37.88674827379268
 20
95.07893341363119
 30
0.0
 10
25.88225697599927
 20
100.3709282176728
 30
0.0
 10
15.14442559690351
 20
102.9228075361569
 30
0.0
 10
6.440273839673046
 20
103.9514963640946
 30
0.0
 10
2.154495583294781
 20
104.1496395080975
 30
0.0
 10
-0.0000000000002993
 20
104.1751437604719
 30
0.0
  0
SPLINE
  5
76
330
1F
100
AcDbEntity
  8
0
  6
Continuous
 62
     7
370
    25
100
AcDbSpline
210
0.0
220
0.0
230
1.0
 70
     8
 71
     3
 72
    10
 73
     6
 74
     0
 42
0.00000001
 43
0.00000001
 40
0.1876926988566094
 40
0.1876926988566094
 40
0.1876926988566094
 40
0.1876926988566094
 40
0.2130758514314207
 40
0.2384590040062319
 40
0.258252849759021
 40
0.258252849759021
 40
0.258252849759021
 40
0.258252849759021
 10
47.05547439804729
 20
-53.98490178644131
 30
0.0
 10
48.86395000927378
 20
-52.75570012490682
 30
0.0
 10
52.39540619021627
 20
-50.13533055197851
 30
0.0
 10
56.84708999641816
 20
-46.0854433548654
 30
0.0
 10
59.39432676517497
 20
-43.22708685941441
 30
0.0
 10
60.4456940784603
 20
-41.91998015541932
 30
0.0
  0
SPLINE
  5
78
330
1F
100
AcDbEntity
  8
0
  6
Continuous
 62
     7
370
    25
100
AcDbSpline
210
0.0
220
0.0
230
1.0
 70
     8
 71
     3
 72
    17
 73
    13
 74
     0
 42
0.00000001
 43
0.00000001
 40
0.4566351935335638
 40
0.4566351935335638
 40
0.4566351935335638
 40
0.4566351935335638
 40
0.4569431650960352
 40
0.5077094702456575
 40
0.5584757753952798
 40
0.6092420805449021
 40
0.6600083856945245
 40
0.7107746908441468
 40
0.736157843418958
 40
0.7615409959937691
 40
0.7869241485685803
 40
0.8123073011433914
 40
0.8123073011433914
 40
0.8123073011433914
 40
0.8123073011433914
 10
-74.79259183504615
 20
28.65221863079619
 30
0.0
 10
-74.79515822907504
 20
28.62583717346726
 30
0.0
 10
-75.21934559832933
 20
24.25045980414534
 30
0.0
 10
-75.5944095921995
 20
15.44269283473165
 30
0.0
 10
-75.13374371043263
 20
2.171776207955098
 30
0.0
 10
-73.69268210617115
 20
-10.93505656381058
 30
0.0
 10
-70.60906384592575
 20
-23.60427199855485
 30
0.0
 10
-66.19551904089522
 20
-33.65915956387036
 30
0.0
 10
-61.43010550384363
 20
-40.89130914793702
 30
0.0
 10
-57.19972284015861
 20
-45.76463817163191
 30
0.0
 10
-52.3954061902161
 20
-50.13533055197868
 30
0.0
 10
-48.86395000927355
 20
-52.75570012490697
 30
0.0
 10
-47.05547439804706
 20
-53.98490178644145
 30
0.0
  0
SPLINE
  5
80
330
1F
100
AcDbEntity
  8
0
  6
Continuous
 62
     7
370
    25
100
AcDbSpline
210
0.0
220
0.0
230
1.0
 70
     8
 71
     3
 72
    16
 73
    12
 74
     0
 42
0.00000001
 43
0.00000001
 40
0.0000464187494343
 40
0.0000464187494343
 40
0.0000464187494343
 40
0.0000464187494343
 40
0.0254295713242455
 40
0.0508127238990566
 40
0.1015790290486789
 40
0.1523453341983013
 40
0.2031116393479236
 40
0.2538779444975459
 40
0.3046442496471682
 40
0.3554105547967906
 40
0.3570635185913032
 40
0.3570635185913032
 40
0.3570635185913032
 40
0.3570635185913032
 10
-0.0000000000003053
 20
104.1751437604719
 30
0.0
 10
-2.154495583295379
 20
104.1496395080975
 30
0.0
 10
-6.440273839673639
 20
103.9514963640946
 30
0.0
 10
-15.1444255969041
 20
102.9228075361568
 30
0.0
 10
-25.88225697599983
 20
100.3709282176726
 30
0.0
 10
-37.88674827379314
 20
95.0789334136309
 30
0.0
 10
-48.22226757975825
 20
87.22613385213172
 30
0.0
 10
-56.8610379432923
 20
77.2324131456083
 30
0.0
 10
-63.92402604717949
 20
66.01476122653838
 30
0.0
 10
-67.6150231008025
 20
57.91781964019424
 30
0.0
 10
-69.1797355154524
 20
53.70233788163224
 30
0.0
 10
-69.22876782969855
 20
53.56930836140011
 30
0.0
  0
SPLINE
  5
9D
330
1F
100
AcDbEntity
  8
0
  6
Continuous
 62
     7
370
    25
100
AcDbSpline
210
0.0
220
0.0
230
1.0
 70
     8
 71
     3
 72
    16
 73
    12
 74
     0
 42
0.00000001
 43
0.00000001
 40
0.0
 40
0.0
 40
0.0
 40
0.0
 40
0.2448814714863299
 40
0.4234719972435521
 40
0.5234619914000604
 40
0.6818205813268258
 40
0.7494475795538003
 40
0.8065131722097715
 40
0.8735187713425899
 40
0.9362589674428548
 40
1.0
 40
1.0
 40
1.0
 40
1.0
 10
-13.29592355099877
 20
62.10630206324375
 30
0.0
 10
-13.12236070987097
 20
63.29567418852704
 30
0.0
 10
-14.63052964273077
 20
65.02265624189738
 30
0.0
 10
-17.31998900451324
 20
64.31340289770006
 30
0.0
 10
-17.8687506741087
 20
61.97396082705298
 30
0.0
 10
-17.03294702254755
 20
60.71617052476947
 30
0.0
 10
-15.92672512779948
 20
60.30229898883077
 30
0.0
 10
-15.67086573180464
 20
59.13449883389524
 30
0.0
 10
-16.29512198454579
 20
58.44672649792593
 30
0.0
 10
-17.07362985221463
 20
58.94035917864619
 30
0.0
 10
-17.08440522561944
 20
59.11408902366097
 30
0.0
 10
-17.22177093453043
 20
59.69789328653269
 30
0.0
  0
SPLINE
  5
9F
330
1F
100
AcDbEntity
  8
0
  6
Continuous
 62
     7
370
    25
100
AcDbSpline
210
0.0
220
0.0
230
1.0
 70
     8
 71
     3
 72
    16
 73
    12
 74
     0
 42
0.00000001
 43
0.00000001
 40
0.0
 40
0.0
 40
0.0
 40
0.0
 40
0.1818813519335132
 40
0.2735692169300664
 40
0.3653962654411188
 40
0.4776482585888387
 40
0.5709879311256475
 40
0.681726688492813
 40
0.7447019380738632
 40
0.8366354417087241
 40
1.0
 40
1.0
 40
1.0
 40
1.0
 10
-18.20960250585959
 20
59.40316262806497
 30
0.0
 10
-18.15138761479096
 20
58.63221872833437
 30
0.0
 10
-17.17653374960889
 20
57.43080923567687
 30
0.0
 10
-15.50078184472648
 20
57.7431903051866
 30
0.0
 10
-14.40614346385669
 20
58.61581928824818
 30
0.0
 10
-14.51542747652888
 20
60.14943488677365
 30
0.0
 10
-15.52873527661215
 20
61.11009592892311
 30
0.0
 10
-16.37564148416386
 20
61.95750769686874
 30
0.0
 10
-16.48752538736493
 20
63.25953219343981
 30
0.0
 10
-14.85182536656976
 20
64.05821825362656
 30
0.0
 10
-13.93209382695248
 20
62.72585121815465
 30
0.0
 10
-14.20010263711308
 20
62.00963044150427
 30
0.0
  0
SPLINE
  5
A1
330
1F
100
AcDbEntity
  8
0
  6
Continuous
 62
     7
370
    25
100
AcDbSpline
210
0.0
220
0.0
230
1.0
 70
    11
 71
     3
 72
    16
 73
    12
 74
     0
 42
0.00000001
 43
0.00000001
 40
0.0
 40
0.0
 40
0.0
 40
0.0
 40
0.0707525406412471
 40
0.156621218611301
 40
0.299704597660841
 40
0.3643717457391418
 40
0.4384599408226569
 40
0.5973643516191024
 40
0.7570592532687431
 40
0.899607622323525
 40
1.0
 40
1.0
 40
1.0
 40
1.0
 10
-27.94578149770644
 20
61.51101019583578
 30
0.0
 10
-27.4568055383065
 20
61.32178304826088
 30
0.0
 10
-26.29503566863537
 20
61.15889151801677
 30
0.0
 10
-24.08740252684835
 20
61.8892549913109
 30
0.0
 10
-23.03606505200435
 20
64.08731519425282
 30
0.0
 10
-23.05150406612744
 20
66.1652541822087
 30
0.0
 10
-24.06105122679194
 20
68.22807680789732
 30
0.0
 10
-27.49009078183171
 20
69.06229499199137
 30
0.0
 10
-30.27637667073632
 20
66.3540042820812
 30
0.0
 10
-30.1439387276368
 20
62.99267274927578
 30
0.0
 10
-28.6396005287389
 20
61.77950886872874
 30
0.0
 10
-27.94578149770644
 20
61.51101019583578
 30
0.0
  0
SPLINE
  5
A2
330
1F
100
AcDbEntity
  8
0
  6
Continuous
 62
     7
370
    25
100
AcDbSpline
210
0.0
220
0.0
230
1.0
 70
    11
 71
     3
 72
    14
 73
    10
 74
     0
 42
0.00000001
 43
0.00000001
 40
0.0
 40
0.0
 40
0.0
 40
0.0
 40
0.1168066077731731
 40
0.2382662929313839
 40
0.3517523361012346
 40
0.5018285787946144
 40
0.6434962073886934
 40
0.8457768242692295
 40
1.0
 40
1.0
 40
1.0
 40
1.0
 10
-47.75273654913548
 20
68.55477785116548
 30
0.0
 10
-46.95969370463857
 20
68.24375235451333
 30
0.0
 10
-45.02847283456487
 20
68.38557249212016
 30
0.0
 10
-43.21302790756928
 20
70.36185592855698
 30
0.0
 10
-42.49791100332683
 20
73.23034230619027
 30
0.0
 10
-44.67277247969795
 20
75.9941450506555
 30
0.0
 10
-48.75087059910616
 20
75.55775357313976
 30
0.0
 10
-50.60083374410877
 20
71.44823794454044
 30
0.0
 10
-48.79981417856531
 20
68.96543389829668
 30
0.0
 10
-47.75273654913548
 20
68.55477785116548
 30
0.0
  0
SPLINE
  5
A9
330
1F
100
AcDbEntity
  8
0
  6
Continuous
 62
     7
370
    25
100
AcDbSpline
210
0.0
220
0.0
230
1.0
 70
     8
 71
     3
 72
    10
 73
     6
 74
     0
 42
0.00000001
 43
0.00000001
 40
0.0
 40
0.0
 40
0.0
 40
0.0
 40
0.3420662556671058
 40
0.568234640970479
 40
1.0
 40
1.0
 40
1.0
 40
1.0
 10
27.54504516493818
 20
46.30582012135775
 30
0.0
 10
26.99992596408651
 20
46.17491494843287
 30
0.0
 10
25.89812158858794
 20
45.91721446338362
 30
0.0
 10
25.135184985089
 20
44.15951477445995
 30
0.0
 10
25.78001184692317
 20
42.95084216055747
 30
0.0
 10
26.50797300280061
 20
42.64948235326216
 30
0.0
  0
SPLINE
  5
B5
330
1F
100
AcDbEntity
  8
0
  6
Continuous
 62
     7
370
    25
100
AcDbSpline
210
0.0
220
0.0
230
1.0
 70
     8
 71
     3
 72
     9
 73
     5
 74
     0
 42
0.00000001
 43
0.00000001
 40
0.0
 40
0.0
 40
0.0
 40
0.0
 40
0.6523407230638507
 40
1.0
 40
1.0
 40
1.0
 40
1.0
 10
16.18846736568056
 20
53.67361013514635
 30
0.0
 10
14.24153900981458
 20
53.77639041836904
 30
0.0
 10
10.73201043054635
 20
50.66455155766339
 30
0.0
 10
12.82815639367154
 20
47.55857934840281
 30
0.0
 10
13.78074368757663
 20
47.08089915574173
 30
0.0
  0
SPLINE
  5
BA
330
1F
100
AcDbEntity
  8
0
  6
Continuous
 62
     7
370
    25
100
AcDbSpline
210
0.0
220
0.0
230
1.0
 70
     8
 71
     3
 72
     8
 73
     4
 74
     0
 42
0.00000001
 43
0.00000001
 40
0.0
 40
0.0
 40
0.0
 40
0.0
 40
1.0
 40
1.0
 40
1.0
 40
1.0
 10
5.150598359130919
 20
57.66913992646869
 30
0.0
 10
1.644788847942452
 20
58.03635446353078
 30
0.0
 10
0.008540824356492
 20
52.41324226259106
 30
0.0
 10
3.033642309382856
 20
50.99074319658745
 30
0.0
  0
SPLINE
  5
CA
330
1F
100
AcDbEntity
  8
0
  6
Continuous
 62
     7
370
    25
100
AcDbSpline
210
0.0
220
0.0
230
1.0
 70
     8
 71
     3
 72
    14
 73
    10
 74
     0
 42
0.00000001
 43
0.00000001
 40
0.0
 40
0.0
 40
0.0
 40
0.0
 40
0.1311160682186097
 40
0.3261058699973556
 40
0.440650627448464
 40
0.5732026267429219
 40
0.7073346003747354
 40
0.8239238342674706
 40
1.0
 40
1.0
 40
1.0
 40
1.0
 10
21.60228389526429
 20
47.42015594937614
 30
0.0
 10
21.25453167723794
 20
47.25908777361024
 30
0.0
 10
20.20123049598336
 20
47.30616874777971
 30
0.0
 10
19.48167642347056
 20
45.56389695037436
 30
0.0
 10
20.56026469689996
 20
44.64169055760295
 30
0.0
 10
21.57892591840458
 20
44.13283220948977
 30
0.0
 10
22.81286191177265
 20
44.35153306207756
 30
0.0
 10
23.61145286165721
 20
45.50612602238799
 30
0.0
 10
23.26925285065729
 20
46.42961701013573
 30
0.0
 10
23.081485014778
 20
46.88799665028753
 30
0.0
  0
SPLINE
  5
D2
330
1F
100
AcDbEntity
  8
0
  6
Continuous
 62
     7
370
    25
100
AcDbSpline
210
0.0
220
0.0
230
1.0
 70
     8
 71
     3
 72
    12
 73
     8
 74
     0
 42
0.00000001
 43
0.00000001
 40
0.0
 40
0.0
 40
0.0
 40
0.0
 40
0.3064354832595364
 40
0.3765502385997523
 40
0.4793365255269521
 40
0.7153682962768247
 40
1.0
 40
1.0
 40
1.0
 40
1.0
 10
23.081485014778
 20
46.88799665028753
 30
0.0
 10
23.70893040319211
 20
47.09006926832669
 30
0.0
 10
24.65700141865992
 20
47.35381583557233
 30
0.0
 10
25.21983055683746
 20
48.31534650941175
 30
0.0
 10
25.35999609547898
 20
49.23455090170931
 30
0.0
 10
25.02427496265791
 20
50.81577851665328
 30
0.0
 10
23.59372607735386
 20
51.09644844914516
 30
0.0
 10
23.02391180390553
 20
51.13563470136017
 30
0.0
  0
SPLINE
  5
D4
330
1F
100
AcDbEntity
  8
0
  6
Continuous
 62
     7
370
    25
100
AcDbSpline
210
0.0
220
0.0
230
1.0
 70
     8
 71
     3
 72
    11
 73
     7
 74
     0
 42
0.00000001
 43
0.00000001
 40
0.2948227864398621
 40
0.2948227864398621
 40
0.2948227864398621
 40
0.2948227864398621
 40
0.3399916143054766
 40
0.3907579194550991
 40
0.4415242246047215
 40
0.4419844951299636
 40
0.4419844951299636
 40
0.4419844951299636
 40
0.4419844951299636
 10
65.60641996258579
 20
-34.14903530078722
 30
0.0
 10
67.46305364038436
 20
-30.76004047936005
 30
0.0
 10
70.72239678144545
 20
-23.13863739181311
 30
0.0
 10
73.69268210617125
 20
-10.93505656381025
 30
0.0
 10
74.6577449500595
 20
-2.157557203836154
 30
0.0
 10
74.97607830201488
 20
2.278843342425618
 30
0.0
 10
74.97892508894424
 20
2.318706594320846
 30
0.0
  0
SPLINE
  5
D7
330
1F
100
AcDbEntity
  8
0
  6
Continuous
 62
     7
370
    25
100
AcDbSpline
210
0.0
220
0.0
230
1.0
 70
     8
 71
     3
 72
     8
 73
     4
 74
     0
 42
0.00000001
 43
0.00000001
 40
0.0
 40
0.0
 40
0.0
 40
0.0
 40
1.0
 40
1.0
 40
1.0
 40
1.0
 10
6.053599451952607
 20
56.15037031523507
 30
0.0
 10
2.780821451824083
 20
57.63518036977172
 30
0.0
 10
1.749209612340273
 20
52.03463999300123
 30
0.0
 10
4.446224515788799
 20
51.72655035875466
 30
0.0
  0
SPLINE
  5
D9
330
1F
100
AcDbEntity
  8
0
  6
Continuous
 62
     7
370
    25
100
AcDbSpline
210
0.0
220
0.0
230
1.0
 70
     8
 71
     3
 72
    12
 73
     8
 74
     0
 42
0.00000001
 43
0.00000001
 40
0.0
 40
0.0
 40
0.0
 40
0.0
 40
0.2810071878452393
 40
0.3615311088818479
 40
0.5281822656788362
 40
0.638776001145909
 40
1.0
 40
1.0
 40
1.0
 40
1.0
 10
22.77581891786333
 20
47.88958173341355
 30
0.0
 10
23.15921921556267
 20
47.9197500009283
 30
0.0
 10
23.74258486931145
 20
48.18037446540924
 30
0.0
 10
23.9843000323081
 20
48.91981956358863
 30
0.0
 10
23.97560089050206
 20
49.46335577302416
 30
0.0
 10
23.46125025592315
 20
50.28698584962149
 30
0.0
 10
22.52051856540898
 20
50.23398464730786
 30
0.0
 10
22.1613006888517
 20
49.8023707096517
 30
0.0
  0
SPLINE
  5
DB
330
1F
100
AcDbEntity
  8
0
  6
Continuous
 62
     7
370
    25
100
AcDbSpline
210
0.0
220
0.0
230
1.0
 70
     8
 71
     3
 72
    11
 73
     7
 74
     0
 42
0.00000001
 43
0.00000001
 40
0.0
 40
0.0
 40
0.0
 40
0.0
 40
0.360088782997364
 40
0.57486810011811
 40
0.7840705282226255
 40
1.0
 40
1.0
 40
1.0
 40
1.0
 10
22.25025681170744
 20
46.77386316633184
 30
0.0
 10
21.8088013123342
 20
46.77652622293365
 30
0.0
 10
20.85568720038464
 20
46.24289115729036
 30
0.0
 10
21.39791616961033
 20
44.95439970743426
 30
0.0
 10
22.53519536585331
 20
45.17377463578813
 30
0.0
 10
22.59726010780344
 20
45.87398857494365
 30
0.0
 10
22.51038451250461
 20
46.14075234430537
 30
0.0
  0
SPLINE
  5
E5
330
1F
100
AcDbEntity
  8
0
  6
Continuous
 62
     7
370
    25
100
AcDbSpline
210
0.0
220
0.0
230
1.0
 70
     8
 71
     3
 72
    10
 73
     6
 74
     0
 42
0.00000001
 43
0.00000001
 40
0.0
 40
0.0
 40
0.0
 40
0.0
 40
0.2563056785284163
 40
0.5544837531397223
 40
1.0
 40
1.0
 40
1.0
 40
1.0
 10
28.54355020966892
 20
45.30573382674952
 30
0.0
 10
28.05707898156276
 20
45.50970106882263
 30
0.0
 10
27.25624342034411
 20
45.47875190877608
 30
0.0
 10
26.67375677014612
 20
44.45243715446449
 30
0.0
 10
26.89668815231006
 20
43.56631411906435
 30
0.0
 10
27.80184736433
 20
43.25246990695319
 30
0.0
  0
SPLINE
  5
E7
330
1F
100
AcDbEntity
  8
0
  6
Continuous
 62
     7
370
    25
100
AcDbSpline
210
0.0
220
0.0
230
1.0
 70
    11
 71
     3
 72
    14
 73
    10
 74
     0
 42
0.00000001
 43
0.00000001
 40
0.0
 40
0.0
 40
0.0
 40
0.0
 40
0.0878603891345453
 40
0.2097427583956775
 40
0.3748024623096595
 40
0.540926272284656
 40
0.6872468440133823
 40
0.8860076722138933
 40
1.0
 40
1.0
 40
1.0
 40
1.0
 10
-47.32040467087018
 20
69.54187809947143
 30
0.0
 10
-46.92909197864109
 20
69.35011457815573
 30
0.0
 10
-45.79094343520019
 20
69.23657804569118
 30
0.0
 10
-44.2980790068475
 20
70.58802428061294
 30
0.0
 10
-43.74324430211654
 20
73.00349226559746
 30
0.0
 10
-45.82568519119953
 20
75.13795032309712
 30
0.0
 10
-48.56291309106081
 20
73.8072573262482
 30
0.0
 10
-48.82638794151008
 20
71.13927891749302
 30
0.0
 10
-47.82810381856155
 20
69.79067702233715
 30
0.0
 10
-47.32040467087018
 20
69.54187809947143
 30
0.0
  0
SPLINE
  5
E8
330
1F
100
AcDbEntity
  8
0
  6
Continuous
 62
     7
370
    25
100
AcDbSpline
210
0.0
220
0.0
230
1.0
 70
    11
 71
     3
 72
    14
 73
    10
 74
     0
 42
0.00000001
 43
0.00000001
 40
0.0
 40
0.0
 40
0.0
 40
0.0
 40
0.1141454788226911
 40
0.2661299015098123
 40
0.4261982707974319
 40
0.5262487233148617
 40
0.6954518913335277
 40
0.9115366685244561
 40
1.0
 40
1.0
 40
1.0
 40
1.0
 10
-26.72404284518848
 20
62.23106535579781
 30
0.0
 10
-26.16532870601159
 20
62.24063891029301
 30
0.0
 10
-24.90746796909378
 20
62.90547658624632
 30
0.0
 10
-23.92129952823086
 20
64.93111651814861
 30
0.0
 10
-24.8570498297336
 20
67.16407192820472
 30
0.0
 10
-27.12562387454363
 20
67.58869337891436
 30
0.0
 10
-29.2179751818541
 20
65.75515861682118
 30
0.0
 10
-28.68745208138692
 20
62.7679408859302
 30
0.0
 10
-27.15704916838114
 20
62.22364580196665
 30
0.0
 10
-26.72404284518848
 20
62.23106535579781
 30
0.0
  0
SPLINE
  5
EA
330
1F
100
AcDbEntity
  8
0
  6
Continuous
 62
     7
370
    25
100
AcDbSpline
210
0.0
220
0.0
230
1.0
 70
     8
 71
     3
 72
     8
 73
     4
 74
     0
 42
0.00000001
 43
0.00000001
 40
0.0
 40
0.0
 40
0.0
 40
0.0
 40
1.0
 40
1.0
 40
1.0
 40
1.0
 10
17.00031069739794
 20
52.23458263063774
 30
0.0
 10
13.16892946762517
 20
53.48468981680181
 30
0.0
 10
12.78253019631981
 20
48.01412435263772
 30
0.0
 10
15.33340665293537
 20
47.4678110582829
 30
0.0
  0
LINE
  5
EB
330
1F
100
AcDbEntity
  8
0
  6
Continuous
 62
     7
370
    25
100
AcDbLine
 10
18.7529939428
 20
-159.2392161013
 30
0.0
 11
15.4279464192
 21
-81.5380372608
 31
0.0
  0
LINE
  5
EC
330
1F
100
AcDbEntity
  8
0
  6
Continuous
 62
     7
370
    25
100
AcDbLine
 10
-15.4279463834
 20
-81.5380364243
 30
0.0
 11
-18.7529516562
 21
-159.2382279288
 31
0.0
  0
LINE
  5
ED
330
1F
100
AcDbEntity
  8
0
  6
Continuous
 62
     7
370
    25
100
AcDbLine
 10
15.1724670864
 20
-82.3165211758
 30
0.0
 11
14.1064153348
 21
-57.8297381931
 31
0.0
  0
LINE
  5
EE
330
1F
100
AcDbEntity
  8
0
  6
Continuous
 62
     7
370
    25
100
AcDbLine
 10
-18.1313828085
 20
-150.520408559
 30
0.0
 11
-18.371671306
 21
-156.0706244177
 31
0.0
  0
LINE
  5
EF
330
1F
100
AcDbEntity
  8
0
  6
Continuous
 62
     7
370
    25
100
AcDbLine
 10
13.2936334221
 20
-57.8297381931
 30
0.0
 11
-13.2936597865
 21
-57.8297381931
 31
0.0
  0
LINE
  5
F0
330
1F
100
AcDbEntity
  8
0
  6
Continuous
 62
     7
370
    25
100
AcDbLine
 10
75.4232210198
 20
13.9156315733
 30
0.0
 11
27.2744236021
 21
-29.7829910595
 31
0.0
  0
LINE
  5
F1
330
1F
100
AcDbEntity
  8
0
  6
Continuous
 62
     7
370
    25
100
AcDbLine
 10
27.2744236021
 20
-29.7829910595
 30
0.0
 11
60.4456940785
 21
-41.9199801554
 31
0.0
  0
LINE
  5
F2
330
1F
100
AcDbEntity
  8
0
  6
Continuous
 62
     7
370
    25
100
AcDbLine
 10
-47.055474398
 20
-53.9849017864
 30
0.0
 11
47.055474398
 21
-53.9849017864
 31
0.0
  0
LINE
  5
F3
330
1F
100
AcDbEntity
  8
0
  6
Continuous
 62
     7
370
    25
100
AcDbLine
 10
-74.792591835
 20
28.6522186308
 30
0.0
 11
-73.7564916928
 21
29.6883187727
 31
0.0
  0
LINE
  5
F4
330
1F
100
AcDbEntity
  8
0
  6
Continuous
 62
     7
370
    25
100
AcDbLine
 10
-73.7564916928
 20
29.6883187727
 30
0.0
 11
-70.6908573376
 21
6.3097253211
 31
0.0
  0
LINE
  5
F5
330
1F
100
AcDbEntity
  8
0
  6
Continuous
 62
     7
370
    25
100
AcDbLine
 10
-70.6908573376
 20
6.3097253211
 30
0.0
 11
-38.1566236218
 21
-5.3691440756
 31
0.0
  0
LINE
  5
F6
330
1F
100
AcDbEntity
  8
0
  6
Continuous
 62
     7
370
    25
100
AcDbLine
 10
-38.1566236218
 20
-5.3691440756
 30
0.0
 11
-18.6786522298
 21
52.4201173624
 31
0.0
  0
LINE
  5
F7
330
1F
100
AcDbEntity
  8
0
  6
Continuous
 62
     7
370
    25
100
AcDbLine
 10
-18.6786522298
 20
52.4201173624
 30
0.0
 11
-48.6497207842
 21
63.178882987
 31
0.0
  0
LINE
  5
F8
330
1F
100
AcDbEntity
  8
0
  6
Continuous
 62
     7
370
    25
100
AcDbLine
 10
-48.6497207842
 20
63.178882987
 30
0.0
 11
-68.1451655145
 21
45.3057338269
 31
0.0
  0
LINE
  5
F9
330
1F
100
AcDbEntity
  8
0
  6
Continuous
 62
     7
370
    25
100
AcDbLine
 10
-68.1451655145
 20
45.3057338269
 30
0.0
 11
-69.2287678297
 21
53.5693083614
 31
0.0
  0
LINE
  5
FA
330
1F
100
AcDbEntity
  8
0
  6
Continuous
 62
     7
370
    25
100
AcDbLine
 10
-9.6280297777
 20
62.6559549409
 30
0.0
 11
-10.7692761182
 21
63.0563626781
 31
0.0
  0
LINE
  5
FB
330
1F
100
AcDbEntity
  8
0
  6
Continuous
 62
     7
370
    25
100
AcDbLine
 10
-10.7692761182
 20
63.0563626781
 30
0.0
 11
-13.0833640863
 21
56.460724833
 31
0.0
  0
LINE
  5
FC
330
1F
100
AcDbEntity
  8
0
  6
Continuous
 62
     7
370
    25
100
AcDbLine
 10
-13.0833640863
 20
56.460724833
 30
0.0
 11
-11.9105224587
 21
56.1503703152
 31
0.0
  0
LINE
  5
FD
330
1F
100
AcDbEntity
  8
0
  6
Continuous
 62
     7
370
    25
100
AcDbLine
 10
-11.9105224587
 20
56.1503703152
 30
0.0
 11
-9.6280297777
 21
62.6559549409
 31
0.0
  0
LINE
  5
FE
330
1F
100
AcDbEntity
  8
0
  6
Continuous
 62
     7
370
    25
100
AcDbLine
 10
-18.6786522295
 20
65.8313773961
 30
0.0
 11
-19.9604906214
 21
66.2811120343
 31
0.0
  0
LINE
  5
FF
330
1F
100
AcDbEntity
  8
0
  6
Continuous
 62
     7
370
    25
100
AcDbLine
 10
-19.9604906214
 20
66.2811120343
 30
0.0
 11
-22.2044526339
 21
59.885347925
 31
0.0
  0
LINE
  5
100
330
1F
100
AcDbEntity
  8
0
  6
Continuous
 62
     7
370
    25
100
AcDbLine
 10
-22.2044526339
 20
59.885347925
 30
0.0
 11
-20.9339995971
 21
59.4031626281
 31
0.0
  0
LINE
  5
101
330
1F
100
AcDbEntity
  8
0
  6
Continuous
 62
     7
370
    25
100
AcDbLine
 10
-20.9339995971
 20
59.4031626281
 30
0.0
 11
-18.6786522295
 21
65.8313773961
 31
0.0
  0
LINE
  5
102
330
1F
100
AcDbEntity
  8
0
  6
Continuous
 62
     7
370
    25
100
AcDbLine
 10
-30.8335583302
 20
70.0959417373
 30
0.0
 11
-32.046987782
 21
70.5216750114
 31
0.0
  0
LINE
  5
103
330
1F
100
AcDbEntity
  8
0
  6
Continuous
 62
     7
370
    25
100
AcDbLine
 10
-32.046987782
 20
70.5216750114
 30
0.0
 11
-33.4097862972
 21
66.6374123621
 31
0.0
  0
LINE
  5
104
330
1F
100
AcDbEntity
  8
0
  6
Continuous
 62
     7
370
    25
100
AcDbLine
 10
-33.4097862972
 20
66.6374123621
 30
0.0
 11
-35.7780404588
 21
72.4844175789
 31
0.0
  0
LINE
  5
105
330
1F
100
AcDbEntity
  8
0
  6
Continuous
 62
     7
370
    25
100
AcDbLine
 10
-35.7780404588
 20
72.4844175789
 30
0.0
 11
-36.3081530253
 21
72.6704082504
 31
0.0
  0
LINE
  5
106
330
1F
100
AcDbEntity
  8
0
  6
Continuous
 62
     7
370
    25
100
AcDbLine
 10
-36.3081530253
 20
72.6704082504
 30
0.0
 11
-38.7076357418
 21
65.8313773961
 31
0.0
  0
LINE
  5
107
330
1F
100
AcDbEntity
  8
0
  6
Continuous
 62
     7
370
    25
100
AcDbLine
 10
-38.7076357418
 20
65.8313773961
 30
0.0
 11
-37.5070800568
 21
65.4101608996
 31
0.0
  0
LINE
  5
108
330
1F
100
AcDbEntity
  8
0
  6
Continuous
 62
     7
370
    25
100
AcDbLine
 10
-37.5070800568
 20
65.4101608996
 30
0.0
 11
-36.1587400255
 21
69.253213826
 31
0.0
  0
LINE
  5
109
330
1F
100
AcDbEntity
  8
0
  6
Continuous
 62
     7
370
    25
100
AcDbLine
 10
-36.1587400255
 20
69.253213826
 30
0.0
 11
-33.8671319597
 21
63.3917496239
 31
0.0
  0
LINE
  5
10A
330
1F
100
AcDbEntity
  8
0
  6
Continuous
 62
     7
370
    25
100
AcDbLine
 10
-33.8671319597
 20
63.3917496239
 30
0.0
 11
-33.2604172338
 21
63.1788829868
 31
0.0
  0
LINE
  5
10B
330
1F
100
AcDbEntity
  8
0
  6
Continuous
 62
     7
370
    25
100
AcDbLine
 10
-33.2604172338
 20
63.1788829868
 30
0.0
 11
-30.8335583302
 21
70.0959417373
 31
0.0
  0
LINE
  5
10C
330
1F
100
AcDbEntity
  8
0
  6
Continuous
 62
     7
370
    25
100
AcDbLine
 10
-50.4864338348
 20
77.1355288865
 30
0.0
 11
-51.5760432902
 21
77.5178197567
 31
0.0
  0
LINE
  5
10D
330
1F
100
AcDbEntity
  8
0
  6
Continuous
 62
     7
370
    25
100
AcDbLine
 10
-51.5760432902
 20
77.5178197567
 30
0.0
 11
-52.7095616951
 21
74.287053687
 31
0.0
  0
LINE
  5
10E
330
1F
100
AcDbEntity
  8
0
  6
Continuous
 62
     7
370
    25
100
AcDbLine
 10
-52.7095616951
 20
74.287053687
 30
0.0
 11
-54.4870605902
 21
74.990508954
 31
0.0
  0
LINE
  5
10F
330
1F
100
AcDbEntity
  8
0
  6
Continuous
 62
     7
370
    25
100
AcDbLine
 10
-54.4870605902
 20
74.990508954
 30
0.0
 11
-54.9068953905
 21
73.9296655306
 31
0.0
  0
LINE
  5
110
330
1F
100
AcDbEntity
  8
0
  6
Continuous
 62
     7
370
    25
100
AcDbLine
 10
-54.9068953905
 20
73.9296655306
 30
0.0
 11
-53.1293964954
 21
73.2262102636
 31
0.0
  0
LINE
  5
111
330
1F
100
AcDbEntity
  8
0
  6
Continuous
 62
     7
370
    25
100
AcDbLine
 10
-53.1293964954
 20
73.2262102636
 30
0.0
 11
-53.6083256836
 21
71.964336363
 31
0.0
  0
LINE
  5
112
330
1F
100
AcDbEntity
  8
0
  6
Continuous
 62
     7
370
    25
100
AcDbLine
 10
-53.6083256836
 20
71.964336363
 30
0.0
 11
-55.4809017024
 21
72.675050256
 31
0.0
  0
LINE
  5
113
330
1F
100
AcDbEntity
  8
0
  6
Continuous
 62
     7
370
    25
100
AcDbLine
 10
-55.4809017024
 20
72.675050256
 30
0.0
 11
-55.8291041793
 21
71.6825998969
 31
0.0
  0
LINE
  5
114
330
1F
100
AcDbEntity
  8
0
  6
Continuous
 62
     7
370
    25
100
AcDbLine
 10
-55.8291041793
 20
71.6825998969
 30
0.0
 11
-52.7095616951
 21
70.5216750114
 31
0.0
  0
LINE
  5
115
330
1F
100
AcDbEntity
  8
0
  6
Continuous
 62
     7
370
    25
100
AcDbLine
 10
-52.7095616951
 20
70.5216750114
 30
0.0
 11
-50.4864338348
 21
77.1355288865
 31
0.0
  0
LINE
  5
116
330
1F
100
AcDbEntity
  8
0
  6
Continuous
 62
     7
370
    25
100
AcDbLine
 10
-17.2217709345
 20
59.6978932865
 30
0.0
 11
-18.2096025059
 21
59.4031626281
 31
0.0
  0
LINE
  5
117
330
1F
100
AcDbEntity
  8
0
  6
Continuous
 62
     7
370
    25
100
AcDbLine
 10
-14.2001026371
 20
62.0096304415
 30
0.0
 11
-13.295923551
 21
62.1063020632
 31
0.0
  0
LINE
  5
118
330
1F
100
AcDbEntity
  8
0
  6
Continuous
 62
     7
370
    25
100
AcDbLine
 10
31.1998154885
 20
48.4096510347
 30
0.0
 11
29.7089287529
 21
48.9463595919
 31
0.0
  0
LINE
  5
119
330
1F
100
AcDbEntity
  8
0
  6
Continuous
 62
     7
370
    25
100
AcDbLine
 10
29.7089287529
 20
48.9463595919
 30
0.0
 11
28.9268455843
 21
46.7738631663
 31
0.0
  0
LINE
  5
11A
330
1F
100
AcDbEntity
  8
0
  6
Continuous
 62
     7
370
    25
100
AcDbLine
 10
28.9268455843
 20
46.7738631663
 30
0.0
 11
28.3248268627
 21
49.4083561128
 31
0.0
  0
LINE
  5
11B
330
1F
100
AcDbEntity
  8
0
  6
Continuous
 62
     7
370
    25
100
AcDbLine
 10
28.3248268627
 20
49.4083561128
 30
0.0
 11
26.7577671199
 21
49.9724864076
 31
0.0
  0
LINE
  5
11C
330
1F
100
AcDbEntity
  8
0
  6
Continuous
 62
     7
370
    25
100
AcDbLine
 10
26.7577671199
 20
49.9724864076
 30
0.0
 11
26.5968759252
 21
49.5255575392
 31
0.0
  0
LINE
  5
11D
330
1F
100
AcDbEntity
  8
0
  6
Continuous
 62
     7
370
    25
100
AcDbLine
 10
26.5968759252
 20
49.5255575392
 30
0.0
 11
27.5450451649
 21
46.3058201214
 31
0.0
  0
LINE
  5
11E
330
1F
100
AcDbEntity
  8
0
  6
Continuous
 62
     7
370
    25
100
AcDbLine
 10
26.5079730028
 20
42.6494823533
 30
0.0
 11
28.819549837
 21
41.7976705863
 31
0.0
  0
LINE
  5
11F
330
1F
100
AcDbEntity
  8
0
  6
Continuous
 62
     7
370
    25
100
AcDbLine
 10
19.8505766743
 20
48.6565926167
 30
0.0
 11
20.93911191
 21
49.0891263857
 31
0.0
  0
LINE
  5
120
330
1F
100
AcDbEntity
  8
0
  6
Continuous
 62
     7
370
    25
100
AcDbLine
 10
32.2985532755
 20
32.9401605337
 30
0.0
 11
24.134605888
 21
35.6918332442
 31
0.0
  0
LINE
  5
121
330
1F
100
AcDbEntity
  8
0
  6
Continuous
 62
     7
370
    25
100
AcDbLine
 10
24.134605888
 20
35.6918332442
 30
0.0
 11
10.4091154133
 21
-5.0303724435
 31
0.0
  0
LINE
  5
122
330
1F
100
AcDbEntity
  8
0
  6
Continuous
 62
     7
370
    25
100
AcDbLine
 10
10.4091154133
 20
-5.0303724435
 30
0.0
 11
-13.2559811584
 21
53.3970231716
 31
0.0
  0
LINE
  5
123
330
1F
100
AcDbEntity
  8
0
  6
Continuous
 62
     7
370
    25
100
AcDbLine
 10
-13.2559811584
 20
53.3970231716
 30
0.0
 11
-33.9985468585
 21
-8.1441675417
 31
0.0
  0
LINE
  5
124
330
1F
100
AcDbEntity
  8
0
  6
Continuous
 62
     7
370
    25
100
AcDbLine
 10
-33.9985468585
 20
-8.1441675417
 30
0.0
 11
-26.4088143036
 21
-10.702300141
 31
0.0
  0
LINE
  5
125
330
1F
100
AcDbEntity
  8
0
  6
Continuous
 62
     7
370
    25
100
AcDbLine
 10
-26.4088143036
 20
-10.702300141
 30
0.0
 11
-12.8410104106
 21
29.5520646762
 31
0.0
  0
LINE
  5
126
330
1F
100
AcDbEntity
  8
0
  6
Continuous
 62
     7
370
    25
100
AcDbLine
 10
-12.8410104106
 20
29.5520646762
 30
0.0
 11
11.3014305233
 21
-29.3562763873
 31
0.0
  0
LINE
  5
127
330
1F
100
AcDbEntity
  8
0
  6
Continuous
 62
     7
370
    25
100
AcDbLine
 10
11.3014305233
 20
-29.3562763873
 30
0.0
 11
32.2985532755
 21
32.9401605337
 31
0.0
  0
LINE
  5
128
330
1F
100
AcDbEntity
  8
0
  6
Continuous
 62
     7
370
    25
100
AcDbLine
 10
18.7627312907
 20
52.7334633237
 30
0.0
 11
16.1884673657
 21
53.6736101351
 31
0.0
  0
LINE
  5
129
330
1F
100
AcDbEntity
  8
0
  6
Continuous
 62
     7
370
    25
100
AcDbLine
 10
13.7807436876
 20
47.0808991557
 30
0.0
 11
16.3550076126
 21
46.1407523443
 31
0.0
  0
LINE
  5
12A
330
1F
100
AcDbEntity
  8
0
  6
Continuous
 62
     7
370
    25
100
AcDbLine
 10
16.3550076126
 20
46.1407523443
 30
0.0
 11
18.7627312907
 21
52.7334633237
 31
0.0
  0
LINE
  5
12B
330
1F
100
AcDbEntity
  8
0
  6
Continuous
 62
     7
370
    25
100
AcDbLine
 10
5.4080731107
 20
50.2380826625
 30
0.0
 11
7.8004112285
 21
56.6859920663
 31
0.0
  0
LINE
  5
12C
330
1F
100
AcDbEntity
  8
0
  6
Continuous
 62
     7
370
    25
100
AcDbLine
 10
7.8004112285
 20
56.6859920663
 30
0.0
 11
5.1505983591
 21
57.6691399265
 31
0.0
  0
LINE
  5
12D
330
1F
100
AcDbEntity
  8
0
  6
Continuous
 62
     7
370
    25
100
AcDbLine
 10
3.0336423094
 20
50.9907431966
 30
0.0
 11
5.4080731107
 21
50.2380826625
 31
0.0
  0
LINE
  5
12E
330
1F
100
AcDbEntity
  8
0
  6
Continuous
 62
     7
370
    25
100
AcDbLine
 10
0.5220931347
 20
59.4091383637
 30
0.0
 11
-0.8352043613
 21
59.885347925
 31
0.0
  0
LINE
  5
12F
330
1F
100
AcDbEntity
  8
0
  6
Continuous
 62
     7
370
    25
100
AcDbLine
 10
-0.8352043613
 20
59.885347925
 30
0.0
 11
-3.158596755
 21
53.2631905083
 31
0.0
  0
LINE
  5
130
330
1F
100
AcDbEntity
  8
0
  6
Continuous
 62
     7
370
    25
100
AcDbLine
 10
-3.158596755
 20
53.2631905083
 30
0.0
 11
-1.8200759856
 21
52.7334633237
 31
0.0
  0
LINE
  5
131
330
1F
100
AcDbEntity
  8
0
  6
Continuous
 62
     7
370
    25
100
AcDbLine
 10
-1.8200759856
 20
52.7334633237
 30
0.0
 11
0.5220931347
 21
59.4091383637
 31
0.0
  0
LINE
  5
132
330
1F
100
AcDbEntity
  8
0
  6
Continuous
 62
     7
370
    25
100
AcDbLine
 10
-4.9288492032
 20
61.2857439238
 30
0.0
 11
-5.4204445944
 21
61.4802955874
 31
0.0
  0
LINE
  5
133
330
1F
100
AcDbEntity
  8
0
  6
Continuous
 62
     7
370
    25
100
AcDbLine
 10
-5.4204445944
 20
61.4802955874
 30
0.0
 11
-10.2951678859
 21
55.3967293955
 31
0.0
  0
LINE
  5
134
330
1F
100
AcDbEntity
  8
0
  6
Continuous
 62
     7
370
    25
100
AcDbLine
 10
-10.2951678859
 20
55.3967293955
 30
0.0
 11
-8.9812835887
 21
54.8767522346
 31
0.0
  0
LINE
  5
135
330
1F
100
AcDbEntity
  8
0
  6
Continuous
 62
     7
370
    25
100
AcDbLine
 10
-8.9812835887
 20
54.8767522346
 30
0.0
 11
-6.4342125318
 21
58.0554506844
 31
0.0
  0
LINE
  5
136
330
1F
100
AcDbEntity
  8
0
  6
Continuous
 62
     7
370
    25
100
AcDbLine
 10
-6.4342125318
 20
58.0554506844
 30
0.0
 11
-6.1050346203
 21
58.0554506844
 31
0.0
  0
LINE
  5
137
330
1F
100
AcDbEntity
  8
0
  6
Continuous
 62
     7
370
    25
100
AcDbLine
 10
-6.1050346203
 20
58.0554506844
 30
0.0
 11
-5.73345773
 21
53.8212934138
 31
0.0
  0
LINE
  5
138
330
1F
100
AcDbEntity
  8
0
  6
Continuous
 62
     7
370
    25
100
AcDbLine
 10
-5.73345773
 20
53.8212934138
 30
0.0
 11
-4.3147815475
 21
53.3970231716
 31
0.0
  0
LINE
  5
139
330
1F
100
AcDbEntity
  8
0
  6
Continuous
 62
     7
370
    25
100
AcDbLine
 10
-4.3147815475
 20
53.3970231716
 30
0.0
 11
-4.9288492032
 21
61.2857439238
 31
0.0
  0
LINE
  5
13A
330
1F
100
AcDbEntity
  8
0
  6
Continuous
 62
     7
370
    25
100
AcDbLine
 10
21.8140604719
 20
51.5997908404
 30
0.0
 11
20.1808520834
 21
52.2345826306
 31
0.0
  0
LINE
  5
13B
330
1F
100
AcDbEntity
  8
0
  6
Continuous
 62
     7
370
    25
100
AcDbLine
 10
20.93911191
 20
49.0891263857
 30
0.0
 11
21.6022838953
 21
47.4201559494
 31
0.0
  0
LINE
  5
13C
330
1F
100
AcDbEntity
  8
0
  6
Continuous
 62
     7
370
    25
100
AcDbLine
 10
23.0239118039
 20
51.1356347014
 30
0.0
 11
22.1383208405
 21
50.7837416393
 31
0.0
  0
LINE
  5
13D
330
1F
100
AcDbEntity
  8
0
  6
Continuous
 62
     7
370
    25
100
AcDbLine
 10
22.1383208405
 20
50.7837416393
 30
0.0
 11
21.8140604719
 21
51.5997908404
 31
0.0
  0
LINE
  5
13E
330
1F
100
AcDbEntity
  8
0
  6
Continuous
 62
     7
370
    25
100
AcDbLine
 10
20.1808520834
 20
52.2345826306
 30
0.0
 11
19.9754491463
 21
51.8626596974
 31
0.0
  0
LINE
  5
13F
330
1F
100
AcDbEntity
  8
0
  6
Continuous
 62
     7
370
    25
100
AcDbLine
 10
19.9754491463
 20
51.8626596974
 30
0.0
 11
20.6033562607
 21
50.282438527
 31
0.0
  0
LINE
  5
140
330
1F
100
AcDbEntity
  8
0
  6
Continuous
 62
     7
370
    25
100
AcDbLine
 10
20.6033562607
 20
50.282438527
 30
0.0
 11
19.3952832298
 21
49.8024059435
 31
0.0
  0
LINE
  5
141
330
1F
100
AcDbEntity
  8
0
  6
Continuous
 62
     7
370
    25
100
AcDbLine
 10
19.3952832298
 20
49.8024059435
 30
0.0
 11
19.8505766743
 21
48.6565926167
 31
0.0
  0
LINE
  5
142
330
1F
100
AcDbEntity
  8
0
  6
Continuous
 62
     7
370
    25
100
AcDbLine
 10
28.819549837
 20
41.7976705863
 30
0.0
 11
31.1998154885
 21
48.4096510347
 31
0.0
  0
LINE
  5
143
330
1F
100
AcDbEntity
  8
0
  6
Continuous
 62
     7
370
    25
100
AcDbLine
 10
65.6064199626
 20
-34.1490353008
 30
0.0
 11
43.4597548827
 21
-26.2443957852
 31
0.0
  0
LINE
  5
144
330
1F
100
AcDbEntity
  8
0
  6
Continuous
 62
     7
370
    25
100
AcDbLine
 10
43.4597548827
 20
-26.2443957852
 30
0.0
 11
74.9789250889
 21
2.3187065943
 31
0.0
  0
LINE
  5
145
330
1F
100
AcDbEntity
  8
0
  6
Continuous
 62
     7
370
    25
100
AcDbLine
 10
4.4462245158
 20
51.7265503588
 30
0.0
 11
6.053599452
 21
56.1503703152
 31
0.0
  0
LINE
  5
146
330
1F
100
AcDbEntity
  8
0
  6
Continuous
 62
     7
370
    25
100
AcDbLine
 10
22.1613006889
 20
49.8023707097
 30
0.0
 11
22.7758189179
 21
47.8895817334
 31
0.0
  0
LINE
  5
147
330
1F
100
AcDbEntity
  8
0
  6
Continuous
 62
     7
370
    25
100
AcDbLine
 10
22.5103845125
 20
46.1407523443
 30
0.0
 11
22.2502568117
 21
46.7738631663
 31
0.0
  0
LINE
  5
148
330
1F
100
AcDbEntity
  8
0
  6
Continuous
 62
     7
370
    25
100
AcDbLine
 10
-47.055474398
 20
53.5693083613
 30
0.0
 11
-66.4171330247
 21
35.755408983
 31
0.0
  0
LINE
  5
149
330
1F
100
AcDbEntity
  8
0
  6
Continuous
 62
     7
370
    25
100
AcDbLine
 10
-63.3360779734
 20
12.6627979281
 30
0.0
 11
-43.2099209243
 21
5.4175253968
 31
0.0
  0
LINE
  5
14A
330
1F
100
AcDbEntity
  8
0
  6
Continuous
 62
     7
370
    25
100
AcDbLine
 10
-43.2099209243
 20
5.4175253968
 30
0.0
 11
-38.1566236218
 21
19.47759
 31
0.0
  0
LINE
  5
14B
330
1F
100
AcDbEntity
  8
0
  6
Continuous
 62
     7
370
    25
100
AcDbLine
 10
-38.1566236218
 20
19.47759
 30
0.0
 11
-58.7512165706
 21
26.8794479524
 31
0.0
  0
LINE
  5
14C
330
1F
100
AcDbEntity
  8
0
  6
Continuous
 62
     7
370
    25
100
AcDbLine
 10
-58.7512165706
 20
26.8794479524
 30
0.0
 11
-55.8291041793
 21
35.0098005794
 31
0.0
  0
LINE
  5
14D
330
1F
100
AcDbEntity
  8
0
  6
Continuous
 62
     7
370
    25
100
AcDbLine
 10
-55.8291041793
 20
35.0098005794
 30
0.0
 11
-35.5508982262
 21
27.7216545904
 31
0.0
  0
LINE
  5
14E
330
1F
100
AcDbEntity
  8
0
  6
Continuous
 62
     7
370
    25
100
AcDbLine
 10
-35.5508982262
 20
27.7216545904
 30
0.0
 11
-29.1490370353
 21
47.1335945735
 31
0.0
  0
LINE
  5
14F
330
1F
100
AcDbEntity
  8
0
  6
Continuous
 62
     7
370
    25
100
AcDbLine
 10
-29.1490370353
 20
47.1335945735
 30
0.0
 11
-47.055474398
 21
53.5693083613
 31
0.0
  0
LINE
  5
150
330
1F
100
AcDbEntity
  8
0
  6
Continuous
 62
     7
370
    25
100
AcDbLine
 10
-66.4171330247
 20
35.755408983
 30
0.0
 11
-63.3360779734
 21
12.6627979281
 31
0.0
  0
LINE
  5
151
330
1F
100
AcDbEntity
  8
0
  6
Continuous
 62
     7
370
    25
100
AcDbLine
 10
27.8018473643
 20
43.252469907
 30
0.0
 11
28.5435502097
 21
45.3057338267
 31
0.0
  0
LINE
  5
152
330
1F
100
AcDbEntity
  8
0
  6
Continuous
 62
     7
370
    25
100
AcDbLine
 10
15.3334066529
 20
47.4678110583
 30
0.0
 11
17.0003106974
 21
52.2345826306
 31
0.0
  0
MTEXT
  5
154
330
1F
100
AcDbEntity
  8
0
  6
Continuous
 62
     7
100
AcDbMText
 10
-76.3497525299
 20
-164.0072917474
 30
0.0
 40
4.83362
 41
0.0
 71
     1
 72
     1
  1
SOLIDWORKS Educational Product.
  7
SLDTEXTSTYLE0
 73
     1
 44
1.0
  0
MTEXT
  5
155
330
1F
100
AcDbEntity
  8
0
  6
Continuous
 62
     7
100
AcDbMText
 10
-76.3497525299
 20
-171.2577217474
 30
0.0
 40
4.83362
 41
0.0
 71
     1
 72
     1
  1
For Instructional Use Only.
  7
SLDTEXTSTYLE0
 73
     1
 44
1.0
  0
ENDSEC
  0
SECTION
  2
OBJECTS
  0
DICTIONARY
  5
C
330
0
100
AcDbDictionary
281
     1
  3
ACAD_GROUP
350
D
  3
ACAD_LAYOUT
350
1A
  3
ACAD_MLINESTYLE
350
17
  3
ACAD_PLOTSETTINGS
350
19
  3
ACAD_PLOTSTYLENAME
350
E
  3
ACAD_SCALELIST
350
47
  3
DWGPROPS
350
156
  0
DICTIONARY
  5
D
102
{ACAD_REACTORS
330
C
102
}
330
C
100
AcDbDictionary
281
     1
  0
DICTIONARY
  5
1A
102
{ACAD_REACTORS
330
C
102
}
330
C
100
AcDbDictionary
281
     1
  3
Layout1
350
1E
  3
Layout2
350
26
  3
Model
350
22
  0
DICTIONARY
  5
17
102
{ACAD_REACTORS
330
C
102
}
330
C
100
AcDbDictionary
281
     1
  3
Standard
350
18
  0
DICTIONARY
  5
19
102
{ACAD_REACTORS
330
C
102
}
330
C
100
AcDbDictionary
281
     1
  0
ACDBDICTIONARYWDFLT
  5
E
102
{ACAD_REACTORS
330
C
102
}
330
C
100
AcDbDictionary
281
     1
  3
Normal
350
F
100
AcDbDictionaryWithDefault
340
F
  0
DICTIONARY
  5
47
102
{ACAD_REACTORS
330
C
102
}
330
C
100
AcDbDictionary
281
     1
  3
A0
350
48
  3
A1
350
49
  3
A2
350
4A
  3
A3
350
4B
  3
A4
350
4C
  3
A5
350
4D
  3
A6
350
4E
  3
A7
350
4F
  3
A8
350
50
  3
A9
350
51
  3
B0
350
52
  3
B1
350
53
  3
B2
350
54
  3
B3
350
55
  3
B4
350
56
  3
B5
350
57
  3
B6
350
58
  0
XRECORD
  5
156
102
{ACAD_REACTORS
330
C
102
}
330
C
100
AcDbXrecord
280
     1
  1
DWGPROPS COOKIE
  2

  3

  4

  6

  7

  8
nugenjs
  9

300
=
301
=
302
=
303
=
304
=
305
=
306
=
307
=
308
=
309
=
 40
0.0
 41
2460099.21995963
 42
2460099.219998067
  1

 90
        0
  0
LAYOUT
  5
1E
102
{ACAD_REACTORS
330
1A
102
}
330
1A
100
AcDbPlotSettings
  1

  2
none_device
  4

  6

 40
0.0
 41
0.0
 42
0.0
 43
0.0
 44
0.0
 45
0.0
 46
0.0
 47
0.0
 48
0.0
 49
0.0
140
0.0
141
0.0
142
1.0
143
1.0
 70
   688
 72
     1
 73
     0
 74
     5
  7

 75
    16
147
1.0
148
0.0
149
0.0
100
AcDbLayout
  1
Layout1
 70
     1
 71
     1
 10
0.0
 20
0.0
 11
420.0
 21
297.0
 12
0.0
 22
0.0
 32
0.0
 14
1.0000000000E+20
 24
1.0000000000E+20
 34
1.0000000000E+20
 15
-1.0000000000E+20
 25
-1.0000000000E+20
 35
-1.0000000000E+20
146
0.0
 13
0.0
 23
0.0
 33
0.0
 16
1.0
 26
0.0
 36
0.0
 17
0.0
 27
1.0
 37
0.0
 76
     0
330
1B
  0
LAYOUT
  5
26
102
{ACAD_REACTORS
330
1A
102
}
330
1A
100
AcDbPlotSettings
  1

  2
none_device
  4

  6

 40
0.0
 41
0.0
 42
0.0
 43
0.0
 44
0.0
 45
0.0
 46
0.0
 47
0.0
 48
0.0
 49
0.0
140
0.0
141
0.0
142
1.0
143
1.0
 70
   688
 72
     1
 73
     0
 74
     5
  7

 75
    16
147
1.0
148
0.0
149
0.0
100
AcDbLayout
  1
Layout2
 70
     1
 71
     2
 10
0.0
 20
0.0
 11
0.0
 21
0.0
 12
0.0
 22
0.0
 32
0.0
 14
0.0
 24
0.0
 34
0.0
 15
0.0
 25
0.0
 35
0.0
146
0.0
 13
0.0
 23
0.0
 33
0.0
 16
1.0
 26
0.0
 36
0.0
 17
0.0
 27
1.0
 37
0.0
 76
     0
330
23
  0
LAYOUT
  5
22
102
{ACAD_REACTORS
330
1A
102
}
330
1A
100
AcDbPlotSettings
  1

  2
none_device
  4
ANSI_A_(11.00_x_8.50_Inches)
  6

 40
6.35
 41
19.05
 42
6.35000508
 43
19.05000254
 44
279.4
 45
215.9
 46
133.3499974305
 47
111.9399166606
 48
0.0
 49
0.0
140
0.0
141
0.0
142
0.0313801752
143
1.0
 70
  1696
 72
     0
 73
     0
 74
     0
  7

 75
     0
147
0.0179189148
148
-1300.4909072572
149
0.0
100
AcDbLayout
  1
Model
 70
     1
 71
     0
 10
0.0
 20
0.0
 11
420.0
 21
297.0
 12
0.0
 22
0.0
 32
0.0
 14
-76.3497525299
 24
-162.9877253557
 34
0.0
 15
76.349752604
 25
105.1752130767
 35
0.0
146
0.0
 13
0.0
 23
0.0
 33
0.0
 16
1.0
 26
0.0
 36
0.0
 17
0.0
 27
1.0
 37
0.0
 76
     0
330
1F
331
29
  0
MLINESTYLE
  5
18
102
{ACAD_REACTORS
330
17
102
}
330
17
100
AcDbMlineStyle
  2
Standard
 70
     0
  3

 62
   256
 51
90.0
 52
90.0
 71
     2
 49
0.5
 62
   256
  6
BYLAYER
 49
-0.5
 62
   256
  6
BYLAYER
  0
ACDBPLACEHOLDER
  5
F
102
{ACAD_REACTORS
330
E
102
}
330
E
  0
SCALE
  5
48
102
{ACAD_REACTORS
330
47
102
}
330
47
100
AcDbScale
 70
     0
300
1:1
140
1.0
141
1.0
290
     1
  0
SCALE
  5
49
102
{ACAD_REACTORS
330
47
102
}
330
47
100
AcDbScale
 70
     0
300
1:2
140
1.0
141
2.0
290
     0
  0
SCALE
  5
4A
102
{ACAD_REACTORS
330
47
102
}
330
47
100
AcDbScale
 70
     0
300
1:4
140
1.0
141
4.0
290
     0
  0
SCALE
  5
4B
102
{ACAD_REACTORS
330
47
102
}
330
47
100
AcDbScale
 70
     0
300
1:5
140
1.0
141
5.0
290
     0
  0
SCALE
  5
4C
102
{ACAD_REACTORS
330
47
102
}
330
47
100
AcDbScale
 70
     0
300
1:8
140
1.0
141
8.0
290
     0
  0
SCALE
  5
4D
102
{ACAD_REACTORS
330
47
102
}
330
47
100
AcDbScale
 70
     0
300
1:10
140
1.0
141
10.0
290
     0
  0
SCALE
  5
4E
102
{ACAD_REACTORS
330
47
102
}
330
47
100
AcDbScale
 70
     0
300
1:16
140
1.0
141
16.0
290
     0
  0
SCALE
  5
4F
102
{ACAD_REACTORS
330
47
102
}
330
47
100
AcDbScale
 70
     0
300
1:20
140
1.0
141
20.0
290
     0
  0
SCALE
  5
50
102
{ACAD_REACTORS
330
47
102
}
330
47
100
AcDbScale
 70
     0
300
1:30
140
1.0
141
30.0
290
     0
  0
SCALE
  5
51
102
{ACAD_REACTORS
330
47
102
}
330
47
100
AcDbScale
 70
     0
300
1:40
140
1.0
141
40.0
290
     0
  0
SCALE
  5
52
102
{ACAD_REACTORS
330
47
102
}
330
47
100
AcDbScale
 70
     0
300
1:50
140
1.0
141
50.0
290
     0
  0
SCALE
  5
53
102
{ACAD_REACTORS
330
47
102
}
330
47
100
AcDbScale
 70
     0
300
1:100
140
1.0
141
100.0
290
     0
  0
SCALE
  5
54
102
{ACAD_REACTORS
330
47
102
}
330
47
100
AcDbScale
 70
     0
300
2:1
140
2.0
141
1.0
290
     0
  0
SCALE
  5
55
102
{ACAD_REACTORS
330
47
102
}
330
47
100
AcDbScale
 70
     0
300
4:1
140
4.0
141
1.0
290
     0
  0
SCALE
  5
56
102
{ACAD_REACTORS
330
47
102
}
330
47
100
AcDbScale
 70
     0
300
8:1
140
8.0
141
1.0
290
     0
  0
SCALE
  5
57
102
{ACAD_REACTORS
330
47
102
}
330
47
100
AcDbScale
 70
     0
300
10:1
140
10.0
141
1.0
290
     0
  0
SCALE
  5
58
102
{ACAD_REACTORS
330
47
102
}
330
47
100
AcDbScale
 70
     0
300
100:1
140
100.0
141
1.0
290
     0
  0
ENDSEC
  0
EOF
