  0
SECTION
  2
HEADER
  9
$ACADVER
  1
AC1015
  9
$ACADMAINTVER
 70
     6
  9
$DWGCODEPAGE
  3
ANSI_1252
  9
$INSBASE
 10
0.0
 20
0.0
 30
0.0
  9
$EXTMIN
 10
0.0
 20
0.0
 30
0.0
  9
$EXTMAX
 10
2.5
 20
4.0625
 30
0.0
  9
$LIMMIN
 10
0.0
 20
0.0
  9
$LIMMAX
 10
12.0
 20
9.0
  9
$ORTHOMODE
 70
     0
  9
$REGENMODE
 70
     1
  9
$FILLMODE
 70
     1
  9
$QTEXTMODE
 70
     0
  9
$MIRRTEXT
 70
     1
  9
$LTSCALE
 40
1.0
  9
$ATTMODE
 70
     1
  9
$TEXTSIZE
 40
0.1377952756
  9
$TRACEWID
 40
0.05
  9
$TEXTSTYLE
  7
Standard
  9
$CLAYER
  8
0
  9
$CELTYPE
  6
ByLayer
  9
$CECOLOR
 62
   256
  9
$CELTSCALE
 40
1.0
  9
$DISPSILH
 70
     0
  9
$DIMSCALE
 40
1.0
  9
$DIMASZ
 40
0.14
  9
$DIMEXO
 40
0.0
  9
$DIMDLI
 40
0.38
  9
$DIMRND
 40
0.0
  9
$DIMDLE
 40
0.0
  9
$DIMEXE
 40
0.0393700787
  9
$DIMTP
 40
0.0
  9
$DIMTM
 40
0.0
  9
$DIMTXT
 40
0.1377952756
  9
$DIMCEN
 40
0.09
  9
$DIMTSZ
 40
0.0
  9
$DIMTOL
 70
     0
  9
$DIMLIM
 70
     0
  9
$DIMTIH
 70
     1
  9
$DIMTOH
 70
     1
  9
$DIMSE1
 70
     0
  9
$DIMSE2
 70
     0
  9
$DIMTAD
 70
     1
  9
$DIMZIN
 70
     1
  9
$DIMBLK
  1

  9
$DIMASO
 70
     1
  9
$DIMSHO
 70
     1
  9
$DIMPOST
  1

  9
$DIMAPOST
  1

  9
$DIMALT
 70
     0
  9
$DIMALTD
 70
     2
  9
$DIMALTF
 40
25.4
  9
$DIMLFAC
 40
1.0
  9
$DIMTOFL
 70
     0
  9
$DIMTVP
 40
0.0
  9
$DIMTIX
 70
     0
  9
$DIMSOXD
 70
     0
  9
$DIMSAH
 70
     0
  9
$DIMBLK1
  1

  9
$DIMBLK2
  1

  9
$DIMSTYLE
  2
Standard
  9
$DIMCLRD
 70
     0
  9
$DIMCLRE
 70
     0
  9
$DIMCLRT
 70
     0
  9
$DIMTFAC
 40
1.0
  9
$DIMGAP
 40
0.06
  9
$DIMJUST
 70
     0
  9
$DIMSD1
 70
     0
  9
$DIMSD2
 70
     0
  9
$DIMTOLJ
 70
     1
  9
$DIMTZIN
 70
     1
  9
$DIMALTZ
 70
     0
  9
$DIMALTTZ
 70
     0
  9
$DIMUPT
 70
     0
  9
$DIMDEC
 70
     2
  9
$DIMTDEC
 70
     2
  9
$DIMALTU
 70
     2
  9
$DIMALTTD
 70
     2
  9
$DIMTXSTY
  7
Standard
  9
$DIMAUNIT
 70
     0
  9
$DIMADEC
 70
     2
  9
$DIMALTRND
 40
0.0
  9
$DIMAZIN
 70
     0
  9
$DIMDSEP
 70
    46
  9
$DIMATFIT
 70
     3
  9
$DIMFRAC
 70
     0
  9
$DIMLDRBLK
  1

  9
$DIMLUNIT
 70
     2
  9
$DIMLWD
 70
    -2
  9
$DIMLWE
 70
    -2
  9
$DIMTMOVE
 70
     0
  9
$LUNITS
 70
     2
  9
$LUPREC
 70
     6
  9
$SKETCHINC
 40
0.1
  9
$FILLETRAD
 40
0.0
  9
$AUNITS
 70
     0
  9
$AUPREC
 70
     2
  9
$MENU
  1
.
  9
$ELEVATION
 40
0.0
  9
$PELEVATION
 40
0.0
  9
$THICKNESS
 40
0.0
  9
$LIMCHECK
 70
     0
  9
$CHAMFERA
 40
0.0
  9
$CHAMFERB
 40
0.0
  9
$CHAMFERC
 40
0.0
  9
$CHAMFERD
 40
0.0
  9
$SKPOLY
 70
     0
  9
$TDCREATE
 40
2460387.079475914
  9
$TDUCREATE
 40
2460387.287809248
  9
$TDUPDATE
 40
2460387.079513183
  9
$TDUUPDATE
 40
2460387.287846517
  9
$TDINDWG
 40
0.0000000116
  9
$TDUSRTIMER
 40
0.0000000116
  9
$USRTIMER
 70
     1
  9
$ANGBASE
 50
0.0
  9
$ANGDIR
 70
     0
  9
$PDMODE
 70
     0
  9
$PDSIZE
 40
-1.0
  9
$PLINEWID
 40
0.0
  9
$SPLFRAME
 70
     0
  9
$SPLINETYPE
 70
     6
  9
$SPLINESEGS
 70
     8
  9
$HANDSEED
  5
3DC
  9
$SURFTAB1
 70
     6
  9
$SURFTAB2
 70
     6
  9
$SURFTYPE
 70
     6
  9
$SURFU
 70
     6
  9
$SURFV
 70
     6
  9
$UCSBASE
  2

  9
$UCSNAME
  2

  9
$UCSORG
 10
0.0
 20
0.0
 30
0.0
  9
$UCSXDIR
 10
1.0
 20
0.0
 30
0.0
  9
$UCSYDIR
 10
0.0
 20
1.0
 30
0.0
  9
$UCSORTHOREF
  2

  9
$UCSORTHOVIEW
 70
     0
  9
$UCSORGTOP
 10
0.0
 20
0.0
 30
0.0
  9
$UCSORGBOTTOM
 10
0.0
 20
0.0
 30
0.0
  9
$UCSORGLEFT
 10
0.0
 20
0.0
 30
0.0
  9
$UCSORGRIGHT
 10
0.0
 20
0.0
 30
0.0
  9
$UCSORGFRONT
 10
0.0
 20
0.0
 30
0.0
  9
$UCSORGBACK
 10
0.0
 20
0.0
 30
0.0
  9
$PUCSBASE
  2

  9
$PUCSNAME
  2

  9
$PUCSORG
 10
0.0
 20
0.0
 30
0.0
  9
$PUCSXDIR
 10
1.0
 20
0.0
 30
0.0
  9
$PUCSYDIR
 10
0.0
 20
1.0
 30
0.0
  9
$PUCSORTHOREF
  2

  9
$PUCSORTHOVIEW
 70
     0
  9
$PUCSORGTOP
 10
0.0
 20
0.0
 30
0.0
  9
$PUCSORGBOTTOM
 10
0.0
 20
0.0
 30
0.0
  9
$PUCSORGLEFT
 10
0.0
 20
0.0
 30
0.0
  9
$PUCSORGRIGHT
 10
0.0
 20
0.0
 30
0.0
  9
$PUCSORGFRONT
 10
0.0
 20
0.0
 30
0.0
  9
$PUCSORGBACK
 10
0.0
 20
0.0
 30
0.0
  9
$USERI1
 70
     0
  9
$USERI2
 70
     0
  9
$USERI3
 70
     0
  9
$USERI4
 70
     0
  9
$USERI5
 70
     0
  9
$USERR1
 40
0.0
  9
$USERR2
 40
0.0
  9
$USERR3
 40
0.0
  9
$USERR4
 40
0.0
  9
$USERR5
 40
0.0
  9
$WORLDVIEW
 70
     1
  9
$SHADEDGE
 70
     3
  9
$SHADEDIF
 70
    70
  9
$TILEMODE
 70
     1
  9
$MAXACTVP
 70
    64
  9
$PINSBASE
 10
0.0
 20
0.0
 30
0.0
  9
$PLIMCHECK
 70
     0
  9
$PEXTMIN
 10
1.0000000000E+20
 20
1.0000000000E+20
 30
1.0000000000E+20
  9
$PEXTMAX
 10
-1.0000000000E+20
 20
-1.0000000000E+20
 30
-1.0000000000E+20
  9
$PLIMMIN
 10
0.0
 20
0.0
  9
$PLIMMAX
 10
12.0
 20
9.0
  9
$UNITMODE
 70
     0
  9
$VISRETAIN
 70
     1
  9
$PLINEGEN
 70
     0
  9
$PSLTSCALE
 70
     1
  9
$TREEDEPTH
 70
  3020
  9
$CMLSTYLE
  2
Standard
  9
$CMLJUST
 70
     0
  9
$CMLSCALE
 40
1.0
  9
$PROXYGRAPHICS
 70
     1
  9
$MEASUREMENT
 70
     0
  9
$CELWEIGHT
370
    -1
  9
$ENDCAPS
280
     0
  9
$JOINSTYLE
280
     0
  9
$LWDISPLAY
290
     1
  9
$INSUNITS
 70
     1
  9
$HYPERLINKBASE
  1

  9
$STYLESHEET
  1

  9
$XEDIT
290
     1
  9
$CEPSNTYPE
380
     0
  9
$PSTYLEMODE
290
     1
  9
$FINGERPRINTGUID
  2
{a90d9d53-58d1-474f-8e48-3359982dd173}
  9
$VERSIONGUID
  2
{FAEB1C32-E019-11D5-929B-00C0DF256EC4}
  9
$EXTNAMES
290
     1
  9
$PSVPSCALE
 40
0.0
  9
$OLESTARTUP
290
     0
  0
ENDSEC
  0
SECTION
  2
CLASSES
  0
CLASS
  1
ACDBDICTIONARYWDFLT
  2
AcDbDictionaryWithDefault
  3
ObjectDBX Classes
 90
        0
280
     0
281
     0
  0
CLASS
  1
VISUALSTYLE
  2
AcDbVisualStyle
  3
ObjectDBX Classes
 90
     4095
280
     0
281
     0
  0
CLASS
  1
MATERIAL
  2
AcDbMaterial
  3
ObjectDBX Classes
 90
     1153
280
     0
281
     0
  0
CLASS
  1
SCALE
  2
AcDbScale
  3
ObjectDBX Classes
 90
     1153
280
     0
281
     0
  0
CLASS
  1
TABLESTYLE
  2
AcDbTableStyle
  3
ObjectDBX Classes
 90
     4095
280
     0
281
     0
  0
CLASS
  1
MLEADERSTYLE
  2
AcDbMLeaderStyle
  3
ACDB_MLEADERSTYLE_CLASS
 90
     4095
280
     0
281
     0
  0
CLASS
  1
SUN
  2
AcDbSun
  3
SCENEOE
 90
     1153
280
     0
281
     0
  0
CLASS
  1
ACDBPLACEHOLDER
  2
AcDbPlaceHolder
  3
ObjectDBX Classes
 90
        0
280
     0
281
     0
  0
CLASS
  1
LAYOUT
  2
AcDbLayout
  3
ObjectDBX Classes
 90
        0
280
     0
281
     0
  0
ENDSEC
  0
SECTION
  2
TABLES
  0
TABLE
  2
VPORT
  5
8
330
0
100
AcDbSymbolTable
 70
     1
  0
VPORT
  5
29
330
8
100
AcDbSymbolTableRecord
100
AcDbViewportTableRecord
  2
*Active
 70
     0
 10
0.0
 20
0.0
 11
1.0
 21
1.0
 12
1.25
 22
2.03125
 13
0.0
 23
0.0
 14
0.5
 24
0.5
 15
0.5
 25
0.5
 16
0.0
 26
0.0
 36
1.0
 17
0.0
 27
0.0
 37
0.0
 40
4.14375
 41
0.6153846154
 42
50.0
 43
0.0
 44
0.0
 50
0.0
 51
0.0
 71
     0
 72
   100
 73
     1
 74
     3
 75
     0
 76
     0
 77
     0
 78
     0
281
     0
 65
     1
110
0.0
120
0.0
130
0.0
111
1.0
121
0.0
131
0.0
112
0.0
122
1.0
132
0.0
 79
     0
146
0.0
  0
ENDTAB
  0
TABLE
  2
LTYPE
  5
5
330
0
100
AcDbSymbolTable
 70
     6
  0
LTYPE
  5
14
330
5
100
AcDbSymbolTableRecord
100
AcDbLinetypeTableRecord
  2
ByBlock
 70
     0
  3

 72
    65
 73
     0
 40
0.0
  0
LTYPE
  5
15
330
5
100
AcDbSymbolTableRecord
100
AcDbLinetypeTableRecord
  2
ByLayer
 70
     0
  3

 72
    65
 73
     0
 40
0.0
  0
LTYPE
  5
16
330
5
100
AcDbSymbolTableRecord
100
AcDbLinetypeTableRecord
  2
Continuous
 70
     0
  3
Solid line
 72
    65
 73
     0
 40
0.0
  0
LTYPE
  5
5E
330
5
100
AcDbSymbolTableRecord
100
AcDbLinetypeTableRecord
  2
HIDDEN
 70
     0
  3
Hidden __ __ __ __ __ __ __ __ __ __ __ __ __ __
 72
    65
 73
     2
 40
0.075
 49
0.05
 74
     0
 49
-0.025
 74
     0
  0
LTYPE
  5
5F
330
5
100
AcDbSymbolTableRecord
100
AcDbLinetypeTableRecord
  2
PHANTOM
 70
     0
  3
Phantom ______  __  __  ______  __  __  ______
 72
    65
 73
     6
 40
0.5
 49
0.25
 74
     0
 49
-0.05
 74
     0
 49
0.05
 74
     0
 49
-0.05
 74
     0
 49
0.05
 74
     0
 49
-0.05
 74
     0
  0
LTYPE
  5
60
330
5
100
AcDbSymbolTableRecord
100
AcDbLinetypeTableRecord
  2
CENTER
 70
     0
  3
Center ____ _ ____ _ ____ _ ____ _ ____ _ ____
 72
    65
 73
     4
 40
0.4
 49
0.25
 74
     0
 49
-0.05
 74
     0
 49
0.05
 74
     0
 49
-0.05
 74
     0
  0
LTYPE
  5
61
330
5
100
AcDbSymbolTableRecord
100
AcDbLinetypeTableRecord
  2
CENTERX2
 70
     0
  3
Center (2x) ________  __  ________  __  _____
 72
    65
 73
     4
 40
0.8
 49
0.5
 74
     0
 49
-0.1
 74
     0
 49
0.1
 74
     0
 49
-0.1
 74
     0
  0
LTYPE
  5
62
330
5
100
AcDbSymbolTableRecord
100
AcDbLinetypeTableRecord
  2
DOT2
 70
     0
  3
Dot (.5x) ........................................
 72
    65
 73
     2
 40
0.025
 49
0.0
 74
     0
 49
-0.025
 74
     0
  0
ENDTAB
  0
TABLE
  2
LAYER
  5
2
330
0
100
AcDbSymbolTable
 70
     1
  0
LAYER
  5
10
330
2
100
AcDbSymbolTableRecord
100
AcDbLayerTableRecord
  2
0
 70
     0
 62
     7
  6
Continuous
370
    -3
390
F
  0
ENDTAB
  0
TABLE
  2
STYLE
  5
3
330
0
100
AcDbSymbolTable
 70
     2
  0
STYLE
  5
11
330
3
100
AcDbSymbolTableRecord
100
AcDbTextStyleTableRecord
  2
Standard
 70
     0
 40
0.0
 41
1.0
 50
0.0
 71
     0
 42
0.1377952756
  3
txt
  4

  0
STYLE
  5
3D8
330
3
100
AcDbSymbolTableRecord
100
AcDbTextStyleTableRecord
  2
SLDTEXTSTYLE0
 70
     0
 40
0.0
 41
0.7
 50
0.0
 71
     0
 42
0.1377952756
  3
TXT
  4

  0
ENDTAB
  0
TABLE
  2
VIEW
  5
6
330
0
100
AcDbSymbolTable
 70
     0
  0
ENDTAB
  0
TABLE
  2
UCS
  5
7
330
0
100
AcDbSymbolTable
 70
     0
  0
ENDTAB
  0
TABLE
  2
APPID
  5
9
330
0
100
AcDbSymbolTable
 70
     1
  0
APPID
  5
12
330
9
100
AcDbSymbolTableRecord
100
AcDbRegAppTableRecord
  2
ACAD
 70
     0
  0
ENDTAB
  0
TABLE
  2
DIMSTYLE
  5
A
330
0
100
AcDbSymbolTable
 70
     1
100
AcDbDimStyleTable
  0
DIMSTYLE
105
27
330
A
100
AcDbSymbolTableRecord
100
AcDbDimStyleTableRecord
  2
Standard
 70
     0
178
     0
340
11
  0
ENDTAB
  0
TABLE
  2
BLOCK_RECORD
  5
1
330
0
100
AcDbSymbolTable
 70
     1
  0
BLOCK_RECORD
  5
1F
330
1
100
AcDbSymbolTableRecord
100
AcDbBlockTableRecord
  2
*Model_Space
340
22
  0
BLOCK_RECORD
  5
1B
330
1
100
AcDbSymbolTableRecord
100
AcDbBlockTableRecord
  2
*Paper_Space
340
1E
  0
BLOCK_RECORD
  5
23
330
1
100
AcDbSymbolTableRecord
100
AcDbBlockTableRecord
  2
*Paper_Space0
340
26
  0
ENDTAB
  0
ENDSEC
  0
SECTION
  2
BLOCKS
  0
BLOCK
  5
20
330
1F
100
AcDbEntity
  8
0
100
AcDbBlockBegin
  2
*Model_Space
 70
     0
 10
0.0
 20
0.0
 30
0.0
  3
*Model_Space
  1

  0
ENDBLK
  5
21
330
1F
100
AcDbEntity
  8
0
100
AcDbBlockEnd
  0
BLOCK
  5
1C
330
1B
100
AcDbEntity
 67
     1
  8
0
100
AcDbBlockBegin
  2
*Paper_Space
 70
     0
 10
0.0
 20
0.0
 30
0.0
  3
*Paper_Space
  1

  0
ENDBLK
  5
1D
330
1B
100
AcDbEntity
 67
     1
  8
0
100
AcDbBlockEnd
  0
BLOCK
  5
24
330
23
100
AcDbEntity
  8
0
100
AcDbBlockBegin
  2
*Paper_Space0
 70
     0
 10
0.0
 20
0.0
 30
0.0
  3
*Paper_Space0
  1

  0
ENDBLK
  5
25
330
23
100
AcDbEntity
  8
0
100
AcDbBlockEnd
  0
ENDSEC
  0
SECTION
  2
ENTITIES
  0
LINE
  5
63
330
1F
100
AcDbEntity
  8
0
  6
Continuous
 62
   254
370
    25
100
AcDbLine
 10
1.5988781777
 20
1.0482566389
 30
0.0
 11
1.5315109645
 21
1.0378645769
 31
0.0
  0
LINE
  5
64
330
1F
100
AcDbEntity
  8
0
  6
Continuous
 62
   254
370
    25
100
AcDbLine
 10
1.6651117954
 20
1.0627474665
 30
0.0
 11
1.5988781777
 21
1.0482566389
 31
0.0
  0
LINE
  5
65
330
1F
100
AcDbEntity
  8
0
  6
Continuous
 62
   254
370
    25
100
AcDbLine
 10
1.72942689
 20
1.08351722
 30
0.0
 11
1.6651117954
 21
1.0627474665
 31
0.0
  0
LINE
  5
66
330
1F
100
AcDbEntity
  8
0
  6
Continuous
 62
   254
370
    25
100
AcDbLine
 10
1.7606197043
 20
1.0969379826
 30
0.0
 11
1.72942689
 21
1.08351722
 31
0.0
  0
LINE
  5
67
330
1F
100
AcDbEntity
  8
0
  6
Continuous
 62
   254
370
    25
100
AcDbLine
 10
1.7910385339
 20
1.1127460593
 30
0.0
 11
1.7606197043
 21
1.0969379826
 31
0.0
  0
LINE
  5
68
330
1F
100
AcDbEntity
  8
0
  6
Continuous
 62
   254
370
    25
100
AcDbLine
 10
1.8200075489
 20
1.1307323185
 30
0.0
 11
1.7910385339
 21
1.1127460593
 31
0.0
  0
LINE
  5
69
330
1F
100
AcDbEntity
  8
0
  6
Continuous
 62
   254
370
    25
100
AcDbLine
 10
1.8467200683
 20
1.1505935606
 30
0.0
 11
1.8200075489
 21
1.1307323185
 31
0.0
  0
LINE
  5
6A
330
1F
100
AcDbEntity
  8
0
  6
Continuous
 62
   254
370
    25
100
AcDbLine
 10
1.8708818082
 20
1.1724606041
 30
0.0
 11
1.8467200683
 21
1.1505935606
 31
0.0
  0
LINE
  5
6B
330
1F
100
AcDbEntity
  8
0
  6
Continuous
 62
   254
370
    25
100
AcDbLine
 10
1.8921984021
 20
1.1964642345
 30
0.0
 11
1.8708818082
 21
1.1724606041
 31
0.0
  0
LINE
  5
6C
330
1F
100
AcDbEntity
  8
0
  6
Continuous
 62
   254
370
    25
100
AcDbLine
 10
1.9103755661
 20
1.2227352538
 30
0.0
 11
1.8921984021
 21
1.1964642345
 31
0.0
  0
LINE
  5
6D
330
1F
100
AcDbEntity
  8
0
  6
Continuous
 62
   254
370
    25
100
AcDbLine
 10
1.9251189668
 20
1.2514044807
 30
0.0
 11
1.9103755661
 21
1.2227352538
 31
0.0
  0
LINE
  5
6E
330
1F
100
AcDbEntity
  8
0
  6
Continuous
 62
   254
370
    25
100
AcDbLine
 10
1.9361342706
 20
1.282602684
 30
0.0
 11
1.9251189668
 21
1.2514044807
 31
0.0
  0
LINE
  5
6F
330
1F
100
AcDbEntity
  8
0
  6
Continuous
 62
   254
370
    25
100
AcDbLine
 10
1.9431271608
 20
1.3164606988
 30
0.0
 11
1.9361342706
 21
1.282602684
 31
0.0
  0
LINE
  5
70
330
1F
100
AcDbEntity
  8
0
  6
Continuous
 62
   254
370
    25
100
AcDbLine
 10
1.9524873586
 20
1.4188993847
 30
0.0
 11
1.9431271608
 21
1.3164606988
 31
0.0
  0
LINE
  5
71
330
1F
100
AcDbEntity
  8
0
  6
Continuous
 62
   254
370
    25
100
AcDbLine
 10
1.9552198305
 20
1.5220359341
 30
0.0
 11
1.9524873586
 21
1.4188993847
 31
0.0
  0
LINE
  5
72
330
1F
100
AcDbEntity
  8
0
  6
Continuous
 62
   254
370
    25
100
AcDbLine
 10
1.9541469804
 20
1.5497928757
 30
0.0
 11
1.9552198305
 21
1.5220359341
 31
0.0
  0
LINE
  5
73
330
1F
100
AcDbEntity
  8
0
  6
Continuous
 62
   254
370
    25
100
AcDbLine
 10
1.9502998812
 20
1.5765688103
 30
0.0
 11
1.9541469804
 21
1.5497928757
 31
0.0
  0
LINE
  5
74
330
1F
100
AcDbEntity
  8
0
  6
Continuous
 62
   254
370
    25
100
AcDbLine
 10
1.9437820774
 20
1.6023855081
 30
0.0
 11
1.9502998812
 21
1.5765688103
 31
0.0
  0
LINE
  5
75
330
1F
100
AcDbEntity
  8
0
  6
Continuous
 62
   254
370
    25
100
AcDbLine
 10
1.9346971293
 20
1.6272648051
 30
0.0
 11
1.9437820774
 21
1.6023855081
 31
0.0
  0
LINE
  5
76
330
1F
100
AcDbEntity
  8
0
  6
Continuous
 62
   254
370
    25
100
AcDbLine
 10
1.9231485974
 20
1.6512284384
 30
0.0
 11
1.9346971293
 21
1.6272648051
 31
0.0
  0
LINE
  5
77
330
1F
100
AcDbEntity
  8
0
  6
Continuous
 62
   254
370
    25
100
AcDbLine
 10
1.9092400258
 20
1.6742982442
 30
0.0
 11
1.9231485974
 21
1.6512284384
 31
0.0
  0
LINE
  5
78
330
1F
100
AcDbEntity
  8
0
  6
Continuous
 62
   254
370
    25
100
AcDbLine
 10
1.8747570551
 20
1.7178434535
 30
0.0
 11
1.9092400258
 21
1.6742982442
 31
0.0
  0
LINE
  5
79
330
1F
100
AcDbEntity
  8
0
  6
Continuous
 62
   254
370
    25
100
AcDbLine
 10
1.8466417882
 20
1.7456460612
 30
0.0
 11
1.8747570551
 21
1.7178434535
 31
0.0
  0
LINE
  5
7A
330
1F
100
AcDbEntity
  8
0
  6
Continuous
 62
   254
370
    25
100
AcDbLine
 10
1.8168369717
 20
1.7706471457
 30
0.0
 11
1.8466417882
 21
1.7456460612
 31
0.0
  0
LINE
  5
7B
330
1F
100
AcDbEntity
  8
0
  6
Continuous
 62
   254
370
    25
100
AcDbLine
 10
1.7855279073
 20
1.7931410402
 30
0.0
 11
1.8168369717
 21
1.7706471457
 31
0.0
  0
LINE
  5
7C
330
1F
100
AcDbEntity
  8
0
  6
Continuous
 62
   254
370
    25
100
AcDbLine
 10
1.7528998962
 20
1.8134220618
 30
0.0
 11
1.7855279073
 21
1.7931410402
 31
0.0
  0
LINE
  5
7D
330
1F
100
AcDbEntity
  8
0
  6
Continuous
 62
   254
370
    25
100
AcDbLine
 10
1.6844281747
 20
1.8485227865
 30
0.0
 11
1.7528998962
 21
1.8134220618
 31
0.0
  0
LINE
  5
7E
330
1F
100
AcDbEntity
  8
0
  6
Continuous
 62
   254
370
    25
100
AcDbLine
 10
1.612904153
 20
1.8783039377
 30
0.0
 11
1.6844281747
 21
1.8485227865
 31
0.0
  0
LINE
  5
7F
330
1F
100
AcDbEntity
  8
0
  6
Continuous
 62
   254
370
    25
100
AcDbLine
 10
1.4522119597
 20
1.9367324465
 30
0.0
 11
1.612904153
 21
1.8783039377
 31
0.0
  0
LINE
  5
80
330
1F
100
AcDbEntity
  8
0
  6
Continuous
 62
   254
370
    25
100
AcDbLine
 10
1.2915187775
 20
1.9955097718
 30
0.0
 11
1.4522119597
 21
1.9367324465
 31
0.0
  0
LINE
  5
81
330
1F
100
AcDbEntity
  8
0
  6
Continuous
 62
   254
370
    25
100
AcDbLine
 10
1.2473749146
 20
2.014089164
 30
0.0
 11
1.2915187775
 21
1.9955097718
 31
0.0
  0
LINE
  5
82
330
1F
100
AcDbEntity
  8
0
  6
Continuous
 62
   254
370
    25
100
AcDbLine
 10
1.2117609522
 20
2.0331318923
 30
0.0
 11
1.2473749146
 21
2.014089164
 31
0.0
  0
LINE
  5
83
330
1F
100
AcDbEntity
  8
0
  6
Continuous
 62
   254
370
    25
100
AcDbLine
 10
1.1839192867
 20
2.0535808619
 30
0.0
 11
1.2117609522
 21
2.0331318923
 31
0.0
  0
LINE
  5
84
330
1F
100
AcDbEntity
  8
0
  6
Continuous
 62
   254
370
    25
100
AcDbLine
 10
1.1630922981
 20
2.0763790107
 30
0.0
 11
1.1839192867
 21
2.0535808619
 31
0.0
  0
LINE
  5
85
330
1F
100
AcDbEntity
  8
0
  6
Continuous
 62
   254
370
    25
100
AcDbLine
 10
1.1485224158
 20
2.1024692276
 30
0.0
 11
1.1630922981
 21
2.0763790107
 31
0.0
  0
LINE
  5
86
330
1F
100
AcDbEntity
  8
0
  6
Continuous
 62
   254
370
    25
100
AcDbLine
 10
1.1394519866
 20
2.1327944671
 30
0.0
 11
1.1485224158
 21
2.1024692276
 31
0.0
  0
LINE
  5
87
330
1F
100
AcDbEntity
  8
0
  6
Continuous
 62
   254
370
    25
100
AcDbLine
 10
1.1351234397
 20
2.1682976178
 30
0.0
 11
1.1394519866
 21
2.1327944671
 31
0.0
  0
LINE
  5
88
330
1F
100
AcDbEntity
  8
0
  6
Continuous
 62
   254
370
    25
100
AcDbLine
 10
1.1347791554
 20
2.2127122147
 30
0.0
 11
1.1351234397
 21
2.1682976178
 31
0.0
  0
LINE
  5
89
330
1F
100
AcDbEntity
  8
0
  6
Continuous
 62
   254
370
    25
100
AcDbLine
 10
1.1375406982
 20
2.2336490922
 30
0.0
 11
1.1347791554
 21
2.2127122147
 31
0.0
  0
LINE
  5
8A
330
1F
100
AcDbEntity
  8
0
  6
Continuous
 62
   254
370
    25
100
AcDbLine
 10
1.1457090598
 20
2.2511413295
 30
0.0
 11
1.1375406982
 21
2.2336490922
 31
0.0
  0
LINE
  5
8B
330
1F
100
AcDbEntity
  8
0
  6
Continuous
 62
   254
370
    25
100
AcDbLine
 10
1.1591098321
 20
2.2641860176
 30
0.0
 11
1.1457090598
 21
2.2511413295
 31
0.0
  0
LINE
  5
8C
330
1F
100
AcDbEntity
  8
0
  6
Continuous
 62
   254
370
    25
100
AcDbLine
 10
1.1775685739
 20
2.2717802809
 30
0.0
 11
1.1591098321
 21
2.2641860176
 31
0.0
  0
LINE
  5
8D
330
1F
100
AcDbEntity
  8
0
  6
Continuous
 62
   254
370
    25
100
AcDbLine
 10
1.2320437865
 20
2.2805590958
 30
0.0
 11
1.1775685739
 21
2.2717802809
 31
0.0
  0
LINE
  5
8E
330
1F
100
AcDbEntity
  8
0
  6
Continuous
 62
   254
370
    25
100
AcDbLine
 10
1.2596519958
 20
2.2820488744
 30
0.0
 11
1.2320437865
 21
2.2805590958
 31
0.0
  0
LINE
  5
8F
330
1F
100
AcDbEntity
  8
0
  6
Continuous
 62
   254
370
    25
100
AcDbLine
 10
1.2868677824
 20
2.2806172374
 30
0.0
 11
1.2596519958
 21
2.2820488744
 31
0.0
  0
LINE
  5
90
330
1F
100
AcDbEntity
  8
0
  6
Continuous
 62
   254
370
    25
100
AcDbLine
 10
1.3068972033
 20
2.2771571225
 30
0.0
 11
1.2868677824
 21
2.2806172374
 31
0.0
  0
LINE
  5
91
330
1F
100
AcDbEntity
  8
0
  6
Continuous
 62
   254
370
    25
100
AcDbLine
 10
1.3235310121
 20
2.271598605
 30
0.0
 11
1.3068972033
 21
2.2771571225
 31
0.0
  0
LINE
  5
92
330
1F
100
AcDbEntity
  8
0
  6
Continuous
 62
   254
370
    25
100
AcDbLine
 10
1.3369926617
 20
2.2638490339
 30
0.0
 11
1.3235310121
 21
2.271598605
 31
0.0
  0
LINE
  5
93
330
1F
100
AcDbEntity
  8
0
  6
Continuous
 62
   254
370
    25
100
AcDbLine
 10
1.3475056211
 20
2.2538157093
 30
0.0
 11
1.3369926617
 21
2.2638490339
 31
0.0
  0
LINE
  5
94
330
1F
100
AcDbEntity
  8
0
  6
Continuous
 62
   254
370
    25
100
AcDbLine
 10
1.3552933599
 20
2.2414060133
 30
0.0
 11
1.3475056211
 21
2.2538157093
 31
0.0
  0
LINE
  5
95
330
1F
100
AcDbEntity
  8
0
  6
Continuous
 62
   254
370
    25
100
AcDbLine
 10
1.3605793637
 20
2.2265272787
 30
0.0
 11
1.3552933599
 21
2.2414060133
 31
0.0
  0
LINE
  5
96
330
1F
100
AcDbEntity
  8
0
  6
Continuous
 62
   254
370
    25
100
AcDbLine
 10
1.3645399937
 20
2.188992041
 30
0.0
 11
1.3605793637
 21
2.2265272787
 31
0.0
  0
LINE
  5
97
330
1F
100
AcDbEntity
  8
0
  6
Continuous
 62
   254
370
    25
100
AcDbLine
 10
1.3645399937
 20
2.0606236207
 30
0.0
 11
1.3645399937
 21
2.188992041
 31
0.0
  0
LINE
  5
98
330
1F
100
AcDbEntity
  8
0
  6
Continuous
 62
   254
370
    25
100
AcDbLine
 10
1.9180120346
 20
2.0606236207
 30
0.0
 11
1.3645399937
 21
2.0606236207
 31
0.0
  0
LINE
  5
99
330
1F
100
AcDbEntity
  8
0
  6
Continuous
 62
   254
370
    25
100
AcDbLine
 10
1.9187751261
 20
2.1229256132
 30
0.0
 11
1.9180120346
 21
2.0606236207
 31
0.0
  0
LINE
  5
9A
330
1F
100
AcDbEntity
  8
0
  6
Continuous
 62
   254
370
    25
100
AcDbLine
 10
1.9129541146
 20
2.1833526559
 30
0.0
 11
1.9187751261
 21
2.1229256132
 31
0.0
  0
LINE
  5
9B
330
1F
100
AcDbEntity
  8
0
  6
Continuous
 62
   254
370
    25
100
AcDbLine
 10
1.9067161252
 20
2.2127676865
 30
0.0
 11
1.9129541146
 21
2.1833526559
 31
0.0
  0
LINE
  5
9C
330
1F
100
AcDbEntity
  8
0
  6
Continuous
 62
   254
370
    25
100
AcDbLine
 10
1.8978019596
 20
2.2415995053
 30
0.0
 11
1.9067161252
 21
2.2127676865
 31
0.0
  0
LINE
  5
9D
330
1F
100
AcDbEntity
  8
0
  6
Continuous
 62
   254
370
    25
100
AcDbLine
 10
1.8858682564
 20
2.2698099775
 30
0.0
 11
1.8978019596
 21
2.2415995053
 31
0.0
  0
LINE
  5
9E
330
1F
100
AcDbEntity
  8
0
  6
Continuous
 62
   254
370
    25
100
AcDbLine
 10
1.870571621
 20
2.2973609515
 30
0.0
 11
1.8858682564
 21
2.2698099775
 31
0.0
  0
LINE
  5
9F
330
1F
100
AcDbEntity
  8
0
  6
Continuous
 62
   254
370
    25
100
AcDbLine
 10
1.8504259335
 20
2.3254315411
 30
0.0
 11
1.870571621
 21
2.2973609515
 31
0.0
  0
LINE
  5
A0
330
1F
100
AcDbEntity
  8
0
  6
Continuous
 62
   254
370
    25
100
AcDbLine
 10
1.8278329775
 20
2.3498667177
 30
0.0
 11
1.8504259335
 21
2.3254315411
 31
0.0
  0
LINE
  5
A1
330
1F
100
AcDbEntity
  8
0
  6
Continuous
 62
   254
370
    25
100
AcDbLine
 10
1.8030489352
 20
2.3709989165
 30
0.0
 11
1.8278329775
 21
2.3498667177
 31
0.0
  0
LINE
  5
A2
330
1F
100
AcDbEntity
  8
0
  6
Continuous
 62
   254
370
    25
100
AcDbLine
 10
1.7763299884
 20
2.3891606552
 30
0.0
 11
1.8030489352
 21
2.3709989165
 31
0.0
  0
LINE
  5
A3
330
1F
100
AcDbEntity
  8
0
  6
Continuous
 62
   254
370
    25
100
AcDbLine
 10
1.7479323197
 20
2.4046843689
 30
0.0
 11
1.7763299884
 21
2.3891606552
 31
0.0
  0
LINE
  5
A4
330
1F
100
AcDbEntity
  8
0
  6
Continuous
 62
   254
370
    25
100
AcDbLine
 10
1.7181120944
 20
2.4179025424
 30
0.0
 11
1.7479323197
 21
2.4046843689
 31
0.0
  0
LINE
  5
A5
330
1F
100
AcDbEntity
  8
0
  6
Continuous
 62
   254
370
    25
100
AcDbLine
 10
1.6552286697
 20
2.438752224
 30
0.0
 11
1.7181120944
 21
2.4179025424
 31
0.0
  0
LINE
  5
A6
330
1F
100
AcDbEntity
  8
0
  6
Continuous
 62
   254
370
    25
100
AcDbLine
 10
1.5427322194
 20
2.4650887185
 30
0.0
 11
1.6552286697
 21
2.438752224
 31
0.0
  0
LINE
  5
A7
330
1F
100
AcDbEntity
  8
0
  6
Continuous
 62
   254
370
    25
100
AcDbLine
 10
1.426398459
 20
2.4889833665
 30
0.0
 11
1.5427322194
 21
2.4650887185
 31
0.0
  0
LINE
  5
A8
330
1F
100
AcDbEntity
  8
0
  6
Continuous
 62
   254
370
    25
100
AcDbLine
 10
1.426398459
 20
2.6206074174
 30
0.0
 11
1.426398459
 21
2.4889833665
 31
0.0
  0
LINE
  5
A9
330
1F
100
AcDbEntity
  8
0
  6
Continuous
 62
   254
370
    25
100
AcDbLine
 10
1.1347793202
 20
2.6206074174
 30
0.0
 11
1.426398459
 21
2.6206074174
 31
0.0
  0
LINE
  5
AA
330
1F
100
AcDbEntity
  8
0
  6
Continuous
 62
   254
370
    25
100
AcDbLine
 10
1.1347793202
 20
2.4843323714
 30
0.0
 11
1.1347793202
 21
2.6206074174
 31
0.0
  0
LINE
  5
AB
330
1F
100
AcDbEntity
  8
0
  6
Continuous
 62
   254
370
    25
100
AcDbLine
 10
1.0719903921
 20
2.4773558293
 30
0.0
 11
1.1347793202
 21
2.4843323714
 31
0.0
  0
LINE
  5
AC
330
1F
100
AcDbEntity
  8
0
  6
Continuous
 62
   254
370
    25
100
AcDbLine
 10
0.9846601067
 20
2.4633445705
 30
0.0
 11
1.0719903921
 21
2.4773558293
 31
0.0
  0
LINE
  5
AD
330
1F
100
AcDbEntity
  8
0
  6
Continuous
 62
   254
370
    25
100
AcDbLine
 10
0.8990304782
 20
2.4437521179
 30
0.0
 11
0.9846601067
 21
2.4633445705
 31
0.0
  0
LINE
  5
AE
330
1F
100
AcDbEntity
  8
0
  6
Continuous
 62
   254
370
    25
100
AcDbLine
 10
0.8571122768
 20
2.4309363538
 30
0.0
 11
0.8990304782
 21
2.4437521179
 31
0.0
  0
LINE
  5
AF
330
1F
100
AcDbEntity
  8
0
  6
Continuous
 62
   254
370
    25
100
AcDbLine
 10
0.8159298758
 20
2.4156133998
 30
0.0
 11
0.8571122768
 21
2.4309363538
 31
0.0
  0
LINE
  5
B0
330
1F
100
AcDbEntity
  8
0
  6
Continuous
 62
   254
370
    25
100
AcDbLine
 10
0.7755868194
 20
2.39741262
 30
0.0
 11
0.8159298758
 21
2.4156133998
 31
0.0
  0
LINE
  5
B1
330
1F
100
AcDbEntity
  8
0
  6
Continuous
 62
   254
370
    25
100
AcDbLine
 10
0.7361866351
 20
2.3759634112
 30
0.0
 11
0.7755868194
 21
2.39741262
 31
0.0
  0
LINE
  5
B2
330
1F
100
AcDbEntity
  8
0
  6
Continuous
 62
   254
370
    25
100
AcDbLine
 10
0.6936887485
 20
2.3464890359
 30
0.0
 11
0.7361866351
 21
2.3759634112
 31
0.0
  0
LINE
  5
B3
330
1F
100
AcDbEntity
  8
0
  6
Continuous
 62
   254
370
    25
100
AcDbLine
 10
0.6573879972
 20
2.3124909408
 30
0.0
 11
0.6936887485
 21
2.3464890359
 31
0.0
  0
LINE
  5
B4
330
1F
100
AcDbEntity
  8
0
  6
Continuous
 62
   254
370
    25
100
AcDbLine
 10
0.6275078669
 20
2.2745032273
 30
0.0
 11
0.6573879972
 21
2.3124909408
 31
0.0
  0
LINE
  5
B5
330
1F
100
AcDbEntity
  8
0
  6
Continuous
 62
   254
370
    25
100
AcDbLine
 10
0.6042717941
 20
2.2330600133
 30
0.0
 11
0.6275078669
 21
2.2745032273
 31
0.0
  0
LINE
  5
B6
330
1F
100
AcDbEntity
  8
0
  6
Continuous
 62
   254
370
    25
100
AcDbLine
 10
0.5879032644
 20
2.1886954168
 30
0.0
 11
0.6042717941
 21
2.2330600133
 31
0.0
  0
LINE
  5
B7
330
1F
100
AcDbEntity
  8
0
  6
Continuous
 62
   254
370
    25
100
AcDbLine
 10
0.5786257472
 20
2.141943539
 30
0.0
 11
0.5879032644
 21
2.1886954168
 31
0.0
  0
LINE
  5
B8
330
1F
100
AcDbEntity
  8
0
  6
Continuous
 62
   254
370
    25
100
AcDbLine
 10
0.5766626949
 20
2.0933385144
 30
0.0
 11
0.5786257472
 21
2.141943539
 31
0.0
  0
LINE
  5
B9
330
1F
100
AcDbEntity
  8
0
  6
Continuous
 62
   254
370
    25
100
AcDbLine
 10
0.5822375772
 20
2.0434144609
 30
0.0
 11
0.5766626949
 21
2.0933385144
 31
0.0
  0
LINE
  5
BA
330
1F
100
AcDbEntity
  8
0
  6
Continuous
 62
   254
370
    25
100
AcDbLine
 10
0.5909564214
 20
2.0078024926
 30
0.0
 11
0.5822375772
 21
2.0434144609
 31
0.0
  0
LINE
  5
BB
330
1F
100
AcDbEntity
  8
0
  6
Continuous
 62
   254
370
    25
100
AcDbLine
 10
0.6033270433
 20
1.974790332
 30
0.0
 11
0.5909564214
 21
2.0078024926
 31
0.0
  0
LINE
  5
BC
330
1F
100
AcDbEntity
  8
0
  6
Continuous
 62
   254
370
    25
100
AcDbLine
 10
0.6190769455
 20
1.9441872062
 30
0.0
 11
0.6033270433
 21
1.974790332
 31
0.0
  0
LINE
  5
BD
330
1F
100
AcDbEntity
  8
0
  6
Continuous
 62
   254
370
    25
100
AcDbLine
 10
0.6379335976
 20
1.9158023754
 30
0.0
 11
0.6190769455
 21
1.9441872062
 31
0.0
  0
LINE
  5
BE
330
1F
100
AcDbEntity
  8
0
  6
Continuous
 62
   254
370
    25
100
AcDbLine
 10
0.6596244861
 20
1.8894450666
 30
0.0
 11
0.6379335976
 21
1.9158023754
 31
0.0
  0
LINE
  5
BF
330
1F
100
AcDbEntity
  8
0
  6
Continuous
 62
   254
370
    25
100
AcDbLine
 10
0.6838770639
 20
1.8649245235
 30
0.0
 11
0.6596244861
 21
1.8894450666
 31
0.0
  0
LINE
  5
C0
330
1F
100
AcDbEntity
  8
0
  6
Continuous
 62
   254
370
    25
100
AcDbLine
 10
0.7104188007
 20
1.8420500225
 30
0.0
 11
0.6838770639
 21
1.8649245235
 31
0.0
  0
LINE
  5
C1
330
1F
100
AcDbEntity
  8
0
  6
Continuous
 62
   254
370
    25
100
AcDbLine
 10
0.7389771993
 20
1.8206307745
 30
0.0
 11
0.7104188007
 21
1.8420500225
 31
0.0
  0
LINE
  5
C2
330
1F
100
AcDbEntity
  8
0
  6
Continuous
 62
   254
370
    25
100
AcDbLine
 10
0.7735705038
 20
1.7978280277
 30
0.0
 11
0.7389771993
 21
1.8206307745
 31
0.0
  0
LINE
  5
C3
330
1F
100
AcDbEntity
  8
0
  6
Continuous
 62
   254
370
    25
100
AcDbLine
 10
0.8092155969
 20
1.7773035631
 30
0.0
 11
0.7735705038
 21
1.7978280277
 31
0.0
  0
LINE
  5
C4
330
1F
100
AcDbEntity
  8
0
  6
Continuous
 62
   254
370
    25
100
AcDbLine
 10
0.8829854186
 20
1.7415633471
 30
0.0
 11
0.8092155969
 21
1.7773035631
 31
0.0
  0
LINE
  5
C5
330
1F
100
AcDbEntity
  8
0
  6
Continuous
 62
   254
370
    25
100
AcDbLine
 10
0.9589351862
 20
1.7103578432
 30
0.0
 11
0.8829854186
 21
1.7415633471
 31
0.0
  0
LINE
  5
C6
330
1F
100
AcDbEntity
  8
0
  6
Continuous
 62
   254
370
    25
100
AcDbLine
 10
1.0357133886
 20
1.6806348665
 30
0.0
 11
0.9589351862
 21
1.7103578432
 31
0.0
  0
LINE
  5
C7
330
1F
100
AcDbEntity
  8
0
  6
Continuous
 62
   254
370
    25
100
AcDbLine
 10
1.158558509
 20
1.6327292875
 30
0.0
 11
1.0357133886
 21
1.6806348665
 31
0.0
  0
LINE
  5
C8
330
1F
100
AcDbEntity
  8
0
  6
Continuous
 62
   254
370
    25
100
AcDbLine
 10
1.2181279637
 20
1.6048957798
 30
0.0
 11
1.158558509
 21
1.6327292875
 31
0.0
  0
LINE
  5
C9
330
1F
100
AcDbEntity
  8
0
  6
Continuous
 62
   254
370
    25
100
AcDbLine
 10
1.2747760522
 20
1.5708705915
 30
0.0
 11
1.2181279637
 21
1.6048957798
 31
0.0
  0
LINE
  5
CA
330
1F
100
AcDbEntity
  8
0
  6
Continuous
 62
   254
370
    25
100
AcDbLine
 10
1.3126092159
 20
1.5393670956
 30
0.0
 11
1.2747760522
 21
1.5708705915
 31
0.0
  0
LINE
  5
CB
330
1F
100
AcDbEntity
  8
0
  6
Continuous
 62
   254
370
    25
100
AcDbLine
 10
1.3280974976
 20
1.5217431498
 30
0.0
 11
1.3126092159
 21
1.5393670956
 31
0.0
  0
LINE
  5
CC
330
1F
100
AcDbEntity
  8
0
  6
Continuous
 62
   254
370
    25
100
AcDbLine
 10
1.3409368611
 20
1.5026748446
 30
0.0
 11
1.3280974976
 21
1.5217431498
 31
0.0
  0
LINE
  5
CD
330
1F
100
AcDbEntity
  8
0
  6
Continuous
 62
   254
370
    25
100
AcDbLine
 10
1.350854809
 20
1.482015013
 30
0.0
 11
1.3409368611
 21
1.5026748446
 31
0.0
  0
LINE
  5
CE
330
1F
100
AcDbEntity
  8
0
  6
Continuous
 62
   254
370
    25
100
AcDbLine
 10
1.357578811
 20
1.4596165048
 30
0.0
 11
1.350854809
 21
1.482015013
 31
0.0
  0
LINE
  5
CF
330
1F
100
AcDbEntity
  8
0
  6
Continuous
 62
   254
370
    25
100
AcDbLine
 10
1.3608363533
 20
1.4353321371
 30
0.0
 11
1.357578811
 21
1.4596165048
 31
0.0
  0
LINE
  5
D0
330
1F
100
AcDbEntity
  8
0
  6
Continuous
 62
   254
370
    25
100
AcDbLine
 10
1.3603548892
 20
1.409014743
 30
0.0
 11
1.3608363533
 21
1.4353321371
 31
0.0
  0
LINE
  5
D1
330
1F
100
AcDbEntity
  8
0
  6
Continuous
 62
   254
370
    25
100
AcDbLine
 10
1.3590758572
 20
1.3694811035
 30
0.0
 11
1.3603548892
 21
1.409014743
 31
0.0
  0
LINE
  5
D2
330
1F
100
AcDbEntity
  8
0
  6
Continuous
 62
   254
370
    25
100
AcDbLine
 10
1.3598897896
 20
1.3299473321
 30
0.0
 11
1.3590758572
 21
1.3694811035
 31
0.0
  0
LINE
  5
D3
330
1F
100
AcDbEntity
  8
0
  6
Continuous
 62
   254
370
    25
100
AcDbLine
 10
1.3579494799
 20
1.3105874291
 30
0.0
 11
1.3598897896
 21
1.3299473321
 31
0.0
  0
LINE
  5
D4
330
1F
100
AcDbEntity
  8
0
  6
Continuous
 62
   254
370
    25
100
AcDbLine
 10
1.3509947409
 20
1.2943669559
 30
0.0
 11
1.3579494799
 21
1.3105874291
 31
0.0
  0
LINE
  5
D5
330
1F
100
AcDbEntity
  8
0
  6
Continuous
 62
   254
370
    25
100
AcDbLine
 10
1.3394180117
 20
1.2812859129
 30
0.0
 11
1.3509947409
 21
1.2943669559
 31
0.0
  0
LINE
  5
D6
330
1F
100
AcDbEntity
  8
0
  6
Continuous
 62
   254
370
    25
100
AcDbLine
 10
1.3236117973
 20
1.2713443325
 30
0.0
 11
1.3394180117
 21
1.2812859129
 31
0.0
  0
LINE
  5
D7
330
1F
100
AcDbEntity
  8
0
  6
Continuous
 62
   254
370
    25
100
AcDbLine
 10
1.2987288252
 20
1.2616934436
 30
0.0
 11
1.3236117973
 21
1.2713443325
 31
0.0
  0
LINE
  5
D8
330
1F
100
AcDbEntity
  8
0
  6
Continuous
 62
   254
370
    25
100
AcDbLine
 10
1.2724505216
 20
1.2555308338
 30
0.0
 11
1.2987288252
 21
1.2616934436
 31
0.0
  0
LINE
  5
D9
330
1F
100
AcDbEntity
  8
0
  6
Continuous
 62
   254
370
    25
100
AcDbLine
 10
1.2388867744
 20
1.2519617035
 30
0.0
 11
1.2724505216
 21
1.2555308338
 31
0.0
  0
LINE
  5
DA
330
1F
100
AcDbEntity
  8
0
  6
Continuous
 62
   254
370
    25
100
AcDbLine
 10
1.21001041
 20
1.2534887105
 30
0.0
 11
1.2388867744
 21
1.2519617035
 31
0.0
  0
LINE
  5
DB
330
1F
100
AcDbEntity
  8
0
  6
Continuous
 62
   254
370
    25
100
AcDbLine
 10
1.1857560194
 20
1.260150039
 30
0.0
 11
1.21001041
 21
1.2534887105
 31
0.0
  0
LINE
  5
DC
330
1F
100
AcDbEntity
  8
0
  6
Continuous
 62
   254
370
    25
100
AcDbLine
 10
1.1660581934
 20
1.2719838238
 30
0.0
 11
1.1857560194
 21
1.260150039
 31
0.0
  0
LINE
  5
DD
330
1F
100
AcDbEntity
  8
0
  6
Continuous
 62
   254
370
    25
100
AcDbLine
 10
1.1508515059
 20
1.2890281996
 30
0.0
 11
1.1660581934
 21
1.2719838238
 31
0.0
  0
LINE
  5
DE
330
1F
100
AcDbEntity
  8
0
  6
Continuous
 62
   254
370
    25
100
AcDbLine
 10
1.140070581
 20
1.3113213509
 30
0.0
 11
1.1508515059
 21
1.2890281996
 31
0.0
  0
LINE
  5
DF
330
1F
100
AcDbEntity
  8
0
  6
Continuous
 62
   254
370
    25
100
AcDbLine
 10
1.1336499765
 20
1.3389014122
 30
0.0
 11
1.140070581
 21
1.3113213509
 31
0.0
  0
LINE
  5
E0
330
1F
100
AcDbEntity
  8
0
  6
Continuous
 62
   254
370
    25
100
AcDbLine
 10
1.1315243158
 20
1.3718065351
 30
0.0
 11
1.1336499765
 21
1.3389014122
 31
0.0
  0
LINE
  5
E1
330
1F
100
AcDbEntity
  8
0
  6
Continuous
 62
   254
370
    25
100
AcDbLine
 10
1.1315243158
 20
1.5457549379
 30
0.0
 11
1.1315243158
 21
1.3718065351
 31
0.0
  0
LINE
  5
E2
330
1F
100
AcDbEntity
  8
0
  6
Continuous
 62
   254
370
    25
100
AcDbLine
 10
1.1185014307
 20
1.5485455514
 30
0.0
 11
1.1315243158
 21
1.5457549379
 31
0.0
  0
LINE
  5
E3
330
1F
100
AcDbEntity
  8
0
  6
Continuous
 62
   254
370
    25
100
AcDbLine
 10
0.598981555
 20
1.549010651
 30
0.0
 11
1.1185014307
 21
1.5485455514
 31
0.0
  0
LINE
  5
E4
330
1F
100
AcDbEntity
  8
0
  6
Continuous
 62
   254
370
    25
100
AcDbLine
 10
0.5883714292
 20
1.5476008005
 30
0.0
 11
0.598981555
 21
1.549010651
 31
0.0
  0
LINE
  5
E5
330
1F
100
AcDbEntity
  8
0
  6
Continuous
 62
   254
370
    25
100
AcDbLine
 10
0.5814239743
 20
1.5433131407
 30
0.0
 11
0.5883714292
 21
1.5476008005
 31
0.0
  0
LINE
  5
E6
330
1F
100
AcDbEntity
  8
0
  6
Continuous
 62
   254
370
    25
100
AcDbLine
 10
0.5777903577
 20
1.5360604427
 30
0.0
 11
0.5814239743
 21
1.5433131407
 31
0.0
  0
LINE
  5
E7
330
1F
100
AcDbEntity
  8
0
  6
Continuous
 62
   254
370
    25
100
AcDbLine
 10
0.5771217792
 20
1.5257555106
 30
0.0
 11
0.5777903577
 21
1.5360604427
 31
0.0
  0
LINE
  5
E8
330
1F
100
AcDbEntity
  8
0
  6
Continuous
 62
   254
370
    25
100
AcDbLine
 10
0.5799705344
 20
1.4347110046
 30
0.0
 11
0.5771217792
 21
1.5257555106
 31
0.0
  0
LINE
  5
E9
330
1F
100
AcDbEntity
  8
0
  6
Continuous
 62
   254
370
    25
100
AcDbLine
 10
0.5824195826
 20
1.3893198173
 30
0.0
 11
0.5799705344
 21
1.4347110046
 31
0.0
  0
LINE
  5
EA
330
1F
100
AcDbEntity
  8
0
  6
Continuous
 62
   254
370
    25
100
AcDbLine
 10
0.5873540343
 20
1.3443647246
 30
0.0
 11
0.5824195826
 21
1.3893198173
 31
0.0
  0
LINE
  5
EB
330
1F
100
AcDbEntity
  8
0
  6
Continuous
 62
   254
370
    25
100
AcDbLine
 10
0.5945749423
 20
1.3085333907
 30
0.0
 11
0.5873540343
 21
1.3443647246
 31
0.0
  0
LINE
  5
EC
330
1F
100
AcDbEntity
  8
0
  6
Continuous
 62
   254
370
    25
100
AcDbLine
 10
0.6050933567
 20
1.2746860714
 30
0.0
 11
0.5945749423
 21
1.3085333907
 31
0.0
  0
LINE
  5
ED
330
1F
100
AcDbEntity
  8
0
  6
Continuous
 62
   254
370
    25
100
AcDbLine
 10
0.6189365356
 20
1.2428881596
 30
0.0
 11
0.6050933567
 21
1.2746860714
 31
0.0
  0
LINE
  5
EE
330
1F
100
AcDbEntity
  8
0
  6
Continuous
 62
   254
370
    25
100
AcDbLine
 10
0.6361317202
 20
1.2132050646
 30
0.0
 11
0.6189365356
 21
1.2428881596
 31
0.0
  0
LINE
  5
EF
330
1F
100
AcDbEntity
  8
0
  6
Continuous
 62
   254
370
    25
100
AcDbLine
 10
0.6567061687
 20
1.1857021628
 30
0.0
 11
0.6361317202
 21
1.2132050646
 31
0.0
  0
LINE
  5
F0
330
1F
100
AcDbEntity
  8
0
  6
Continuous
 62
   254
370
    25
100
AcDbLine
 10
0.6806871391
 20
1.1604448797
 30
0.0
 11
0.6567061687
 21
1.1857021628
 31
0.0
  0
LINE
  5
F1
330
1F
100
AcDbEntity
  8
0
  6
Continuous
 62
   254
370
    25
100
AcDbLine
 10
0.7081018563
 20
1.1374986083
 30
0.0
 11
0.6806871391
 21
1.1604448797
 31
0.0
  0
LINE
  5
F2
330
1F
100
AcDbEntity
  8
0
  6
Continuous
 62
   254
370
    25
100
AcDbLine
 10
0.7389775948
 20
1.1169287247
 30
0.0
 11
0.7081018563
 21
1.1374986083
 31
0.0
  0
LINE
  5
F3
330
1F
100
AcDbEntity
  8
0
  6
Continuous
 62
   254
370
    25
100
AcDbLine
 10
0.7958288492
 20
1.0882232419
 30
0.0
 11
0.7389775948
 21
1.1169287247
 31
0.0
  0
LINE
  5
F4
330
1F
100
AcDbEntity
  8
0
  6
Continuous
 62
   254
370
    25
100
AcDbLine
 10
0.8550783934
 20
1.0672790967
 30
0.0
 11
0.7958288492
 21
1.0882232419
 31
0.0
  0
LINE
  5
F5
330
1F
100
AcDbEntity
  8
0
  6
Continuous
 62
   254
370
    25
100
AcDbLine
 10
0.9161594131
 20
1.0524393869
 30
0.0
 11
0.8550783934
 21
1.0672790967
 31
0.0
  0
LINE
  5
F6
330
1F
100
AcDbEntity
  8
0
  6
Continuous
 62
   254
370
    25
100
AcDbLine
 10
0.9785049954
 20
1.0420472425
 30
0.0
 11
0.9161594131
 21
1.0524393869
 31
0.0
  0
LINE
  5
F7
330
1F
100
AcDbEntity
  8
0
  6
Continuous
 62
   254
370
    25
100
AcDbLine
 10
1.0553050833
 20
1.0329196274
 30
0.0
 11
0.9785049954
 21
1.0420472425
 31
0.0
  0
LINE
  5
F8
330
1F
100
AcDbEntity
  8
0
  6
Continuous
 62
   254
370
    25
100
AcDbLine
 10
1.1352446175
 20
1.0248384618
 30
0.0
 11
1.0553050833
 21
1.0329196274
 31
0.0
  0
LINE
  5
F9
330
1F
100
AcDbEntity
  8
0
  6
Continuous
 62
   254
370
    25
100
AcDbLine
 10
1.1352446175
 20
0.8560054614
 30
0.0
 11
1.1352446175
 21
1.0248384618
 31
0.0
  0
LINE
  5
FA
330
1F
100
AcDbEntity
  8
0
  6
Continuous
 62
   254
370
    25
100
AcDbLine
 10
1.4259325521
 20
0.8560101581
 30
0.0
 11
1.1352446175
 21
0.8560054614
 31
0.0
  0
LINE
  5
FB
330
1F
100
AcDbEntity
  8
0
  6
Continuous
 62
   254
370
    25
100
AcDbLine
 10
1.4268627511
 20
1.0267021063
 30
0.0
 11
1.4259325521
 21
0.8560101581
 31
0.0
  0
LINE
  5
FC
330
1F
100
AcDbEntity
  8
0
  6
Continuous
 62
   254
370
    25
100
AcDbLine
 10
1.5315109645
 20
1.0378645769
 30
0.0
 11
1.4268627511
 21
1.0267021063
 31
0.0
  0
LINE
  5
FD
330
1F
100
AcDbEntity
  8
0
  6
Continuous
 62
   254
370
    25
100
AcDbLine
 10
0.3819750763
 20
3.1853190884
 30
0.0
 11
0.3868431957
 21
3.1649626377
 31
0.0
  0
LINE
  5
FE
330
1F
100
AcDbEntity
  8
0
  6
Continuous
 62
   254
370
    25
100
AcDbLine
 10
0.3741310252
 20
3.2029176053
 30
0.0
 11
0.3819750763
 21
3.1853190884
 31
0.0
  0
LINE
  5
FF
330
1F
100
AcDbEntity
  8
0
  6
Continuous
 62
   254
370
    25
100
AcDbLine
 10
0.3634363898
 20
3.2176219483
 30
0.0
 11
0.3741310252
 21
3.2029176053
 31
0.0
  0
LINE
  5
100
330
1F
100
AcDbEntity
  8
0
  6
Continuous
 62
   254
370
    25
100
AcDbLine
 10
0.3500165666
 20
3.2292958438
 30
0.0
 11
0.3634363898
 21
3.2176219483
 31
0.0
  0
LINE
  5
101
330
1F
100
AcDbEntity
  8
0
  6
Continuous
 62
   254
370
    25
100
AcDbLine
 10
0.3339968697
 20
3.2378030514
 30
0.0
 11
0.3500165666
 21
3.2292958438
 31
0.0
  0
LINE
  5
102
330
1F
100
AcDbEntity
  8
0
  6
Continuous
 62
   254
370
    25
100
AcDbLine
 10
0.3155026629
 20
3.2430072977
 30
0.0
 11
0.3339968697
 21
3.2378030514
 31
0.0
  0
LINE
  5
103
330
1F
100
AcDbEntity
  8
0
  6
Continuous
 62
   254
370
    25
100
AcDbLine
 10
0.2946593262
 20
3.2447723258
 30
0.0
 11
0.3155026629
 21
3.2430072977
 31
0.0
  0
LINE
  5
104
330
1F
100
AcDbEntity
  8
0
  6
Continuous
 62
   254
370
    25
100
AcDbLine
 10
0.2724888358
 20
3.2430254587
 30
0.0
 11
0.2946593262
 21
3.2447723258
 31
0.0
  0
LINE
  5
105
330
1F
100
AcDbEntity
  8
0
  6
Continuous
 62
   254
370
    25
100
AcDbLine
 10
0.2528146421
 20
3.2378611764
 30
0.0
 11
0.2724888358
 21
3.2430254587
 31
0.0
  0
LINE
  5
106
330
1F
100
AcDbEntity
  8
0
  6
Continuous
 62
   254
370
    25
100
AcDbLine
 10
0.2357784403
 20
3.2293939494
 30
0.0
 11
0.2528146421
 21
3.2378611764
 31
0.0
  0
LINE
  5
107
330
1F
100
AcDbEntity
  8
0
  6
Continuous
 62
   254
370
    25
100
AcDbLine
 10
0.2215219423
 20
3.217738215
 30
0.0
 11
0.2357784403
 21
3.2293939494
 31
0.0
  0
LINE
  5
108
330
1F
100
AcDbEntity
  8
0
  6
Continuous
 62
   254
370
    25
100
AcDbLine
 10
0.2101868762
 20
3.2030084433
 30
0.0
 11
0.2215219423
 21
3.217738215
 31
0.0
  0
LINE
  5
109
330
1F
100
AcDbEntity
  8
0
  6
Continuous
 62
   254
370
    25
100
AcDbLine
 10
0.2019149376
 20
3.1853190884
 30
0.0
 11
0.2101868762
 21
3.2030084433
 31
0.0
  0
LINE
  5
10A
330
1F
100
AcDbEntity
  8
0
  6
Continuous
 62
   254
370
    25
100
AcDbLine
 10
0.1968478546
 20
3.1647846039
 30
0.0
 11
0.2019149376
 21
3.1853190884
 31
0.0
  0
LINE
  5
10B
330
1F
100
AcDbEntity
  8
0
  6
Continuous
 62
   254
370
    25
100
AcDbLine
 10
0.1951273391
 20
3.1415194768
 30
0.0
 11
0.1968478546
 21
3.1647846039
 31
0.0
  0
LINE
  5
10C
330
1F
100
AcDbEntity
  8
0
  6
Continuous
 62
   254
370
    25
100
AcDbLine
 10
0.1951273391
 20
2.5127007222
 30
0.0
 11
0.1951273391
 21
3.1415194768
 31
0.0
  0
LINE
  5
10D
330
1F
100
AcDbEntity
  8
0
  6
Continuous
 62
   254
370
    25
100
AcDbLine
 10
0.1969296121
 20
2.4885734585
 30
0.0
 11
0.1951273391
 21
2.5127007222
 31
0.0
  0
LINE
  5
10E
330
1F
100
AcDbEntity
  8
0
  6
Continuous
 62
   254
370
    25
100
AcDbLine
 10
0.2025689807
 20
2.4647950773
 30
0.0
 11
0.1969296121
 21
2.4885734585
 31
0.0
  0
LINE
  5
10F
330
1F
100
AcDbEntity
  8
0
  6
Continuous
 62
   254
370
    25
100
AcDbLine
 10
0.2084672671
 20
2.4504713736
 30
0.0
 11
0.2025689807
 21
2.4647950773
 31
0.0
  0
LINE
  5
110
330
1F
100
AcDbEntity
  8
0
  6
Continuous
 62
   254
370
    25
100
AcDbLine
 10
0.2156572915
 20
2.4392435102
 30
0.0
 11
0.2084672671
 21
2.4504713736
 31
0.0
  0
LINE
  5
111
330
1F
100
AcDbEntity
  8
0
  6
Continuous
 62
   254
370
    25
100
AcDbLine
 10
0.2240790996
 20
2.4311115035
 30
0.0
 11
0.2156572915
 21
2.4392435102
 31
0.0
  0
LINE
  5
112
330
1F
100
AcDbEntity
  8
0
  6
Continuous
 62
   254
370
    25
100
AcDbLine
 10
0.2336727535
 20
2.4260753042
 30
0.0
 11
0.2240790996
 21
2.4311115035
 31
0.0
  0
LINE
  5
113
330
1F
100
AcDbEntity
  8
0
  6
Continuous
 62
   254
370
    25
100
AcDbLine
 10
0.2443782986
 20
2.4241349614
 30
0.0
 11
0.2336727535
 21
2.4260753042
 31
0.0
  0
LINE
  5
114
330
1F
100
AcDbEntity
  8
0
  6
Continuous
 62
   254
370
    25
100
AcDbLine
 10
0.2561357644
 20
2.4252904591
 30
0.0
 11
0.2443782986
 21
2.4241349614
 31
0.0
  0
LINE
  5
115
330
1F
100
AcDbEntity
  8
0
  6
Continuous
 62
   254
370
    25
100
AcDbLine
 10
0.2825666895
 20
2.436888942
 30
0.0
 11
0.2561357644
 21
2.4252904591
 31
0.0
  0
LINE
  5
116
330
1F
100
AcDbEntity
  8
0
  6
Continuous
 62
   254
370
    25
100
AcDbLine
 10
0.3119317692
 20
2.4566675861
 30
0.0
 11
0.2825666895
 21
2.436888942
 31
0.0
  0
LINE
  5
117
330
1F
100
AcDbEntity
  8
0
  6
Continuous
 62
   254
370
    25
100
AcDbLine
 10
0.3368031063
 20
2.4772191274
 30
0.0
 11
0.3119317692
 21
2.4566675861
 31
0.0
  0
LINE
  5
118
330
1F
100
AcDbEntity
  8
0
  6
Continuous
 62
   254
370
    25
100
AcDbLine
 10
0.3570514645
 20
2.5000158425
 30
0.0
 11
0.3368031063
 21
2.4772191274
 31
0.0
  0
LINE
  5
119
330
1F
100
AcDbEntity
  8
0
  6
Continuous
 62
   254
370
    25
100
AcDbLine
 10
0.3725475411
 20
2.5265300083
 30
0.0
 11
0.3570514645
 21
2.5000158425
 31
0.0
  0
LINE
  5
11A
330
1F
100
AcDbEntity
  8
0
  6
Continuous
 62
   254
370
    25
100
AcDbLine
 10
0.3831621166
 20
2.558233885
 30
0.0
 11
0.3725475411
 21
2.5265300083
 31
0.0
  0
LINE
  5
11B
330
1F
100
AcDbEntity
  8
0
  6
Continuous
 62
   254
370
    25
100
AcDbLine
 10
0.3887659213
 20
2.5965997493
 30
0.0
 11
0.3831621166
 21
2.558233885
 31
0.0
  0
LINE
  5
11C
330
1F
100
AcDbEntity
  8
0
  6
Continuous
 62
   254
370
    25
100
AcDbLine
 10
0.3892297024
 20
2.6430998945
 30
0.0
 11
0.3887659213
 21
2.5965997493
 31
0.0
  0
LINE
  5
11D
330
1F
100
AcDbEntity
  8
0
  6
Continuous
 62
   254
370
    25
100
AcDbLine
 10
0.3844241741
 20
2.699206581
 30
0.0
 11
0.3892297024
 21
2.6430998945
 31
0.0
  0
LINE
  5
11E
330
1F
100
AcDbEntity
  8
0
  6
Continuous
 62
   254
370
    25
100
AcDbLine
 10
0.3053555271
 20
2.6992118546
 30
0.0
 11
0.3844241741
 21
2.699206581
 31
0.0
  0
LINE
  5
11F
330
1F
100
AcDbEntity
  8
0
  6
Continuous
 62
   254
370
    25
100
AcDbLine
 10
0.3048904277
 20
2.6182840127
 30
0.0
 11
0.3053555271
 21
2.6992118546
 31
0.0
  0
LINE
  5
120
330
1F
100
AcDbEntity
  8
0
  6
Continuous
 62
   254
370
    25
100
AcDbLine
 10
0.2979138856
 20
2.5415420994
 30
0.0
 11
0.3048904277
 21
2.6182840127
 31
0.0
  0
LINE
  5
121
330
1F
100
AcDbEntity
  8
0
  6
Continuous
 62
   254
370
    25
100
AcDbLine
 10
0.2848915607
 20
2.5415312226
 30
0.0
 11
0.2979138856
 21
2.5415420994
 31
0.0
  0
LINE
  5
122
330
1F
100
AcDbEntity
  8
0
  6
Continuous
 62
   254
370
    25
100
AcDbLine
 10
0.2805312241
 20
2.5601353677
 30
0.0
 11
0.2848915607
 21
2.5415312226
 31
0.0
  0
LINE
  5
123
330
1F
100
AcDbEntity
  8
0
  6
Continuous
 62
   254
370
    25
100
AcDbLine
 10
0.2779150187
 20
2.5787395129
 30
0.0
 11
0.2805312241
 21
2.5601353677
 31
0.0
  0
LINE
  5
124
330
1F
100
AcDbEntity
  8
0
  6
Continuous
 62
   254
370
    25
100
AcDbLine
 10
0.2760546042
 20
3.1043059129
 30
0.0
 11
0.2779150187
 21
2.5787395129
 31
0.0
  0
LINE
  5
125
330
1F
100
AcDbEntity
  8
0
  6
Continuous
 62
   254
370
    25
100
AcDbLine
 10
0.2769848197
 20
3.1638390455
 30
0.0
 11
0.2760546042
 21
3.1043059129
 31
0.0
  0
LINE
  5
126
330
1F
100
AcDbEntity
  8
0
  6
Continuous
 62
   254
370
    25
100
AcDbLine
 10
0.2825660468
 20
3.175408507
 30
0.0
 11
0.2769848197
 21
3.1638390455
 31
0.0
  0
LINE
  5
127
330
1F
100
AcDbEntity
  8
0
  6
Continuous
 62
   254
370
    25
100
AcDbLine
 10
0.2909379038
 20
3.1866291192
 30
0.0
 11
0.2825660468
 21
3.175408507
 31
0.0
  0
LINE
  5
128
330
1F
100
AcDbEntity
  8
0
  6
Continuous
 62
   254
370
    25
100
AcDbLine
 10
0.3005887928
 20
3.1749434405
 30
0.0
 11
0.2909379038
 21
3.1866291192
 31
0.0
  0
LINE
  5
129
330
1F
100
AcDbEntity
  8
0
  6
Continuous
 62
   254
370
    25
100
AcDbLine
 10
0.3067514024
 20
3.1629089124
 30
0.0
 11
0.3005887928
 21
3.1749434405
 31
0.0
  0
LINE
  5
12A
330
1F
100
AcDbEntity
  8
0
  6
Continuous
 62
   254
370
    25
100
AcDbLine
 10
0.3080885594
 20
3.1321539726
 30
0.0
 11
0.3067514024
 21
3.1629089124
 31
0.0
  0
LINE
  5
12B
330
1F
100
AcDbEntity
  8
0
  6
Continuous
 62
   254
370
    25
100
AcDbLine
 10
0.3076816015
 20
3.0996549178
 30
0.0
 11
0.3080885594
 21
3.1321539726
 31
0.0
  0
LINE
  5
12C
330
1F
100
AcDbEntity
  8
0
  6
Continuous
 62
   254
370
    25
100
AcDbLine
 10
0.3890748396
 20
3.0996549178
 30
0.0
 11
0.3076816015
 21
3.0996549178
 31
0.0
  0
LINE
  5
12D
330
1F
100
AcDbEntity
  8
0
  6
Continuous
 62
   254
370
    25
100
AcDbLine
 10
0.3886100202
 20
3.1419845433
 30
0.0
 11
0.3890748396
 21
3.0996549178
 31
0.0
  0
LINE
  5
12E
330
1F
100
AcDbEntity
  8
0
  6
Continuous
 62
   254
370
    25
100
AcDbLine
 10
0.3868431957
 20
3.1649626377
 30
0.0
 11
0.3886100202
 21
3.1419845433
 31
0.0
  0
LINE
  5
12F
330
1F
100
AcDbEntity
  8
0
  6
Continuous
 62
   254
370
    25
100
AcDbLine
 10
0.4845666309
 20
3.1222001311
 30
0.0
 11
0.4864915812
 21
3.1373680739
 31
0.0
  0
LINE
  5
130
330
1F
100
AcDbEntity
  8
0
  6
Continuous
 62
   254
370
    25
100
AcDbLine
 10
0.4864915812
 20
3.1373680739
 30
0.0
 11
0.4911464327
 21
3.1454318861
 31
0.0
  0
LINE
  5
131
330
1F
100
AcDbEntity
  8
0
  6
Continuous
 62
   254
370
    25
100
AcDbLine
 10
0.4911464327
 20
3.1454318861
 30
0.0
 11
0.4974812422
 21
3.1458681127
 31
0.0
  0
LINE
  5
132
330
1F
100
AcDbEntity
  8
0
  6
Continuous
 62
   254
370
    25
100
AcDbLine
 10
0.4974812422
 20
3.1458681127
 30
0.0
 11
0.5044460011
 21
3.1381532651
 31
0.0
  0
LINE
  5
133
330
1F
100
AcDbEntity
  8
0
  6
Continuous
 62
   254
370
    25
100
AcDbLine
 10
0.5044460011
 20
3.1381532651
 30
0.0
 11
0.509595237
 21
3.1199567371
 31
0.0
  0
LINE
  5
134
330
1F
100
AcDbEntity
  8
0
  6
Continuous
 62
   254
370
    25
100
AcDbLine
 10
0.509595237
 20
3.1199567371
 30
0.0
 11
0.5128807624
 21
3.0894961966
 31
0.0
  0
LINE
  5
135
330
1F
100
AcDbEntity
  8
0
  6
Continuous
 62
   254
370
    25
100
AcDbLine
 10
0.5128807624
 20
3.0894961966
 30
0.0
 11
0.5136988807
 21
3.054249706
 31
0.0
  0
LINE
  5
136
330
1F
100
AcDbEntity
  8
0
  6
Continuous
 62
   254
370
    25
100
AcDbLine
 10
0.5136988807
 20
3.054249706
 30
0.0
 11
0.5114458459
 21
3.0216952948
 31
0.0
  0
LINE
  5
137
330
1F
100
AcDbEntity
  8
0
  6
Continuous
 62
   254
370
    25
100
AcDbLine
 10
0.5114458459
 20
3.0216952948
 30
0.0
 11
0.5069659466
 21
3.0018411391
 31
0.0
  0
LINE
  5
138
330
1F
100
AcDbEntity
  8
0
  6
Continuous
 62
   254
370
    25
100
AcDbLine
 10
0.5069659466
 20
3.0018411391
 30
0.0
 11
0.5008061055
 21
2.9914840642
 31
0.0
  0
LINE
  5
139
330
1F
100
AcDbEntity
  8
0
  6
Continuous
 62
   254
370
    25
100
AcDbLine
 10
0.5008061055
 20
2.9914840642
 30
0.0
 11
0.4931763279
 21
2.9890537042
 31
0.0
  0
LINE
  5
13A
330
1F
100
AcDbEntity
  8
0
  6
Continuous
 62
   254
370
    25
100
AcDbLine
 10
0.4931763279
 20
2.9890537042
 30
0.0
 11
0.4842866351
 21
2.9929796932
 31
0.0
  0
LINE
  5
13B
330
1F
100
AcDbEntity
  8
0
  6
Continuous
 62
   254
370
    25
100
AcDbLine
 10
0.4842866351
 20
2.9929796932
 30
0.0
 11
0.4845666309
 21
3.1222001311
 31
0.0
  0
LINE
  5
13C
330
1F
100
AcDbEntity
  8
0
  6
Continuous
 62
   254
370
    25
100
AcDbLine
 10
0.4840071008
 20
2.8446140376
 30
0.0
 11
0.4840071008
 21
2.5654274361
 31
0.0
  0
LINE
  5
13D
330
1F
100
AcDbEntity
  8
0
  6
Continuous
 62
   254
370
    25
100
AcDbLine
 10
0.4840770915
 20
2.8651536802
 30
0.0
 11
0.4840071008
 21
2.8446140376
 31
0.0
  0
LINE
  5
13E
330
1F
100
AcDbEntity
  8
0
  6
Continuous
 62
   254
370
    25
100
AcDbLine
 10
0.4866057549
 20
2.8704132335
 30
0.0
 11
0.4840770915
 21
2.8651536802
 31
0.0
  0
LINE
  5
13F
330
1F
100
AcDbEntity
  8
0
  6
Continuous
 62
   254
370
    25
100
AcDbLine
 10
0.4929668007
 20
2.8725320386
 30
0.0
 11
0.4866057549
 21
2.8704132335
 31
0.0
  0
LINE
  5
140
330
1F
100
AcDbEntity
  8
0
  6
Continuous
 62
   254
370
    25
100
AcDbLine
 10
0.5000278029
 20
2.8733919007
 30
0.0
 11
0.4929668007
 21
2.8725320386
 31
0.0
  0
LINE
  5
141
330
1F
100
AcDbEntity
  8
0
  6
Continuous
 62
   254
370
    25
100
AcDbLine
 10
0.5057763682
 20
2.8722327611
 30
0.0
 11
0.5000278029
 21
2.8733919007
 31
0.0
  0
LINE
  5
142
330
1F
100
AcDbEntity
  8
0
  6
Continuous
 62
   254
370
    25
100
AcDbLine
 10
0.5097399811
 20
2.8652407937
 30
0.0
 11
0.5057763682
 21
2.8722327611
 31
0.0
  0
LINE
  5
143
330
1F
100
AcDbEntity
  8
0
  6
Continuous
 62
   254
370
    25
100
AcDbLine
 10
0.511446192
 20
2.8486022057
 30
0.0
 11
0.5097399811
 21
2.8652407937
 31
0.0
  0
LINE
  5
144
330
1F
100
AcDbEntity
  8
0
  6
Continuous
 62
   254
370
    25
100
AcDbLine
 10
0.5122861629
 20
2.709012201
 30
0.0
 11
0.511446192
 21
2.8486022057
 31
0.0
  0
LINE
  5
145
330
1F
100
AcDbEntity
  8
0
  6
Continuous
 62
   254
370
    25
100
AcDbLine
 10
0.5122863277
 20
2.5723087895
 30
0.0
 11
0.5122861629
 21
2.709012201
 31
0.0
  0
LINE
  5
146
330
1F
100
AcDbEntity
  8
0
  6
Continuous
 62
   254
370
    25
100
AcDbLine
 10
0.5778041845
 20
2.624076695
 30
0.0
 11
0.5122863277
 21
2.5723087895
 31
0.0
  0
LINE
  5
147
330
1F
100
AcDbEntity
  8
0
  6
Continuous
 62
   254
370
    25
100
AcDbLine
 10
0.5780841803
 20
2.7752117873
 30
0.0
 11
0.5778041845
 21
2.624076695
 31
0.0
  0
LINE
  5
148
330
1F
100
AcDbEntity
  8
0
  6
Continuous
 62
   254
370
    25
100
AcDbLine
 10
0.5773711057
 20
2.827084506
 30
0.0
 11
0.5780841803
 21
2.7752117873
 31
0.0
  0
LINE
  5
149
330
1F
100
AcDbEntity
  8
0
  6
Continuous
 62
   254
370
    25
100
AcDbLine
 10
0.5719594086
 20
2.8707313477
 30
0.0
 11
0.5773711057
 21
2.827084506
 31
0.0
  0
LINE
  5
14A
330
1F
100
AcDbEntity
  8
0
  6
Continuous
 62
   254
370
    25
100
AcDbLine
 10
0.5607204212
 20
2.9051053853
 30
0.0
 11
0.5719594086
 21
2.8707313477
 31
0.0
  0
LINE
  5
14B
330
1F
100
AcDbEntity
  8
0
  6
Continuous
 62
   254
370
    25
100
AcDbLine
 10
0.5525629529
 20
2.9184879306
 30
0.0
 11
0.5607204212
 21
2.9051053853
 31
0.0
  0
LINE
  5
14C
330
1F
100
AcDbEntity
  8
0
  6
Continuous
 62
   254
370
    25
100
AcDbLine
 10
0.5425253766
 20
2.9291596917
 30
0.0
 11
0.5525629529
 21
2.9184879306
 31
0.0
  0
LINE
  5
14D
330
1F
100
AcDbEntity
  8
0
  6
Continuous
 62
   254
370
    25
100
AcDbLine
 10
0.5573255509
 20
2.950197839
 30
0.0
 11
0.5425253766
 21
2.9291596917
 31
0.0
  0
LINE
  5
14E
330
1F
100
AcDbEntity
  8
0
  6
Continuous
 62
   254
370
    25
100
AcDbLine
 10
0.5678996019
 20
2.9772184362
 30
0.0
 11
0.5573255509
 21
2.950197839
 31
0.0
  0
LINE
  5
14F
330
1F
100
AcDbEntity
  8
0
  6
Continuous
 62
   254
370
    25
100
AcDbLine
 10
0.573906294
 20
3.0117170959
 30
0.0
 11
0.5678996019
 21
2.9772184362
 31
0.0
  0
LINE
  5
150
330
1F
100
AcDbEntity
  8
0
  6
Continuous
 62
   254
370
    25
100
AcDbLine
 10
0.5750043916
 20
3.0551894304
 30
0.0
 11
0.573906294
 21
3.0117170959
 31
0.0
  0
LINE
  5
151
330
1F
100
AcDbEntity
  8
0
  6
Continuous
 62
   254
370
    25
100
AcDbLine
 10
0.5750043916
 20
3.1014534992
 30
0.0
 11
0.5750043916
 21
3.0551894304
 31
0.0
  0
LINE
  5
152
330
1F
100
AcDbEntity
  8
0
  6
Continuous
 62
   254
370
    25
100
AcDbLine
 10
0.572659464
 20
3.1619383209
 30
0.0
 11
0.5750043916
 21
3.1014534992
 31
0.0
  0
LINE
  5
153
330
1F
100
AcDbEntity
  8
0
  6
Continuous
 62
   254
370
    25
100
AcDbLine
 10
0.56506469
 20
3.2060462738
 30
0.0
 11
0.572659464
 21
3.1619383209
 31
0.0
  0
LINE
  5
154
330
1F
100
AcDbEntity
  8
0
  6
Continuous
 62
   254
370
    25
100
AcDbLine
 10
0.5590361124
 20
3.2220757598
 30
0.0
 11
0.56506469
 21
3.2060462738
 31
0.0
  0
LINE
  5
155
330
1F
100
AcDbEntity
  8
0
  6
Continuous
 62
   254
370
    25
100
AcDbLine
 10
0.5513800986
 20
3.2341512408
 30
0.0
 11
0.5590361124
 21
3.2220757598
 31
0.0
  0
LINE
  5
156
330
1F
100
AcDbEntity
  8
0
  6
Continuous
 62
   254
370
    25
100
AcDbLine
 10
0.5419916212
 20
3.2423194376
 30
0.0
 11
0.5513800986
 21
3.2341512408
 31
0.0
  0
LINE
  5
157
330
1F
100
AcDbEntity
  8
0
  6
Continuous
 62
   254
370
    25
100
AcDbLine
 10
0.5307657189
 20
3.2466271041
 30
0.0
 11
0.5419916212
 21
3.2423194376
 31
0.0
  0
LINE
  5
158
330
1F
100
AcDbEntity
  8
0
  6
Continuous
 62
   254
370
    25
100
AcDbLine
 10
0.5027271665
 20
3.2499049828
 30
0.0
 11
0.5307657189
 21
3.2466271041
 31
0.0
  0
LINE
  5
159
330
1F
100
AcDbEntity
  8
0
  6
Continuous
 62
   254
370
    25
100
AcDbLine
 10
0.4744524059
 20
3.2501168502
 30
0.0
 11
0.5027271665
 21
3.2499049828
 31
0.0
  0
LINE
  5
15A
330
1F
100
AcDbEntity
  8
0
  6
Continuous
 62
   254
370
    25
100
AcDbLine
 10
0.4170892487
 20
3.2482224209
 30
0.0
 11
0.4744524059
 21
3.2501168502
 31
0.0
  0
LINE
  5
15B
330
1F
100
AcDbEntity
  8
0
  6
Continuous
 62
   254
370
    25
100
AcDbLine
 10
0.420134281
 20
2.5106143499
 30
0.0
 11
0.4170892487
 21
3.2482224209
 31
0.0
  0
LINE
  5
15C
330
1F
100
AcDbEntity
  8
0
  6
Continuous
 62
   254
370
    25
100
AcDbLine
 10
0.4840071008
 20
2.5654274361
 30
0.0
 11
0.420134281
 21
2.5106143499
 31
0.0
  0
LINE
  5
15D
330
1F
100
AcDbEntity
  8
0
  6
Continuous
 62
   254
370
    25
100
AcDbLine
 10
0.7153811531
 20
2.8178957831
 30
0.0
 11
0.682822111
 21
2.8178941351
 31
0.0
  0
LINE
  5
15E
330
1F
100
AcDbEntity
  8
0
  6
Continuous
 62
   254
370
    25
100
AcDbLine
 10
0.682822111
 20
2.8178941351
 30
0.0
 11
0.6967751952
 21
3.1718374651
 31
0.0
  0
LINE
  5
15F
330
1F
100
AcDbEntity
  8
0
  6
Continuous
 62
   254
370
    25
100
AcDbLine
 10
0.6967751952
 20
3.1718374651
 30
0.0
 11
0.7014243774
 21
3.1718457051
 31
0.0
  0
LINE
  5
160
330
1F
100
AcDbEntity
  8
0
  6
Continuous
 62
   254
370
    25
100
AcDbLine
 10
0.7014243774
 20
3.1718457051
 30
0.0
 11
0.7153811531
 21
2.8178957831
 31
0.0
  0
LINE
  5
161
330
1F
100
AcDbEntity
  8
0
  6
Continuous
 62
   254
370
    25
100
AcDbLine
 10
0.7952587719
 20
2.7441736217
 30
0.0
 11
0.7848521086
 21
2.7325024783
 31
0.0
  0
LINE
  5
162
330
1F
100
AcDbEntity
  8
0
  6
Continuous
 62
   254
370
    25
100
AcDbLine
 10
0.7999097834
 20
2.7593330443
 30
0.0
 11
0.7952587719
 21
2.7441736217
 31
0.0
  0
LINE
  5
163
330
1F
100
AcDbEntity
  8
0
  6
Continuous
 62
   254
370
    25
100
AcDbLine
 10
0.8000260666
 20
2.7778935668
 30
0.0
 11
0.7999097834
 21
2.7593330443
 31
0.0
  0
LINE
  5
164
330
1F
100
AcDbEntity
  8
0
  6
Continuous
 62
   254
370
    25
100
AcDbLine
 10
0.7897357029
 20
2.8781237304
 30
0.0
 11
0.8000260666
 21
2.7778935668
 31
0.0
  0
LINE
  5
165
330
1F
100
AcDbEntity
  8
0
  6
Continuous
 62
   254
370
    25
100
AcDbLine
 10
0.7804917882
 20
2.9783533997
 30
0.0
 11
0.7897357029
 21
2.8781237304
 31
0.0
  0
LINE
  5
166
330
1F
100
AcDbEntity
  8
0
  6
Continuous
 62
   254
370
    25
100
AcDbLine
 10
0.7604924435
 20
3.2299738489
 30
0.0
 11
0.7804917882
 21
2.9783533997
 31
0.0
  0
LINE
  5
167
330
1F
100
AcDbEntity
  8
0
  6
Continuous
 62
   254
370
    25
100
AcDbLine
 10
0.7543879588
 20
3.2430548755
 30
0.0
 11
0.7604924435
 21
3.2299738489
 31
0.0
  0
LINE
  5
168
330
1F
100
AcDbEntity
  8
0
  6
Continuous
 62
   254
370
    25
100
AcDbLine
 10
0.7490465492
 20
3.2484834975
 30
0.0
 11
0.7543879588
 21
3.2430548755
 31
0.0
  0
LINE
  5
169
330
1F
100
AcDbEntity
  8
0
  6
Continuous
 62
   254
370
    25
100
AcDbLine
 10
0.7437487294
 20
3.2509034916
 30
0.0
 11
0.7490465492
 21
3.2484834975
 31
0.0
  0
LINE
  5
16A
330
1F
100
AcDbEntity
  8
0
  6
Continuous
 62
   254
370
    25
100
AcDbLine
 10
0.6400308137
 20
3.2518336906
 30
0.0
 11
0.7437487294
 21
3.2509034916
 31
0.0
  0
LINE
  5
16B
330
1F
100
AcDbEntity
  8
0
  6
Continuous
 62
   254
370
    25
100
AcDbLine
 10
0.5972413953
 20
2.6220838141
 30
0.0
 11
0.6400308137
 21
3.2518336906
 31
0.0
  0
LINE
  5
16C
330
1F
100
AcDbEntity
  8
0
  6
Continuous
 62
   254
370
    25
100
AcDbLine
 10
0.667006816
 20
2.668129028
 30
0.0
 11
0.5972413953
 21
2.6220838141
 31
0.0
  0
LINE
  5
16D
330
1F
100
AcDbEntity
  8
0
  6
Continuous
 62
   254
370
    25
100
AcDbLine
 10
0.6754767622
 20
2.6758677222
 30
0.0
 11
0.667006816
 21
2.668129028
 31
0.0
  0
LINE
  5
16E
330
1F
100
AcDbEntity
  8
0
  6
Continuous
 62
   254
370
    25
100
AcDbLine
 10
0.6800005974
 20
2.6846038209
 30
0.0
 11
0.6754767622
 21
2.6758677222
 31
0.0
  0
LINE
  5
16F
330
1F
100
AcDbEntity
  8
0
  6
Continuous
 62
   254
370
    25
100
AcDbLine
 10
0.6816575165
 20
2.7040000459
 30
0.0
 11
0.6800005974
 21
2.6846038209
 31
0.0
  0
LINE
  5
170
330
1F
100
AcDbEntity
  8
0
  6
Continuous
 62
   254
370
    25
100
AcDbLine
 10
0.6808726548
 20
2.7241811326
 30
0.0
 11
0.6816575165
 21
2.7040000459
 31
0.0
  0
LINE
  5
171
330
1F
100
AcDbEntity
  8
0
  6
Continuous
 62
   254
370
    25
100
AcDbLine
 10
0.6823442724
 20
2.7338983207
 30
0.0
 11
0.6808726548
 21
2.7241811326
 31
0.0
  0
LINE
  5
172
330
1F
100
AcDbEntity
  8
0
  6
Continuous
 62
   254
370
    25
100
AcDbLine
 10
0.6865410943
 20
2.7430105104
 30
0.0
 11
0.6823442724
 21
2.7338983207
 31
0.0
  0
LINE
  5
173
330
1F
100
AcDbEntity
  8
0
  6
Continuous
 62
   254
370
    25
100
AcDbLine
 10
0.7158425941
 20
2.7430213871
 30
0.0
 11
0.6865410943
 21
2.7430105104
 31
0.0
  0
LINE
  5
174
330
1F
100
AcDbEntity
  8
0
  6
Continuous
 62
   254
370
    25
100
AcDbLine
 10
0.7200285226
 20
2.6997562889
 30
0.0
 11
0.7158425941
 21
2.7430213871
 31
0.0
  0
LINE
  5
175
330
1F
100
AcDbEntity
  8
0
  6
Continuous
 62
   254
370
    25
100
AcDbLine
 10
0.7446207539
 20
2.7138256892
 30
0.0
 11
0.7200285226
 21
2.6997562889
 31
0.0
  0
LINE
  5
176
330
1F
100
AcDbEntity
  8
0
  6
Continuous
 62
   254
370
    25
100
AcDbLine
 10
0.7848521086
 20
2.7325024783
 30
0.0
 11
0.7446207539
 21
2.7138256892
 31
0.0
  0
LINE
  5
177
330
1F
100
AcDbEntity
  8
0
  6
Continuous
 62
   254
370
    25
100
AcDbLine
 10
0.98630928
 20
3.2230645783
 30
0.0
 11
0.9916961251
 21
3.2092177739
 31
0.0
  0
LINE
  5
178
330
1F
100
AcDbEntity
  8
0
  6
Continuous
 62
   254
370
    25
100
AcDbLine
 10
0.9782190339
 20
3.2343169805
 30
0.0
 11
0.98630928
 21
3.2230645783
 31
0.0
  0
LINE
  5
179
330
1F
100
AcDbEntity
  8
0
  6
Continuous
 62
   254
370
    25
100
AcDbLine
 10
0.9672836581
 20
3.2431875399
 30
0.0
 11
0.9782190339
 21
3.2343169805
 31
0.0
  0
LINE
  5
17A
330
1F
100
AcDbEntity
  8
0
  6
Continuous
 62
   254
370
    25
100
AcDbLine
 10
0.953361441
 20
3.2498888159
 30
0.0
 11
0.9672836581
 21
3.2431875399
 31
0.0
  0
LINE
  5
17B
330
1F
100
AcDbEntity
  8
0
  6
Continuous
 62
   254
370
    25
100
AcDbLine
 10
0.936310671
 20
3.2546334176
 30
0.0
 11
0.953361441
 21
3.2498888159
 31
0.0
  0
LINE
  5
17C
330
1F
100
AcDbEntity
  8
0
  6
Continuous
 62
   254
370
    25
100
AcDbLine
 10
0.9098270427
 20
3.2581180382
 30
0.0
 11
0.936310671
 21
3.2546334176
 31
0.0
  0
LINE
  5
17D
330
1F
100
AcDbEntity
  8
0
  6
Continuous
 62
   254
370
    25
100
AcDbLine
 10
0.8855126978
 20
3.2571333398
 30
0.0
 11
0.9098270427
 21
3.2581180382
 31
0.0
  0
LINE
  5
17E
330
1F
100
AcDbEntity
  8
0
  6
Continuous
 62
   254
370
    25
100
AcDbLine
 10
0.8639235571
 20
3.2517883045
 30
0.0
 11
0.8855126978
 21
3.2571333398
 31
0.0
  0
LINE
  5
17F
330
1F
100
AcDbEntity
  8
0
  6
Continuous
 62
   254
370
    25
100
AcDbLine
 10
0.8456155746
 20
3.2421919316
 30
0.0
 11
0.8639235571
 21
3.2517883045
 31
0.0
  0
LINE
  5
180
330
1F
100
AcDbEntity
  8
0
  6
Continuous
 62
   254
370
    25
100
AcDbLine
 10
0.8311447043
 20
3.2284532526
 30
0.0
 11
0.8456155746
 21
3.2421919316
 31
0.0
  0
LINE
  5
181
330
1F
100
AcDbEntity
  8
0
  6
Continuous
 62
   254
370
    25
100
AcDbLine
 10
0.8210668835
 20
3.2106812339
 30
0.0
 11
0.8311447043
 21
3.2284532526
 31
0.0
  0
LINE
  5
182
330
1F
100
AcDbEntity
  8
0
  6
Continuous
 62
   254
370
    25
100
AcDbLine
 10
0.8159380334
 20
3.1889849235
 30
0.0
 11
0.8210668835
 21
3.2106812339
 31
0.0
  0
LINE
  5
183
330
1F
100
AcDbEntity
  8
0
  6
Continuous
 62
   254
370
    25
100
AcDbLine
 10
0.8163141077
 20
3.1634732876
 30
0.0
 11
0.8159380334
 21
3.1889849235
 31
0.0
  0
LINE
  5
184
330
1F
100
AcDbEntity
  8
0
  6
Continuous
 62
   254
370
    25
100
AcDbLine
 10
0.8267788797
 20
3.1026029321
 30
0.0
 11
0.8163141077
 21
3.1634732876
 31
0.0
  0
LINE
  5
185
330
1F
100
AcDbEntity
  8
0
  6
Continuous
 62
   254
370
    25
100
AcDbLine
 10
0.8442202431
 20
3.0434767245
 30
0.0
 11
0.8267788797
 21
3.1026029321
 31
0.0
  0
LINE
  5
186
330
1F
100
AcDbEntity
  8
0
  6
Continuous
 62
   254
370
    25
100
AcDbLine
 10
0.859779323
 20
3.0074311665
 30
0.0
 11
0.8442202431
 21
3.0434767245
 31
0.0
  0
LINE
  5
187
330
1F
100
AcDbEntity
  8
0
  6
Continuous
 62
   254
370
    25
100
AcDbLine
 10
0.877300598
 20
2.9720833401
 30
0.0
 11
0.859779323
 21
3.0074311665
 31
0.0
  0
LINE
  5
188
330
1F
100
AcDbEntity
  8
0
  6
Continuous
 62
   254
370
    25
100
AcDbLine
 10
0.894909102
 20
2.9367355303
 30
0.0
 11
0.877300598
 21
2.9720833401
 31
0.0
  0
LINE
  5
189
330
1F
100
AcDbEntity
  8
0
  6
Continuous
 62
   254
370
    25
100
AcDbLine
 10
0.9107298683
 20
2.9006900876
 30
0.0
 11
0.894909102
 21
2.9367355303
 31
0.0
  0
LINE
  5
18A
330
1F
100
AcDbEntity
  8
0
  6
Continuous
 62
   254
370
    25
100
AcDbLine
 10
0.916667196
 20
2.8806615897
 30
0.0
 11
0.9107298683
 21
2.9006900876
 31
0.0
  0
LINE
  5
18B
330
1F
100
AcDbEntity
  8
0
  6
Continuous
 62
   254
370
    25
100
AcDbLine
 10
0.9198575162
 20
2.8594121848
 30
0.0
 11
0.916667196
 21
2.8806615897
 31
0.0
  0
LINE
  5
18C
330
1F
100
AcDbEntity
  8
0
  6
Continuous
 62
   254
370
    25
100
AcDbLine
 10
0.9223574385
 20
2.8160413837
 30
0.0
 11
0.9198575162
 21
2.8594121848
 31
0.0
  0
LINE
  5
18D
330
1F
100
AcDbEntity
  8
0
  6
Continuous
 62
   254
370
    25
100
AcDbLine
 10
0.9207150383
 20
2.811005168
 30
0.0
 11
0.9223574385
 21
2.8160413837
 31
0.0
  0
LINE
  5
18E
330
1F
100
AcDbEntity
  8
0
  6
Continuous
 62
   254
370
    25
100
AcDbLine
 10
0.9161948288
 20
2.8057509542
 30
0.0
 11
0.9207150383
 21
2.811005168
 31
0.0
  0
LINE
  5
18F
330
1F
100
AcDbEntity
  8
0
  6
Continuous
 62
   254
370
    25
100
AcDbLine
 10
0.9051486578
 20
2.795111741
 30
0.0
 11
0.9161948288
 21
2.8057509542
 31
0.0
  0
LINE
  5
190
330
1F
100
AcDbEntity
  8
0
  6
Continuous
 62
   254
370
    25
100
AcDbLine
 10
0.8978232993
 20
2.806099853
 30
0.0
 11
0.9051486578
 21
2.795111741
 31
0.0
  0
LINE
  5
191
330
1F
100
AcDbEntity
  8
0
  6
Continuous
 62
   254
370
    25
100
AcDbLine
 10
0.8925908886
 20
2.8174367482
 30
0.0
 11
0.8978232993
 21
2.806099853
 31
0.0
  0
LINE
  5
192
330
1F
100
AcDbEntity
  8
0
  6
Continuous
 62
   254
370
    25
100
AcDbLine
 10
0.8911955901
 20
2.8579006691
 30
0.0
 11
0.8925908886
 21
2.8174367482
 31
0.0
  0
LINE
  5
193
330
1F
100
AcDbEntity
  8
0
  6
Continuous
 62
   254
370
    25
100
AcDbLine
 10
0.8853236717
 20
2.8691793569
 30
0.0
 11
0.8911955901
 21
2.8579006691
 31
0.0
  0
LINE
  5
194
330
1F
100
AcDbEntity
  8
0
  6
Continuous
 62
   254
370
    25
100
AcDbLine
 10
0.876312307
 20
2.8755745164
 30
0.0
 11
0.8853236717
 21
2.8691793569
 31
0.0
  0
LINE
  5
195
330
1F
100
AcDbEntity
  8
0
  6
Continuous
 62
   254
370
    25
100
AcDbLine
 10
0.8470108731
 20
2.8769116734
 30
0.0
 11
0.876312307
 21
2.8755745164
 31
0.0
  0
LINE
  5
196
330
1F
100
AcDbEntity
  8
0
  6
Continuous
 62
   254
370
    25
100
AcDbLine
 10
0.8163141077
 20
2.8765047154
 30
0.0
 11
0.8470108731
 21
2.8769116734
 31
0.0
  0
LINE
  5
197
330
1F
100
AcDbEntity
  8
0
  6
Continuous
 62
   254
370
    25
100
AcDbLine
 10
0.8158490083
 20
2.8295874605
 30
0.0
 11
0.8163141077
 21
2.8765047154
 31
0.0
  0
LINE
  5
198
330
1F
100
AcDbEntity
  8
0
  6
Continuous
 62
   254
370
    25
100
AcDbLine
 10
0.8167792073
 20
2.785809652
 30
0.0
 11
0.8158490083
 21
2.8295874605
 31
0.0
  0
LINE
  5
199
330
1F
100
AcDbEntity
  8
0
  6
Continuous
 62
   254
370
    25
100
AcDbLine
 10
0.8204201082
 20
2.76560668
 30
0.0
 11
0.8167792073
 21
2.785809652
 31
0.0
  0
LINE
  5
19A
330
1F
100
AcDbEntity
  8
0
  6
Continuous
 62
   254
370
    25
100
AcDbLine
 10
0.8288137518
 20
2.7501129104
 30
0.0
 11
0.8204201082
 21
2.76560668
 31
0.0
  0
LINE
  5
19B
330
1F
100
AcDbEntity
  8
0
  6
Continuous
 62
   254
370
    25
100
AcDbLine
 10
0.8413060952
 20
2.7400260092
 30
0.0
 11
0.8288137518
 21
2.7501129104
 31
0.0
  0
LINE
  5
19C
330
1F
100
AcDbEntity
  8
0
  6
Continuous
 62
   254
370
    25
100
AcDbLine
 10
0.8572431282
 20
2.7360435761
 30
0.0
 11
0.8413060952
 21
2.7400260092
 31
0.0
  0
LINE
  5
19D
330
1F
100
AcDbEntity
  8
0
  6
Continuous
 62
   254
370
    25
100
AcDbLine
 10
0.891420971
 20
2.7382673424
 30
0.0
 11
0.8572431282
 21
2.7360435761
 31
0.0
  0
LINE
  5
19E
330
1F
100
AcDbEntity
  8
0
  6
Continuous
 62
   254
370
    25
100
AcDbLine
 10
0.9234622105
 20
2.7472060632
 30
0.0
 11
0.891420971
 21
2.7382673424
 31
0.0
  0
LINE
  5
19F
330
1F
100
AcDbEntity
  8
0
  6
Continuous
 62
   254
370
    25
100
AcDbLine
 10
0.9533232569
 20
2.7620748274
 30
0.0
 11
0.9234622105
 21
2.7472060632
 31
0.0
  0
LINE
  5
1A0
330
1F
100
AcDbEntity
  8
0
  6
Continuous
 62
   254
370
    25
100
AcDbLine
 10
0.9809605533
 20
2.78208879
 30
0.0
 11
0.9533232569
 21
2.7620748274
 31
0.0
  0
LINE
  5
1A1
330
1F
100
AcDbEntity
  8
0
  6
Continuous
 62
   254
370
    25
100
AcDbLine
 10
0.9931113151
 20
2.7969720072
 30
0.0
 11
0.9809605533
 21
2.78208879
 31
0.0
  0
LINE
  5
1A2
330
1F
100
AcDbEntity
  8
0
  6
Continuous
 62
   254
370
    25
100
AcDbLine
 10
0.9971155512
 20
2.8058961762
 30
0.0
 11
0.9931113151
 21
2.7969720072
 31
0.0
  0
LINE
  5
1A3
330
1F
100
AcDbEntity
  8
0
  6
Continuous
 62
   254
370
    25
100
AcDbLine
 10
0.9986344006
 20
2.8146459205
 30
0.0
 11
0.9971155512
 21
2.8058961762
 31
0.0
  0
LINE
  5
1A4
330
1F
100
AcDbEntity
  8
0
  6
Continuous
 62
   254
370
    25
100
AcDbLine
 10
0.9994483329
 20
2.8723186716
 30
0.0
 11
0.9986344006
 21
2.8146459205
 31
0.0
  0
LINE
  5
1A5
330
1F
100
AcDbEntity
  8
0
  6
Continuous
 62
   254
370
    25
100
AcDbLine
 10
0.9974571165
 20
2.9005881751
 30
0.0
 11
0.9994483329
 21
2.8723186716
 31
0.0
  0
LINE
  5
1A6
330
1F
100
AcDbEntity
  8
0
  6
Continuous
 62
   254
370
    25
100
AcDbLine
 10
0.991192759
 20
2.9272007596
 30
0.0
 11
0.9974571165
 21
2.9005881751
 31
0.0
  0
LINE
  5
1A7
330
1F
100
AcDbEntity
  8
0
  6
Continuous
 62
   254
370
    25
100
AcDbLine
 10
0.9724942328
 20
2.9735438337
 30
0.0
 11
0.991192759
 21
2.9272007596
 31
0.0
  0
LINE
  5
1A8
330
1F
100
AcDbEntity
  8
0
  6
Continuous
 62
   254
370
    25
100
AcDbLine
 10
0.9511358785
 20
3.0188840812
 30
0.0
 11
0.9724942328
 21
2.9735438337
 31
0.0
  0
LINE
  5
1A9
330
1F
100
AcDbEntity
  8
0
  6
Continuous
 62
   254
370
    25
100
AcDbLine
 10
0.9079394196
 20
3.1095210195
 30
0.0
 11
0.9511358785
 21
3.0188840812
 31
0.0
  0
LINE
  5
1AA
330
1F
100
AcDbEntity
  8
0
  6
Continuous
 62
   254
370
    25
100
AcDbLine
 10
0.8978234311
 20
3.1465548522
 30
0.0
 11
0.9079394196
 21
3.1095210195
 31
0.0
  0
LINE
  5
1AB
330
1F
100
AcDbEntity
  8
0
  6
Continuous
 62
   254
370
    25
100
AcDbLine
 10
0.8925910204
 20
3.1853327997
 30
0.0
 11
0.8978234311
 21
3.1465548522
 31
0.0
  0
LINE
  5
1AC
330
1F
100
AcDbEntity
  8
0
  6
Continuous
 62
   254
370
    25
100
AcDbLine
 10
0.8973001901
 20
3.1940535391
 30
0.0
 11
0.8925910204
 21
3.1853327997
 31
0.0
  0
LINE
  5
1AD
330
1F
100
AcDbEntity
  8
0
  6
Continuous
 62
   254
370
    25
100
AcDbLine
 10
0.9065441046
 20
3.2034718783
 30
0.0
 11
0.8973001901
 21
3.1940535391
 31
0.0
  0
LINE
  5
1AE
330
1F
100
AcDbEntity
  8
0
  6
Continuous
 62
   254
370
    25
100
AcDbLine
 10
0.9160787105
 20
3.1947511389
 30
0.0
 11
0.9065441046
 21
3.2034718783
 31
0.0
  0
LINE
  5
1AF
330
1F
100
AcDbEntity
  8
0
  6
Continuous
 62
   254
370
    25
100
AcDbLine
 10
0.9228227027
 20
3.1853327997
 30
0.0
 11
0.9160787105
 21
3.1947511389
 31
0.0
  0
LINE
  5
1B0
330
1F
100
AcDbEntity
  8
0
  6
Continuous
 62
   254
370
    25
100
AcDbLine
 10
0.9250900752
 20
3.1683565194
 30
0.0
 11
0.9228227027
 21
3.1853327997
 31
0.0
  0
LINE
  5
1B1
330
1F
100
AcDbEntity
  8
0
  6
Continuous
 62
   254
370
    25
100
AcDbLine
 10
0.9256133162
 20
3.1499849405
 30
0.0
 11
0.9250900752
 21
3.1683565194
 31
0.0
  0
LINE
  5
1B2
330
1F
100
AcDbEntity
  8
0
  6
Continuous
 62
   254
370
    25
100
AcDbLine
 10
0.9930532395
 20
3.1499852041
 30
0.0
 11
0.9256133162
 21
3.1499849405
 31
0.0
  0
LINE
  5
1B3
330
1F
100
AcDbEntity
  8
0
  6
Continuous
 62
   254
370
    25
100
AcDbLine
 10
0.9945212479
 20
3.1925639913
 30
0.0
 11
0.9930532395
 21
3.1499852041
 31
0.0
  0
LINE
  5
1B4
330
1F
100
AcDbEntity
  8
0
  6
Continuous
 62
   254
370
    25
100
AcDbLine
 10
0.9916961251
 20
3.2092177739
 30
0.0
 11
0.9945212479
 21
3.1925639913
 31
0.0
  0
LINE
  5
1B5
330
1F
100
AcDbEntity
  8
0
  6
Continuous
 62
   254
370
    25
100
AcDbLine
 10
1.0543991593
 20
3.2415647014
 30
0.0
 11
1.0971885778
 21
3.2415647014
 31
0.0
  0
LINE
  5
1B6
330
1F
100
AcDbEntity
  8
0
  6
Continuous
 62
   254
370
    25
100
AcDbLine
 10
1.0322849813
 20
3.2409833189
 30
0.0
 11
1.0543991593
 21
3.2415647014
 31
0.0
  0
LINE
  5
1B7
330
1F
100
AcDbEntity
  8
0
  6
Continuous
 62
   254
370
    25
100
AcDbLine
 10
1.0208536224
 20
3.2369136569
 30
0.0
 11
1.0322849813
 21
3.2409833189
 31
0.0
  0
LINE
  5
1B8
330
1F
100
AcDbEntity
  8
0
  6
Continuous
 62
   254
370
    25
100
AcDbLine
 10
1.0166604427
 20
3.225867453
 30
0.0
 11
1.0208536224
 21
3.2369136569
 31
0.0
  0
LINE
  5
1B9
330
1F
100
AcDbEntity
  8
0
  6
Continuous
 62
   254
370
    25
100
AcDbLine
 10
1.016260736
 20
3.2043564111
 30
0.0
 11
1.0166604427
 21
3.225867453
 31
0.0
  0
LINE
  5
1BA
330
1F
100
AcDbEntity
  8
0
  6
Continuous
 62
   254
370
    25
100
AcDbLine
 10
1.0190513495
 20
2.8290187015
 30
0.0
 11
1.016260736
 21
3.2043564111
 31
0.0
  0
LINE
  5
1BB
330
1F
100
AcDbEntity
  8
0
  6
Continuous
 62
   254
370
    25
100
AcDbLine
 10
1.0197199279
 20
2.7951970088
 30
0.0
 11
1.0190513495
 21
2.8290187015
 31
0.0
  0
LINE
  5
1BC
330
1F
100
AcDbEntity
  8
0
  6
Continuous
 62
   254
370
    25
100
AcDbLine
 10
1.021602129
 20
2.7852790609
 30
0.0
 11
1.0197199279
 21
2.7951970088
 31
0.0
  0
LINE
  5
1BD
330
1F
100
AcDbEntity
  8
0
  6
Continuous
 62
   254
370
    25
100
AcDbLine
 10
1.0254464924
 20
2.7792527081
 30
0.0
 11
1.021602129
 21
2.7852790609
 31
0.0
  0
LINE
  5
1BE
330
1F
100
AcDbEntity
  8
0
  6
Continuous
 62
   254
370
    25
100
AcDbLine
 10
1.0319506508
 20
2.7765402099
 30
0.0
 11
1.0254464924
 21
2.7792527081
 31
0.0
  0
LINE
  5
1BF
330
1F
100
AcDbEntity
  8
0
  6
Continuous
 62
   254
370
    25
100
AcDbLine
 10
1.0418122864
 20
2.7765638258
 30
0.0
 11
1.0319506508
 21
2.7765402099
 31
0.0
  0
LINE
  5
1C0
330
1F
100
AcDbEntity
  8
0
  6
Continuous
 62
   254
370
    25
100
AcDbLine
 10
1.0743985535
 20
2.7825084211
 30
0.0
 11
1.0418122864
 21
2.7765638258
 31
0.0
  0
LINE
  5
1C1
330
1F
100
AcDbEntity
  8
0
  6
Continuous
 62
   254
370
    25
100
AcDbLine
 10
1.0853575452
 20
2.7859602795
 30
0.0
 11
1.0743985535
 21
2.7825084211
 31
0.0
  0
LINE
  5
1C2
330
1F
100
AcDbEntity
  8
0
  6
Continuous
 62
   254
370
    25
100
AcDbLine
 10
1.0926538328
 20
2.7912871373
 30
0.0
 11
1.0853575452
 21
2.7859602795
 31
0.0
  0
LINE
  5
1C3
330
1F
100
AcDbEntity
  8
0
  6
Continuous
 62
   254
370
    25
100
AcDbLine
 10
1.0966362824
 20
2.7993174291
 30
0.0
 11
1.0926538328
 21
2.7912871373
 31
0.0
  0
LINE
  5
1C4
330
1F
100
AcDbEntity
  8
0
  6
Continuous
 62
   254
370
    25
100
AcDbLine
 10
1.0976536938
 20
2.810879623
 30
0.0
 11
1.0966362824
 21
2.7993174291
 31
0.0
  0
LINE
  5
1C5
330
1F
100
AcDbEntity
  8
0
  6
Continuous
 62
   254
370
    25
100
AcDbLine
 10
1.0971885942
 20
2.968549543
 30
0.0
 11
1.0976536938
 21
2.810879623
 31
0.0
  0
LINE
  5
1C6
330
1F
100
AcDbEntity
  8
0
  6
Continuous
 62
   254
370
    25
100
AcDbLine
 10
1.0979443686
 20
2.9859909724
 30
0.0
 11
1.0971885942
 21
2.968549543
 31
0.0
  0
LINE
  5
1C7
330
1F
100
AcDbEntity
  8
0
  6
Continuous
 62
   254
370
    25
100
AcDbLine
 10
1.1028788038
 20
2.992357061
 30
0.0
 11
1.0979443686
 21
2.9859909724
 31
0.0
  0
LINE
  5
1C8
330
1F
100
AcDbEntity
  8
0
  6
Continuous
 62
   254
370
    25
100
AcDbLine
 10
1.114397375
 20
2.9950604787
 30
0.0
 11
1.1028788038
 21
2.992357061
 31
0.0
  0
LINE
  5
1C9
330
1F
100
AcDbEntity
  8
0
  6
Continuous
 62
   254
370
    25
100
AcDbLine
 10
1.1258651052
 20
2.9930256394
 30
0.0
 11
1.114397375
 21
2.9950604787
 31
0.0
  0
LINE
  5
1CA
330
1F
100
AcDbEntity
  8
0
  6
Continuous
 62
   254
370
    25
100
AcDbLine
 10
1.1311411385
 20
2.9871537211
 30
0.0
 11
1.1258651052
 21
2.9930256394
 31
0.0
  0
LINE
  5
1CB
330
1F
100
AcDbEntity
  8
0
  6
Continuous
 62
   254
370
    25
100
AcDbLine
 10
1.1325364535
 20
2.969479841
 30
0.0
 11
1.1311411385
 21
2.9871537211
 31
0.0
  0
LINE
  5
1CC
330
1F
100
AcDbEntity
  8
0
  6
Continuous
 62
   254
370
    25
100
AcDbLine
 10
1.1325364535
 20
2.7932057757
 30
0.0
 11
1.1325364535
 21
2.969479841
 31
0.0
  0
LINE
  5
1CD
330
1F
100
AcDbEntity
  8
0
  6
Continuous
 62
   254
370
    25
100
AcDbLine
 10
1.2120690957
 20
2.8052984454
 30
0.0
 11
1.1325364535
 21
2.7932057757
 31
0.0
  0
LINE
  5
1CE
330
1F
100
AcDbEntity
  8
0
  6
Continuous
 62
   254
370
    25
100
AcDbLine
 10
1.2120690957
 20
3.2397038915
 30
0.0
 11
1.2120690957
 21
2.8052984454
 31
0.0
  0
LINE
  5
1CF
330
1F
100
AcDbEntity
  8
0
  6
Continuous
 62
   254
370
    25
100
AcDbLine
 10
1.133001685
 20
3.2397038915
 30
0.0
 11
1.2120690957
 21
3.2397038915
 31
0.0
  0
LINE
  5
1D0
330
1F
100
AcDbEntity
  8
0
  6
Continuous
 62
   254
370
    25
100
AcDbLine
 10
1.1330015036
 20
3.0741275599
 30
0.0
 11
1.133001685
 21
3.2397038915
 31
0.0
  0
LINE
  5
1D1
330
1F
100
AcDbEntity
  8
0
  6
Continuous
 62
   254
370
    25
100
AcDbLine
 10
1.0971885778
 20
3.0741275599
 30
0.0
 11
1.1330015036
 21
3.0741275599
 31
0.0
  0
LINE
  5
1D2
330
1F
100
AcDbEntity
  8
0
  6
Continuous
 62
   254
370
    25
100
AcDbLine
 10
1.0971885778
 20
3.2415647014
 30
0.0
 11
1.0971885778
 21
3.0741275599
 31
0.0
  0
LINE
  5
1D3
330
1F
100
AcDbEntity
  8
0
  6
Continuous
 62
   254
370
    25
100
AcDbLine
 10
1.4115233994
 20
3.0541277537
 30
0.0
 11
1.4305926111
 21
3.2406339422
 31
0.0
  0
LINE
  5
1D4
330
1F
100
AcDbEntity
  8
0
  6
Continuous
 62
   254
370
    25
100
AcDbLine
 10
1.4040817579
 20
3.0541277537
 30
0.0
 11
1.4115233994
 21
3.0541277537
 31
0.0
  0
LINE
  5
1D5
330
1F
100
AcDbEntity
  8
0
  6
Continuous
 62
   254
370
    25
100
AcDbLine
 10
1.384082413
 20
3.2410986791
 30
0.0
 11
1.4040817579
 21
3.0541277537
 31
0.0
  0
LINE
  5
1D6
330
1F
100
AcDbEntity
  8
0
  6
Continuous
 62
   254
370
    25
100
AcDbLine
 10
1.277108702
 20
3.2410986791
 30
0.0
 11
1.384082413
 21
3.2410986791
 31
0.0
  0
LINE
  5
1D7
330
1F
100
AcDbEntity
  8
0
  6
Continuous
 62
   254
370
    25
100
AcDbLine
 10
1.277108702
 20
2.8178551598
 30
0.0
 11
1.277108702
 21
3.2410986791
 31
0.0
  0
LINE
  5
1D8
330
1F
100
AcDbEntity
  8
0
  6
Continuous
 62
   254
370
    25
100
AcDbLine
 10
1.3440835587
 20
2.8178551598
 30
0.0
 11
1.277108702
 21
2.8178551598
 31
0.0
  0
LINE
  5
1D9
330
1F
100
AcDbEntity
  8
0
  6
Continuous
 62
   254
370
    25
100
AcDbLine
 10
1.3440835587
 20
3.1159855599
 30
0.0
 11
1.3440835587
 21
2.8178551598
 31
0.0
  0
LINE
  5
1DA
330
1F
100
AcDbEntity
  8
0
  6
Continuous
 62
   254
370
    25
100
AcDbLine
 10
1.36408292
 20
2.9798851035
 30
0.0
 11
1.3440835587
 21
3.1159855599
 31
0.0
  0
LINE
  5
1DB
330
1F
100
AcDbEntity
  8
0
  6
Continuous
 62
   254
370
    25
100
AcDbLine
 10
1.37850112
 20
2.843435468
 30
0.0
 11
1.36408292
 21
2.9798851035
 31
0.0
  0
LINE
  5
1DC
330
1F
100
AcDbEntity
  8
0
  6
Continuous
 62
   254
370
    25
100
AcDbLine
 10
1.3807830444
 20
2.8300346628
 30
0.0
 11
1.37850112
 21
2.843435468
 31
0.0
  0
LINE
  5
1DD
330
1F
100
AcDbEntity
  8
0
  6
Continuous
 62
   254
370
    25
100
AcDbLine
 10
1.3855939783
 20
2.8206453778
 30
0.0
 11
1.3807830444
 21
2.8300346628
 31
0.0
  0
LINE
  5
1DE
330
1F
100
AcDbEntity
  8
0
  6
Continuous
 62
   254
370
    25
100
AcDbLine
 10
1.394067583
 20
2.8154420379
 30
0.0
 11
1.3855939783
 21
2.8206453778
 31
0.0
  0
LINE
  5
1DF
330
1F
100
AcDbEntity
  8
0
  6
Continuous
 62
   254
370
    25
100
AcDbLine
 10
1.4073375533
 20
2.8145990347
 30
0.0
 11
1.394067583
 21
2.8154420379
 31
0.0
  0
LINE
  5
1E0
330
1F
100
AcDbEntity
  8
0
  6
Continuous
 62
   254
370
    25
100
AcDbLine
 10
1.432918191
 20
2.8145990347
 30
0.0
 11
1.4073375533
 21
2.8145990347
 31
0.0
  0
LINE
  5
1E1
330
1F
100
AcDbEntity
  8
0
  6
Continuous
 62
   254
370
    25
100
AcDbLine
 10
1.465010255
 20
3.1211012919
 30
0.0
 11
1.432918191
 21
2.8145990347
 31
0.0
  0
LINE
  5
1E2
330
1F
100
AcDbEntity
  8
0
  6
Continuous
 62
   254
370
    25
100
AcDbLine
 10
1.473382112
 20
3.1206361924
 30
0.0
 11
1.465010255
 21
3.1211012919
 31
0.0
  0
LINE
  5
1E3
330
1F
100
AcDbEntity
  8
0
  6
Continuous
 62
   254
370
    25
100
AcDbLine
 10
1.473382112
 20
2.8113422175
 30
0.0
 11
1.473382112
 21
3.1206361924
 31
0.0
  0
LINE
  5
1E4
330
1F
100
AcDbEntity
  8
0
  6
Continuous
 62
   254
370
    25
100
AcDbLine
 10
1.5380313887
 20
2.8043679003
 30
0.0
 11
1.473382112
 21
2.8113422175
 31
0.0
  0
LINE
  5
1E5
330
1F
100
AcDbEntity
  8
0
  6
Continuous
 62
   254
370
    25
100
AcDbLine
 10
1.5380313887
 20
3.2406339422
 30
0.0
 11
1.5380313887
 21
2.8043679003
 31
0.0
  0
LINE
  5
1E6
330
1F
100
AcDbEntity
  8
0
  6
Continuous
 62
   254
370
    25
100
AcDbLine
 10
1.4305926111
 20
3.2406339422
 30
0.0
 11
1.5380313887
 21
3.2406339422
 31
0.0
  0
LINE
  5
1E7
330
1F
100
AcDbEntity
  8
0
  6
Continuous
 62
   254
370
    25
100
AcDbLine
 10
1.6688266257
 20
2.9338475527
 30
0.0
 11
1.6672569025
 21
2.8605938856
 31
0.0
  0
LINE
  5
1E8
330
1F
100
AcDbEntity
  8
0
  6
Continuous
 62
   254
370
    25
100
AcDbLine
 10
1.6672569025
 20
2.8605938856
 30
0.0
 11
1.6621989
 21
2.8468733842
 31
0.0
  0
LINE
  5
1E9
330
1F
100
AcDbEntity
  8
0
  6
Continuous
 62
   254
370
    25
100
AcDbLine
 10
1.6621989
 20
2.8468733842
 30
0.0
 11
1.6542692796
 21
2.8346420304
 31
0.0
  0
LINE
  5
1EA
330
1F
100
AcDbEntity
  8
0
  6
Continuous
 62
   254
370
    25
100
AcDbLine
 10
1.6542692796
 20
2.8346420304
 30
0.0
 11
1.6434785212
 21
2.8464654045
 31
0.0
  0
LINE
  5
1EB
330
1F
100
AcDbEntity
  8
0
  6
Continuous
 62
   254
370
    25
100
AcDbLine
 10
1.6434785212
 20
2.8464654045
 30
0.0
 11
1.6385586049
 21
2.8532312164
 31
0.0
  0
LINE
  5
1EC
330
1F
100
AcDbEntity
  8
0
  6
Continuous
 62
   254
370
    25
100
AcDbLine
 10
1.6385586049
 20
2.8532312164
 30
0.0
 11
1.6365601207
 21
2.8601278303
 31
0.0
  0
LINE
  5
1ED
330
1F
100
AcDbEntity
  8
0
  6
Continuous
 62
   254
370
    25
100
AcDbLine
 10
1.6365601207
 20
2.8601278303
 30
0.0
 11
1.6337695071
 21
3.1587246153
 31
0.0
  0
LINE
  5
1EE
330
1F
100
AcDbEntity
  8
0
  6
Continuous
 62
   254
370
    25
100
AcDbLine
 10
1.6337695071
 20
3.1587246153
 30
0.0
 11
1.6356008508
 21
3.1659773464
 31
0.0
  0
LINE
  5
1EF
330
1F
100
AcDbEntity
  8
0
  6
Continuous
 62
   254
370
    25
100
AcDbLine
 10
1.6356008508
 20
3.1659773464
 30
0.0
 11
1.6400484
 21
3.1731428485
 31
0.0
  0
LINE
  5
1F0
330
1F
100
AcDbEntity
  8
0
  6
Continuous
 62
   254
370
    25
100
AcDbLine
 10
1.6400484
 20
3.1731428485
 30
0.0
 11
1.6505132213
 21
3.1875610486
 31
0.0
  0
LINE
  5
1F1
330
1F
100
AcDbEntity
  8
0
  6
Continuous
 62
   254
370
    25
100
AcDbLine
 10
1.6505132213
 20
3.1875610486
 30
0.0
 11
1.6612105595
 21
3.1735498888
 31
0.0
  0
LINE
  5
1F2
330
1F
100
AcDbEntity
  8
0
  6
Continuous
 62
   254
370
    25
100
AcDbLine
 10
1.6612105595
 20
3.1735498888
 30
0.0
 11
1.6656871628
 21
3.166435277
 31
0.0
  0
LINE
  5
1F3
330
1F
100
AcDbEntity
  8
0
  6
Continuous
 62
   254
370
    25
100
AcDbLine
 10
1.6656871628
 20
3.166435277
 30
0.0
 11
1.667722002
 21
3.1591898468
 31
0.0
  0
LINE
  5
1F4
330
1F
100
AcDbEntity
  8
0
  6
Continuous
 62
   254
370
    25
100
AcDbLine
 10
1.667722002
 20
3.1591898468
 30
0.0
 11
1.668652201
 21
3.0071012197
 31
0.0
  0
LINE
  5
1F5
330
1F
100
AcDbEntity
  8
0
  6
Continuous
 62
   254
370
    25
100
AcDbLine
 10
1.668652201
 20
3.0071012197
 30
0.0
 11
1.6688266257
 21
2.9338475527
 31
0.0
  0
LINE
  5
1F6
330
1F
100
AcDbEntity
  8
0
  6
Continuous
 62
   254
370
    25
100
AcDbLine
 10
1.7467894953
 20
3.1754676868
 30
0.0
 11
1.7485336267
 21
3.1388990031
 31
0.0
  0
LINE
  5
1F7
330
1F
100
AcDbEntity
  8
0
  6
Continuous
 62
   254
370
    25
100
AcDbLine
 10
1.7428189113
 20
3.1921250785
 30
0.0
 11
1.7467894953
 21
3.1754676868
 31
0.0
  0
LINE
  5
1F8
330
1F
100
AcDbEntity
  8
0
  6
Continuous
 62
   254
370
    25
100
AcDbLine
 10
1.7356052875
 20
3.2067821732
 30
0.0
 11
1.7428189113
 21
3.1921250785
 31
0.0
  0
LINE
  5
1F9
330
1F
100
AcDbEntity
  8
0
  6
Continuous
 62
   254
370
    25
100
AcDbLine
 10
1.7253939455
 20
3.2193135908
 30
0.0
 11
1.7356052875
 21
3.2067821732
 31
0.0
  0
LINE
  5
1FA
330
1F
100
AcDbEntity
  8
0
  6
Continuous
 62
   254
370
    25
100
AcDbLine
 10
1.7124301084
 20
3.2295940005
 30
0.0
 11
1.7253939455
 21
3.2193135908
 31
0.0
  0
LINE
  5
1FB
330
1F
100
AcDbEntity
  8
0
  6
Continuous
 62
   254
370
    25
100
AcDbLine
 10
1.6969590813
 20
3.2374980225
 30
0.0
 11
1.7124301084
 21
3.2295940005
 31
0.0
  0
LINE
  5
1FC
330
1F
100
AcDbEntity
  8
0
  6
Continuous
 62
   254
370
    25
100
AcDbLine
 10
1.6792261202
 20
3.2429002928
 30
0.0
 11
1.6969590813
 21
3.2374980225
 31
0.0
  0
LINE
  5
1FD
330
1F
100
AcDbEntity
  8
0
  6
Continuous
 62
   254
370
    25
100
AcDbLine
 10
1.6594765138
 20
3.2456754645
 30
0.0
 11
1.6792261202
 21
3.2429002928
 31
0.0
  0
LINE
  5
1FE
330
1F
100
AcDbEntity
  8
0
  6
Continuous
 62
   254
370
    25
100
AcDbLine
 10
1.6379555181
 20
3.2456981741
 30
0.0
 11
1.6594765138
 21
3.2456754645
 31
0.0
  0
LINE
  5
1FF
330
1F
100
AcDbEntity
  8
0
  6
Continuous
 62
   254
370
    25
100
AcDbLine
 10
1.6203560947
 20
3.2430047763
 30
0.0
 11
1.6379555181
 21
3.2456981741
 31
0.0
  0
LINE
  5
200
330
1F
100
AcDbEntity
  8
0
  6
Continuous
 62
   254
370
    25
100
AcDbLine
 10
1.6043373042
 20
3.2374935069
 30
0.0
 11
1.6203560947
 21
3.2430047763
 31
0.0
  0
LINE
  5
201
330
1F
100
AcDbEntity
  8
0
  6
Continuous
 62
   254
370
    25
100
AcDbLine
 10
1.5901280379
 20
3.229355139
 30
0.0
 11
1.6043373042
 21
3.2374935069
 31
0.0
  0
LINE
  5
202
330
1F
100
AcDbEntity
  8
0
  6
Continuous
 62
   254
370
    25
100
AcDbLine
 10
1.5779572365
 20
3.2187804123
 30
0.0
 11
1.5901280379
 21
3.229355139
 31
0.0
  0
LINE
  5
203
330
1F
100
AcDbEntity
  8
0
  6
Continuous
 62
   254
370
    25
100
AcDbLine
 10
1.568053791
 20
3.2059600998
 30
0.0
 11
1.5779572365
 21
3.2187804123
 31
0.0
  0
LINE
  5
204
330
1F
100
AcDbEntity
  8
0
  6
Continuous
 62
   254
370
    25
100
AcDbLine
 10
1.5606466586
 20
3.1910849907
 30
0.0
 11
1.568053791
 21
3.2059600998
 31
0.0
  0
LINE
  5
205
330
1F
100
AcDbEntity
  8
0
  6
Continuous
 62
   254
370
    25
100
AcDbLine
 10
1.5559647306
 20
3.1743458415
 30
0.0
 11
1.5606466586
 21
3.1910849907
 31
0.0
  0
LINE
  5
206
330
1F
100
AcDbEntity
  8
0
  6
Continuous
 62
   254
370
    25
100
AcDbLine
 10
1.5542369473
 20
3.1559334086
 30
0.0
 11
1.5559647306
 21
3.1743458415
 31
0.0
  0
LINE
  5
207
330
1F
100
AcDbEntity
  8
0
  6
Continuous
 62
   254
370
    25
100
AcDbLine
 10
1.5542369473
 20
2.8973369611
 30
0.0
 11
1.5542369473
 21
3.1559334086
 31
0.0
  0
LINE
  5
208
330
1F
100
AcDbEntity
  8
0
  6
Continuous
 62
   254
370
    25
100
AcDbLine
 10
1.5564107626
 20
2.8694562381
 30
0.0
 11
1.5542369473
 21
2.8973369611
 31
0.0
  0
LINE
  5
209
330
1F
100
AcDbEntity
  8
0
  6
Continuous
 62
   254
370
    25
100
AcDbLine
 10
1.5628195345
 20
2.8448675664
 30
0.0
 11
1.5564107626
 21
2.8694562381
 31
0.0
  0
LINE
  5
20A
330
1F
100
AcDbEntity
  8
0
  6
Continuous
 62
   254
370
    25
100
AcDbLine
 10
1.5732943429
 20
2.8237235514
 30
0.0
 11
1.5628195345
 21
2.8448675664
 31
0.0
  0
LINE
  5
20B
330
1F
100
AcDbEntity
  8
0
  6
Continuous
 62
   254
370
    25
100
AcDbLine
 10
1.5876662011
 20
2.8061768146
 30
0.0
 11
1.5732943429
 21
2.8237235514
 31
0.0
  0
LINE
  5
20C
330
1F
100
AcDbEntity
  8
0
  6
Continuous
 62
   254
370
    25
100
AcDbLine
 10
1.6057661561
 20
2.7923799612
 30
0.0
 11
1.5876662011
 21
2.8061768146
 31
0.0
  0
LINE
  5
20D
330
1F
100
AcDbEntity
  8
0
  6
Continuous
 62
   254
370
    25
100
AcDbLine
 10
1.6274252381
 20
2.7824856293
 30
0.0
 11
1.6057661561
 21
2.7923799612
 31
0.0
  0
LINE
  5
20E
330
1F
100
AcDbEntity
  8
0
  6
Continuous
 62
   254
370
    25
100
AcDbLine
 10
1.6524744772
 20
2.7766463907
 30
0.0
 11
1.6274252381
 21
2.7824856293
 31
0.0
  0
LINE
  5
20F
330
1F
100
AcDbEntity
  8
0
  6
Continuous
 62
   254
370
    25
100
AcDbLine
 10
1.6807449365
 20
2.7750149005
 30
0.0
 11
1.6524744772
 21
2.7766463907
 31
0.0
  0
LINE
  5
210
330
1F
100
AcDbEntity
  8
0
  6
Continuous
 62
   254
370
    25
100
AcDbLine
 10
1.7089418127
 20
2.7801382627
 30
0.0
 11
1.6807449365
 21
2.7750149005
 31
0.0
  0
LINE
  5
211
330
1F
100
AcDbEntity
  8
0
  6
Continuous
 62
   254
370
    25
100
AcDbLine
 10
1.7204785449
 20
2.7858966172
 30
0.0
 11
1.7089418127
 21
2.7801382627
 31
0.0
  0
LINE
  5
212
330
1F
100
AcDbEntity
  8
0
  6
Continuous
 62
   254
370
    25
100
AcDbLine
 10
1.7301621302
 20
2.7936771047
 30
0.0
 11
1.7204785449
 21
2.7858966172
 31
0.0
  0
LINE
  5
213
330
1F
100
AcDbEntity
  8
0
  6
Continuous
 62
   254
370
    25
100
AcDbLine
 10
1.7378835697
 20
2.8033979185
 30
0.0
 11
1.7301621302
 21
2.7936771047
 31
0.0
  0
LINE
  5
214
330
1F
100
AcDbEntity
  8
0
  6
Continuous
 62
   254
370
    25
100
AcDbLine
 10
1.7435338317
 20
2.8149773504
 30
0.0
 11
1.7378835697
 21
2.8033979185
 31
0.0
  0
LINE
  5
215
330
1F
100
AcDbEntity
  8
0
  6
Continuous
 62
   254
370
    25
100
AcDbLine
 10
1.7470039334
 20
2.8283336102
 30
0.0
 11
1.7435338317
 21
2.8149773504
 31
0.0
  0
LINE
  5
216
330
1F
100
AcDbEntity
  8
0
  6
Continuous
 62
   254
370
    25
100
AcDbLine
 10
1.7481848598
 20
2.8433849566
 30
0.0
 11
1.7470039334
 21
2.8283336102
 31
0.0
  0
LINE
  5
217
330
1F
100
AcDbEntity
  8
0
  6
Continuous
 62
   254
370
    25
100
AcDbLine
 10
1.7481848103
 20
3.1019814041
 30
0.0
 11
1.7481848598
 21
2.8433849566
 31
0.0
  0
LINE
  5
218
330
1F
100
AcDbEntity
  8
0
  6
Continuous
 62
   254
370
    25
100
AcDbLine
 10
1.7485336267
 20
3.1388990031
 30
0.0
 11
1.7481848103
 21
3.1019814041
 31
0.0
  0
LINE
  5
219
330
1F
100
AcDbEntity
  8
0
  6
Continuous
 62
   254
370
    25
100
AcDbLine
 10
1.8801718834
 20
2.9554854084
 30
0.0
 11
1.8801718834
 21
3.2336172877
 31
0.0
  0
LINE
  5
21A
330
1F
100
AcDbEntity
  8
0
  6
Continuous
 62
   254
370
    25
100
AcDbLine
 10
1.8735441577
 20
2.9599620282
 30
0.0
 11
1.8801718834
 21
2.9554854084
 31
0.0
  0
LINE
  5
21B
330
1F
100
AcDbEntity
  8
0
  6
Continuous
 62
   254
370
    25
100
AcDbLine
 10
1.8718000263
 20
2.9647874644
 30
0.0
 11
1.8735441577
 21
2.9599620282
 31
0.0
  0
LINE
  5
21C
330
1F
100
AcDbEntity
  8
0
  6
Continuous
 62
   254
370
    25
100
AcDbLine
 10
1.834591736
 20
3.2112925112
 30
0.0
 11
1.8718000263
 21
2.9647874644
 31
0.0
  0
LINE
  5
21D
330
1F
100
AcDbEntity
  8
0
  6
Continuous
 62
   254
370
    25
100
AcDbLine
 10
1.8319464763
 20
3.2229273821
 30
0.0
 11
1.834591736
 21
3.2112925112
 31
0.0
  0
LINE
  5
21E
330
1F
100
AcDbEntity
  8
0
  6
Continuous
 62
   254
370
    25
100
AcDbLine
 10
1.8270338278
 20
3.2307687469
 30
0.0
 11
1.8319464763
 21
3.2229273821
 31
0.0
  0
LINE
  5
21F
330
1F
100
AcDbEntity
  8
0
  6
Continuous
 62
   254
370
    25
100
AcDbLine
 10
1.819156141
 20
3.2350346035
 30
0.0
 11
1.8270338278
 21
3.2307687469
 31
0.0
  0
LINE
  5
220
330
1F
100
AcDbEntity
  8
0
  6
Continuous
 62
   254
370
    25
100
AcDbLine
 10
1.8076157337
 20
3.235943016
 30
0.0
 11
1.819156141
 21
3.2350346035
 31
0.0
  0
LINE
  5
221
330
1F
100
AcDbEntity
  8
0
  6
Continuous
 62
   254
370
    25
100
AcDbLine
 10
1.7666867462
 20
3.235943016
 30
0.0
 11
1.8076157337
 21
3.235943016
 31
0.0
  0
LINE
  5
222
330
1F
100
AcDbEntity
  8
0
  6
Continuous
 62
   254
370
    25
100
AcDbLine
 10
1.7634310332
 20
3.2271060593
 30
0.0
 11
1.7666867462
 21
3.235943016
 31
0.0
  0
LINE
  5
223
330
1F
100
AcDbEntity
  8
0
  6
Continuous
 62
   254
370
    25
100
AcDbLine
 10
1.7634310332
 20
2.7647933243
 30
0.0
 11
1.7634310332
 21
3.2271060593
 31
0.0
  0
LINE
  5
224
330
1F
100
AcDbEntity
  8
0
  6
Continuous
 62
   254
370
    25
100
AcDbLine
 10
1.767442537
 20
2.7529912967
 30
0.0
 11
1.7634310332
 21
2.7647933243
 31
0.0
  0
LINE
  5
225
330
1F
100
AcDbEntity
  8
0
  6
Continuous
 62
   254
370
    25
100
AcDbLine
 10
1.7759888024
 20
2.7443287482
 30
0.0
 11
1.767442537
 21
2.7529912967
 31
0.0
  0
LINE
  5
226
330
1F
100
AcDbEntity
  8
0
  6
Continuous
 62
   254
370
    25
100
AcDbLine
 10
1.8014530911
 20
2.7350847677
 30
0.0
 11
1.7759888024
 21
2.7443287482
 31
0.0
  0
LINE
  5
227
330
1F
100
AcDbEntity
  8
0
  6
Continuous
 62
   254
370
    25
100
AcDbLine
 10
1.831801073
 20
2.7261896696
 30
0.0
 11
1.8014530911
 21
2.7350847677
 31
0.0
  0
LINE
  5
228
330
1F
100
AcDbEntity
  8
0
  6
Continuous
 62
   254
370
    25
100
AcDbLine
 10
1.831801073
 20
2.8885105847
 30
0.0
 11
1.831801073
 21
2.7261896696
 31
0.0
  0
LINE
  5
229
330
1F
100
AcDbEntity
  8
0
  6
Continuous
 62
   254
370
    25
100
AcDbLine
 10
1.8413938204
 20
2.8779295461
 30
0.0
 11
1.831801073
 21
2.8885105847
 31
0.0
  0
LINE
  5
22A
330
1F
100
AcDbEntity
  8
0
  6
Continuous
 62
   254
370
    25
100
AcDbLine
 10
1.8457541571
 20
2.8666508089
 30
0.0
 11
1.8413938204
 21
2.8779295461
 31
0.0
  0
LINE
  5
22B
330
1F
100
AcDbEntity
  8
0
  6
Continuous
 62
   254
370
    25
100
AcDbLine
 10
1.8778462209
 20
2.726654901
 30
0.0
 11
1.8457541571
 21
2.8666508089
 31
0.0
  0
LINE
  5
22C
330
1F
100
AcDbEntity
  8
0
  6
Continuous
 62
   254
370
    25
100
AcDbLine
 10
1.8836600143
 20
2.7121204507
 30
0.0
 11
1.8778462209
 21
2.726654901
 31
0.0
  0
LINE
  5
22D
330
1F
100
AcDbEntity
  8
0
  6
Continuous
 62
   254
370
    25
100
AcDbLine
 10
1.8936597196
 20
2.7010742632
 30
0.0
 11
1.8836600143
 21
2.7121204507
 31
0.0
  0
LINE
  5
22E
330
1F
100
AcDbEntity
  8
0
  6
Continuous
 62
   254
370
    25
100
AcDbLine
 10
1.9194728742
 20
2.6888653434
 30
0.0
 11
1.8936597196
 21
2.7010742632
 31
0.0
  0
LINE
  5
22F
330
1F
100
AcDbEntity
  8
0
  6
Continuous
 62
   254
370
    25
100
AcDbLine
 10
1.9494722045
 20
2.6773535291
 30
0.0
 11
1.9194728742
 21
2.6888653434
 31
0.0
  0
LINE
  5
230
330
1F
100
AcDbEntity
  8
0
  6
Continuous
 62
   254
370
    25
100
AcDbLine
 10
1.949937304
 20
3.2336172877
 30
0.0
 11
1.9494722045
 21
2.6773535291
 31
0.0
  0
LINE
  5
231
330
1F
100
AcDbEntity
  8
0
  6
Continuous
 62
   254
370
    25
100
AcDbLine
 10
1.8801718834
 20
3.2336172877
 30
0.0
 11
1.949937304
 21
3.2336172877
 31
0.0
  0
LINE
  5
232
330
1F
100
AcDbEntity
  8
0
  6
Continuous
 62
   254
370
    25
100
AcDbLine
 10
1.9696820488
 20
2.7243225971
 30
0.0
 11
1.9710192222
 21
2.9622224131
 31
0.0
  0
LINE
  5
233
330
1F
100
AcDbEntity
  8
0
  6
Continuous
 62
   254
370
    25
100
AcDbLine
 10
1.9709175074
 20
2.6950865231
 30
0.0
 11
1.9696820488
 21
2.7243225971
 31
0.0
  0
LINE
  5
234
330
1F
100
AcDbEntity
  8
0
  6
Continuous
 62
   254
370
    25
100
AcDbLine
 10
1.977821389
 20
2.6707776166
 30
0.0
 11
1.9709175074
 21
2.6950865231
 31
0.0
  0
LINE
  5
235
330
1F
100
AcDbEntity
  8
0
  6
Continuous
 62
   254
370
    25
100
AcDbLine
 10
1.9842438065
 20
2.6604299683
 30
0.0
 11
1.977821389
 21
2.6707776166
 31
0.0
  0
LINE
  5
236
330
1F
100
AcDbEntity
  8
0
  6
Continuous
 62
   254
370
    25
100
AcDbLine
 10
1.9930971277
 20
2.6512650756
 30
0.0
 11
1.9842438065
 21
2.6604299683
 31
0.0
  0
LINE
  5
237
330
1F
100
AcDbEntity
  8
0
  6
Continuous
 62
   254
370
    25
100
AcDbLine
 10
2.0047192429
 20
2.6432665571
 30
0.0
 11
1.9930971277
 21
2.6512650756
 31
0.0
  0
LINE
  5
238
330
1F
100
AcDbEntity
  8
0
  6
Continuous
 62
   254
370
    25
100
AcDbLine
 10
2.0194481247
 20
2.6364180978
 30
0.0
 11
2.0047192429
 21
2.6432665571
 31
0.0
  0
LINE
  5
239
330
1F
100
AcDbEntity
  8
0
  6
Continuous
 62
   254
370
    25
100
AcDbLine
 10
2.0393385364
 20
2.6269780379
 30
0.0
 11
2.0194481247
 21
2.6364180978
 31
0.0
  0
LINE
  5
23A
330
1F
100
AcDbEntity
  8
0
  6
Continuous
 62
   254
370
    25
100
AcDbLine
 10
2.0582260722
 20
2.614965313
 30
0.0
 11
2.0393385364
 21
2.6269780379
 31
0.0
  0
LINE
  5
23B
330
1F
100
AcDbEntity
  8
0
  6
Continuous
 62
   254
370
    25
100
AcDbLine
 10
2.0952599049
 20
2.5889776844
 30
0.0
 11
2.0582260722
 21
2.614965313
 31
0.0
  0
LINE
  5
23C
330
1F
100
AcDbEntity
  8
0
  6
Continuous
 62
   254
370
    25
100
AcDbLine
 10
2.1161895476
 20
2.5773501142
 30
0.0
 11
2.0952599049
 21
2.5889776844
 31
0.0
  0
LINE
  5
23D
330
1F
100
AcDbEntity
  8
0
  6
Continuous
 62
   254
370
    25
100
AcDbLine
 10
2.1155500234
 20
2.6163024535
 30
0.0
 11
2.1161895476
 21
2.5773501142
 31
0.0
  0
LINE
  5
23E
330
1F
100
AcDbEntity
  8
0
  6
Continuous
 62
   254
370
    25
100
AcDbLine
 10
2.1166546472
 20
2.65176653
 30
0.0
 11
2.1155500234
 21
2.6163024535
 31
0.0
  0
LINE
  5
23F
330
1F
100
AcDbEntity
  8
0
  6
Continuous
 62
   254
370
    25
100
AcDbLine
 10
2.1166182757
 20
2.6731757417
 30
0.0
 11
2.1166546472
 21
2.65176653
 31
0.0
  0
LINE
  5
240
330
1F
100
AcDbEntity
  8
0
  6
Continuous
 62
   254
370
    25
100
AcDbLine
 10
2.1111315122
 20
2.6908350864
 30
0.0
 11
2.1166182757
 21
2.6731757417
 31
0.0
  0
LINE
  5
241
330
1F
100
AcDbEntity
  8
0
  6
Continuous
 62
   254
370
    25
100
AcDbLine
 10
2.0994530847
 20
2.7050062014
 30
0.0
 11
2.1111315122
 21
2.6908350864
 31
0.0
  0
LINE
  5
242
330
1F
100
AcDbEntity
  8
0
  6
Continuous
 62
   254
370
    25
100
AcDbLine
 10
2.0808417213
 20
2.7159506577
 30
0.0
 11
2.0994530847
 21
2.7050062014
 31
0.0
  0
LINE
  5
243
330
1F
100
AcDbEntity
  8
0
  6
Continuous
 62
   254
370
    25
100
AcDbLine
 10
2.0631096831
 20
2.7269968287
 30
0.0
 11
2.0808417213
 21
2.7159506577
 31
0.0
  0
LINE
  5
244
330
1F
100
AcDbEntity
  8
0
  6
Continuous
 62
   254
370
    25
100
AcDbLine
 10
2.0563148169
 20
2.7342640621
 30
0.0
 11
2.0631096831
 21
2.7269968287
 31
0.0
  0
LINE
  5
245
330
1F
100
AcDbEntity
  8
0
  6
Continuous
 62
   254
370
    25
100
AcDbLine
 10
2.0534006526
 20
2.7415312954
 30
0.0
 11
2.0563148169
 21
2.7342640621
 31
0.0
  0
LINE
  5
246
330
1F
100
AcDbEntity
  8
0
  6
Continuous
 62
   254
370
    25
100
AcDbLine
 10
2.0516565212
 20
2.82141282
 30
0.0
 11
2.0534006526
 21
2.7415312954
 31
0.0
  0
LINE
  5
247
330
1F
100
AcDbEntity
  8
0
  6
Continuous
 62
   254
370
    25
100
AcDbLine
 10
2.052005354
 20
2.9033871441
 30
0.0
 11
2.0516565212
 21
2.82141282
 31
0.0
  0
LINE
  5
248
330
1F
100
AcDbEntity
  8
0
  6
Continuous
 62
   254
370
    25
100
AcDbLine
 10
2.1073525581
 20
2.8959455024
 30
0.0
 11
2.052005354
 21
2.9033871441
 31
0.0
  0
LINE
  5
249
330
1F
100
AcDbEntity
  8
0
  6
Continuous
 62
   254
370
    25
100
AcDbLine
 10
2.1068874421
 20
2.9201889998
 30
0.0
 11
2.1073525581
 21
2.8959455024
 31
0.0
  0
LINE
  5
24A
330
1F
100
AcDbEntity
  8
0
  6
Continuous
 62
   254
370
    25
100
AcDbLine
 10
2.1078176576
 20
2.9419907163
 30
0.0
 11
2.1068874421
 21
2.9201889998
 31
0.0
  0
LINE
  5
24B
330
1F
100
AcDbEntity
  8
0
  6
Continuous
 62
   254
370
    25
100
AcDbLine
 10
2.1084716842
 20
2.9626150664
 30
0.0
 11
2.1078176576
 21
2.9419907163
 31
0.0
  0
LINE
  5
24C
330
1F
100
AcDbEntity
  8
0
  6
Continuous
 62
   254
370
    25
100
AcDbLine
 10
2.1029340303
 20
2.9782686758
 30
0.0
 11
2.1084716842
 21
2.9626150664
 31
0.0
  0
LINE
  5
24D
330
1F
100
AcDbEntity
  8
0
  6
Continuous
 62
   254
370
    25
100
AcDbLine
 10
2.0904198509
 20
2.9886898745
 30
0.0
 11
2.1029340303
 21
2.9782686758
 31
0.0
  0
LINE
  5
24E
330
1F
100
AcDbEntity
  8
0
  6
Continuous
 62
   254
370
    25
100
AcDbLine
 10
2.0701443008
 20
2.9936170585
 30
0.0
 11
2.0904198509
 21
2.9886898745
 31
0.0
  0
LINE
  5
24F
330
1F
100
AcDbEntity
  8
0
  6
Continuous
 62
   254
370
    25
100
AcDbLine
 10
2.0608931021
 20
2.9960224512
 30
0.0
 11
2.0701443008
 21
2.9936170585
 31
0.0
  0
LINE
  5
250
330
1F
100
AcDbEntity
  8
0
  6
Continuous
 62
   254
370
    25
100
AcDbLine
 10
2.05508656
 20
3.0010004926
 30
0.0
 11
2.0608931021
 21
2.9960224512
 31
0.0
  0
LINE
  5
251
330
1F
100
AcDbEntity
  8
0
  6
Continuous
 62
   254
370
    25
100
AcDbLine
 10
2.0521578602
 20
3.0083331187
 30
0.0
 11
2.05508656
 21
3.0010004926
 31
0.0
  0
LINE
  5
252
330
1F
100
AcDbEntity
  8
0
  6
Continuous
 62
   254
370
    25
100
AcDbLine
 10
2.0515401556
 20
3.0178023318
 30
0.0
 11
2.0521578602
 21
3.0083331187
 31
0.0
  0
LINE
  5
253
330
1F
100
AcDbEntity
  8
0
  6
Continuous
 62
   254
370
    25
100
AcDbLine
 10
2.052005255
 20
3.1210551807
 30
0.0
 11
2.0515401556
 21
3.0178023318
 31
0.0
  0
LINE
  5
254
330
1F
100
AcDbEntity
  8
0
  6
Continuous
 62
   254
370
    25
100
AcDbLine
 10
2.0526956367
 20
3.1474497839
 30
0.0
 11
2.052005255
 21
3.1210551807
 31
0.0
  0
LINE
  5
255
330
1F
100
AcDbEntity
  8
0
  6
Continuous
 62
   254
370
    25
100
AcDbLine
 10
2.0575283571
 20
3.1612865849
 30
0.0
 11
2.0526956367
 21
3.1474497839
 31
0.0
  0
LINE
  5
256
330
1F
100
AcDbEntity
  8
0
  6
Continuous
 62
   254
370
    25
100
AcDbLine
 10
2.0706457058
 20
3.1671003782
 30
0.0
 11
2.0575283571
 21
3.1612865849
 31
0.0
  0
LINE
  5
257
330
1F
100
AcDbEntity
  8
0
  6
Continuous
 62
   254
370
    25
100
AcDbLine
 10
2.0961900381
 20
3.1694258923
 30
0.0
 11
2.0706457058
 21
3.1671003782
 31
0.0
  0
LINE
  5
258
330
1F
100
AcDbEntity
  8
0
  6
Continuous
 62
   254
370
    25
100
AcDbLine
 10
2.1054920941
 20
3.1722165058
 30
0.0
 11
2.0961900381
 21
3.1694258923
 31
0.0
  0
LINE
  5
259
330
1F
100
AcDbEntity
  8
0
  6
Continuous
 62
   254
370
    25
100
AcDbLine
 10
2.1054920941
 20
3.2350054339
 30
0.0
 11
2.1054920941
 21
3.1722165058
 31
0.0
  0
LINE
  5
25A
330
1F
100
AcDbEntity
  8
0
  6
Continuous
 62
   254
370
    25
100
AcDbLine
 10
1.9710773638
 20
3.2350053844
 30
0.0
 11
2.1054920941
 21
3.2350054339
 31
0.0
  0
LINE
  5
25B
330
1F
100
AcDbEntity
  8
0
  6
Continuous
 62
   254
370
    25
100
AcDbLine
 10
1.9706122478
 20
3.2001225916
 30
0.0
 11
1.9710773638
 21
3.2350053844
 31
0.0
  0
LINE
  5
25C
330
1F
100
AcDbEntity
  8
0
  6
Continuous
 62
   254
370
    25
100
AcDbLine
 10
1.9710192222
 20
2.9622224131
 30
0.0
 11
1.9706122478
 21
3.2001225916
 31
0.0
  0
LINE
  5
25D
330
1F
100
AcDbEntity
  8
0
  6
Continuous
 62
   254
370
    25
100
AcDbLine
 10
2.1221410975
 20
3.2281855015
 30
0.0
 11
2.1280493708
 21
3.2322333439
 31
0.0
  0
LINE
  5
25E
330
1F
100
AcDbEntity
  8
0
  6
Continuous
 62
   254
370
    25
100
AcDbLine
 10
2.1196338911
 20
3.2212598168
 30
0.0
 11
2.1221410975
 21
3.2281855015
 31
0.0
  0
LINE
  5
25F
330
1F
100
AcDbEntity
  8
0
  6
Continuous
 62
   254
370
    25
100
AcDbLine
 10
2.1198737085
 20
3.2114999289
 30
0.0
 11
2.1196338911
 21
3.2212598168
 31
0.0
  0
LINE
  5
260
330
1F
100
AcDbEntity
  8
0
  6
Continuous
 62
   254
370
    25
100
AcDbLine
 10
2.1603376296
 20
2.9129031439
 30
0.0
 11
2.1198737085
 21
3.2114999289
 31
0.0
  0
LINE
  5
261
330
1F
100
AcDbEntity
  8
0
  6
Continuous
 62
   254
370
    25
100
AcDbLine
 10
2.1756278871
 20
2.7864535764
 30
0.0
 11
2.1603376296
 21
2.9129031439
 31
0.0
  0
LINE
  5
262
330
1F
100
AcDbEntity
  8
0
  6
Continuous
 62
   254
370
    25
100
AcDbLine
 10
2.1796321232
 20
2.7229016887
 30
0.0
 11
2.1756278871
 21
2.7864535764
 31
0.0
  0
LINE
  5
263
330
1F
100
AcDbEntity
  8
0
  6
Continuous
 62
   254
370
    25
100
AcDbLine
 10
2.1794068412
 20
2.6589573619
 30
0.0
 11
2.1796321232
 21
2.7229016887
 31
0.0
  0
LINE
  5
264
330
1F
100
AcDbEntity
  8
0
  6
Continuous
 62
   254
370
    25
100
AcDbLine
 10
2.1785347673
 20
2.5950057675
 30
0.0
 11
2.1794068412
 21
2.6589573619
 31
0.0
  0
LINE
  5
265
330
1F
100
AcDbEntity
  8
0
  6
Continuous
 62
   254
370
    25
100
AcDbLine
 10
2.1794068412
 20
2.531054173
 30
0.0
 11
2.1785347673
 21
2.5950057675
 31
0.0
  0
LINE
  5
266
330
1F
100
AcDbEntity
  8
0
  6
Continuous
 62
   254
370
    25
100
AcDbLine
 10
2.1802207735
 20
2.5172173885
 30
0.0
 11
2.1794068412
 21
2.531054173
 31
0.0
  0
LINE
  5
267
330
1F
100
AcDbEntity
  8
0
  6
Continuous
 62
   254
370
    25
100
AcDbLine
 10
2.1845229688
 20
2.5054735353
 30
0.0
 11
2.1802207735
 21
2.5172173885
 31
0.0
  0
LINE
  5
268
330
1F
100
AcDbEntity
  8
0
  6
Continuous
 62
   254
370
    25
100
AcDbLine
 10
2.2514978254
 20
2.425940893
 30
0.0
 11
2.1845229688
 21
2.5054735353
 31
0.0
  0
LINE
  5
269
330
1F
100
AcDbEntity
  8
0
  6
Continuous
 62
   254
370
    25
100
AcDbLine
 10
2.260334782
 20
2.425940893
 30
0.0
 11
2.2514978254
 21
2.425940893
 31
0.0
  0
LINE
  5
26A
330
1F
100
AcDbEntity
  8
0
  6
Continuous
 62
   254
370
    25
100
AcDbLine
 10
2.2540749731
 20
2.527399017
 30
0.0
 11
2.260334782
 21
2.425940893
 31
0.0
  0
LINE
  5
26B
330
1F
100
AcDbEntity
  8
0
  6
Continuous
 62
   254
370
    25
100
AcDbLine
 10
2.253510845
 20
2.6284646359
 30
0.0
 11
2.2540749731
 21
2.527399017
 31
0.0
  0
LINE
  5
26C
330
1F
100
AcDbEntity
  8
0
  6
Continuous
 62
   254
370
    25
100
AcDbLine
 10
2.2577104025
 20
2.7292249623
 30
0.0
 11
2.253510845
 21
2.6284646359
 31
0.0
  0
LINE
  5
26D
330
1F
100
AcDbEntity
  8
0
  6
Continuous
 62
   254
370
    25
100
AcDbLine
 10
2.2657416173
 20
2.8297672248
 30
0.0
 11
2.2577104025
 21
2.7292249623
 31
0.0
  0
LINE
  5
26E
330
1F
100
AcDbEntity
  8
0
  6
Continuous
 62
   254
370
    25
100
AcDbLine
 10
2.2895708725
 20
3.0305463582
 30
0.0
 11
2.2657416173
 21
2.8297672248
 31
0.0
  0
LINE
  5
26F
330
1F
100
AcDbEntity
  8
0
  6
Continuous
 62
   254
370
    25
100
AcDbLine
 10
2.3175424171
 20
3.2314997682
 30
0.0
 11
2.2895708725
 21
3.0305463582
 31
0.0
  0
LINE
  5
270
330
1F
100
AcDbEntity
  8
0
  6
Continuous
 62
   254
370
    25
100
AcDbLine
 10
2.2417306369
 20
3.2314997682
 30
0.0
 11
2.3175424171
 21
3.2314997682
 31
0.0
  0
LINE
  5
271
330
1F
100
AcDbEntity
  8
0
  6
Continuous
 62
   254
370
    25
100
AcDbLine
 10
2.2221963585
 20
3.015227343
 30
0.0
 11
2.2417306369
 21
3.2314997682
 31
0.0
  0
LINE
  5
272
330
1F
100
AcDbEntity
  8
0
  6
Continuous
 62
   254
370
    25
100
AcDbLine
 10
2.214754717
 20
3.0156924426
 30
0.0
 11
2.2221963585
 21
3.015227343
 31
0.0
  0
LINE
  5
273
330
1F
100
AcDbEntity
  8
0
  6
Continuous
 62
   254
370
    25
100
AcDbLine
 10
2.1933599912
 20
3.2328946052
 30
0.0
 11
2.214754717
 21
3.0156924426
 31
0.0
  0
LINE
  5
274
330
1F
100
AcDbEntity
  8
0
  6
Continuous
 62
   254
370
    25
100
AcDbLine
 10
2.1380127872
 20
3.2333597047
 30
0.0
 11
2.1933599912
 21
3.2328946052
 31
0.0
  0
LINE
  5
275
330
1F
100
AcDbEntity
  8
0
  6
Continuous
 62
   254
370
    25
100
AcDbLine
 10
2.1280493708
 20
3.2322333439
 30
0.0
 11
2.1380127872
 21
3.2333597047
 31
0.0
  0
LINE
  5
276
330
1F
100
AcDbEntity
  8
0
  6
Continuous
 62
   254
370
    25
100
AcDbLine
 10
1.2510590425
 20
0.3941577929
 30
0.0
 11
1.2502015204
 21
0.3811349242
 31
0.0
  0
LINE
  5
277
330
1F
100
AcDbEntity
  8
0
  6
Continuous
 62
   254
370
    25
100
AcDbLine
 10
1.2502015204
 20
0.3811349242
 30
0.0
 11
1.2466405971
 21
0.3702050035
 31
0.0
  0
LINE
  5
278
330
1F
100
AcDbEntity
  8
0
  6
Continuous
 62
   254
370
    25
100
AcDbLine
 10
1.2466405971
 20
0.3702050035
 30
0.0
 11
1.2388937454
 21
0.3627633618
 31
0.0
  0
LINE
  5
279
330
1F
100
AcDbEntity
  8
0
  6
Continuous
 62
   254
370
    25
100
AcDbLine
 10
1.2388937454
 20
0.3627633618
 30
0.0
 11
1.2254784047
 21
0.3602052981
 31
0.0
  0
LINE
  5
27A
330
1F
100
AcDbEntity
  8
0
  6
Continuous
 62
   254
370
    25
100
AcDbLine
 10
1.2254784047
 20
0.3602052981
 30
0.0
 11
1.2122811609
 21
0.3633666134
 31
0.0
  0
LINE
  5
27B
330
1F
100
AcDbEntity
  8
0
  6
Continuous
 62
   254
370
    25
100
AcDbLine
 10
1.2122811609
 20
0.3633666134
 30
0.0
 11
1.205013944
 21
0.3711934593
 31
0.0
  0
LINE
  5
27C
330
1F
100
AcDbEntity
  8
0
  6
Continuous
 62
   254
370
    25
100
AcDbLine
 10
1.205013944
 20
0.3711934593
 30
0.0
 11
1.2019326392
 21
0.382246931
 31
0.0
  0
LINE
  5
27D
330
1F
100
AcDbEntity
  8
0
  6
Continuous
 62
   254
370
    25
100
AcDbLine
 10
1.2019326392
 20
0.382246931
 30
0.0
 11
1.2012931315
 21
0.3950880908
 31
0.0
  0
LINE
  5
27E
330
1F
100
AcDbEntity
  8
0
  6
Continuous
 62
   254
370
    25
100
AcDbLine
 10
1.2012931315
 20
0.3950880908
 30
0.0
 11
1.2012931315
 21
0.6150817075
 31
0.0
  0
LINE
  5
27F
330
1F
100
AcDbEntity
  8
0
  6
Continuous
 62
   254
370
    25
100
AcDbLine
 10
1.2012931315
 20
0.6150817075
 30
0.0
 11
1.2020852442
 21
0.6277630605
 31
0.0
  0
LINE
  5
280
330
1F
100
AcDbEntity
  8
0
  6
Continuous
 62
   254
370
    25
100
AcDbLine
 10
1.2020852442
 20
0.6277630605
 30
0.0
 11
1.2055371685
 21
0.6383950388
 31
0.0
  0
LINE
  5
281
330
1F
100
AcDbEntity
  8
0
  6
Continuous
 62
   254
370
    25
100
AcDbLine
 10
1.2055371685
 20
0.6383950388
 30
0.0
 11
1.2132622337
 21
0.6456259337
 31
0.0
  0
LINE
  5
282
330
1F
100
AcDbEntity
  8
0
  6
Continuous
 62
   254
370
    25
100
AcDbLine
 10
1.2132622337
 20
0.6456259337
 30
0.0
 11
1.2268737692
 21
0.6481040693
 31
0.0
  0
LINE
  5
283
330
1F
100
AcDbEntity
  8
0
  6
Continuous
 62
   254
370
    25
100
AcDbLine
 10
1.2268737692
 20
0.6481040693
 30
0.0
 11
1.2404634521
 21
0.644950104
 31
0.0
  0
LINE
  5
284
330
1F
100
AcDbEntity
  8
0
  6
Continuous
 62
   254
370
    25
100
AcDbLine
 10
1.2404634521
 20
0.644950104
 30
0.0
 11
1.2476870628
 21
0.6371741814
 31
0.0
  0
LINE
  5
285
330
1F
100
AcDbEntity
  8
0
  6
Continuous
 62
   254
370
    25
100
AcDbLine
 10
1.2476870628
 20
0.6371741814
 30
0.0
 11
1.2505503368
 21
0.6262588125
 31
0.0
  0
LINE
  5
286
330
1F
100
AcDbEntity
  8
0
  6
Continuous
 62
   254
370
    25
100
AcDbLine
 10
1.2505503368
 20
0.6262588125
 30
0.0
 11
1.2510590425
 21
0.6136865079
 31
0.0
  0
LINE
  5
287
330
1F
100
AcDbEntity
  8
0
  6
Continuous
 62
   254
370
    25
100
AcDbLine
 10
1.2510590425
 20
0.6136865079
 30
0.0
 11
1.2510590425
 21
0.3941577929
 31
0.0
  0
LINE
  5
288
330
1F
100
AcDbEntity
  8
0
  6
Continuous
 62
   254
370
    25
100
AcDbLine
 10
1.0979086564
 20
0.3546369089
 30
0.0
 11
1.091855985
 21
0.3704231496
 31
0.0
  0
LINE
  5
289
330
1F
100
AcDbEntity
  8
0
  6
Continuous
 62
   254
370
    25
100
AcDbLine
 10
1.1060052474
 20
0.3406711022
 30
0.0
 11
1.0979086564
 21
0.3546369089
 31
0.0
  0
LINE
  5
28A
330
1F
100
AcDbEntity
  8
0
  6
Continuous
 62
   254
370
    25
100
AcDbLine
 10
1.1161293935
 20
0.3287110639
 30
0.0
 11
1.1060052474
 21
0.3406711022
 31
0.0
  0
LINE
  5
28B
330
1F
100
AcDbEntity
  8
0
  6
Continuous
 62
   254
370
    25
100
AcDbLine
 10
1.1282647629
 20
0.318942079
 30
0.0
 11
1.1161293935
 21
0.3287110639
 31
0.0
  0
LINE
  5
28C
330
1F
100
AcDbEntity
  8
0
  6
Continuous
 62
   254
370
    25
100
AcDbLine
 10
1.142394991
 20
0.311549482
 30
0.0
 11
1.1282647629
 21
0.318942079
 31
0.0
  0
LINE
  5
28D
330
1F
100
AcDbEntity
  8
0
  6
Continuous
 62
   254
370
    25
100
AcDbLine
 10
1.1585037294
 20
0.3067185909
 30
0.0
 11
1.142394991
 21
0.311549482
 31
0.0
  0
LINE
  5
28E
330
1F
100
AcDbEntity
  8
0
  6
Continuous
 62
   254
370
    25
100
AcDbLine
 10
1.2157694402
 20
0.2991025411
 30
0.0
 11
1.1585037294
 21
0.3067185909
 31
0.0
  0
LINE
  5
28F
330
1F
100
AcDbEntity
  8
0
  6
Continuous
 62
   254
370
    25
100
AcDbLine
 10
1.2447729645
 20
0.2989354006
 30
0.0
 11
1.2157694402
 21
0.2991025411
 31
0.0
  0
LINE
  5
290
330
1F
100
AcDbEntity
  8
0
  6
Continuous
 62
   254
370
    25
100
AcDbLine
 10
1.2733840661
 20
0.3016024634
 30
0.0
 11
1.2447729645
 21
0.2989354006
 31
0.0
  0
LINE
  5
291
330
1F
100
AcDbEntity
  8
0
  6
Continuous
 62
   254
370
    25
100
AcDbLine
 10
1.2947996555
 20
0.3059219295
 30
0.0
 11
1.2733840661
 21
0.3016024634
 31
0.0
  0
LINE
  5
292
330
1F
100
AcDbEntity
  8
0
  6
Continuous
 62
   254
370
    25
100
AcDbLine
 10
1.3133755705
 20
0.3126123288
 30
0.0
 11
1.2947996555
 21
0.3059219295
 31
0.0
  0
LINE
  5
293
330
1F
100
AcDbEntity
  8
0
  6
Continuous
 62
   254
370
    25
100
AcDbLine
 10
1.3291499949
 20
0.3216900093
 30
0.0
 11
1.3133755705
 21
0.3126123288
 31
0.0
  0
LINE
  5
294
330
1F
100
AcDbEntity
  8
0
  6
Continuous
 62
   254
370
    25
100
AcDbLine
 10
1.3421610638
 20
0.3331713191
 30
0.0
 11
1.3291499949
 21
0.3216900093
 31
0.0
  0
LINE
  5
295
330
1F
100
AcDbEntity
  8
0
  6
Continuous
 62
   254
370
    25
100
AcDbLine
 10
1.3524469285
 20
0.347072623
 30
0.0
 11
1.3421610638
 21
0.3331713191
 31
0.0
  0
LINE
  5
296
330
1F
100
AcDbEntity
  8
0
  6
Continuous
 62
   254
370
    25
100
AcDbLine
 10
1.3600457237
 20
0.363410269
 30
0.0
 11
1.3524469285
 21
0.347072623
 31
0.0
  0
LINE
  5
297
330
1F
100
AcDbEntity
  8
0
  6
Continuous
 62
   254
370
    25
100
AcDbLine
 10
1.3649956172
 20
0.3822005892
 30
0.0
 11
1.3600457237
 21
0.363410269
 31
0.0
  0
LINE
  5
298
330
1F
100
AcDbEntity
  8
0
  6
Continuous
 62
   254
370
    25
100
AcDbLine
 10
1.3673347602
 20
0.4034599479
 30
0.0
 11
1.3649956172
 21
0.3822005892
 31
0.0
  0
LINE
  5
299
330
1F
100
AcDbEntity
  8
0
  6
Continuous
 62
   254
370
    25
100
AcDbLine
 10
1.3691951747
 20
0.5092708277
 30
0.0
 11
1.3673347602
 21
0.4034599479
 31
0.0
  0
LINE
  5
29A
330
1F
100
AcDbEntity
  8
0
  6
Continuous
 62
   254
370
    25
100
AcDbLine
 10
1.3654743456
 20
0.6150817075
 30
0.0
 11
1.3691951747
 21
0.5092708277
 31
0.0
  0
LINE
  5
29B
330
1F
100
AcDbEntity
  8
0
  6
Continuous
 62
   254
370
    25
100
AcDbLine
 10
1.3624111853
 20
0.6353736388
 30
0.0
 11
1.3654743456
 21
0.6150817075
 31
0.0
  0
LINE
  5
29C
330
1F
100
AcDbEntity
  8
0
  6
Continuous
 62
   254
370
    25
100
AcDbLine
 10
1.3558815818
 20
0.6535835157
 30
0.0
 11
1.3624111853
 21
0.6353736388
 31
0.0
  0
LINE
  5
29D
330
1F
100
AcDbEntity
  8
0
  6
Continuous
 62
   254
370
    25
100
AcDbLine
 10
1.3462125318
 20
0.6695478066
 30
0.0
 11
1.3558815818
 21
0.6535835157
 31
0.0
  0
LINE
  5
29E
330
1F
100
AcDbEntity
  8
0
  6
Continuous
 62
   254
370
    25
100
AcDbLine
 10
1.3337310652
 20
0.6831030133
 30
0.0
 11
1.3462125318
 21
0.6695478066
 31
0.0
  0
LINE
  5
29F
330
1F
100
AcDbEntity
  8
0
  6
Continuous
 62
   254
370
    25
100
AcDbLine
 10
1.3187642118
 20
0.6940856209
 30
0.0
 11
1.3337310652
 21
0.6831030133
 31
0.0
  0
LINE
  5
2A0
330
1F
100
AcDbEntity
  8
0
  6
Continuous
 62
   254
370
    25
100
AcDbLine
 10
1.3016389849
 20
0.7023320978
 30
0.0
 11
1.3187642118
 21
0.6940856209
 31
0.0
  0
LINE
  5
2A1
330
1F
100
AcDbEntity
  8
0
  6
Continuous
 62
   254
370
    25
100
AcDbLine
 10
1.2826823978
 20
0.7076789788
 30
0.0
 11
1.3016389849
 21
0.7023320978
 31
0.0
  0
LINE
  5
2A2
330
1F
100
AcDbEntity
  8
0
  6
Continuous
 62
   254
370
    25
100
AcDbLine
 10
1.2622214967
 20
0.7099626995
 30
0.0
 11
1.2826823978
 21
0.7076789788
 31
0.0
  0
LINE
  5
2A3
330
1F
100
AcDbEntity
  8
0
  6
Continuous
 62
   254
370
    25
100
AcDbLine
 10
1.1915259428
 20
0.7099626995
 30
0.0
 11
1.2622214967
 21
0.7099626995
 31
0.0
  0
LINE
  5
2A4
330
1F
100
AcDbEntity
  8
0
  6
Continuous
 62
   254
370
    25
100
AcDbLine
 10
1.1702038776
 20
0.7076880923
 30
0.0
 11
1.1915259428
 21
0.7099626995
 31
0.0
  0
LINE
  5
2A5
330
1F
100
AcDbEntity
  8
0
  6
Continuous
 62
   254
370
    25
100
AcDbLine
 10
1.150713156
 20
0.7020560078
 30
0.0
 11
1.1702038776
 21
0.7076880923
 31
0.0
  0
LINE
  5
2A6
330
1F
100
AcDbEntity
  8
0
  6
Continuous
 62
   254
370
    25
100
AcDbLine
 10
1.1333153988
 20
0.693284477
 30
0.0
 11
1.150713156
 21
0.7020560078
 31
0.0
  0
LINE
  5
2A7
330
1F
100
AcDbEntity
  8
0
  6
Continuous
 62
   254
370
    25
100
AcDbLine
 10
1.1182722099
 20
0.6815914976
 30
0.0
 11
1.1333153988
 21
0.693284477
 31
0.0
  0
LINE
  5
2A8
330
1F
100
AcDbEntity
  8
0
  6
Continuous
 62
   254
370
    25
100
AcDbLine
 10
1.1058452263
 20
0.667195117
 30
0.0
 11
1.1182722099
 21
0.6815914976
 31
0.0
  0
LINE
  5
2A9
330
1F
100
AcDbEntity
  8
0
  6
Continuous
 62
   254
370
    25
100
AcDbLine
 10
1.0962960686
 20
0.6503133332
 30
0.0
 11
1.1058452263
 21
0.667195117
 31
0.0
  0
LINE
  5
2AA
330
1F
100
AcDbEntity
  8
0
  6
Continuous
 62
   254
370
    25
100
AcDbLine
 10
1.0898863737
 20
0.6311641603
 30
0.0
 11
1.0962960686
 21
0.6503133332
 31
0.0
  0
LINE
  5
2AB
330
1F
100
AcDbEntity
  8
0
  6
Continuous
 62
   254
370
    25
100
AcDbLine
 10
1.0868777294
 20
0.6099656459
 30
0.0
 11
1.0898863737
 21
0.6311641603
 31
0.0
  0
LINE
  5
2AC
330
1F
100
AcDbEntity
  8
0
  6
Continuous
 62
   254
370
    25
100
AcDbLine
 10
1.0859475304
 20
0.5583392214
 30
0.0
 11
1.0868777294
 21
0.6099656459
 31
0.0
  0
LINE
  5
2AD
330
1F
100
AcDbEntity
  8
0
  6
Continuous
 62
   254
370
    25
100
AcDbLine
 10
1.0864128441
 20
0.506712698
 30
0.0
 11
1.0859475304
 21
0.5583392214
 31
0.0
  0
LINE
  5
2AE
330
1F
100
AcDbEntity
  8
0
  6
Continuous
 62
   254
370
    25
100
AcDbLine
 10
1.0859477446
 20
0.4067156445
 30
0.0
 11
1.0864128441
 21
0.506712698
 31
0.0
  0
LINE
  5
2AF
330
1F
100
AcDbEntity
  8
0
  6
Continuous
 62
   254
370
    25
100
AcDbLine
 10
1.091855985
 20
0.3704231496
 30
0.0
 11
1.0859477446
 21
0.4067156445
 31
0.0
  0
LINE
  5
2B0
330
1F
100
AcDbEntity
  8
0
  6
Continuous
 62
   254
370
    25
100
AcDbLine
 10
1.053293827
 20
0.64085826
 30
0.0
 11
1.0586279853
 21
0.6231725306
 31
0.0
  0
LINE
  5
2B1
330
1F
100
AcDbEntity
  8
0
  6
Continuous
 62
   254
370
    25
100
AcDbLine
 10
1.0451254489
 20
0.6574430077
 30
0.0
 11
1.053293827
 21
0.64085826
 31
0.0
  0
LINE
  5
2B2
330
1F
100
AcDbEntity
  8
0
  6
Continuous
 62
   254
370
    25
100
AcDbLine
 10
1.0344280777
 20
0.6724634706
 30
0.0
 11
1.0451254489
 21
0.6574430077
 31
0.0
  0
LINE
  5
2B3
330
1F
100
AcDbEntity
  8
0
  6
Continuous
 62
   254
370
    25
100
AcDbLine
 10
1.0215069403
 20
0.6854563621
 30
0.0
 11
1.0344280777
 21
0.6724634706
 31
0.0
  0
LINE
  5
2B4
330
1F
100
AcDbEntity
  8
0
  6
Continuous
 62
   254
370
    25
100
AcDbLine
 10
1.0066672634
 20
0.6959584283
 30
0.0
 11
1.0215069403
 21
0.6854563621
 31
0.0
  0
LINE
  5
2B5
330
1F
100
AcDbEntity
  8
0
  6
Continuous
 62
   254
370
    25
100
AcDbLine
 10
0.990214257
 20
0.7035063496
 30
0.0
 11
1.0066672634
 21
0.6959584283
 31
0.0
  0
LINE
  5
2B6
330
1F
100
AcDbEntity
  8
0
  6
Continuous
 62
   254
370
    25
100
AcDbLine
 10
0.972453148
 20
0.7076368558
 30
0.0
 11
0.990214257
 21
0.7035063496
 31
0.0
  0
LINE
  5
2B7
330
1F
100
AcDbEntity
  8
0
  6
Continuous
 62
   254
370
    25
100
AcDbLine
 10
0.925012652
 20
0.7103693443
 30
0.0
 11
0.972453148
 21
0.7076368558
 31
0.0
  0
LINE
  5
2B8
330
1F
100
AcDbEntity
  8
0
  6
Continuous
 62
   254
370
    25
100
AcDbLine
 10
0.8775721561
 20
0.7071717563
 30
0.0
 11
0.925012652
 21
0.7103693443
 31
0.0
  0
LINE
  5
2B9
330
1F
100
AcDbEntity
  8
0
  6
Continuous
 62
   254
370
    25
100
AcDbLine
 10
0.8579497591
 20
0.7026705977
 30
0.0
 11
0.8775721561
 21
0.7071717563
 31
0.0
  0
LINE
  5
2BA
330
1F
100
AcDbEntity
  8
0
  6
Continuous
 62
   254
370
    25
100
AcDbLine
 10
0.8400660386
 20
0.6949700384
 30
0.0
 11
0.8579497591
 21
0.7026705977
 31
0.0
  0
LINE
  5
2BB
330
1F
100
AcDbEntity
  8
0
  6
Continuous
 62
   254
370
    25
100
AcDbLine
 10
0.8241771603
 20
0.6844025629
 30
0.0
 11
0.8400660386
 21
0.6949700384
 31
0.0
  0
LINE
  5
2BC
330
1F
100
AcDbEntity
  8
0
  6
Continuous
 62
   254
370
    25
100
AcDbLine
 10
0.8105392897
 20
0.671300656
 30
0.0
 11
0.8241771603
 21
0.6844025629
 31
0.0
  0
LINE
  5
2BD
330
1F
100
AcDbEntity
  8
0
  6
Continuous
 62
   254
370
    25
100
AcDbLine
 10
0.7994086256
 20
0.6559967694
 30
0.0
 11
0.8105392897
 21
0.671300656
 31
0.0
  0
LINE
  5
2BE
330
1F
100
AcDbEntity
  8
0
  6
Continuous
 62
   254
370
    25
100
AcDbLine
 10
0.791041317
 20
0.6388234042
 30
0.0
 11
0.7994086256
 21
0.6559967694
 31
0.0
  0
LINE
  5
2BF
330
1F
100
AcDbEntity
  8
0
  6
Continuous
 62
   254
370
    25
100
AcDbLine
 10
0.7856935297
 20
0.6201129958
 30
0.0
 11
0.791041317
 21
0.6388234042
 31
0.0
  0
LINE
  5
2C0
330
1F
100
AcDbEntity
  8
0
  6
Continuous
 62
   254
370
    25
100
AcDbLine
 10
0.783621462
 20
0.6001980453
 30
0.0
 11
0.7856935297
 21
0.6201129958
 31
0.0
  0
LINE
  5
2C1
330
1F
100
AcDbEntity
  8
0
  6
Continuous
 62
   254
370
    25
100
AcDbLine
 10
0.783621462
 20
0.4043905259
 30
0.0
 11
0.783621462
 21
0.6001980453
 31
0.0
  0
LINE
  5
2C2
330
1F
100
AcDbEntity
  8
0
  6
Continuous
 62
   254
370
    25
100
AcDbLine
 10
0.7881198355
 20
0.3726617315
 30
0.0
 11
0.783621462
 21
0.4043905259
 31
0.0
  0
LINE
  5
2C3
330
1F
100
AcDbEntity
  8
0
  6
Continuous
 62
   254
370
    25
100
AcDbLine
 10
0.8004232518
 20
0.3455549602
 30
0.0
 11
0.7881198355
 21
0.3726617315
 31
0.0
  0
LINE
  5
2C4
330
1F
100
AcDbEntity
  8
0
  6
Continuous
 62
   254
370
    25
100
AcDbLine
 10
0.8095972251
 20
0.3339255608
 30
0.0
 11
0.8004232518
 21
0.3455549602
 31
0.0
  0
LINE
  5
2C5
330
1F
100
AcDbEntity
  8
0
  6
Continuous
 62
   254
370
    25
100
AcDbLine
 10
0.8208369047
 20
0.3236805996
 30
0.0
 11
0.8095972251
 21
0.3339255608
 31
0.0
  0
LINE
  5
2C6
330
1F
100
AcDbEntity
  8
0
  6
Continuous
 62
   254
370
    25
100
AcDbLine
 10
0.8496660207
 20
0.307649103
 30
0.0
 11
0.8208369047
 21
0.3236805996
 31
0.0
  0
LINE
  5
2C7
330
1F
100
AcDbEntity
  8
0
  6
Continuous
 62
   254
370
    25
100
AcDbLine
 10
0.878015436
 20
0.2992845301
 30
0.0
 11
0.8496660207
 21
0.307649103
 31
0.0
  0
LINE
  5
2C8
330
1F
100
AcDbEntity
  8
0
  6
Continuous
 62
   254
370
    25
100
AcDbLine
 10
0.9065829316
 20
0.2954982918
 30
0.0
 11
0.878015436
 21
0.2992845301
 31
0.0
  0
LINE
  5
2C9
330
1F
100
AcDbEntity
  8
0
  6
Continuous
 62
   254
370
    25
100
AcDbLine
 10
0.9354120477
 20
0.2958107862
 30
0.0
 11
0.9065829316
 21
0.2954982918
 31
0.0
  0
LINE
  5
2CA
330
1F
100
AcDbEntity
  8
0
  6
Continuous
 62
   254
370
    25
100
AcDbLine
 10
0.9645463574
 20
0.2997423619
 30
0.0
 11
0.9354120477
 21
0.2958107862
 31
0.0
  0
LINE
  5
2CB
330
1F
100
AcDbEntity
  8
0
  6
Continuous
 62
   254
370
    25
100
AcDbLine
 10
0.9945019003
 20
0.3083831237
 30
0.0
 11
0.9645463574
 21
0.2997423619
 31
0.0
  0
LINE
  5
2CC
330
1F
100
AcDbEntity
  8
0
  6
Continuous
 62
   254
370
    25
100
AcDbLine
 10
1.0200098941
 20
0.3228231105
 30
0.0
 11
0.9945019003
 21
0.3083831237
 31
0.0
  0
LINE
  5
2CD
330
1F
100
AcDbEntity
  8
0
  6
Continuous
 62
   254
370
    25
100
AcDbLine
 10
1.0397622526
 20
0.3436291858
 30
0.0
 11
1.0200098941
 21
0.3228231105
 31
0.0
  0
LINE
  5
2CE
330
1F
100
AcDbEntity
  8
0
  6
Continuous
 62
   254
370
    25
100
AcDbLine
 10
1.0470712794
 20
0.3565966487
 30
0.0
 11
1.0397622526
 21
0.3436291858
 31
0.0
  0
LINE
  5
2CF
330
1F
100
AcDbEntity
  8
0
  6
Continuous
 62
   254
370
    25
100
AcDbLine
 10
1.0524508567
 20
0.3713682136
 30
0.0
 11
1.0470712794
 21
0.3565966487
 31
0.0
  0
LINE
  5
2D0
330
1F
100
AcDbEntity
  8
0
  6
Continuous
 62
   254
370
    25
100
AcDbLine
 10
1.0574652531
 20
0.3959096534
 30
0.0
 11
1.0524508567
 21
0.3713682136
 31
0.0
  0
LINE
  5
2D1
330
1F
100
AcDbEntity
  8
0
  6
Continuous
 62
   254
370
    25
100
AcDbLine
 10
1.0601250646
 20
0.4211923652
 30
0.0
 11
1.0574652531
 21
0.3959096534
 31
0.0
  0
LINE
  5
2D2
330
1F
100
AcDbEntity
  8
0
  6
Continuous
 62
   254
370
    25
100
AcDbLine
 10
1.0636133274
 20
0.4727606317
 30
0.0
 11
1.0601250646
 21
0.4211923652
 31
0.0
  0
LINE
  5
2D3
330
1F
100
AcDbEntity
  8
0
  6
Continuous
 62
   254
370
    25
100
AcDbLine
 10
0.9426866311
 20
0.4727606317
 30
0.0
 11
1.0636133274
 21
0.4727606317
 31
0.0
  0
LINE
  5
2D4
330
1F
100
AcDbEntity
  8
0
  6
Continuous
 62
   254
370
    25
100
AcDbLine
 10
0.9426866311
 20
0.3839259992
 30
0.0
 11
0.9426866311
 21
0.4727606317
 31
0.0
  0
LINE
  5
2D5
330
1F
100
AcDbEntity
  8
0
  6
Continuous
 62
   254
370
    25
100
AcDbLine
 10
0.9416328813
 20
0.373613816
 30
0.0
 11
0.9426866311
 21
0.3839259992
 31
0.0
  0
LINE
  5
2D6
330
1F
100
AcDbEntity
  8
0
  6
Continuous
 62
   254
370
    25
100
AcDbLine
 10
0.9380937447
 20
0.3652637784
 30
0.0
 11
0.9416328813
 21
0.373613816
 31
0.0
  0
LINE
  5
2D7
330
1F
100
AcDbEntity
  8
0
  6
Continuous
 62
   254
370
    25
100
AcDbLine
 10
0.9315023739
 20
0.3603147914
 30
0.0
 11
0.9380937447
 21
0.3652637784
 31
0.0
  0
LINE
  5
2D8
330
1F
100
AcDbEntity
  8
0
  6
Continuous
 62
   254
370
    25
100
AcDbLine
 10
0.9212919219
 20
0.3602057925
 30
0.0
 11
0.9315023739
 21
0.3603147914
 31
0.0
  0
LINE
  5
2D9
330
1F
100
AcDbEntity
  8
0
  6
Continuous
 62
   254
370
    25
100
AcDbLine
 10
0.9147078353
 20
0.3634397189
 30
0.0
 11
0.9212919219
 21
0.3602057925
 31
0.0
  0
LINE
  5
2DA
330
1F
100
AcDbEntity
  8
0
  6
Continuous
 62
   254
370
    25
100
AcDbLine
 10
0.9083853529
 20
0.3693334569
 30
0.0
 11
0.9147078353
 21
0.3634397189
 31
0.0
  0
LINE
  5
2DB
330
1F
100
AcDbEntity
  8
0
  6
Continuous
 62
   254
370
    25
100
AcDbLine
 10
0.9036325936
 20
0.3763608892
 30
0.0
 11
0.9083853529
 21
0.3693334569
 31
0.0
  0
LINE
  5
2DC
330
1F
100
AcDbEntity
  8
0
  6
Continuous
 62
   254
370
    25
100
AcDbLine
 10
0.9017576436
 20
0.3829958662
 30
0.0
 11
0.9036325936
 21
0.3763608892
 31
0.0
  0
LINE
  5
2DD
330
1F
100
AcDbEntity
  8
0
  6
Continuous
 62
   254
370
    25
100
AcDbLine
 10
0.9008274447
 20
0.6225232668
 30
0.0
 11
0.9017576436
 21
0.3829958662
 31
0.0
  0
LINE
  5
2DE
330
1F
100
AcDbEntity
  8
0
  6
Continuous
 62
   254
370
    25
100
AcDbLine
 10
0.9019465873
 20
0.6327046315
 30
0.0
 11
0.9008274447
 21
0.6225232668
 31
0.0
  0
LINE
  5
2DF
330
1F
100
AcDbEntity
  8
0
  6
Continuous
 62
   254
370
    25
100
AcDbLine
 10
0.9055947229
 20
0.6411854875
 30
0.0
 11
0.9019465873
 21
0.6327046315
 31
0.0
  0
LINE
  5
2E0
330
1F
100
AcDbEntity
  8
0
  6
Continuous
 62
   254
370
    25
100
AcDbLine
 10
0.9122078966
 20
0.6462652766
 30
0.0
 11
0.9055947229
 21
0.6411854875
 31
0.0
  0
LINE
  5
2E1
330
1F
100
AcDbEntity
  8
0
  6
Continuous
 62
   254
370
    25
100
AcDbLine
 10
0.9222221539
 20
0.6462434735
 30
0.0
 11
0.9122078966
 21
0.6462652766
 31
0.0
  0
LINE
  5
2E2
330
1F
100
AcDbEntity
  8
0
  6
Continuous
 62
   254
370
    25
100
AcDbLine
 10
0.9286027779
 20
0.6425735348
 30
0.0
 11
0.9222221539
 21
0.6462434735
 31
0.0
  0
LINE
  5
2E3
330
1F
100
AcDbEntity
  8
0
  6
Continuous
 62
   254
370
    25
100
AcDbLine
 10
0.9345473732
 20
0.6360693599
 30
0.0
 11
0.9286027779
 21
0.6425735348
 31
0.0
  0
LINE
  5
2E4
330
1F
100
AcDbEntity
  8
0
  6
Continuous
 62
   254
370
    25
100
AcDbLine
 10
0.9412913656
 20
0.6206628357
 30
0.0
 11
0.9345473732
 21
0.6360693599
 31
0.0
  0
LINE
  5
2E5
330
1F
100
AcDbEntity
  8
0
  6
Continuous
 62
   254
370
    25
100
AcDbLine
 10
0.9428029472
 20
0.5843848268
 30
0.0
 11
0.9412913656
 21
0.6206628357
 31
0.0
  0
LINE
  5
2E6
330
1F
100
AcDbEntity
  8
0
  6
Continuous
 62
   254
370
    25
100
AcDbLine
 10
0.9422215645
 20
0.5467114865
 30
0.0
 11
0.9428029472
 21
0.5843848268
 31
0.0
  0
LINE
  5
2E7
330
1F
100
AcDbEntity
  8
0
  6
Continuous
 62
   254
370
    25
100
AcDbLine
 10
1.0603576144
 20
0.5467113052
 30
0.0
 11
0.9422215645
 21
0.5467114865
 31
0.0
  0
LINE
  5
2E8
330
1F
100
AcDbEntity
  8
0
  6
Continuous
 62
   254
370
    25
100
AcDbLine
 10
1.0608227138
 20
0.6048490734
 30
0.0
 11
1.0603576144
 21
0.5467113052
 31
0.0
  0
LINE
  5
2E9
330
1F
100
AcDbEntity
  8
0
  6
Continuous
 62
   254
370
    25
100
AcDbLine
 10
1.0586279853
 20
0.6231725306
 30
0.0
 11
1.0608227138
 21
0.6048490734
 31
0.0
  0
LINE
  5
2EA
330
1F
100
AcDbEntity
  8
0
  6
Continuous
 62
   254
370
    25
100
AcDbLine
 10
0.6780380397
 20
0.5504329418
 30
0.0
 11
0.6892877061
 21
0.5447790213
 31
0.0
  0
LINE
  5
2EB
330
1F
100
AcDbEntity
  8
0
  6
Continuous
 62
   254
370
    25
100
AcDbLine
 10
0.6720425704
 20
0.5633831829
 30
0.0
 11
0.6780380397
 21
0.5504329418
 31
0.0
  0
LINE
  5
2EC
330
1F
100
AcDbEntity
  8
0
  6
Continuous
 62
   254
370
    25
100
AcDbLine
 10
0.6705382564
 20
0.5804321237
 30
0.0
 11
0.6720425704
 21
0.5633831829
 31
0.0
  0
LINE
  5
2ED
330
1F
100
AcDbEntity
  8
0
  6
Continuous
 62
   254
370
    25
100
AcDbLine
 10
0.6710614976
 20
0.6174077984
 30
0.0
 11
0.6705382564
 21
0.5804321237
 31
0.0
  0
LINE
  5
2EE
330
1F
100
AcDbEntity
  8
0
  6
Continuous
 62
   254
370
    25
100
AcDbLine
 10
0.6752474261
 20
0.6253145394
 30
0.0
 11
0.6710614976
 21
0.6174077984
 31
0.0
  0
LINE
  5
2EF
330
1F
100
AcDbEntity
  8
0
  6
Continuous
 62
   254
370
    25
100
AcDbLine
 10
0.7491987753
 20
0.6253145394
 30
0.0
 11
0.6752474261
 21
0.6253145394
 31
0.0
  0
LINE
  5
2F0
330
1F
100
AcDbEntity
  8
0
  6
Continuous
 62
   254
370
    25
100
AcDbLine
 10
0.7491987753
 20
0.7025216841
 30
0.0
 11
0.7491987753
 21
0.6253145394
 31
0.0
  0
LINE
  5
2F1
330
1F
100
AcDbEntity
  8
0
  6
Continuous
 62
   254
370
    25
100
AcDbLine
 10
0.5543207298
 20
0.7025216841
 30
0.0
 11
0.7491987753
 21
0.7025216841
 31
0.0
  0
LINE
  5
2F2
330
1F
100
AcDbEntity
  8
0
  6
Continuous
 62
   254
370
    25
100
AcDbLine
 10
0.5543207298
 20
0.3071838058
 30
0.0
 11
0.5543207298
 21
0.7025216841
 31
0.0
  0
LINE
  5
2F3
330
1F
100
AcDbEntity
  8
0
  6
Continuous
 62
   254
370
    25
100
AcDbLine
 10
0.7561747735
 20
0.3071838058
 30
0.0
 11
0.5543207298
 21
0.3071838058
 31
0.0
  0
LINE
  5
2F4
330
1F
100
AcDbEntity
  8
0
  6
Continuous
 62
   254
370
    25
100
AcDbLine
 10
0.7561747735
 20
0.3546242194
 30
0.0
 11
0.7561747735
 21
0.3071838058
 31
0.0
  0
LINE
  5
2F5
330
1F
100
AcDbEntity
  8
0
  6
Continuous
 62
   254
370
    25
100
AcDbLine
 10
0.7553607753
 20
0.3674799474
 30
0.0
 11
0.7561747735
 21
0.3546242194
 31
0.0
  0
LINE
  5
2F6
330
1F
100
AcDbEntity
  8
0
  6
Continuous
 62
   254
370
    25
100
AcDbLine
 10
0.7507097143
 20
0.3761933532
 30
0.0
 11
0.7553607753
 21
0.3674799474
 31
0.0
  0
LINE
  5
2F7
330
1F
100
AcDbEntity
  8
0
  6
Continuous
 62
   254
370
    25
100
AcDbLine
 10
0.7420471824
 20
0.3809824675
 30
0.0
 11
0.7507097143
 21
0.3761933532
 31
0.0
  0
LINE
  5
2F8
330
1F
100
AcDbEntity
  8
0
  6
Continuous
 62
   254
370
    25
100
AcDbLine
 10
0.7291987713
 20
0.3820652881
 30
0.0
 11
0.7420471824
 21
0.3809824675
 31
0.0
  0
LINE
  5
2F9
330
1F
100
AcDbEntity
  8
0
  6
Continuous
 62
   254
370
    25
100
AcDbLine
 10
0.6701307053
 20
0.3820652881
 30
0.0
 11
0.7291987713
 21
0.3820652881
 31
0.0
  0
LINE
  5
2FA
330
1F
100
AcDbEntity
  8
0
  6
Continuous
 62
   254
370
    25
100
AcDbLine
 10
0.6710609042
 20
0.4583421349
 30
0.0
 11
0.6701307053
 21
0.3820652881
 31
0.0
  0
LINE
  5
2FB
330
1F
100
AcDbEntity
  8
0
  6
Continuous
 62
   254
370
    25
100
AcDbLine
 10
0.6776886959
 20
0.4679348822
 30
0.0
 11
0.6710609042
 21
0.4583421349
 31
0.0
  0
LINE
  5
2FC
330
1F
100
AcDbEntity
  8
0
  6
Continuous
 62
   254
370
    25
100
AcDbLine
 10
0.6891999829
 20
0.473690534
 30
0.0
 11
0.6776886959
 21
0.4679348822
 31
0.0
  0
LINE
  5
2FD
330
1F
100
AcDbEntity
  8
0
  6
Continuous
 62
   254
370
    25
100
AcDbLine
 10
0.7167572524
 20
0.475027691
 30
0.0
 11
0.6891999829
 21
0.473690534
 31
0.0
  0
LINE
  5
2FE
330
1F
100
AcDbEntity
  8
0
  6
Continuous
 62
   254
370
    25
100
AcDbLine
 10
0.7450122536
 20
0.474620733
 30
0.0
 11
0.7167572524
 21
0.475027691
 31
0.0
  0
LINE
  5
2FF
330
1F
100
AcDbEntity
  8
0
  6
Continuous
 62
   254
370
    25
100
AcDbLine
 10
0.7450128963
 20
0.5443865987
 30
0.0
 11
0.7450122536
 21
0.474620733
 31
0.0
  0
LINE
  5
300
330
1F
100
AcDbEntity
  8
0
  6
Continuous
 62
   254
370
    25
100
AcDbLine
 10
0.7059442244
 20
0.5435726663
 30
0.0
 11
0.7450128963
 21
0.5443865987
 31
0.0
  0
LINE
  5
301
330
1F
100
AcDbEntity
  8
0
  6
Continuous
 62
   254
370
    25
100
AcDbLine
 10
0.6892877061
 20
0.5447790213
 30
0.0
 11
0.7059442244
 21
0.5435726663
 31
0.0
  0
LINE
  5
302
330
1F
100
AcDbEntity
  8
0
  6
Continuous
 62
   254
370
    25
100
AcDbLine
 10
0.3645660301
 20
0.6471736065
 30
0.0
 11
0.3889257447
 21
0.6390924738
 31
0.0
  0
LINE
  5
303
330
1F
100
AcDbEntity
  8
0
  6
Continuous
 62
   254
370
    25
100
AcDbLine
 10
0.3889257447
 20
0.6390924738
 30
0.0
 11
0.3983804059
 21
0.6350736858
 31
0.0
  0
LINE
  5
304
330
1F
100
AcDbEntity
  8
0
  6
Continuous
 62
   254
370
    25
100
AcDbLine
 10
0.3983804059
 20
0.6350736858
 30
0.0
 11
0.4031695201
 21
0.6299648259
 31
0.0
  0
LINE
  5
305
330
1F
100
AcDbEntity
  8
0
  6
Continuous
 62
   254
370
    25
100
AcDbLine
 10
0.4031695201
 20
0.6299648259
 30
0.0
 11
0.4085763389
 21
0.5988029775
 31
0.0
  0
LINE
  5
306
330
1F
100
AcDbEntity
  8
0
  6
Continuous
 62
   254
370
    25
100
AcDbLine
 10
0.4085763389
 20
0.5988029775
 30
0.0
 11
0.4059601337
 21
0.5676411292
 31
0.0
  0
LINE
  5
307
330
1F
100
AcDbEntity
  8
0
  6
Continuous
 62
   254
370
    25
100
AcDbLine
 10
0.4059601337
 20
0.5676411292
 30
0.0
 11
0.4010619545
 21
0.5613768211
 31
0.0
  0
LINE
  5
308
330
1F
100
AcDbEntity
  8
0
  6
Continuous
 62
   254
370
    25
100
AcDbLine
 10
0.4010619545
 20
0.5613768211
 30
0.0
 11
0.3911930511
 21
0.5558973419
 31
0.0
  0
LINE
  5
309
330
1F
100
AcDbEntity
  8
0
  6
Continuous
 62
   254
370
    25
100
AcDbLine
 10
0.3911930511
 20
0.5558973419
 30
0.0
 11
0.3645660301
 21
0.543455691
 31
0.0
  0
LINE
  5
30A
330
1F
100
AcDbEntity
  8
0
  6
Continuous
 62
   254
370
    25
100
AcDbLine
 10
0.3645660301
 20
0.543455691
 30
0.0
 11
0.3645660301
 21
0.6471736065
 31
0.0
  0
LINE
  5
30B
330
1F
100
AcDbEntity
  8
0
  6
Continuous
 62
   254
370
    25
100
AcDbLine
 10
0.4093319485
 20
0.4720483976
 30
0.0
 11
0.4015414905
 21
0.4847369687
 31
0.0
  0
LINE
  5
30C
330
1F
100
AcDbEntity
  8
0
  6
Continuous
 62
   254
370
    25
100
AcDbLine
 10
0.4115411958
 20
0.4509007899
 30
0.0
 11
0.4093319485
 21
0.4720483976
 31
0.0
  0
LINE
  5
30D
330
1F
100
AcDbEntity
  8
0
  6
Continuous
 62
   254
370
    25
100
AcDbLine
 10
0.4115411958
 20
0.30718402
 30
0.0
 11
0.4115411958
 21
0.4509007899
 31
0.0
  0
LINE
  5
30E
330
1F
100
AcDbEntity
  8
0
  6
Continuous
 62
   254
370
    25
100
AcDbLine
 10
0.5208404045
 20
0.30718402
 30
0.0
 11
0.4115411958
 21
0.30718402
 31
0.0
  0
LINE
  5
30F
330
1F
100
AcDbEntity
  8
0
  6
Continuous
 62
   254
370
    25
100
AcDbLine
 10
0.5203752885
 20
0.3641590888
 30
0.0
 11
0.5208404045
 21
0.30718402
 31
0.0
  0
LINE
  5
310
330
1F
100
AcDbEntity
  8
0
  6
Continuous
 62
   254
370
    25
100
AcDbLine
 10
0.5213055039
 20
0.4197388591
 30
0.0
 11
0.5203752885
 21
0.3641590888
 31
0.0
  0
LINE
  5
311
330
1F
100
AcDbEntity
  8
0
  6
Continuous
 62
   254
370
    25
100
AcDbLine
 10
0.5199174566
 20
0.4519399714
 30
0.0
 11
0.5213055039
 21
0.4197388591
 31
0.0
  0
LINE
  5
312
330
1F
100
AcDbEntity
  8
0
  6
Continuous
 62
   254
370
    25
100
AcDbLine
 10
0.511247657
 20
0.4788650338
 30
0.0
 11
0.5199174566
 21
0.4519399714
 31
0.0
  0
LINE
  5
313
330
1F
100
AcDbEntity
  8
0
  6
Continuous
 62
   254
370
    25
100
AcDbLine
 10
0.5037051742
 20
0.49006292
 30
0.0
 11
0.511247657
 21
0.4788650338
 31
0.0
  0
LINE
  5
314
330
1F
100
AcDbEntity
  8
0
  6
Continuous
 62
   254
370
    25
100
AcDbLine
 10
0.4937699716
 20
0.4995984323
 30
0.0
 11
0.5037051742
 21
0.49006292
 31
0.0
  0
LINE
  5
315
330
1F
100
AcDbEntity
  8
0
  6
Continuous
 62
   254
370
    25
100
AcDbLine
 10
0.4812512767
 20
0.5073571003
 30
0.0
 11
0.4937699716
 21
0.4995984323
 31
0.0
  0
LINE
  5
316
330
1F
100
AcDbEntity
  8
0
  6
Continuous
 62
   254
370
    25
100
AcDbLine
 10
0.4659582999
 20
0.5132244867
 30
0.0
 11
0.4812512767
 21
0.5073571003
 31
0.0
  0
LINE
  5
317
330
1F
100
AcDbEntity
  8
0
  6
Continuous
 62
   254
370
    25
100
AcDbLine
 10
0.4909575715
 20
0.5335726644
 30
0.0
 11
0.4659582999
 21
0.5132244867
 31
0.0
  0
LINE
  5
318
330
1F
100
AcDbEntity
  8
0
  6
Continuous
 62
   254
370
    25
100
AcDbLine
 10
0.50180028
 20
0.5442264292
 30
0.0
 11
0.4909575715
 21
0.5335726644
 31
0.0
  0
LINE
  5
319
330
1F
100
AcDbEntity
  8
0
  6
Continuous
 62
   254
370
    25
100
AcDbLine
 10
0.5082826518
 20
0.5560139051
 30
0.0
 11
0.50180028
 21
0.5442264292
 31
0.0
  0
LINE
  5
31A
330
1F
100
AcDbEntity
  8
0
  6
Continuous
 62
   254
370
    25
100
AcDbLine
 10
0.5148749124
 20
0.5851464351
 30
0.0
 11
0.5082826518
 21
0.5560139051
 31
0.0
  0
LINE
  5
31B
330
1F
100
AcDbEntity
  8
0
  6
Continuous
 62
   254
370
    25
100
AcDbLine
 10
0.5177663508
 20
0.6124803177
 30
0.0
 11
0.5148749124
 21
0.5851464351
 31
0.0
  0
LINE
  5
31C
330
1F
100
AcDbEntity
  8
0
  6
Continuous
 62
   254
370
    25
100
AcDbLine
 10
0.5162211334
 20
0.6373942064
 30
0.0
 11
0.5177663508
 21
0.6124803177
 31
0.0
  0
LINE
  5
31D
330
1F
100
AcDbEntity
  8
0
  6
Continuous
 62
   254
370
    25
100
AcDbLine
 10
0.5095034762
 20
0.6592667542
 30
0.0
 11
0.5162211334
 21
0.6373942064
 31
0.0
  0
LINE
  5
31E
330
1F
100
AcDbEntity
  8
0
  6
Continuous
 62
   254
370
    25
100
AcDbLine
 10
0.4968775456
 20
0.6774766144
 30
0.0
 11
0.5095034762
 21
0.6592667542
 31
0.0
  0
LINE
  5
31F
330
1F
100
AcDbEntity
  8
0
  6
Continuous
 62
   254
370
    25
100
AcDbLine
 10
0.4776075742
 20
0.6914024407
 30
0.0
 11
0.4968775456
 21
0.6774766144
 31
0.0
  0
LINE
  5
320
330
1F
100
AcDbEntity
  8
0
  6
Continuous
 62
   254
370
    25
100
AcDbLine
 10
0.4509577283
 20
0.700422886
 30
0.0
 11
0.4776075742
 21
0.6914024407
 31
0.0
  0
LINE
  5
321
330
1F
100
AcDbEntity
  8
0
  6
Continuous
 62
   254
370
    25
100
AcDbLine
 10
0.4161922239
 20
0.7039166036
 30
0.0
 11
0.4509577283
 21
0.700422886
 31
0.0
  0
LINE
  5
322
330
1F
100
AcDbEntity
  8
0
  6
Continuous
 62
   254
370
    25
100
AcDbLine
 10
0.282707742
 20
0.7048468026
 30
0.0
 11
0.4161922239
 21
0.7039166036
 31
0.0
  0
LINE
  5
323
330
1F
100
AcDbEntity
  8
0
  6
Continuous
 62
   254
370
    25
100
AcDbLine
 10
0.2664727665
 20
0.7038002876
 30
0.0
 11
0.282707742
 21
0.7048468026
 31
0.0
  0
LINE
  5
324
330
1F
100
AcDbEntity
  8
0
  6
Continuous
 62
   254
370
    25
100
AcDbLine
 10
0.2557318223
 20
0.6985678933
 30
0.0
 11
0.2664727665
 21
0.7038002876
 31
0.0
  0
LINE
  5
325
330
1F
100
AcDbEntity
  8
0
  6
Continuous
 62
   254
370
    25
100
AcDbLine
 10
0.2498744393
 20
0.6881030885
 30
0.0
 11
0.2557318223
 21
0.6985678933
 31
0.0
  0
LINE
  5
326
330
1F
100
AcDbEntity
  8
0
  6
Continuous
 62
   254
370
    25
100
AcDbLine
 10
0.2482901807
 20
0.6713593743
 30
0.0
 11
0.2498744393
 21
0.6881030885
 31
0.0
  0
LINE
  5
327
330
1F
100
AcDbEntity
  8
0
  6
Continuous
 62
   254
370
    25
100
AcDbLine
 10
0.2487552802
 20
0.3341597585
 30
0.0
 11
0.2482901807
 21
0.6713593743
 31
0.0
  0
LINE
  5
328
330
1F
100
AcDbEntity
  8
0
  6
Continuous
 62
   254
370
    25
100
AcDbLine
 10
0.2506156946
 20
0.3076488229
 30
0.0
 11
0.2487552802
 21
0.3341597585
 31
0.0
  0
LINE
  5
329
330
1F
100
AcDbEntity
  8
0
  6
Continuous
 62
   254
370
    25
100
AcDbLine
 10
0.3622404008
 20
0.3076488229
 30
0.0
 11
0.2506156946
 21
0.3076488229
 31
0.0
  0
LINE
  5
32A
330
1F
100
AcDbEntity
  8
0
  6
Continuous
 62
   254
370
    25
100
AcDbLine
 10
0.3622403513
 20
0.4899693464
 30
0.0
 11
0.3622404008
 21
0.3076488229
 31
0.0
  0
LINE
  5
32B
330
1F
100
AcDbEntity
  8
0
  6
Continuous
 62
   254
370
    25
100
AcDbLine
 10
0.3864256576
 20
0.4902745895
 30
0.0
 11
0.3622403513
 21
0.4899693464
 31
0.0
  0
LINE
  5
32C
330
1F
100
AcDbEntity
  8
0
  6
Continuous
 62
   254
370
    25
100
AcDbLine
 10
0.4015414905
 20
0.4847369687
 30
0.0
 11
0.3864256576
 21
0.4902745895
 31
0.0
  0
LINE
  5
32D
330
1F
100
AcDbEntity
  8
0
  6
Continuous
 62
   254
370
    25
100
AcDbLine
 10
1.5147706452
 20
0.6290341325
 30
0.0
 11
1.5179682827
 21
0.6378783568
 31
0.0
  0
LINE
  5
32E
330
1F
100
AcDbEntity
  8
0
  6
Continuous
 62
   254
370
    25
100
AcDbLine
 10
1.5179682827
 20
0.6378783568
 30
0.0
 11
1.525700632
 21
0.6425802587
 31
0.0
  0
LINE
  5
32F
330
1F
100
AcDbEntity
  8
0
  6
Continuous
 62
   254
370
    25
100
AcDbLine
 10
1.525700632
 20
0.6425802587
 30
0.0
 11
1.5362235784
 21
0.6428346115
 31
0.0
  0
LINE
  5
330
330
1F
100
AcDbEntity
  8
0
  6
Continuous
 62
   254
370
    25
100
AcDbLine
 10
1.5362235784
 20
0.6428346115
 30
0.0
 11
1.547793007
 21
0.6383361886
 31
0.0
  0
LINE
  5
331
330
1F
100
AcDbEntity
  8
0
  6
Continuous
 62
   254
370
    25
100
AcDbLine
 10
1.547793007
 20
0.6383361886
 30
0.0
 11
1.55634654
 21
0.6277260793
 31
0.0
  0
LINE
  5
332
330
1F
100
AcDbEntity
  8
0
  6
Continuous
 62
   254
370
    25
100
AcDbLine
 10
1.55634654
 20
0.6277260793
 30
0.0
 11
1.5618042327
 21
0.6099649866
 31
0.0
  0
LINE
  5
333
330
1F
100
AcDbEntity
  8
0
  6
Continuous
 62
   254
370
    25
100
AcDbLine
 10
1.5618042327
 20
0.6099649866
 30
0.0
 11
1.5631632092
 21
0.5894132477
 31
0.0
  0
LINE
  5
334
330
1F
100
AcDbEntity
  8
0
  6
Continuous
 62
   254
370
    25
100
AcDbLine
 10
1.5631632092
 20
0.5894132477
 30
0.0
 11
1.559420577
 21
0.5704311989
 31
0.0
  0
LINE
  5
335
330
1F
100
AcDbEntity
  8
0
  6
Continuous
 62
   254
370
    25
100
AcDbLine
 10
1.559420577
 20
0.5704311989
 30
0.0
 11
1.5519790015
 21
0.5588544861
 31
0.0
  0
LINE
  5
336
330
1F
100
AcDbEntity
  8
0
  6
Continuous
 62
   254
370
    25
100
AcDbLine
 10
1.5519790015
 20
0.5588544861
 30
0.0
 11
1.5417467463
 21
0.5528154272
 31
0.0
  0
LINE
  5
337
330
1F
100
AcDbEntity
  8
0
  6
Continuous
 62
   254
370
    25
100
AcDbLine
 10
1.5417467463
 20
0.5528154272
 30
0.0
 11
1.5290726941
 21
0.5513983091
 31
0.0
  0
LINE
  5
338
330
1F
100
AcDbEntity
  8
0
  6
Continuous
 62
   254
370
    25
100
AcDbLine
 10
1.5290726941
 20
0.5513983091
 30
0.0
 11
1.5143055457
 21
0.5536874188
 31
0.0
  0
LINE
  5
339
330
1F
100
AcDbEntity
  8
0
  6
Continuous
 62
   254
370
    25
100
AcDbLine
 10
1.5143055457
 20
0.5536874188
 30
0.0
 11
1.5147706452
 21
0.6290341325
 31
0.0
  0
LINE
  5
33A
330
1F
100
AcDbEntity
  8
0
  6
Continuous
 62
   254
370
    25
100
AcDbLine
 10
1.5138402814
 20
0.4671782839
 30
0.0
 11
1.5138402814
 21
0.3076480977
 31
0.0
  0
LINE
  5
33B
330
1F
100
AcDbEntity
  8
0
  6
Continuous
 62
   254
370
    25
100
AcDbLine
 10
1.5139565645
 20
0.4838056984
 30
0.0
 11
1.5138402814
 21
0.4671782839
 31
0.0
  0
LINE
  5
33C
330
1F
100
AcDbEntity
  8
0
  6
Continuous
 62
   254
370
    25
100
AcDbLine
 10
1.5181570285
 20
0.4900700394
 30
0.0
 11
1.5139565645
 21
0.4838056984
 31
0.0
  0
LINE
  5
33D
330
1F
100
AcDbEntity
  8
0
  6
Continuous
 62
   254
370
    25
100
AcDbLine
 10
1.5287235646
 20
0.4927589218
 30
0.0
 11
1.5181570285
 21
0.4900700394
 31
0.0
  0
LINE
  5
33E
330
1F
100
AcDbEntity
  8
0
  6
Continuous
 62
   254
370
    25
100
AcDbLine
 10
1.5404529319
 20
0.4918068866
 30
0.0
 11
1.5287235646
 21
0.4927589218
 31
0.0
  0
LINE
  5
33F
330
1F
100
AcDbEntity
  8
0
  6
Continuous
 62
   254
370
    25
100
AcDbLine
 10
1.5500020896
 20
0.487933436
 30
0.0
 11
1.5404529319
 21
0.4918068866
 31
0.0
  0
LINE
  5
340
330
1F
100
AcDbEntity
  8
0
  6
Continuous
 62
   254
370
    25
100
AcDbLine
 10
1.5565862091
 20
0.4806589514
 30
0.0
 11
1.5500020896
 21
0.487933436
 31
0.0
  0
LINE
  5
341
330
1F
100
AcDbEntity
  8
0
  6
Continuous
 62
   254
370
    25
100
AcDbLine
 10
1.5594204288
 20
0.4695037814
 30
0.0
 11
1.5565862091
 21
0.4806589514
 31
0.0
  0
LINE
  5
342
330
1F
100
AcDbEntity
  8
0
  6
Continuous
 62
   254
370
    25
100
AcDbLine
 10
1.5608157438
 20
0.3881108731
 30
0.0
 11
1.5594204288
 21
0.4695037814
 31
0.0
  0
LINE
  5
343
330
1F
100
AcDbEntity
  8
0
  6
Continuous
 62
   254
370
    25
100
AcDbLine
 10
1.5608157438
 20
0.3081131642
 30
0.0
 11
1.5608157438
 21
0.3881108731
 31
0.0
  0
LINE
  5
344
330
1F
100
AcDbEntity
  8
0
  6
Continuous
 62
   254
370
    25
100
AcDbLine
 10
1.6696497209
 20
0.3081131642
 30
0.0
 11
1.5608157438
 21
0.3081131642
 31
0.0
  0
LINE
  5
345
330
1F
100
AcDbEntity
  8
0
  6
Continuous
 62
   254
370
    25
100
AcDbLine
 10
1.6690101968
 20
0.3682858211
 30
0.0
 11
1.6696497209
 21
0.3081131642
 31
0.0
  0
LINE
  5
346
330
1F
100
AcDbEntity
  8
0
  6
Continuous
 62
   254
370
    25
100
AcDbLine
 10
1.6701148205
 20
0.426714363
 30
0.0
 11
1.6690101968
 21
0.3682858211
 31
0.0
  0
LINE
  5
347
330
1F
100
AcDbEntity
  8
0
  6
Continuous
 62
   254
370
    25
100
AcDbLine
 10
1.6689302356
 20
0.4569605313
 30
0.0
 11
1.6701148205
 21
0.426714363
 31
0.0
  0
LINE
  5
348
330
1F
100
AcDbEntity
  8
0
  6
Continuous
 62
   254
370
    25
100
AcDbLine
 10
1.6655282623
 20
0.4703231358
 30
0.0
 11
1.6689302356
 21
0.4569605313
 31
0.0
  0
LINE
  5
349
330
1F
100
AcDbEntity
  8
0
  6
Continuous
 62
   254
370
    25
100
AcDbLine
 10
1.6599406575
 20
0.4824103505
 30
0.0
 11
1.6655282623
 21
0.4703231358
 31
0.0
  0
LINE
  5
34A
330
1F
100
AcDbEntity
  8
0
  6
Continuous
 62
   254
370
    25
100
AcDbLine
 10
1.6519330916
 20
0.4931458564
 30
0.0
 11
1.6599406575
 21
0.4824103505
 31
0.0
  0
LINE
  5
34B
330
1F
100
AcDbEntity
  8
0
  6
Continuous
 62
   254
370
    25
100
AcDbLine
 10
1.6412711525
 20
0.5024533674
 30
0.0
 11
1.6519330916
 21
0.4931458564
 31
0.0
  0
LINE
  5
34C
330
1F
100
AcDbEntity
  8
0
  6
Continuous
 62
   254
370
    25
100
AcDbLine
 10
1.6277204943
 20
0.5102565479
 30
0.0
 11
1.6412711525
 21
0.5024533674
 31
0.0
  0
LINE
  5
34D
330
1F
100
AcDbEntity
  8
0
  6
Continuous
 62
   254
370
    25
100
AcDbLine
 10
1.6110467544
 20
0.5164791285
 30
0.0
 11
1.6277204943
 21
0.5102565479
 31
0.0
  0
LINE
  5
34E
330
1F
100
AcDbEntity
  8
0
  6
Continuous
 62
   254
370
    25
100
AcDbLine
 10
1.6356318333
 20
0.5287462228
 30
0.0
 11
1.6110467544
 21
0.5164791285
 31
0.0
  0
LINE
  5
34F
330
1F
100
AcDbEntity
  8
0
  6
Continuous
 62
   254
370
    25
100
AcDbLine
 10
1.6531967641
 20
0.5445015798
 30
0.0
 11
1.6356318333
 21
0.5287462228
 31
0.0
  0
LINE
  5
350
330
1F
100
AcDbEntity
  8
0
  6
Continuous
 62
   254
370
    25
100
AcDbLine
 10
1.6631746828
 20
0.5646172902
 30
0.0
 11
1.6531967641
 21
0.5445015798
 31
0.0
  0
LINE
  5
351
330
1F
100
AcDbEntity
  8
0
  6
Continuous
 62
   254
370
    25
100
AcDbLine
 10
1.6649987589
 20
0.5899654112
 30
0.0
 11
1.6631746828
 21
0.5646172902
 31
0.0
  0
LINE
  5
352
330
1F
100
AcDbEntity
  8
0
  6
Continuous
 62
   254
370
    25
100
AcDbLine
 10
1.6649987589
 20
0.6169414134
 30
0.0
 11
1.6649987589
 21
0.5899654112
 31
0.0
  0
LINE
  5
353
330
1F
100
AcDbEntity
  8
0
  6
Continuous
 62
   254
370
    25
100
AcDbLine
 10
1.6611035216
 20
0.6522092621
 30
0.0
 11
1.6649987589
 21
0.6169414134
 31
0.0
  0
LINE
  5
354
330
1F
100
AcDbEntity
  8
0
  6
Continuous
 62
   254
370
    25
100
AcDbLine
 10
1.6559728586
 20
0.6662486358
 30
0.0
 11
1.6611035216
 21
0.6522092621
 31
0.0
  0
LINE
  5
355
330
1F
100
AcDbEntity
  8
0
  6
Continuous
 62
   254
370
    25
100
AcDbLine
 10
1.6484876273
 20
0.6779279861
 30
0.0
 11
1.6559728586
 21
0.6662486358
 31
0.0
  0
LINE
  5
356
330
1F
100
AcDbEntity
  8
0
  6
Continuous
 62
   254
370
    25
100
AcDbLine
 10
1.6384733702
 20
0.6872745547
 30
0.0
 11
1.6484876273
 21
0.6779279861
 31
0.0
  0
LINE
  5
357
330
1F
100
AcDbEntity
  8
0
  6
Continuous
 62
   254
370
    25
100
AcDbLine
 10
1.6257557118
 20
0.6943155997
 30
0.0
 11
1.6384733702
 21
0.6872745547
 31
0.0
  0
LINE
  5
358
330
1F
100
AcDbEntity
  8
0
  6
Continuous
 62
   254
370
    25
100
AcDbLine
 10
1.610160211
 20
0.6990783624
 30
0.0
 11
1.6257557118
 21
0.6943155997
 31
0.0
  0
LINE
  5
359
330
1F
100
AcDbEntity
  8
0
  6
Continuous
 62
   254
370
    25
100
AcDbLine
 10
1.5915124762
 20
0.7015901172
 30
0.0
 11
1.610160211
 21
0.6990783624
 31
0.0
  0
LINE
  5
35A
330
1F
100
AcDbEntity
  8
0
  6
Continuous
 62
   254
370
    25
100
AcDbLine
 10
1.497968839
 20
0.7036249399
 30
0.0
 11
1.5915124762
 21
0.7015901172
 31
0.0
  0
LINE
  5
35B
330
1F
100
AcDbEntity
  8
0
  6
Continuous
 62
   254
370
    25
100
AcDbLine
 10
1.4026806419
 20
0.7025195911
 30
0.0
 11
1.497968839
 21
0.7036249399
 31
0.0
  0
LINE
  5
35C
330
1F
100
AcDbEntity
  8
0
  6
Continuous
 62
   254
370
    25
100
AcDbLine
 10
1.4026806419
 20
0.3076480977
 30
0.0
 11
1.4026806419
 21
0.7025195911
 31
0.0
  0
LINE
  5
35D
330
1F
100
AcDbEntity
  8
0
  6
Continuous
 62
   254
370
    25
100
AcDbLine
 10
1.5138402814
 20
0.3076480977
 30
0.0
 11
1.4026806419
 21
0.3076480977
 31
0.0
  0
LINE
  5
35E
330
1F
100
AcDbEntity
  8
0
  6
Continuous
 62
   254
370
    25
100
AcDbLine
 10
1.8207957231
 20
0.6253127102
 30
0.0
 11
1.8280629565
 21
0.6346147663
 31
0.0
  0
LINE
  5
35F
330
1F
100
AcDbEntity
  8
0
  6
Continuous
 62
   254
370
    25
100
AcDbLine
 10
1.8280629565
 20
0.6346147663
 30
0.0
 11
1.8398649348
 21
0.6397308938
 31
0.0
  0
LINE
  5
360
330
1F
100
AcDbEntity
  8
0
  6
Continuous
 62
   254
370
    25
100
AcDbLine
 10
1.8398649348
 20
0.6397308938
 30
0.0
 11
1.853788981
 21
0.6357920669
 31
0.0
  0
LINE
  5
361
330
1F
100
AcDbEntity
  8
0
  6
Continuous
 62
   254
370
    25
100
AcDbLine
 10
1.853788981
 20
0.6357920669
 30
0.0
 11
1.8626550249
 21
0.6274057074
 31
0.0
  0
LINE
  5
362
330
1F
100
AcDbEntity
  8
0
  6
Continuous
 62
   254
370
    25
100
AcDbLine
 10
1.8626550249
 20
0.6274057074
 30
0.0
 11
1.8673351237
 21
0.6155310686
 31
0.0
  0
LINE
  5
363
330
1F
100
AcDbEntity
  8
0
  6
Continuous
 62
   254
370
    25
100
AcDbLine
 10
1.8673351237
 20
0.6155310686
 30
0.0
 11
1.8687013679
 21
0.6011274039
 31
0.0
  0
LINE
  5
364
330
1F
100
AcDbEntity
  8
0
  6
Continuous
 62
   254
370
    25
100
AcDbLine
 10
1.8687013679
 20
0.6011274039
 30
0.0
 11
1.8687013679
 21
0.4081099542
 31
0.0
  0
LINE
  5
365
330
1F
100
AcDbEntity
  8
0
  6
Continuous
 62
   254
370
    25
100
AcDbLine
 10
1.8687013679
 20
0.4081099542
 30
0.0
 11
1.8661796591
 21
0.3885102502
 31
0.0
  0
LINE
  5
366
330
1F
100
AcDbEntity
  8
0
  6
Continuous
 62
   254
370
    25
100
AcDbLine
 10
1.8661796591
 20
0.3885102502
 30
0.0
 11
1.8582947211
 21
0.3765411314
 31
0.0
  0
LINE
  5
367
330
1F
100
AcDbEntity
  8
0
  6
Continuous
 62
   254
370
    25
100
AcDbLine
 10
1.8582947211
 20
0.3765411314
 30
0.0
 11
1.8435204204
 21
0.3712869176
 31
0.0
  0
LINE
  5
368
330
1F
100
AcDbEntity
  8
0
  6
Continuous
 62
   254
370
    25
100
AcDbLine
 10
1.8435204204
 20
0.3712869176
 30
0.0
 11
1.8203306235
 21
0.3718316652
 31
0.0
  0
LINE
  5
369
330
1F
100
AcDbEntity
  8
0
  6
Continuous
 62
   254
370
    25
100
AcDbLine
 10
1.8203306235
 20
0.3718316652
 30
0.0
 11
1.8207957231
 21
0.6253127102
 31
0.0
  0
LINE
  5
36A
330
1F
100
AcDbEntity
  8
0
  6
Continuous
 62
   254
370
    25
100
AcDbLine
 10
1.9110262143
 20
0.3062535078
 30
0.0
 11
1.8102733205
 21
0.3047419262
 31
0.0
  0
LINE
  5
36B
330
1F
100
AcDbEntity
  8
0
  6
Continuous
 62
   254
370
    25
100
AcDbLine
 10
1.9272503295
 20
0.3083955332
 30
0.0
 11
1.9110262143
 21
0.3062535078
 31
0.0
  0
LINE
  5
36C
330
1F
100
AcDbEntity
  8
0
  6
Continuous
 62
   254
370
    25
100
AcDbLine
 10
1.9416649039
 20
0.3132736561
 30
0.0
 11
1.9272503295
 21
0.3083955332
 31
0.0
  0
LINE
  5
36D
330
1F
100
AcDbEntity
  8
0
  6
Continuous
 62
   254
370
    25
100
AcDbLine
 10
1.9541609224
 20
0.3206589525
 30
0.0
 11
1.9416649039
 21
0.3132736561
 31
0.0
  0
LINE
  5
36E
330
1F
100
AcDbEntity
  8
0
  6
Continuous
 62
   254
370
    25
100
AcDbLine
 10
1.9646293693
 20
0.3303225475
 30
0.0
 11
1.9541609224
 21
0.3206589525
 31
0.0
  0
LINE
  5
36F
330
1F
100
AcDbEntity
  8
0
  6
Continuous
 62
   254
370
    25
100
AcDbLine
 10
1.9729612623
 20
0.3420354842
 30
0.0
 11
1.9646293693
 21
0.3303225475
 31
0.0
  0
LINE
  5
370
330
1F
100
AcDbEntity
  8
0
  6
Continuous
 62
   254
370
    25
100
AcDbLine
 10
1.9790475695
 20
0.3555688713
 30
0.0
 11
1.9729612623
 21
0.3420354842
 31
0.0
  0
LINE
  5
371
330
1F
100
AcDbEntity
  8
0
  6
Continuous
 62
   254
370
    25
100
AcDbLine
 10
1.9827792918
 20
0.3706938012
 30
0.0
 11
1.9790475695
 21
0.3555688713
 31
0.0
  0
LINE
  5
372
330
1F
100
AcDbEntity
  8
0
  6
Continuous
 62
   254
370
    25
100
AcDbLine
 10
1.9840474304
 20
0.3871813497
 30
0.0
 11
1.9827792918
 21
0.3706938012
 31
0.0
  0
LINE
  5
373
330
1F
100
AcDbEntity
  8
0
  6
Continuous
 62
   254
370
    25
100
AcDbLine
 10
1.9840474304
 20
0.6076397034
 30
0.0
 11
1.9840474304
 21
0.3871813497
 31
0.0
  0
LINE
  5
374
330
1F
100
AcDbEntity
  8
0
  6
Continuous
 62
   254
370
    25
100
AcDbLine
 10
1.9829755032
 20
0.6280042952
 30
0.0
 11
1.9840474304
 21
0.6076397034
 31
0.0
  0
LINE
  5
375
330
1F
100
AcDbEntity
  8
0
  6
Continuous
 62
   254
370
    25
100
AcDbLine
 10
1.9796580065
 20
0.6458507872
 30
0.0
 11
1.9829755032
 21
0.6280042952
 31
0.0
  0
LINE
  5
376
330
1F
100
AcDbEntity
  8
0
  6
Continuous
 62
   254
370
    25
100
AcDbLine
 10
1.9739423187
 20
0.6611901059
 30
0.0
 11
1.9796580065
 21
0.6458507872
 31
0.0
  0
LINE
  5
377
330
1F
100
AcDbEntity
  8
0
  6
Continuous
 62
   254
370
    25
100
AcDbLine
 10
1.965675835
 20
0.6740331115
 30
0.0
 11
1.9739423187
 21
0.6611901059
 31
0.0
  0
LINE
  5
378
330
1F
100
AcDbEntity
  8
0
  6
Continuous
 62
   254
370
    25
100
AcDbLine
 10
1.95470595
 20
0.6843907467
 30
0.0
 11
1.965675835
 21
0.6740331115
 31
0.0
  0
LINE
  5
379
330
1F
100
AcDbEntity
  8
0
  6
Continuous
 62
   254
370
    25
100
AcDbLine
 10
1.9408800424
 20
0.6922738718
 30
0.0
 11
1.95470595
 21
0.6843907467
 31
0.0
  0
LINE
  5
37A
330
1F
100
AcDbEntity
  8
0
  6
Continuous
 62
   254
370
    25
100
AcDbLine
 10
1.9240454903
 20
0.6976934298
 30
0.0
 11
1.9408800424
 21
0.6922738718
 31
0.0
  0
LINE
  5
37B
330
1F
100
AcDbEntity
  8
0
  6
Continuous
 62
   254
370
    25
100
AcDbLine
 10
1.9040497217
 20
0.7006602643
 30
0.0
 11
1.9240454903
 21
0.6976934298
 31
0.0
  0
LINE
  5
37C
330
1F
100
AcDbEntity
  8
0
  6
Continuous
 62
   254
370
    25
100
AcDbLine
 10
1.8553952899
 20
0.7030366522
 30
0.0
 11
1.9040497217
 21
0.7006602643
 31
0.0
  0
LINE
  5
37D
330
1F
100
AcDbEntity
  8
0
  6
Continuous
 62
   254
370
    25
100
AcDbLine
 10
1.8064357798
 20
0.7032764697
 30
0.0
 11
1.8553952899
 21
0.7030366522
 31
0.0
  0
LINE
  5
37E
330
1F
100
AcDbEntity
  8
0
  6
Continuous
 62
   254
370
    25
100
AcDbLine
 10
1.7077763117
 20
0.702055398
 30
0.0
 11
1.8064357798
 21
0.7032764697
 31
0.0
  0
LINE
  5
37F
330
1F
100
AcDbEntity
  8
0
  6
Continuous
 62
   254
370
    25
100
AcDbLine
 10
1.7077763117
 20
0.3053233088
 30
0.0
 11
1.7077763117
 21
0.702055398
 31
0.0
  0
LINE
  5
380
330
1F
100
AcDbEntity
  8
0
  6
Continuous
 62
   254
370
    25
100
AcDbLine
 10
1.8102733205
 20
0.3047419262
 30
0.0
 11
1.7077763117
 21
0.3053233088
 31
0.0
  0
LINE
  5
381
330
1F
100
AcDbEntity
  8
0
  6
Continuous
 62
   254
370
    25
100
AcDbLine
 10
2.0204465676
 20
0.3555545008
 30
0.0
 11
2.0168856278
 21
0.370703063
 31
0.0
  0
LINE
  5
382
330
1F
100
AcDbEntity
  8
0
  6
Continuous
 62
   254
370
    25
100
AcDbLine
 10
2.0262748797
 20
0.3418884658
 30
0.0
 11
2.0204465676
 21
0.3555545008
 31
0.0
  0
LINE
  5
383
330
1F
100
AcDbEntity
  8
0
  6
Continuous
 62
   254
370
    25
100
AcDbLine
 10
2.0342833521
 20
0.3298575634
 30
0.0
 11
2.0262748797
 21
0.3418884658
 31
0.0
  0
LINE
  5
384
330
1F
100
AcDbEntity
  8
0
  6
Continuous
 62
   254
370
    25
100
AcDbLine
 10
2.0443848051
 20
0.3196143984
 30
0.0
 11
2.0342833521
 21
0.3298575634
 31
0.0
  0
LINE
  5
385
330
1F
100
AcDbEntity
  8
0
  6
Continuous
 62
   254
370
    25
100
AcDbLine
 10
2.0564919937
 20
0.3113115763
 30
0.0
 11
2.0443848051
 21
0.3196143984
 31
0.0
  0
LINE
  5
386
330
1F
100
AcDbEntity
  8
0
  6
Continuous
 62
   254
370
    25
100
AcDbLine
 10
2.0705177383
 20
0.3051017348
 30
0.0
 11
2.0564919937
 21
0.3113115763
 31
0.0
  0
LINE
  5
387
330
1F
100
AcDbEntity
  8
0
  6
Continuous
 62
   254
370
    25
100
AcDbLine
 10
2.0863748266
 20
0.3011374627
 30
0.0
 11
2.0705177383
 21
0.3051017348
 31
0.0
  0
LINE
  5
388
330
1F
100
AcDbEntity
  8
0
  6
Continuous
 62
   254
370
    25
100
AcDbLine
 10
2.1306177511
 20
0.2961376018
 30
0.0
 11
2.0863748266
 21
0.3011374627
 31
0.0
  0
LINE
  5
389
330
1F
100
AcDbEntity
  8
0
  6
Continuous
 62
   254
370
    25
100
AcDbLine
 10
2.1752094591
 20
0.2960213351
 30
0.0
 11
2.1306177511
 21
0.2961376018
 31
0.0
  0
LINE
  5
38A
330
1F
100
AcDbEntity
  8
0
  6
Continuous
 62
   254
370
    25
100
AcDbLine
 10
2.2009381864
 20
0.2991589523
 30
0.0
 11
2.1752094591
 21
0.2960213351
 31
0.0
  0
LINE
  5
38B
330
1F
100
AcDbEntity
  8
0
  6
Continuous
 62
   254
370
    25
100
AcDbLine
 10
2.2227589705
 20
0.3051634855
 30
0.0
 11
2.2009381864
 21
0.2991589523
 31
0.0
  0
LINE
  5
38C
330
1F
100
AcDbEntity
  8
0
  6
Continuous
 62
   254
370
    25
100
AcDbLine
 10
2.2408189613
 20
0.31415486
 30
0.0
 11
2.2227589705
 21
0.3051634855
 31
0.0
  0
LINE
  5
38D
330
1F
100
AcDbEntity
  8
0
  6
Continuous
 62
   254
370
    25
100
AcDbLine
 10
2.2552653259
 20
0.3262529845
 30
0.0
 11
2.2408189613
 21
0.31415486
 31
0.0
  0
LINE
  5
38E
330
1F
100
AcDbEntity
  8
0
  6
Continuous
 62
   254
370
    25
100
AcDbLine
 10
2.2662452141
 20
0.3415777678
 30
0.0
 11
2.2552653259
 21
0.3262529845
 31
0.0
  0
LINE
  5
38F
330
1F
100
AcDbEntity
  8
0
  6
Continuous
 62
   254
370
    25
100
AcDbLine
 10
2.273905793
 20
0.360249102
 30
0.0
 11
2.2662452141
 21
0.3415777678
 31
0.0
  0
LINE
  5
390
330
1F
100
AcDbEntity
  8
0
  6
Continuous
 62
   254
370
    25
100
AcDbLine
 10
2.2783942291
 20
0.3823869124
 30
0.0
 11
2.273905793
 21
0.360249102
 31
0.0
  0
LINE
  5
391
330
1F
100
AcDbEntity
  8
0
  6
Continuous
 62
   254
370
    25
100
AcDbLine
 10
2.2798576725
 20
0.4081111078
 30
0.0
 11
2.2783942291
 21
0.3823869124
 31
0.0
  0
LINE
  5
392
330
1F
100
AcDbEntity
  8
0
  6
Continuous
 62
   254
370
    25
100
AcDbLine
 10
2.2806716048
 20
0.4233432403
 30
0.0
 11
2.2798576725
 21
0.4081111078
 31
0.0
  0
LINE
  5
393
330
1F
100
AcDbEntity
  8
0
  6
Continuous
 62
   254
370
    25
100
AcDbLine
 10
2.279392573
 20
0.4378776741
 30
0.0
 11
2.2806716048
 21
0.4233432403
 31
0.0
  0
LINE
  5
394
330
1F
100
AcDbEntity
  8
0
  6
Continuous
 62
   254
370
    25
100
AcDbLine
 10
2.2703230831
 20
0.4683418732
 30
0.0
 11
2.279392573
 21
0.4378776741
 31
0.0
  0
LINE
  5
395
330
1F
100
AcDbEntity
  8
0
  6
Continuous
 62
   254
370
    25
100
AcDbLine
 10
2.264218615
 20
0.4822222969
 30
0.0
 11
2.2703230831
 21
0.4683418732
 31
0.0
  0
LINE
  5
396
330
1F
100
AcDbEntity
  8
0
  6
Continuous
 62
   254
370
    25
100
AcDbLine
 10
2.2556723662
 20
0.4932248782
 30
0.0
 11
2.264218615
 21
0.4822222969
 31
0.0
  0
LINE
  5
397
330
1F
100
AcDbEntity
  8
0
  6
Continuous
 62
   254
370
    25
100
AcDbLine
 10
2.2095690602
 20
0.5283401383
 30
0.0
 11
2.2556723662
 21
0.4932248782
 31
0.0
  0
LINE
  5
398
330
1F
100
AcDbEntity
  8
0
  6
Continuous
 62
   254
370
    25
100
AcDbLine
 10
2.1603263077
 20
0.5592694369
 30
0.0
 11
2.2095690602
 21
0.5283401383
 31
0.0
  0
LINE
  5
399
330
1F
100
AcDbEntity
  8
0
  6
Continuous
 62
   254
370
    25
100
AcDbLine
 10
2.1401379534
 20
0.5732806296
 30
0.0
 11
2.1603263077
 21
0.5592694369
 31
0.0
  0
LINE
  5
39A
330
1F
100
AcDbEntity
  8
0
  6
Continuous
 62
   254
370
    25
100
AcDbLine
 10
2.127885411
 20
0.5872918388
 30
0.0
 11
2.1401379534
 21
0.5732806296
 31
0.0
  0
LINE
  5
39B
330
1F
100
AcDbEntity
  8
0
  6
Continuous
 62
   254
370
    25
100
AcDbLine
 10
2.1227838188
 20
0.6042681028
 30
0.0
 11
2.127885411
 21
0.5872918388
 31
0.0
  0
LINE
  5
39C
330
1F
100
AcDbEntity
  8
0
  6
Continuous
 62
   254
370
    25
100
AcDbLine
 10
2.1240483153
 20
0.6271744266
 30
0.0
 11
2.1227838188
 21
0.6042681028
 31
0.0
  0
LINE
  5
39D
330
1F
100
AcDbEntity
  8
0
  6
Continuous
 62
   254
370
    25
100
AcDbLine
 10
2.1267734702
 20
0.6335695531
 30
0.0
 11
2.1240483153
 21
0.6271744266
 31
0.0
  0
LINE
  5
39E
330
1F
100
AcDbEntity
  8
0
  6
Continuous
 62
   254
370
    25
100
AcDbLine
 10
2.1318968655
 20
0.6396158631
 30
0.0
 11
2.1267734702
 21
0.6335695531
 31
0.0
  0
LINE
  5
39F
330
1F
100
AcDbEntity
  8
0
  6
Continuous
 62
   254
370
    25
100
AcDbLine
 10
2.1435825935
 20
0.6513597
 30
0.0
 11
2.1318968655
 21
0.6396158631
 31
0.0
  0
LINE
  5
3A0
330
1F
100
AcDbEntity
  8
0
  6
Continuous
 62
   254
370
    25
100
AcDbLine
 10
2.1574775856
 20
0.6406623124
 30
0.0
 11
2.1435825935
 21
0.6513597
 31
0.0
  0
LINE
  5
3A1
330
1F
100
AcDbEntity
  8
0
  6
Continuous
 62
   254
370
    25
100
AcDbLine
 10
2.1682330982
 20
0.6285696263
 30
0.0
 11
2.1574775856
 21
0.6406623124
 31
0.0
  0
LINE
  5
3A2
330
1F
100
AcDbEntity
  8
0
  6
Continuous
 62
   254
370
    25
100
AcDbLine
 10
2.1716632359
 20
0.6113608126
 30
0.0
 11
2.1682330982
 21
0.6285696263
 31
0.0
  0
LINE
  5
3A3
330
1F
100
AcDbEntity
  8
0
  6
Continuous
 62
   254
370
    25
100
AcDbLine
 10
2.1719539273
 20
0.5927567005
 30
0.0
 11
2.1716632359
 21
0.6113608126
 31
0.0
  0
LINE
  5
3A4
330
1F
100
AcDbEntity
  8
0
  6
Continuous
 62
   254
370
    25
100
AcDbLine
 10
2.2714859143
 20
0.5927567005
 30
0.0
 11
2.1719539273
 21
0.5927567005
 31
0.0
  0
LINE
  5
3A5
330
1F
100
AcDbEntity
  8
0
  6
Continuous
 62
   254
370
    25
100
AcDbLine
 10
2.2741494009
 20
0.618280993
 30
0.0
 11
2.2714859143
 21
0.5927567005
 31
0.0
  0
LINE
  5
3A6
330
1F
100
AcDbEntity
  8
0
  6
Continuous
 62
   254
370
    25
100
AcDbLine
 10
2.2724743208
 20
0.6410255817
 30
0.0
 11
2.2741494009
 21
0.618280993
 31
0.0
  0
LINE
  5
3A7
330
1F
100
AcDbEntity
  8
0
  6
Continuous
 62
   254
370
    25
100
AcDbLine
 10
2.2666133122
 20
0.6608269519
 30
0.0
 11
2.2724743208
 21
0.6410255817
 31
0.0
  0
LINE
  5
3A8
330
1F
100
AcDbEntity
  8
0
  6
Continuous
 62
   254
370
    25
100
AcDbLine
 10
2.2567189802
 20
0.6775215884
 30
0.0
 11
2.2666133122
 21
0.6608269519
 31
0.0
  0
LINE
  5
3A9
330
1F
100
AcDbEntity
  8
0
  6
Continuous
 62
   254
370
    25
100
AcDbLine
 10
2.2429439463
 20
0.6909459931
 30
0.0
 11
2.2567189802
 21
0.6775215884
 31
0.0
  0
LINE
  5
3AA
330
1F
100
AcDbEntity
  8
0
  6
Continuous
 62
   254
370
    25
100
AcDbLine
 10
2.2254407992
 20
0.700936618
 30
0.0
 11
2.2429439463
 21
0.6909459931
 31
0.0
  0
LINE
  5
3AB
330
1F
100
AcDbEntity
  8
0
  6
Continuous
 62
   254
370
    25
100
AcDbLine
 10
2.2043621935
 20
0.7073299812
 30
0.0
 11
2.2254407992
 21
0.700936618
 31
0.0
  0
LINE
  5
3AC
330
1F
100
AcDbEntity
  8
0
  6
Continuous
 62
   254
370
    25
100
AcDbLine
 10
2.1798607178
 20
0.7099625346
 30
0.0
 11
2.2043621935
 21
0.7073299812
 31
0.0
  0
LINE
  5
3AD
330
1F
100
AcDbEntity
  8
0
  6
Continuous
 62
   254
370
    25
100
AcDbLine
 10
2.1119557281
 20
0.7099625346
 30
0.0
 11
2.1798607178
 21
0.7099625346
 31
0.0
  0
LINE
  5
3AE
330
1F
100
AcDbEntity
  8
0
  6
Continuous
 62
   254
370
    25
100
AcDbLine
 10
2.081840329
 20
0.7065759867
 30
0.0
 11
2.1119557281
 21
0.7099625346
 31
0.0
  0
LINE
  5
3AF
330
1F
100
AcDbEntity
  8
0
  6
Continuous
 62
   254
370
    25
100
AcDbLine
 10
2.0559108748
 20
0.6957768843
 30
0.0
 11
2.081840329
 21
0.7065759867
 31
0.0
  0
LINE
  5
3B0
330
1F
100
AcDbEntity
  8
0
  6
Continuous
 62
   254
370
    25
100
AcDbLine
 10
2.0355626476
 20
0.67765244
 30
0.0
 11
2.0559108748
 21
0.6957768843
 31
0.0
  0
LINE
  5
3B1
330
1F
100
AcDbEntity
  8
0
  6
Continuous
 62
   254
370
    25
100
AcDbLine
 10
2.0279175436
 20
0.665870452
 30
0.0
 11
2.0355626476
 21
0.67765244
 31
0.0
  0
LINE
  5
3B2
330
1F
100
AcDbEntity
  8
0
  6
Continuous
 62
   254
370
    25
100
AcDbLine
 10
2.0221909626
 20
0.652289833
 30
0.0
 11
2.0279175436
 21
0.665870452
 31
0.0
  0
LINE
  5
3B3
330
1F
100
AcDbEntity
  8
0
  6
Continuous
 62
   254
370
    25
100
AcDbLine
 10
2.0138845313
 20
0.6209534611
 30
0.0
 11
2.0221909626
 21
0.652289833
 31
0.0
  0
LINE
  5
3B4
330
1F
100
AcDbEntity
  8
0
  6
Continuous
 62
   254
370
    25
100
AcDbLine
 10
2.0115517496
 20
0.5889194894
 30
0.0
 11
2.0138845313
 21
0.6209534611
 31
0.0
  0
LINE
  5
3B5
330
1F
100
AcDbEntity
  8
0
  6
Continuous
 62
   254
370
    25
100
AcDbLine
 10
2.013729174
 20
0.5732404349
 30
0.0
 11
2.0115517496
 21
0.5889194894
 31
0.0
  0
LINE
  5
3B6
330
1F
100
AcDbEntity
  8
0
  6
Continuous
 62
   254
370
    25
100
AcDbLine
 10
2.0187244864
 20
0.5581064409
 30
0.0
 11
2.013729174
 21
0.5732404349
 31
0.0
  0
LINE
  5
3B7
330
1F
100
AcDbEntity
  8
0
  6
Continuous
 62
   254
370
    25
100
AcDbLine
 10
2.026979154
 20
0.5437573086
 30
0.0
 11
2.0187244864
 21
0.5581064409
 31
0.0
  0
LINE
  5
3B8
330
1F
100
AcDbEntity
  8
0
  6
Continuous
 62
   254
370
    25
100
AcDbLine
 10
2.0389346768
 20
0.5304328389
 30
0.0
 11
2.026979154
 21
0.5437573086
 31
0.0
  0
LINE
  5
3B9
330
1F
100
AcDbEntity
  8
0
  6
Continuous
 62
   254
370
    25
100
AcDbLine
 10
2.0792823804
 20
0.4992708917
 30
0.0
 11
2.0389346768
 21
0.5304328389
 31
0.0
  0
LINE
  5
3BA
330
1F
100
AcDbEntity
  8
0
  6
Continuous
 62
   254
370
    25
100
AcDbLine
 10
2.123118314
 20
0.4722949059
 30
0.0
 11
2.0792823804
 21
0.4992708917
 31
0.0
  0
LINE
  5
3BB
330
1F
100
AcDbEntity
  8
0
  6
Continuous
 62
   254
370
    25
100
AcDbLine
 10
2.1460173538
 20
0.4553986032
 30
0.0
 11
2.123118314
 21
0.4722949059
 31
0.0
  0
LINE
  5
3BC
330
1F
100
AcDbEntity
  8
0
  6
Continuous
 62
   254
370
    25
100
AcDbLine
 10
2.1618962617
 20
0.4354936724
 30
0.0
 11
2.1460173538
 21
0.4553986032
 31
0.0
  0
LINE
  5
3BD
330
1F
100
AcDbEntity
  8
0
  6
Continuous
 62
   254
370
    25
100
AcDbLine
 10
2.1700137659
 20
0.4116644337
 30
0.0
 11
2.1618962617
 21
0.4354936724
 31
0.0
  0
LINE
  5
3BE
330
1F
100
AcDbEntity
  8
0
  6
Continuous
 62
   254
370
    25
100
AcDbLine
 10
2.1696285946
 20
0.3829952069
 30
0.0
 11
2.1700137659
 21
0.4116644337
 31
0.0
  0
LINE
  5
3BF
330
1F
100
AcDbEntity
  8
0
  6
Continuous
 62
   254
370
    25
100
AcDbLine
 10
2.1670705308
 20
0.3723341743
 30
0.0
 11
2.1696285946
 21
0.3829952069
 31
0.0
  0
LINE
  5
3C0
330
1F
100
AcDbEntity
  8
0
  6
Continuous
 62
   254
370
    25
100
AcDbLine
 10
2.1624195027
 20
0.3643329367
 30
0.0
 11
2.1670705308
 21
0.3723341743
 31
0.0
  0
LINE
  5
3C1
330
1F
100
AcDbEntity
  8
0
  6
Continuous
 62
   254
370
    25
100
AcDbLine
 10
2.1549778612
 20
0.3593839496
 30
0.0
 11
2.1624195027
 21
0.3643329367
 31
0.0
  0
LINE
  5
3C2
330
1F
100
AcDbEntity
  8
0
  6
Continuous
 62
   254
370
    25
100
AcDbLine
 10
2.1440479567
 20
0.3578796357
 30
0.0
 11
2.1549778612
 21
0.3593839496
 31
0.0
  0
LINE
  5
3C3
330
1F
100
AcDbEntity
  8
0
  6
Continuous
 62
   254
370
    25
100
AcDbLine
 10
2.1333941588
 20
0.3599144584
 30
0.0
 11
2.1440479567
 21
0.3578796357
 31
0.0
  0
LINE
  5
3C4
330
1F
100
AcDbEntity
  8
0
  6
Continuous
 62
   254
370
    25
100
AcDbLine
 10
2.1271879265
 20
0.3654375439
 30
0.0
 11
2.1333941588
 21
0.3599144584
 31
0.0
  0
LINE
  5
3C5
330
1F
100
AcDbEntity
  8
0
  6
Continuous
 62
   254
370
    25
100
AcDbLine
 10
2.1242955653
 20
0.3735768348
 30
0.0
 11
2.1271879265
 21
0.3654375439
 31
0.0
  0
LINE
  5
3C6
330
1F
100
AcDbEntity
  8
0
  6
Continuous
 62
   254
370
    25
100
AcDbLine
 10
2.1235833807
 20
0.3834602736
 30
0.0
 11
2.1242955653
 21
0.3735768348
 31
0.0
  0
LINE
  5
3C7
330
1F
100
AcDbEntity
  8
0
  6
Continuous
 62
   254
370
    25
100
AcDbLine
 10
2.1235833807
 20
0.4462492016
 30
0.0
 11
2.1235833807
 21
0.3834602736
 31
0.0
  0
LINE
  5
3C8
330
1F
100
AcDbEntity
  8
0
  6
Continuous
 62
   254
370
    25
100
AcDbLine
 10
2.0147490738
 20
0.4462495971
 30
0.0
 11
2.1235833807
 21
0.4462492016
 31
0.0
  0
LINE
  5
3C9
330
1F
100
AcDbEntity
  8
0
  6
Continuous
 62
   254
370
    25
100
AcDbLine
 10
2.0156792729
 20
0.387181531
 30
0.0
 11
2.0147490738
 21
0.4462495971
 31
0.0
  0
LINE
  5
3CA
330
1F
100
AcDbEntity
  8
0
  6
Continuous
 62
   254
370
    25
100
AcDbLine
 10
2.0168856278
 20
0.370703063
 30
0.0
 11
2.0156792729
 21
0.387181531
 31
0.0
  0
ARC
  5
3CB
330
1F
100
AcDbEntity
  8
0
  6
Continuous
 62
   254
370
    25
100
AcDbCircle
 10
0.7196699141
 20
3.625
 30
0.0
 40
0.1249999999999994
100
AcDbArc
 50
270.0
 51
3.3722866834
  0
LINE
  5
3CC
330
1F
100
AcDbEntity
  8
0
  6
Continuous
 62
   254
370
    25
100
AcDbLine
 10
0.7196699141
 20
3.5
 30
0.0
 11
0.0
 21
3.5
 31
0.0
  0
LINE
  5
3CD
330
1F
100
AcDbEntity
  8
0
  6
Continuous
 62
   254
370
    25
100
AcDbLine
 10
0.0
 20
3.5
 30
0.0
 11
0.0
 21
0.0
 31
0.0
  0
LINE
  5
3CE
330
1F
100
AcDbEntity
  8
0
  6
Continuous
 62
   254
370
    25
100
AcDbLine
 10
0.0
 20
0.0
 30
0.0
 11
2.5
 21
0.0
 31
0.0
  0
LINE
  5
3CF
330
1F
100
AcDbEntity
  8
0
  6
Continuous
 62
   254
370
    25
100
AcDbLine
 10
2.5
 20
0.0
 30
0.0
 11
2.5
 21
3.5
 31
0.0
  0
LINE
  5
3D0
330
1F
100
AcDbEntity
  8
0
  6
Continuous
 62
   254
370
    25
100
AcDbLine
 10
2.5
 20
3.5
 30
0.0
 11
1.7803300859
 21
3.5
 31
0.0
  0
ARC
  5
3D1
330
1F
100
AcDbEntity
  8
0
  6
Continuous
 62
   254
370
    25
100
AcDbCircle
 10
1.7803300859
 20
3.625
 30
0.0
 40
0.1249999999999999
100
AcDbArc
 50
176.6277133166
 51
270.0
  0
ARC
  5
3D2
330
1F
100
AcDbEntity
  8
0
  6
Continuous
 62
   254
370
    25
100
AcDbCircle
 10
1.25
 20
3.65625
 30
0.0
 40
0.4062500000000005
100
AcDbArc
 50
356.6277133166
 51
183.3722866834
  0
CIRCLE
  5
3D3
330
1F
100
AcDbEntity
  8
0
  6
Continuous
 62
   254
370
    25
100
AcDbCircle
 10
1.25
 20
3.65625
 30
0.0
 40
0.1562499999999993
  0
LINE
  5
3D4
330
1F
100
AcDbEntity
  8
0
  6
Continuous
 62
   254
370
    25
100
AcDbLine
 10
0.125
 20
3.375
 30
0.0
 11
0.125
 21
0.125
 31
0.0
  0
LINE
  5
3D5
330
1F
100
AcDbEntity
  8
0
  6
Continuous
 62
   254
370
    25
100
AcDbLine
 10
2.375
 20
3.375
 30
0.0
 11
0.125
 21
3.375
 31
0.0
  0
LINE
  5
3D6
330
1F
100
AcDbEntity
  8
0
  6
Continuous
 62
   254
370
    25
100
AcDbLine
 10
2.375
 20
0.125
 30
0.0
 11
2.375
 21
3.375
 31
0.0
  0
LINE
  5
3D7
330
1F
100
AcDbEntity
  8
0
  6
Continuous
 62
   254
370
    25
100
AcDbLine
 10
0.125
 20
0.125
 30
0.0
 11
2.375
 21
0.125
 31
0.0
  0
MTEXT
  5
3D9
330
1F
100
AcDbEntity
  8
0
  6
Continuous
 62
   141
100
AcDbMText
 10
0.0
 20
-0.0401404091
 30
0.0
 40
0.1903
 41
0.0
 71
     1
 72
     1
  1
SOLIDWORKS Educational Product.
  7
SLDTEXTSTYLE0
 73
     1
 44
1.0
  0
MTEXT
  5
3DA
330
1F
100
AcDbEntity
  8
0
  6
Continuous
 62
   141
100
AcDbMText
 10
0.0
 20
-0.3255904091
 30
0.0
 40
0.1903
 41
0.0
 71
     1
 72
     1
  1
For Instructional Use Only.
  7
SLDTEXTSTYLE0
 73
     1
 44
1.0
  0
ENDSEC
  0
SECTION
  2
OBJECTS
  0
DICTIONARY
  5
C
330
0
100
AcDbDictionary
281
     1
  3
ACAD_GROUP
350
D
  3
ACAD_LAYOUT
350
1A
  3
ACAD_MLINESTYLE
350
17
  3
ACAD_PLOTSETTINGS
350
19
  3
ACAD_PLOTSTYLENAME
350
E
  3
ACAD_SCALELIST
350
47
  3
DWGPROPS
350
3DB
  0
DICTIONARY
  5
D
102
{ACAD_REACTORS
330
C
102
}
330
C
100
AcDbDictionary
281
     1
  0
DICTIONARY
  5
1A
102
{ACAD_REACTORS
330
C
102
}
330
C
100
AcDbDictionary
281
     1
  3
Layout1
350
1E
  3
Layout2
350
26
  3
Model
350
22
  0
DICTIONARY
  5
17
102
{ACAD_REACTORS
330
C
102
}
330
C
100
AcDbDictionary
281
     1
  3
Standard
350
18
  0
DICTIONARY
  5
19
102
{ACAD_REACTORS
330
C
102
}
330
C
100
AcDbDictionary
281
     1
  0
ACDBDICTIONARYWDFLT
  5
E
102
{ACAD_REACTORS
330
C
102
}
330
C
100
AcDbDictionary
281
     1
  3
Normal
350
F
100
AcDbDictionaryWithDefault
340
F
  0
DICTIONARY
  5
47
102
{ACAD_REACTORS
330
C
102
}
330
C
100
AcDbDictionary
281
     1
  3
A0
350
48
  3
A1
350
49
  3
A2
350
4A
  3
A3
350
4B
  3
A4
350
4C
  3
A5
350
4D
  3
A6
350
4E
  3
A7
350
4F
  3
A8
350
50
  3
A9
350
51
  3
B1
350
52
  3
B2
350
53
  3
B3
350
54
  3
B4
350
55
  3
B5
350
56
  3
B6
350
57
  3
B7
350
58
  0
XRECORD
  5
3DB
102
{ACAD_REACTORS
330
C
102
}
330
C
100
AcDbXrecord
280
     1
  1
DWGPROPS COOKIE
  2

  3

  4

  6

  7

  8
John
  9

300
=
301
=
302
=
303
=
304
=
305
=
306
=
307
=
308
=
309
=
 40
0.0
 41
2460387.287809248
 42
2460387.287846517
  1

 90
        0
  0
LAYOUT
  5
1E
102
{ACAD_REACTORS
330
1A
102
}
330
1A
100
AcDbPlotSettings
  1

  2
none_device
  4

  6

 40
0.0
 41
0.0
 42
0.0
 43
0.0
 44
0.0
 45
0.0
 46
0.0
 47
0.0
 48
0.0
 49
0.0
140
0.0
141
0.0
142
1.0
143
1.0
 70
   688
 72
     0
 73
     0
 74
     5
  7

 75
    16
147
1.0
148
0.0
149
0.0
100
AcDbLayout
  1
Layout1
 70
     1
 71
     1
 10
0.0
 20
0.0
 11
12.0
 21
9.0
 12
0.0
 22
0.0
 32
0.0
 14
1.0000000000E+20
 24
1.0000000000E+20
 34
1.0000000000E+20
 15
-1.0000000000E+20
 25
-1.0000000000E+20
 35
-1.0000000000E+20
146
0.0
 13
0.0
 23
0.0
 33
0.0
 16
1.0
 26
0.0
 36
0.0
 17
0.0
 27
1.0
 37
0.0
 76
     0
330
1B
  0
LAYOUT
  5
26
102
{ACAD_REACTORS
330
1A
102
}
330
1A
100
AcDbPlotSettings
  1

  2
none_device
  4

  6

 40
0.0
 41
0.0
 42
0.0
 43
0.0
 44
0.0
 45
0.0
 46
0.0
 47
0.0
 48
0.0
 49
0.0
140
0.0
141
0.0
142
1.0
143
1.0
 70
   688
 72
     0
 73
     0
 74
     5
  7

 75
    16
147
1.0
148
0.0
149
0.0
100
AcDbLayout
  1
Layout2
 70
     1
 71
     2
 10
0.0
 20
0.0
 11
0.0
 21
0.0
 12
0.0
 22
0.0
 32
0.0
 14
0.0
 24
0.0
 34
0.0
 15
0.0
 25
0.0
 35
0.0
146
0.0
 13
0.0
 23
0.0
 33
0.0
 16
1.0
 26
0.0
 36
0.0
 17
0.0
 27
1.0
 37
0.0
 76
     0
330
23
  0
LAYOUT
  5
22
102
{ACAD_REACTORS
330
1A
102
}
330
1A
100
AcDbPlotSettings
  1

  2
none_device
  4
ANSI_A_(11.00_x_8.50_Inches)
  6

 40
6.35
 41
19.05
 42
6.35000508
 43
19.05000254
 44
279.4
 45
215.9
 46
67.5835359215
 47
-17.97050127
 48
0.0
 49
0.0
140
0.0
141
0.0
142
2.0713846154
143
1.0
 70
  1696
 72
     0
 73
     0
 74
     0
  7

 75
     0
147
0.5913241897
148
-39.4088153714
149
0.0
100
AcDbLayout
  1
Model
 70
     1
 71
     0
 10
0.0
 20
0.0
 11
12.0
 21
9.0
 12
0.0
 22
0.0
 32
0.0
 14
0.0
 24
0.0
 34
0.0
 15
2.5
 25
4.0625
 35
0.0
146
0.0
 13
0.0
 23
0.0
 33
0.0
 16
1.0
 26
0.0
 36
0.0
 17
0.0
 27
1.0
 37
0.0
 76
     0
330
1F
331
29
  0
MLINESTYLE
  5
18
102
{ACAD_REACTORS
330
17
102
}
330
17
100
AcDbMlineStyle
  2
Standard
 70
     0
  3

 62
   256
 51
90.0
 52
90.0
 71
     2
 49
0.5
 62
   256
  6
BYLAYER
 49
-0.5
 62
   256
  6
BYLAYER
  0
ACDBPLACEHOLDER
  5
F
102
{ACAD_REACTORS
330
E
102
}
330
E
  0
SCALE
  5
48
102
{ACAD_REACTORS
330
47
102
}
330
47
100
AcDbScale
 70
     0
300
1:1
140
1.0
141
1.0
290
     1
  0
SCALE
  5
49
102
{ACAD_REACTORS
330
47
102
}
330
47
100
AcDbScale
 70
     0
300
1/128" = 1'-0"
140
0.0078125
141
12.0
290
     0
  0
SCALE
  5
4A
102
{ACAD_REACTORS
330
47
102
}
330
47
100
AcDbScale
 70
     0
300
1/64" = 1'-0"
140
0.015625
141
12.0
290
     0
  0
SCALE
  5
4B
102
{ACAD_REACTORS
330
47
102
}
330
47
100
AcDbScale
 70
     0
300
1/32" = 1'-0"
140
0.03125
141
12.0
290
     0
  0
SCALE
  5
4C
102
{ACAD_REACTORS
330
47
102
}
330
47
100
AcDbScale
 70
     0
300
1/16" = 1'-0"
140
0.0625
141
12.0
290
     0
  0
SCALE
  5
4D
102
{ACAD_REACTORS
330
47
102
}
330
47
100
AcDbScale
 70
     0
300
3/32" = 1'-0"
140
0.09375
141
12.0
290
     0
  0
SCALE
  5
4E
102
{ACAD_REACTORS
330
47
102
}
330
47
100
AcDbScale
 70
     0
300
1/8" = 1'-0"
140
0.125
141
12.0
290
     0
  0
SCALE
  5
4F
102
{ACAD_REACTORS
330
47
102
}
330
47
100
AcDbScale
 70
     0
300
3/16" = 1'-0"
140
0.1875
141
12.0
290
     0
  0
SCALE
  5
50
102
{ACAD_REACTORS
330
47
102
}
330
47
100
AcDbScale
 70
     0
300
1/4" = 1'-0"
140
0.25
141
12.0
290
     0
  0
SCALE
  5
51
102
{ACAD_REACTORS
330
47
102
}
330
47
100
AcDbScale
 70
     0
300
3/8" = 1'-0"
140
0.375
141
12.0
290
     0
  0
SCALE
  5
52
102
{ACAD_REACTORS
330
47
102
}
330
47
100
AcDbScale
 70
     0
300
1/2" = 1'-0"
140
0.5
141
12.0
290
     0
  0
SCALE
  5
53
102
{ACAD_REACTORS
330
47
102
}
330
47
100
AcDbScale
 70
     0
300
3/4" = 1'-0"
140
0.75
141
12.0
290
     0
  0
SCALE
  5
54
102
{ACAD_REACTORS
330
47
102
}
330
47
100
AcDbScale
 70
     0
300
1" = 1'-0"
140
1.0
141
12.0
290
     0
  0
SCALE
  5
55
102
{ACAD_REACTORS
330
47
102
}
330
47
100
AcDbScale
 70
     0
300
1-1/2" = 1'-0"
140
1.5
141
12.0
290
     0
  0
SCALE
  5
56
102
{ACAD_REACTORS
330
47
102
}
330
47
100
AcDbScale
 70
     0
300
3" = 1'-0"
140
3.0
141
12.0
290
     0
  0
SCALE
  5
57
102
{ACAD_REACTORS
330
47
102
}
330
47
100
AcDbScale
 70
     0
300
6" = 1'-0"
140
6.0
141
12.0
290
     0
  0
SCALE
  5
58
102
{ACAD_REACTORS
330
47
102
}
330
47
100
AcDbScale
 70
     0
300
1'-0" = 1'-0"
140
12.0
141
12.0
290
     0
  0
ENDSEC
  0
EOF
