  0
SECTION
  2
HEADER
  9
$ACADVER
  1
AC1015
  9
$ACADMAINTVER
 70
     6
  9
$DWGCODEPAGE
  3
ANSI_1252
  9
$INSBASE
 10
0.0
 20
0.0
 30
0.0
  9
$EXTMIN
 10
-0.8641477975
 20
-1.2572167602
 30
0.0
  9
$EXTMAX
 10
0.8385459228
 20
1.1195257018
 30
0.0
  9
$LIMMIN
 10
0.0
 20
0.0
  9
$LIMMAX
 10
12.0
 20
9.0
  9
$ORTHOMODE
 70
     0
  9
$REGENMODE
 70
     1
  9
$FILLMODE
 70
     1
  9
$QTEXTMODE
 70
     0
  9
$MIRRTEXT
 70
     1
  9
$LTSCALE
 40
1.0
  9
$ATTMODE
 70
     1
  9
$TEXTSIZE
 40
0.1377952756
  9
$TRACEWID
 40
0.05
  9
$TEXTSTYLE
  7
Standard
  9
$CLAYER
  8
0
  9
$CELTYPE
  6
ByLayer
  9
$CECOLOR
 62
   256
  9
$CELTSCALE
 40
1.0
  9
$DISPSILH
 70
     0
  9
$DIMSCALE
 40
1.0
  9
$DIMASZ
 40
0.13
  9
$DIMEXO
 40
0.0
  9
$DIMDLI
 40
0.38
  9
$DIMRND
 40
0.0
  9
$DIMDLE
 40
0.0
  9
$DIMEXE
 40
0.125
  9
$DIMTP
 40
0.0
  9
$DIMTM
 40
0.0
  9
$DIMTXT
 40
0.1377952756
  9
$DIMCEN
 40
0.09
  9
$DIMTSZ
 40
0.0
  9
$DIMTOL
 70
     0
  9
$DIMLIM
 70
     0
  9
$DIMTIH
 70
     1
  9
$DIMTOH
 70
     1
  9
$DIMSE1
 70
     0
  9
$DIMSE2
 70
     0
  9
$DIMTAD
 70
     1
  9
$DIMZIN
 70
     1
  9
$DIMBLK
  1

  9
$DIMASO
 70
     1
  9
$DIMSHO
 70
     1
  9
$DIMPOST
  1

  9
$DIMAPOST
  1

  9
$DIMALT
 70
     0
  9
$DIMALTD
 70
     2
  9
$DIMALTF
 40
25.4
  9
$DIMLFAC
 40
1.0
  9
$DIMTOFL
 70
     0
  9
$DIMTVP
 40
0.0
  9
$DIMTIX
 70
     0
  9
$DIMSOXD
 70
     0
  9
$DIMSAH
 70
     0
  9
$DIMBLK1
  1

  9
$DIMBLK2
  1

  9
$DIMSTYLE
  2
Standard
  9
$DIMCLRD
 70
     0
  9
$DIMCLRE
 70
     0
  9
$DIMCLRT
 70
     0
  9
$DIMTFAC
 40
1.0
  9
$DIMGAP
 40
0.06
  9
$DIMJUST
 70
     0
  9
$DIMSD1
 70
     0
  9
$DIMSD2
 70
     0
  9
$DIMTOLJ
 70
     1
  9
$DIMTZIN
 70
     1
  9
$DIMALTZ
 70
     0
  9
$DIMALTTZ
 70
     0
  9
$DIMUPT
 70
     0
  9
$DIMDEC
 70
     2
  9
$DIMTDEC
 70
     2
  9
$DIMALTU
 70
     2
  9
$DIMALTTD
 70
     2
  9
$DIMTXSTY
  7
Standard
  9
$DIMAUNIT
 70
     0
  9
$DIMADEC
 70
     2
  9
$DIMALTRND
 40
0.0
  9
$DIMAZIN
 70
     0
  9
$DIMDSEP
 70
    46
  9
$DIMATFIT
 70
     3
  9
$DIMFRAC
 70
     0
  9
$DIMLDRBLK
  1

  9
$DIMLUNIT
 70
     2
  9
$DIMLWD
 70
    -2
  9
$DIMLWE
 70
    -2
  9
$DIMTMOVE
 70
     0
  9
$LUNITS
 70
     2
  9
$LUPREC
 70
     6
  9
$SKETCHINC
 40
0.1
  9
$FILLETRAD
 40
0.0
  9
$AUNITS
 70
     0
  9
$AUPREC
 70
     2
  9
$MENU
  1
.
  9
$ELEVATION
 40
0.0
  9
$PELEVATION
 40
0.0
  9
$THICKNESS
 40
0.0
  9
$LIMCHECK
 70
     0
  9
$CHAMFERA
 40
0.0
  9
$CHAMFERB
 40
0.0
  9
$CHAMFERC
 40
0.0
  9
$CHAMFERD
 40
0.0
  9
$SKPOLY
 70
     0
  9
$TDCREATE
 40
2460387.041780602
  9
$TDUCREATE
 40
2460387.250113935
  9
$TDUPDATE
 40
2460387.041817801
  9
$TDUUPDATE
 40
2460387.250151134
  9
$TDINDWG
 40
0.0000000116
  9
$TDUSRTIMER
 40
0.0000000116
  9
$USRTIMER
 70
     1
  9
$ANGBASE
 50
0.0
  9
$ANGDIR
 70
     0
  9
$PDMODE
 70
     0
  9
$PDSIZE
 40
-1.0
  9
$PLINEWID
 40
0.0
  9
$SPLFRAME
 70
     0
  9
$SPLINETYPE
 70
     6
  9
$SPLINESEGS
 70
     8
  9
$HANDSEED
  5
3CF
  9
$SURFTAB1
 70
     6
  9
$SURFTAB2
 70
     6
  9
$SURFTYPE
 70
     6
  9
$SURFU
 70
     6
  9
$SURFV
 70
     6
  9
$UCSBASE
  2

  9
$UCSNAME
  2

  9
$UCSORG
 10
0.0
 20
0.0
 30
0.0
  9
$UCSXDIR
 10
1.0
 20
0.0
 30
0.0
  9
$UCSYDIR
 10
0.0
 20
1.0
 30
0.0
  9
$UCSORTHOREF
  2

  9
$UCSORTHOVIEW
 70
     0
  9
$UCSORGTOP
 10
0.0
 20
0.0
 30
0.0
  9
$UCSORGBOTTOM
 10
0.0
 20
0.0
 30
0.0
  9
$UCSORGLEFT
 10
0.0
 20
0.0
 30
0.0
  9
$UCSORGRIGHT
 10
0.0
 20
0.0
 30
0.0
  9
$UCSORGFRONT
 10
0.0
 20
0.0
 30
0.0
  9
$UCSORGBACK
 10
0.0
 20
0.0
 30
0.0
  9
$PUCSBASE
  2

  9
$PUCSNAME
  2

  9
$PUCSORG
 10
0.0
 20
0.0
 30
0.0
  9
$PUCSXDIR
 10
1.0
 20
0.0
 30
0.0
  9
$PUCSYDIR
 10
0.0
 20
1.0
 30
0.0
  9
$PUCSORTHOREF
  2

  9
$PUCSORTHOVIEW
 70
     0
  9
$PUCSORGTOP
 10
0.0
 20
0.0
 30
0.0
  9
$PUCSORGBOTTOM
 10
0.0
 20
0.0
 30
0.0
  9
$PUCSORGLEFT
 10
0.0
 20
0.0
 30
0.0
  9
$PUCSORGRIGHT
 10
0.0
 20
0.0
 30
0.0
  9
$PUCSORGFRONT
 10
0.0
 20
0.0
 30
0.0
  9
$PUCSORGBACK
 10
0.0
 20
0.0
 30
0.0
  9
$USERI1
 70
     0
  9
$USERI2
 70
     0
  9
$USERI3
 70
     0
  9
$USERI4
 70
     0
  9
$USERI5
 70
     0
  9
$USERR1
 40
0.0
  9
$USERR2
 40
0.0
  9
$USERR3
 40
0.0
  9
$USERR4
 40
0.0
  9
$USERR5
 40
0.0
  9
$WORLDVIEW
 70
     1
  9
$SHADEDGE
 70
     3
  9
$SHADEDIF
 70
    70
  9
$TILEMODE
 70
     1
  9
$MAXACTVP
 70
    64
  9
$PINSBASE
 10
0.0
 20
0.0
 30
0.0
  9
$PLIMCHECK
 70
     0
  9
$PEXTMIN
 10
1.0000000000E+20
 20
1.0000000000E+20
 30
1.0000000000E+20
  9
$PEXTMAX
 10
-1.0000000000E+20
 20
-1.0000000000E+20
 30
-1.0000000000E+20
  9
$PLIMMIN
 10
0.0
 20
0.0
  9
$PLIMMAX
 10
12.0
 20
9.0
  9
$UNITMODE
 70
     0
  9
$VISRETAIN
 70
     1
  9
$PLINEGEN
 70
     0
  9
$PSLTSCALE
 70
     1
  9
$TREEDEPTH
 70
  3020
  9
$CMLSTYLE
  2
Standard
  9
$CMLJUST
 70
     0
  9
$CMLSCALE
 40
1.0
  9
$PROXYGRAPHICS
 70
     1
  9
$MEASUREMENT
 70
     0
  9
$CELWEIGHT
370
    -1
  9
$ENDCAPS
280
     0
  9
$JOINSTYLE
280
     0
  9
$LWDISPLAY
290
     1
  9
$INSUNITS
 70
     1
  9
$HYPERLINKBASE
  1

  9
$STYLESHEET
  1

  9
$XEDIT
290
     1
  9
$CEPSNTYPE
380
     0
  9
$PSTYLEMODE
290
     1
  9
$FINGERPRINTGUID
  2
{7766c109-367d-423a-be7d-1118c8cf9f8a}
  9
$VERSIONGUID
  2
{FAEB1C32-E019-11D5-929B-00C0DF256EC4}
  9
$EXTNAMES
290
     1
  9
$PSVPSCALE
 40
0.0
  9
$OLESTARTUP
290
     0
  0
ENDSEC
  0
SECTION
  2
CLASSES
  0
CLASS
  1
ACDBDICTIONARYWDFLT
  2
AcDbDictionaryWithDefault
  3
ObjectDBX Classes
 90
        0
280
     0
281
     0
  0
CLASS
  1
VISUALSTYLE
  2
AcDbVisualStyle
  3
ObjectDBX Classes
 90
     4095
280
     0
281
     0
  0
CLASS
  1
MATERIAL
  2
AcDbMaterial
  3
ObjectDBX Classes
 90
     1153
280
     0
281
     0
  0
CLASS
  1
SCALE
  2
AcDbScale
  3
ObjectDBX Classes
 90
     1153
280
     0
281
     0
  0
CLASS
  1
TABLESTYLE
  2
AcDbTableStyle
  3
ObjectDBX Classes
 90
     4095
280
     0
281
     0
  0
CLASS
  1
MLEADERSTYLE
  2
AcDbMLeaderStyle
  3
ACDB_MLEADERSTYLE_CLASS
 90
     4095
280
     0
281
     0
  0
CLASS
  1
SUN
  2
AcDbSun
  3
SCENEOE
 90
     1153
280
     0
281
     0
  0
CLASS
  1
ACDBPLACEHOLDER
  2
AcDbPlaceHolder
  3
ObjectDBX Classes
 90
        0
280
     0
281
     0
  0
CLASS
  1
LAYOUT
  2
AcDbLayout
  3
ObjectDBX Classes
 90
        0
280
     0
281
     0
  0
ENDSEC
  0
SECTION
  2
TABLES
  0
TABLE
  2
VPORT
  5
8
330
0
100
AcDbSymbolTable
 70
     1
  0
VPORT
  5
29
330
8
100
AcDbSymbolTableRecord
100
AcDbViewportTableRecord
  2
*Active
 70
     0
 10
0.0
 20
0.0
 11
1.0
 21
1.0
 12
-0.0128009373
 22
-0.0688455292
 13
0.0
 23
0.0
 14
0.5
 24
0.5
 15
0.5
 25
0.5
 16
0.0
 26
0.0
 36
1.0
 17
0.0
 27
0.0
 37
0.0
 40
2.4242773113
 41
0.7163980732
 42
50.0
 43
0.0
 44
0.0
 50
0.0
 51
0.0
 71
     0
 72
   100
 73
     1
 74
     3
 75
     0
 76
     0
 77
     0
 78
     0
281
     0
 65
     1
110
0.0
120
0.0
130
0.0
111
1.0
121
0.0
131
0.0
112
0.0
122
1.0
132
0.0
 79
     0
146
0.0
  0
ENDTAB
  0
TABLE
  2
LTYPE
  5
5
330
0
100
AcDbSymbolTable
 70
     6
  0
LTYPE
  5
14
330
5
100
AcDbSymbolTableRecord
100
AcDbLinetypeTableRecord
  2
ByBlock
 70
     0
  3

 72
    65
 73
     0
 40
0.0
  0
LTYPE
  5
15
330
5
100
AcDbSymbolTableRecord
100
AcDbLinetypeTableRecord
  2
ByLayer
 70
     0
  3

 72
    65
 73
     0
 40
0.0
  0
LTYPE
  5
16
330
5
100
AcDbSymbolTableRecord
100
AcDbLinetypeTableRecord
  2
Continuous
 70
     0
  3
Solid line
 72
    65
 73
     0
 40
0.0
  0
LTYPE
  5
5E
330
5
100
AcDbSymbolTableRecord
100
AcDbLinetypeTableRecord
  2
HIDDEN
 70
     0
  3
Hidden __ __ __ __ __ __ __ __ __ __ __ __ __ __
 72
    65
 73
     2
 40
0.075
 49
0.05
 74
     0
 49
-0.025
 74
     0
  0
LTYPE
  5
5F
330
5
100
AcDbSymbolTableRecord
100
AcDbLinetypeTableRecord
  2
PHANTOM
 70
     0
  3
Phantom ______  __  __  ______  __  __  ______
 72
    65
 73
     6
 40
0.5
 49
0.25
 74
     0
 49
-0.05
 74
     0
 49
0.05
 74
     0
 49
-0.05
 74
     0
 49
0.05
 74
     0
 49
-0.05
 74
     0
  0
LTYPE
  5
60
330
5
100
AcDbSymbolTableRecord
100
AcDbLinetypeTableRecord
  2
CENTER
 70
     0
  3
Center ____ _ ____ _ ____ _ ____ _ ____ _ ____
 72
    65
 73
     4
 40
0.4
 49
0.25
 74
     0
 49
-0.05
 74
     0
 49
0.05
 74
     0
 49
-0.05
 74
     0
  0
LTYPE
  5
61
330
5
100
AcDbSymbolTableRecord
100
AcDbLinetypeTableRecord
  2
CENTERX2
 70
     0
  3
Center (2x) ________  __  ________  __  _____
 72
    65
 73
     4
 40
0.8
 49
0.5
 74
     0
 49
-0.1
 74
     0
 49
0.1
 74
     0
 49
-0.1
 74
     0
  0
LTYPE
  5
62
330
5
100
AcDbSymbolTableRecord
100
AcDbLinetypeTableRecord
  2
DOT2
 70
     0
  3
Dot (.5x) ........................................
 72
    65
 73
     2
 40
0.025
 49
0.0
 74
     0
 49
-0.025
 74
     0
  0
ENDTAB
  0
TABLE
  2
LAYER
  5
2
330
0
100
AcDbSymbolTable
 70
     1
  0
LAYER
  5
10
330
2
100
AcDbSymbolTableRecord
100
AcDbLayerTableRecord
  2
0
 70
     0
 62
     7
  6
Continuous
370
    -3
390
F
  0
ENDTAB
  0
TABLE
  2
STYLE
  5
3
330
0
100
AcDbSymbolTable
 70
     2
  0
STYLE
  5
11
330
3
100
AcDbSymbolTableRecord
100
AcDbTextStyleTableRecord
  2
Standard
 70
     0
 40
0.0
 41
1.0
 50
0.0
 71
     0
 42
0.1377952756
  3
txt
  4

  0
STYLE
  5
3CB
330
3
100
AcDbSymbolTableRecord
100
AcDbTextStyleTableRecord
  2
SLDTEXTSTYLE0
 70
     0
 40
0.0
 41
0.7
 50
0.0
 71
     0
 42
0.1377952756
  3
TXT
  4

  0
ENDTAB
  0
TABLE
  2
VIEW
  5
6
330
0
100
AcDbSymbolTable
 70
     0
  0
ENDTAB
  0
TABLE
  2
UCS
  5
7
330
0
100
AcDbSymbolTable
 70
     0
  0
ENDTAB
  0
TABLE
  2
APPID
  5
9
330
0
100
AcDbSymbolTable
 70
     1
  0
APPID
  5
12
330
9
100
AcDbSymbolTableRecord
100
AcDbRegAppTableRecord
  2
ACAD
 70
     0
  0
ENDTAB
  0
TABLE
  2
DIMSTYLE
  5
A
330
0
100
AcDbSymbolTable
 70
     1
100
AcDbDimStyleTable
  0
DIMSTYLE
105
27
330
A
100
AcDbSymbolTableRecord
100
AcDbDimStyleTableRecord
  2
Standard
 70
     0
178
     0
340
11
  0
ENDTAB
  0
TABLE
  2
BLOCK_RECORD
  5
1
330
0
100
AcDbSymbolTable
 70
     1
  0
BLOCK_RECORD
  5
1F
330
1
100
AcDbSymbolTableRecord
100
AcDbBlockTableRecord
  2
*Model_Space
340
22
  0
BLOCK_RECORD
  5
1B
330
1
100
AcDbSymbolTableRecord
100
AcDbBlockTableRecord
  2
*Paper_Space
340
1E
  0
BLOCK_RECORD
  5
23
330
1
100
AcDbSymbolTableRecord
100
AcDbBlockTableRecord
  2
*Paper_Space0
340
26
  0
ENDTAB
  0
ENDSEC
  0
SECTION
  2
BLOCKS
  0
BLOCK
  5
20
330
1F
100
AcDbEntity
  8
0
100
AcDbBlockBegin
  2
*Model_Space
 70
     0
 10
0.0
 20
0.0
 30
0.0
  3
*Model_Space
  1

  0
ENDBLK
  5
21
330
1F
100
AcDbEntity
  8
0
100
AcDbBlockEnd
  0
BLOCK
  5
1C
330
1B
100
AcDbEntity
 67
     1
  8
0
100
AcDbBlockBegin
  2
*Paper_Space
 70
     0
 10
0.0
 20
0.0
 30
0.0
  3
*Paper_Space
  1

  0
ENDBLK
  5
1D
330
1B
100
AcDbEntity
 67
     1
  8
0
100
AcDbBlockEnd
  0
BLOCK
  5
24
330
23
100
AcDbEntity
  8
0
100
AcDbBlockBegin
  2
*Paper_Space0
 70
     0
 10
0.0
 20
0.0
 30
0.0
  3
*Paper_Space0
  1

  0
ENDBLK
  5
25
330
23
100
AcDbEntity
  8
0
100
AcDbBlockEnd
  0
ENDSEC
  0
SECTION
  2
ENTITIES
  0
LINE
  5
63
330
1F
100
AcDbEntity
  8
0
  6
Continuous
 62
   254
370
    25
100
AcDbLine
 10
0.1240039419
 20
-0.6706132461
 30
0.0
 11
0.1232576958
 21
-0.8075497536
 31
0.0
  0
LINE
  5
64
330
1F
100
AcDbEntity
  8
0
  6
Continuous
 62
   254
370
    25
100
AcDbLine
 10
0.2079572919
 20
-0.6616582265
 30
0.0
 11
0.1240039419
 21
-0.6706132461
 31
0.0
  0
LINE
  5
65
330
1F
100
AcDbEntity
  8
0
  6
Continuous
 62
   254
370
    25
100
AcDbLine
 10
0.2620022014
 20
-0.6533212622
 30
0.0
 11
0.2079572919
 21
-0.6616582265
 31
0.0
  0
LINE
  5
66
330
1F
100
AcDbEntity
  8
0
  6
Continuous
 62
   254
370
    25
100
AcDbLine
 10
0.3151376913
 20
-0.6416960898
 30
0.0
 11
0.2620022014
 21
-0.6533212622
 31
0.0
  0
LINE
  5
67
330
1F
100
AcDbEntity
  8
0
  6
Continuous
 62
   254
370
    25
100
AcDbLine
 10
0.3667340585
 20
-0.6250336899
 30
0.0
 11
0.3151376913
 21
-0.6416960898
 31
0.0
  0
LINE
  5
68
330
1F
100
AcDbEntity
  8
0
  6
Continuous
 62
   254
370
    25
100
AcDbLine
 10
0.3917582913
 20
-0.6142669702
 30
0.0
 11
0.3667340585
 21
-0.6250336899
 31
0.0
  0
LINE
  5
69
330
1F
100
AcDbEntity
  8
0
  6
Continuous
 62
   254
370
    25
100
AcDbLine
 10
0.4161615999
 20
-0.6015850433
 30
0.0
 11
0.3917582913
 21
-0.6142669702
 31
0.0
  0
LINE
  5
6A
330
1F
100
AcDbEntity
  8
0
  6
Continuous
 62
   254
370
    25
100
AcDbLine
 10
0.4394018042
 20
-0.5871556836
 30
0.0
 11
0.4161615999
 21
-0.6015850433
 31
0.0
  0
LINE
  5
6B
330
1F
100
AcDbEntity
  8
0
  6
Continuous
 62
   254
370
    25
100
AcDbLine
 10
0.4608317495
 20
-0.571222131
 30
0.0
 11
0.4394018042
 21
-0.5871556836
 31
0.0
  0
LINE
  5
6C
330
1F
100
AcDbEntity
  8
0
  6
Continuous
 62
   254
370
    25
100
AcDbLine
 10
0.4802153485
 20
-0.5536794373
 30
0.0
 11
0.4608317495
 21
-0.571222131
 31
0.0
  0
LINE
  5
6D
330
1F
100
AcDbEntity
  8
0
  6
Continuous
 62
   254
370
    25
100
AcDbLine
 10
0.4973164476
 20
-0.5344226806
 30
0.0
 11
0.4802153485
 21
-0.5536794373
 31
0.0
  0
LINE
  5
6E
330
1F
100
AcDbEntity
  8
0
  6
Continuous
 62
   254
370
    25
100
AcDbLine
 10
0.5118989594
 20
-0.5133469259
 30
0.0
 11
0.4973164476
 21
-0.5344226806
 31
0.0
  0
LINE
  5
6F
330
1F
100
AcDbEntity
  8
0
  6
Continuous
 62
   254
370
    25
100
AcDbLine
 10
0.5237267569
 20
-0.4903472247
 30
0.0
 11
0.5118989594
 21
-0.5133469259
 31
0.0
  0
LINE
  5
70
330
1F
100
AcDbEntity
  8
0
  6
Continuous
 62
   254
370
    25
100
AcDbLine
 10
0.5325637129
 20
-0.4653186686
 30
0.0
 11
0.5237267569
 21
-0.4903472247
 31
0.0
  0
LINE
  5
71
330
1F
100
AcDbEntity
  8
0
  6
Continuous
 62
   254
370
    25
100
AcDbLine
 10
0.5381737137
 20
-0.438156296
 30
0.0
 11
0.5325637129
 21
-0.4653186686
 31
0.0
  0
LINE
  5
72
330
1F
100
AcDbEntity
  8
0
  6
Continuous
 62
   254
370
    25
100
AcDbLine
 10
0.5456828716
 20
-0.3559755251
 30
0.0
 11
0.5381737137
 21
-0.438156296
 31
0.0
  0
LINE
  5
73
330
1F
100
AcDbEntity
  8
0
  6
Continuous
 62
   254
370
    25
100
AcDbLine
 10
0.5478749795
 20
-0.2732348978
 30
0.0
 11
0.5456828716
 21
-0.3559755251
 31
0.0
  0
LINE
  5
74
330
1F
100
AcDbEntity
  8
0
  6
Continuous
 62
   254
370
    25
100
AcDbLine
 10
0.5470142924
 20
-0.2509670716
 30
0.0
 11
0.5478749795
 21
-0.2732348978
 31
0.0
  0
LINE
  5
75
330
1F
100
AcDbEntity
  8
0
  6
Continuous
 62
   254
370
    25
100
AcDbLine
 10
0.5439279821
 20
-0.2294862518
 30
0.0
 11
0.5470142924
 21
-0.2509670716
 31
0.0
  0
LINE
  5
76
330
1F
100
AcDbEntity
  8
0
  6
Continuous
 62
   254
370
    25
100
AcDbLine
 10
0.5386991163
 20
-0.2087749736
 30
0.0
 11
0.5439279821
 21
-0.2294862518
 31
0.0
  0
LINE
  5
77
330
1F
100
AcDbEntity
  8
0
  6
Continuous
 62
   254
370
    25
100
AcDbLine
 10
0.5314107756
 20
-0.1888157191
 30
0.0
 11
0.5386991163
 21
-0.2087749736
 31
0.0
  0
LINE
  5
78
330
1F
100
AcDbEntity
  8
0
  6
Continuous
 62
   254
370
    25
100
AcDbLine
 10
0.5221460409
 20
-0.1695910498
 30
0.0
 11
0.5314107756
 21
-0.1888157191
 31
0.0
  0
LINE
  5
79
330
1F
100
AcDbEntity
  8
0
  6
Continuous
 62
   254
370
    25
100
AcDbLine
 10
0.5109879796
 20
-0.1510834478
 30
0.0
 11
0.5221460409
 21
-0.1695910498
 31
0.0
  0
LINE
  5
7A
330
1F
100
AcDbEntity
  8
0
  6
Continuous
 62
   254
370
    25
100
AcDbLine
 10
0.4833242402
 20
-0.1161495863
 30
0.0
 11
0.5109879796
 21
-0.1510834478
 31
0.0
  0
LINE
  5
7B
330
1F
100
AcDbEntity
  8
0
  6
Continuous
 62
   254
370
    25
100
AcDbLine
 10
0.4607689498
 20
-0.0938451247
 30
0.0
 11
0.4833242402
 21
-0.1161495863
 31
0.0
  0
LINE
  5
7C
330
1F
100
AcDbEntity
  8
0
  6
Continuous
 62
   254
370
    25
100
AcDbLine
 10
0.4368582292
 20
-0.073788167
 30
0.0
 11
0.4607689498
 21
-0.0938451247
 31
0.0
  0
LINE
  5
7D
330
1F
100
AcDbEntity
  8
0
  6
Continuous
 62
   254
370
    25
100
AcDbLine
 10
0.4117407355
 20
-0.0557425861
 30
0.0
 11
0.4368582292
 21
-0.073788167
 31
0.0
  0
LINE
  5
7E
330
1F
100
AcDbEntity
  8
0
  6
Continuous
 62
   254
370
    25
100
AcDbLine
 10
0.3855651254
 20
-0.0394722682
 30
0.0
 11
0.4117407355
 21
-0.0557425861
 31
0.0
  0
LINE
  5
7F
330
1F
100
AcDbEntity
  8
0
  6
Continuous
 62
   254
370
    25
100
AcDbLine
 10
0.3306341312
 20
-0.0113129396
 30
0.0
 11
0.3855651254
 21
-0.0394722682
 31
0.0
  0
LINE
  5
80
330
1F
100
AcDbEntity
  8
0
  6
Continuous
 62
   254
370
    25
100
AcDbLine
 10
0.2732544491
 20
0.0125787956
 30
0.0
 11
0.3306341312
 21
-0.0113129396
 31
0.0
  0
LINE
  5
81
330
1F
100
AcDbEntity
  8
0
  6
Continuous
 62
   254
370
    25
100
AcDbLine
 10
0.14434018
 20
0.0594526876
 30
0.0
 11
0.2732544491
 21
0.0125787956
 31
0.0
  0
LINE
  5
82
330
1F
100
AcDbEntity
  8
0
  6
Continuous
 62
   254
370
    25
100
AcDbLine
 10
0.0154251176
 20
0.1066064153
 30
0.0
 11
0.14434018
 21
0.0594526876
 31
0.0
  0
LINE
  5
83
330
1F
100
AcDbEntity
  8
0
  6
Continuous
 62
   254
370
    25
100
AcDbLine
 10
-0.0199890099
 20
0.1215116121
 30
0.0
 11
0.0154251176
 21
0.1066064153
 31
0.0
  0
LINE
  5
84
330
1F
100
AcDbEntity
  8
0
  6
Continuous
 62
   254
370
    25
100
AcDbLine
 10
-0.0485600801
 20
0.1367885173
 30
0.0
 11
-0.0199890099
 21
0.1215116121
 31
0.0
  0
LINE
  5
85
330
1F
100
AcDbEntity
  8
0
  6
Continuous
 62
   254
370
    25
100
AcDbLine
 10
-0.0708958755
 20
0.1531935704
 30
0.0
 11
-0.0485600801
 21
0.1367885173
 31
0.0
  0
LINE
  5
86
330
1F
100
AcDbEntity
  8
0
  6
Continuous
 62
   254
370
    25
100
AcDbLine
 10
-0.0876041919
 20
0.1714832373
 30
0.0
 11
-0.0708958755
 21
0.1531935704
 31
0.0
  0
LINE
  5
87
330
1F
100
AcDbEntity
  8
0
  6
Continuous
 62
   254
370
    25
100
AcDbLine
 10
-0.0992927854
 20
0.1924139445
 30
0.0
 11
-0.0876041919
 21
0.1714832373
 31
0.0
  0
LINE
  5
88
330
1F
100
AcDbEntity
  8
0
  6
Continuous
 62
   254
370
    25
100
AcDbLine
 10
-0.1065694784
 20
0.216742171
 30
0.0
 11
-0.0992927854
 21
0.1924139445
 31
0.0
  0
LINE
  5
89
330
1F
100
AcDbEntity
  8
0
  6
Continuous
 62
   254
370
    25
100
AcDbLine
 10
-0.110042027
 20
0.2452243432
 30
0.0
 11
-0.1065694784
 21
0.216742171
 31
0.0
  0
LINE
  5
8A
330
1F
100
AcDbEntity
  8
0
  6
Continuous
 62
   254
370
    25
100
AcDbLine
 10
-0.1103182269
 20
0.2808556653
 30
0.0
 11
-0.110042027
 21
0.2452243432
 31
0.0
  0
LINE
  5
8B
330
1F
100
AcDbEntity
  8
0
  6
Continuous
 62
   254
370
    25
100
AcDbLine
 10
-0.1081027971
 20
0.2976521394
 30
0.0
 11
-0.1103182269
 21
0.2808556653
 31
0.0
  0
LINE
  5
8C
330
1F
100
AcDbEntity
  8
0
  6
Continuous
 62
   254
370
    25
100
AcDbLine
 10
-0.101549782
 20
0.3116851732
 30
0.0
 11
-0.1081027971
 21
0.2976521394
 31
0.0
  0
LINE
  5
8D
330
1F
100
AcDbEntity
  8
0
  6
Continuous
 62
   254
370
    25
100
AcDbLine
 10
-0.0907990994
 20
0.3221501896
 30
0.0
 11
-0.101549782
 21
0.3116851732
 31
0.0
  0
LINE
  5
8E
330
1F
100
AcDbEntity
  8
0
  6
Continuous
 62
   254
370
    25
100
AcDbLine
 10
-0.0759906936
 20
0.328242638
 30
0.0
 11
-0.0907990994
 21
0.3221501896
 31
0.0
  0
LINE
  5
8F
330
1F
100
AcDbEntity
  8
0
  6
Continuous
 62
   254
370
    25
100
AcDbLine
 10
-0.0322883079
 20
0.3352853853
 30
0.0
 11
-0.0759906936
 21
0.328242638
 31
0.0
  0
LINE
  5
90
330
1F
100
AcDbEntity
  8
0
  6
Continuous
 62
   254
370
    25
100
AcDbLine
 10
-0.0101398012
 20
0.3364805505
 30
0.0
 11
-0.0322883079
 21
0.3352853853
 31
0.0
  0
LINE
  5
91
330
1F
100
AcDbEntity
  8
0
  6
Continuous
 62
   254
370
    25
100
AcDbLine
 10
0.011693887
 20
0.335332029
 30
0.0
 11
-0.0101398012
 21
0.3364805505
 31
0.0
  0
LINE
  5
92
330
1F
100
AcDbEntity
  8
0
  6
Continuous
 62
   254
370
    25
100
AcDbLine
 10
0.0277623599
 20
0.3325561743
 30
0.0
 11
0.011693887
 21
0.335332029
 31
0.0
  0
LINE
  5
93
330
1F
100
AcDbEntity
  8
0
  6
Continuous
 62
   254
370
    25
100
AcDbLine
 10
0.041106725
 20
0.3280968897
 30
0.0
 11
0.0277623599
 21
0.3325561743
 31
0.0
  0
LINE
  5
94
330
1F
100
AcDbEntity
  8
0
  6
Continuous
 62
   254
370
    25
100
AcDbLine
 10
0.051906246
 20
0.3218798466
 30
0.0
 11
0.041106725
 21
0.3280968897
 31
0.0
  0
LINE
  5
95
330
1F
100
AcDbEntity
  8
0
  6
Continuous
 62
   254
370
    25
100
AcDbLine
 10
0.0603401995
 20
0.3138306771
 30
0.0
 11
0.051906246
 21
0.3218798466
 31
0.0
  0
LINE
  5
96
330
1F
100
AcDbEntity
  8
0
  6
Continuous
 62
   254
370
    25
100
AcDbLine
 10
0.0665878624
 20
0.303875079
 30
0.0
 11
0.0603401995
 21
0.3138306771
 31
0.0
  0
LINE
  5
97
330
1F
100
AcDbEntity
  8
0
  6
Continuous
 62
   254
370
    25
100
AcDbLine
 10
0.0708285246
 20
0.2919387107
 30
0.0
 11
0.0665878624
 21
0.303875079
 31
0.0
  0
LINE
  5
98
330
1F
100
AcDbEntity
  8
0
  6
Continuous
 62
   254
370
    25
100
AcDbLine
 10
0.0740059143
 20
0.2618263099
 30
0.0
 11
0.0708285246
 21
0.2919387107
 31
0.0
  0
LINE
  5
99
330
1F
100
AcDbEntity
  8
0
  6
Continuous
 62
   254
370
    25
100
AcDbLine
 10
0.0740059143
 20
0.1588435779
 30
0.0
 11
0.0740059143
 21
0.2618263099
 31
0.0
  0
LINE
  5
9A
330
1F
100
AcDbEntity
  8
0
  6
Continuous
 62
   254
370
    25
100
AcDbLine
 10
0.5180252667
 20
0.1588435779
 30
0.0
 11
0.0740059143
 21
0.1588435779
 31
0.0
  0
LINE
  5
9B
330
1F
100
AcDbEntity
  8
0
  6
Continuous
 62
   254
370
    25
100
AcDbLine
 10
0.5186374519
 20
0.208824947
 30
0.0
 11
0.5180252667
 21
0.1588435779
 31
0.0
  0
LINE
  5
9C
330
1F
100
AcDbEntity
  8
0
  6
Continuous
 62
   254
370
    25
100
AcDbLine
 10
0.5139675832
 20
0.2573021498
 30
0.0
 11
0.5186374519
 21
0.208824947
 31
0.0
  0
LINE
  5
9D
330
1F
100
AcDbEntity
  8
0
  6
Continuous
 62
   254
370
    25
100
AcDbLine
 10
0.5089631967
 20
0.2809001672
 30
0.0
 11
0.5139675832
 21
0.2573021498
 31
0.0
  0
LINE
  5
9E
330
1F
100
AcDbEntity
  8
0
  6
Continuous
 62
   254
370
    25
100
AcDbLine
 10
0.5018118652
 20
0.3040303067
 30
0.0
 11
0.5089631967
 21
0.2809001672
 31
0.0
  0
LINE
  5
9F
330
1F
100
AcDbEntity
  8
0
  6
Continuous
 62
   254
370
    25
100
AcDbLine
 10
0.4922381293
 20
0.3266619749
 30
0.0
 11
0.5018118652
 21
0.3040303067
 31
0.0
  0
LINE
  5
A0
330
1F
100
AcDbEntity
  8
0
  6
Continuous
 62
   254
370
    25
100
AcDbLine
 10
0.4799665028
 20
0.348764565
 30
0.0
 11
0.4922381293
 21
0.3266619749
 31
0.0
  0
LINE
  5
A1
330
1F
100
AcDbEntity
  8
0
  6
Continuous
 62
   254
370
    25
100
AcDbLine
 10
0.4638047558
 20
0.3712840133
 30
0.0
 11
0.4799665028
 21
0.348764565
 31
0.0
  0
LINE
  5
A2
330
1F
100
AcDbEntity
  8
0
  6
Continuous
 62
   254
370
    25
100
AcDbLine
 10
0.4456797035
 20
0.3908869751
 30
0.0
 11
0.4638047558
 21
0.3712840133
 31
0.0
  0
LINE
  5
A3
330
1F
100
AcDbEntity
  8
0
  6
Continuous
 62
   254
370
    25
100
AcDbLine
 10
0.4257968664
 20
0.4078401444
 30
0.0
 11
0.4456797035
 21
0.3908869751
 31
0.0
  0
LINE
  5
A4
330
1F
100
AcDbEntity
  8
0
  6
Continuous
 62
   254
370
    25
100
AcDbLine
 10
0.4043617648
 20
0.4224102814
 30
0.0
 11
0.4257968664
 21
0.4078401444
 31
0.0
  0
LINE
  5
A5
330
1F
100
AcDbEntity
  8
0
  6
Continuous
 62
   254
370
    25
100
AcDbLine
 10
0.3815799194
 20
0.43486408
 30
0.0
 11
0.4043617648
 21
0.4224102814
 31
0.0
  0
LINE
  5
A6
330
1F
100
AcDbEntity
  8
0
  6
Continuous
 62
   254
370
    25
100
AcDbLine
 10
0.3576568372
 20
0.4454682739
 30
0.0
 11
0.3815799194
 21
0.43486408
 31
0.0
  0
LINE
  5
A7
330
1F
100
AcDbEntity
  8
0
  6
Continuous
 62
   254
370
    25
100
AcDbLine
 10
0.3072090179
 20
0.4621947956
 30
0.0
 11
0.3576568372
 21
0.4454682739
 31
0.0
  0
LINE
  5
A8
330
1F
100
AcDbEntity
  8
0
  6
Continuous
 62
   254
370
    25
100
AcDbLine
 10
0.2169594708
 20
0.4833230774
 30
0.0
 11
0.3072090179
 21
0.4621947956
 31
0.0
  0
LINE
  5
A9
330
1F
100
AcDbEntity
  8
0
  6
Continuous
 62
   254
370
    25
100
AcDbLine
 10
0.1236314666
 20
0.5024924036
 30
0.0
 11
0.2169594708
 21
0.4833230774
 31
0.0
  0
LINE
  5
AA
330
1F
100
AcDbEntity
  8
0
  6
Continuous
 62
   254
370
    25
100
AcDbLine
 10
0.1236314666
 20
0.6080869441
 30
0.0
 11
0.1236314666
 21
0.5024924036
 31
0.0
  0
LINE
  5
AB
330
1F
100
AcDbEntity
  8
0
  6
Continuous
 62
   254
370
    25
100
AcDbLine
 10
-0.1103180947
 20
0.6080869441
 30
0.0
 11
0.1236314666
 21
0.6080869441
 31
0.0
  0
LINE
  5
AC
330
1F
100
AcDbEntity
  8
0
  6
Continuous
 62
   254
370
    25
100
AcDbLine
 10
-0.1103180947
 20
0.498761173
 30
0.0
 11
-0.1103180947
 21
0.6080869441
 31
0.0
  0
LINE
  5
AD
330
1F
100
AcDbEntity
  8
0
  6
Continuous
 62
   254
370
    25
100
AcDbLine
 10
-0.1606901047
 20
0.4931642874
 30
0.0
 11
-0.1103180947
 21
0.498761173
 31
0.0
  0
LINE
  5
AE
330
1F
100
AcDbEntity
  8
0
  6
Continuous
 62
   254
370
    25
100
AcDbLine
 10
-0.2307502593
 20
0.481923846
 30
0.0
 11
-0.1606901047
 21
0.4931642874
 31
0.0
  0
LINE
  5
AF
330
1F
100
AcDbEntity
  8
0
  6
Continuous
 62
   254
370
    25
100
AcDbLine
 10
-0.299446073
 20
0.466205928
 30
0.0
 11
-0.2307502593
 21
0.481923846
 31
0.0
  0
LINE
  5
B0
330
1F
100
AcDbEntity
  8
0
  6
Continuous
 62
   254
370
    25
100
AcDbLine
 10
-0.333074678
 20
0.4559245645
 30
0.0
 11
-0.299446073
 21
0.466205928
 31
0.0
  0
LINE
  5
B1
330
1F
100
AcDbEntity
  8
0
  6
Continuous
 62
   254
370
    25
100
AcDbLine
 10
-0.3661129919
 20
0.4436318241
 30
0.0
 11
-0.333074678
 21
0.4559245645
 31
0.0
  0
LINE
  5
B2
330
1F
100
AcDbEntity
  8
0
  6
Continuous
 62
   254
370
    25
100
AcDbLine
 10
-0.398477947
 20
0.4290303666
 30
0.0
 11
-0.3661129919
 21
0.4436318241
 31
0.0
  0
LINE
  5
B3
330
1F
100
AcDbEntity
  8
0
  6
Continuous
 62
   254
370
    25
100
AcDbLine
 10
-0.4300864891
 20
0.4118228781
 30
0.0
 11
-0.398477947
 21
0.4290303666
 31
0.0
  0
LINE
  5
B4
330
1F
100
AcDbEntity
  8
0
  6
Continuous
 62
   254
370
    25
100
AcDbLine
 10
-0.4641801428
 20
0.3881772518
 30
0.0
 11
-0.4300864891
 21
0.4118228781
 31
0.0
  0
LINE
  5
B5
330
1F
100
AcDbEntity
  8
0
  6
Continuous
 62
   254
370
    25
100
AcDbLine
 10
-0.4933021849
 20
0.3609025007
 30
0.0
 11
-0.4641801428
 21
0.3881772518
 31
0.0
  0
LINE
  5
B6
330
1F
100
AcDbEntity
  8
0
  6
Continuous
 62
   254
370
    25
100
AcDbLine
 10
-0.5172733255
 20
0.3304271041
 30
0.0
 11
-0.4933021849
 21
0.3609025007
 31
0.0
  0
LINE
  5
B7
330
1F
100
AcDbEntity
  8
0
  6
Continuous
 62
   254
370
    25
100
AcDbLine
 10
-0.5359143141
 20
0.2971795547
 30
0.0
 11
-0.5172733255
 21
0.3304271041
 31
0.0
  0
LINE
  5
B8
330
1F
100
AcDbEntity
  8
0
  6
Continuous
 62
   254
370
    25
100
AcDbLine
 10
-0.5490458608
 20
0.2615883451
 30
0.0
 11
-0.5359143141
 21
0.2971795547
 31
0.0
  0
LINE
  5
B9
330
1F
100
AcDbEntity
  8
0
  6
Continuous
 62
   254
370
    25
100
AcDbLine
 10
-0.5564886888
 20
0.2240819546
 30
0.0
 11
-0.5490458608
 21
0.2615883451
 31
0.0
  0
LINE
  5
BA
330
1F
100
AcDbEntity
  8
0
  6
Continuous
 62
   254
370
    25
100
AcDbLine
 10
-0.5580635347
 20
0.1850888891
 30
0.0
 11
-0.5564886888
 21
0.2240819546
 31
0.0
  0
LINE
  5
BB
330
1F
100
AcDbEntity
  8
0
  6
Continuous
 62
   254
370
    25
100
AcDbLine
 10
-0.5535911216
 20
0.1450376412
 30
0.0
 11
-0.5580635347
 21
0.1850888891
 31
0.0
  0
LINE
  5
BC
330
1F
100
AcDbEntity
  8
0
  6
Continuous
 62
   254
370
    25
100
AcDbLine
 10
-0.5465964854
 20
0.1164681708
 30
0.0
 11
-0.5535911216
 21
0.1450376412
 31
0.0
  0
LINE
  5
BD
330
1F
100
AcDbEntity
  8
0
  6
Continuous
 62
   254
370
    25
100
AcDbLine
 10
-0.5366722343
 20
0.0899843792
 30
0.0
 11
-0.5465964854
 21
0.1164681708
 31
0.0
  0
LINE
  5
BE
330
1F
100
AcDbEntity
  8
0
  6
Continuous
 62
   254
370
    25
100
AcDbLine
 10
-0.5240369775
 20
0.0654332202
 30
0.0
 11
-0.5366722343
 21
0.0899843792
 31
0.0
  0
LINE
  5
BF
330
1F
100
AcDbEntity
  8
0
  6
Continuous
 62
   254
370
    25
100
AcDbLine
 10
-0.5089093507
 20
0.0426616739
 30
0.0
 11
-0.5240369775
 21
0.0654332202
 31
0.0
  0
LINE
  5
C0
330
1F
100
AcDbEntity
  8
0
  6
Continuous
 62
   254
370
    25
100
AcDbLine
 10
-0.4915079762
 20
0.021516694
 30
0.0
 11
-0.5089093507
 21
0.0426616739
 31
0.0
  0
LINE
  5
C1
330
1F
100
AcDbEntity
  8
0
  6
Continuous
 62
   254
370
    25
100
AcDbLine
 10
-0.4720515031
 20
0.0018452474
 30
0.0
 11
-0.4915079762
 21
0.021516694
 31
0.0
  0
LINE
  5
C2
330
1F
100
AcDbEntity
  8
0
  6
Continuous
 62
   254
370
    25
100
AcDbLine
 10
-0.450758567
 20
-0.0165056725
 30
0.0
 11
-0.4720515031
 21
0.0018452474
 31
0.0
  0
LINE
  5
C3
330
1F
100
AcDbEntity
  8
0
  6
Continuous
 62
   254
370
    25
100
AcDbLine
 10
-0.4278477771
 20
-0.0336891252
 30
0.0
 11
-0.450758567
 21
-0.0165056725
 31
0.0
  0
LINE
  5
C4
330
1F
100
AcDbEntity
  8
0
  6
Continuous
 62
   254
370
    25
100
AcDbLine
 10
-0.4000955231
 20
-0.0519824808
 30
0.0
 11
-0.4278477771
 21
-0.0336891252
 31
0.0
  0
LINE
  5
C5
330
1F
100
AcDbEntity
  8
0
  6
Continuous
 62
   254
370
    25
100
AcDbLine
 10
-0.3714994785
 20
-0.0684480993
 30
0.0
 11
-0.4000955231
 21
-0.0519824808
 31
0.0
  0
LINE
  5
C6
330
1F
100
AcDbEntity
  8
0
  6
Continuous
 62
   254
370
    25
100
AcDbLine
 10
-0.3123181179
 20
-0.0971204556
 30
0.0
 11
-0.3714994785
 21
-0.0684480993
 31
0.0
  0
LINE
  5
C7
330
1F
100
AcDbEntity
  8
0
  6
Continuous
 62
   254
370
    25
100
AcDbLine
 10
-0.2513879098
 20
-0.1221548686
 30
0.0
 11
-0.3123181179
 21
-0.0971204556
 31
0.0
  0
LINE
  5
C8
330
1F
100
AcDbEntity
  8
0
  6
Continuous
 62
   254
370
    25
100
AcDbLine
 10
-0.1897930953
 20
-0.1459999337
 30
0.0
 11
-0.2513879098
 21
-0.1221548686
 31
0.0
  0
LINE
  5
C9
330
1F
100
AcDbEntity
  8
0
  6
Continuous
 62
   254
370
    25
100
AcDbLine
 10
-0.0912413948
 20
-0.1844318735
 30
0.0
 11
-0.1897930953
 21
-0.1459999337
 31
0.0
  0
LINE
  5
CA
330
1F
100
AcDbEntity
  8
0
  6
Continuous
 62
   254
370
    25
100
AcDbLine
 10
-0.0434521864
 20
-0.2067611244
 30
0.0
 11
-0.0912413948
 21
-0.1844318735
 31
0.0
  0
LINE
  5
CB
330
1F
100
AcDbEntity
  8
0
  6
Continuous
 62
   254
370
    25
100
AcDbLine
 10
0.0019933749
 20
-0.2340576109
 30
0.0
 11
-0.0434521864
 21
-0.2067611244
 31
0.0
  0
LINE
  5
CC
330
1F
100
AcDbEntity
  8
0
  6
Continuous
 62
   254
370
    25
100
AcDbLine
 10
0.0323447849
 20
-0.259331086
 30
0.0
 11
0.0019933749
 21
-0.2340576109
 31
0.0
  0
LINE
  5
CD
330
1F
100
AcDbEntity
  8
0
  6
Continuous
 62
   254
370
    25
100
AcDbLine
 10
0.0447701584
 20
-0.2734697821
 30
0.0
 11
0.0323447849
 21
-0.259331086
 31
0.0
  0
LINE
  5
CE
330
1F
100
AcDbEntity
  8
0
  6
Continuous
 62
   254
370
    25
100
AcDbLine
 10
0.0550704544
 20
-0.2887672062
 30
0.0
 11
0.0447701584
 21
-0.2734697821
 31
0.0
  0
LINE
  5
CF
330
1F
100
AcDbEntity
  8
0
  6
Continuous
 62
   254
370
    25
100
AcDbLine
 10
0.0630270637
 20
-0.305341422
 30
0.0
 11
0.0550704544
 21
-0.2887672062
 31
0.0
  0
LINE
  5
D0
330
1F
100
AcDbEntity
  8
0
  6
Continuous
 62
   254
370
    25
100
AcDbLine
 10
0.0684213507
 20
-0.3233104798
 30
0.0
 11
0.0630270637
 21
-0.305341422
 31
0.0
  0
LINE
  5
D1
330
1F
100
AcDbEntity
  8
0
  6
Continuous
 62
   254
370
    25
100
AcDbLine
 10
0.0710346929
 20
-0.3427924562
 30
0.0
 11
0.0684213507
 21
-0.3233104798
 31
0.0
  0
LINE
  5
D2
330
1F
100
AcDbEntity
  8
0
  6
Continuous
 62
   254
370
    25
100
AcDbLine
 10
0.0706484414
 20
-0.3639054148
 30
0.0
 11
0.0710346929
 21
-0.3427924562
 31
0.0
  0
LINE
  5
D3
330
1F
100
AcDbEntity
  8
0
  6
Continuous
 62
   254
370
    25
100
AcDbLine
 10
0.0696223463
 20
-0.3956210205
 30
0.0
 11
0.0706484414
 21
-0.3639054148
 31
0.0
  0
LINE
  5
D4
330
1F
100
AcDbEntity
  8
0
  6
Continuous
 62
   254
370
    25
100
AcDbLine
 10
0.0702753183
 20
-0.427336732
 30
0.0
 11
0.0696223463
 21
-0.3956210205
 31
0.0
  0
LINE
  5
D5
330
1F
100
AcDbEntity
  8
0
  6
Continuous
 62
   254
370
    25
100
AcDbLine
 10
0.0687187174
 20
-0.4428680885
 30
0.0
 11
0.0702753183
 21
-0.427336732
 31
0.0
  0
LINE
  5
D6
330
1F
100
AcDbEntity
  8
0
  6
Continuous
 62
   254
370
    25
100
AcDbLine
 10
0.0631393232
 20
-0.4558808578
 30
0.0
 11
0.0687187174
 21
-0.4428680885
 31
0.0
  0
LINE
  5
D7
330
1F
100
AcDbEntity
  8
0
  6
Continuous
 62
   254
370
    25
100
AcDbLine
 10
0.0538519673
 20
-0.4663750397
 30
0.0
 11
0.0631393232
 21
-0.4558808578
 31
0.0
  0
LINE
  5
D8
330
1F
100
AcDbEntity
  8
0
  6
Continuous
 62
   254
370
    25
100
AcDbLine
 10
0.0411715344
 20
-0.474350608
 30
0.0
 11
0.0538519673
 21
-0.4663750397
 31
0.0
  0
LINE
  5
D9
330
1F
100
AcDbEntity
  8
0
  6
Continuous
 62
   254
370
    25
100
AcDbLine
 10
0.0212093316
 20
-0.482092971
 30
0.0
 11
0.0411715344
 21
-0.474350608
 31
0.0
  0
LINE
  5
DA
330
1F
100
AcDbEntity
  8
0
  6
Continuous
 62
   254
370
    25
100
AcDbLine
 10
0.0001277331
 20
-0.4870368847
 30
0.0
 11
0.0212093316
 21
-0.482092971
 31
0.0
  0
LINE
  5
DB
330
1F
100
AcDbEntity
  8
0
  6
Continuous
 62
   254
370
    25
100
AcDbLine
 10
-0.0267985653
 20
-0.4899001963
 30
0.0
 11
0.0001277331
 21
-0.4870368847
 31
0.0
  0
LINE
  5
DC
330
1F
100
AcDbEntity
  8
0
  6
Continuous
 62
   254
370
    25
100
AcDbLine
 10
-0.0499644412
 20
-0.4886751649
 30
0.0
 11
-0.0267985653
 21
-0.4899001963
 31
0.0
  0
LINE
  5
DD
330
1F
100
AcDbEntity
  8
0
  6
Continuous
 62
   254
370
    25
100
AcDbLine
 10
-0.0694223686
 20
-0.4833311573
 30
0.0
 11
-0.0499644412
 21
-0.4886751649
 31
0.0
  0
LINE
  5
DE
330
1F
100
AcDbEntity
  8
0
  6
Continuous
 62
   254
370
    25
100
AcDbLine
 10
-0.0852248217
 20
-0.4738375803
 30
0.0
 11
-0.0694223686
 21
-0.4833311573
 31
0.0
  0
LINE
  5
DF
330
1F
100
AcDbEntity
  8
0
  6
Continuous
 62
   254
370
    25
100
AcDbLine
 10
-0.097424288
 20
-0.4601638404
 30
0.0
 11
-0.0852248217
 21
-0.4738375803
 31
0.0
  0
LINE
  5
E0
330
1F
100
AcDbEntity
  8
0
  6
Continuous
 62
   254
370
    25
100
AcDbLine
 10
-0.106073215
 20
-0.4422793045
 30
0.0
 11
-0.097424288
 21
-0.4601638404
 31
0.0
  0
LINE
  5
E1
330
1F
100
AcDbEntity
  8
0
  6
Continuous
 62
   254
370
    25
100
AcDbLine
 10
-0.1112241033
 20
-0.4201533793
 30
0.0
 11
-0.106073215
 21
-0.4422793045
 31
0.0
  0
LINE
  5
E2
330
1F
100
AcDbEntity
  8
0
  6
Continuous
 62
   254
370
    25
100
AcDbLine
 10
-0.1129294008
 20
-0.3937554581
 30
0.0
 11
-0.1112241033
 21
-0.4201533793
 31
0.0
  0
LINE
  5
E3
330
1F
100
AcDbEntity
  8
0
  6
Continuous
 62
   254
370
    25
100
AcDbLine
 10
-0.1129294008
 20
-0.254206481
 30
0.0
 11
-0.1129294008
 21
-0.3937554581
 31
0.0
  0
LINE
  5
E4
330
1F
100
AcDbEntity
  8
0
  6
Continuous
 62
   254
370
    25
100
AcDbLine
 10
-0.1233769259
 20
-0.2519677294
 30
0.0
 11
-0.1129294008
 21
-0.254206481
 31
0.0
  0
LINE
  5
E5
330
1F
100
AcDbEntity
  8
0
  6
Continuous
 62
   254
370
    25
100
AcDbLine
 10
-0.5401583741
 20
-0.2515946063
 30
0.0
 11
-0.1233769259
 21
-0.2519677294
 31
0.0
  0
LINE
  5
E6
330
1F
100
AcDbEntity
  8
0
  6
Continuous
 62
   254
370
    25
100
AcDbLine
 10
-0.5486702786
 20
-0.2527256497
 30
0.0
 11
-0.5401583741
 21
-0.2515946063
 31
0.0
  0
LINE
  5
E7
330
1F
100
AcDbEntity
  8
0
  6
Continuous
 62
   254
370
    25
100
AcDbLine
 10
-0.5542438292
 20
-0.2561653969
 30
0.0
 11
-0.5486702786
 21
-0.2527256497
 31
0.0
  0
LINE
  5
E8
330
1F
100
AcDbEntity
  8
0
  6
Continuous
 62
   254
370
    25
100
AcDbLine
 10
-0.5571588746
 20
-0.2619838268
 30
0.0
 11
-0.5542438292
 21
-0.2561653969
 31
0.0
  0
LINE
  5
E9
330
1F
100
AcDbEntity
  8
0
  6
Continuous
 62
   254
370
    25
100
AcDbLine
 10
-0.5576952373
 20
-0.2702508917
 30
0.0
 11
-0.5571588746
 21
-0.2619838268
 31
0.0
  0
LINE
  5
EA
330
1F
100
AcDbEntity
  8
0
  6
Continuous
 62
   254
370
    25
100
AcDbLine
 10
-0.555409842
 20
-0.3432907557
 30
0.0
 11
-0.5576952373
 21
-0.2702508917
 31
0.0
  0
LINE
  5
EB
330
1F
100
AcDbEntity
  8
0
  6
Continuous
 62
   254
370
    25
100
AcDbLine
 10
-0.5534451089
 20
-0.3797055411
 30
0.0
 11
-0.555409842
 21
-0.3432907557
 31
0.0
  0
LINE
  5
EC
330
1F
100
AcDbEntity
  8
0
  6
Continuous
 62
   254
370
    25
100
AcDbLine
 10
-0.5494864771
 20
-0.4157704724
 30
0.0
 11
-0.5534451089
 21
-0.3797055411
 31
0.0
  0
LINE
  5
ED
330
1F
100
AcDbEntity
  8
0
  6
Continuous
 62
   254
370
    25
100
AcDbLine
 10
-0.5436935505
 20
-0.4445159275
 30
0.0
 11
-0.5494864771
 21
-0.4157704724
 31
0.0
  0
LINE
  5
EE
330
1F
100
AcDbEntity
  8
0
  6
Continuous
 62
   254
370
    25
100
AcDbLine
 10
-0.5352552208
 20
-0.4716697197
 30
0.0
 11
-0.5436935505
 21
-0.4445159275
 31
0.0
  0
LINE
  5
EF
330
1F
100
AcDbEntity
  8
0
  6
Continuous
 62
   254
370
    25
100
AcDbLine
 10
-0.5241496204
 20
-0.497179388
 30
0.0
 11
-0.5352552208
 21
-0.4716697197
 31
0.0
  0
LINE
  5
F0
330
1F
100
AcDbEntity
  8
0
  6
Continuous
 62
   254
370
    25
100
AcDbLine
 10
-0.5103548952
 20
-0.5209924583
 30
0.0
 11
-0.5241496204
 21
-0.497179388
 31
0.0
  0
LINE
  5
F1
330
1F
100
AcDbEntity
  8
0
  6
Continuous
 62
   254
370
    25
100
AcDbLine
 10
-0.4938491774
 20
-0.5430564828
 30
0.0
 11
-0.5103548952
 21
-0.5209924583
 31
0.0
  0
LINE
  5
F2
330
1F
100
AcDbEntity
  8
0
  6
Continuous
 62
   254
370
    25
100
AcDbLine
 10
-0.4746105996
 20
-0.5633189742
 30
0.0
 11
-0.4938491774
 21
-0.5430564828
 31
0.0
  0
LINE
  5
F3
330
1F
100
AcDbEntity
  8
0
  6
Continuous
 62
   254
370
    25
100
AcDbLine
 10
-0.4526173206
 20
-0.5817274715
 30
0.0
 11
-0.4746105996
 21
-0.5633189742
 31
0.0
  0
LINE
  5
F4
330
1F
100
AcDbEntity
  8
0
  6
Continuous
 62
   254
370
    25
100
AcDbLine
 10
-0.4278474598
 20
-0.5982295271
 30
0.0
 11
-0.4526173206
 21
-0.5817274715
 31
0.0
  0
LINE
  5
F5
330
1F
100
AcDbEntity
  8
0
  6
Continuous
 62
   254
370
    25
100
AcDbLine
 10
-0.38223891
 20
-0.6212583144
 30
0.0
 11
-0.4278474598
 21
-0.5982295271
 31
0.0
  0
LINE
  5
F6
330
1F
100
AcDbEntity
  8
0
  6
Continuous
 62
   254
370
    25
100
AcDbLine
 10
-0.3347063477
 20
-0.6380606189
 30
0.0
 11
-0.38223891
 21
-0.6212583144
 31
0.0
  0
LINE
  5
F7
330
1F
100
AcDbEntity
  8
0
  6
Continuous
 62
   254
370
    25
100
AcDbLine
 10
-0.2857044961
 20
-0.6499656798
 30
0.0
 11
-0.3347063477
 21
-0.6380606189
 31
0.0
  0
LINE
  5
F8
330
1F
100
AcDbEntity
  8
0
  6
Continuous
 62
   254
370
    25
100
AcDbLine
 10
-0.2356881574
 20
-0.6583027102
 30
0.0
 11
-0.2857044961
 21
-0.6499656798
 31
0.0
  0
LINE
  5
F9
330
1F
100
AcDbEntity
  8
0
  6
Continuous
 62
   254
370
    25
100
AcDbLine
 10
-0.1740757854
 20
-0.6656252801
 30
0.0
 11
-0.2356881574
 21
-0.6583027102
 31
0.0
  0
LINE
  5
FA
330
1F
100
AcDbEntity
  8
0
  6
Continuous
 62
   254
370
    25
100
AcDbLine
 10
-0.1099448129
 20
-0.6721083428
 30
0.0
 11
-0.1740757854
 21
-0.6656252801
 31
0.0
  0
LINE
  5
FB
330
1F
100
AcDbEntity
  8
0
  6
Continuous
 62
   254
370
    25
100
AcDbLine
 10
-0.1099448129
 20
-0.8075535215
 30
0.0
 11
-0.1099448129
 21
-0.6721083428
 31
0.0
  0
LINE
  5
FC
330
1F
100
AcDbEntity
  8
0
  6
Continuous
 62
   254
370
    25
100
AcDbLine
 10
0.1232576958
 20
-0.8075497536
 30
0.0
 11
-0.1099448129
 21
-0.8075535215
 31
0.0
  0
LINE
  5
FD
330
1F
100
AcDbEntity
  8
0
  6
Continuous
 62
   254
370
    25
100
AcDbLine
 10
-0.7089275724
 20
1.0263583593
 30
0.0
 11
-0.7085546741
 21
0.992399692
 31
0.0
  0
LINE
  5
FE
330
1F
100
AcDbEntity
  8
0
  6
Continuous
 62
   254
370
    25
100
AcDbLine
 10
-0.7103449959
 20
1.0447923864
 30
0.0
 11
-0.7089275724
 21
1.0263583593
 31
0.0
  0
LINE
  5
FF
330
1F
100
AcDbEntity
  8
0
  6
Continuous
 62
   254
370
    25
100
AcDbLine
 10
-0.7142504131
 20
1.0611232168
 30
0.0
 11
-0.7103449959
 21
1.0447923864
 31
0.0
  0
LINE
  5
100
330
1F
100
AcDbEntity
  8
0
  6
Continuous
 62
   254
370
    25
100
AcDbLine
 10
-0.7205432522
 20
1.0752415128
 30
0.0
 11
-0.7142504131
 21
1.0611232168
 31
0.0
  0
LINE
  5
101
330
1F
100
AcDbEntity
  8
0
  6
Continuous
 62
   254
370
    25
100
AcDbLine
 10
-0.729122954
 20
1.0870379765
 30
0.0
 11
-0.7205432522
 21
1.0752415128
 31
0.0
  0
LINE
  5
102
330
1F
100
AcDbEntity
  8
0
  6
Continuous
 62
   254
370
    25
100
AcDbLine
 10
-0.7398889201
 20
1.0964032834
 30
0.0
 11
-0.729122954
 21
1.0870379765
 31
0.0
  0
LINE
  5
103
330
1F
100
AcDbEntity
  8
0
  6
Continuous
 62
   254
370
    25
100
AcDbLine
 10
-0.7527406179
 20
1.1032281355
 30
0.0
 11
-0.7398889201
 21
1.0964032834
 31
0.0
  0
LINE
  5
104
330
1F
100
AcDbEntity
  8
0
  6
Continuous
 62
   254
370
    25
100
AcDbLine
 10
-0.7675774753
 20
1.1074032083
 30
0.0
 11
-0.7527406179
 21
1.1032281355
 31
0.0
  0
LINE
  5
105
330
1F
100
AcDbEntity
  8
0
  6
Continuous
 62
   254
370
    25
100
AcDbLine
 10
-0.7842989069
 20
1.1088191906
 30
0.0
 11
-0.7675774753
 21
1.1074032083
 31
0.0
  0
LINE
  5
106
330
1F
100
AcDbEntity
  8
0
  6
Continuous
 62
   254
370
    25
100
AcDbLine
 10
-0.8020850389
 20
1.1074177778
 30
0.0
 11
-0.7842989069
 21
1.1088191906
 31
0.0
  0
LINE
  5
107
330
1F
100
AcDbEntity
  8
0
  6
Continuous
 62
   254
370
    25
100
AcDbLine
 10
-0.8178685331
 20
1.1032747659
 30
0.0
 11
-0.8020850389
 21
1.1074177778
 31
0.0
  0
LINE
  5
108
330
1F
100
AcDbEntity
  8
0
  6
Continuous
 62
   254
370
    25
100
AcDbLine
 10
-0.8315357154
 20
1.096481988
 30
0.0
 11
-0.8178685331
 21
1.1032747659
 31
0.0
  0
LINE
  5
109
330
1F
100
AcDbEntity
  8
0
  6
Continuous
 62
   254
370
    25
100
AcDbLine
 10
-0.8429728984
 20
1.0871312507
 30
0.0
 11
-0.8315357154
 21
1.096481988
 31
0.0
  0
LINE
  5
10A
330
1F
100
AcDbEntity
  8
0
  6
Continuous
 62
   254
370
    25
100
AcDbLine
 10
-0.8520663816
 20
1.075314387
 30
0.0
 11
-0.8429728984
 21
1.0871312507
 31
0.0
  0
LINE
  5
10B
330
1F
100
AcDbEntity
  8
0
  6
Continuous
 62
   254
370
    25
100
AcDbLine
 10
-0.8587024906
 20
1.0611232168
 30
0.0
 11
-0.8520663816
 21
1.075314387
 31
0.0
  0
LINE
  5
10C
330
1F
100
AcDbEntity
  8
0
  6
Continuous
 62
   254
370
    25
100
AcDbLine
 10
-0.8627675251
 20
1.0446495599
 30
0.0
 11
-0.8587024906
 21
1.0611232168
 31
0.0
  0
LINE
  5
10D
330
1F
100
AcDbEntity
  8
0
  6
Continuous
 62
   254
370
    25
100
AcDbLine
 10
-0.8641477975
 20
1.0259852627
 30
0.0
 11
-0.8627675251
 21
1.0446495599
 31
0.0
  0
LINE
  5
10E
330
1F
100
AcDbEntity
  8
0
  6
Continuous
 62
   254
370
    25
100
AcDbLine
 10
-0.8641477975
 20
0.5215194983
 30
0.0
 11
-0.8641477975
 21
1.0259852627
 31
0.0
  0
LINE
  5
10F
330
1F
100
AcDbEntity
  8
0
  6
Continuous
 62
   254
370
    25
100
AcDbLine
 10
-0.8627019357
 20
0.5021635576
 30
0.0
 11
-0.8641477975
 21
0.5215194983
 31
0.0
  0
LINE
  5
110
330
1F
100
AcDbEntity
  8
0
  6
Continuous
 62
   254
370
    25
100
AcDbLine
 10
-0.8581777888
 20
0.4830875056
 30
0.0
 11
-0.8627019357
 21
0.5021635576
 31
0.0
  0
LINE
  5
111
330
1F
100
AcDbEntity
  8
0
  6
Continuous
 62
   254
370
    25
100
AcDbLine
 10
-0.8534459268
 20
0.4715964073
 30
0.0
 11
-0.8581777888
 21
0.4830875056
 31
0.0
  0
LINE
  5
112
330
1F
100
AcDbEntity
  8
0
  6
Continuous
 62
   254
370
    25
100
AcDbLine
 10
-0.8476777764
 20
0.4625889268
 30
0.0
 11
-0.8534459268
 21
0.4715964073
 31
0.0
  0
LINE
  5
113
330
1F
100
AcDbEntity
  8
0
  6
Continuous
 62
   254
370
    25
100
AcDbLine
 10
-0.8409214355
 20
0.4560650772
 30
0.0
 11
-0.8476777764
 21
0.4625889268
 31
0.0
  0
LINE
  5
114
330
1F
100
AcDbEntity
  8
0
  6
Continuous
 62
   254
370
    25
100
AcDbLine
 10
-0.833224989
 20
0.452024819
 30
0.0
 11
-0.8409214355
 21
0.4560650772
 31
0.0
  0
LINE
  5
115
330
1F
100
AcDbEntity
  8
0
  6
Continuous
 62
   254
370
    25
100
AcDbLine
 10
-0.8246365349
 20
0.4504681916
 30
0.0
 11
-0.833224989
 21
0.452024819
 31
0.0
  0
LINE
  5
116
330
1F
100
AcDbEntity
  8
0
  6
Continuous
 62
   254
370
    25
100
AcDbLine
 10
-0.8152041843
 20
0.4513951821
 30
0.0
 11
-0.8246365349
 21
0.4504681916
 31
0.0
  0
LINE
  5
117
330
1F
100
AcDbEntity
  8
0
  6
Continuous
 62
   254
370
    25
100
AcDbLine
 10
-0.7940001462
 20
0.4606999897
 30
0.0
 11
-0.8152041843
 21
0.4513951821
 31
0.0
  0
LINE
  5
118
330
1F
100
AcDbEntity
  8
0
  6
Continuous
 62
   254
370
    25
100
AcDbLine
 10
-0.7704422016
 20
0.4765672786
 30
0.0
 11
-0.7940001462
 21
0.4606999897
 31
0.0
  0
LINE
  5
119
330
1F
100
AcDbEntity
  8
0
  6
Continuous
 62
   254
370
    25
100
AcDbLine
 10
-0.7504893328
 20
0.4930546192
 30
0.0
 11
-0.7704422016
 21
0.4765672786
 31
0.0
  0
LINE
  5
11A
330
1F
100
AcDbEntity
  8
0
  6
Continuous
 62
   254
370
    25
100
AcDbLine
 10
-0.7342452189
 20
0.5113431359
 30
0.0
 11
-0.7504893328
 21
0.4930546192
 31
0.0
  0
LINE
  5
11B
330
1F
100
AcDbEntity
  8
0
  6
Continuous
 62
   254
370
    25
100
AcDbLine
 10
-0.721813592
 20
0.5326139533
 30
0.0
 11
-0.7342452189
 21
0.5113431359
 31
0.0
  0
LINE
  5
11C
330
1F
100
AcDbEntity
  8
0
  6
Continuous
 62
   254
370
    25
100
AcDbLine
 10
-0.7132981177
 20
0.5580481826
 30
0.0
 11
-0.721813592
 21
0.5326139533
 31
0.0
  0
LINE
  5
11D
330
1F
100
AcDbEntity
  8
0
  6
Continuous
 62
   254
370
    25
100
AcDbLine
 10
-0.7088025018
 20
0.5888269482
 30
0.0
 11
-0.7132981177
 21
0.5580481826
 31
0.0
  0
LINE
  5
11E
330
1F
100
AcDbEntity
  8
0
  6
Continuous
 62
   254
370
    25
100
AcDbLine
 10
-0.7084304364
 20
0.6261313879
 30
0.0
 11
-0.7088025018
 21
0.5888269482
 31
0.0
  0
LINE
  5
11F
330
1F
100
AcDbEntity
  8
0
  6
Continuous
 62
   254
370
    25
100
AcDbLine
 10
-0.7122856403
 20
0.671142613
 30
0.0
 11
-0.7084304364
 21
0.6261313879
 31
0.0
  0
LINE
  5
120
330
1F
100
AcDbEntity
  8
0
  6
Continuous
 62
   254
370
    25
100
AcDbLine
 10
-0.7757179491
 20
0.6711468437
 30
0.0
 11
-0.7122856403
 21
0.671142613
 31
0.0
  0
LINE
  5
121
330
1F
100
AcDbEntity
  8
0
  6
Continuous
 62
   254
370
    25
100
AcDbLine
 10
-0.7760910721
 20
0.6062230078
 30
0.0
 11
-0.7757179491
 21
0.6711468437
 31
0.0
  0
LINE
  5
122
330
1F
100
AcDbEntity
  8
0
  6
Continuous
 62
   254
370
    25
100
AcDbLine
 10
-0.7816879577
 20
0.544657306
 30
0.0
 11
-0.7760910721
 21
0.6062230078
 31
0.0
  0
LINE
  5
123
330
1F
100
AcDbEntity
  8
0
  6
Continuous
 62
   254
370
    25
100
AcDbLine
 10
-0.7921350333
 20
0.5446485801
 30
0.0
 11
-0.7816879577
 21
0.544657306
 31
0.0
  0
LINE
  5
124
330
1F
100
AcDbEntity
  8
0
  6
Continuous
 62
   254
370
    25
100
AcDbLine
 10
-0.7956330851
 20
0.5595736348
 30
0.0
 11
-0.7921350333
 21
0.5446485801
 31
0.0
  0
LINE
  5
125
330
1F
100
AcDbEntity
  8
0
  6
Continuous
 62
   254
370
    25
100
AcDbLine
 10
-0.7977319189
 20
0.5744986895
 30
0.0
 11
-0.7956330851
 21
0.5595736348
 31
0.0
  0
LINE
  5
126
330
1F
100
AcDbEntity
  8
0
  6
Continuous
 62
   254
370
    25
100
AcDbLine
 10
-0.7992244243
 20
0.9961309226
 30
0.0
 11
-0.7977319189
 21
0.5744986895
 31
0.0
  0
LINE
  5
127
330
1F
100
AcDbEntity
  8
0
  6
Continuous
 62
   254
370
    25
100
AcDbLine
 10
-0.798478165
 20
1.0438909918
 30
0.0
 11
-0.7992244243
 21
0.9961309226
 31
0.0
  0
LINE
  5
128
330
1F
100
AcDbEntity
  8
0
  6
Continuous
 62
   254
370
    25
100
AcDbLine
 10
-0.7940006618
 20
1.0531725172
 30
0.0
 11
-0.798478165
 21
1.0438909918
 31
0.0
  0
LINE
  5
129
330
1F
100
AcDbEntity
  8
0
  6
Continuous
 62
   254
370
    25
100
AcDbLine
 10
-0.7872843938
 20
1.0621741805
 30
0.0
 11
-0.7940006618
 21
1.0531725172
 31
0.0
  0
LINE
  5
12A
330
1F
100
AcDbEntity
  8
0
  6
Continuous
 62
   254
370
    25
100
AcDbLine
 10
-0.7795420308
 20
1.0527994206
 30
0.0
 11
-0.7872843938
 21
1.0621741805
 31
0.0
  0
LINE
  5
12B
330
1F
100
AcDbEntity
  8
0
  6
Continuous
 62
   254
370
    25
100
AcDbLine
 10
-0.7745981172
 20
1.0431447986
 30
0.0
 11
-0.7795420308
 21
1.0527994206
 31
0.0
  0
LINE
  5
12C
330
1F
100
AcDbEntity
  8
0
  6
Continuous
 62
   254
370
    25
100
AcDbLine
 10
-0.7735253917
 20
1.0184718477
 30
0.0
 11
-0.7745981172
 21
1.0431447986
 31
0.0
  0
LINE
  5
12D
330
1F
100
AcDbEntity
  8
0
  6
Continuous
 62
   254
370
    25
100
AcDbLine
 10
-0.773851871
 20
0.992399692
 30
0.0
 11
-0.7735253917
 21
1.0184718477
 31
0.0
  0
LINE
  5
12E
330
1F
100
AcDbEntity
  8
0
  6
Continuous
 62
   254
370
    25
100
AcDbLine
 10
-0.7085546741
 20
0.992399692
 30
0.0
 11
-0.773851871
 21
0.992399692
 31
0.0
  0
LINE
  5
12F
330
1F
100
AcDbEntity
  8
0
  6
Continuous
 62
   254
370
    25
100
AcDbLine
 10
-0.6319470043
 20
1.010486443
 30
0.0
 11
-0.6321716291
 21
0.9068201854
 31
0.0
  0
LINE
  5
130
330
1F
100
AcDbEntity
  8
0
  6
Continuous
 62
   254
370
    25
100
AcDbLine
 10
-0.6304027254
 20
1.0226548267
 30
0.0
 11
-0.6319470043
 21
1.010486443
 31
0.0
  0
LINE
  5
131
330
1F
100
AcDbEntity
  8
0
  6
Continuous
 62
   254
370
    25
100
AcDbLine
 10
-0.626668401
 20
1.0291239677
 30
0.0
 11
-0.6304027254
 21
1.0226548267
 31
0.0
  0
LINE
  5
132
330
1F
100
AcDbEntity
  8
0
  6
Continuous
 62
   254
370
    25
100
AcDbLine
 10
-0.6215863412
 20
1.0294739276
 30
0.0
 11
-0.626668401
 21
1.0291239677
 31
0.0
  0
LINE
  5
133
330
1F
100
AcDbEntity
  8
0
  6
Continuous
 62
   254
370
    25
100
AcDbLine
 10
-0.6159989086
 20
1.0232847412
 30
0.0
 11
-0.6215863412
 21
1.0294739276
 31
0.0
  0
LINE
  5
134
330
1F
100
AcDbEntity
  8
0
  6
Continuous
 62
   254
370
    25
100
AcDbLine
 10
-0.6118679675
 20
1.0086866947
 30
0.0
 11
-0.6159989086
 21
1.0232847412
 31
0.0
  0
LINE
  5
135
330
1F
100
AcDbEntity
  8
0
  6
Continuous
 62
   254
370
    25
100
AcDbLine
 10
-0.6092321761
 20
0.9842499238
 30
0.0
 11
-0.6118679675
 21
1.0086866947
 31
0.0
  0
LINE
  5
136
330
1F
100
AcDbEntity
  8
0
  6
Continuous
 62
   254
370
    25
100
AcDbLine
 10
-0.608575846
 20
0.9559736555
 30
0.0
 11
-0.6092321761
 21
0.9842499238
 31
0.0
  0
LINE
  5
137
330
1F
100
AcDbEntity
  8
0
  6
Continuous
 62
   254
370
    25
100
AcDbLine
 10
-0.6103833285
 20
0.9298570904
 30
0.0
 11
-0.608575846
 21
0.9559736555
 31
0.0
  0
LINE
  5
138
330
1F
100
AcDbEntity
  8
0
  6
Continuous
 62
   254
370
    25
100
AcDbLine
 10
-0.6139772987
 20
0.9139292229
 30
0.0
 11
-0.6103833285
 21
0.9298570904
 31
0.0
  0
LINE
  5
139
330
1F
100
AcDbEntity
  8
0
  6
Continuous
 62
   254
370
    25
100
AcDbLine
 10
-0.6189189912
 20
0.9056203268
 30
0.0
 11
-0.6139772987
 21
0.9139292229
 31
0.0
  0
LINE
  5
13A
330
1F
100
AcDbEntity
  8
0
  6
Continuous
 62
   254
370
    25
100
AcDbLine
 10
-0.6250399308
 20
0.9036705862
 30
0.0
 11
-0.6189189912
 21
0.9056203268
 31
0.0
  0
LINE
  5
13B
330
1F
100
AcDbEntity
  8
0
  6
Continuous
 62
   254
370
    25
100
AcDbLine
 10
-0.6321716291
 20
0.9068201854
 30
0.0
 11
-0.6250399308
 21
0.9036705862
 31
0.0
  0
LINE
  5
13C
330
1F
100
AcDbEntity
  8
0
  6
Continuous
 62
   254
370
    25
100
AcDbLine
 10
-0.6836374388
 20
0.5198457197
 30
0.0
 11
-0.6860802962
 21
1.111587007
 31
0.0
  0
LINE
  5
13D
330
1F
100
AcDbEntity
  8
0
  6
Continuous
 62
   254
370
    25
100
AcDbLine
 10
-0.6323958837
 20
0.5638191623
 30
0.0
 11
-0.6836374388
 21
0.5198457197
 31
0.0
  0
LINE
  5
13E
330
1F
100
AcDbEntity
  8
0
  6
Continuous
 62
   254
370
    25
100
AcDbLine
 10
-0.6323958837
 20
0.7877948012
 30
0.0
 11
-0.6323958837
 21
0.5638191623
 31
0.0
  0
LINE
  5
13F
330
1F
100
AcDbEntity
  8
0
  6
Continuous
 62
   254
370
    25
100
AcDbLine
 10
-0.6323397341
 20
0.8042725962
 30
0.0
 11
-0.6323958837
 21
0.7877948012
 31
0.0
  0
LINE
  5
140
330
1F
100
AcDbEntity
  8
0
  6
Continuous
 62
   254
370
    25
100
AcDbLine
 10
-0.6303111303
 20
0.8084920387
 30
0.0
 11
-0.6323397341
 21
0.8042725962
 31
0.0
  0
LINE
  5
141
330
1F
100
AcDbEntity
  8
0
  6
Continuous
 62
   254
370
    25
100
AcDbLine
 10
-0.6252080226
 20
0.8101918363
 30
0.0
 11
-0.6303111303
 21
0.8084920387
 31
0.0
  0
LINE
  5
142
330
1F
100
AcDbEntity
  8
0
  6
Continuous
 62
   254
370
    25
100
AcDbLine
 10
-0.6195433794
 20
0.8108816551
 30
0.0
 11
-0.6252080226
 21
0.8101918363
 31
0.0
  0
LINE
  5
143
330
1F
100
AcDbEntity
  8
0
  6
Continuous
 62
   254
370
    25
100
AcDbLine
 10
-0.6149316302
 20
0.8099517429
 30
0.0
 11
-0.6195433794
 21
0.8108816551
 31
0.0
  0
LINE
  5
144
330
1F
100
AcDbEntity
  8
0
  6
Continuous
 62
   254
370
    25
100
AcDbLine
 10
-0.6117518475
 20
0.8043424824
 30
0.0
 11
-0.6149316302
 21
0.8099517429
 31
0.0
  0
LINE
  5
145
330
1F
100
AcDbEntity
  8
0
  6
Continuous
 62
   254
370
    25
100
AcDbLine
 10
-0.6103830509
 20
0.7909942832
 30
0.0
 11
-0.6117518475
 21
0.8043424824
 31
0.0
  0
LINE
  5
146
330
1F
100
AcDbEntity
  8
0
  6
Continuous
 62
   254
370
    25
100
AcDbLine
 10
-0.6097091897
 20
0.679009108
 30
0.0
 11
-0.6103830509
 21
0.7909942832
 31
0.0
  0
LINE
  5
147
330
1F
100
AcDbEntity
  8
0
  6
Continuous
 62
   254
370
    25
100
AcDbLine
 10
-0.6097090575
 20
0.5693396834
 30
0.0
 11
-0.6097091897
 21
0.679009108
 31
0.0
  0
LINE
  5
148
330
1F
100
AcDbEntity
  8
0
  6
Continuous
 62
   254
370
    25
100
AcDbLine
 10
-0.5571477821
 20
0.6108701496
 30
0.0
 11
-0.6097090575
 21
0.5693396834
 31
0.0
  0
LINE
  5
149
330
1F
100
AcDbEntity
  8
0
  6
Continuous
 62
   254
370
    25
100
AcDbLine
 10
-0.5569231573
 20
0.7321172964
 30
0.0
 11
-0.5571477821
 21
0.6108701496
 31
0.0
  0
LINE
  5
14A
330
1F
100
AcDbEntity
  8
0
  6
Continuous
 62
   254
370
    25
100
AcDbLine
 10
-0.5574952168
 20
0.7737318483
 30
0.0
 11
-0.5569231573
 21
0.7321172964
 31
0.0
  0
LINE
  5
14B
330
1F
100
AcDbEntity
  8
0
  6
Continuous
 62
   254
370
    25
100
AcDbLine
 10
-0.5618367156
 20
0.8087472437
 30
0.0
 11
-0.5574952168
 21
0.7737318483
 31
0.0
  0
LINE
  5
14C
330
1F
100
AcDbEntity
  8
0
  6
Continuous
 62
   254
370
    25
100
AcDbLine
 10
-0.5708531203
 20
0.8363235923
 30
0.0
 11
-0.5618367156
 21
0.8087472437
 31
0.0
  0
LINE
  5
14D
330
1F
100
AcDbEntity
  8
0
  6
Continuous
 62
   254
370
    25
100
AcDbLine
 10
-0.5773973963
 20
0.8470596524
 30
0.0
 11
-0.5708531203
 21
0.8363235923
 31
0.0
  0
LINE
  5
14E
330
1F
100
AcDbEntity
  8
0
  6
Continuous
 62
   254
370
    25
100
AcDbLine
 10
-0.5854499768
 20
0.8556210035
 30
0.0
 11
-0.5773973963
 21
0.8470596524
 31
0.0
  0
LINE
  5
14F
330
1F
100
AcDbEntity
  8
0
  6
Continuous
 62
   254
370
    25
100
AcDbLine
 10
-0.573576633
 20
0.8724987206
 30
0.0
 11
-0.5854499768
 21
0.8556210035
 31
0.0
  0
LINE
  5
150
330
1F
100
AcDbEntity
  8
0
  6
Continuous
 62
   254
370
    25
100
AcDbLine
 10
-0.5650936692
 20
0.8941758193
 30
0.0
 11
-0.573576633
 21
0.8724987206
 31
0.0
  0
LINE
  5
151
330
1F
100
AcDbEntity
  8
0
  6
Continuous
 62
   254
370
    25
100
AcDbLine
 10
-0.5602748395
 20
0.9218521451
 30
0.0
 11
-0.5650936692
 21
0.8941758193
 31
0.0
  0
LINE
  5
152
330
1F
100
AcDbEntity
  8
0
  6
Continuous
 62
   254
370
    25
100
AcDbLine
 10
-0.5593938978
 20
0.9567275433
 30
0.0
 11
-0.5602748395
 21
0.9218521451
 31
0.0
  0
LINE
  5
153
330
1F
100
AcDbEntity
  8
0
  6
Continuous
 62
   254
370
    25
100
AcDbLine
 10
-0.5593938978
 20
0.9938425922
 30
0.0
 11
-0.5593938978
 21
0.9567275433
 31
0.0
  0
LINE
  5
154
330
1F
100
AcDbEntity
  8
0
  6
Continuous
 62
   254
370
    25
100
AcDbLine
 10
-0.5612751007
 20
1.0423661478
 30
0.0
 11
-0.5593938978
 21
0.9938425922
 31
0.0
  0
LINE
  5
155
330
1F
100
AcDbEntity
  8
0
  6
Continuous
 62
   254
370
    25
100
AcDbLine
 10
-0.5673679589
 20
1.0777514668
 30
0.0
 11
-0.5612751007
 21
1.0423661478
 31
0.0
  0
LINE
  5
156
330
1F
100
AcDbEntity
  8
0
  6
Continuous
 62
   254
370
    25
100
AcDbLine
 10
-0.5722043461
 20
1.0906110179
 30
0.0
 11
-0.5673679589
 21
1.0777514668
 31
0.0
  0
LINE
  5
157
330
1F
100
AcDbEntity
  8
0
  6
Continuous
 62
   254
370
    25
100
AcDbLine
 10
-0.5783463335
 20
1.1002984941
 30
0.0
 11
-0.5722043461
 21
1.0906110179
 31
0.0
  0
LINE
  5
158
330
1F
100
AcDbEntity
  8
0
  6
Continuous
 62
   254
370
    25
100
AcDbLine
 10
-0.5858781786
 20
1.106851377
 30
0.0
 11
-0.5783463335
 21
1.1002984941
 31
0.0
  0
LINE
  5
159
330
1F
100
AcDbEntity
  8
0
  6
Continuous
 62
   254
370
    25
100
AcDbLine
 10
-0.5948840858
 20
1.1103071745
 30
0.0
 11
-0.5858781786
 21
1.106851377
 31
0.0
  0
LINE
  5
15A
330
1F
100
AcDbEntity
  8
0
  6
Continuous
 62
   254
370
    25
100
AcDbLine
 10
-0.6173778325
 20
1.1129368314
 30
0.0
 11
-0.5948840858
 21
1.1103071745
 31
0.0
  0
LINE
  5
15B
330
1F
100
AcDbEntity
  8
0
  6
Continuous
 62
   254
370
    25
100
AcDbLine
 10
-0.6400610757
 20
1.1131068006
 30
0.0
 11
-0.6173778325
 21
1.1129368314
 31
0.0
  0
LINE
  5
15C
330
1F
100
AcDbEntity
  8
0
  6
Continuous
 62
   254
370
    25
100
AcDbLine
 10
-0.6860802962
 20
1.111587007
 30
0.0
 11
-0.6400610757
 21
1.1131068006
 31
0.0
  0
LINE
  5
15D
330
1F
100
AcDbEntity
  8
0
  6
Continuous
 62
   254
370
    25
100
AcDbLine
 10
-0.446777552
 20
0.766360255
 30
0.0
 11
-0.4579742847
 21
1.0503142825
 31
0.0
  0
LINE
  5
15E
330
1F
100
AcDbEntity
  8
0
  6
Continuous
 62
   254
370
    25
100
AcDbLine
 10
-0.4728978322
 20
0.7663589329
 30
0.0
 11
-0.446777552
 21
0.766360255
 31
0.0
  0
LINE
  5
15F
330
1F
100
AcDbEntity
  8
0
  6
Continuous
 62
   254
370
    25
100
AcDbLine
 10
-0.461704061
 20
1.050307672
 30
0.0
 11
-0.4728978322
 21
0.7663589329
 31
0.0
  0
LINE
  5
160
330
1F
100
AcDbEntity
  8
0
  6
Continuous
 62
   254
370
    25
100
AcDbLine
 10
-0.4579742847
 20
1.0503142825
 30
0.0
 11
-0.461704061
 21
1.050307672
 31
0.0
  0
LINE
  5
161
330
1F
100
AcDbEntity
  8
0
  6
Continuous
 62
   254
370
    25
100
AcDbLine
 10
-0.4233202721
 20
0.6828706976
 30
0.0
 11
-0.44304923
 21
0.6715836126
 31
0.0
  0
LINE
  5
162
330
1F
100
AcDbEntity
  8
0
  6
Continuous
 62
   254
370
    25
100
AcDbLine
 10
-0.3910449289
 20
0.6978540305
 30
0.0
 11
-0.4233202721
 21
0.6828706976
 31
0.0
  0
LINE
  5
163
330
1F
100
AcDbEntity
  8
0
  6
Continuous
 62
   254
370
    25
100
AcDbLine
 10
-0.3826962508
 20
0.7072171295
 30
0.0
 11
-0.3910449289
 21
0.6978540305
 31
0.0
  0
LINE
  5
164
330
1F
100
AcDbEntity
  8
0
  6
Continuous
 62
   254
370
    25
100
AcDbLine
 10
-0.378965007
 20
0.7193786779
 30
0.0
 11
-0.3826962508
 21
0.7072171295
 31
0.0
  0
LINE
  5
165
330
1F
100
AcDbEntity
  8
0
  6
Continuous
 62
   254
370
    25
100
AcDbLine
 10
-0.3788717196
 20
0.7342687366
 30
0.0
 11
-0.378965007
 21
0.7193786779
 31
0.0
  0
LINE
  5
166
330
1F
100
AcDbEntity
  8
0
  6
Continuous
 62
   254
370
    25
100
AcDbLine
 10
-0.3871270971
 20
0.8146777348
 30
0.0
 11
-0.3788717196
 21
0.7342687366
 31
0.0
  0
LINE
  5
167
330
1F
100
AcDbEntity
  8
0
  6
Continuous
 62
   254
370
    25
100
AcDbLine
 10
-0.3945429676
 20
0.8950863364
 30
0.0
 11
-0.3871270971
 21
0.8146777348
 31
0.0
  0
LINE
  5
168
330
1F
100
AcDbEntity
  8
0
  6
Continuous
 62
   254
370
    25
100
AcDbLine
 10
-0.4105873121
 20
1.0969472086
 30
0.0
 11
-0.3945429676
 21
0.8950863364
 31
0.0
  0
LINE
  5
169
330
1F
100
AcDbEntity
  8
0
  6
Continuous
 62
   254
370
    25
100
AcDbLine
 10
-0.4154845953
 20
1.1074413773
 30
0.0
 11
-0.4105873121
 21
1.0969472086
 31
0.0
  0
LINE
  5
16A
330
1F
100
AcDbEntity
  8
0
  6
Continuous
 62
   254
370
    25
100
AcDbLine
 10
-0.4197697065
 20
1.111796454
 30
0.0
 11
-0.4154845953
 21
1.1074413773
 31
0.0
  0
LINE
  5
16B
330
1F
100
AcDbEntity
  8
0
  6
Continuous
 62
   254
370
    25
100
AcDbLine
 10
-0.4240198481
 20
1.1137378786
 30
0.0
 11
-0.4197697065
 21
1.111796454
 31
0.0
  0
LINE
  5
16C
330
1F
100
AcDbEntity
  8
0
  6
Continuous
 62
   254
370
    25
100
AcDbLine
 10
-0.5072268727
 20
1.1144841247
 30
0.0
 11
-0.4240198481
 21
1.1137378786
 31
0.0
  0
LINE
  5
16D
330
1F
100
AcDbEntity
  8
0
  6
Continuous
 62
   254
370
    25
100
AcDbLine
 10
-0.5415544059
 20
0.6092713738
 30
0.0
 11
-0.5072268727
 21
1.1144841247
 31
0.0
  0
LINE
  5
16E
330
1F
100
AcDbEntity
  8
0
  6
Continuous
 62
   254
370
    25
100
AcDbLine
 10
-0.48558555
 20
0.6462108478
 30
0.0
 11
-0.5415544059
 21
0.6092713738
 31
0.0
  0
LINE
  5
16F
330
1F
100
AcDbEntity
  8
0
  6
Continuous
 62
   254
370
    25
100
AcDbLine
 10
-0.4787905906
 20
0.652419165
 30
0.0
 11
-0.48558555
 21
0.6462108478
 31
0.0
  0
LINE
  5
170
330
1F
100
AcDbEntity
  8
0
  6
Continuous
 62
   254
370
    25
100
AcDbLine
 10
-0.4751613732
 20
0.6594276435
 30
0.0
 11
-0.4787905906
 21
0.652419165
 31
0.0
  0
LINE
  5
171
330
1F
100
AcDbEntity
  8
0
  6
Continuous
 62
   254
370
    25
100
AcDbLine
 10
-0.4738321206
 20
0.6749881391
 30
0.0
 11
-0.4751613732
 21
0.6594276435
 31
0.0
  0
LINE
  5
172
330
1F
100
AcDbEntity
  8
0
  6
Continuous
 62
   254
370
    25
100
AcDbLine
 10
-0.4744617708
 20
0.6911782849
 30
0.0
 11
-0.4738321206
 21
0.6749881391
 31
0.0
  0
LINE
  5
173
330
1F
100
AcDbEntity
  8
0
  6
Continuous
 62
   254
370
    25
100
AcDbLine
 10
-0.4732811751
 20
0.698973836
 30
0.0
 11
-0.4744617708
 21
0.6911782849
 31
0.0
  0
LINE
  5
174
330
1F
100
AcDbEntity
  8
0
  6
Continuous
 62
   254
370
    25
100
AcDbLine
 10
-0.469914302
 20
0.706284031
 30
0.0
 11
-0.4732811751
 21
0.698973836
 31
0.0
  0
LINE
  5
175
330
1F
100
AcDbEntity
  8
0
  6
Continuous
 62
   254
370
    25
100
AcDbLine
 10
-0.446407364
 20
0.7062927568
 30
0.0
 11
-0.469914302
 21
0.706284031
 31
0.0
  0
LINE
  5
176
330
1F
100
AcDbEntity
  8
0
  6
Continuous
 62
   254
370
    25
100
AcDbLine
 10
-0.44304923
 20
0.671592127
 30
0.0
 11
-0.446407364
 21
0.7062927568
 31
0.0
  0
LINE
  5
177
330
1F
100
AcDbEntity
  8
0
  6
Continuous
 62
   254
370
    25
100
AcDbLine
 10
-0.2228392228
 20
1.0669353931
 30
0.0
 11
-0.224016923
 21
1.0327768375
 31
0.0
  0
LINE
  5
178
330
1F
100
AcDbEntity
  8
0
  6
Continuous
 62
   254
370
    25
100
AcDbLine
 10
-0.2251056592
 20
1.0802957821
 30
0.0
 11
-0.2228392228
 21
1.0669353931
 31
0.0
  0
LINE
  5
179
330
1F
100
AcDbEntity
  8
0
  6
Continuous
 62
   254
370
    25
100
AcDbLine
 10
-0.2294272207
 20
1.0914042911
 30
0.0
 11
-0.2251056592
 21
1.0802957821
 31
0.0
  0
LINE
  5
17A
330
1F
100
AcDbEntity
  8
0
  6
Continuous
 62
   254
370
    25
100
AcDbLine
 10
-0.2359175682
 20
1.1004314577
 30
0.0
 11
-0.2294272207
 21
1.0914042911
 31
0.0
  0
LINE
  5
17B
330
1F
100
AcDbEntity
  8
0
  6
Continuous
 62
   254
370
    25
100
AcDbLine
 10
-0.2446904024
 20
1.1075478064
 30
0.0
 11
-0.2359175682
 21
1.1004314577
 31
0.0
  0
LINE
  5
17C
330
1F
100
AcDbEntity
  8
0
  6
Continuous
 62
   254
370
    25
100
AcDbLine
 10
-0.2558594107
 20
1.1129238616
 30
0.0
 11
-0.2446904024
 21
1.1075478064
 31
0.0
  0
LINE
  5
17D
330
1F
100
AcDbEntity
  8
0
  6
Continuous
 62
   254
370
    25
100
AcDbLine
 10
-0.2695382803
 20
1.1167301875
 30
0.0
 11
-0.2558594107
 21
1.1129238616
 31
0.0
  0
LINE
  5
17E
330
1F
100
AcDbEntity
  8
0
  6
Continuous
 62
   254
370
    25
100
AcDbLine
 10
-0.2907845992
 20
1.1195257018
 30
0.0
 11
-0.2695382803
 21
1.1167301875
 31
0.0
  0
LINE
  5
17F
330
1F
100
AcDbEntity
  8
0
  6
Continuous
 62
   254
370
    25
100
AcDbLine
 10
-0.3102906246
 20
1.1187357339
 30
0.0
 11
-0.2907845992
 21
1.1195257018
 31
0.0
  0
LINE
  5
180
330
1F
100
AcDbEntity
  8
0
  6
Continuous
 62
   254
370
    25
100
AcDbLine
 10
-0.3276103726
 20
1.114447714
 30
0.0
 11
-0.3102906246
 21
1.1187357339
 31
0.0
  0
LINE
  5
181
330
1F
100
AcDbEntity
  8
0
  6
Continuous
 62
   254
370
    25
100
AcDbLine
 10
-0.3422978327
 20
1.1067490861
 30
0.0
 11
-0.3276103726
 21
1.114447714
 31
0.0
  0
LINE
  5
182
330
1F
100
AcDbEntity
  8
0
  6
Continuous
 62
   254
370
    25
100
AcDbLine
 10
-0.3539069945
 20
1.0957273201
 30
0.0
 11
-0.3422978327
 21
1.1067490861
 31
0.0
  0
LINE
  5
183
330
1F
100
AcDbEntity
  8
0
  6
Continuous
 62
   254
370
    25
100
AcDbLine
 10
-0.3619918608
 20
1.0814698334
 30
0.0
 11
-0.3539069945
 21
1.0957273201
 31
0.0
  0
LINE
  5
184
330
1F
100
AcDbEntity
  8
0
  6
Continuous
 62
   254
370
    25
100
AcDbLine
 10
-0.3661064475
 20
1.0640641092
 30
0.0
 11
-0.3619918608
 21
1.0814698334
 31
0.0
  0
LINE
  5
185
330
1F
100
AcDbEntity
  8
0
  6
Continuous
 62
   254
370
    25
100
AcDbLine
 10
-0.3658047443
 20
1.0435975649
 30
0.0
 11
-0.3661064475
 21
1.0640641092
 31
0.0
  0
LINE
  5
186
330
1F
100
AcDbEntity
  8
0
  6
Continuous
 62
   254
370
    25
100
AcDbLine
 10
-0.3574094489
 20
0.9947647173
 30
0.0
 11
-0.3658047443
 21
1.0435975649
 31
0.0
  0
LINE
  5
187
330
1F
100
AcDbEntity
  8
0
  6
Continuous
 62
   254
370
    25
100
AcDbLine
 10
-0.3434172283
 20
0.947331101
 30
0.0
 11
-0.3574094489
 21
0.9947647173
 31
0.0
  0
LINE
  5
188
330
1F
100
AcDbEntity
  8
0
  6
Continuous
 62
   254
370
    25
100
AcDbLine
 10
-0.3309350575
 20
0.9184137861
 30
0.0
 11
-0.3434172283
 21
0.947331101
 31
0.0
  0
LINE
  5
189
330
1F
100
AcDbEntity
  8
0
  6
Continuous
 62
   254
370
    25
100
AcDbLine
 10
-0.3168787283
 20
0.8900562218
 30
0.0
 11
-0.3309350575
 21
0.9184137861
 31
0.0
  0
LINE
  5
18A
330
1F
100
AcDbEntity
  8
0
  6
Continuous
 62
   254
370
    25
100
AcDbLine
 10
-0.3027524203
 20
0.8616986708
 30
0.0
 11
-0.3168787283
 21
0.8900562218
 31
0.0
  0
LINE
  5
18B
330
1F
100
AcDbEntity
  8
0
  6
Continuous
 62
   254
370
    25
100
AcDbLine
 10
-0.2900603132
 20
0.8327814484
 30
0.0
 11
-0.3027524203
 21
0.8616986708
 31
0.0
  0
LINE
  5
18C
330
1F
100
AcDbEntity
  8
0
  6
Continuous
 62
   254
370
    25
100
AcDbLine
 10
-0.2852971306
 20
0.8167137159
 30
0.0
 11
-0.2900603132
 21
0.8327814484
 31
0.0
  0
LINE
  5
18D
330
1F
100
AcDbEntity
  8
0
  6
Continuous
 62
   254
370
    25
100
AcDbLine
 10
-0.2827377169
 20
0.7996665188
 30
0.0
 11
-0.2852971306
 21
0.8167137159
 31
0.0
  0
LINE
  5
18E
330
1F
100
AcDbEntity
  8
0
  6
Continuous
 62
   254
370
    25
100
AcDbLine
 10
-0.2807321705
 20
0.7648725751
 30
0.0
 11
-0.2827377169
 21
0.7996665188
 31
0.0
  0
LINE
  5
18F
330
1F
100
AcDbEntity
  8
0
  6
Continuous
 62
   254
370
    25
100
AcDbLine
 10
-0.2820497754
 20
0.7608323037
 30
0.0
 11
-0.2807321705
 21
0.7648725751
 31
0.0
  0
LINE
  5
190
330
1F
100
AcDbEntity
  8
0
  6
Continuous
 62
   254
370
    25
100
AcDbLine
 10
-0.2856760841
 20
0.7566171448
 30
0.0
 11
-0.2820497754
 21
0.7608323037
 31
0.0
  0
LINE
  5
191
330
1F
100
AcDbEntity
  8
0
  6
Continuous
 62
   254
370
    25
100
AcDbLine
 10
-0.2945378031
 20
0.7480819051
 30
0.0
 11
-0.2856760841
 21
0.7566171448
 31
0.0
  0
LINE
  5
192
330
1F
100
AcDbEntity
  8
0
  6
Continuous
 62
   254
370
    25
100
AcDbLine
 10
-0.3004145244
 20
0.7568970466
 30
0.0
 11
-0.2945378031
 21
0.7480819051
 31
0.0
  0
LINE
  5
193
330
1F
100
AcDbEntity
  8
0
  6
Continuous
 62
   254
370
    25
100
AcDbLine
 10
-0.3046121919
 20
0.7659919972
 30
0.0
 11
-0.3004145244
 21
0.7568970466
 31
0.0
  0
LINE
  5
194
330
1F
100
AcDbEntity
  8
0
  6
Continuous
 62
   254
370
    25
100
AcDbLine
 10
-0.3057315611
 20
0.7984539151
 30
0.0
 11
-0.3046121919
 21
0.7659919972
 31
0.0
  0
LINE
  5
195
330
1F
100
AcDbEntity
  8
0
  6
Continuous
 62
   254
370
    25
100
AcDbLine
 10
-0.3104422695
 20
0.8075021692
 30
0.0
 11
-0.3057315611
 21
0.7984539151
 31
0.0
  0
LINE
  5
196
330
1F
100
AcDbEntity
  8
0
  6
Continuous
 62
   254
370
    25
100
AcDbLine
 10
-0.3176715784
 20
0.8126326444
 30
0.0
 11
-0.3104422695
 21
0.8075021692
 31
0.0
  0
LINE
  5
197
330
1F
100
AcDbEntity
  8
0
  6
Continuous
 62
   254
370
    25
100
AcDbLine
 10
-0.3411784635
 20
0.8137053699
 30
0.0
 11
-0.3176715784
 21
0.8126326444
 31
0.0
  0
LINE
  5
198
330
1F
100
AcDbEntity
  8
0
  6
Continuous
 62
   254
370
    25
100
AcDbLine
 10
-0.3658047443
 20
0.8133788905
 30
0.0
 11
-0.3411784635
 21
0.8137053699
 31
0.0
  0
LINE
  5
199
330
1F
100
AcDbEntity
  8
0
  6
Continuous
 62
   254
370
    25
100
AcDbLine
 10
-0.3661778673
 20
0.7757398273
 30
0.0
 11
-0.3658047443
 21
0.8133788905
 31
0.0
  0
LINE
  5
19A
330
1F
100
AcDbEntity
  8
0
  6
Continuous
 62
   254
370
    25
100
AcDbLine
 10
-0.3654316212
 20
0.7406193646
 30
0.0
 11
-0.3661778673
 21
0.7757398273
 31
0.0
  0
LINE
  5
19B
330
1F
100
AcDbEntity
  8
0
  6
Continuous
 62
   254
370
    25
100
AcDbLine
 10
-0.3625107321
 20
0.7244116614
 30
0.0
 11
-0.3654316212
 21
0.7406193646
 31
0.0
  0
LINE
  5
19C
330
1F
100
AcDbEntity
  8
0
  6
Continuous
 62
   254
370
    25
100
AcDbLine
 10
-0.355776986
 20
0.7119818853
 30
0.0
 11
-0.3625107321
 21
0.7244116614
 31
0.0
  0
LINE
  5
19D
330
1F
100
AcDbEntity
  8
0
  6
Continuous
 62
   254
370
    25
100
AcDbLine
 10
-0.3457550846
 20
0.7038897343
 30
0.0
 11
-0.355776986
 21
0.7119818853
 31
0.0
  0
LINE
  5
19E
330
1F
100
AcDbEntity
  8
0
  6
Continuous
 62
   254
370
    25
100
AcDbLine
 10
-0.3329697033
 20
0.7006948532
 30
0.0
 11
-0.3457550846
 21
0.7038897343
 31
0.0
  0
LINE
  5
19F
330
1F
100
AcDbEntity
  8
0
  6
Continuous
 62
   254
370
    25
100
AcDbLine
 10
-0.3055507507
 20
0.7024788553
 30
0.0
 11
-0.3329697033
 21
0.7006948532
 31
0.0
  0
LINE
  5
1A0
330
1F
100
AcDbEntity
  8
0
  6
Continuous
 62
   254
370
    25
100
AcDbLine
 10
-0.2798458743
 20
0.709649886
 30
0.0
 11
-0.3055507507
 21
0.7024788553
 31
0.0
  0
LINE
  5
1A1
330
1F
100
AcDbEntity
  8
0
  6
Continuous
 62
   254
370
    25
100
AcDbLine
 10
-0.2558900437
 20
0.7215782556
 30
0.0
 11
-0.2798458743
 21
0.709649886
 31
0.0
  0
LINE
  5
1A2
330
1F
100
AcDbEntity
  8
0
  6
Continuous
 62
   254
370
    25
100
AcDbLine
 10
-0.233718202
 20
0.7376343272
 30
0.0
 11
-0.2558900437
 21
0.7215782556
 31
0.0
  0
LINE
  5
1A3
330
1F
100
AcDbEntity
  8
0
  6
Continuous
 62
   254
370
    25
100
AcDbLine
 10
-0.2239703322
 20
0.7495742916
 30
0.0
 11
-0.233718202
 21
0.7376343272
 31
0.0
  0
LINE
  5
1A4
330
1F
100
AcDbEntity
  8
0
  6
Continuous
 62
   254
370
    25
100
AcDbLine
 10
-0.2207579598
 20
0.7567336482
 30
0.0
 11
-0.2239703322
 21
0.7495742916
 31
0.0
  0
LINE
  5
1A5
330
1F
100
AcDbEntity
  8
0
  6
Continuous
 62
   254
370
    25
100
AcDbLine
 10
-0.2195394727
 20
0.7637530738
 30
0.0
 11
-0.2207579598
 21
0.7567336482
 31
0.0
  0
LINE
  5
1A6
330
1F
100
AcDbEntity
  8
0
  6
Continuous
 62
   254
370
    25
100
AcDbLine
 10
-0.2188865008
 20
0.810020664
 30
0.0
 11
-0.2195394727
 21
0.7637530738
 31
0.0
  0
LINE
  5
1A7
330
1F
100
AcDbEntity
  8
0
  6
Continuous
 62
   254
370
    25
100
AcDbLine
 10
-0.2204839413
 20
0.8326996897
 30
0.0
 11
-0.2188865008
 21
0.810020664
 31
0.0
  0
LINE
  5
1A8
330
1F
100
AcDbEntity
  8
0
  6
Continuous
 62
   254
370
    25
100
AcDbLine
 10
-0.2255094814
 20
0.8540494629
 30
0.0
 11
-0.2204839413
 21
0.8326996897
 31
0.0
  0
LINE
  5
1A9
330
1F
100
AcDbEntity
  8
0
  6
Continuous
 62
   254
370
    25
100
AcDbLine
 10
-0.2405102527
 20
0.8912278933
 30
0.0
 11
-0.2255094814
 21
0.8540494629
 31
0.0
  0
LINE
  5
1AA
330
1F
100
AcDbEntity
  8
0
  6
Continuous
 62
   254
370
    25
100
AcDbLine
 10
-0.2576448538
 20
0.9276018126
 30
0.0
 11
-0.2405102527
 21
0.8912278933
 31
0.0
  0
LINE
  5
1AB
330
1F
100
AcDbEntity
  8
0
  6
Continuous
 62
   254
370
    25
100
AcDbLine
 10
-0.2922989326
 20
1.000314708
 30
0.0
 11
-0.2576448538
 21
0.9276018126
 31
0.0
  0
LINE
  5
1AC
330
1F
100
AcDbEntity
  8
0
  6
Continuous
 62
   254
370
    25
100
AcDbLine
 10
-0.3004144187
 20
1.0300248599
 30
0.0
 11
-0.2922989326
 21
1.000314708
 31
0.0
  0
LINE
  5
1AD
330
1F
100
AcDbEntity
  8
0
  6
Continuous
 62
   254
370
    25
100
AcDbLine
 10
-0.3046120862
 20
1.0611342166
 30
0.0
 11
-0.3004144187
 21
1.0300248599
 31
0.0
  0
LINE
  5
1AE
330
1F
100
AcDbEntity
  8
0
  6
Continuous
 62
   254
370
    25
100
AcDbLine
 10
-0.3008341854
 20
1.0681303732
 30
0.0
 11
-0.3046120862
 21
1.0611342166
 31
0.0
  0
LINE
  5
1AF
330
1F
100
AcDbEntity
  8
0
  6
Continuous
 62
   254
370
    25
100
AcDbLine
 10
-0.293418315
 20
1.0756861747
 30
0.0
 11
-0.3008341854
 21
1.0681303732
 31
0.0
  0
LINE
  5
1B0
330
1F
100
AcDbEntity
  8
0
  6
Continuous
 62
   254
370
    25
100
AcDbLine
 10
-0.2857692393
 20
1.0686900181
 30
0.0
 11
-0.293418315
 21
1.0756861747
 31
0.0
  0
LINE
  5
1B1
330
1F
100
AcDbEntity
  8
0
  6
Continuous
 62
   254
370
    25
100
AcDbLine
 10
-0.2803589153
 20
1.0611342166
 30
0.0
 11
-0.2857692393
 21
1.0686900181
 31
0.0
  0
LINE
  5
1B2
330
1F
100
AcDbEntity
  8
0
  6
Continuous
 62
   254
370
    25
100
AcDbLine
 10
-0.2785399304
 20
1.0475151059
 30
0.0
 11
-0.2803589153
 21
1.0611342166
 31
0.0
  0
LINE
  5
1B3
330
1F
100
AcDbEntity
  8
0
  6
Continuous
 62
   254
370
    25
100
AcDbLine
 10
-0.2781201637
 20
1.032776626
 30
0.0
 11
-0.2785399304
 21
1.0475151059
 31
0.0
  0
LINE
  5
1B4
330
1F
100
AcDbEntity
  8
0
  6
Continuous
 62
   254
370
    25
100
AcDbLine
 10
-0.224016923
 20
1.0327768375
 30
0.0
 11
-0.2781201637
 21
1.032776626
 31
0.0
  0
LINE
  5
1B5
330
1F
100
AcDbEntity
  8
0
  6
Continuous
 62
   254
370
    25
100
AcDbLine
 10
-0.1404750238
 20
0.9719205348
 30
0.0
 11
-0.1117443365
 21
0.9719205348
 31
0.0
  0
LINE
  5
1B6
330
1F
100
AcDbEntity
  8
0
  6
Continuous
 62
   254
370
    25
100
AcDbLine
 10
-0.1404750238
 20
1.1062458948
 30
0.0
 11
-0.1404750238
 21
0.9719205348
 31
0.0
  0
LINE
  5
1B7
330
1F
100
AcDbEntity
  8
0
  6
Continuous
 62
   254
370
    25
100
AcDbLine
 10
-0.174802557
 20
1.1062458948
 30
0.0
 11
-0.1404750238
 21
1.1062458948
 31
0.0
  0
LINE
  5
1B8
330
1F
100
AcDbEntity
  8
0
  6
Continuous
 62
   254
370
    25
100
AcDbLine
 10
-0.1925435128
 20
1.1057794844
 30
0.0
 11
-0.174802557
 21
1.1062458948
 31
0.0
  0
LINE
  5
1B9
330
1F
100
AcDbEntity
  8
0
  6
Continuous
 62
   254
370
    25
100
AcDbLine
 10
-0.2017142463
 20
1.1025146245
 30
0.0
 11
-0.1925435128
 21
1.1057794844
 31
0.0
  0
LINE
  5
1BA
330
1F
100
AcDbEntity
  8
0
  6
Continuous
 62
   254
370
    25
100
AcDbLine
 10
-0.2050781975
 20
1.0936528791
 30
0.0
 11
-0.2017142463
 21
1.1025146245
 31
0.0
  0
LINE
  5
1BB
330
1F
100
AcDbEntity
  8
0
  6
Continuous
 62
   254
370
    25
100
AcDbLine
 10
-0.2053988596
 20
1.0763957854
 30
0.0
 11
-0.2050781975
 21
1.0936528791
 31
0.0
  0
LINE
  5
1BC
330
1F
100
AcDbEntity
  8
0
  6
Continuous
 62
   254
370
    25
100
AcDbLine
 10
-0.203160108
 20
0.7752835441
 30
0.0
 11
-0.2053988596
 21
1.0763957854
 31
0.0
  0
LINE
  5
1BD
330
1F
100
AcDbEntity
  8
0
  6
Continuous
 62
   254
370
    25
100
AcDbLine
 10
-0.2026237453
 20
0.7481503106
 30
0.0
 11
-0.203160108
 21
0.7752835441
 31
0.0
  0
LINE
  5
1BE
330
1F
100
AcDbEntity
  8
0
  6
Continuous
 62
   254
370
    25
100
AcDbLine
 10
-0.2011137617
 20
0.7401937013
 30
0.0
 11
-0.2026237453
 21
0.7481503106
 31
0.0
  0
LINE
  5
1BF
330
1F
100
AcDbEntity
  8
0
  6
Continuous
 62
   254
370
    25
100
AcDbLine
 10
-0.1980296461
 20
0.7353590989
 30
0.0
 11
-0.2011137617
 21
0.7401937013
 31
0.0
  0
LINE
  5
1C0
330
1F
100
AcDbEntity
  8
0
  6
Continuous
 62
   254
370
    25
100
AcDbLine
 10
-0.1928117273
 20
0.7331830148
 30
0.0
 11
-0.1980296461
 21
0.7353590989
 31
0.0
  0
LINE
  5
1C1
330
1F
100
AcDbEntity
  8
0
  6
Continuous
 62
   254
370
    25
100
AcDbLine
 10
-0.1849002941
 20
0.7332019605
 30
0.0
 11
-0.1928117273
 21
0.7331830148
 31
0.0
  0
LINE
  5
1C2
330
1F
100
AcDbEntity
  8
0
  6
Continuous
 62
   254
370
    25
100
AcDbLine
 10
-0.1587581728
 20
0.7379709735
 30
0.0
 11
-0.1849002941
 21
0.7332019605
 31
0.0
  0
LINE
  5
1C3
330
1F
100
AcDbEntity
  8
0
  6
Continuous
 62
   254
370
    25
100
AcDbLine
 10
-0.1499663929
 20
0.7407402045
 30
0.0
 11
-0.1587581728
 21
0.7379709735
 31
0.0
  0
LINE
  5
1C4
330
1F
100
AcDbEntity
  8
0
  6
Continuous
 62
   254
370
    25
100
AcDbLine
 10
-0.1441129935
 20
0.7450136416
 30
0.0
 11
-0.1499663929
 21
0.7407402045
 31
0.0
  0
LINE
  5
1C5
330
1F
100
AcDbEntity
  8
0
  6
Continuous
 62
   254
370
    25
100
AcDbLine
 10
-0.1409180992
 20
0.7514558911
 30
0.0
 11
-0.1441129935
 21
0.7450136416
 31
0.0
  0
LINE
  5
1C6
330
1F
100
AcDbEntity
  8
0
  6
Continuous
 62
   254
370
    25
100
AcDbLine
 10
-0.1401018875
 20
0.7607315861
 30
0.0
 11
-0.1409180992
 21
0.7514558911
 31
0.0
  0
LINE
  5
1C7
330
1F
100
AcDbEntity
  8
0
  6
Continuous
 62
   254
370
    25
100
AcDbLine
 10
-0.1404750106
 20
0.887221256
 30
0.0
 11
-0.1401018875
 21
0.7607315861
 31
0.0
  0
LINE
  5
1C8
330
1F
100
AcDbEntity
  8
0
  6
Continuous
 62
   254
370
    25
100
AcDbLine
 10
-0.1398686955
 20
0.9012135295
 30
0.0
 11
-0.1404750106
 21
0.887221256
 31
0.0
  0
LINE
  5
1C9
330
1F
100
AcDbEntity
  8
0
  6
Continuous
 62
   254
370
    25
100
AcDbLine
 10
-0.1359100769
 20
0.9063206828
 30
0.0
 11
-0.1398686955
 21
0.9012135295
 31
0.0
  0
LINE
  5
1CA
330
1F
100
AcDbEntity
  8
0
  6
Continuous
 62
   254
370
    25
100
AcDbLine
 10
-0.1266693779
 20
0.9084894821
 30
0.0
 11
-0.1359100769
 21
0.9063206828
 31
0.0
  0
LINE
  5
1CB
330
1F
100
AcDbEntity
  8
0
  6
Continuous
 62
   254
370
    25
100
AcDbLine
 10
-0.1174694658
 20
0.9068570455
 30
0.0
 11
-0.1266693779
 21
0.9084894821
 31
0.0
  0
LINE
  5
1CC
330
1F
100
AcDbEntity
  8
0
  6
Continuous
 62
   254
370
    25
100
AcDbLine
 10
-0.1132368023
 20
0.9021463371
 30
0.0
 11
-0.1174694658
 21
0.9068570455
 31
0.0
  0
LINE
  5
1CD
330
1F
100
AcDbEntity
  8
0
  6
Continuous
 62
   254
370
    25
100
AcDbLine
 10
-0.1121174199
 20
0.8879675815
 30
0.0
 11
-0.1132368023
 21
0.9021463371
 31
0.0
  0
LINE
  5
1CE
330
1F
100
AcDbEntity
  8
0
  6
Continuous
 62
   254
370
    25
100
AcDbLine
 10
-0.1121174199
 20
0.7465528568
 30
0.0
 11
-0.1121174199
 21
0.8879675815
 31
0.0
  0
LINE
  5
1CF
330
1F
100
AcDbEntity
  8
0
  6
Continuous
 62
   254
370
    25
100
AcDbLine
 10
-0.0483128739
 20
0.7562541226
 30
0.0
 11
-0.1121174199
 21
0.7465528568
 31
0.0
  0
LINE
  5
1D0
330
1F
100
AcDbEntity
  8
0
  6
Continuous
 62
   254
370
    25
100
AcDbLine
 10
-0.0483128739
 20
1.1047530721
 30
0.0
 11
-0.0483128739
 21
0.7562541226
 31
0.0
  0
LINE
  5
1D1
330
1F
100
AcDbEntity
  8
0
  6
Continuous
 62
   254
370
    25
100
AcDbLine
 10
-0.111744191
 20
1.1047530721
 30
0.0
 11
-0.0483128739
 21
1.1047530721
 31
0.0
  0
LINE
  5
1D2
330
1F
100
AcDbEntity
  8
0
  6
Continuous
 62
   254
370
    25
100
AcDbLine
 10
-0.1117443365
 20
0.9719205348
 30
0.0
 11
-0.111744191
 21
1.1047530721
 31
0.0
  0
LINE
  5
1D3
330
1F
100
AcDbEntity
  8
0
  6
Continuous
 62
   254
370
    25
100
AcDbLine
 10
0.2131882599
 20
1.1054991992
 30
0.0
 11
0.2131882599
 21
0.7555075988
 31
0.0
  0
LINE
  5
1D4
330
1F
100
AcDbEntity
  8
0
  6
Continuous
 62
   254
370
    25
100
AcDbLine
 10
0.1269961979
 20
1.1054991992
 30
0.0
 11
0.2131882599
 21
1.1054991992
 31
0.0
  0
LINE
  5
1D5
330
1F
100
AcDbEntity
  8
0
  6
Continuous
 62
   254
370
    25
100
AcDbLine
 10
0.1116980466
 20
0.9558758201
 30
0.0
 11
0.1269961979
 21
1.1054991992
 31
0.0
  0
LINE
  5
1D6
330
1F
100
AcDbEntity
  8
0
  6
Continuous
 62
   254
370
    25
100
AcDbLine
 10
0.105728038
 20
0.9558758201
 30
0.0
 11
0.1116980466
 21
0.9558758201
 31
0.0
  0
LINE
  5
1D7
330
1F
100
AcDbEntity
  8
0
  6
Continuous
 62
   254
370
    25
100
AcDbLine
 10
0.0896836934
 20
1.1058720314
 30
0.0
 11
0.105728038
 21
0.9558758201
 31
0.0
  0
LINE
  5
1D8
330
1F
100
AcDbEntity
  8
0
  6
Continuous
 62
   254
370
    25
100
AcDbLine
 10
0.0038647281
 20
1.1058720314
 30
0.0
 11
0.0896836934
 21
1.1058720314
 31
0.0
  0
LINE
  5
1D9
330
1F
100
AcDbEntity
  8
0
  6
Continuous
 62
   254
370
    25
100
AcDbLine
 10
0.0038647281
 20
0.7663276652
 30
0.0
 11
0.0038647281
 21
1.1058720314
 31
0.0
  0
LINE
  5
1DA
330
1F
100
AcDbEntity
  8
0
  6
Continuous
 62
   254
370
    25
100
AcDbLine
 10
0.0575948721
 20
0.7663276652
 30
0.0
 11
0.0038647281
 21
0.7663276652
 31
0.0
  0
LINE
  5
1DB
330
1F
100
AcDbEntity
  8
0
  6
Continuous
 62
   254
370
    25
100
AcDbLine
 10
0.0575948721
 20
1.0055008436
 30
0.0
 11
0.0575948721
 21
0.7663276652
 31
0.0
  0
LINE
  5
1DC
330
1F
100
AcDbEntity
  8
0
  6
Continuous
 62
   254
370
    25
100
AcDbLine
 10
0.0736392299
 20
0.8963151358
 30
0.0
 11
0.0575948721
 21
1.0055008436
 31
0.0
  0
LINE
  5
1DD
330
1F
100
AcDbEntity
  8
0
  6
Continuous
 62
   254
370
    25
100
AcDbLine
 10
0.0852061373
 20
0.7868493014
 30
0.0
 11
0.0736392299
 21
0.8963151358
 31
0.0
  0
LINE
  5
1DE
330
1F
100
AcDbEntity
  8
0
  6
Continuous
 62
   254
370
    25
100
AcDbLine
 10
0.0870367963
 20
0.7760985924
 30
0.0
 11
0.0852061373
 21
0.7868493014
 31
0.0
  0
LINE
  5
1DF
330
1F
100
AcDbEntity
  8
0
  6
Continuous
 62
   254
370
    25
100
AcDbLine
 10
0.0908963368
 20
0.7685660995
 30
0.0
 11
0.0870367963
 21
0.7760985924
 31
0.0
  0
LINE
  5
1E0
330
1F
100
AcDbEntity
  8
0
  6
Continuous
 62
   254
370
    25
100
AcDbLine
 10
0.0976942312
 20
0.7643917538
 30
0.0
 11
0.0908963368
 21
0.7685660995
 31
0.0
  0
LINE
  5
1E1
330
1F
100
AcDbEntity
  8
0
  6
Continuous
 62
   254
370
    25
100
AcDbLine
 10
0.1083399787
 20
0.76371546
 30
0.0
 11
0.0976942312
 21
0.7643917538
 31
0.0
  0
LINE
  5
1E2
330
1F
100
AcDbEntity
  8
0
  6
Continuous
 62
   254
370
    25
100
AcDbLine
 10
0.1288618793
 20
0.76371546
 30
0.0
 11
0.1083399787
 21
0.76371546
 31
0.0
  0
LINE
  5
1E3
330
1F
100
AcDbEntity
  8
0
  6
Continuous
 62
   254
370
    25
100
AcDbLine
 10
0.1546075293
 20
1.0096049064
 30
0.0
 11
0.1288618793
 21
0.76371546
 31
0.0
  0
LINE
  5
1E4
330
1F
100
AcDbEntity
  8
0
  6
Continuous
 62
   254
370
    25
100
AcDbLine
 10
0.1613237973
 20
1.0092317833
 30
0.0
 11
0.1546075293
 21
1.0096049064
 31
0.0
  0
LINE
  5
1E5
330
1F
100
AcDbEntity
  8
0
  6
Continuous
 62
   254
370
    25
100
AcDbLine
 10
0.1613237973
 20
0.7611026995
 30
0.0
 11
0.1613237973
 21
1.0092317833
 31
0.0
  0
LINE
  5
1E6
330
1F
100
AcDbEntity
  8
0
  6
Continuous
 62
   254
370
    25
100
AcDbLine
 10
0.2131882599
 20
0.7555075988
 30
0.0
 11
0.1613237973
 21
0.7611026995
 31
0.0
  0
LINE
  5
1E7
330
1F
100
AcDbEntity
  8
0
  6
Continuous
 62
   254
370
    25
100
AcDbLine
 10
0.3181178898
 20
0.8593818095
 30
0.0
 11
0.3179779587
 21
0.9181490884
 31
0.0
  0
LINE
  5
1E8
330
1F
100
AcDbEntity
  8
0
  6
Continuous
 62
   254
370
    25
100
AcDbLine
 10
0.3168585896
 20
0.8006145306
 30
0.0
 11
0.3181178898
 21
0.8593818095
 31
0.0
  0
LINE
  5
1E9
330
1F
100
AcDbEntity
  8
0
  6
Continuous
 62
   254
370
    25
100
AcDbLine
 10
0.3128008399
 20
0.7896073474
 30
0.0
 11
0.3168585896
 21
0.8006145306
 31
0.0
  0
LINE
  5
1EA
330
1F
100
AcDbEntity
  8
0
  6
Continuous
 62
   254
370
    25
100
AcDbLine
 10
0.3064393534
 20
0.7797948232
 30
0.0
 11
0.3128008399
 21
0.7896073474
 31
0.0
  0
LINE
  5
1EB
330
1F
100
AcDbEntity
  8
0
  6
Continuous
 62
   254
370
    25
100
AcDbLine
 10
0.2977825375
 20
0.7892800483
 30
0.0
 11
0.3064393534
 21
0.7797948232
 31
0.0
  0
LINE
  5
1EC
330
1F
100
AcDbEntity
  8
0
  6
Continuous
 62
   254
370
    25
100
AcDbLine
 10
0.2938355666
 20
0.794707877
 30
0.0
 11
0.2977825375
 21
0.7892800483
 31
0.0
  0
LINE
  5
1ED
330
1F
100
AcDbEntity
  8
0
  6
Continuous
 62
   254
370
    25
100
AcDbLine
 10
0.2922322956
 20
0.8002406407
 30
0.0
 11
0.2938355666
 21
0.794707877
 31
0.0
  0
LINE
  5
1EE
330
1F
100
AcDbEntity
  8
0
  6
Continuous
 62
   254
370
    25
100
AcDbLine
 10
0.289993544
 20
1.0397879734
 30
0.0
 11
0.2922322956
 21
0.8002406407
 31
0.0
  0
LINE
  5
1EF
330
1F
100
AcDbEntity
  8
0
  6
Continuous
 62
   254
370
    25
100
AcDbLine
 10
0.2914627276
 20
1.0456064298
 30
0.0
 11
0.289993544
 21
1.0397879734
 31
0.0
  0
LINE
  5
1F0
330
1F
100
AcDbEntity
  8
0
  6
Continuous
 62
   254
370
    25
100
AcDbLine
 10
0.295030745
 20
1.0513549074
 30
0.0
 11
0.2914627276
 21
1.0456064298
 31
0.0
  0
LINE
  5
1F1
330
1F
100
AcDbEntity
  8
0
  6
Continuous
 62
   254
370
    25
100
AcDbLine
 10
0.30342608
 20
1.0629218148
 30
0.0
 11
0.295030745
 21
1.0513549074
 31
0.0
  0
LINE
  5
1F2
330
1F
100
AcDbEntity
  8
0
  6
Continuous
 62
   254
370
    25
100
AcDbLine
 10
0.3120079501
 20
1.0516814528
 30
0.0
 11
0.30342608
 21
1.0629218148
 31
0.0
  0
LINE
  5
1F3
330
1F
100
AcDbEntity
  8
0
  6
Continuous
 62
   254
370
    25
100
AcDbLine
 10
0.3155992761
 20
1.0459738017
 30
0.0
 11
0.3120079501
 21
1.0516814528
 31
0.0
  0
LINE
  5
1F4
330
1F
100
AcDbEntity
  8
0
  6
Continuous
 62
   254
370
    25
100
AcDbLine
 10
0.3172317126
 20
1.0401612023
 30
0.0
 11
0.3155992761
 21
1.0459738017
 31
0.0
  0
LINE
  5
1F5
330
1F
100
AcDbEntity
  8
0
  6
Continuous
 62
   254
370
    25
100
AcDbLine
 10
0.3179779587
 20
0.9181490884
 30
0.0
 11
0.3172317126
 21
1.0401612023
 31
0.0
  0
LINE
  5
1F6
330
1F
100
AcDbEntity
  8
0
  6
Continuous
 62
   254
370
    25
100
AcDbLine
 10
0.3817824783
 20
0.9942661005
 30
0.0
 11
0.381782518
 21
0.786808779
 31
0.0
  0
LINE
  5
1F7
330
1F
100
AcDbEntity
  8
0
  6
Continuous
 62
   254
370
    25
100
AcDbLine
 10
0.382062314
 20
1.0238830047
 30
0.0
 11
0.3817824783
 21
0.9942661005
 31
0.0
  0
LINE
  5
1F8
330
1F
100
AcDbEntity
  8
0
  6
Continuous
 62
   254
370
    25
100
AcDbLine
 10
0.3806630959
 20
1.0532199938
 30
0.0
 11
0.382062314
 21
1.0238830047
 31
0.0
  0
LINE
  5
1F9
330
1F
100
AcDbEntity
  8
0
  6
Continuous
 62
   254
370
    25
100
AcDbLine
 10
0.3774777207
 20
1.0665832782
 30
0.0
 11
0.3806630959
 21
1.0532199938
 31
0.0
  0
LINE
  5
1FA
330
1F
100
AcDbEntity
  8
0
  6
Continuous
 62
   254
370
    25
100
AcDbLine
 10
0.3716906378
 20
1.0783418373
 30
0.0
 11
0.3774777207
 21
1.0665832782
 31
0.0
  0
LINE
  5
1FB
330
1F
100
AcDbEntity
  8
0
  6
Continuous
 62
   254
370
    25
100
AcDbLine
 10
0.363498655
 20
1.0883950857
 30
0.0
 11
0.3716906378
 21
1.0783418373
 31
0.0
  0
LINE
  5
1FC
330
1F
100
AcDbEntity
  8
0
  6
Continuous
 62
   254
370
    25
100
AcDbLine
 10
0.3530985008
 20
1.0966424777
 30
0.0
 11
0.363498655
 21
1.0883950857
 31
0.0
  0
LINE
  5
1FD
330
1F
100
AcDbEntity
  8
0
  6
Continuous
 62
   254
370
    25
100
AcDbLine
 10
0.3406869697
 20
1.102983428
 30
0.0
 11
0.3530985008
 21
1.0966424777
 31
0.0
  0
LINE
  5
1FE
330
1F
100
AcDbEntity
  8
0
  6
Continuous
 62
   254
370
    25
100
AcDbLine
 10
0.3264608168
 20
1.1073173643
 30
0.0
 11
0.3406869697
 21
1.102983428
 31
0.0
  0
LINE
  5
1FF
330
1F
100
AcDbEntity
  8
0
  6
Continuous
 62
   254
370
    25
100
AcDbLine
 10
0.3106168232
 20
1.1095437278
 30
0.0
 11
0.3264608168
 21
1.1073173643
 31
0.0
  0
LINE
  5
200
330
1F
100
AcDbEntity
  8
0
  6
Continuous
 62
   254
370
    25
100
AcDbLine
 10
0.2933517441
 20
1.1095619464
 30
0.0
 11
0.3106168232
 21
1.1095437278
 31
0.0
  0
LINE
  5
201
330
1F
100
AcDbEntity
  8
0
  6
Continuous
 62
   254
370
    25
100
AcDbLine
 10
0.2792327209
 20
1.1074011855
 30
0.0
 11
0.2933517441
 21
1.1095619464
 31
0.0
  0
LINE
  5
202
330
1F
100
AcDbEntity
  8
0
  6
Continuous
 62
   254
370
    25
100
AcDbLine
 10
0.2663817502
 20
1.1029798054
 30
0.0
 11
0.2792327209
 21
1.1074011855
 31
0.0
  0
LINE
  5
203
330
1F
100
AcDbEntity
  8
0
  6
Continuous
 62
   254
370
    25
100
AcDbLine
 10
0.2549824586
 20
1.0964508526
 30
0.0
 11
0.2663817502
 21
1.1029798054
 31
0.0
  0
LINE
  5
204
330
1F
100
AcDbEntity
  8
0
  6
Continuous
 62
   254
370
    25
100
AcDbLine
 10
0.2452185121
 20
1.0879673467
 30
0.0
 11
0.2549824586
 21
1.0964508526
 31
0.0
  0
LINE
  5
205
330
1F
100
AcDbEntity
  8
0
  6
Continuous
 62
   254
370
    25
100
AcDbLine
 10
0.2372735373
 20
1.0776823342
 30
0.0
 11
0.2452185121
 21
1.0879673467
 31
0.0
  0
LINE
  5
206
330
1F
100
AcDbEntity
  8
0
  6
Continuous
 62
   254
370
    25
100
AcDbLine
 10
0.2313312134
 20
1.0657488745
 30
0.0
 11
0.2372735373
 21
1.0776823342
 31
0.0
  0
LINE
  5
207
330
1F
100
AcDbEntity
  8
0
  6
Continuous
 62
   254
370
    25
100
AcDbLine
 10
0.227575167
 20
1.0523200007
 30
0.0
 11
0.2313312134
 21
1.0657488745
 31
0.0
  0
LINE
  5
208
330
1F
100
AcDbEntity
  8
0
  6
Continuous
 62
   254
370
    25
100
AcDbLine
 10
0.2261890641
 20
1.0375487459
 30
0.0
 11
0.227575167
 21
1.0523200007
 31
0.0
  0
LINE
  5
209
330
1F
100
AcDbEntity
  8
0
  6
Continuous
 62
   254
370
    25
100
AcDbLine
 10
0.2261890641
 20
0.8300914244
 30
0.0
 11
0.2261890641
 21
1.0375487459
 31
0.0
  0
LINE
  5
20A
330
1F
100
AcDbEntity
  8
0
  6
Continuous
 62
   254
370
    25
100
AcDbLine
 10
0.2279329933
 20
0.8077242953
 30
0.0
 11
0.2261890641
 21
0.8300914244
 31
0.0
  0
LINE
  5
20B
330
1F
100
AcDbEntity
  8
0
  6
Continuous
 62
   254
370
    25
100
AcDbLine
 10
0.233074389
 20
0.7879981931
 30
0.0
 11
0.2279329933
 21
0.8077242953
 31
0.0
  0
LINE
  5
20C
330
1F
100
AcDbEntity
  8
0
  6
Continuous
 62
   254
370
    25
100
AcDbLine
 10
0.241477736
 20
0.7710355443
 30
0.0
 11
0.233074389
 21
0.7879981931
 31
0.0
  0
LINE
  5
20D
330
1F
100
AcDbEntity
  8
0
  6
Continuous
 62
   254
370
    25
100
AcDbLine
 10
0.253007466
 20
0.7569587886
 30
0.0
 11
0.241477736
 21
0.7710355443
 31
0.0
  0
LINE
  5
20E
330
1F
100
AcDbEntity
  8
0
  6
Continuous
 62
   254
370
    25
100
AcDbLine
 10
0.2675280374
 20
0.7458903525
 30
0.0
 11
0.253007466
 21
0.7569587886
 31
0.0
  0
LINE
  5
20F
330
1F
100
AcDbEntity
  8
0
  6
Continuous
 62
   254
370
    25
100
AcDbLine
 10
0.2849038953
 20
0.7379526889
 30
0.0
 11
0.2675280374
 21
0.7458903525
 31
0.0
  0
LINE
  5
210
330
1F
100
AcDbEntity
  8
0
  6
Continuous
 62
   254
370
    25
100
AcDbLine
 10
0.3049994848
 20
0.7332681977
 30
0.0
 11
0.2849038953
 21
0.7379526889
 31
0.0
  0
LINE
  5
211
330
1F
100
AcDbEntity
  8
0
  6
Continuous
 62
   254
370
    25
100
AcDbLine
 10
0.3276792773
 20
0.7319593452
 30
0.0
 11
0.3049994848
 21
0.7332681977
 31
0.0
  0
LINE
  5
212
330
1F
100
AcDbEntity
  8
0
  6
Continuous
 62
   254
370
    25
100
AcDbLine
 10
0.3503000382
 20
0.7360695293
 30
0.0
 11
0.3276792773
 21
0.7319593452
 31
0.0
  0
LINE
  5
213
330
1F
100
AcDbEntity
  8
0
  6
Continuous
 62
   254
370
    25
100
AcDbLine
 10
0.3595553067
 20
0.7406891318
 30
0.0
 11
0.3503000382
 21
0.7360695293
 31
0.0
  0
LINE
  5
214
330
1F
100
AcDbEntity
  8
0
  6
Continuous
 62
   254
370
    25
100
AcDbLine
 10
0.3673239002
 20
0.7469309774
 30
0.0
 11
0.3595553067
 21
0.7406891318
 31
0.0
  0
LINE
  5
215
330
1F
100
AcDbEntity
  8
0
  6
Continuous
 62
   254
370
    25
100
AcDbLine
 10
0.3735183749
 20
0.7547294372
 30
0.0
 11
0.3673239002
 21
0.7469309774
 31
0.0
  0
LINE
  5
216
330
1F
100
AcDbEntity
  8
0
  6
Continuous
 62
   254
370
    25
100
AcDbLine
 10
0.3780512609
 20
0.7640189613
 30
0.0
 11
0.3735183749
 21
0.7547294372
 31
0.0
  0
LINE
  5
217
330
1F
100
AcDbEntity
  8
0
  6
Continuous
 62
   254
370
    25
100
AcDbLine
 10
0.3808351275
 20
0.774733934
 30
0.0
 11
0.3780512609
 21
0.7640189613
 31
0.0
  0
LINE
  5
218
330
1F
100
AcDbEntity
  8
0
  6
Continuous
 62
   254
370
    25
100
AcDbLine
 10
0.381782518
 20
0.786808779
 30
0.0
 11
0.3808351275
 21
0.774733934
 31
0.0
  0
LINE
  5
219
330
1F
100
AcDbEntity
  8
0
  6
Continuous
 62
   254
370
    25
100
AcDbLine
 10
0.5436371069
 20
1.0998701337
 30
0.0
 11
0.5432639838
 21
0.6536111439
 31
0.0
  0
LINE
  5
21A
330
1F
100
AcDbEntity
  8
0
  6
Continuous
 62
   254
370
    25
100
AcDbLine
 10
0.487668251
 20
1.0998701337
 30
0.0
 11
0.5436371069
 21
1.0998701337
 31
0.0
  0
LINE
  5
21B
330
1F
100
AcDbEntity
  8
0
  6
Continuous
 62
   254
370
    25
100
AcDbLine
 10
0.487668251
 20
0.8767406388
 30
0.0
 11
0.487668251
 21
1.0998701337
 31
0.0
  0
LINE
  5
21C
330
1F
100
AcDbEntity
  8
0
  6
Continuous
 62
   254
370
    25
100
AcDbLine
 10
0.4823512011
 20
0.880331978
 30
0.0
 11
0.487668251
 21
0.8767406388
 31
0.0
  0
LINE
  5
21D
330
1F
100
AcDbEntity
  8
0
  6
Continuous
 62
   254
370
    25
100
AcDbLine
 10
0.480951983
 20
0.8842031529
 30
0.0
 11
0.4823512011
 21
0.880331978
 31
0.0
  0
LINE
  5
21E
330
1F
100
AcDbEntity
  8
0
  6
Continuous
 62
   254
370
    25
100
AcDbLine
 10
0.4511018736
 20
1.0819602267
 30
0.0
 11
0.480951983
 21
0.8842031529
 31
0.0
  0
LINE
  5
21F
330
1F
100
AcDbEntity
  8
0
  6
Continuous
 62
   254
370
    25
100
AcDbLine
 10
0.4489797312
 20
1.0912942263
 30
0.0
 11
0.4511018736
 21
1.0819602267
 31
0.0
  0
LINE
  5
220
330
1F
100
AcDbEntity
  8
0
  6
Continuous
 62
   254
370
    25
100
AcDbLine
 10
0.4450385908
 20
1.0975849103
 30
0.0
 11
0.4489797312
 21
1.0912942263
 31
0.0
  0
LINE
  5
221
330
1F
100
AcDbEntity
  8
0
  6
Continuous
 62
   254
370
    25
100
AcDbLine
 10
0.4387187677
 20
1.1010071661
 30
0.0
 11
0.4450385908
 21
1.0975849103
 31
0.0
  0
LINE
  5
222
330
1F
100
AcDbEntity
  8
0
  6
Continuous
 62
   254
370
    25
100
AcDbLine
 10
0.4294605509
 20
1.1017359341
 30
0.0
 11
0.4387187677
 21
1.1010071661
 31
0.0
  0
LINE
  5
223
330
1F
100
AcDbEntity
  8
0
  6
Continuous
 62
   254
370
    25
100
AcDbLine
 10
0.3966255363
 20
1.1017359341
 30
0.0
 11
0.4294605509
 21
1.1017359341
 31
0.0
  0
LINE
  5
224
330
1F
100
AcDbEntity
  8
0
  6
Continuous
 62
   254
370
    25
100
AcDbLine
 10
0.3940136617
 20
1.094646543
 30
0.0
 11
0.3966255363
 21
1.1017359341
 31
0.0
  0
LINE
  5
225
330
1F
100
AcDbEntity
  8
0
  6
Continuous
 62
   254
370
    25
100
AcDbLine
 10
0.3940136617
 20
0.7237591521
 30
0.0
 11
0.3940136617
 21
1.094646543
 31
0.0
  0
LINE
  5
226
330
1F
100
AcDbEntity
  8
0
  6
Continuous
 62
   254
370
    25
100
AcDbLine
 10
0.3972318646
 20
0.714291052
 30
0.0
 11
0.3940136617
 21
0.7237591521
 31
0.0
  0
LINE
  5
227
330
1F
100
AcDbEntity
  8
0
  6
Continuous
 62
   254
370
    25
100
AcDbLine
 10
0.4040880505
 20
0.7073415787
 30
0.0
 11
0.3972318646
 21
0.714291052
 31
0.0
  0
LINE
  5
228
330
1F
100
AcDbEntity
  8
0
  6
Continuous
 62
   254
370
    25
100
AcDbLine
 10
0.4245166108
 20
0.6999256554
 30
0.0
 11
0.4040880505
 21
0.7073415787
 31
0.0
  0
LINE
  5
229
330
1F
100
AcDbEntity
  8
0
  6
Continuous
 62
   254
370
    25
100
AcDbLine
 10
0.4488630823
 20
0.6927896207
 30
0.0
 11
0.4245166108
 21
0.6999256554
 31
0.0
  0
LINE
  5
22A
330
1F
100
AcDbEntity
  8
0
  6
Continuous
 62
   254
370
    25
100
AcDbLine
 10
0.4488630823
 20
0.8230105212
 30
0.0
 11
0.4488630823
 21
0.6927896207
 31
0.0
  0
LINE
  5
22B
330
1F
100
AcDbEntity
  8
0
  6
Continuous
 62
   254
370
    25
100
AcDbLine
 10
0.4565588017
 20
0.8145219517
 30
0.0
 11
0.4488630823
 21
0.8230105212
 31
0.0
  0
LINE
  5
22C
330
1F
100
AcDbEntity
  8
0
  6
Continuous
 62
   254
370
    25
100
AcDbLine
 10
0.4600568535
 20
0.805473658
 30
0.0
 11
0.4565588017
 21
0.8145219517
 31
0.0
  0
LINE
  5
22D
330
1F
100
AcDbEntity
  8
0
  6
Continuous
 62
   254
370
    25
100
AcDbLine
 10
0.4858025034
 20
0.6931628495
 30
0.0
 11
0.4600568535
 21
0.805473658
 31
0.0
  0
LINE
  5
22E
330
1F
100
AcDbEntity
  8
0
  6
Continuous
 62
   254
370
    25
100
AcDbLine
 10
0.4904665814
 20
0.6815026811
 30
0.0
 11
0.4858025034
 21
0.6931628495
 31
0.0
  0
LINE
  5
22F
330
1F
100
AcDbEntity
  8
0
  6
Continuous
 62
   254
370
    25
100
AcDbLine
 10
0.4984887801
 20
0.6726409489
 30
0.0
 11
0.4904665814
 21
0.6815026811
 31
0.0
  0
LINE
  5
230
330
1F
100
AcDbEntity
  8
0
  6
Continuous
 62
   254
370
    25
100
AcDbLine
 10
0.5191972158
 20
0.6628464222
 30
0.0
 11
0.4984887801
 21
0.6726409489
 31
0.0
  0
LINE
  5
231
330
1F
100
AcDbEntity
  8
0
  6
Continuous
 62
   254
370
    25
100
AcDbLine
 10
0.5432639838
 20
0.6536111439
 30
0.0
 11
0.5191972158
 21
0.6628464222
 31
0.0
  0
LINE
  5
232
330
1F
100
AcDbEntity
  8
0
  6
Continuous
 62
   254
370
    25
100
AcDbLine
 10
0.5602234463
 20
1.0729992312
 30
0.0
 11
0.5605965826
 21
1.1009837253
 31
0.0
  0
LINE
  5
233
330
1F
100
AcDbEntity
  8
0
  6
Continuous
 62
   254
370
    25
100
AcDbLine
 10
0.5605499389
 20
0.8821453571
 30
0.0
 11
0.5602234463
 21
1.0729992312
 31
0.0
  0
LINE
  5
234
330
1F
100
AcDbEntity
  8
0
  6
Continuous
 62
   254
370
    25
100
AcDbLine
 10
0.5594772002
 20
0.6912917739
 30
0.0
 11
0.5605499389
 21
0.8821453571
 31
0.0
  0
LINE
  5
235
330
1F
100
AcDbEntity
  8
0
  6
Continuous
 62
   254
370
    25
100
AcDbLine
 10
0.5604683389
 20
0.6678373233
 30
0.0
 11
0.5594772002
 21
0.6912917739
 31
0.0
  0
LINE
  5
236
330
1F
100
AcDbEntity
  8
0
  6
Continuous
 62
   254
370
    25
100
AcDbLine
 10
0.5660069331
 20
0.6483356608
 30
0.0
 11
0.5604683389
 21
0.6678373233
 31
0.0
  0
LINE
  5
237
330
1F
100
AcDbEntity
  8
0
  6
Continuous
 62
   254
370
    25
100
AcDbLine
 10
0.5711592758
 20
0.6400343271
 30
0.0
 11
0.5660069331
 21
0.6483356608
 31
0.0
  0
LINE
  5
238
330
1F
100
AcDbEntity
  8
0
  6
Continuous
 62
   254
370
    25
100
AcDbLine
 10
0.5782617953
 20
0.6326818514
 30
0.0
 11
0.5711592758
 21
0.6400343271
 31
0.0
  0
LINE
  5
239
330
1F
100
AcDbEntity
  8
0
  6
Continuous
 62
   254
370
    25
100
AcDbLine
 10
0.5875855618
 20
0.6262650919
 30
0.0
 11
0.5782617953
 21
0.6326818514
 31
0.0
  0
LINE
  5
23A
330
1F
100
AcDbEntity
  8
0
  6
Continuous
 62
   254
370
    25
100
AcDbLine
 10
0.5994017116
 20
0.6207709599
 30
0.0
 11
0.5875855618
 21
0.6262650919
 31
0.0
  0
LINE
  5
23B
330
1F
100
AcDbEntity
  8
0
  6
Continuous
 62
   254
370
    25
100
AcDbLine
 10
0.6153586653
 20
0.6131977331
 30
0.0
 11
0.5994017116
 21
0.6207709599
 31
0.0
  0
LINE
  5
23C
330
1F
100
AcDbEntity
  8
0
  6
Continuous
 62
   254
370
    25
100
AcDbLine
 10
0.6305110683
 20
0.6035606025
 30
0.0
 11
0.6153586653
 21
0.6131977331
 31
0.0
  0
LINE
  5
23D
330
1F
100
AcDbEntity
  8
0
  6
Continuous
 62
   254
370
    25
100
AcDbLine
 10
0.6602212202
 20
0.5827121961
 30
0.0
 11
0.6305110683
 21
0.6035606025
 31
0.0
  0
LINE
  5
23E
330
1F
100
AcDbEntity
  8
0
  6
Continuous
 62
   254
370
    25
100
AcDbLine
 10
0.6770118902
 20
0.5733840534
 30
0.0
 11
0.6602212202
 21
0.5827121961
 31
0.0
  0
LINE
  5
23F
330
1F
100
AcDbEntity
  8
0
  6
Continuous
 62
   254
370
    25
100
AcDbLine
 10
0.6764988361
 20
0.6046333148
 30
0.0
 11
0.6770118902
 21
0.5733840534
 31
0.0
  0
LINE
  5
240
330
1F
100
AcDbEntity
  8
0
  6
Continuous
 62
   254
370
    25
100
AcDbLine
 10
0.6773850133
 20
0.63308414
 30
0.0
 11
0.6764988361
 21
0.6046333148
 31
0.0
  0
LINE
  5
241
330
1F
100
AcDbEntity
  8
0
  6
Continuous
 62
   254
370
    25
100
AcDbLine
 10
0.6773558345
 20
0.6502595411
 30
0.0
 11
0.6773850133
 21
0.63308414
 31
0.0
  0
LINE
  5
242
330
1F
100
AcDbEntity
  8
0
  6
Continuous
 62
   254
370
    25
100
AcDbLine
 10
0.6729541141
 20
0.6644266358
 30
0.0
 11
0.6773558345
 21
0.6502595411
 31
0.0
  0
LINE
  5
243
330
1F
100
AcDbEntity
  8
0
  6
Continuous
 62
   254
370
    25
100
AcDbLine
 10
0.6635851715
 20
0.6757953208
 30
0.0
 11
0.6729541141
 21
0.6644266358
 31
0.0
  0
LINE
  5
244
330
1F
100
AcDbEntity
  8
0
  6
Continuous
 62
   254
370
    25
100
AcDbLine
 10
0.648654326
 20
0.6845754398
 30
0.0
 11
0.6635851715
 21
0.6757953208
 31
0.0
  0
LINE
  5
245
330
1F
100
AcDbEntity
  8
0
  6
Continuous
 62
   254
370
    25
100
AcDbLine
 10
0.6344289134
 20
0.6934371588
 30
0.0
 11
0.648654326
 21
0.6845754398
 31
0.0
  0
LINE
  5
246
330
1F
100
AcDbEntity
  8
0
  6
Continuous
 62
   254
370
    25
100
AcDbLine
 10
0.6289777761
 20
0.6992672496
 30
0.0
 11
0.6344289134
 21
0.6934371588
 31
0.0
  0
LINE
  5
247
330
1F
100
AcDbEntity
  8
0
  6
Continuous
 62
   254
370
    25
100
AcDbLine
 10
0.6266399067
 20
0.7050973404
 30
0.0
 11
0.6289777761
 21
0.6992672496
 31
0.0
  0
LINE
  5
248
330
1F
100
AcDbEntity
  8
0
  6
Continuous
 62
   254
370
    25
100
AcDbLine
 10
0.6252406886
 20
0.769181775
 30
0.0
 11
0.6266399067
 21
0.7050973404
 31
0.0
  0
LINE
  5
249
330
1F
100
AcDbEntity
  8
0
  6
Continuous
 62
   254
370
    25
100
AcDbLine
 10
0.6255205375
 20
0.8349451444
 30
0.0
 11
0.6252406886
 21
0.769181775
 31
0.0
  0
LINE
  5
24A
330
1F
100
AcDbEntity
  8
0
  6
Continuous
 62
   254
370
    25
100
AcDbLine
 10
0.6699224727
 20
0.8289751357
 30
0.0
 11
0.6255205375
 21
0.8349451444
 31
0.0
  0
LINE
  5
24B
330
1F
100
AcDbEntity
  8
0
  6
Continuous
 62
   254
370
    25
100
AcDbLine
 10
0.6695493364
 20
0.8484243241
 30
0.0
 11
0.6699224727
 21
0.8289751357
 31
0.0
  0
LINE
  5
24C
330
1F
100
AcDbEntity
  8
0
  6
Continuous
 62
   254
370
    25
100
AcDbLine
 10
0.6702955958
 20
0.8659146097
 30
0.0
 11
0.6695493364
 21
0.8484243241
 31
0.0
  0
LINE
  5
24D
330
1F
100
AcDbEntity
  8
0
  6
Continuous
 62
   254
370
    25
100
AcDbLine
 10
0.6708202844
 20
0.8824603607
 30
0.0
 11
0.6702955958
 21
0.8659146097
 31
0.0
  0
LINE
  5
24E
330
1F
100
AcDbEntity
  8
0
  6
Continuous
 62
   254
370
    25
100
AcDbLine
 10
0.6663777375
 20
0.8950183672
 30
0.0
 11
0.6708202844
 21
0.8824603607
 31
0.0
  0
LINE
  5
24F
330
1F
100
AcDbEntity
  8
0
  6
Continuous
 62
   254
370
    25
100
AcDbLine
 10
0.6563383183
 20
0.9033787062
 30
0.0
 11
0.6663777375
 21
0.8950183672
 31
0.0
  0
LINE
  5
250
330
1F
100
AcDbEntity
  8
0
  6
Continuous
 62
   254
370
    25
100
AcDbLine
 10
0.6400723898
 20
0.9073315076
 30
0.0
 11
0.6563383183
 21
0.9033787062
 31
0.0
  0
LINE
  5
251
330
1F
100
AcDbEntity
  8
0
  6
Continuous
 62
   254
370
    25
100
AcDbLine
 10
0.6326506757
 20
0.9092612183
 30
0.0
 11
0.6400723898
 21
0.9073315076
 31
0.0
  0
LINE
  5
252
330
1F
100
AcDbEntity
  8
0
  6
Continuous
 62
   254
370
    25
100
AcDbLine
 10
0.627992415
 20
0.9132548197
 30
0.0
 11
0.6326506757
 21
0.9092612183
 31
0.0
  0
LINE
  5
253
330
1F
100
AcDbEntity
  8
0
  6
Continuous
 62
   254
370
    25
100
AcDbLine
 10
0.6256428846
 20
0.9191373714
 30
0.0
 11
0.627992415
 21
0.9132548197
 31
0.0
  0
LINE
  5
254
330
1F
100
AcDbEntity
  8
0
  6
Continuous
 62
   254
370
    25
100
AcDbLine
 10
0.6251473351
 20
0.9267339861
 30
0.0
 11
0.6256428846
 21
0.9191373714
 31
0.0
  0
LINE
  5
255
330
1F
100
AcDbEntity
  8
0
  6
Continuous
 62
   254
370
    25
100
AcDbLine
 10
0.6255204581
 20
1.009567914
 30
0.0
 11
0.6251473351
 21
0.9267339861
 31
0.0
  0
LINE
  5
256
330
1F
100
AcDbEntity
  8
0
  6
Continuous
 62
   254
370
    25
100
AcDbLine
 10
0.6260743123
 20
1.0307428131
 30
0.0
 11
0.6255204581
 21
1.009567914
 31
0.0
  0
LINE
  5
257
330
1F
100
AcDbEntity
  8
0
  6
Continuous
 62
   254
370
    25
100
AcDbLine
 10
0.6299513309
 20
1.0418432969
 30
0.0
 11
0.6260743123
 21
1.0307428131
 31
0.0
  0
LINE
  5
258
330
1F
100
AcDbEntity
  8
0
  6
Continuous
 62
   254
370
    25
100
AcDbLine
 10
0.6404746387
 20
1.0465073748
 30
0.0
 11
0.6299513309
 21
1.0418432969
 31
0.0
  0
LINE
  5
259
330
1F
100
AcDbEntity
  8
0
  6
Continuous
 62
   254
370
    25
100
AcDbLine
 10
0.6609674135
 20
1.0483730034
 30
0.0
 11
0.6404746387
 21
1.0465073748
 31
0.0
  0
LINE
  5
25A
330
1F
100
AcDbEntity
  8
0
  6
Continuous
 62
   254
370
    25
100
AcDbLine
 10
0.6684299276
 20
1.050611755
 30
0.0
 11
0.6609674135
 21
1.0483730034
 31
0.0
  0
LINE
  5
25B
330
1F
100
AcDbEntity
  8
0
  6
Continuous
 62
   254
370
    25
100
AcDbLine
 10
0.6684299276
 20
1.100983765
 30
0.0
 11
0.6684299276
 21
1.050611755
 31
0.0
  0
LINE
  5
25C
330
1F
100
AcDbEntity
  8
0
  6
Continuous
 62
   254
370
    25
100
AcDbLine
 10
0.5605965826
 20
1.1009837253
 30
0.0
 11
0.6684299276
 21
1.100983765
 31
0.0
  0
LINE
  5
25D
330
1F
100
AcDbEntity
  8
0
  6
Continuous
 62
   254
370
    25
100
AcDbLine
 10
0.6945194425
 20
1.0996634894
 30
0.0
 11
0.7389213777
 21
1.0992903664
 31
0.0
  0
LINE
  5
25E
330
1F
100
AcDbEntity
  8
0
  6
Continuous
 62
   254
370
    25
100
AcDbLine
 10
0.6865263564
 20
1.0987598738
 30
0.0
 11
0.6945194425
 21
1.0996634894
 31
0.0
  0
LINE
  5
25F
330
1F
100
AcDbEntity
  8
0
  6
Continuous
 62
   254
370
    25
100
AcDbLine
 10
0.6817864825
 20
1.0955125185
 30
0.0
 11
0.6865263564
 21
1.0987598738
 31
0.0
  0
LINE
  5
260
330
1F
100
AcDbEntity
  8
0
  6
Continuous
 62
   254
370
    25
100
AcDbLine
 10
0.6797750924
 20
1.0899564329
 30
0.0
 11
0.6817864825
 21
1.0955125185
 31
0.0
  0
LINE
  5
261
330
1F
100
AcDbEntity
  8
0
  6
Continuous
 62
   254
370
    25
100
AcDbLine
 10
0.6799674844
 20
1.0821266262
 30
0.0
 11
0.6797750924
 21
1.0899564329
 31
0.0
  0
LINE
  5
262
330
1F
100
AcDbEntity
  8
0
  6
Continuous
 62
   254
370
    25
100
AcDbLine
 10
0.7124294024
 20
0.8425792935
 30
0.0
 11
0.6799674844
 21
1.0821266262
 31
0.0
  0
LINE
  5
263
330
1F
100
AcDbEntity
  8
0
  6
Continuous
 62
   254
370
    25
100
AcDbLine
 10
0.7246959123
 20
0.7411359487
 30
0.0
 11
0.7124294024
 21
0.8425792935
 31
0.0
  0
LINE
  5
264
330
1F
100
AcDbEntity
  8
0
  6
Continuous
 62
   254
370
    25
100
AcDbLine
 10
0.7279082847
 20
0.6901518593
 30
0.0
 11
0.7246959123
 21
0.7411359487
 31
0.0
  0
LINE
  5
265
330
1F
100
AcDbEntity
  8
0
  6
Continuous
 62
   254
370
    25
100
AcDbLine
 10
0.7277275537
 20
0.6388529382
 30
0.0
 11
0.7279082847
 21
0.6901518593
 31
0.0
  0
LINE
  5
266
330
1F
100
AcDbEntity
  8
0
  6
Continuous
 62
   254
370
    25
100
AcDbLine
 10
0.727027938
 20
0.5875481867
 30
0.0
 11
0.7277275537
 21
0.6388529382
 31
0.0
  0
LINE
  5
267
330
1F
100
AcDbEntity
  8
0
  6
Continuous
 62
   254
370
    25
100
AcDbLine
 10
0.7277275537
 20
0.5362434351
 30
0.0
 11
0.727027938
 21
0.5875481867
 31
0.0
  0
LINE
  5
268
330
1F
100
AcDbEntity
  8
0
  6
Continuous
 62
   254
370
    25
100
AcDbLine
 10
0.7283805256
 20
0.5251429645
 30
0.0
 11
0.7277275537
 21
0.5362434351
 31
0.0
  0
LINE
  5
269
330
1F
100
AcDbEntity
  8
0
  6
Continuous
 62
   254
370
    25
100
AcDbLine
 10
0.7318319338
 20
0.5157215345
 30
0.0
 11
0.7283805256
 21
0.5251429645
 31
0.0
  0
LINE
  5
26A
330
1F
100
AcDbEntity
  8
0
  6
Continuous
 62
   254
370
    25
100
AcDbLine
 10
0.7855620778
 20
0.4519169885
 30
0.0
 11
0.7318319338
 21
0.5157215345
 31
0.0
  0
LINE
  5
26B
330
1F
100
AcDbEntity
  8
0
  6
Continuous
 62
   254
370
    25
100
AcDbLine
 10
0.7926514689
 20
0.4519169885
 30
0.0
 11
0.7855620778
 21
0.4519169885
 31
0.0
  0
LINE
  5
26C
330
1F
100
AcDbEntity
  8
0
  6
Continuous
 62
   254
370
    25
100
AcDbLine
 10
0.7876295778
 20
0.5333111099
 30
0.0
 11
0.7926514689
 21
0.4519169885
 31
0.0
  0
LINE
  5
26D
330
1F
100
AcDbEntity
  8
0
  6
Continuous
 62
   254
370
    25
100
AcDbLine
 10
0.7871770097
 20
0.6143903467
 30
0.0
 11
0.7876295778
 21
0.5333111099
 31
0.0
  0
LINE
  5
26E
330
1F
100
AcDbEntity
  8
0
  6
Continuous
 62
   254
370
    25
100
AcDbLine
 10
0.7905460775
 20
0.6952246645
 30
0.0
 11
0.7871770097
 21
0.6143903467
 31
0.0
  0
LINE
  5
26F
330
1F
100
AcDbEntity
  8
0
  6
Continuous
 62
   254
370
    25
100
AcDbLine
 10
0.7969890674
 20
0.775884042
 30
0.0
 11
0.7905460775
 21
0.6952246645
 31
0.0
  0
LINE
  5
270
330
1F
100
AcDbEntity
  8
0
  6
Continuous
 62
   254
370
    25
100
AcDbLine
 10
0.8161059327
 20
0.9369577986
 30
0.0
 11
0.7969890674
 21
0.775884042
 31
0.0
  0
LINE
  5
271
330
1F
100
AcDbEntity
  8
0
  6
Continuous
 62
   254
370
    25
100
AcDbLine
 10
0.8385459228
 20
1.0981713674
 30
0.0
 11
0.8161059327
 21
0.9369577986
 31
0.0
  0
LINE
  5
272
330
1F
100
AcDbEntity
  8
0
  6
Continuous
 62
   254
370
    25
100
AcDbLine
 10
0.7777264142
 20
1.0981713674
 30
0.0
 11
0.8385459228
 21
1.0981713674
 31
0.0
  0
LINE
  5
273
330
1F
100
AcDbEntity
  8
0
  6
Continuous
 62
   254
370
    25
100
AcDbLine
 10
0.7620551662
 20
0.9246682181
 30
0.0
 11
0.7777264142
 21
1.0981713674
 31
0.0
  0
LINE
  5
274
330
1F
100
AcDbEntity
  8
0
  6
Continuous
 62
   254
370
    25
100
AcDbLine
 10
0.7560851576
 20
0.9250413412
 30
0.0
 11
0.7620551662
 21
0.9246682181
 31
0.0
  0
LINE
  5
275
330
1F
100
AcDbEntity
  8
0
  6
Continuous
 62
   254
370
    25
100
AcDbLine
 10
0.7389213777
 20
1.0992903664
 30
0.0
 11
0.7560851576
 21
0.9250413412
 31
0.0
  0
LINE
  5
276
330
1F
100
AcDbEntity
  8
0
  6
Continuous
 62
   254
370
    25
100
AcDbLine
 10
0.5963781747
 20
-1.1836644767
 30
0.0
 11
0.5956319285
 21
-1.136277504
 31
0.0
  0
LINE
  5
277
330
1F
100
AcDbEntity
  8
0
  6
Continuous
 62
   254
370
    25
100
AcDbLine
 10
0.5973459651
 20
-1.1968842207
 30
0.0
 11
0.5963781747
 21
-1.1836644767
 31
0.0
  0
LINE
  5
278
330
1F
100
AcDbEntity
  8
0
  6
Continuous
 62
   254
370
    25
100
AcDbLine
 10
0.6002027059
 20
-1.2090370564
 30
0.0
 11
0.5973459651
 21
-1.1968842207
 31
0.0
  0
LINE
  5
279
330
1F
100
AcDbEntity
  8
0
  6
Continuous
 62
   254
370
    25
100
AcDbLine
 10
0.6048784315
 20
-1.2200005442
 30
0.0
 11
0.6002027059
 21
-1.2090370564
 31
0.0
  0
LINE
  5
27A
330
1F
100
AcDbEntity
  8
0
  6
Continuous
 62
   254
370
    25
100
AcDbLine
 10
0.6113031765
 20
-1.2296522576
 30
0.0
 11
0.6048784315
 21
-1.2200005442
 31
0.0
  0
LINE
  5
27B
330
1F
100
AcDbEntity
  8
0
  6
Continuous
 62
   254
370
    25
100
AcDbLine
 10
0.6194070016
 20
-1.2378697702
 30
0.0
 11
0.6113031765
 21
-1.2296522576
 31
0.0
  0
LINE
  5
27C
330
1F
100
AcDbEntity
  8
0
  6
Continuous
 62
   254
370
    25
100
AcDbLine
 10
0.6291199151
 20
-1.2445306554
 30
0.0
 11
0.6194070016
 21
-1.2378697702
 31
0.0
  0
LINE
  5
27D
330
1F
100
AcDbEntity
  8
0
  6
Continuous
 62
   254
370
    25
100
AcDbLine
 10
0.6403719776
 20
-1.2495124604
 30
0.0
 11
0.6291199151
 21
-1.2445306554
 31
0.0
  0
LINE
  5
27E
330
1F
100
AcDbEntity
  8
0
  6
Continuous
 62
   254
370
    25
100
AcDbLine
 10
0.6530932238
 20
-1.252692772
 30
0.0
 11
0.6403719776
 21
-1.2495124604
 31
0.0
  0
LINE
  5
27F
330
1F
100
AcDbEntity
  8
0
  6
Continuous
 62
   254
370
    25
100
AcDbLine
 10
0.6885868228
 20
-1.2567038779
 30
0.0
 11
0.6530932238
 21
-1.252692772
 31
0.0
  0
LINE
  5
280
330
1F
100
AcDbEntity
  8
0
  6
Continuous
 62
   254
370
    25
100
AcDbLine
 10
0.7243602311
 20
-1.2567971521
 30
0.0
 11
0.6885868228
 21
-1.2567038779
 31
0.0
  0
LINE
  5
281
330
1F
100
AcDbEntity
  8
0
  6
Continuous
 62
   254
370
    25
100
AcDbLine
 10
0.7450009356
 20
-1.2542800191
 30
0.0
 11
0.7243602311
 21
-1.2567971521
 31
0.0
  0
LINE
  5
282
330
1F
100
AcDbEntity
  8
0
  6
Continuous
 62
   254
370
    25
100
AcDbLine
 10
0.762506518
 20
-1.2494629213
 30
0.0
 11
0.7450009356
 21
-1.2542800191
 31
0.0
  0
LINE
  5
283
330
1F
100
AcDbEntity
  8
0
  6
Continuous
 62
   254
370
    25
100
AcDbLine
 10
0.7769950284
 20
-1.2422496495
 30
0.0
 11
0.762506518
 21
-1.2494629213
 31
0.0
  0
LINE
  5
284
330
1F
100
AcDbEntity
  8
0
  6
Continuous
 62
   254
370
    25
100
AcDbLine
 10
0.7885845306
 20
-1.2325440076
 30
0.0
 11
0.7769950284
 21
-1.2422496495
 31
0.0
  0
LINE
  5
285
330
1F
100
AcDbEntity
  8
0
  6
Continuous
 62
   254
370
    25
100
AcDbLine
 10
0.7973930747
 20
-1.2202497997
 30
0.0
 11
0.7885845306
 21
-1.2325440076
 31
0.0
  0
LINE
  5
286
330
1F
100
AcDbEntity
  8
0
  6
Continuous
 62
   254
370
    25
100
AcDbLine
 10
0.8035387244
 20
-1.205270843
 30
0.0
 11
0.7973930747
 21
-1.2202497997
 31
0.0
  0
LINE
  5
287
330
1F
100
AcDbEntity
  8
0
  6
Continuous
 62
   254
370
    25
100
AcDbLine
 10
0.8071395431
 20
-1.1875109283
 30
0.0
 11
0.8035387244
 21
-1.205270843
 31
0.0
  0
LINE
  5
288
330
1F
100
AcDbEntity
  8
0
  6
Continuous
 62
   254
370
    25
100
AcDbLine
 10
0.8083135811
 20
-1.1668738595
 30
0.0
 11
0.8071395431
 21
-1.1875109283
 31
0.0
  0
LINE
  5
289
330
1F
100
AcDbEntity
  8
0
  6
Continuous
 62
   254
370
    25
100
AcDbLine
 10
0.808966553
 20
-1.1546539801
 30
0.0
 11
0.8083135811
 21
-1.1668738595
 31
0.0
  0
LINE
  5
28A
330
1F
100
AcDbEntity
  8
0
  6
Continuous
 62
   254
370
    25
100
AcDbLine
 10
0.807940458
 20
-1.1429938249
 30
0.0
 11
0.808966553
 21
-1.1546539801
 31
0.0
  0
LINE
  5
28B
330
1F
100
AcDbEntity
  8
0
  6
Continuous
 62
   254
370
    25
100
AcDbLine
 10
0.8006645186
 20
-1.1185541189
 30
0.0
 11
0.807940458
 21
-1.1429938249
 31
0.0
  0
LINE
  5
28C
330
1F
100
AcDbEntity
  8
0
  6
Continuous
 62
   254
370
    25
100
AcDbLine
 10
0.7957672487
 20
-1.1074186391
 30
0.0
 11
0.8006645186
 21
-1.1185541189
 31
0.0
  0
LINE
  5
28D
330
1F
100
AcDbEntity
  8
0
  6
Continuous
 62
   254
370
    25
100
AcDbLine
 10
0.7889110761
 20
-1.0985918897
 30
0.0
 11
0.7957672487
 21
-1.1074186391
 31
0.0
  0
LINE
  5
28E
330
1F
100
AcDbEntity
  8
0
  6
Continuous
 62
   254
370
    25
100
AcDbLine
 10
0.7519249981
 20
-1.0704209002
 30
0.0
 11
0.7889110761
 21
-1.0985918897
 31
0.0
  0
LINE
  5
28F
330
1F
100
AcDbEntity
  8
0
  6
Continuous
 62
   254
370
    25
100
AcDbLine
 10
0.7124203195
 20
-1.0456080711
 30
0.0
 11
0.7519249981
 21
-1.0704209002
 31
0.0
  0
LINE
  5
290
330
1F
100
AcDbEntity
  8
0
  6
Continuous
 62
   254
370
    25
100
AcDbLine
 10
0.6962243433
 20
-1.0343676827
 30
0.0
 11
0.7124203195
 21
-1.0456080711
 31
0.0
  0
LINE
  5
291
330
1F
100
AcDbEntity
  8
0
  6
Continuous
 62
   254
370
    25
100
AcDbLine
 10
0.6863948207
 20
-1.0231272811
 30
0.0
 11
0.6962243433
 21
-1.0343676827
 31
0.0
  0
LINE
  5
292
330
1F
100
AcDbEntity
  8
0
  6
Continuous
 62
   254
370
    25
100
AcDbLine
 10
0.6823021015
 20
-1.0095081835
 30
0.0
 11
0.6863948207
 21
-1.0231272811
 31
0.0
  0
LINE
  5
293
330
1F
100
AcDbEntity
  8
0
  6
Continuous
 62
   254
370
    25
100
AcDbLine
 10
0.6833165356
 20
-0.9911317339
 30
0.0
 11
0.6823021015
 21
-1.0095081835
 31
0.0
  0
LINE
  5
294
330
1F
100
AcDbEntity
  8
0
  6
Continuous
 62
   254
370
    25
100
AcDbLine
 10
0.6855027734
 20
-0.9860012852
 30
0.0
 11
0.6833165356
 21
-0.9911317339
 31
0.0
  0
LINE
  5
295
330
1F
100
AcDbEntity
  8
0
  6
Continuous
 62
   254
370
    25
100
AcDbLine
 10
0.689612984
 20
-0.9811506722
 30
0.0
 11
0.6855027734
 21
-0.9860012852
 31
0.0
  0
LINE
  5
296
330
1F
100
AcDbEntity
  8
0
  6
Continuous
 62
   254
370
    25
100
AcDbLine
 10
0.6989877835
 20
-0.9717292553
 30
0.0
 11
0.689612984
 21
-0.9811506722
 31
0.0
  0
LINE
  5
297
330
1F
100
AcDbEntity
  8
0
  6
Continuous
 62
   254
370
    25
100
AcDbLine
 10
0.7101349507
 20
-0.9803111651
 30
0.0
 11
0.6989877835
 21
-0.9717292553
 31
0.0
  0
LINE
  5
298
330
1F
100
AcDbEntity
  8
0
  6
Continuous
 62
   254
370
    25
100
AcDbLine
 10
0.7187634909
 20
-0.990012444
 30
0.0
 11
0.7101349507
 21
-0.9803111651
 31
0.0
  0
LINE
  5
299
330
1F
100
AcDbEntity
  8
0
  6
Continuous
 62
   254
370
    25
100
AcDbLine
 10
0.7215152966
 20
-1.0038181031
 30
0.0
 11
0.7187634909
 21
-0.990012444
 31
0.0
  0
LINE
  5
29A
330
1F
100
AcDbEntity
  8
0
  6
Continuous
 62
   254
370
    25
100
AcDbLine
 10
0.7217485019
 20
-1.0187431313
 30
0.0
 11
0.7215152966
 21
-1.0038181031
 31
0.0
  0
LINE
  5
29B
330
1F
100
AcDbEntity
  8
0
  6
Continuous
 62
   254
370
    25
100
AcDbLine
 10
0.8015973924
 20
-1.0187431313
 30
0.0
 11
0.7217485019
 21
-1.0187431313
 31
0.0
  0
LINE
  5
29C
330
1F
100
AcDbEntity
  8
0
  6
Continuous
 62
   254
370
    25
100
AcDbLine
 10
0.8037341572
 20
-0.9982664333
 30
0.0
 11
0.8015973924
 21
-1.0187431313
 31
0.0
  0
LINE
  5
29D
330
1F
100
AcDbEntity
  8
0
  6
Continuous
 62
   254
370
    25
100
AcDbLine
 10
0.8023903351
 20
-0.9800197346
 30
0.0
 11
0.8037341572
 21
-0.9982664333
 31
0.0
  0
LINE
  5
29E
330
1F
100
AcDbEntity
  8
0
  6
Continuous
 62
   254
370
    25
100
AcDbLine
 10
0.797688379
 20
-0.9641342139
 30
0.0
 11
0.8023903351
 21
-0.9800197346
 31
0.0
  0
LINE
  5
29F
330
1F
100
AcDbEntity
  8
0
  6
Continuous
 62
   254
370
    25
100
AcDbLine
 10
0.7897507154
 20
-0.9507410501
 30
0.0
 11
0.797688379
 21
-0.9641342139
 31
0.0
  0
LINE
  5
2A0
330
1F
100
AcDbEntity
  8
0
  6
Continuous
 62
   254
370
    25
100
AcDbLine
 10
0.7786997838
 20
-0.9399714086
 30
0.0
 11
0.7897507154
 21
-0.9507410501
 31
0.0
  0
LINE
  5
2A1
330
1F
100
AcDbEntity
  8
0
  6
Continuous
 62
   254
370
    25
100
AcDbLine
 10
0.7646579977
 20
-0.9319564946
 30
0.0
 11
0.7786997838
 21
-0.9399714086
 31
0.0
  0
LINE
  5
2A2
330
1F
100
AcDbEntity
  8
0
  6
Continuous
 62
   254
370
    25
100
AcDbLine
 10
0.7477478231
 20
-0.9268274605
 30
0.0
 11
0.7646579977
 21
-0.9319564946
 31
0.0
  0
LINE
  5
2A3
330
1F
100
AcDbEntity
  8
0
  6
Continuous
 62
   254
370
    25
100
AcDbLine
 10
0.7280916732
 20
-0.9247155116
 30
0.0
 11
0.7477478231
 21
-0.9268274605
 31
0.0
  0
LINE
  5
2A4
330
1F
100
AcDbEntity
  8
0
  6
Continuous
 62
   254
370
    25
100
AcDbLine
 10
0.673615336
 20
-0.9247155116
 30
0.0
 11
0.7280916732
 21
-0.9247155116
 31
0.0
  0
LINE
  5
2A5
330
1F
100
AcDbEntity
  8
0
  6
Continuous
 62
   254
370
    25
100
AcDbLine
 10
0.6494554525
 20
-0.9274323477
 30
0.0
 11
0.673615336
 21
-0.9247155116
 31
0.0
  0
LINE
  5
2A6
330
1F
100
AcDbEntity
  8
0
  6
Continuous
 62
   254
370
    25
100
AcDbLine
 10
0.6286537162
 20
-0.9360958575
 30
0.0
 11
0.6494554525
 21
-0.9274323477
 31
0.0
  0
LINE
  5
2A7
330
1F
100
AcDbEntity
  8
0
  6
Continuous
 62
   254
370
    25
100
AcDbLine
 10
0.612329483
 20
-0.9506360753
 30
0.0
 11
0.6286537162
 21
-0.9360958575
 31
0.0
  0
LINE
  5
2A8
330
1F
100
AcDbEntity
  8
0
  6
Continuous
 62
   254
370
    25
100
AcDbLine
 10
0.6061962479
 20
-0.9600880987
 30
0.0
 11
0.612329483
 21
-0.9506360753
 31
0.0
  0
LINE
  5
2A9
330
1F
100
AcDbEntity
  8
0
  6
Continuous
 62
   254
370
    25
100
AcDbLine
 10
0.6016021355
 20
-0.9709830621
 30
0.0
 11
0.6061962479
 21
-0.9600880987
 31
0.0
  0
LINE
  5
2AA
330
1F
100
AcDbEntity
  8
0
  6
Continuous
 62
   254
370
    25
100
AcDbLine
 10
0.5949383549
 20
-0.9961224631
 30
0.0
 11
0.6016021355
 21
-0.9709830621
 31
0.0
  0
LINE
  5
2AB
330
1F
100
AcDbEntity
  8
0
  6
Continuous
 62
   254
370
    25
100
AcDbLine
 10
0.5930668959
 20
-1.021821509
 30
0.0
 11
0.5949383549
 21
-0.9961224631
 31
0.0
  0
LINE
  5
2AC
330
1F
100
AcDbEntity
  8
0
  6
Continuous
 62
   254
370
    25
100
AcDbLine
 10
0.5948137205
 20
-1.0343999287
 30
0.0
 11
0.5930668959
 21
-1.021821509
 31
0.0
  0
LINE
  5
2AD
330
1F
100
AcDbEntity
  8
0
  6
Continuous
 62
   254
370
    25
100
AcDbLine
 10
0.5988211775
 20
-1.0465410771
 30
0.0
 11
0.5948137205
 21
-1.0343999287
 31
0.0
  0
LINE
  5
2AE
330
1F
100
AcDbEntity
  8
0
  6
Continuous
 62
   254
370
    25
100
AcDbLine
 10
0.605443431
 20
-1.0580525754
 30
0.0
 11
0.5988211775
 21
-1.0465410771
 31
0.0
  0
LINE
  5
2AF
330
1F
100
AcDbEntity
  8
0
  6
Continuous
 62
   254
370
    25
100
AcDbLine
 10
0.6150346715
 20
-1.0687420447
 30
0.0
 11
0.605443431
 21
-1.0580525754
 31
0.0
  0
LINE
  5
2B0
330
1F
100
AcDbEntity
  8
0
  6
Continuous
 62
   254
370
    25
100
AcDbLine
 10
0.6474033549
 20
-1.0937415146
 30
0.0
 11
0.6150346715
 21
-1.0687420447
 31
0.0
  0
LINE
  5
2B1
330
1F
100
AcDbEntity
  8
0
  6
Continuous
 62
   254
370
    25
100
AcDbLine
 10
0.6825704481
 20
-1.1153828241
 30
0.0
 11
0.6474033549
 21
-1.0937415146
 31
0.0
  0
LINE
  5
2B2
330
1F
100
AcDbEntity
  8
0
  6
Continuous
 62
   254
370
    25
100
AcDbLine
 10
0.7009410541
 20
-1.1289377733
 30
0.0
 11
0.6825704481
 21
-1.1153828241
 31
0.0
  0
LINE
  5
2B3
330
1F
100
AcDbEntity
  8
0
  6
Continuous
 62
   254
370
    25
100
AcDbLine
 10
0.7136798049
 20
-1.1449063748
 30
0.0
 11
0.7009410541
 21
-1.1289377733
 31
0.0
  0
LINE
  5
2B4
330
1F
100
AcDbEntity
  8
0
  6
Continuous
 62
   254
370
    25
100
AcDbLine
 10
0.72019202
 20
-1.1640232269
 30
0.0
 11
0.7136798049
 21
-1.1449063748
 31
0.0
  0
LINE
  5
2B5
330
1F
100
AcDbEntity
  8
0
  6
Continuous
 62
   254
370
    25
100
AcDbLine
 10
0.7198830188
 20
-1.187022928
 30
0.0
 11
0.72019202
 21
-1.1640232269
 31
0.0
  0
LINE
  5
2B6
330
1F
100
AcDbEntity
  8
0
  6
Continuous
 62
   254
370
    25
100
AcDbLine
 10
0.7178308287
 20
-1.1955756722
 30
0.0
 11
0.7198830188
 21
-1.187022928
 31
0.0
  0
LINE
  5
2B7
330
1F
100
AcDbEntity
  8
0
  6
Continuous
 62
   254
370
    25
100
AcDbLine
 10
0.7140995716
 20
-1.2019946131
 30
0.0
 11
0.7178308287
 21
-1.1955756722
 31
0.0
  0
LINE
  5
2B8
330
1F
100
AcDbEntity
  8
0
  6
Continuous
 62
   254
370
    25
100
AcDbLine
 10
0.708129563
 20
-1.2059649059
 30
0.0
 11
0.7140995716
 21
-1.2019946131
 31
0.0
  0
LINE
  5
2B9
330
1F
100
AcDbEntity
  8
0
  6
Continuous
 62
   254
370
    25
100
AcDbLine
 10
0.6993611181
 20
-1.207171732
 30
0.0
 11
0.708129563
 21
-1.2059649059
 31
0.0
  0
LINE
  5
2BA
330
1F
100
AcDbEntity
  8
0
  6
Continuous
 62
   254
370
    25
100
AcDbLine
 10
0.6908141779
 20
-1.2055393087
 30
0.0
 11
0.6993611181
 21
-1.207171732
 31
0.0
  0
LINE
  5
2BB
330
1F
100
AcDbEntity
  8
0
  6
Continuous
 62
   254
370
    25
100
AcDbLine
 10
0.6858352683
 20
-1.2011084492
 30
0.0
 11
0.6908141779
 21
-1.2055393087
 31
0.0
  0
LINE
  5
2BC
330
1F
100
AcDbEntity
  8
0
  6
Continuous
 62
   254
370
    25
100
AcDbLine
 10
0.6835148903
 20
-1.1945787559
 30
0.0
 11
0.6858352683
 21
-1.2011084492
 31
0.0
  0
LINE
  5
2BD
330
1F
100
AcDbEntity
  8
0
  6
Continuous
 62
   254
370
    25
100
AcDbLine
 10
0.6829435448
 20
-1.1866498313
 30
0.0
 11
0.6835148903
 21
-1.1945787559
 31
0.0
  0
LINE
  5
2BE
330
1F
100
AcDbEntity
  8
0
  6
Continuous
 62
   254
370
    25
100
AcDbLine
 10
0.6829435448
 20
-1.1362778213
 30
0.0
 11
0.6829435448
 21
-1.1866498313
 31
0.0
  0
LINE
  5
2BF
330
1F
100
AcDbEntity
  8
0
  6
Continuous
 62
   254
370
    25
100
AcDbLine
 10
0.5956319285
 20
-1.136277504
 30
0.0
 11
0.6829435448
 21
-1.1362778213
 31
0.0
  0
LINE
  5
2C0
330
1F
100
AcDbEntity
  8
0
  6
Continuous
 62
   254
370
    25
100
AcDbLine
 10
0.4400341118
 20
-0.9926252838
 30
0.0
 11
0.4396609887
 21
-1.1959788069
 31
0.0
  0
LINE
  5
2C1
330
1F
100
AcDbEntity
  8
0
  6
Continuous
 62
   254
370
    25
100
AcDbLine
 10
0.4458642026
 20
-0.9851627697
 30
0.0
 11
0.4400341118
 21
-0.9926252838
 31
0.0
  0
LINE
  5
2C2
330
1F
100
AcDbEntity
  8
0
  6
Continuous
 62
   254
370
    25
100
AcDbLine
 10
0.4553322631
 20
-0.9810583896
 30
0.0
 11
0.4458642026
 21
-0.9851627697
 31
0.0
  0
LINE
  5
2C3
330
1F
100
AcDbEntity
  8
0
  6
Continuous
 62
   254
370
    25
100
AcDbLine
 10
0.4665027388
 20
-0.9842182879
 30
0.0
 11
0.4553322631
 21
-0.9810583896
 31
0.0
  0
LINE
  5
2C4
330
1F
100
AcDbEntity
  8
0
  6
Continuous
 62
   254
370
    25
100
AcDbLine
 10
0.473615465
 20
-0.9909461904
 30
0.0
 11
0.4665027388
 21
-0.9842182879
 31
0.0
  0
LINE
  5
2C5
330
1F
100
AcDbEntity
  8
0
  6
Continuous
 62
   254
370
    25
100
AcDbLine
 10
0.4773700439
 20
-1.0004725423
 30
0.0
 11
0.473615465
 21
-0.9909461904
 31
0.0
  0
LINE
  5
2C6
330
1F
100
AcDbEntity
  8
0
  6
Continuous
 62
   254
370
    25
100
AcDbLine
 10
0.4784661044
 20
-1.0120277888
 30
0.0
 11
0.4773700439
 21
-1.0004725423
 31
0.0
  0
LINE
  5
2C7
330
1F
100
AcDbEntity
  8
0
  6
Continuous
 62
   254
370
    25
100
AcDbLine
 10
0.4784661044
 20
-1.166874785
 30
0.0
 11
0.4784661044
 21
-1.0120277888
 31
0.0
  0
LINE
  5
2C8
330
1F
100
AcDbEntity
  8
0
  6
Continuous
 62
   254
370
    25
100
AcDbLine
 10
0.4764430799
 20
-1.1825985203
 30
0.0
 11
0.4784661044
 21
-1.166874785
 31
0.0
  0
LINE
  5
2C9
330
1F
100
AcDbEntity
  8
0
  6
Continuous
 62
   254
370
    25
100
AcDbLine
 10
0.4701174396
 20
-1.1922006682
 30
0.0
 11
0.4764430799
 21
-1.1825985203
 31
0.0
  0
LINE
  5
2CA
330
1F
100
AcDbEntity
  8
0
  6
Continuous
 62
   254
370
    25
100
AcDbLine
 10
0.4582648527
 20
-1.1964158271
 30
0.0
 11
0.4701174396
 21
-1.1922006682
 31
0.0
  0
LINE
  5
2CB
330
1F
100
AcDbEntity
  8
0
  6
Continuous
 62
   254
370
    25
100
AcDbLine
 10
0.4396609887
 20
-1.1959788069
 30
0.0
 11
0.4582648527
 21
-1.1964158271
 31
0.0
  0
LINE
  5
2CC
330
1F
100
AcDbEntity
  8
0
  6
Continuous
 62
   254
370
    25
100
AcDbLine
 10
0.3493650226
 20
-1.2493347041
 30
0.0
 11
0.3493650226
 21
-0.9310589606
 31
0.0
  0
LINE
  5
2CD
330
1F
100
AcDbEntity
  8
0
  6
Continuous
 62
   254
370
    25
100
AcDbLine
 10
0.4315925826
 20
-1.2498011145
 30
0.0
 11
0.3493650226
 21
-1.2493347041
 31
0.0
  0
LINE
  5
2CE
330
1F
100
AcDbEntity
  8
0
  6
Continuous
 62
   254
370
    25
100
AcDbLine
 10
0.5124209377
 20
-1.248588458
 30
0.0
 11
0.4315925826
 21
-1.2498011145
 31
0.0
  0
LINE
  5
2CF
330
1F
100
AcDbEntity
  8
0
  6
Continuous
 62
   254
370
    25
100
AcDbLine
 10
0.5254366288
 20
-1.246870032
 30
0.0
 11
0.5124209377
 21
-1.248588458
 31
0.0
  0
LINE
  5
2D0
330
1F
100
AcDbEntity
  8
0
  6
Continuous
 62
   254
370
    25
100
AcDbLine
 10
0.5370006276
 20
-1.2429565896
 30
0.0
 11
0.5254366288
 21
-1.246870032
 31
0.0
  0
LINE
  5
2D1
330
1F
100
AcDbEntity
  8
0
  6
Continuous
 62
   254
370
    25
100
AcDbLine
 10
0.5470254773
 20
-1.2370317835
 30
0.0
 11
0.5370006276
 21
-1.2429565896
 31
0.0
  0
LINE
  5
2D2
330
1F
100
AcDbEntity
  8
0
  6
Continuous
 62
   254
370
    25
100
AcDbLine
 10
0.5554237209
 20
-1.2292792271
 30
0.0
 11
0.5470254773
 21
-1.2370317835
 31
0.0
  0
LINE
  5
2D3
330
1F
100
AcDbEntity
  8
0
  6
Continuous
 62
   254
370
    25
100
AcDbLine
 10
0.562107928
 20
-1.2198825997
 30
0.0
 11
0.5554237209
 21
-1.2292792271
 31
0.0
  0
LINE
  5
2D4
330
1F
100
AcDbEntity
  8
0
  6
Continuous
 62
   254
370
    25
100
AcDbLine
 10
0.5669906284
 20
-1.2090255277
 30
0.0
 11
0.562107928
 21
-1.2198825997
 31
0.0
  0
LINE
  5
2D5
330
1F
100
AcDbEntity
  8
0
  6
Continuous
 62
   254
370
    25
100
AcDbLine
 10
0.5699843784
 20
-1.1968916509
 30
0.0
 11
0.5669906284
 21
-1.2090255277
 31
0.0
  0
LINE
  5
2D6
330
1F
100
AcDbEntity
  8
0
  6
Continuous
 62
   254
370
    25
100
AcDbLine
 10
0.5710017344
 20
-1.1836646221
 30
0.0
 11
0.5699843784
 21
-1.1968916509
 31
0.0
  0
LINE
  5
2D7
330
1F
100
AcDbEntity
  8
0
  6
Continuous
 62
   254
370
    25
100
AcDbLine
 10
0.5710017344
 20
-1.0068033388
 30
0.0
 11
0.5710017344
 21
-1.1836646221
 31
0.0
  0
LINE
  5
2D8
330
1F
100
AcDbEntity
  8
0
  6
Continuous
 62
   254
370
    25
100
AcDbLine
 10
0.5701417877
 20
-0.9904659772
 30
0.0
 11
0.5710017344
 21
-1.0068033388
 31
0.0
  0
LINE
  5
2D9
330
1F
100
AcDbEntity
  8
0
  6
Continuous
 62
   254
370
    25
100
AcDbLine
 10
0.5674803475
 20
-0.9761487448
 30
0.0
 11
0.5701417877
 21
-0.9904659772
 31
0.0
  0
LINE
  5
2DA
330
1F
100
AcDbEntity
  8
0
  6
Continuous
 62
   254
370
    25
100
AcDbLine
 10
0.5628949741
 20
-0.963842876
 30
0.0
 11
0.5674803475
 21
-0.9761487448
 31
0.0
  0
LINE
  5
2DB
330
1F
100
AcDbEntity
  8
0
  6
Continuous
 62
   254
370
    25
100
AcDbLine
 10
0.5562632412
 20
-0.9535396581
 30
0.0
 11
0.5628949741
 21
-0.963842876
 31
0.0
  0
LINE
  5
2DC
330
1F
100
AcDbEntity
  8
0
  6
Continuous
 62
   254
370
    25
100
AcDbLine
 10
0.5474627222
 20
-0.9452303125
 30
0.0
 11
0.5562632412
 21
-0.9535396581
 31
0.0
  0
LINE
  5
2DD
330
1F
100
AcDbEntity
  8
0
  6
Continuous
 62
   254
370
    25
100
AcDbLine
 10
0.5363709775
 20
-0.9389061265
 30
0.0
 11
0.5474627222
 21
-0.9452303125
 31
0.0
  0
LINE
  5
2DE
330
1F
100
AcDbEntity
  8
0
  6
Continuous
 62
   254
370
    25
100
AcDbLine
 10
0.5228655674
 20
-0.9345583213
 30
0.0
 11
0.5363709775
 21
-0.9389061265
 31
0.0
  0
LINE
  5
2DF
330
1F
100
AcDbEntity
  8
0
  6
Continuous
 62
   254
370
    25
100
AcDbLine
 10
0.5068240918
 20
-0.9321781976
 30
0.0
 11
0.5228655674
 21
-0.9345583213
 31
0.0
  0
LINE
  5
2E0
330
1F
100
AcDbEntity
  8
0
  6
Continuous
 62
   254
370
    25
100
AcDbLine
 10
0.4677913897
 20
-0.9302717558
 30
0.0
 11
0.5068240918
 21
-0.9321781976
 31
0.0
  0
LINE
  5
2E1
330
1F
100
AcDbEntity
  8
0
  6
Continuous
 62
   254
370
    25
100
AcDbLine
 10
0.4285139405
 20
-0.9300793638
 30
0.0
 11
0.4677913897
 21
-0.9302717558
 31
0.0
  0
LINE
  5
2E2
330
1F
100
AcDbEntity
  8
0
  6
Continuous
 62
   254
370
    25
100
AcDbLine
 10
0.3493650226
 20
-0.9310589606
 30
0.0
 11
0.4285139405
 21
-0.9300793638
 31
0.0
  0
LINE
  5
2E3
330
1F
100
AcDbEntity
  8
0
  6
Continuous
 62
   254
370
    25
100
AcDbLine
 10
0.1945274794
 20
-0.9896397969
 30
0.0
 11
0.1941543563
 21
-1.0500862089
 31
0.0
  0
LINE
  5
2E4
330
1F
100
AcDbEntity
  8
0
  6
Continuous
 62
   254
370
    25
100
AcDbLine
 10
0.1970927633
 20
-0.9825445754
 30
0.0
 11
0.1945274794
 21
-0.9896397969
 31
0.0
  0
LINE
  5
2E5
330
1F
100
AcDbEntity
  8
0
  6
Continuous
 62
   254
370
    25
100
AcDbLine
 10
0.2032959904
 20
-0.9787725051
 30
0.0
 11
0.1970927633
 21
-0.9825445754
 31
0.0
  0
LINE
  5
2E6
330
1F
100
AcDbEntity
  8
0
  6
Continuous
 62
   254
370
    25
100
AcDbLine
 10
0.2117379558
 20
-0.9785684522
 30
0.0
 11
0.2032959904
 21
-0.9787725051
 31
0.0
  0
LINE
  5
2E7
330
1F
100
AcDbEntity
  8
0
  6
Continuous
 62
   254
370
    25
100
AcDbLine
 10
0.2210194548
 20
-0.9821772828
 30
0.0
 11
0.2117379558
 21
-0.9785684522
 31
0.0
  0
LINE
  5
2E8
330
1F
100
AcDbEntity
  8
0
  6
Continuous
 62
   254
370
    25
100
AcDbLine
 10
0.2278814711
 20
-0.9906891741
 30
0.0
 11
0.2210194548
 21
-0.9821772828
 31
0.0
  0
LINE
  5
2E9
330
1F
100
AcDbEntity
  8
0
  6
Continuous
 62
   254
370
    25
100
AcDbLine
 10
0.2322598697
 20
-1.0049378954
 30
0.0
 11
0.2278814711
 21
-0.9906891741
 31
0.0
  0
LINE
  5
2EA
330
1F
100
AcDbEntity
  8
0
  6
Continuous
 62
   254
370
    25
100
AcDbLine
 10
0.2333500998
 20
-1.0214253946
 30
0.0
 11
0.2322598697
 21
-1.0049378954
 31
0.0
  0
LINE
  5
2EB
330
1F
100
AcDbEntity
  8
0
  6
Continuous
 62
   254
370
    25
100
AcDbLine
 10
0.2303475974
 20
-1.03665362
 30
0.0
 11
0.2333500998
 21
-1.0214253946
 31
0.0
  0
LINE
  5
2EC
330
1F
100
AcDbEntity
  8
0
  6
Continuous
 62
   254
370
    25
100
AcDbLine
 10
0.2243776417
 20
-1.0459409627
 30
0.0
 11
0.2303475974
 21
-1.03665362
 31
0.0
  0
LINE
  5
2ED
330
1F
100
AcDbEntity
  8
0
  6
Continuous
 62
   254
370
    25
100
AcDbLine
 10
0.2161688814
 20
-1.0507857585
 30
0.0
 11
0.2243776417
 21
-1.0459409627
 31
0.0
  0
LINE
  5
2EE
330
1F
100
AcDbEntity
  8
0
  6
Continuous
 62
   254
370
    25
100
AcDbLine
 10
0.2060012053
 20
-1.0519226323
 30
0.0
 11
0.2161688814
 21
-1.0507857585
 31
0.0
  0
LINE
  5
2EF
330
1F
100
AcDbEntity
  8
0
  6
Continuous
 62
   254
370
    25
100
AcDbLine
 10
0.1941543563
 20
-1.0500862089
 30
0.0
 11
0.2060012053
 21
-1.0519226323
 31
0.0
  0
LINE
  5
2F0
330
1F
100
AcDbEntity
  8
0
  6
Continuous
 62
   254
370
    25
100
AcDbLine
 10
0.1046040018
 20
-1.2474696573
 30
0.0
 11
0.1046040018
 21
-0.9306865647
 31
0.0
  0
LINE
  5
2F1
330
1F
100
AcDbEntity
  8
0
  6
Continuous
 62
   254
370
    25
100
AcDbLine
 10
0.1937811011
 20
-1.2474696573
 30
0.0
 11
0.1046040018
 21
-1.2474696573
 31
0.0
  0
LINE
  5
2F2
330
1F
100
AcDbEntity
  8
0
  6
Continuous
 62
   254
370
    25
100
AcDbLine
 10
0.1937811011
 20
-1.1194876009
 30
0.0
 11
0.1937811011
 21
-1.2474696573
 31
0.0
  0
LINE
  5
2F3
330
1F
100
AcDbEntity
  8
0
  6
Continuous
 62
   254
370
    25
100
AcDbLine
 10
0.1938743884
 20
-1.1061483655
 30
0.0
 11
0.1937811011
 21
-1.1194876009
 31
0.0
  0
LINE
  5
2F4
330
1F
100
AcDbEntity
  8
0
  6
Continuous
 62
   254
370
    25
100
AcDbLine
 10
0.1972441834
 20
-1.1011228386
 30
0.0
 11
0.1938743884
 21
-1.1061483655
 31
0.0
  0
LINE
  5
2F5
330
1F
100
AcDbEntity
  8
0
  6
Continuous
 62
   254
370
    25
100
AcDbLine
 10
0.2057211184
 20
-1.0989657002
 30
0.0
 11
0.1972441834
 21
-1.1011228386
 31
0.0
  0
LINE
  5
2F6
330
1F
100
AcDbEntity
  8
0
  6
Continuous
 62
   254
370
    25
100
AcDbLine
 10
0.2151309272
 20
-1.0997294642
 30
0.0
 11
0.2057211184
 21
-1.0989657002
 31
0.0
  0
LINE
  5
2F7
330
1F
100
AcDbEntity
  8
0
  6
Continuous
 62
   254
370
    25
100
AcDbLine
 10
0.222791677
 20
-1.1028369148
 30
0.0
 11
0.2151309272
 21
-1.0997294642
 31
0.0
  0
LINE
  5
2F8
330
1F
100
AcDbEntity
  8
0
  6
Continuous
 62
   254
370
    25
100
AcDbLine
 10
0.2280737441
 20
-1.1086728229
 30
0.0
 11
0.222791677
 21
-1.1028369148
 31
0.0
  0
LINE
  5
2F9
330
1F
100
AcDbEntity
  8
0
  6
Continuous
 62
   254
370
    25
100
AcDbLine
 10
0.2303474785
 20
-1.1176219856
 30
0.0
 11
0.2280737441
 21
-1.1086728229
 31
0.0
  0
LINE
  5
2FA
330
1F
100
AcDbEntity
  8
0
  6
Continuous
 62
   254
370
    25
100
AcDbLine
 10
0.2314668609
 20
-1.182918918
 30
0.0
 11
0.2303474785
 21
-1.1176219856
 31
0.0
  0
LINE
  5
2FB
330
1F
100
AcDbEntity
  8
0
  6
Continuous
 62
   254
370
    25
100
AcDbLine
 10
0.2314668609
 20
-1.2470965607
 30
0.0
 11
0.2314668609
 21
-1.182918918
 31
0.0
  0
LINE
  5
2FC
330
1F
100
AcDbEntity
  8
0
  6
Continuous
 62
   254
370
    25
100
AcDbLine
 10
0.3187782126
 20
-1.2470965607
 30
0.0
 11
0.2314668609
 21
-1.2470965607
 31
0.0
  0
LINE
  5
2FD
330
1F
100
AcDbEntity
  8
0
  6
Continuous
 62
   254
370
    25
100
AcDbLine
 10
0.3182651585
 20
-1.1988234373
 30
0.0
 11
0.3187782126
 21
-1.2470965607
 31
0.0
  0
LINE
  5
2FE
330
1F
100
AcDbEntity
  8
0
  6
Continuous
 62
   254
370
    25
100
AcDbLine
 10
0.3191513357
 20
-1.1519495188
 30
0.0
 11
0.3182651585
 21
-1.1988234373
 31
0.0
  0
LINE
  5
2FF
330
1F
100
AcDbEntity
  8
0
  6
Continuous
 62
   254
370
    25
100
AcDbLine
 10
0.3182010102
 20
-1.1276847266
 30
0.0
 11
0.3191513357
 21
-1.1519495188
 31
0.0
  0
LINE
  5
300
330
1F
100
AcDbEntity
  8
0
  6
Continuous
 62
   254
370
    25
100
AcDbLine
 10
0.3154717992
 20
-1.1169646639
 30
0.0
 11
0.3182010102
 21
-1.1276847266
 31
0.0
  0
LINE
  5
301
330
1F
100
AcDbEntity
  8
0
  6
Continuous
 62
   254
370
    25
100
AcDbLine
 10
0.3109891795
 20
-1.1072677743
 30
0.0
 11
0.3154717992
 21
-1.1169646639
 31
0.0
  0
LINE
  5
302
330
1F
100
AcDbEntity
  8
0
  6
Continuous
 62
   254
370
    25
100
AcDbLine
 10
0.3045651617
 20
-1.0986552844
 30
0.0
 11
0.3109891795
 21
-1.1072677743
 31
0.0
  0
LINE
  5
303
330
1F
100
AcDbEntity
  8
0
  6
Continuous
 62
   254
370
    25
100
AcDbLine
 10
0.2960116903
 20
-1.0911883941
 30
0.0
 11
0.3045651617
 21
-1.0986552844
 31
0.0
  0
LINE
  5
304
330
1F
100
AcDbEntity
  8
0
  6
Continuous
 62
   254
370
    25
100
AcDbLine
 10
0.2851407627
 20
-1.0849283432
 30
0.0
 11
0.2960116903
 21
-1.0911883941
 31
0.0
  0
LINE
  5
305
330
1F
100
AcDbEntity
  8
0
  6
Continuous
 62
   254
370
    25
100
AcDbLine
 10
0.2717643631
 20
-1.0799363183
 30
0.0
 11
0.2851407627
 21
-1.0849283432
 31
0.0
  0
LINE
  5
306
330
1F
100
AcDbEntity
  8
0
  6
Continuous
 62
   254
370
    25
100
AcDbLine
 10
0.2914875831
 20
-1.0700951215
 30
0.0
 11
0.2717643631
 21
-1.0799363183
 31
0.0
  0
LINE
  5
307
330
1F
100
AcDbEntity
  8
0
  6
Continuous
 62
   254
370
    25
100
AcDbLine
 10
0.3055789348
 20
-1.0574554886
 30
0.0
 11
0.2914875831
 21
-1.0700951215
 31
0.0
  0
LINE
  5
308
330
1F
100
AcDbEntity
  8
0
  6
Continuous
 62
   254
370
    25
100
AcDbLine
 10
0.3135836553
 20
-1.0413177905
 30
0.0
 11
0.3055789348
 21
-1.0574554886
 31
0.0
  0
LINE
  5
309
330
1F
100
AcDbEntity
  8
0
  6
Continuous
 62
   254
370
    25
100
AcDbLine
 10
0.3150470085
 20
-1.020982425
 30
0.0
 11
0.3135836553
 21
-1.0413177905
 31
0.0
  0
LINE
  5
30A
330
1F
100
AcDbEntity
  8
0
  6
Continuous
 62
   254
370
    25
100
AcDbLine
 10
0.3150470085
 20
-0.9993411023
 30
0.0
 11
0.3150470085
 21
-1.020982425
 31
0.0
  0
LINE
  5
30B
330
1F
100
AcDbEntity
  8
0
  6
Continuous
 62
   254
370
    25
100
AcDbLine
 10
0.3119220797
 20
-0.9710476996
 30
0.0
 11
0.3150470085
 21
-0.9993411023
 31
0.0
  0
LINE
  5
30C
330
1F
100
AcDbEntity
  8
0
  6
Continuous
 62
   254
370
    25
100
AcDbLine
 10
0.3078060386
 20
-0.9597847032
 30
0.0
 11
0.3119220797
 21
-0.9710476996
 31
0.0
  0
LINE
  5
30D
330
1F
100
AcDbEntity
  8
0
  6
Continuous
 62
   254
370
    25
100
AcDbLine
 10
0.3018010604
 20
-0.9504150202
 30
0.0
 11
0.3078060386
 21
-0.9597847032
 31
0.0
  0
LINE
  5
30E
330
1F
100
AcDbEntity
  8
0
  6
Continuous
 62
   254
370
    25
100
AcDbLine
 10
0.2937671876
 20
-0.9429167962
 30
0.0
 11
0.3018010604
 21
-0.9504150202
 31
0.0
  0
LINE
  5
30F
330
1F
100
AcDbEntity
  8
0
  6
Continuous
 62
   254
370
    25
100
AcDbLine
 10
0.2835645287
 20
-0.9372681636
 30
0.0
 11
0.2937671876
 21
-0.9429167962
 31
0.0
  0
LINE
  5
310
330
1F
100
AcDbEntity
  8
0
  6
Continuous
 62
   254
370
    25
100
AcDbLine
 10
0.2710531394
 20
-0.9334472681
 30
0.0
 11
0.2835645287
 21
-0.9372681636
 31
0.0
  0
LINE
  5
311
330
1F
100
AcDbEntity
  8
0
  6
Continuous
 62
   254
370
    25
100
AcDbLine
 10
0.2560931152
 20
-0.9314322291
 30
0.0
 11
0.2710531394
 21
-0.9334472681
 31
0.0
  0
LINE
  5
312
330
1F
100
AcDbEntity
  8
0
  6
Continuous
 62
   254
370
    25
100
AcDbLine
 10
0.1810483394
 20
-0.9297998058
 30
0.0
 11
0.2560931152
 21
-0.9314322291
 31
0.0
  0
LINE
  5
313
330
1F
100
AcDbEntity
  8
0
  6
Continuous
 62
   254
370
    25
100
AcDbLine
 10
0.1046040018
 20
-0.9306865647
 30
0.0
 11
0.1810483394
 21
-0.9297998058
 31
0.0
  0
LINE
  5
314
330
1F
100
AcDbEntity
  8
0
  6
Continuous
 62
   254
370
    25
100
AcDbLine
 10
-0.0170334422
 20
-1.1780678158
 30
0.0
 11
-0.0170334422
 21
-1.0019523291
 31
0.0
  0
LINE
  5
315
330
1F
100
AcDbEntity
  8
0
  6
Continuous
 62
   254
370
    25
100
AcDbLine
 10
-0.0177213837
 20
-1.1885153277
 30
0.0
 11
-0.0170334422
 21
-1.1780678158
 31
0.0
  0
LINE
  5
316
330
1F
100
AcDbEntity
  8
0
  6
Continuous
 62
   254
370
    25
100
AcDbLine
 10
-0.0205781113
 20
-1.1972837857
 30
0.0
 11
-0.0177213837
 21
-1.1885153277
 31
0.0
  0
LINE
  5
317
330
1F
100
AcDbEntity
  8
0
  6
Continuous
 62
   254
370
    25
100
AcDbLine
 10
-0.0267929728
 20
-1.2032537944
 30
0.0
 11
-0.0205781113
 21
-1.1972837857
 31
0.0
  0
LINE
  5
318
330
1F
100
AcDbEntity
  8
0
  6
Continuous
 62
   254
370
    25
100
AcDbLine
 10
-0.0375553428
 20
-1.2053059844
 30
0.0
 11
-0.0267929728
 21
-1.2032537944
 31
0.0
  0
LINE
  5
319
330
1F
100
AcDbEntity
  8
0
  6
Continuous
 62
   254
370
    25
100
AcDbLine
 10
-0.048142746
 20
-1.2027698397
 30
0.0
 11
-0.0375553428
 21
-1.2053059844
 31
0.0
  0
LINE
  5
31A
330
1F
100
AcDbEntity
  8
0
  6
Continuous
 62
   254
370
    25
100
AcDbLine
 10
-0.0539728236
 20
-1.1964908034
 30
0.0
 11
-0.048142746
 21
-1.2027698397
 31
0.0
  0
LINE
  5
31B
330
1F
100
AcDbEntity
  8
0
  6
Continuous
 62
   254
370
    25
100
AcDbLine
 10
-0.0564447804
 20
-1.1876232275
 30
0.0
 11
-0.0539728236
 21
-1.1964908034
 31
0.0
  0
LINE
  5
31C
330
1F
100
AcDbEntity
  8
0
  6
Continuous
 62
   254
370
    25
100
AcDbLine
 10
-0.0569578213
 20
-1.1773214904
 30
0.0
 11
-0.0564447804
 21
-1.1876232275
 31
0.0
  0
LINE
  5
31D
330
1F
100
AcDbEntity
  8
0
  6
Continuous
 62
   254
370
    25
100
AcDbLine
 10
-0.0569578213
 20
-1.0008330393
 30
0.0
 11
-0.0569578213
 21
-1.1773214904
 31
0.0
  0
LINE
  5
31E
330
1F
100
AcDbEntity
  8
0
  6
Continuous
 62
   254
370
    25
100
AcDbLine
 10
-0.056322354
 20
-0.9906595062
 30
0.0
 11
-0.0569578213
 21
-1.0008330393
 31
0.0
  0
LINE
  5
31F
330
1F
100
AcDbEntity
  8
0
  6
Continuous
 62
   254
370
    25
100
AcDbLine
 10
-0.0535530701
 20
-0.9821300706
 30
0.0
 11
-0.056322354
 21
-0.9906595062
 31
0.0
  0
LINE
  5
320
330
1F
100
AcDbEntity
  8
0
  6
Continuous
 62
   254
370
    25
100
AcDbLine
 10
-0.0473556867
 20
-0.9763291321
 30
0.0
 11
-0.0535530701
 21
-0.9821300706
 31
0.0
  0
LINE
  5
321
330
1F
100
AcDbEntity
  8
0
  6
Continuous
 62
   254
370
    25
100
AcDbLine
 10
-0.0364359207
 20
-0.9743410639
 30
0.0
 11
-0.0473556867
 21
-0.9763291321
 31
0.0
  0
LINE
  5
322
330
1F
100
AcDbEntity
  8
0
  6
Continuous
 62
   254
370
    25
100
AcDbLine
 10
-0.0255336858
 20
-0.9768713121
 30
0.0
 11
-0.0364359207
 21
-0.9743410639
 31
0.0
  0
LINE
  5
323
330
1F
100
AcDbEntity
  8
0
  6
Continuous
 62
   254
370
    25
100
AcDbLine
 10
-0.019738591
 20
-0.9831094955
 30
0.0
 11
-0.0255336858
 21
-0.9768713121
 31
0.0
  0
LINE
  5
324
330
1F
100
AcDbEntity
  8
0
  6
Continuous
 62
   254
370
    25
100
AcDbLine
 10
-0.017441548
 20
-0.9918662794
 30
0.0
 11
-0.019738591
 21
-0.9831094955
 31
0.0
  0
LINE
  5
325
330
1F
100
AcDbEntity
  8
0
  6
Continuous
 62
   254
370
    25
100
AcDbLine
 10
-0.0170334422
 20
-1.0019523291
 30
0.0
 11
-0.017441548
 21
-0.9918662794
 31
0.0
  0
LINE
  5
326
330
1F
100
AcDbEntity
  8
0
  6
Continuous
 62
   254
370
    25
100
AcDbLine
 10
-0.1494929092
 20
-1.1679933609
 30
0.0
 11
-0.1491197862
 21
-1.0877713738
 31
0.0
  0
LINE
  5
327
330
1F
100
AcDbEntity
  8
0
  6
Continuous
 62
   254
370
    25
100
AcDbLine
 10
-0.1447530617
 20
-1.1971087794
 30
0.0
 11
-0.1494929092
 21
-1.1679933609
 31
0.0
  0
LINE
  5
328
330
1F
100
AcDbEntity
  8
0
  6
Continuous
 62
   254
370
    25
100
AcDbLine
 10
-0.1398973454
 20
-1.2097731885
 30
0.0
 11
-0.1447530617
 21
-1.1971087794
 31
0.0
  0
LINE
  5
329
330
1F
100
AcDbEntity
  8
0
  6
Continuous
 62
   254
370
    25
100
AcDbLine
 10
-0.1334019078
 20
-1.2209771663
 30
0.0
 11
-0.1398973454
 21
-1.2097731885
 31
0.0
  0
LINE
  5
32A
330
1F
100
AcDbEntity
  8
0
  6
Continuous
 62
   254
370
    25
100
AcDbLine
 10
-0.1252798773
 20
-1.2305720294
 30
0.0
 11
-0.1334019078
 21
-1.2209771663
 31
0.0
  0
LINE
  5
32B
330
1F
100
AcDbEntity
  8
0
  6
Continuous
 62
   254
370
    25
100
AcDbLine
 10
-0.115544356
 20
-1.2384091341
 30
0.0
 11
-0.1252798773
 21
-1.2305720294
 31
0.0
  0
LINE
  5
32C
330
1F
100
AcDbEntity
  8
0
  6
Continuous
 62
   254
370
    25
100
AcDbLine
 10
-0.1042084722
 20
-1.2443397971
 30
0.0
 11
-0.115544356
 21
-1.2384091341
 31
0.0
  0
LINE
  5
32D
330
1F
100
AcDbEntity
  8
0
  6
Continuous
 62
   254
370
    25
100
AcDbLine
 10
-0.0912853414
 20
-1.2482153481
 30
0.0
 11
-0.1042084722
 21
-1.2443397971
 31
0.0
  0
LINE
  5
32E
330
1F
100
AcDbEntity
  8
0
  6
Continuous
 62
   254
370
    25
100
AcDbLine
 10
-0.0453442966
 20
-1.2543252746
 30
0.0
 11
-0.0912853414
 21
-1.2482153481
 31
0.0
  0
LINE
  5
32F
330
1F
100
AcDbEntity
  8
0
  6
Continuous
 62
   254
370
    25
100
AcDbLine
 10
-0.0220764075
 20
-1.254459362
 30
0.0
 11
-0.0453442966
 21
-1.2543252746
 31
0.0
  0
LINE
  5
330
330
1F
100
AcDbEntity
  8
0
  6
Continuous
 62
   254
370
    25
100
AcDbLine
 10
0.0008766631
 20
-1.2523197282
 30
0.0
 11
-0.0220764075
 21
-1.254459362
 31
0.0
  0
LINE
  5
331
330
1F
100
AcDbEntity
  8
0
  6
Continuous
 62
   254
370
    25
100
AcDbLine
 10
0.0180571807
 20
-1.2488544645
 30
0.0
 11
0.0008766631
 21
-1.2523197282
 31
0.0
  0
LINE
  5
332
330
1F
100
AcDbEntity
  8
0
  6
Continuous
 62
   254
370
    25
100
AcDbLine
 10
0.0329595879
 20
-1.2434871351
 30
0.0
 11
0.0180571807
 21
-1.2488544645
 31
0.0
  0
LINE
  5
333
330
1F
100
AcDbEntity
  8
0
  6
Continuous
 62
   254
370
    25
100
AcDbLine
 10
0.0456145175
 20
-1.2362046249
 30
0.0
 11
0.0329595879
 21
-1.2434871351
 31
0.0
  0
LINE
  5
334
330
1F
100
AcDbEntity
  8
0
  6
Continuous
 62
   254
370
    25
100
AcDbLine
 10
0.0560525631
 20
-1.2269938186
 30
0.0
 11
0.0456145175
 21
-1.2362046249
 31
0.0
  0
LINE
  5
335
330
1F
100
AcDbEntity
  8
0
  6
Continuous
 62
   254
370
    25
100
AcDbLine
 10
0.0643043313
 20
-1.2158415878
 30
0.0
 11
0.0560525631
 21
-1.2269938186
 31
0.0
  0
LINE
  5
336
330
1F
100
AcDbEntity
  8
0
  6
Continuous
 62
   254
370
    25
100
AcDbLine
 10
0.0704004154
 20
-1.2027348173
 30
0.0
 11
0.0643043313
 21
-1.2158415878
 31
0.0
  0
LINE
  5
337
330
1F
100
AcDbEntity
  8
0
  6
Continuous
 62
   254
370
    25
100
AcDbLine
 10
0.0743714353
 20
-1.1876604049
 30
0.0
 11
0.0704004154
 21
-1.2027348173
 31
0.0
  0
LINE
  5
338
330
1F
100
AcDbEntity
  8
0
  6
Continuous
 62
   254
370
    25
100
AcDbLine
 10
0.0762479976
 20
-1.1706052224
 30
0.0
 11
0.0743714353
 21
-1.1876604049
 31
0.0
  0
LINE
  5
339
330
1F
100
AcDbEntity
  8
0
  6
Continuous
 62
   254
370
    25
100
AcDbLine
 10
0.0777405031
 20
-1.0857191308
 30
0.0
 11
0.0762479976
 21
-1.1706052224
 31
0.0
  0
LINE
  5
33A
330
1F
100
AcDbEntity
  8
0
  6
Continuous
 62
   254
370
    25
100
AcDbLine
 10
0.0747554921
 20
-1.0008330393
 30
0.0
 11
0.0777405031
 21
-1.0857191308
 31
0.0
  0
LINE
  5
33B
330
1F
100
AcDbEntity
  8
0
  6
Continuous
 62
   254
370
    25
100
AcDbLine
 10
0.0722980916
 20
-0.9845539691
 30
0.0
 11
0.0747554921
 21
-1.0008330393
 31
0.0
  0
LINE
  5
33C
330
1F
100
AcDbEntity
  8
0
  6
Continuous
 62
   254
370
    25
100
AcDbLine
 10
0.0670597596
 20
-0.9699452136
 30
0.0
 11
0.0722980916
 21
-0.9845539691
 31
0.0
  0
LINE
  5
33D
330
1F
100
AcDbEntity
  8
0
  6
Continuous
 62
   254
370
    25
100
AcDbLine
 10
0.059302827
 20
-0.9571379648
 30
0.0
 11
0.0670597596
 21
-0.9699452136
 31
0.0
  0
LINE
  5
33E
330
1F
100
AcDbEntity
  8
0
  6
Continuous
 62
   254
370
    25
100
AcDbLine
 10
0.0492896514
 20
-0.9462633882
 30
0.0
 11
0.059302827
 21
-0.9571379648
 31
0.0
  0
LINE
  5
33F
330
1F
100
AcDbEntity
  8
0
  6
Continuous
 62
   254
370
    25
100
AcDbLine
 10
0.0372825904
 20
-0.9374526626
 30
0.0
 11
0.0492896514
 21
-0.9462633882
 31
0.0
  0
LINE
  5
340
330
1F
100
AcDbEntity
  8
0
  6
Continuous
 62
   254
370
    25
100
AcDbLine
 10
0.0235439883
 20
-0.93083698
 30
0.0
 11
0.0372825904
 21
-0.9374526626
 31
0.0
  0
LINE
  5
341
330
1F
100
AcDbEntity
  8
0
  6
Continuous
 62
   254
370
    25
100
AcDbLine
 10
0.0083361893
 20
-0.9265474794
 30
0.0
 11
0.0235439883
 21
-0.93083698
 31
0.0
  0
LINE
  5
342
330
1F
100
AcDbEntity
  8
0
  6
Continuous
 62
   254
370
    25
100
AcDbLine
 10
-0.0080784358
 20
-0.9247153793
 30
0.0
 11
0.0083361893
 21
-0.9265474794
 31
0.0
  0
LINE
  5
343
330
1F
100
AcDbEntity
  8
0
  6
Continuous
 62
   254
370
    25
100
AcDbLine
 10
-0.064793485
 20
-0.9247153793
 30
0.0
 11
-0.0080784358
 21
-0.9247153793
 31
0.0
  0
LINE
  5
344
330
1F
100
AcDbEntity
  8
0
  6
Continuous
 62
   254
370
    25
100
AcDbLine
 10
-0.0818989734
 20
-0.9265401682
 30
0.0
 11
-0.064793485
 21
-0.9247153793
 31
0.0
  0
LINE
  5
345
330
1F
100
AcDbEntity
  8
0
  6
Continuous
 62
   254
370
    25
100
AcDbLine
 10
-0.0975352783
 20
-0.9310584714
 30
0.0
 11
-0.0818989734
 21
-0.9265401682
 31
0.0
  0
LINE
  5
346
330
1F
100
AcDbEntity
  8
0
  6
Continuous
 62
   254
370
    25
100
AcDbLine
 10
-0.1114925161
 20
-0.9380953751
 30
0.0
 11
-0.0975352783
 21
-0.9310584714
 31
0.0
  0
LINE
  5
347
330
1F
100
AcDbEntity
  8
0
  6
Continuous
 62
   254
370
    25
100
AcDbLine
 10
-0.1235608168
 20
-0.9474759919
 30
0.0
 11
-0.1114925161
 21
-0.9380953751
 31
0.0
  0
LINE
  5
348
330
1F
100
AcDbEntity
  8
0
  6
Continuous
 62
   254
370
    25
100
AcDbLine
 10
-0.1335302837
 20
-0.9590253948
 30
0.0
 11
-0.1235608168
 21
-0.9474759919
 31
0.0
  0
LINE
  5
349
330
1F
100
AcDbEntity
  8
0
  6
Continuous
 62
   254
370
    25
100
AcDbLine
 10
-0.1411910335
 20
-0.9725686963
 30
0.0
 11
-0.1335302837
 21
-0.9590253948
 31
0.0
  0
LINE
  5
34A
330
1F
100
AcDbEntity
  8
0
  6
Continuous
 62
   254
370
    25
100
AcDbLine
 10
-0.1463331696
 20
-0.9879309959
 30
0.0
 11
-0.1411910335
 21
-0.9725686963
 31
0.0
  0
LINE
  5
34B
330
1F
100
AcDbEntity
  8
0
  6
Continuous
 62
   254
370
    25
100
AcDbLine
 10
-0.148746835
 20
-1.0049373665
 30
0.0
 11
-0.1463331696
 21
-0.9879309959
 31
0.0
  0
LINE
  5
34C
330
1F
100
AcDbEntity
  8
0
  6
Continuous
 62
   254
370
    25
100
AcDbLine
 10
-0.1494930811
 20
-1.0463543305
 30
0.0
 11
-0.148746835
 21
-1.0049373665
 31
0.0
  0
LINE
  5
34D
330
1F
100
AcDbEntity
  8
0
  6
Continuous
 62
   254
370
    25
100
AcDbLine
 10
-0.1491197862
 20
-1.0877713738
 30
0.0
 11
-0.1494930811
 21
-1.0463543305
 31
0.0
  0
LINE
  5
34E
330
1F
100
AcDbEntity
  8
0
  6
Continuous
 62
   254
370
    25
100
AcDbLine
 10
-0.1696493021
 20
-1.0090421036
 30
0.0
 11
-0.1700224251
 21
-1.0556827508
 31
0.0
  0
LINE
  5
34F
330
1F
100
AcDbEntity
  8
0
  6
Continuous
 62
   254
370
    25
100
AcDbLine
 10
-0.1714100088
 20
-0.994342229
 30
0.0
 11
-0.1696493021
 21
-1.0090421036
 31
0.0
  0
LINE
  5
350
330
1F
100
AcDbEntity
  8
0
  6
Continuous
 62
   254
370
    25
100
AcDbLine
 10
-0.1756893027
 20
-0.9801539674
 30
0.0
 11
-0.1714100088
 21
-0.994342229
 31
0.0
  0
LINE
  5
351
330
1F
100
AcDbEntity
  8
0
  6
Continuous
 62
   254
370
    25
100
AcDbLine
 10
-0.182242331
 20
-0.9668489612
 30
0.0
 11
-0.1756893027
 21
-0.9801539674
 31
0.0
  0
LINE
  5
352
330
1F
100
AcDbEntity
  8
0
  6
Continuous
 62
   254
370
    25
100
AcDbLine
 10
-0.1908242276
 20
-0.9547988923
 30
0.0
 11
-0.182242331
 21
-0.9668489612
 31
0.0
  0
LINE
  5
353
330
1F
100
AcDbEntity
  8
0
  6
Continuous
 62
   254
370
    25
100
AcDbLine
 10
-0.2011901262
 20
-0.9443754294
 30
0.0
 11
-0.1908242276
 21
-0.9547988923
 31
0.0
  0
LINE
  5
354
330
1F
100
AcDbEntity
  8
0
  6
Continuous
 62
   254
370
    25
100
AcDbLine
 10
-0.2130951607
 20
-0.935950215
 30
0.0
 11
-0.2011901262
 21
-0.9443754294
 31
0.0
  0
LINE
  5
355
330
1F
100
AcDbEntity
  8
0
  6
Continuous
 62
   254
370
    25
100
AcDbLine
 10
-0.2262944783
 20
-0.9298949441
 30
0.0
 11
-0.2130951607
 21
-0.935950215
 31
0.0
  0
LINE
  5
356
330
1F
100
AcDbEntity
  8
0
  6
Continuous
 62
   254
370
    25
100
AcDbLine
 10
-0.2405432127
 20
-0.9265812723
 30
0.0
 11
-0.2262944783
 21
-0.9298949441
 31
0.0
  0
LINE
  5
357
330
1F
100
AcDbEntity
  8
0
  6
Continuous
 62
   254
370
    25
100
AcDbLine
 10
-0.2786020427
 20
-0.9243891512
 30
0.0
 11
-0.2405432127
 21
-0.9265812723
 31
0.0
  0
LINE
  5
358
330
1F
100
AcDbEntity
  8
0
  6
Continuous
 62
   254
370
    25
100
AcDbLine
 10
-0.3166608726
 20
-0.9269543954
 30
0.0
 11
-0.2786020427
 21
-0.9243891512
 31
0.0
  0
LINE
  5
359
330
1F
100
AcDbEntity
  8
0
  6
Continuous
 62
   254
370
    25
100
AcDbLine
 10
-0.3324028132
 20
-0.9305654207
 30
0.0
 11
-0.3166608726
 21
-0.9269543954
 31
0.0
  0
LINE
  5
35A
330
1F
100
AcDbEntity
  8
0
  6
Continuous
 62
   254
370
    25
100
AcDbLine
 10
-0.3467499119
 20
-0.9367431444
 30
0.0
 11
-0.3324028132
 21
-0.9305654207
 31
0.0
  0
LINE
  5
35B
330
1F
100
AcDbEntity
  8
0
  6
Continuous
 62
   254
370
    25
100
AcDbLine
 10
-0.3594966614
 20
-0.945220833
 30
0.0
 11
-0.3467499119
 21
-0.9367431444
 31
0.0
  0
LINE
  5
35C
330
1F
100
AcDbEntity
  8
0
  6
Continuous
 62
   254
370
    25
100
AcDbLine
 10
-0.3704375546
 20
-0.9557317528
 30
0.0
 11
-0.3594966614
 21
-0.945220833
 31
0.0
  0
LINE
  5
35D
330
1F
100
AcDbEntity
  8
0
  6
Continuous
 62
   254
370
    25
100
AcDbLine
 10
-0.3793670576
 20
-0.9680091965
 30
0.0
 11
-0.3704375546
 21
-0.9557317528
 31
0.0
  0
LINE
  5
35E
330
1F
100
AcDbEntity
  8
0
  6
Continuous
 62
   254
370
    25
100
AcDbLine
 10
-0.3860796766
 20
-0.9817864172
 30
0.0
 11
-0.3793670576
 21
-0.9680091965
 31
0.0
  0
LINE
  5
35F
330
1F
100
AcDbEntity
  8
0
  6
Continuous
 62
   254
370
    25
100
AcDbLine
 10
-0.3903699043
 20
-0.9967967209
 30
0.0
 11
-0.3860796766
 21
-0.9817864172
 31
0.0
  0
LINE
  5
360
330
1F
100
AcDbEntity
  8
0
  6
Continuous
 62
   254
370
    25
100
AcDbLine
 10
-0.3920322071
 20
-1.0127733607
 30
0.0
 11
-0.3903699043
 21
-0.9967967209
 31
0.0
  0
LINE
  5
361
330
1F
100
AcDbEntity
  8
0
  6
Continuous
 62
   254
370
    25
100
AcDbLine
 10
-0.3920322071
 20
-1.1698586722
 30
0.0
 11
-0.3920322071
 21
-1.0127733607
 31
0.0
  0
LINE
  5
362
330
1F
100
AcDbEntity
  8
0
  6
Continuous
 62
   254
370
    25
100
AcDbLine
 10
-0.3884234162
 20
-1.1953128916
 30
0.0
 11
-0.3920322071
 21
-1.1698586722
 31
0.0
  0
LINE
  5
363
330
1F
100
AcDbEntity
  8
0
  6
Continuous
 62
   254
370
    25
100
AcDbLine
 10
-0.3785530803
 20
-1.2170591229
 30
0.0
 11
-0.3884234162
 21
-1.1953128916
 31
0.0
  0
LINE
  5
364
330
1F
100
AcDbEntity
  8
0
  6
Continuous
 62
   254
370
    25
100
AcDbLine
 10
-0.3711933198
 20
-1.2263887331
 30
0.0
 11
-0.3785530803
 21
-1.2170591229
 31
0.0
  0
LINE
  5
365
330
1F
100
AcDbEntity
  8
0
  6
Continuous
 62
   254
370
    25
100
AcDbLine
 10
-0.3621763598
 20
-1.2346076867
 30
0.0
 11
-0.3711933198
 21
-1.2263887331
 31
0.0
  0
LINE
  5
366
330
1F
100
AcDbEntity
  8
0
  6
Continuous
 62
   254
370
    25
100
AcDbLine
 10
-0.3390483886
 20
-1.2474688508
 30
0.0
 11
-0.3621763598
 21
-1.2346076867
 31
0.0
  0
LINE
  5
367
330
1F
100
AcDbEntity
  8
0
  6
Continuous
 62
   254
370
    25
100
AcDbLine
 10
-0.3163052542
 20
-1.2541792751
 30
0.0
 11
-0.3390483886
 21
-1.2474688508
 31
0.0
  0
LINE
  5
368
330
1F
100
AcDbEntity
  8
0
  6
Continuous
 62
   254
370
    25
100
AcDbLine
 10
-0.2933871663
 20
-1.2572167602
 30
0.0
 11
-0.3163052542
 21
-1.2541792751
 31
0.0
  0
LINE
  5
369
330
1F
100
AcDbEntity
  8
0
  6
Continuous
 62
   254
370
    25
100
AcDbLine
 10
-0.270259195
 20
-1.2569660636
 30
0.0
 11
-0.2933871663
 21
-1.2572167602
 31
0.0
  0
LINE
  5
36A
330
1F
100
AcDbEntity
  8
0
  6
Continuous
 62
   254
370
    25
100
AcDbLine
 10
-0.2468863841
 20
-1.2538119825
 30
0.0
 11
-0.270259195
 21
-1.2569660636
 31
0.0
  0
LINE
  5
36B
330
1F
100
AcDbEntity
  8
0
  6
Continuous
 62
   254
370
    25
100
AcDbLine
 10
-0.2228547443
 20
-1.2468799875
 30
0.0
 11
-0.2468863841
 21
-1.2538119825
 31
0.0
  0
LINE
  5
36C
330
1F
100
AcDbEntity
  8
0
  6
Continuous
 62
   254
370
    25
100
AcDbLine
 10
-0.2023911218
 20
-1.2352956018
 30
0.0
 11
-0.2228547443
 21
-1.2468799875
 31
0.0
  0
LINE
  5
36D
330
1F
100
AcDbEntity
  8
0
  6
Continuous
 62
   254
370
    25
100
AcDbLine
 10
-0.1865449204
 20
-1.2186040629
 30
0.0
 11
-0.2023911218
 21
-1.2352956018
 31
0.0
  0
LINE
  5
36E
330
1F
100
AcDbEntity
  8
0
  6
Continuous
 62
   254
370
    25
100
AcDbLine
 10
-0.1806813011
 20
-1.208201
 30
0.0
 11
-0.1865449204
 21
-1.2186040629
 31
0.0
  0
LINE
  5
36F
330
1F
100
AcDbEntity
  8
0
  6
Continuous
 62
   254
370
    25
100
AcDbLine
 10
-0.1763655701
 20
-1.1963506079
 30
0.0
 11
-0.1806813011
 21
-1.208201
 31
0.0
  0
LINE
  5
370
330
1F
100
AcDbEntity
  8
0
  6
Continuous
 62
   254
370
    25
100
AcDbLine
 10
-0.1723428032
 20
-1.1766623971
 30
0.0
 11
-0.1763655701
 21
-1.1963506079
 31
0.0
  0
LINE
  5
371
330
1F
100
AcDbEntity
  8
0
  6
Continuous
 62
   254
370
    25
100
AcDbLine
 10
-0.1702089867
 20
-1.1563795057
 30
0.0
 11
-0.1723428032
 21
-1.1766623971
 31
0.0
  0
LINE
  5
372
330
1F
100
AcDbEntity
  8
0
  6
Continuous
 62
   254
370
    25
100
AcDbLine
 10
-0.1674105505
 20
-1.1150091986
 30
0.0
 11
-0.1702089867
 21
-1.1563795057
 31
0.0
  0
LINE
  5
373
330
1F
100
AcDbEntity
  8
0
  6
Continuous
 62
   254
370
    25
100
AcDbLine
 10
-0.2644232077
 20
-1.1150091986
 30
0.0
 11
-0.1674105505
 21
-1.1150091986
 31
0.0
  0
LINE
  5
374
330
1F
100
AcDbEntity
  8
0
  6
Continuous
 62
   254
370
    25
100
AcDbLine
 10
-0.2644232077
 20
-1.1862762059
 30
0.0
 11
-0.2644232077
 21
-1.1150091986
 31
0.0
  0
LINE
  5
375
330
1F
100
AcDbEntity
  8
0
  6
Continuous
 62
   254
370
    25
100
AcDbLine
 10
-0.2652685716
 20
-1.194549088
 30
0.0
 11
-0.2644232077
 21
-1.1862762059
 31
0.0
  0
LINE
  5
376
330
1F
100
AcDbEntity
  8
0
  6
Continuous
 62
   254
370
    25
100
AcDbLine
 10
-0.268107821
 20
-1.2012478514
 30
0.0
 11
-0.2652685716
 21
-1.194549088
 31
0.0
  0
LINE
  5
377
330
1F
100
AcDbEntity
  8
0
  6
Continuous
 62
   254
370
    25
100
AcDbLine
 10
-0.2733957054
 20
-1.2052181441
 30
0.0
 11
-0.268107821
 21
-1.2012478514
 31
0.0
  0
LINE
  5
378
330
1F
100
AcDbEntity
  8
0
  6
Continuous
 62
   254
370
    25
100
AcDbLine
 10
-0.2815869743
 20
-1.2053055878
 30
0.0
 11
-0.2733957054
 21
-1.2052181441
 31
0.0
  0
LINE
  5
379
330
1F
100
AcDbEntity
  8
0
  6
Continuous
 62
   254
370
    25
100
AcDbLine
 10
-0.286869015
 20
-1.2027111913
 30
0.0
 11
-0.2815869743
 21
-1.2053055878
 31
0.0
  0
LINE
  5
37A
330
1F
100
AcDbEntity
  8
0
  6
Continuous
 62
   254
370
    25
100
AcDbLine
 10
-0.2919411855
 20
-1.1979829783
 30
0.0
 11
-0.286869015
 21
-1.2027111913
 31
0.0
  0
LINE
  5
37B
330
1F
100
AcDbEntity
  8
0
  6
Continuous
 62
   254
370
    25
100
AcDbLine
 10
-0.2957540558
 20
-1.1923452663
 30
0.0
 11
-0.2919411855
 21
-1.1979829783
 31
0.0
  0
LINE
  5
37C
330
1F
100
AcDbEntity
  8
0
  6
Continuous
 62
   254
370
    25
100
AcDbLine
 10
-0.2972582222
 20
-1.1870223991
 30
0.0
 11
-0.2957540558
 21
-1.1923452663
 31
0.0
  0
LINE
  5
37D
330
1F
100
AcDbEntity
  8
0
  6
Continuous
 62
   254
370
    25
100
AcDbLine
 10
-0.2980044683
 20
-0.9948630967
 30
0.0
 11
-0.2972582222
 21
-1.1870223991
 31
0.0
  0
LINE
  5
37E
330
1F
100
AcDbEntity
  8
0
  6
Continuous
 62
   254
370
    25
100
AcDbLine
 10
-0.2971066434
 20
-0.9866951629
 30
0.0
 11
-0.2980044683
 21
-0.9948630967
 31
0.0
  0
LINE
  5
37F
330
1F
100
AcDbEntity
  8
0
  6
Continuous
 62
   254
370
    25
100
AcDbLine
 10
-0.2941799503
 20
-0.9798914512
 30
0.0
 11
-0.2971066434
 21
-0.9866951629
 31
0.0
  0
LINE
  5
380
330
1F
100
AcDbEntity
  8
0
  6
Continuous
 62
   254
370
    25
100
AcDbLine
 10
-0.2888745746
 20
-0.9758162234
 30
0.0
 11
-0.2941799503
 21
-0.9798914512
 31
0.0
  0
LINE
  5
381
330
1F
100
AcDbEntity
  8
0
  6
Continuous
 62
   254
370
    25
100
AcDbLine
 10
-0.2808407017
 20
-0.9758337148
 30
0.0
 11
-0.2888745746
 21
-0.9758162234
 31
0.0
  0
LINE
  5
382
330
1F
100
AcDbEntity
  8
0
  6
Continuous
 62
   254
370
    25
100
AcDbLine
 10
-0.2757218875
 20
-0.9787778993
 30
0.0
 11
-0.2808407017
 21
-0.9758337148
 31
0.0
  0
LINE
  5
383
330
1F
100
AcDbEntity
  8
0
  6
Continuous
 62
   254
370
    25
100
AcDbLine
 10
-0.2709528745
 20
-0.9839958314
 30
0.0
 11
-0.2757218875
 21
-0.9787778993
 31
0.0
  0
LINE
  5
384
330
1F
100
AcDbEntity
  8
0
  6
Continuous
 62
   254
370
    25
100
AcDbLine
 10
-0.2655425504
 20
-0.9963556154
 30
0.0
 11
-0.2709528745
 21
-0.9839958314
 31
0.0
  0
LINE
  5
385
330
1F
100
AcDbEntity
  8
0
  6
Continuous
 62
   254
370
    25
100
AcDbLine
 10
-0.2643298938
 20
-1.0254594126
 30
0.0
 11
-0.2655425504
 21
-0.9963556154
 31
0.0
  0
LINE
  5
386
330
1F
100
AcDbEntity
  8
0
  6
Continuous
 62
   254
370
    25
100
AcDbLine
 10
-0.2647963043
 20
-1.0556826053
 30
0.0
 11
-0.2643298938
 21
-1.0254594126
 31
0.0
  0
LINE
  5
387
330
1F
100
AcDbEntity
  8
0
  6
Continuous
 62
   254
370
    25
100
AcDbLine
 10
-0.1700224251
 20
-1.0556827508
 30
0.0
 11
-0.2647963043
 21
-1.0556826053
 31
0.0
  0
LINE
  5
388
330
1F
100
AcDbEntity
  8
0
  6
Continuous
 62
   254
370
    25
100
AcDbLine
 10
-0.4543482668
 20
-1.0582007035
 30
0.0
 11
-0.4230056784
 21
-1.0575477315
 31
0.0
  0
LINE
  5
389
330
1F
100
AcDbEntity
  8
0
  6
Continuous
 62
   254
370
    25
100
AcDbLine
 10
-0.4677108505
 20
-1.057232913
 30
0.0
 11
-0.4543482668
 21
-1.0582007035
 31
0.0
  0
LINE
  5
38A
330
1F
100
AcDbEntity
  8
0
  6
Continuous
 62
   254
370
    25
100
AcDbLine
 10
-0.4767358224
 20
-1.052697092
 30
0.0
 11
-0.4677108505
 21
-1.057232913
 31
0.0
  0
LINE
  5
38B
330
1F
100
AcDbEntity
  8
0
  6
Continuous
 62
   254
370
    25
100
AcDbLine
 10
-0.4815456487
 20
-1.0423078451
 30
0.0
 11
-0.4767358224
 21
-1.052697092
 31
0.0
  0
LINE
  5
38C
330
1F
100
AcDbEntity
  8
0
  6
Continuous
 62
   254
370
    25
100
AcDbLine
 10
-0.4827524748
 20
-1.028630443
 30
0.0
 11
-0.4815456487
 21
-1.0423078451
 31
0.0
  0
LINE
  5
38D
330
1F
100
AcDbEntity
  8
0
  6
Continuous
 62
   254
370
    25
100
AcDbLine
 10
-0.482332708
 20
-0.998966948
 30
0.0
 11
-0.4827524748
 21
-1.028630443
 31
0.0
  0
LINE
  5
38E
330
1F
100
AcDbEntity
  8
0
  6
Continuous
 62
   254
370
    25
100
AcDbLine
 10
-0.478974574
 20
-0.9926238163
 30
0.0
 11
-0.482332708
 21
-0.998966948
 31
0.0
  0
LINE
  5
38F
330
1F
100
AcDbEntity
  8
0
  6
Continuous
 62
   254
370
    25
100
AcDbLine
 10
-0.4196475841
 20
-0.9926238163
 30
0.0
 11
-0.478974574
 21
-0.9926238163
 31
0.0
  0
LINE
  5
390
330
1F
100
AcDbEntity
  8
0
  6
Continuous
 62
   254
370
    25
100
AcDbLine
 10
-0.4196475841
 20
-0.9306848856
 30
0.0
 11
-0.4196475841
 21
-0.9926238163
 31
0.0
  0
LINE
  5
391
330
1F
100
AcDbEntity
  8
0
  6
Continuous
 62
   254
370
    25
100
AcDbLine
 10
-0.5759872312
 20
-0.9306848856
 30
0.0
 11
-0.4196475841
 21
-0.9306848856
 31
0.0
  0
LINE
  5
392
330
1F
100
AcDbEntity
  8
0
  6
Continuous
 62
   254
370
    25
100
AcDbLine
 10
-0.5759872312
 20
-1.2478421325
 30
0.0
 11
-0.5759872312
 21
-0.9306848856
 31
0.0
  0
LINE
  5
393
330
1F
100
AcDbEntity
  8
0
  6
Continuous
 62
   254
370
    25
100
AcDbLine
 10
-0.4140511348
 20
-1.2478421325
 30
0.0
 11
-0.5759872312
 21
-1.2478421325
 31
0.0
  0
LINE
  5
394
330
1F
100
AcDbEntity
  8
0
  6
Continuous
 62
   254
370
    25
100
AcDbLine
 10
-0.4140511348
 20
-1.2097833686
 30
0.0
 11
-0.4140511348
 21
-1.2478421325
 31
0.0
  0
LINE
  5
395
330
1F
100
AcDbEntity
  8
0
  6
Continuous
 62
   254
370
    25
100
AcDbLine
 10
-0.4147041596
 20
-1.1994699442
 30
0.0
 11
-0.4140511348
 21
-1.2097833686
 31
0.0
  0
LINE
  5
396
330
1F
100
AcDbEntity
  8
0
  6
Continuous
 62
   254
370
    25
100
AcDbLine
 10
-0.4184354431
 20
-1.192479671
 30
0.0
 11
-0.4147041596
 21
-1.1994699442
 31
0.0
  0
LINE
  5
397
330
1F
100
AcDbEntity
  8
0
  6
Continuous
 62
   254
370
    25
100
AcDbLine
 10
-0.4253849031
 20
-1.1886376351
 30
0.0
 11
-0.4184354431
 21
-1.192479671
 31
0.0
  0
LINE
  5
398
330
1F
100
AcDbEntity
  8
0
  6
Continuous
 62
   254
370
    25
100
AcDbLine
 10
-0.4356924575
 20
-1.1877689493
 30
0.0
 11
-0.4253849031
 21
-1.1886376351
 31
0.0
  0
LINE
  5
399
330
1F
100
AcDbEntity
  8
0
  6
Continuous
 62
   254
370
    25
100
AcDbLine
 10
-0.4830794301
 20
-1.1877689493
 30
0.0
 11
-0.4356924575
 21
-1.1877689493
 31
0.0
  0
LINE
  5
39A
330
1F
100
AcDbEntity
  8
0
  6
Continuous
 62
   254
370
    25
100
AcDbLine
 10
-0.482333184
 20
-1.1265763441
 30
0.0
 11
-0.4830794301
 21
-1.1877689493
 31
0.0
  0
LINE
  5
39B
330
1F
100
AcDbEntity
  8
0
  6
Continuous
 62
   254
370
    25
100
AcDbLine
 10
-0.4770160812
 20
-1.1188806248
 30
0.0
 11
-0.482333184
 21
-1.1265763441
 31
0.0
  0
LINE
  5
39C
330
1F
100
AcDbEntity
  8
0
  6
Continuous
 62
   254
370
    25
100
AcDbLine
 10
-0.4677812259
 20
-1.1142631905
 30
0.0
 11
-0.4770160812
 21
-1.1188806248
 31
0.0
  0
LINE
  5
39D
330
1F
100
AcDbEntity
  8
0
  6
Continuous
 62
   254
370
    25
100
AcDbLine
 10
-0.4456735853
 20
-1.113190465
 30
0.0
 11
-0.4677812259
 21
-1.1142631905
 31
0.0
  0
LINE
  5
39E
330
1F
100
AcDbEntity
  8
0
  6
Continuous
 62
   254
370
    25
100
AcDbLine
 10
-0.423006194
 20
-1.1135169444
 30
0.0
 11
-0.4456735853
 21
-1.113190465
 31
0.0
  0
LINE
  5
39F
330
1F
100
AcDbEntity
  8
0
  6
Continuous
 62
   254
370
    25
100
AcDbLine
 10
-0.4230056784
 20
-1.0575477315
 30
0.0
 11
-0.423006194
 21
-1.1135169444
 31
0.0
  0
LINE
  5
3A0
330
1F
100
AcDbEntity
  8
0
  6
Continuous
 62
   254
370
    25
100
AcDbLine
 10
-0.7282167074
 20
-0.9750875216
 30
0.0
 11
-0.7282167074
 21
-1.0582945461
 31
0.0
  0
LINE
  5
3A1
330
1F
100
AcDbEntity
  8
0
  6
Continuous
 62
   254
370
    25
100
AcDbLine
 10
-0.7086742845
 20
-0.9815705579
 30
0.0
 11
-0.7282167074
 21
-0.9750875216
 31
0.0
  0
LINE
  5
3A2
330
1F
100
AcDbEntity
  8
0
  6
Continuous
 62
   254
370
    25
100
AcDbLine
 10
-0.7010893439
 20
-0.9847946045
 30
0.0
 11
-0.7086742845
 21
-0.9815705579
 31
0.0
  0
LINE
  5
3A3
330
1F
100
AcDbEntity
  8
0
  6
Continuous
 62
   254
370
    25
100
AcDbLine
 10
-0.6972473081
 20
-0.9888931542
 30
0.0
 11
-0.7010893439
 21
-0.9847946045
 31
0.0
  0
LINE
  5
3A4
330
1F
100
AcDbEntity
  8
0
  6
Continuous
 62
   254
370
    25
100
AcDbLine
 10
-0.6929097228
 20
-1.0138925448
 30
0.0
 11
-0.6972473081
 21
-0.9888931542
 31
0.0
  0
LINE
  5
3A5
330
1F
100
AcDbEntity
  8
0
  6
Continuous
 62
   254
370
    25
100
AcDbLine
 10
-0.6950085565
 20
-1.0388919353
 30
0.0
 11
-0.6929097228
 21
-1.0138925448
 31
0.0
  0
LINE
  5
3A6
330
1F
100
AcDbEntity
  8
0
  6
Continuous
 62
   254
370
    25
100
AcDbLine
 10
-0.6989380889
 20
-1.0439174358
 30
0.0
 11
-0.6950085565
 21
-1.0388919353
 31
0.0
  0
LINE
  5
3A7
330
1F
100
AcDbEntity
  8
0
  6
Continuous
 62
   254
370
    25
100
AcDbLine
 10
-0.7068553526
 20
-1.0483133125
 30
0.0
 11
-0.6989380889
 21
-1.0439174358
 31
0.0
  0
LINE
  5
3A8
330
1F
100
AcDbEntity
  8
0
  6
Continuous
 62
   254
370
    25
100
AcDbLine
 10
-0.7282167074
 20
-1.0582945461
 30
0.0
 11
-0.7068553526
 21
-1.0483133125
 31
0.0
  0
LINE
  5
3A9
330
1F
100
AcDbEntity
  8
0
  6
Continuous
 62
   254
370
    25
100
AcDbLine
 10
-0.7106799631
 20
-1.1009587396
 30
0.0
 11
-0.7300824681
 21
-1.1012036189
 31
0.0
  0
LINE
  5
3AA
330
1F
100
AcDbEntity
  8
0
  6
Continuous
 62
   254
370
    25
100
AcDbLine
 10
-0.6985533843
 20
-1.10540126
 30
0.0
 11
-0.7106799631
 21
-1.1009587396
 31
0.0
  0
LINE
  5
3AB
330
1F
100
AcDbEntity
  8
0
  6
Continuous
 62
   254
370
    25
100
AcDbLine
 10
-0.6923035399
 20
-1.1155805838
 30
0.0
 11
-0.6985533843
 21
-1.10540126
 31
0.0
  0
LINE
  5
3AC
330
1F
100
AcDbEntity
  8
0
  6
Continuous
 62
   254
370
    25
100
AcDbLine
 10
-0.6905311856
 20
-1.1325461148
 30
0.0
 11
-0.6923035399
 21
-1.1155805838
 31
0.0
  0
LINE
  5
3AD
330
1F
100
AcDbEntity
  8
0
  6
Continuous
 62
   254
370
    25
100
AcDbLine
 10
-0.6905311856
 20
-1.2478419606
 30
0.0
 11
-0.6905311856
 21
-1.1325461148
 31
0.0
  0
LINE
  5
3AE
330
1F
100
AcDbEntity
  8
0
  6
Continuous
 62
   254
370
    25
100
AcDbLine
 10
-0.6028466049
 20
-1.2478419606
 30
0.0
 11
-0.6905311856
 21
-1.2478419606
 31
0.0
  0
LINE
  5
3AF
330
1F
100
AcDbEntity
  8
0
  6
Continuous
 62
   254
370
    25
100
AcDbLine
 10
-0.6032197412
 20
-1.2021340815
 30
0.0
 11
-0.6028466049
 21
-1.2478419606
 31
0.0
  0
LINE
  5
3B0
330
1F
100
AcDbEntity
  8
0
  6
Continuous
 62
   254
370
    25
100
AcDbLine
 10
-0.6024734819
 20
-1.1575455715
 30
0.0
 11
-0.6032197412
 21
-1.2021340815
 31
0.0
  0
LINE
  5
3B1
330
1F
100
AcDbEntity
  8
0
  6
Continuous
 62
   254
370
    25
100
AcDbLine
 10
-0.6035870338
 20
-1.1317124382
 30
0.0
 11
-0.6024734819
 21
-1.1575455715
 31
0.0
  0
LINE
  5
3B2
330
1F
100
AcDbEntity
  8
0
  6
Continuous
 62
   254
370
    25
100
AcDbLine
 10
-0.6105423243
 20
-1.1101119816
 30
0.0
 11
-0.6035870338
 21
-1.1317124382
 31
0.0
  0
LINE
  5
3B3
330
1F
100
AcDbEntity
  8
0
  6
Continuous
 62
   254
370
    25
100
AcDbLine
 10
-0.6165932322
 20
-1.1011285501
 30
0.0
 11
-0.6105423243
 21
-1.1101119816
 31
0.0
  0
LINE
  5
3B4
330
1F
100
AcDbEntity
  8
0
  6
Continuous
 62
   254
370
    25
100
AcDbLine
 10
-0.624563684
 20
-1.0934787473
 30
0.0
 11
-0.6165932322
 21
-1.1011285501
 31
0.0
  0
LINE
  5
3B5
330
1F
100
AcDbEntity
  8
0
  6
Continuous
 62
   254
370
    25
100
AcDbLine
 10
-0.6346067257
 20
-1.0872544062
 30
0.0
 11
-0.624563684
 21
-1.0934787473
 31
0.0
  0
LINE
  5
3B6
330
1F
100
AcDbEntity
  8
0
  6
Continuous
 62
   254
370
    25
100
AcDbLine
 10
-0.6468754171
 20
-1.0825473336
 30
0.0
 11
-0.6346067257
 21
-1.0872544062
 31
0.0
  0
LINE
  5
3B7
330
1F
100
AcDbEntity
  8
0
  6
Continuous
 62
   254
370
    25
100
AcDbLine
 10
-0.6268199137
 20
-1.0662231401
 30
0.0
 11
-0.6468754171
 21
-1.0825473336
 31
0.0
  0
LINE
  5
3B8
330
1F
100
AcDbEntity
  8
0
  6
Continuous
 62
   254
370
    25
100
AcDbLine
 10
-0.6181214212
 20
-1.0576762264
 30
0.0
 11
-0.6268199137
 21
-1.0662231401
 31
0.0
  0
LINE
  5
3B9
330
1F
100
AcDbEntity
  8
0
  6
Continuous
 62
   254
370
    25
100
AcDbLine
 10
-0.6129209805
 20
-1.0482198004
 30
0.0
 11
-0.6181214212
 21
-1.0576762264
 31
0.0
  0
LINE
  5
3BA
330
1F
100
AcDbEntity
  8
0
  6
Continuous
 62
   254
370
    25
100
AcDbLine
 10
-0.6076323822
 20
-1.0248484173
 30
0.0
 11
-0.6129209805
 21
-1.0482198004
 31
0.0
  0
LINE
  5
3BB
330
1F
100
AcDbEntity
  8
0
  6
Continuous
 62
   254
370
    25
100
AcDbLine
 10
-0.6053127445
 20
-1.0029199874
 30
0.0
 11
-0.6076323822
 21
-1.0248484173
 31
0.0
  0
LINE
  5
3BC
330
1F
100
AcDbEntity
  8
0
  6
Continuous
 62
   254
370
    25
100
AcDbLine
 10
-0.6065523851
 20
-0.9829329819
 30
0.0
 11
-0.6053127445
 21
-1.0029199874
 31
0.0
  0
LINE
  5
3BD
330
1F
100
AcDbEntity
  8
0
  6
Continuous
 62
   254
370
    25
100
AcDbLine
 10
-0.611941582
 20
-0.9653858724
 30
0.0
 11
-0.6065523851
 21
-0.9829329819
 31
0.0
  0
LINE
  5
3BE
330
1F
100
AcDbEntity
  8
0
  6
Continuous
 62
   254
370
    25
100
AcDbLine
 10
-0.6220706529
 20
-0.9507771302
 30
0.0
 11
-0.611941582
 21
-0.9653858724
 31
0.0
  0
LINE
  5
3BF
330
1F
100
AcDbEntity
  8
0
  6
Continuous
 62
   254
370
    25
100
AcDbLine
 10
-0.6375298624
 20
-0.9396052265
 30
0.0
 11
-0.6220706529
 21
-0.9507771302
 31
0.0
  0
LINE
  5
3C0
330
1F
100
AcDbEntity
  8
0
  6
Continuous
 62
   254
370
    25
100
AcDbLine
 10
-0.6589095283
 20
-0.9323686328
 30
0.0
 11
-0.6375298624
 21
-0.9396052265
 31
0.0
  0
LINE
  5
3C1
330
1F
100
AcDbEntity
  8
0
  6
Continuous
 62
   254
370
    25
100
AcDbLine
 10
-0.6867999285
 20
-0.9295658205
 30
0.0
 11
-0.6589095283
 21
-0.9323686328
 31
0.0
  0
LINE
  5
3C2
330
1F
100
AcDbEntity
  8
0
  6
Continuous
 62
   254
370
    25
100
AcDbLine
 10
-0.7938869877
 20
-0.9288195744
 30
0.0
 11
-0.6867999285
 21
-0.9295658205
 31
0.0
  0
LINE
  5
3C3
330
1F
100
AcDbEntity
  8
0
  6
Continuous
 62
   254
370
    25
100
AcDbLine
 10
-0.8069113914
 20
-0.9296591343
 30
0.0
 11
-0.7938869877
 21
-0.9288195744
 31
0.0
  0
LINE
  5
3C4
330
1F
100
AcDbEntity
  8
0
  6
Continuous
 62
   254
370
    25
100
AcDbLine
 10
-0.8155282442
 20
-0.9338567886
 30
0.0
 11
-0.8069113914
 21
-0.9296591343
 31
0.0
  0
LINE
  5
3C5
330
1F
100
AcDbEntity
  8
0
  6
Continuous
 62
   254
370
    25
100
AcDbLine
 10
-0.8202272917
 20
-0.9422521104
 30
0.0
 11
-0.8155282442
 21
-0.9338567886
 31
0.0
  0
LINE
  5
3C6
330
1F
100
AcDbEntity
  8
0
  6
Continuous
 62
   254
370
    25
100
AcDbLine
 10
-0.8214982529
 20
-0.9556846464
 30
0.0
 11
-0.8202272917
 21
-0.9422521104
 31
0.0
  0
LINE
  5
3C7
330
1F
100
AcDbEntity
  8
0
  6
Continuous
 62
   254
370
    25
100
AcDbLine
 10
-0.8211251298
 20
-1.2262008495
 30
0.0
 11
-0.8214982529
 21
-0.9556846464
 31
0.0
  0
LINE
  5
3C8
330
1F
100
AcDbEntity
  8
0
  6
Continuous
 62
   254
370
    25
100
AcDbLine
 10
-0.8196326244
 20
-1.2474690755
 30
0.0
 11
-0.8211251298
 21
-1.2262008495
 31
0.0
  0
LINE
  5
3C9
330
1F
100
AcDbEntity
  8
0
  6
Continuous
 62
   254
370
    25
100
AcDbLine
 10
-0.7300824284
 20
-1.2474690755
 30
0.0
 11
-0.8196326244
 21
-1.2474690755
 31
0.0
  0
LINE
  5
3CA
330
1F
100
AcDbEntity
  8
0
  6
Continuous
 62
   254
370
    25
100
AcDbLine
 10
-0.7300824681
 20
-1.1012036189
 30
0.0
 11
-0.7300824284
 21
-1.2474690755
 31
0.0
  0
MTEXT
  5
3CC
330
1F
100
AcDbEntity
  8
0
  6
Continuous
 62
   141
100
AcDbMText
 10
-0.8641477975
 20
-1.2973571693
 30
0.0
 40
0.1903
 41
0.0
 71
     1
 72
     1
  1
SOLIDWORKS Educational Product.
  7
SLDTEXTSTYLE0
 73
     1
 44
1.0
  0
MTEXT
  5
3CD
330
1F
100
AcDbEntity
  8
0
  6
Continuous
 62
   141
100
AcDbMText
 10
-0.8641477975
 20
-1.5828071693
 30
0.0
 40
0.1903
 41
0.0
 71
     1
 72
     1
  1
For Instructional Use Only.
  7
SLDTEXTSTYLE0
 73
     1
 44
1.0
  0
ENDSEC
  0
SECTION
  2
OBJECTS
  0
DICTIONARY
  5
C
330
0
100
AcDbDictionary
281
     1
  3
ACAD_GROUP
350
D
  3
ACAD_LAYOUT
350
1A
  3
ACAD_MLINESTYLE
350
17
  3
ACAD_PLOTSETTINGS
350
19
  3
ACAD_PLOTSTYLENAME
350
E
  3
ACAD_SCALELIST
350
47
  3
DWGPROPS
350
3CE
  0
DICTIONARY
  5
D
102
{ACAD_REACTORS
330
C
102
}
330
C
100
AcDbDictionary
281
     1
  0
DICTIONARY
  5
1A
102
{ACAD_REACTORS
330
C
102
}
330
C
100
AcDbDictionary
281
     1
  3
Layout1
350
1E
  3
Layout2
350
26
  3
Model
350
22
  0
DICTIONARY
  5
17
102
{ACAD_REACTORS
330
C
102
}
330
C
100
AcDbDictionary
281
     1
  3
Standard
350
18
  0
DICTIONARY
  5
19
102
{ACAD_REACTORS
330
C
102
}
330
C
100
AcDbDictionary
281
     1
  0
ACDBDICTIONARYWDFLT
  5
E
102
{ACAD_REACTORS
330
C
102
}
330
C
100
AcDbDictionary
281
     1
  3
Normal
350
F
100
AcDbDictionaryWithDefault
340
F
  0
DICTIONARY
  5
47
102
{ACAD_REACTORS
330
C
102
}
330
C
100
AcDbDictionary
281
     1
  3
A0
350
48
  3
A1
350
49
  3
A2
350
4A
  3
A3
350
4B
  3
A4
350
4C
  3
A5
350
4D
  3
A6
350
4E
  3
A7
350
4F
  3
A8
350
50
  3
A9
350
51
  3
B1
350
52
  3
B2
350
53
  3
B3
350
54
  3
B4
350
55
  3
B5
350
56
  3
B6
350
57
  3
B7
350
58
  0
XRECORD
  5
3CE
102
{ACAD_REACTORS
330
C
102
}
330
C
100
AcDbXrecord
280
     1
  1
DWGPROPS COOKIE
  2

  3

  4

  6

  7

  8
John
  9

300
=
301
=
302
=
303
=
304
=
305
=
306
=
307
=
308
=
309
=
 40
0.0
 41
2460387.250113935
 42
2460387.250151134
  1

 90
        0
  0
LAYOUT
  5
1E
102
{ACAD_REACTORS
330
1A
102
}
330
1A
100
AcDbPlotSettings
  1

  2
none_device
  4

  6

 40
0.0
 41
0.0
 42
0.0
 43
0.0
 44
0.0
 45
0.0
 46
0.0
 47
0.0
 48
0.0
 49
0.0
140
0.0
141
0.0
142
1.0
143
1.0
 70
   688
 72
     0
 73
     0
 74
     5
  7

 75
    16
147
1.0
148
0.0
149
0.0
100
AcDbLayout
  1
Layout1
 70
     1
 71
     1
 10
0.0
 20
0.0
 11
12.0
 21
9.0
 12
0.0
 22
0.0
 32
0.0
 14
1.0000000000E+20
 24
1.0000000000E+20
 34
1.0000000000E+20
 15
-1.0000000000E+20
 25
-1.0000000000E+20
 35
-1.0000000000E+20
146
0.0
 13
0.0
 23
0.0
 33
0.0
 16
1.0
 26
0.0
 36
0.0
 17
0.0
 27
1.0
 37
0.0
 76
     0
330
1B
  0
LAYOUT
  5
26
102
{ACAD_REACTORS
330
1A
102
}
330
1A
100
AcDbPlotSettings
  1

  2
none_device
  4

  6

 40
0.0
 41
0.0
 42
0.0
 43
0.0
 44
0.0
 45
0.0
 46
0.0
 47
0.0
 48
0.0
 49
0.0
140
0.0
141
0.0
142
1.0
143
1.0
 70
   688
 72
     0
 73
     0
 74
     5
  7

 75
    16
147
1.0
148
0.0
149
0.0
100
AcDbLayout
  1
Layout2
 70
     1
 71
     2
 10
0.0
 20
0.0
 11
0.0
 21
0.0
 12
0.0
 22
0.0
 32
0.0
 14
0.0
 24
0.0
 34
0.0
 15
0.0
 25
0.0
 35
0.0
146
0.0
 13
0.0
 23
0.0
 33
0.0
 16
1.0
 26
0.0
 36
0.0
 17
0.0
 27
1.0
 37
0.0
 76
     0
330
23
  0
LAYOUT
  5
22
102
{ACAD_REACTORS
330
1A
102
}
330
1A
100
AcDbPlotSettings
  1

  2
none_device
  4
ANSI_A_(11.00_x_8.50_Inches)
  6

 40
6.35
 41
19.05
 42
6.35000508
 43
19.05000254
 44
279.4
 45
215.9
 46
134.5011887197
 47
95.0912931122
 48
0.0
 49
0.0
140
0.0
141
0.0
142
3.5405602982
143
1.0
 70
  1696
 72
     0
 73
     0
 74
     0
  7

 75
     0
147
0.5913241897
148
-39.4088153714
149
0.0
100
AcDbLayout
  1
Model
 70
     1
 71
     0
 10
0.0
 20
0.0
 11
12.0
 21
9.0
 12
0.0
 22
0.0
 32
0.0
 14
-0.8641477975
 24
-1.2572167602
 34
0.0
 15
0.8385459228
 25
1.1195257018
 35
0.0
146
0.0
 13
0.0
 23
0.0
 33
0.0
 16
1.0
 26
0.0
 36
0.0
 17
0.0
 27
1.0
 37
0.0
 76
     0
330
1F
331
29
  0
MLINESTYLE
  5
18
102
{ACAD_REACTORS
330
17
102
}
330
17
100
AcDbMlineStyle
  2
Standard
 70
     0
  3

 62
   256
 51
90.0
 52
90.0
 71
     2
 49
0.5
 62
   256
  6
BYLAYER
 49
-0.5
 62
   256
  6
BYLAYER
  0
ACDBPLACEHOLDER
  5
F
102
{ACAD_REACTORS
330
E
102
}
330
E
  0
SCALE
  5
48
102
{ACAD_REACTORS
330
47
102
}
330
47
100
AcDbScale
 70
     0
300
1:1
140
1.0
141
1.0
290
     1
  0
SCALE
  5
49
102
{ACAD_REACTORS
330
47
102
}
330
47
100
AcDbScale
 70
     0
300
1/128" = 1'-0"
140
0.0078125
141
12.0
290
     0
  0
SCALE
  5
4A
102
{ACAD_REACTORS
330
47
102
}
330
47
100
AcDbScale
 70
     0
300
1/64" = 1'-0"
140
0.015625
141
12.0
290
     0
  0
SCALE
  5
4B
102
{ACAD_REACTORS
330
47
102
}
330
47
100
AcDbScale
 70
     0
300
1/32" = 1'-0"
140
0.03125
141
12.0
290
     0
  0
SCALE
  5
4C
102
{ACAD_REACTORS
330
47
102
}
330
47
100
AcDbScale
 70
     0
300
1/16" = 1'-0"
140
0.0625
141
12.0
290
     0
  0
SCALE
  5
4D
102
{ACAD_REACTORS
330
47
102
}
330
47
100
AcDbScale
 70
     0
300
3/32" = 1'-0"
140
0.09375
141
12.0
290
     0
  0
SCALE
  5
4E
102
{ACAD_REACTORS
330
47
102
}
330
47
100
AcDbScale
 70
     0
300
1/8" = 1'-0"
140
0.125
141
12.0
290
     0
  0
SCALE
  5
4F
102
{ACAD_REACTORS
330
47
102
}
330
47
100
AcDbScale
 70
     0
300
3/16" = 1'-0"
140
0.1875
141
12.0
290
     0
  0
SCALE
  5
50
102
{ACAD_REACTORS
330
47
102
}
330
47
100
AcDbScale
 70
     0
300
1/4" = 1'-0"
140
0.25
141
12.0
290
     0
  0
SCALE
  5
51
102
{ACAD_REACTORS
330
47
102
}
330
47
100
AcDbScale
 70
     0
300
3/8" = 1'-0"
140
0.375
141
12.0
290
     0
  0
SCALE
  5
52
102
{ACAD_REACTORS
330
47
102
}
330
47
100
AcDbScale
 70
     0
300
1/2" = 1'-0"
140
0.5
141
12.0
290
     0
  0
SCALE
  5
53
102
{ACAD_REACTORS
330
47
102
}
330
47
100
AcDbScale
 70
     0
300
3/4" = 1'-0"
140
0.75
141
12.0
290
     0
  0
SCALE
  5
54
102
{ACAD_REACTORS
330
47
102
}
330
47
100
AcDbScale
 70
     0
300
1" = 1'-0"
140
1.0
141
12.0
290
     0
  0
SCALE
  5
55
102
{ACAD_REACTORS
330
47
102
}
330
47
100
AcDbScale
 70
     0
300
1-1/2" = 1'-0"
140
1.5
141
12.0
290
     0
  0
SCALE
  5
56
102
{ACAD_REACTORS
330
47
102
}
330
47
100
AcDbScale
 70
     0
300
3" = 1'-0"
140
3.0
141
12.0
290
     0
  0
SCALE
  5
57
102
{ACAD_REACTORS
330
47
102
}
330
47
100
AcDbScale
 70
     0
300
6" = 1'-0"
140
6.0
141
12.0
290
     0
  0
SCALE
  5
58
102
{ACAD_REACTORS
330
47
102
}
330
47
100
AcDbScale
 70
     0
300
1'-0" = 1'-0"
140
12.0
141
12.0
290
     0
  0
ENDSEC
  0
EOF
