  0
SECTION
  2
HEADER
  9
$ACADVER
  1
AC1015
  9
$ACADMAINTVER
 70
     6
  9
$DWGCODEPAGE
  3
ANSI_1252
  9
$INSBASE
 10
0.0
 20
0.0
 30
0.0
  9
$EXTMIN
 10
-371.9494141368
 20
-50.0
 30
0.0
  9
$EXTMAX
 10
75.7255858632
 20
0.0
 30
0.0
  9
$LIMMIN
 10
0.0
 20
0.0
  9
$LIMMAX
 10
420.0
 20
297.0
  9
$ORTHOMODE
 70
     0
  9
$REGENMODE
 70
     1
  9
$FILLMODE
 70
     1
  9
$QTEXTMODE
 70
     0
  9
$MIRRTEXT
 70
     1
  9
$LTSCALE
 40
1.0
  9
$ATTMODE
 70
     1
  9
$TEXTSIZE
 40
3.5
  9
$TRACEWID
 40
1.0
  9
$TEXTSTYLE
  7
Standard
  9
$CLAYER
  8
0
  9
$CELTYPE
  6
ByLayer
  9
$CECOLOR
 62
   256
  9
$CELTSCALE
 40
1.0
  9
$DISPSILH
 70
     0
  9
$DIMSCALE
 40
1.0
  9
$DIMASZ
 40
3.556
  9
$DIMEXO
 40
0.0
  9
$DIMDLI
 40
3.75
  9
$DIMRND
 40
0.0
  9
$DIMDLE
 40
0.0
  9
$DIMEXE
 40
1.0
  9
$DIMTP
 40
0.0
  9
$DIMTM
 40
0.0
  9
$DIMTXT
 40
3.5
  9
$DIMCEN
 40
2.5
  9
$DIMTSZ
 40
0.0
  9
$DIMTOL
 70
     0
  9
$DIMLIM
 70
     0
  9
$DIMTIH
 70
     1
  9
$DIMTOH
 70
     1
  9
$DIMSE1
 70
     0
  9
$DIMSE2
 70
     0
  9
$DIMTAD
 70
     1
  9
$DIMZIN
 70
     1
  9
$DIMBLK
  1

  9
$DIMASO
 70
     1
  9
$DIMSHO
 70
     1
  9
$DIMPOST
  1

  9
$DIMAPOST
  1

  9
$DIMALT
 70
     0
  9
$DIMALTD
 70
     3
  9
$DIMALTF
 40
0.0393700787
  9
$DIMLFAC
 40
1.0
  9
$DIMTOFL
 70
     1
  9
$DIMTVP
 40
0.0
  9
$DIMTIX
 70
     0
  9
$DIMSOXD
 70
     0
  9
$DIMSAH
 70
     0
  9
$DIMBLK1
  1

  9
$DIMBLK2
  1

  9
$DIMSTYLE
  2
ISO-25
  9
$DIMCLRD
 70
     0
  9
$DIMCLRE
 70
     0
  9
$DIMCLRT
 70
     0
  9
$DIMTFAC
 40
1.0
  9
$DIMGAP
 40
1.524
  9
$DIMJUST
 70
     0
  9
$DIMSD1
 70
     0
  9
$DIMSD2
 70
     0
  9
$DIMTOLJ
 70
     0
  9
$DIMTZIN
 70
     1
  9
$DIMALTZ
 70
     0
  9
$DIMALTTZ
 70
     0
  9
$DIMUPT
 70
     0
  9
$DIMDEC
 70
     2
  9
$DIMTDEC
 70
     2
  9
$DIMALTU
 70
     2
  9
$DIMALTTD
 70
     3
  9
$DIMTXSTY
  7
Standard
  9
$DIMAUNIT
 70
     0
  9
$DIMADEC
 70
     2
  9
$DIMALTRND
 40
0.0
  9
$DIMAZIN
 70
     0
  9
$DIMDSEP
 70
    44
  9
$DIMATFIT
 70
     3
  9
$DIMFRAC
 70
     0
  9
$DIMLDRBLK
  1

  9
$DIMLUNIT
 70
     2
  9
$DIMLWD
 70
    -2
  9
$DIMLWE
 70
    -2
  9
$DIMTMOVE
 70
     0
  9
$LUNITS
 70
     2
  9
$LUPREC
 70
     6
  9
$SKETCHINC
 40
1.0
  9
$FILLETRAD
 40
0.0
  9
$AUNITS
 70
     0
  9
$AUPREC
 70
     2
  9
$MENU
  1
.
  9
$ELEVATION
 40
0.0
  9
$PELEVATION
 40
0.0
  9
$THICKNESS
 40
0.0
  9
$LIMCHECK
 70
     0
  9
$CHAMFERA
 40
0.0
  9
$CHAMFERB
 40
0.0
  9
$CHAMFERC
 40
0.0
  9
$CHAMFERD
 40
0.0
  9
$SKPOLY
 70
     0
  9
$TDCREATE
 40
2460595.971769919
  9
$TDUCREATE
 40
2460596.180103252
  9
$TDUPDATE
 40
2460595.97180757
  9
$TDUUPDATE
 40
2460596.180140903
  9
$TDINDWG
 40
0.0000000116
  9
$TDUSRTIMER
 40
0.0000000116
  9
$USRTIMER
 70
     1
  9
$ANGBASE
 50
0.0
  9
$ANGDIR
 70
     0
  9
$PDMODE
 70
     0
  9
$PDSIZE
 40
-1.0
  9
$PLINEWID
 40
0.0
  9
$SPLFRAME
 70
     0
  9
$SPLINETYPE
 70
     6
  9
$SPLINESEGS
 70
     8
  9
$HANDSEED
  5
157
  9
$SURFTAB1
 70
     6
  9
$SURFTAB2
 70
     6
  9
$SURFTYPE
 70
     6
  9
$SURFU
 70
     6
  9
$SURFV
 70
     6
  9
$UCSBASE
  2

  9
$UCSNAME
  2

  9
$UCSORG
 10
0.0
 20
0.0
 30
0.0
  9
$UCSXDIR
 10
1.0
 20
0.0
 30
0.0
  9
$UCSYDIR
 10
0.0
 20
1.0
 30
0.0
  9
$UCSORTHOREF
  2

  9
$UCSORTHOVIEW
 70
     0
  9
$UCSORGTOP
 10
0.0
 20
0.0
 30
0.0
  9
$UCSORGBOTTOM
 10
0.0
 20
0.0
 30
0.0
  9
$UCSORGLEFT
 10
0.0
 20
0.0
 30
0.0
  9
$UCSORGRIGHT
 10
0.0
 20
0.0
 30
0.0
  9
$UCSORGFRONT
 10
0.0
 20
0.0
 30
0.0
  9
$UCSORGBACK
 10
0.0
 20
0.0
 30
0.0
  9
$PUCSBASE
  2

  9
$PUCSNAME
  2

  9
$PUCSORG
 10
0.0
 20
0.0
 30
0.0
  9
$PUCSXDIR
 10
1.0
 20
0.0
 30
0.0
  9
$PUCSYDIR
 10
0.0
 20
1.0
 30
0.0
  9
$PUCSORTHOREF
  2

  9
$PUCSORTHOVIEW
 70
     0
  9
$PUCSORGTOP
 10
0.0
 20
0.0
 30
0.0
  9
$PUCSORGBOTTOM
 10
0.0
 20
0.0
 30
0.0
  9
$PUCSORGLEFT
 10
0.0
 20
0.0
 30
0.0
  9
$PUCSORGRIGHT
 10
0.0
 20
0.0
 30
0.0
  9
$PUCSORGFRONT
 10
0.0
 20
0.0
 30
0.0
  9
$PUCSORGBACK
 10
0.0
 20
0.0
 30
0.0
  9
$USERI1
 70
     0
  9
$USERI2
 70
     0
  9
$USERI3
 70
     0
  9
$USERI4
 70
     0
  9
$USERI5
 70
     0
  9
$USERR1
 40
0.0
  9
$USERR2
 40
0.0
  9
$USERR3
 40
0.0
  9
$USERR4
 40
0.0
  9
$USERR5
 40
0.0
  9
$WORLDVIEW
 70
     1
  9
$SHADEDGE
 70
     3
  9
$SHADEDIF
 70
    70
  9
$TILEMODE
 70
     1
  9
$MAXACTVP
 70
    64
  9
$PINSBASE
 10
0.0
 20
0.0
 30
0.0
  9
$PLIMCHECK
 70
     0
  9
$PEXTMIN
 10
1.0000000000E+20
 20
1.0000000000E+20
 30
1.0000000000E+20
  9
$PEXTMAX
 10
-1.0000000000E+20
 20
-1.0000000000E+20
 30
-1.0000000000E+20
  9
$PLIMMIN
 10
0.0
 20
0.0
  9
$PLIMMAX
 10
420.0
 20
297.0
  9
$UNITMODE
 70
     0
  9
$VISRETAIN
 70
     1
  9
$PLINEGEN
 70
     0
  9
$PSLTSCALE
 70
     1
  9
$TREEDEPTH
 70
  3020
  9
$CMLSTYLE
  2
Standard
  9
$CMLJUST
 70
     0
  9
$CMLSCALE
 40
20.0
  9
$PROXYGRAPHICS
 70
     1
  9
$MEASUREMENT
 70
     1
  9
$CELWEIGHT
370
    -1
  9
$ENDCAPS
280
     0
  9
$JOINSTYLE
280
     0
  9
$LWDISPLAY
290
     1
  9
$INSUNITS
 70
     4
  9
$HYPERLINKBASE
  1

  9
$STYLESHEET
  1

  9
$XEDIT
290
     1
  9
$CEPSNTYPE
380
     0
  9
$PSTYLEMODE
290
     1
  9
$FINGERPRINTGUID
  2
{f3a3675e-2592-4f58-b273-df8ce29aba03}
  9
$VERSIONGUID
  2
{FAEB1C32-E019-11D5-929B-00C0DF256EC4}
  9
$EXTNAMES
290
     1
  9
$PSVPSCALE
 40
0.0
  9
$OLESTARTUP
290
     0
  0
ENDSEC
  0
SECTION
  2
CLASSES
  0
CLASS
  1
ACDBDICTIONARYWDFLT
  2
AcDbDictionaryWithDefault
  3
ObjectDBX Classes
 90
        0
280
     0
281
     0
  0
CLASS
  1
VISUALSTYLE
  2
AcDbVisualStyle
  3
ObjectDBX Classes
 90
     4095
280
     0
281
     0
  0
CLASS
  1
MATERIAL
  2
AcDbMaterial
  3
ObjectDBX Classes
 90
     1153
280
     0
281
     0
  0
CLASS
  1
SCALE
  2
AcDbScale
  3
ObjectDBX Classes
 90
     1153
280
     0
281
     0
  0
CLASS
  1
TABLESTYLE
  2
AcDbTableStyle
  3
ObjectDBX Classes
 90
     4095
280
     0
281
     0
  0
CLASS
  1
MLEADERSTYLE
  2
AcDbMLeaderStyle
  3
ACDB_MLEADERSTYLE_CLASS
 90
     4095
280
     0
281
     0
  0
CLASS
  1
SUN
  2
AcDbSun
  3
SCENEOE
 90
     1153
280
     0
281
     0
  0
CLASS
  1
ACDBPLACEHOLDER
  2
AcDbPlaceHolder
  3
ObjectDBX Classes
 90
        0
280
     0
281
     0
  0
CLASS
  1
LAYOUT
  2
AcDbLayout
  3
ObjectDBX Classes
 90
        0
280
     0
281
     0
  0
ENDSEC
  0
SECTION
  2
TABLES
  0
TABLE
  2
VPORT
  5
8
330
0
100
AcDbSymbolTable
 70
     1
  0
VPORT
  5
29
330
8
100
AcDbSymbolTableRecord
100
AcDbViewportTableRecord
  2
*Active
 70
     0
 10
0.0
 20
0.0
 11
1.0
 21
1.0
 12
-148.1119141368
 22
-25.0
 13
0.0
 23
0.0
 14
10.0
 24
10.0
 15
10.0
 25
10.0
 16
0.0
 26
0.0
 36
1.0
 17
0.0
 27
0.0
 37
0.0
 40
51.0
 41
8.9535
 42
50.0
 43
0.0
 44
0.0
 50
0.0
 51
0.0
 71
     0
 72
   100
 73
     1
 74
     3
 75
     0
 76
     0
 77
     0
 78
     0
281
     0
 65
     1
110
0.0
120
0.0
130
0.0
111
1.0
121
0.0
131
0.0
112
0.0
122
1.0
132
0.0
 79
     0
146
0.0
  0
ENDTAB
  0
TABLE
  2
LTYPE
  5
5
330
0
100
AcDbSymbolTable
 70
     6
  0
LTYPE
  5
14
330
5
100
AcDbSymbolTableRecord
100
AcDbLinetypeTableRecord
  2
ByBlock
 70
     0
  3

 72
    65
 73
     0
 40
0.0
  0
LTYPE
  5
15
330
5
100
AcDbSymbolTableRecord
100
AcDbLinetypeTableRecord
  2
ByLayer
 70
     0
  3

 72
    65
 73
     0
 40
0.0
  0
LTYPE
  5
16
330
5
100
AcDbSymbolTableRecord
100
AcDbLinetypeTableRecord
  2
Continuous
 70
     0
  3
Solid line
 72
    65
 73
     0
 40
0.0
  0
LTYPE
  5
5E
330
5
100
AcDbSymbolTableRecord
100
AcDbLinetypeTableRecord
  2
HIDDEN
 70
     0
  3
Hidden __ __ __ __ __ __ __ __ __ __ __ __ __ __
 72
    65
 73
     2
 40
1.905
 49
1.27
 74
     0
 49
-0.635
 74
     0
  0
LTYPE
  5
5F
330
5
100
AcDbSymbolTableRecord
100
AcDbLinetypeTableRecord
  2
PHANTOM
 70
     0
  3
Phantom ______  __  __  ______  __  __  ______
 72
    65
 73
     6
 40
12.7
 49
6.35
 74
     0
 49
-1.27
 74
     0
 49
1.27
 74
     0
 49
-1.27
 74
     0
 49
1.27
 74
     0
 49
-1.27
 74
     0
  0
LTYPE
  5
60
330
5
100
AcDbSymbolTableRecord
100
AcDbLinetypeTableRecord
  2
CENTER
 70
     0
  3
Center ____ _ ____ _ ____ _ ____ _ ____ _ ____
 72
    65
 73
     4
 40
10.16
 49
6.35
 74
     0
 49
-1.27
 74
     0
 49
1.27
 74
     0
 49
-1.27
 74
     0
  0
LTYPE
  5
61
330
5
100
AcDbSymbolTableRecord
100
AcDbLinetypeTableRecord
  2
CENTERX2
 70
     0
  3
Center (2x) ________  __  ________  __  _____
 72
    65
 73
     4
 40
20.32
 49
12.7
 74
     0
 49
-2.54
 74
     0
 49
2.54
 74
     0
 49
-2.54
 74
     0
  0
LTYPE
  5
62
330
5
100
AcDbSymbolTableRecord
100
AcDbLinetypeTableRecord
  2
DOT2
 70
     0
  3
Dot (.5x) ........................................
 72
    65
 73
     2
 40
0.635
 49
0.0
 74
     0
 49
-0.635
 74
     0
  0
ENDTAB
  0
TABLE
  2
LAYER
  5
2
330
0
100
AcDbSymbolTable
 70
     1
  0
LAYER
  5
10
330
2
100
AcDbSymbolTableRecord
100
AcDbLayerTableRecord
  2
0
 70
     0
 62
     7
  6
Continuous
370
    -3
390
F
  0
ENDTAB
  0
TABLE
  2
STYLE
  5
3
330
0
100
AcDbSymbolTable
 70
     2
  0
STYLE
  5
11
330
3
100
AcDbSymbolTableRecord
100
AcDbTextStyleTableRecord
  2
Standard
 70
     0
 40
0.0
 41
1.0
 50
0.0
 71
     0
 42
3.5
  3
txt
  4

  0
STYLE
  5
153
330
3
100
AcDbSymbolTableRecord
100
AcDbTextStyleTableRecord
  2
SLDTEXTSTYLE0
 70
     0
 40
0.0
 41
0.7
 50
0.0
 71
     0
 42
3.5
  3
TXT
  4

  0
ENDTAB
  0
TABLE
  2
VIEW
  5
6
330
0
100
AcDbSymbolTable
 70
     0
  0
ENDTAB
  0
TABLE
  2
UCS
  5
7
330
0
100
AcDbSymbolTable
 70
     0
  0
ENDTAB
  0
TABLE
  2
APPID
  5
9
330
0
100
AcDbSymbolTable
 70
     1
  0
APPID
  5
12
330
9
100
AcDbSymbolTableRecord
100
AcDbRegAppTableRecord
  2
ACAD
 70
     0
  0
ENDTAB
  0
TABLE
  2
DIMSTYLE
  5
A
330
0
100
AcDbSymbolTable
 70
     1
100
AcDbDimStyleTable
  0
DIMSTYLE
105
27
330
A
100
AcDbSymbolTableRecord
100
AcDbDimStyleTableRecord
  2
ISO-25
 70
     0
 41
2.5
 42
0.625
 43
3.75
 44
1.25
 73
     0
 74
     0
 77
     1
 78
     8
140
2.5
141
2.5
143
0.0393700787
147
0.625
171
     3
172
     1
178
     0
271
     2
272
     2
274
     3
278
    44
283
     0
284
     8
340
11
  0
ENDTAB
  0
TABLE
  2
BLOCK_RECORD
  5
1
330
0
100
AcDbSymbolTable
 70
     1
  0
BLOCK_RECORD
  5
1F
330
1
100
AcDbSymbolTableRecord
100
AcDbBlockTableRecord
  2
*Model_Space
340
22
  0
BLOCK_RECORD
  5
1B
330
1
100
AcDbSymbolTableRecord
100
AcDbBlockTableRecord
  2
*Paper_Space
340
1E
  0
BLOCK_RECORD
  5
23
330
1
100
AcDbSymbolTableRecord
100
AcDbBlockTableRecord
  2
*Paper_Space0
340
26
  0
ENDTAB
  0
ENDSEC
  0
SECTION
  2
BLOCKS
  0
BLOCK
  5
20
330
1F
100
AcDbEntity
  8
0
100
AcDbBlockBegin
  2
*Model_Space
 70
     0
 10
0.0
 20
0.0
 30
0.0
  3
*Model_Space
  1

  0
ENDBLK
  5
21
330
1F
100
AcDbEntity
  8
0
100
AcDbBlockEnd
  0
BLOCK
  5
1C
330
1B
100
AcDbEntity
 67
     1
  8
0
100
AcDbBlockBegin
  2
*Paper_Space
 70
     0
 10
0.0
 20
0.0
 30
0.0
  3
*Paper_Space
  1

  0
ENDBLK
  5
1D
330
1B
100
AcDbEntity
 67
     1
  8
0
100
AcDbBlockEnd
  0
BLOCK
  5
24
330
23
100
AcDbEntity
  8
0
100
AcDbBlockBegin
  2
*Paper_Space0
 70
     0
 10
0.0
 20
0.0
 30
0.0
  3
*Paper_Space0
  1

  0
ENDBLK
  5
25
330
23
100
AcDbEntity
  8
0
100
AcDbBlockEnd
  0
ENDSEC
  0
SECTION
  2
ENTITIES
  0
LINE
  5
63
330
1F
100
AcDbEntity
  8
0
  6
Continuous
 62
   254
370
    25
100
AcDbLine
 10
-371.9494141368
 20
0.0
 30
0.0
 11
-371.9494141368
 21
-50.0
 31
0.0
  0
LINE
  5
64
330
1F
100
AcDbEntity
  8
0
  6
Continuous
 62
   254
370
    25
100
AcDbLine
 10
-371.9494141368
 20
-50.0
 30
0.0
 11
75.7255858632
 21
-50.0
 31
0.0
  0
LINE
  5
65
330
1F
100
AcDbEntity
  8
0
  6
Continuous
 62
   254
370
    25
100
AcDbLine
 10
75.7255858632
 20
-50.0
 30
0.0
 11
75.7255858632
 21
0.0
 31
0.0
  0
LINE
  5
66
330
1F
100
AcDbEntity
  8
0
  6
Continuous
 62
   254
370
    25
100
AcDbLine
 10
75.7255858632
 20
0.0
 30
0.0
 11
-371.9494141368
 21
0.0
 31
0.0
  0
LINE
  5
67
330
1F
100
AcDbEntity
  8
0
  6
Continuous
 62
   254
370
    25
100
AcDbLine
 10
45.7830182956
 20
-29.7466216216
 30
0.0
 11
45.7830182956
 21
-28.597972973
 31
0.0
  0
SPLINE
  5
68
330
1F
100
AcDbEntity
  8
0
  6
Continuous
 62
   254
370
    25
100
AcDbSpline
210
0.0
220
0.0
230
1.0
 70
     8
 71
     3
 72
    23
 73
    19
 74
     0
 42
0.00000001
 43
0.00000001
 40
0.0
 40
0.0
 40
0.0
 40
0.0
 40
0.0632299130722606
 40
0.1227900722365046
 40
0.1796197414442193
 40
0.2336623661269437
 40
0.2869263363503591
 40
0.3390890949588189
 40
0.3919150578101969
 40
0.4459861555964516
 40
0.5016337667304308
 40
0.5605368626216619
 40
0.6228254855528784
 40
0.6886174019201394
 40
0.7589743944205176
 40
0.834345768718265
 40
0.9145991550514483
 40
1.0
 40
1.0
 40
1.0
 40
1.0
 10
45.78301829561173
 20
-28.59797297297302
 30
0.0
 10
45.78690471371431
 20
-28.41187482940213
 30
0.0
 10
45.79445198898909
 20
-28.05047935403535
 30
0.0
 10
45.87163308514282
 20
-27.52657822592311
 30
0.0
 10
45.99063530806158
 20
-27.03873470363116
 30
0.0
 10
46.16176700734081
 20
-26.58596798666192
 30
0.0
 10
46.38048917384086
 20
-26.16961527075393
 30
0.0
 10
46.65121558597892
 20
-25.78911939673755
 30
0.0
 10
46.9720366883758
 20
-25.44708715263483
 30
0.0
 10
47.33762292930965
 20
-25.13689076136566
 30
0.0
 10
47.75720944734211
 20
-24.87046221738639
 30
0.0
 10
48.22016666180063
 20
-24.63128543398016
 30
0.0
 10
48.73676797928582
 20
-24.43982110861815
 30
0.0
 10
49.29729833182394
 20
-24.27538234012501
 30
0.0
 10
49.90804599572452
 20
-24.15330607380954
 30
0.0
 10
50.56678634175302
 20
-24.06254807864804
 30
0.0
 10
51.27422202907136
 20
-24.00825166103876
 30
0.0
 10
51.7615252855149
 20
-24.00280694911861
 30
0.0
 10
52.01274802534147
 20
-24.00000000000005
 30
0.0
  0
LINE
  5
69
330
1F
100
AcDbEntity
  8
0
  6
Continuous
 62
   254
370
    25
100
AcDbLine
 10
52.0127480253
 20
-24.0
 30
0.0
 11
64.4688291064
 21
-24.0
 31
0.0
  0
LINE
  5
6A
330
1F
100
AcDbEntity
  8
0
  6
Continuous
 62
   254
370
    25
100
AcDbLine
 10
64.4688291064
 20
-24.0
 30
0.0
 11
64.4688291064
 21
-27.4256756757
 31
0.0
  0
LINE
  5
6B
330
1F
100
AcDbEntity
  8
0
  6
Continuous
 62
   254
370
    25
100
AcDbLine
 10
64.4688291064
 20
-27.4256756757
 30
0.0
 11
52.0127480253
 21
-27.4256756757
 31
0.0
  0
SPLINE
  5
6C
330
1F
100
AcDbEntity
  8
0
  6
Continuous
 62
   254
370
    25
100
AcDbSpline
210
0.0
220
0.0
230
1.0
 70
     8
 71
     3
 72
    15
 73
    11
 74
     0
 42
0.00000001
 43
0.00000001
 40
0.0
 40
0.0
 40
0.0
 40
0.0
 40
0.148890249852135
 40
0.2818057723976701
 40
0.401861726016765
 40
0.5121659765030455
 40
0.6214909343592987
 40
0.7351168573861426
 40
0.8596190151341268
 40
1.0
 40
1.0
 40
1.0
 40
1.0
 10
52.01274802534147
 20
-27.42567567567573
 30
0.0
 10
51.91553820889651
 20
-27.42781194171258
 30
0.0
 10
51.73154840811968
 20
-27.43185526960784
 30
0.0
 10
51.47473727980196
 20
-27.49117411164291
 30
0.0
 10
51.25459975453502
 20
-27.58083394887018
 30
0.0
 10
51.07005252343803
 20
-27.70796984529945
 30
0.0
 10
50.93361509798891
 20
-27.88010151766067
 30
0.0
 10
50.83301504633729
 20
-28.08469332886493
 30
0.0
 10
50.77693432189756
 20
-28.32706381743074
 30
0.0
 10
50.76987019966738
 20
-28.49971546058117
 30
0.0
 10
50.76612640371985
 20
-28.59121621621627
 30
0.0
  0
LINE
  5
6D
330
1F
100
AcDbEntity
  8
0
  6
Continuous
 62
   254
370
    25
100
AcDbLine
 10
50.7661264037
 20
-28.5912162162
 30
0.0
 11
50.7661264037
 21
-29.7533783784
 31
0.0
  0
SPLINE
  5
6E
330
1F
100
AcDbEntity
  8
0
  6
Continuous
 62
   254
370
    25
100
AcDbSpline
210
0.0
220
0.0
230
1.0
 70
     8
 71
     3
 72
    15
 73
    11
 74
     0
 42
0.00000001
 43
0.00000001
 40
0.0
 40
0.0
 40
0.0
 40
0.0
 40
0.1403809848658716
 40
0.2648831426138558
 40
0.3785090656407015
 40
0.4878340234969535
 40
0.5981382739832342
 40
0.7181942276023292
 40
0.8511097501478648
 40
1.0
 40
1.0
 40
1.0
 40
1.0
 10
50.76612640371984
 20
-29.75337837837843
 30
0.0
 10
50.76987019966737
 20
-29.84487913401352
 30
0.0
 10
50.77693432189756
 20
-30.01753077716395
 30
0.0
 10
50.83301504633732
 20
-30.25990126572977
 30
0.0
 10
50.93361509798888
 20
-30.46449307693405
 30
0.0
 10
51.07005252343805
 20
-30.63662474929523
 30
0.0
 10
51.25459975453501
 20
-30.76376064572452
 30
0.0
 10
51.47473727980196
 20
-30.85342048295178
 30
0.0
 10
51.73154840811967
 20
-30.91273932498687
 30
0.0
 10
51.91553820889649
 20
-30.91678265288212
 30
0.0
 10
52.01274802534147
 20
-30.91891891891897
 30
0.0
  0
LINE
  5
6F
330
1F
100
AcDbEntity
  8
0
  6
Continuous
 62
   254
370
    25
100
AcDbLine
 10
52.0127480253
 20
-30.9189189189
 30
0.0
 11
54.5026128902
 21
-30.9189189189
 31
0.0
  0
LINE
  5
70
330
1F
100
AcDbEntity
  8
0
  6
Continuous
 62
   254
370
    25
100
AcDbLine
 10
54.5026128902
 20
-30.9189189189
 30
0.0
 11
54.5026128902
 21
-34.3445945946
 31
0.0
  0
LINE
  5
71
330
1F
100
AcDbEntity
  8
0
  6
Continuous
 62
   254
370
    25
100
AcDbLine
 10
54.5026128902
 20
-34.3445945946
 30
0.0
 11
52.0127480253
 21
-34.3445945946
 31
0.0
  0
SPLINE
  5
72
330
1F
100
AcDbEntity
  8
0
  6
Continuous
 62
   254
370
    25
100
AcDbSpline
210
0.0
220
0.0
230
1.0
 70
     8
 71
     3
 72
    23
 73
    19
 74
     0
 42
0.00000001
 43
0.00000001
 40
0.0
 40
0.0
 40
0.0
 40
0.0
 40
0.0854008449485517
 40
0.1656542312817349
 40
0.2410256055794822
 40
0.3113825980798605
 40
0.3771745144471216
 40
0.4394631373783379
 40
0.4983662332695692
 40
0.5540138444035484
 40
0.6080849421898027
 40
0.6609109050411807
 40
0.7130736636496404
 40
0.7663376338730563
 40
0.8203802585557799
 40
0.8772099277634954
 40
0.9367700869277389
 40
1.0
 40
1.0
 40
1.0
 40
1.0
 10
52.01274802534147
 20
-34.34459459459465
 30
0.0
 10
51.76152528551491
 20
-34.34178764547609
 30
0.0
 10
51.27422202907136
 20
-34.33634293355593
 30
0.0
 10
50.56678634175303
 20
-34.28204651594667
 30
0.0
 10
49.90804599572451
 20
-34.19128852078515
 30
0.0
 10
49.29729833182395
 20
-34.0692122544697
 30
0.0
 10
48.73676797928579
 20
-33.90477348597653
 30
0.0
 10
48.22016666180063
 20
-33.71330916061454
 30
0.0
 10
47.7572094473421
 20
-33.47413237720831
 30
0.0
 10
47.33762292930964
 20
-33.20770383322903
 30
0.0
 10
46.97203668837579
 20
-32.89750744195987
 30
0.0
 10
46.65121558597895
 20
-32.55547519785714
 30
0.0
 10
46.38048917384087
 20
-32.17497932384077
 30
0.0
 10
46.16176700734081
 20
-31.75862660793279
 30
0.0
 10
45.9906353080616
 20
-31.30585989096353
 30
0.0
 10
45.8716330851428
 20
-30.81801636867159
 30
0.0
 10
45.7944519889891
 20
-30.29411524055934
 30
0.0
 10
45.78690471371431
 20
-29.93271976519256
 30
0.0
 10
45.78301829561173
 20
-29.74662162162167
 30
0.0
  0
SPLINE
  5
73
330
1F
100
AcDbEntity
  8
0
  6
Continuous
 62
   254
370
    25
100
AcDbSpline
210
0.0
220
0.0
230
1.0
 70
     8
 71
     3
 72
    23
 73
    19
 74
     0
 42
0.00000001
 43
0.00000001
 40
0.0
 40
0.0
 40
0.0
 40
0.0
 40
0.0858198515358888
 40
0.1664669892136857
 40
0.2421563524249963
 40
0.3128585410805263
 40
0.3788668187102172
 40
0.4414610515372141
 40
0.5003070205016198
 40
0.5562276583913497
 40
0.6100714389882633
 40
0.662875594189746
 40
0.7149812976361174
 40
0.7678274865602864
 40
0.8217756369584015
 40
0.878137925220497
 40
0.9372286500899176
 40
1.0
 40
1.0
 40
1.0
 40
1.0
 10
58.23909937669282
 20
-30.91891891891897
 30
0.0
 10
58.49034238265328
 20
-30.92159233691534
 30
0.0
 10
58.97768494984179
 20
-30.92677803505861
 30
0.0
 10
59.68469373034993
 20
-30.98287861972461
 30
0.0
 10
60.34423652546522
 20
-31.06733514539959
 30
0.0
 10
60.95375537325783
 20
-31.1925470887405
 30
0.0
 10
61.51602230291098
 20
-31.35031195340518
 30
0.0
 10
62.02951207021538
 20
-31.5455647865065
 30
0.0
 10
62.49676923473329
 20
-31.77408698284383
 30
0.0
 10
62.91168310697662
 20
-32.04333776280792
 30
0.0
 10
63.28093176960164
 20
-32.34516587862138
 30
0.0
 10
63.60045175725853
 20
-32.68449089255268
 30
0.0
 10
63.87031032273936
 20
-33.06076245544713
 30
0.0
 10
64.09100413290167
 20
-33.4716599101751
 30
0.0
 10
64.26047142165385
 20
-33.91953556823105
 30
0.0
 10
64.38037626131512
 20
-34.40145168303636
 30
0.0
 10
64.45737061521301
 20
-34.91870564596239
 30
0.0
 10
64.46493346855327
 20
-35.27561492048014
 30
0.0
 10
64.46882910642255
 20
-35.45945945945951
 30
0.0
  0
SPLINE
  5
74
330
1F
100
AcDbEntity
  8
0
  6
Continuous
 62
   254
370
    25
100
AcDbSpline
210
0.0
220
0.0
230
1.0
 70
     8
 71
     3
 72
    23
 73
    19
 74
     0
 42
0.00000001
 43
0.00000001
 40
0.0
 40
0.0
 40
0.0
 40
0.0
 40
0.0627713499100826
 40
0.1218620747795023
 40
0.1782243630415987
 40
0.2321725134397136
 40
0.2850187023638828
 40
0.3371244058102537
 40
0.3899285610117368
 40
0.4437723416086501
 40
0.4996929794983804
 40
0.5585389484627857
 40
0.6211331812897828
 40
0.6871414589194739
 40
0.7578436475750038
 40
0.8335330107863144
 40
0.9141801484641113
 40
1.0
 40
1.0
 40
1.0
 40
1.0
 10
64.46882910642255
 20
-35.45945945945951
 30
0.0
 10
64.46493346855327
 20
-35.64330399843889
 30
0.0
 10
64.45737061521298
 20
-36.00021327295665
 30
0.0
 10
64.38037626131515
 20
-36.51746723588266
 30
0.0
 10
64.26047142165383
 20
-36.99938335068799
 30
0.0
 10
64.09100413290167
 20
-37.44725900874394
 30
0.0
 10
63.87031032273936
 20
-37.85815646347189
 30
0.0
 10
63.60045175725853
 20
-38.23442802636634
 30
0.0
 10
63.28093176960163
 20
-38.57375304029765
 30
0.0
 10
62.91168310697663
 20
-38.87558115611109
 30
0.0
 10
62.49676923473328
 20
-39.14483193607521
 30
0.0
 10
62.02951207021537
 20
-39.37335413241251
 30
0.0
 10
61.51602230291098
 20
-39.56860696551382
 30
0.0
 10
60.95375537325783
 20
-39.7263718301785
 30
0.0
 10
60.34423652546523
 20
-39.85158377351944
 30
0.0
 10
59.68469373034992
 20
-39.93604029919439
 30
0.0
 10
58.97768494984184
 20
-39.99214088386041
 30
0.0
 10
58.49034238265329
 20
-39.99732658200368
 30
0.0
 10
58.23909937669282
 20
-40.00000000000005
 30
0.0
  0
LINE
  5
75
330
1F
100
AcDbEntity
  8
0
  6
Continuous
 62
   254
370
    25
100
AcDbLine
 10
58.2390993767
 20
-40.0
 30
0.0
 11
45.7830182956
 21
-40.0
 31
0.0
  0
LINE
  5
76
330
1F
100
AcDbEntity
  8
0
  6
Continuous
 62
   254
370
    25
100
AcDbLine
 10
45.7830182956
 20
-40.0
 30
0.0
 11
45.7830182956
 21
-36.5743243243
 31
0.0
  0
LINE
  5
77
330
1F
100
AcDbEntity
  8
0
  6
Continuous
 62
   254
370
    25
100
AcDbLine
 10
45.7830182956
 20
-36.5743243243
 30
0.0
 11
58.2390993767
 21
-36.5743243243
 31
0.0
  0
SPLINE
  5
78
330
1F
100
AcDbEntity
  8
0
  6
Continuous
 62
   254
370
    25
100
AcDbSpline
210
0.0
220
0.0
230
1.0
 70
     8
 71
     3
 72
    15
 73
    11
 74
     0
 42
0.00000001
 43
0.00000001
 40
0.0
 40
0.0
 40
0.0
 40
0.0
 40
0.1520305298305225
 40
0.2873702215624652
 40
0.408629950603717
 40
0.5212606544989851
 40
0.628842117485338
 40
0.7417076271988009
 40
0.8636971875016599
 40
1.0
 40
1.0
 40
1.0
 40
1.0
 10
58.23909937669282
 20
-36.57432432432437
 30
0.0
 10
58.33632620794931
 20
-36.57200932671185
 30
0.0
 10
58.52010571638848
 20
-36.56763348603322
 30
0.0
 10
58.77564187538161
 20
-36.51087552792153
 30
0.0
 10
58.99915064403841
 20
-36.43092676173664
 30
0.0
 10
59.17793963838425
 20
-36.30191437305254
 30
0.0
 10
59.31953177633054
 20
-36.1408742333116
 30
0.0
 10
59.41787874819585
 20
-35.94324810431002
 30
0.0
 10
59.47493197283728
 20
-35.71147529178492
 30
0.0
 10
59.48199420546081
 20
-35.54651188184016
 30
0.0
 10
59.48572099831443
 20
-35.45945945945951
 30
0.0
  0
SPLINE
  5
79
330
1F
100
AcDbEntity
  8
0
  6
Continuous
 62
   254
370
    25
100
AcDbSpline
210
0.0
220
0.0
230
1.0
 70
     8
 71
     3
 72
    15
 73
    11
 74
     0
 42
0.00000001
 43
0.00000001
 40
0.0
 40
0.0
 40
0.0
 40
0.0
 40
0.1362586649157171
 40
0.2582087136040002
 40
0.3710376669227384
 40
0.4799217483511145
 40
0.5915024019440934
 40
0.7127228557583047
 40
0.8480187118560901
 40
1.0
 40
1.0
 40
1.0
 40
1.0
 10
59.48572099831443
 20
-35.45945945945951
 30
0.0
 10
59.4819687950691
 20
-35.37243136616559
 30
0.0
 10
59.47485841002489
 20
-35.20751405958011
 30
0.0
 10
59.41812935466141
 20
-34.97543087236387
 30
0.0
 10
59.31829553110565
 20
-34.77808831047312
 30
0.0
 10
59.18023634844342
 20
-34.61329931387487
 30
0.0
 10
58.99776239386853
 20
-34.48876869011282
 30
0.0
 10
58.77588250688691
 20
-34.40773391898947
 30
0.0
 10
58.52003374776445
 20
-34.35137799048569
 30
0.0
 10
58.33630130715429
 20
-34.34694161668801
 30
0.0
 10
58.23909937669282
 20
-34.34459459459465
 30
0.0
  0
LINE
  5
7A
330
1F
100
AcDbEntity
  8
0
  6
Continuous
 62
   254
370
    25
100
AcDbLine
 10
58.2390993767
 20
-34.3445945946
 30
0.0
 11
55.7492345118
 21
-34.3445945946
 31
0.0
  0
LINE
  5
7B
330
1F
100
AcDbEntity
  8
0
  6
Continuous
 62
   254
370
    25
100
AcDbLine
 10
55.7492345118
 20
-34.3445945946
 30
0.0
 11
55.7492345118
 21
-30.9189189189
 31
0.0
  0
LINE
  5
7C
330
1F
100
AcDbEntity
  8
0
  6
Continuous
 62
   254
370
    25
100
AcDbLine
 10
55.7492345118
 20
-30.9189189189
 30
0.0
 11
58.2390993767
 21
-30.9189189189
 31
0.0
  0
LINE
  5
7D
330
1F
100
AcDbEntity
  8
0
  6
Continuous
 62
   254
370
    25
100
AcDbLine
 10
21.2789642416
 20
-24.0
 30
0.0
 11
41.211396674
 21
-24.0
 31
0.0
  0
LINE
  5
7E
330
1F
100
AcDbEntity
  8
0
  6
Continuous
 62
   254
370
    25
100
AcDbLine
 10
41.211396674
 20
-24.0
 30
0.0
 11
41.211396674
 21
-27.4256756757
 31
0.0
  0
LINE
  5
7F
330
1F
100
AcDbEntity
  8
0
  6
Continuous
 62
   254
370
    25
100
AcDbLine
 10
41.211396674
 20
-27.4256756757
 30
0.0
 11
23.7722074848
 21
-27.4256756757
 31
0.0
  0
LINE
  5
80
330
1F
100
AcDbEntity
  8
0
  6
Continuous
 62
   254
370
    25
100
AcDbLine
 10
23.7722074848
 20
-27.4256756757
 30
0.0
 11
21.2789642416
 21
-24.0
 31
0.0
  0
LINE
  5
81
330
1F
100
AcDbEntity
  8
0
  6
Continuous
 62
   254
370
    25
100
AcDbLine
 10
34.9850453226
 20
-40.0
 30
0.0
 11
30.0019372145
 21
-40.0
 31
0.0
  0
LINE
  5
82
330
1F
100
AcDbEntity
  8
0
  6
Continuous
 62
   254
370
    25
100
AcDbLine
 10
30.0019372145
 20
-40.0
 30
0.0
 11
30.0019372145
 21
-28.5405405405
 31
0.0
  0
LINE
  5
83
330
1F
100
AcDbEntity
  8
0
  6
Continuous
 62
   254
370
    25
100
AcDbLine
 10
30.0019372145
 20
-28.5405405405
 30
0.0
 11
34.9850453226
 21
-28.5405405405
 31
0.0
  0
LINE
  5
84
330
1F
100
AcDbEntity
  8
0
  6
Continuous
 62
   254
370
    25
100
AcDbLine
 10
34.9850453226
 20
-28.5405405405
 30
0.0
 11
34.9850453226
 21
-40.0
 31
0.0
  0
LINE
  5
85
330
1F
100
AcDbEntity
  8
0
  6
Continuous
 62
   254
370
    25
100
AcDbLine
 10
0.4640993767
 20
-28.5405405405
 30
0.0
 11
5.4472074848
 21
-28.5405405405
 31
0.0
  0
LINE
  5
86
330
1F
100
AcDbEntity
  8
0
  6
Continuous
 62
   254
370
    25
100
AcDbLine
 10
5.4472074848
 20
-28.5405405405
 30
0.0
 11
5.4472074848
 21
-40.0
 31
0.0
  0
LINE
  5
87
330
1F
100
AcDbEntity
  8
0
  6
Continuous
 62
   254
370
    25
100
AcDbLine
 10
5.4472074848
 20
-40.0
 30
0.0
 11
0.4640993767
 21
-40.0
 31
0.0
  0
LINE
  5
88
330
1F
100
AcDbEntity
  8
0
  6
Continuous
 62
   254
370
    25
100
AcDbLine
 10
0.4640993767
 20
-40.0
 30
0.0
 11
0.4640993767
 21
-28.5405405405
 31
0.0
  0
LINE
  5
89
330
1F
100
AcDbEntity
  8
0
  6
Continuous
 62
   254
370
    25
100
AcDbLine
 10
14.1668020794
 20
-29.7533783784
 30
0.0
 11
14.1668020794
 21
-28.5912162162
 31
0.0
  0
SPLINE
  5
8A
330
1F
100
AcDbEntity
  8
0
  6
Continuous
 62
   254
370
    25
100
AcDbSpline
210
0.0
220
0.0
230
1.0
 70
     8
 71
     3
 72
    15
 73
    11
 74
     0
 42
0.00000001
 43
0.00000001
 40
0.0
 40
0.0
 40
0.0
 40
0.0
 40
0.1403809848658732
 40
0.264883142613857
 40
0.3785090656407004
 40
0.487834023496954
 40
0.5981382739832344
 40
0.7181942276023292
 40
0.851109750147865
 40
1.0
 40
1.0
 40
1.0
 40
1.0
 10
14.16680207939549
 20
-28.59121621621627
 30
0.0
 10
14.16305828344796
 20
-28.49971546058116
 30
0.0
 10
14.15599416121776
 20
-28.32706381743075
 30
0.0
 10
14.09991343677801
 20
-28.08469332886493
 30
0.0
 10
13.99931338512646
 20
-27.88010151766065
 30
0.0
 10
13.86287595967729
 20
-27.70796984529946
 30
0.0
 10
13.67832872858033
 20
-27.58083394887017
 30
0.0
 10
13.45819120331335
 20
-27.49117411164291
 30
0.0
 10
13.20138007499566
 20
-27.43185526960783
 30
0.0
 10
13.01739027421883
 20
-27.42781194171257
 30
0.0
 10
12.92018045777387
 20
-27.42567567567573
 30
0.0
  0
LINE
  5
8B
330
1F
100
AcDbEntity
  8
0
  6
Continuous
 62
   254
370
    25
100
AcDbLine
 10
12.9201804578
 20
-27.4256756757
 30
0.0
 11
0.4640993767
 21
-27.4256756757
 31
0.0
  0
LINE
  5
8C
330
1F
100
AcDbEntity
  8
0
  6
Continuous
 62
   254
370
    25
100
AcDbLine
 10
0.4640993767
 20
-27.4256756757
 30
0.0
 11
-2.0291438666
 21
-24.0
 31
0.0
  0
LINE
  5
8D
330
1F
100
AcDbEntity
  8
0
  6
Continuous
 62
   254
370
    25
100
AcDbLine
 10
-2.0291438666
 20
-24.0
 30
0.0
 11
12.9201804578
 21
-24.0
 31
0.0
  0
SPLINE
  5
8E
330
1F
100
AcDbEntity
  8
0
  6
Continuous
 62
   254
370
    25
100
AcDbSpline
210
0.0
220
0.0
230
1.0
 70
     8
 71
     3
 72
    23
 73
    19
 74
     0
 42
0.00000001
 43
0.00000001
 40
0.0
 40
0.0
 40
0.0
 40
0.0
 40
0.0852965283105178
 40
0.1654518855965857
 40
0.2407311941966752
 40
0.3110022460377515
 40
0.3767137979597969
 40
0.439063687230705
 40
0.4977218312892807
 40
0.553510240695999
 40
0.6075152909491262
 40
0.6602767271924959
 40
0.7126877884752125
 40
0.7658866970671492
 40
0.8202210823797411
 40
0.8769813344752958
 40
0.9368473219007519
 40
1.0
 40
1.0
 40
1.0
 40
1.0
 10
12.92018045777386
 20
-24.00000000000005
 30
0.0
 10
13.17140473740959
 20
-24.0028033051554
 30
0.0
 10
13.65871098066087
 20
-24.0082409487857
 30
0.0
 10
14.3661257248844
 20
-24.06258692829427
 30
0.0
 10
15.02493839205703
 20
-24.15317377524234
 30
0.0
 10
15.63544170036788
 20
-24.27582830982401
 30
0.0
 10
16.19718916351014
 20
-24.43842001793698
 30
0.0
 10
16.71083656792773
 20
-24.63661465806171
 30
0.0
 10
17.17784563466509
 20
-24.86893690429534
 30
0.0
 10
17.59417776634028
 20
-25.14099414955382
 30
0.0
 10
17.96091242915871
 20
-25.45027866130832
 30
0.0
 10
18.28287736157125
 20
-25.79284645575835
 30
0.0
 10
18.55130080389854
 20
-26.17601271609896
 30
0.0
 10
18.77219075903229
 20
-26.59340821690812
 30
0.0
 10
18.94149425197085
 20
-27.0480570350105
 30
0.0
 10
19.06183393280749
 20
-27.53772143921629
 30
0.0
 10
19.13820049886366
 20
-28.06292181972434
 30
0.0
 10
19.14593804988603
 20
-28.42540345597122
 30
0.0
 10
19.1499101875036
 20
-28.61148648648654
 30
0.0
  0
LINE
  5
8F
330
1F
100
AcDbEntity
  8
0
  6
Continuous
 62
   254
370
    25
100
AcDbLine
 10
19.1499101875
 20
-28.6114864865
 30
0.0
 11
19.1499101875
 21
-29.7635135135
 31
0.0
  0
SPLINE
  5
90
330
1F
100
AcDbEntity
  8
0
  6
Continuous
 62
   254
370
    25
100
AcDbSpline
210
0.0
220
0.0
230
1.0
 70
     8
 71
     3
 72
    23
 73
    19
 74
     0
 42
0.00000001
 43
0.00000001
 40
0.0
 40
0.0
 40
0.0
 40
0.0
 40
0.0685923136890129
 40
0.1334413450754889
 40
0.1959419025138032
 40
0.2560174724843188
 40
0.3143405198836765
 40
0.3713063453975924
 40
0.427490544708212
 40
0.4842124041095751
 40
0.5410011131032606
 40
0.5991624262745717
 40
0.6588907293936237
 40
0.7209058586619125
 40
0.7857246211789161
 40
0.8535111122108084
 40
0.9247585739438323
 40
1.0
 40
1.0
 40
1.0
 40
1.0
 10
19.1499101875036
 20
-29.76351351351356
 30
0.0
 10
19.14663361792924
 20
-29.91454770605844
 30
0.0
 10
19.14025929072375
 20
-30.20837371544127
 30
0.0
 10
19.09165244929772
 20
-30.63759817003864
 30
0.0
 10
19.01479981995564
 20
-31.04333737006491
 30
0.0
 10
18.9077727016332
 20
-31.42762818791279
 30
0.0
 10
18.76475235313725
 20
-31.78694631520397
 30
0.0
 10
18.59220230504268
 20
-32.12338368091493
 30
0.0
 10
18.3875329333058
 20
-32.43715910351208
 30
0.0
 10
18.15174324340815
 20
-32.72794639996359
 30
0.0
 10
17.88107979680157
 20
-32.9926930188365
 30
0.0
 10
17.58323719204003
 20
-33.23661242423004
 30
0.0
 10
17.25412243394873
 20
-33.45839625936947
 30
0.0
 10
16.88948863400605
 20
-33.64857829187211
 30
0.0
 10
16.49745656208241
 20
-33.82240277719283
 30
0.0
 10
16.07284621542881
 20
-33.9686813606168
 30
0.0
 10
15.61945326107646
 20
-34.10065428697058
 30
0.0
 10
15.3025478904407
 20
-34.16137793821254
 30
0.0
 10
15.13977505236846
 20
-34.19256756756761
 30
0.0
  0
LINE
  5
91
330
1F
100
AcDbEntity
  8
0
  6
Continuous
 62
   254
370
    25
100
AcDbLine
 10
15.1397750524
 20
-34.1925675676
 30
0.0
 11
19.1499101875
 21
-40.0
 31
0.0
  0
LINE
  5
92
330
1F
100
AcDbEntity
  8
0
  6
Continuous
 62
   254
370
    25
100
AcDbLine
 10
19.1499101875
 20
-40.0
 30
0.0
 11
12.9201804578
 21
-40.0
 31
0.0
  0
LINE
  5
93
330
1F
100
AcDbEntity
  8
0
  6
Continuous
 62
   254
370
    25
100
AcDbLine
 10
12.9201804578
 20
-40.0
 30
0.0
 11
6.6938291064
 21
-30.9189189189
 31
0.0
  0
LINE
  5
94
330
1F
100
AcDbEntity
  8
0
  6
Continuous
 62
   254
370
    25
100
AcDbLine
 10
6.6938291064
 20
-30.9189189189
 30
0.0
 11
12.9201804578
 21
-30.9189189189
 31
0.0
  0
SPLINE
  5
95
330
1F
100
AcDbEntity
  8
0
  6
Continuous
 62
   254
370
    25
100
AcDbSpline
210
0.0
220
0.0
230
1.0
 70
     8
 71
     3
 72
    15
 73
    11
 74
     0
 42
0.00000001
 43
0.00000001
 40
0.0
 40
0.0
 40
0.0
 40
0.0
 40
0.148890249852135
 40
0.2818057723976714
 40
0.4018617260167663
 40
0.512165976503047
 40
0.6214909343592993
 40
0.7351168573861445
 40
0.8596190151341284
 40
1.0
 40
1.0
 40
1.0
 40
1.0
 10
12.92018045777386
 20
-30.91891891891897
 30
0.0
 10
13.01739027421882
 20
-30.91678265288213
 30
0.0
 10
13.20138007499566
 20
-30.91273932498686
 30
0.0
 10
13.45819120331335
 20
-30.85342048295179
 30
0.0
 10
13.67832872858033
 20
-30.76376064572451
 30
0.0
 10
13.86287595967728
 20
-30.63662474929523
 30
0.0
 10
13.99931338512646
 20
-30.46449307693406
 30
0.0
 10
14.09991343677801
 20
-30.25990126572976
 30
0.0
 10
14.15599416121776
 20
-30.01753077716396
 30
0.0
 10
14.16305828344795
 20
-29.84487913401353
 30
0.0
 10
14.16680207939549
 20
-29.75337837837843
 30
0.0
  0
SPLINE
  5
96
330
1F
100
AcDbEntity
  8
0
  6
Continuous
 62
   254
370
    25
100
AcDbSpline
210
0.0
220
0.0
230
1.0
 70
     8
 71
     3
 72
    15
 73
    11
 74
     0
 42
0.00000001
 43
0.00000001
 40
0.0
 40
0.0
 40
0.0
 40
0.0
 40
0.1501140779009097
 40
0.2837477174756779
 40
0.4047904908738205
 40
0.5160014054014218
 40
0.6235477598331001
 40
0.7381076499384227
 40
0.8619405078823581
 40
1.0
 40
1.0
 40
1.0
 40
1.0
 10
-10.38792765033423
 20
-36.57432432432437
 30
0.0
 10
-10.29080263319209
 20
-36.57176465201611
 30
0.0
 10
-10.10721557520768
 20
-36.56692632382526
 30
0.0
 10
-9.84956642108628
 20
-36.51306544722551
 30
0.0
 10
-9.629496622413637
 20
-36.42257564589426
 30
0.0
 10
-9.447791793019816
 20
-36.2955429405144
 30
0.0
 10
-9.306605090132049
 20
-36.12960121816693
 30
0.0
 10
-9.209269354867386
 20
-35.92605674333511
 30
0.0
 10
-9.152106013660138
 20
-35.68774567504548
 30
0.0
 10
-9.145034078641347
 20
-35.5183518895499
 30
0.0
 10
-9.141306028712611
 20
-35.42905405405411
 30
0.0
  0
LINE
  5
97
330
1F
100
AcDbEntity
  8
0
  6
Continuous
 62
   254
370
    25
100
AcDbLine
 10
-9.1413060287
 20
-35.4290540541
 30
0.0
 11
-9.1413060287
 21
-28.5675675676
 31
0.0
  0
SPLINE
  5
98
330
1F
100
AcDbEntity
  8
0
  6
Continuous
 62
   254
370
    25
100
AcDbSpline
210
0.0
220
0.0
230
1.0
 70
     8
 71
     3
 72
    15
 73
    11
 74
     0
 42
0.00000001
 43
0.00000001
 40
0.0
 40
0.0
 40
0.0
 40
0.0
 40
0.1382294419960693
 40
0.2622147369715325
 40
0.3753524747393826
 40
0.4843657517553391
 40
0.5947112160087895
 40
0.7159029918717972
 40
0.8497011331439943
 40
1.0
 40
1.0
 40
1.0
 40
1.0
 10
-9.141306028712611
 20
-28.56756756756762
 30
0.0
 10
-9.145121690530285
 20
-28.47832425862298
 30
0.0
 10
-9.15235982117341
 20
-28.3090339074252
 30
0.0
 10
-9.20817011594252
 20
-28.07101663873519
 30
0.0
 10
-9.308894769182068
 20
-27.8698370428
 30
0.0
 10
-9.445390776151651
 20
-27.70071644957843
 30
0.0
 10
-9.630911236286948
 20
-27.5781988020112
 30
0.0
 10
-9.849315959996115
 20
-27.48661948836199
 30
0.0
 10
-10.10729016867901
 20
-27.43316751010414
 30
0.0
 10
-10.29082844217155
 20
-27.42826781406863
 30
0.0
 10
-10.38792765033423
 20
-27.42567567567573
 30
0.0
  0
LINE
  5
99
330
1F
100
AcDbEntity
  8
0
  6
Continuous
 62
   254
370
    25
100
AcDbLine
 10
-10.3879276503
 20
-27.4256756757
 30
0.0
 11
-10.3879276503
 21
-24.0
 31
0.0
  0
SPLINE
  5
9A
330
1F
100
AcDbEntity
  8
0
  6
Continuous
 62
   254
370
    25
100
AcDbSpline
210
0.0
220
0.0
230
1.0
 70
     8
 71
     3
 72
    23
 73
    19
 74
     0
 42
0.00000001
 43
0.00000001
 40
0.0
 40
0.0
 40
0.0
 40
0.0
 40
0.0856006118474805
 40
0.1660417243106094
 40
0.2415894048933885
 40
0.3121109741988113
 40
0.3779506237784546
 40
0.4403849502451452
 40
0.4992522115593735
 40
0.5550299917884681
 40
0.6089810901390733
 40
0.6619306217770138
 40
0.7142153978260862
 40
0.7669265832308373
 40
0.8210956226761948
 40
0.8776859979569761
 40
0.9370055973654016
 40
1.0
 40
1.0
 40
1.0
 40
1.0
 10
-10.38792765033423
 20
-24.00000000000005
 30
0.0
 10
-10.13670161866252
 20
-24.00279615379257
 30
0.0
 10
-9.649391976941644
 20
-24.00821992573912
 30
0.0
 10
-8.942001062330588
 20
-24.06266317163158
 30
0.0
 10
-8.283106106229178
 20
-24.15291413621692
 30
0.0
 10
-7.67318639842389
 20
-24.27664154905824
 30
0.0
 10
-7.111177963774848
 20
-24.43515706109289
 30
0.0
 10
-6.596476316467125
 20
-24.62908893310831
 30
0.0
 10
-6.131295359088292
 20
-24.8627745741447
 30
0.0
 10
-5.714130070594987
 20
-25.13071420494505
 30
0.0
 10
-5.346148226694768
 20
-25.43672558696495
 30
0.0
 10
-5.026306861928945
 20
-25.77905691100371
 30
0.0
 10
-4.757728329133945
 20
-26.15829814593439
 30
0.0
 10
-4.535080785192567
 20
-26.57034808624742
 30
0.0
 10
-4.366723297908525
 20
-27.02103669852811
 30
0.0
 10
-4.246613779127657
 20
-27.50619235005363
 30
0.0
 10
-4.169676293227284
 20
-28.02683670291886
 30
0.0
 10
-4.162099919695407
 20
-28.38597950153627
 30
0.0
 10
-4.158197920604501
 20
-28.570945945946
 30
0.0
  0
LINE
  5
9B
330
1F
100
AcDbEntity
  8
0
  6
Continuous
 62
   254
370
    25
100
AcDbLine
 10
-4.1581979206
 20
-28.5709459459
 30
0.0
 11
-4.1581979206
 21
-35.4290540541
 31
0.0
  0
SPLINE
  5
9C
330
1F
100
AcDbEntity
  8
0
  6
Continuous
 62
   254
370
    25
100
AcDbSpline
210
0.0
220
0.0
230
1.0
 70
     8
 71
     3
 72
    23
 73
    19
 74
     0
 42
0.00000001
 43
0.00000001
 40
0.0
 40
0.0
 40
0.0
 40
0.0
 40
0.062994402634598
 40
0.1223140020430236
 40
0.1789043773238052
 40
0.2330734167691628
 40
0.2857846021739139
 40
0.3380693782229863
 40
0.3910189098609272
 40
0.444970008211532
 40
0.5007477884406266
 40
0.559615049754855
 40
0.6220493762215457
 40
0.6878890258011889
 40
0.7584105951066118
 40
0.8339582756893908
 40
0.9143993881525196
 40
1.0
 40
1.0
 40
1.0
 40
1.0
 10
-4.158197920604501
 20
-35.42905405405411
 30
0.0
 10
-4.162099919695408
 20
-35.61402049846382
 30
0.0
 10
-4.169676293227282
 20
-35.97316329708124
 30
0.0
 10
-4.246613779127661
 20
-36.49380764994647
 30
0.0
 10
-4.366723297908523
 20
-36.97896330147197
 30
0.0
 10
-4.535080785192567
 20
-37.42965191375269
 30
0.0
 10
-4.757728329133944
 20
-37.84170185406568
 30
0.0
 10
-5.026306861928947
 20
-38.2209430889964
 30
0.0
 10
-5.346148226694766
 20
-38.56327441303515
 30
0.0
 10
-5.714130070594988
 20
-38.86928579505506
 30
0.0
 10
-6.131295359088292
 20
-39.13722542585538
 30
0.0
 10
-6.596476316467123
 20
-39.37091106689179
 30
0.0
 10
-7.111177963774847
 20
-39.56484293890723
 30
0.0
 10
-7.673186398423891
 20
-39.72335845094186
 30
0.0
 10
-8.283106106229178
 20
-39.84708586378317
 30
0.0
 10
-8.942001062330585
 20
-39.93733682836852
 30
0.0
 10
-9.649391976941645
 20
-39.99178007426096
 30
0.0
 10
-10.13670161866252
 20
-39.99720384620753
 30
0.0
 10
-10.38792765033423
 20
-40.00000000000005
 30
0.0
  0
LINE
  5
9D
330
1F
100
AcDbEntity
  8
0
  6
Continuous
 62
   254
370
    25
100
AcDbLine
 10
-10.3879276503
 20
-40.0
 30
0.0
 11
-15.3710357584
 21
-40.0
 31
0.0
  0
LINE
  5
9E
330
1F
100
AcDbEntity
  8
0
  6
Continuous
 62
   254
370
    25
100
AcDbLine
 10
-15.3710357584
 20
-40.0
 30
0.0
 11
-15.3710357584
 21
-36.5743243243
 31
0.0
  0
LINE
  5
9F
330
1F
100
AcDbEntity
  8
0
  6
Continuous
 62
   254
370
    25
100
AcDbLine
 10
-15.3710357584
 20
-36.5743243243
 30
0.0
 11
-10.3879276503
 21
-36.5743243243
 31
0.0
  0
SPLINE
  5
A0
330
1F
100
AcDbEntity
  8
0
  6
Continuous
 62
   254
370
    25
100
AcDbSpline
210
0.0
220
0.0
230
1.0
 70
     8
 71
     3
 72
    15
 73
    11
 74
     0
 42
0.00000001
 43
0.00000001
 40
0.0
 40
0.0
 40
0.0
 40
0.0
 40
0.1502988668560041
 40
0.2840970081282023
 40
0.40528878399121
 40
0.5156342482446605
 40
0.6246475252606165
 40
0.7377852630284671
 40
0.8617705580039307
 40
1.0
 40
1.0
 40
1.0
 40
1.0
 10
-16.61427900168558
 20
-27.42567567567573
 30
0.0
 10
-16.71137820984827
 20
-27.42826781406863
 30
0.0
 10
-16.8949164833408
 20
-27.43316751010415
 30
0.0
 10
-17.1528906920237
 20
-27.48661948836198
 30
0.0
 10
-17.37129541573287
 20
-27.57819880201121
 30
0.0
 10
-17.55681587586816
 20
-27.70071644957843
 30
0.0
 10
-17.69331188283774
 20
-27.8698370428
 30
0.0
 10
-17.7940365360773
 20
-28.0710166387352
 30
0.0
 10
-17.84984683084641
 20
-28.3090339074252
 30
0.0
 10
-17.85708496148953
 20
-28.47832425862298
 30
0.0
 10
-17.8609006233072
 20
-28.56756756756762
 30
0.0
  0
LINE
  5
A1
330
1F
100
AcDbEntity
  8
0
  6
Continuous
 62
   254
370
    25
100
AcDbLine
 10
-17.8609006233
 20
-28.5675675676
 30
0.0
 11
-17.8609006233
 21
-35.4290540541
 31
0.0
  0
SPLINE
  5
A2
330
1F
100
AcDbEntity
  8
0
  6
Continuous
 62
   254
370
    25
100
AcDbSpline
210
0.0
220
0.0
230
1.0
 70
     8
 71
     3
 72
    15
 73
    11
 74
     0
 42
0.00000001
 43
0.00000001
 40
0.0
 40
0.0
 40
0.0
 40
0.0
 40
0.1380594921176419
 40
0.2618923500615777
 40
0.3764522401669008
 40
0.4839985945985786
 40
0.5952095091261799
 40
0.7162522825243227
 40
0.849885922099092
 40
1.0
 40
1.0
 40
1.0
 40
1.0
 10
-17.8609006233072
 20
-35.42905405405411
 30
0.0
 10
-17.85717257337847
 20
-35.51835188954989
 30
0.0
 10
-17.85010063835968
 20
-35.68774567504547
 30
0.0
 10
-17.79293729715244
 20
-35.9260567433351
 30
0.0
 10
-17.69560156188776
 20
-36.12960121816693
 30
0.0
 10
-17.554414859
 20
-36.29554294051439
 30
0.0
 10
-17.37271002960618
 20
-36.42257564589427
 30
0.0
 10
-17.15264023093354
 20
-36.51306544722552
 30
0.0
 10
-16.89499107681214
 20
-36.56692632382526
 30
0.0
 10
-16.71140401882773
 20
-36.57176465201612
 30
0.0
 10
-16.61427900168558
 20
-36.57432432432437
 30
0.0
  0
LINE
  5
A3
330
1F
100
AcDbEntity
  8
0
  6
Continuous
 62
   254
370
    25
100
AcDbLine
 10
-16.6142790017
 20
-36.5743243243
 30
0.0
 11
-16.6142790017
 21
-40.0
 31
0.0
  0
SPLINE
  5
A4
330
1F
100
AcDbEntity
  8
0
  6
Continuous
 62
   254
370
    25
100
AcDbSpline
210
0.0
220
0.0
230
1.0
 70
     8
 71
     3
 72
    23
 73
    19
 74
     0
 42
0.00000001
 43
0.00000001
 40
0.0
 40
0.0
 40
0.0
 40
0.0
 40
0.0856006118474803
 40
0.1660417243106094
 40
0.2415894048933884
 40
0.3121109741988108
 40
0.3779506237784546
 40
0.4403849502451453
 40
0.4992522115593736
 40
0.5550299917884682
 40
0.6089810901390728
 40
0.6619306217770137
 40
0.714215397826086
 40
0.7669265832308373
 40
0.8210956226761948
 40
0.8776859979569765
 40
0.937005597365402
 40
1.0
 40
1.0
 40
1.0
 40
1.0
 10
-16.61427900168558
 20
-40.00000000000005
 30
0.0
 10
-16.86550503335729
 20
-39.99720384620753
 30
0.0
 10
-17.35281467507817
 20
-39.99178007426097
 30
0.0
 10
-18.06020558968923
 20
-39.93733682836851
 30
0.0
 10
-18.71910054579064
 20
-39.84708586378319
 30
0.0
 10
-19.32902025359592
 20
-39.72335845094185
 30
0.0
 10
-19.89102868824497
 20
-39.56484293890723
 30
0.0
 10
-20.4057303355527
 20
-39.3709110668918
 30
0.0
 10
-20.87091129293152
 20
-39.13722542585539
 30
0.0
 10
-21.28807658142484
 20
-38.86928579505506
 30
0.0
 10
-21.65605842532504
 20
-38.56327441303515
 30
0.0
 10
-21.97589979009088
 20
-38.22094308899639
 30
0.0
 10
-22.24447832288586
 20
-37.84170185406569
 30
0.0
 10
-22.46712586682725
 20
-37.42965191375269
 30
0.0
 10
-22.63548335411129
 20
-36.97896330147199
 30
0.0
 10
-22.75559287289216
 20
-36.49380764994647
 30
0.0
 10
-22.83253035879253
 20
-35.97316329708124
 30
0.0
 10
-22.8401067323244
 20
-35.61402049846383
 30
0.0
 10
-22.84400873141531
 20
-35.42905405405411
 30
0.0
  0
LINE
  5
A5
330
1F
100
AcDbEntity
  8
0
  6
Continuous
 62
   254
370
    25
100
AcDbLine
 10
-22.8440087314
 20
-35.4290540541
 30
0.0
 11
-22.8440087314
 21
-28.5709459459
 31
0.0
  0
SPLINE
  5
A6
330
1F
100
AcDbEntity
  8
0
  6
Continuous
 62
   254
370
    25
100
AcDbSpline
210
0.0
220
0.0
230
1.0
 70
     8
 71
     3
 72
    23
 73
    19
 74
     0
 42
0.00000001
 43
0.00000001
 40
0.0
 40
0.0
 40
0.0
 40
0.0
 40
0.0629944026345984
 40
0.1223140020430239
 40
0.1789043773238053
 40
0.2330734167691627
 40
0.285784602173914
 40
0.3380693782229865
 40
0.391018909860927
 40
0.4449700082115318
 40
0.5007477884406264
 40
0.5596150497548548
 40
0.6220493762215453
 40
0.6878890258011889
 40
0.7584105951066115
 40
0.8339582756893906
 40
0.9143993881525198
 40
1.0
 40
1.0
 40
1.0
 40
1.0
 10
-22.84400873141531
 20
-28.570945945946
 30
0.0
 10
-22.8401067323244
 20
-28.38597950153627
 30
0.0
 10
-22.83253035879253
 20
-28.02683670291886
 30
0.0
 10
-22.75559287289217
 20
-27.50619235005365
 30
0.0
 10
-22.63548335411129
 20
-27.02103669852811
 30
0.0
 10
-22.46712586682725
 20
-26.5703480862474
 30
0.0
 10
-22.24447832288586
 20
-26.1582981459344
 30
0.0
 10
-21.97589979009086
 20
-25.77905691100371
 30
0.0
 10
-21.65605842532505
 20
-25.43672558696496
 30
0.0
 10
-21.28807658142483
 20
-25.13071420494505
 30
0.0
 10
-20.87091129293153
 20
-24.86277457414471
 30
0.0
 10
-20.40573033555269
 20
-24.6290889331083
 30
0.0
 10
-19.89102868824498
 20
-24.4351570610929
 30
0.0
 10
-19.32902025359592
 20
-24.27664154905823
 30
0.0
 10
-18.71910054579064
 20
-24.15291413621692
 30
0.0
 10
-18.06020558968923
 20
-24.06266317163157
 30
0.0
 10
-17.35281467507817
 20
-24.00821992573913
 30
0.0
 10
-16.86550503335729
 20
-24.00279615379256
 30
0.0
 10
-16.61427900168558
 20
-24.00000000000005
 30
0.0
  0
LINE
  5
A7
330
1F
100
AcDbEntity
  8
0
  6
Continuous
 62
   254
370
    25
100
AcDbLine
 10
-16.6142790017
 20
-24.0
 30
0.0
 11
-11.6311708936
 21
-24.0
 31
0.0
  0
LINE
  5
A8
330
1F
100
AcDbEntity
  8
0
  6
Continuous
 62
   254
370
    25
100
AcDbLine
 10
-11.6311708936
 20
-24.0
 30
0.0
 11
-11.6311708936
 21
-27.4256756757
 31
0.0
  0
LINE
  5
A9
330
1F
100
AcDbEntity
  8
0
  6
Continuous
 62
   254
370
    25
100
AcDbLine
 10
-11.6311708936
 20
-27.4256756757
 30
0.0
 11
-16.6142790017
 21
-27.4256756757
 31
0.0
  0
LINE
  5
AA
330
1F
100
AcDbEntity
  8
0
  6
Continuous
 62
   254
370
    25
100
AcDbLine
 10
-46.1521168395
 20
-28.5405405405
 30
0.0
 11
-41.1690087314
 21
-28.5405405405
 31
0.0
  0
LINE
  5
AB
330
1F
100
AcDbEntity
  8
0
  6
Continuous
 62
   254
370
    25
100
AcDbLine
 10
-41.1690087314
 20
-28.5405405405
 30
0.0
 11
-41.1690087314
 21
-40.0
 31
0.0
  0
LINE
  5
AC
330
1F
100
AcDbEntity
  8
0
  6
Continuous
 62
   254
370
    25
100
AcDbLine
 10
-41.1690087314
 20
-40.0
 30
0.0
 11
-46.1521168395
 21
-40.0
 31
0.0
  0
LINE
  5
AD
330
1F
100
AcDbEntity
  8
0
  6
Continuous
 62
   254
370
    25
100
AcDbLine
 10
-46.1521168395
 20
-40.0
 30
0.0
 11
-46.1521168395
 21
-28.5405405405
 31
0.0
  0
LINE
  5
AE
330
1F
100
AcDbEntity
  8
0
  6
Continuous
 62
   254
370
    25
100
AcDbLine
 10
-32.4494141368
 20
-29.7533783784
 30
0.0
 11
-32.4494141368
 21
-28.5912162162
 31
0.0
  0
SPLINE
  5
AF
330
1F
100
AcDbEntity
  8
0
  6
Continuous
 62
   254
370
    25
100
AcDbSpline
210
0.0
220
0.0
230
1.0
 70
     8
 71
     3
 72
    15
 73
    11
 74
     0
 42
0.00000001
 43
0.00000001
 40
0.0
 40
0.0
 40
0.0
 40
0.0
 40
0.1403809848658732
 40
0.2648831426138573
 40
0.3785090656407012
 40
0.4878340234969544
 40
0.5981382739832349
 40
0.7181942276023299
 40
0.8511097501478685
 40
1.0
 40
1.0
 40
1.0
 40
1.0
 10
-32.44941413682076
 20
-28.59121621621627
 30
0.0
 10
-32.45315793276829
 20
-28.49971546058117
 30
0.0
 10
-32.46022205499848
 20
-28.32706381743075
 30
0.0
 10
-32.51630277943822
 20
-28.08469332886492
 30
0.0
 10
-32.6169028310898
 20
-27.88010151766064
 30
0.0
 10
-32.75334025653895
 20
-27.70796984529946
 30
0.0
 10
-32.93788748763592
 20
-27.58083394887017
 30
0.0
 10
-33.1580250129029
 20
-27.49117411164291
 30
0.0
 10
-33.41483614122058
 20
-27.43185526960783
 30
0.0
 10
-33.59882594199743
 20
-27.42781194171258
 30
0.0
 10
-33.69603575844238
 20
-27.42567567567573
 30
0.0
  0
LINE
  5
B0
330
1F
100
AcDbEntity
  8
0
  6
Continuous
 62
   254
370
    25
100
AcDbLine
 10
-33.6960357584
 20
-27.4256756757
 30
0.0
 11
-46.1521168395
 21
-27.4256756757
 31
0.0
  0
LINE
  5
B1
330
1F
100
AcDbEntity
  8
0
  6
Continuous
 62
   254
370
    25
100
AcDbLine
 10
-46.1521168395
 20
-27.4256756757
 30
0.0
 11
-48.6453600828
 21
-24.0
 31
0.0
  0
LINE
  5
B2
330
1F
100
AcDbEntity
  8
0
  6
Continuous
 62
   254
370
    25
100
AcDbLine
 10
-48.6453600828
 20
-24.0
 30
0.0
 11
-33.6960357584
 21
-24.0
 31
0.0
  0
SPLINE
  5
B3
330
1F
100
AcDbEntity
  8
0
  6
Continuous
 62
   254
370
    25
100
AcDbSpline
210
0.0
220
0.0
230
1.0
 70
     8
 71
     3
 72
    23
 73
    19
 74
     0
 42
0.00000001
 43
0.00000001
 40
0.0
 40
0.0
 40
0.0
 40
0.0
 40
0.0854008449485518
 40
0.1656542312817342
 40
0.2410256055794817
 40
0.3113825980798604
 40
0.3771745144471217
 40
0.439463137378338
 40
0.4983662332695687
 40
0.5540138444035483
 40
0.6080849421898029
 40
0.6609109050411809
 40
0.7130736636496408
 40
0.7663376338730562
 40
0.8203802585557808
 40
0.8772099277634955
 40
0.9367700869277393
 40
1.0
 40
1.0
 40
1.0
 40
1.0
 10
-33.69603575844238
 20
-24.00000000000005
 30
0.0
 10
-33.44481301861583
 20
-24.00280694911861
 30
0.0
 10
-32.95750976217229
 20
-24.00825166103876
 30
0.0
 10
-32.25007407485394
 20
-24.06254807864803
 30
0.0
 10
-31.59133372882545
 20
-24.15330607380954
 30
0.0
 10
-30.98058606492486
 20
-24.27538234012501
 30
0.0
 10
-30.42005571238672
 20
-24.43982110861814
 30
0.0
 10
-29.90345439490154
 20
-24.63128543398016
 30
0.0
 10
-29.44049718044302
 20
-24.87046221738638
 30
0.0
 10
-29.02091066241055
 20
-25.13689076136565
 30
0.0
 10
-28.65532442147672
 20
-25.44708715263482
 30
0.0
 10
-28.33450331907986
 20
-25.78911939673756
 30
0.0
 10
-28.06377690694179
 20
-26.16961527075393
 30
0.0
 10
-27.84505474044172
 20
-26.58596798666191
 30
0.0
 10
-27.67392304116253
 20
-27.03873470363117
 30
0.0
 10
-27.55492081824372
 20
-27.52657822592309
 30
0.0
 10
-27.47773972209002
 20
-28.05047935403536
 30
0.0
 10
-27.47019244681523
 20
-28.41187482940214
 30
0.0
 10
-27.46630602871265
 20
-28.59797297297302
 30
0.0
  0
LINE
  5
B4
330
1F
100
AcDbEntity
  8
0
  6
Continuous
 62
   254
370
    25
100
AcDbLine
 10
-27.4663060287
 20
-28.597972973
 30
0.0
 11
-27.4663060287
 21
-29.7466216216
 31
0.0
  0
SPLINE
  5
B5
330
1F
100
AcDbEntity
  8
0
  6
Continuous
 62
   254
370
    25
100
AcDbSpline
210
0.0
220
0.0
230
1.0
 70
     8
 71
     3
 72
    23
 73
    19
 74
     0
 42
0.00000001
 43
0.00000001
 40
0.0
 40
0.0
 40
0.0
 40
0.0
 40
0.063229913072261
 40
0.1227900722365046
 40
0.17961974144422
 40
0.2336623661269439
 40
0.2869263363503597
 40
0.3390890949588196
 40
0.3919150578101975
 40
0.4459861555964519
 40
0.5016337667304314
 40
0.5605368626216622
 40
0.6228254855528784
 40
0.6886174019201399
 40
0.7589743944205185
 40
0.8343457687182659
 40
0.9145991550514483
 40
1.0
 40
1.0
 40
1.0
 40
1.0
 10
-27.46630602871265
 20
-29.74662162162167
 30
0.0
 10
-27.47019244681522
 20
-29.93271976519256
 30
0.0
 10
-27.47773972209001
 20
-30.29411524055934
 30
0.0
 10
-27.55492081824373
 20
-30.8180163686716
 30
0.0
 10
-27.67392304116251
 20
-31.30585989096353
 30
0.0
 10
-27.84505474044172
 20
-31.75862660793278
 30
0.0
 10
-28.06377690694179
 20
-32.17497932384077
 30
0.0
 10
-28.33450331907986
 20
-32.55547519785713
 30
0.0
 10
-28.65532442147672
 20
-32.89750744195988
 30
0.0
 10
-29.02091066241056
 20
-33.20770383322904
 30
0.0
 10
-29.44049718044301
 20
-33.47413237720831
 30
0.0
 10
-29.90345439490154
 20
-33.71330916061453
 30
0.0
 10
-30.42005571238672
 20
-33.90477348597654
 30
0.0
 10
-30.98058606492485
 20
-34.0692122544697
 30
0.0
 10
-31.59133372882544
 20
-34.19128852078516
 30
0.0
 10
-32.25007407485395
 20
-34.28204651594667
 30
0.0
 10
-32.95750976217228
 20
-34.33634293355592
 30
0.0
 10
-33.44481301861583
 20
-34.34178764547609
 30
0.0
 10
-33.69603575844238
 20
-34.34459459459465
 30
0.0
  0
LINE
  5
B6
330
1F
100
AcDbEntity
  8
0
  6
Continuous
 62
   254
370
    25
100
AcDbLine
 10
-33.6960357584
 20
-34.3445945946
 30
0.0
 11
-39.9223871098
 21
-34.3445945946
 31
0.0
  0
LINE
  5
B7
330
1F
100
AcDbEntity
  8
0
  6
Continuous
 62
   254
370
    25
100
AcDbLine
 10
-39.9223871098
 20
-34.3445945946
 30
0.0
 11
-39.9223871098
 21
-30.9189189189
 31
0.0
  0
LINE
  5
B8
330
1F
100
AcDbEntity
  8
0
  6
Continuous
 62
   254
370
    25
100
AcDbLine
 10
-39.9223871098
 20
-30.9189189189
 30
0.0
 11
-33.6960357584
 21
-30.9189189189
 31
0.0
  0
SPLINE
  5
B9
330
1F
100
AcDbEntity
  8
0
  6
Continuous
 62
   254
370
    25
100
AcDbSpline
210
0.0
220
0.0
230
1.0
 70
     8
 71
     3
 72
    15
 73
    11
 74
     0
 42
0.00000001
 43
0.00000001
 40
0.0
 40
0.0
 40
0.0
 40
0.0
 40
0.1488902498521316
 40
0.2818057723976707
 40
0.4018617260167658
 40
0.5121659765030465
 40
0.6214909343592984
 40
0.7351168573861441
 40
0.8596190151341284
 40
1.0
 40
1.0
 40
1.0
 40
1.0
 10
-33.69603575844238
 20
-30.91891891891897
 30
0.0
 10
-33.59882594199743
 20
-30.91678265288212
 30
0.0
 10
-33.41483614122058
 20
-30.91273932498686
 30
0.0
 10
-33.1580250129029
 20
-30.85342048295179
 30
0.0
 10
-32.93788748763591
 20
-30.76376064572451
 30
0.0
 10
-32.75334025653897
 20
-30.63662474929524
 30
0.0
 10
-32.61690283108978
 20
-30.46449307693404
 30
0.0
 10
-32.51630277943824
 20
-30.25990126572977
 30
0.0
 10
-32.46022205499846
 20
-30.01753077716394
 30
0.0
 10
-32.45315793276828
 20
-29.84487913401352
 30
0.0
 10
-32.44941413682076
 20
-29.75337837837843
 30
0.0
  0
LINE
  5
BA
330
1F
100
AcDbEntity
  8
0
  6
Continuous
 62
   254
370
    25
100
AcDbLine
 10
-69.4602249476
 20
-29.7466216216
 30
0.0
 11
-69.4602249476
 21
-28.597972973
 31
0.0
  0
SPLINE
  5
BB
330
1F
100
AcDbEntity
  8
0
  6
Continuous
 62
   254
370
    25
100
AcDbSpline
210
0.0
220
0.0
230
1.0
 70
     8
 71
     3
 72
    23
 73
    19
 74
     0
 42
0.00000001
 43
0.00000001
 40
0.0
 40
0.0
 40
0.0
 40
0.0
 40
0.0632299130722606
 40
0.1227900722365046
 40
0.1796197414442191
 40
0.2336623661269435
 40
0.2869263363503592
 40
0.3390890949588186
 40
0.3919150578101965
 40
0.4459861555964512
 40
0.501633766730431
 40
0.5605368626216614
 40
0.622825485552878
 40
0.6886174019201396
 40
0.7589743944205172
 40
0.8343457687182645
 40
0.9145991550514476
 40
1.0
 40
1.0
 40
1.0
 40
1.0
 10
-69.46022494763154
 20
-28.59797297297302
 30
0.0
 10
-69.45633852952896
 20
-28.41187482940213
 30
0.0
 10
-69.44879125425419
 20
-28.05047935403536
 30
0.0
 10
-69.37161015810048
 20
-27.5265782259231
 30
0.0
 10
-69.25260793518167
 20
-27.03873470363117
 30
0.0
 10
-69.08147623590247
 20
-26.5859679866619
 30
0.0
 10
-68.86275406940238
 20
-26.16961527075394
 30
0.0
 10
-68.59202765726434
 20
-25.78911939673755
 30
0.0
 10
-68.27120655486748
 20
-25.44708715263482
 30
0.0
 10
-67.90562031393361
 20
-25.13689076136566
 30
0.0
 10
-67.48603379590118
 20
-24.87046221738638
 30
0.0
 10
-67.02307658144265
 20
-24.63128543398016
 30
0.0
 10
-66.50647526395747
 20
-24.43982110861814
 30
0.0
 10
-65.94594491141935
 20
-24.27538234012501
 30
0.0
 10
-65.33519724751875
 20
-24.15330607380954
 30
0.0
 10
-64.67645690149025
 20
-24.06254807864803
 30
0.0
 10
-63.9690212141719
 20
-24.00825166103876
 30
0.0
 10
-63.48171795772838
 20
-24.00280694911861
 30
0.0
 10
-63.2304952179018
 20
-24.00000000000005
 30
0.0
  0
LINE
  5
BC
330
1F
100
AcDbEntity
  8
0
  6
Continuous
 62
   254
370
    25
100
AcDbLine
 10
-63.2304952179
 20
-24.0
 30
0.0
 11
-50.7744141368
 21
-24.0
 31
0.0
  0
LINE
  5
BD
330
1F
100
AcDbEntity
  8
0
  6
Continuous
 62
   254
370
    25
100
AcDbLine
 10
-50.7744141368
 20
-24.0
 30
0.0
 11
-50.7744141368
 21
-27.4256756757
 31
0.0
  0
LINE
  5
BE
330
1F
100
AcDbEntity
  8
0
  6
Continuous
 62
   254
370
    25
100
AcDbLine
 10
-50.7744141368
 20
-27.4256756757
 30
0.0
 11
-63.2304952179
 21
-27.4256756757
 31
0.0
  0
SPLINE
  5
BF
330
1F
100
AcDbEntity
  8
0
  6
Continuous
 62
   254
370
    25
100
AcDbSpline
210
0.0
220
0.0
230
1.0
 70
     8
 71
     3
 72
    15
 73
    11
 74
     0
 42
0.00000001
 43
0.00000001
 40
0.0
 40
0.0
 40
0.0
 40
0.0
 40
0.1488902498521382
 40
0.2818057723976695
 40
0.4018617260167642
 40
0.5121659765030474
 40
0.6214909343593005
 40
0.7351168573861426
 40
0.8596190151341265
 40
1.0
 40
1.0
 40
1.0
 40
1.0
 10
-63.2304952179018
 20
-27.42567567567573
 30
0.0
 10
-63.32770503434677
 20
-27.42781194171258
 30
0.0
 10
-63.51169483512361
 20
-27.43185526960783
 30
0.0
 10
-63.76850596344127
 20
-27.4911741116429
 30
0.0
 10
-63.98864348870828
 20
-27.58083394887018
 30
0.0
 10
-64.17319071980522
 20
-27.70796984529946
 30
0.0
 10
-64.30962814525438
 20
-27.88010151766064
 30
0.0
 10
-64.41022819690596
 20
-28.08469332886493
 30
0.0
 10
-64.4663089213457
 20
-28.32706381743074
 30
0.0
 10
-64.47337304357589
 20
-28.49971546058116
 30
0.0
 10
-64.47711683952343
 20
-28.59121621621627
 30
0.0
  0
LINE
  5
C0
330
1F
100
AcDbEntity
  8
0
  6
Continuous
 62
   254
370
    25
100
AcDbLine
 10
-64.4771168395
 20
-28.5912162162
 30
0.0
 11
-64.4771168395
 21
-29.7533783784
 31
0.0
  0
SPLINE
  5
C1
330
1F
100
AcDbEntity
  8
0
  6
Continuous
 62
   254
370
    25
100
AcDbSpline
210
0.0
220
0.0
230
1.0
 70
     8
 71
     3
 72
    15
 73
    11
 74
     0
 42
0.00000001
 43
0.00000001
 40
0.0
 40
0.0
 40
0.0
 40
0.0
 40
0.1403809848658718
 40
0.2648831426138558
 40
0.3785090656406997
 40
0.4878340234969514
 40
0.5981382739832347
 40
0.7181942276023296
 40
0.8511097501478615
 40
1.0
 40
1.0
 40
1.0
 40
1.0
 10
-64.47711683952343
 20
-29.75337837837843
 30
0.0
 10
-64.4733730435759
 20
-29.84487913401352
 30
0.0
 10
-64.4663089213457
 20
-30.01753077716394
 30
0.0
 10
-64.41022819690596
 20
-30.25990126572977
 30
0.0
 10
-64.30962814525438
 20
-30.46449307693404
 30
0.0
 10
-64.17319071980522
 20
-30.63662474929524
 30
0.0
 10
-63.98864348870826
 20
-30.76376064572452
 30
0.0
 10
-63.76850596344129
 20
-30.85342048295178
 30
0.0
 10
-63.51169483512361
 20
-30.91273932498687
 30
0.0
 10
-63.32770503434678
 20
-30.91678265288213
 30
0.0
 10
-63.2304952179018
 20
-30.91891891891897
 30
0.0
  0
LINE
  5
C2
330
1F
100
AcDbEntity
  8
0
  6
Continuous
 62
   254
370
    25
100
AcDbLine
 10
-63.2304952179
 20
-30.9189189189
 30
0.0
 11
-60.740630353
 21
-30.9189189189
 31
0.0
  0
LINE
  5
C3
330
1F
100
AcDbEntity
  8
0
  6
Continuous
 62
   254
370
    25
100
AcDbLine
 10
-60.740630353
 20
-30.9189189189
 30
0.0
 11
-60.740630353
 21
-34.3445945946
 31
0.0
  0
LINE
  5
C4
330
1F
100
AcDbEntity
  8
0
  6
Continuous
 62
   254
370
    25
100
AcDbLine
 10
-60.740630353
 20
-34.3445945946
 30
0.0
 11
-63.2304952179
 21
-34.3445945946
 31
0.0
  0
SPLINE
  5
C5
330
1F
100
AcDbEntity
  8
0
  6
Continuous
 62
   254
370
    25
100
AcDbSpline
210
0.0
220
0.0
230
1.0
 70
     8
 71
     3
 72
    23
 73
    19
 74
     0
 42
0.00000001
 43
0.00000001
 40
0.0
 40
0.0
 40
0.0
 40
0.0
 40
0.0854008449485524
 40
0.1656542312817356
 40
0.2410256055794829
 40
0.3113825980798604
 40
0.3771745144471221
 40
0.4394631373783385
 40
0.498366233269569
 40
0.5540138444035488
 40
0.6080849421898031
 40
0.6609109050411811
 40
0.7130736636496404
 40
0.7663376338730564
 40
0.8203802585557801
 40
0.8772099277634954
 40
0.9367700869277389
 40
1.0
 40
1.0
 40
1.0
 40
1.0
 10
-63.2304952179018
 20
-34.34459459459465
 30
0.0
 10
-63.48171795772836
 20
-34.34178764547608
 30
0.0
 10
-63.9690212141719
 20
-34.33634293355593
 30
0.0
 10
-64.67645690149028
 20
-34.28204651594667
 30
0.0
 10
-65.33519724751874
 20
-34.19128852078516
 30
0.0
 10
-65.94594491141933
 20
-34.0692122544697
 30
0.0
 10
-66.50647526395747
 20
-33.90477348597654
 30
0.0
 10
-67.02307658144265
 20
-33.71330916061454
 30
0.0
 10
-67.48603379590116
 20
-33.47413237720831
 30
0.0
 10
-67.90562031393365
 20
-33.20770383322905
 30
0.0
 10
-68.27120655486746
 20
-32.89750744195987
 30
0.0
 10
-68.59202765726434
 20
-32.55547519785715
 30
0.0
 10
-68.86275406940243
 20
-32.17497932384077
 30
0.0
 10
-69.08147623590246
 20
-31.75862660793278
 30
0.0
 10
-69.25260793518169
 20
-31.30585989096354
 30
0.0
 10
-69.37161015810045
 20
-30.81801636867159
 30
0.0
 10
-69.44879125425419
 20
-30.29411524055933
 30
0.0
 10
-69.45633852952896
 20
-29.93271976519256
 30
0.0
 10
-69.46022494763154
 20
-29.74662162162167
 30
0.0
  0
SPLINE
  5
C6
330
1F
100
AcDbEntity
  8
0
  6
Continuous
 62
   254
370
    25
100
AcDbSpline
210
0.0
220
0.0
230
1.0
 70
     8
 71
     3
 72
    23
 73
    19
 74
     0
 42
0.00000001
 43
0.00000001
 40
0.0
 40
0.0
 40
0.0
 40
0.0
 40
0.0858198515358895
 40
0.1664669892136872
 40
0.2421563524249977
 40
0.312858541080526
 40
0.3788668187102177
 40
0.4414610515372153
 40
0.5003070205016201
 40
0.5562276583913506
 40
0.6100714389882642
 40
0.6628755941897467
 40
0.7149812976361172
 40
0.7678274865602871
 40
0.8217756369584014
 40
0.8781379252204969
 40
0.9372286500899176
 40
1.0
 40
1.0
 40
1.0
 40
1.0
 10
-57.00414386655046
 20
-30.91891891891897
 30
0.0
 10
-56.75290086058998
 20
-30.92159233691535
 30
0.0
 10
-56.26555829340147
 20
-30.92677803505862
 30
0.0
 10
-55.55854951289333
 20
-30.98287861972461
 30
0.0
 10
-54.89900671777806
 20
-31.06733514539958
 30
0.0
 10
-54.28948786998544
 20
-31.19254708874053
 30
0.0
 10
-53.72722094033227
 20
-31.35031195340518
 30
0.0
 10
-53.21373117302791
 20
-31.54556478650651
 30
0.0
 10
-52.74647400850998
 20
-31.77408698284382
 30
0.0
 10
-52.33156013626667
 20
-32.04333776280792
 30
0.0
 10
-51.96231147364161
 20
-32.34516587862137
 30
0.0
 10
-51.64279148598474
 20
-32.68449089255267
 30
0.0
 10
-51.37293292050393
 20
-33.06076245544714
 30
0.0
 10
-51.1522391103416
 20
-33.47165991017509
 30
0.0
 10
-50.98277182158944
 20
-33.91953556823105
 30
0.0
 10
-50.86286698192813
 20
-34.40145168303636
 30
0.0
 10
-50.78587262803029
 20
-34.91870564596238
 30
0.0
 10
-50.77830977469001
 20
-35.27561492048013
 30
0.0
 10
-50.77441413682072
 20
-35.45945945945951
 30
0.0
  0
SPLINE
  5
C7
330
1F
100
AcDbEntity
  8
0
  6
Continuous
 62
   254
370
    25
100
AcDbSpline
210
0.0
220
0.0
230
1.0
 70
     8
 71
     3
 72
    23
 73
    19
 74
     0
 42
0.00000001
 43
0.00000001
 40
0.0
 40
0.0
 40
0.0
 40
0.0
 40
0.0627713499100825
 40
0.1218620747795024
 40
0.1782243630415987
 40
0.232172513439713
 40
0.2850187023638829
 40
0.3371244058102528
 40
0.389928561011736
 40
0.4437723416086491
 40
0.4996929794983801
 40
0.5585389484627846
 40
0.6211331812897822
 40
0.687141458919474
 40
0.7578436475750023
 40
0.8335330107863128
 40
0.9141801484641106
 40
1.0
 40
1.0
 40
1.0
 40
1.0
 10
-50.77441413682072
 20
-35.45945945945951
 30
0.0
 10
-50.77830977469002
 20
-35.64330399843889
 30
0.0
 10
-50.7858726280303
 20
-36.00021327295665
 30
0.0
 10
-50.86286698192814
 20
-36.51746723588266
 30
0.0
 10
-50.98277182158946
 20
-36.99938335068799
 30
0.0
 10
-51.15223911034158
 20
-37.44725900874393
 30
0.0
 10
-51.37293292050391
 20
-37.85815646347189
 30
0.0
 10
-51.64279148598475
 20
-38.23442802636634
 30
0.0
 10
-51.96231147364161
 20
-38.57375304029764
 30
0.0
 10
-52.33156013626668
 20
-38.8755811561111
 30
0.0
 10
-52.74647400850998
 20
-39.1448319360752
 30
0.0
 10
-53.21373117302793
 20
-39.37335413241253
 30
0.0
 10
-53.72722094033227
 20
-39.56860696551384
 30
0.0
 10
-54.28948786998545
 20
-39.72637183017851
 30
0.0
 10
-54.89900671777806
 20
-39.85158377351943
 30
0.0
 10
-55.55854951289334
 20
-39.93604029919442
 30
0.0
 10
-56.26555829340147
 20
-39.9921408838604
 30
0.0
 10
-56.75290086058998
 20
-39.99732658200368
 30
0.0
 10
-57.00414386655047
 20
-40.00000000000006
 30
0.0
  0
LINE
  5
C8
330
1F
100
AcDbEntity
  8
0
  6
Continuous
 62
   254
370
    25
100
AcDbLine
 10
-57.0041438666
 20
-40.0
 30
0.0
 11
-69.4602249476
 21
-40.0
 31
0.0
  0
LINE
  5
C9
330
1F
100
AcDbEntity
  8
0
  6
Continuous
 62
   254
370
    25
100
AcDbLine
 10
-69.4602249476
 20
-40.0
 30
0.0
 11
-69.4602249476
 21
-36.5743243243
 31
0.0
  0
LINE
  5
CA
330
1F
100
AcDbEntity
  8
0
  6
Continuous
 62
   254
370
    25
100
AcDbLine
 10
-69.4602249476
 20
-36.5743243243
 30
0.0
 11
-57.0041438666
 21
-36.5743243243
 31
0.0
  0
SPLINE
  5
CB
330
1F
100
AcDbEntity
  8
0
  6
Continuous
 62
   254
370
    25
100
AcDbSpline
210
0.0
220
0.0
230
1.0
 70
     8
 71
     3
 72
    15
 73
    11
 74
     0
 42
0.00000001
 43
0.00000001
 40
0.0
 40
0.0
 40
0.0
 40
0.0
 40
0.1520305298305292
 40
0.2873702215624679
 40
0.4086299506037194
 40
0.5212606544989871
 40
0.6288421174853397
 40
0.7417076271988022
 40
0.8636971875016599
 40
0.9999999999999999
 40
0.9999999999999999
 40
0.9999999999999999
 40
0.9999999999999999
 10
-57.00414386655046
 20
-36.57432432432437
 30
0.0
 10
-56.90691703529397
 20
-36.57200932671186
 30
0.0
 10
-56.7231375268548
 20
-36.56763348603322
 30
0.0
 10
-56.46760136786164
 20
-36.51087552792153
 30
0.0
 10
-56.24409259920491
 20
-36.43092676173664
 30
0.0
 10
-56.06530360485898
 20
-36.30191437305255
 30
0.0
 10
-55.92371146691277
 20
-36.14087423331159
 30
0.0
 10
-55.82536449504742
 20
-35.94324810431002
 30
0.0
 10
-55.76831127040602
 20
-35.71147529178494
 30
0.0
 10
-55.76124903778247
 20
-35.54651188184015
 30
0.0
 10
-55.75752224492884
 20
-35.45945945945951
 30
0.0
  0
SPLINE
  5
CC
330
1F
100
AcDbEntity
  8
0
  6
Continuous
 62
   254
370
    25
100
AcDbSpline
210
0.0
220
0.0
230
1.0
 70
     8
 71
     3
 72
    15
 73
    11
 74
     0
 42
0.00000001
 43
0.00000001
 40
0.0
 40
0.0
 40
0.0
 40
0.0
 40
0.136258664915717
 40
0.2582087136039988
 40
0.3710376669227367
 40
0.4799217483511125
 40
0.5915024019440911
 40
0.712722855758302
 40
0.8480187118560835
 40
1.0
 40
1.0
 40
1.0
 40
1.0
 10
-55.75752224492884
 20
-35.45945945945951
 30
0.0
 10
-55.76127444817417
 20
-35.37243136616558
 30
0.0
 10
-55.76838483321837
 20
-35.20751405958011
 30
0.0
 10
-55.8251138885819
 20
-34.97543087236388
 30
0.0
 10
-55.92494771213761
 20
-34.77808831047311
 30
0.0
 10
-56.06300689479983
 20
-34.61329931387488
 30
0.0
 10
-56.24548084937475
 20
-34.48876869011282
 30
0.0
 10
-56.46736073635637
 20
-34.40773391898948
 30
0.0
 10
-56.72320949547882
 20
-34.35137799048569
 30
0.0
 10
-56.90694193608896
 20
-34.34694161668802
 30
0.0
 10
-57.00414386655046
 20
-34.34459459459465
 30
0.0
  0
LINE
  5
CD
330
1F
100
AcDbEntity
  8
0
  6
Continuous
 62
   254
370
    25
100
AcDbLine
 10
-57.0041438666
 20
-34.3445945946
 30
0.0
 11
-59.4940087314
 21
-34.3445945946
 31
0.0
  0
LINE
  5
CE
330
1F
100
AcDbEntity
  8
0
  6
Continuous
 62
   254
370
    25
100
AcDbLine
 10
-59.4940087314
 20
-34.3445945946
 30
0.0
 11
-59.4940087314
 21
-30.9189189189
 31
0.0
  0
LINE
  5
CF
330
1F
100
AcDbEntity
  8
0
  6
Continuous
 62
   254
370
    25
100
AcDbLine
 10
-59.4940087314
 20
-30.9189189189
 30
0.0
 11
-57.0041438666
 21
-30.9189189189
 31
0.0
  0
LINE
  5
D0
330
1F
100
AcDbEntity
  8
0
  6
Continuous
 62
   254
370
    25
100
AcDbLine
 10
-92.7683330557
 20
-28.5405405405
 30
0.0
 11
-87.7852249476
 21
-28.5405405405
 31
0.0
  0
LINE
  5
D1
330
1F
100
AcDbEntity
  8
0
  6
Continuous
 62
   254
370
    25
100
AcDbLine
 10
-87.7852249476
 20
-28.5405405405
 30
0.0
 11
-87.7852249476
 21
-40.0
 31
0.0
  0
LINE
  5
D2
330
1F
100
AcDbEntity
  8
0
  6
Continuous
 62
   254
370
    25
100
AcDbLine
 10
-87.7852249476
 20
-40.0
 30
0.0
 11
-92.7683330557
 21
-40.0
 31
0.0
  0
LINE
  5
D3
330
1F
100
AcDbEntity
  8
0
  6
Continuous
 62
   254
370
    25
100
AcDbLine
 10
-92.7683330557
 20
-40.0
 30
0.0
 11
-92.7683330557
 21
-28.5405405405
 31
0.0
  0
LINE
  5
D4
330
1F
100
AcDbEntity
  8
0
  6
Continuous
 62
   254
370
    25
100
AcDbLine
 10
-79.065630353
 20
-29.7533783784
 30
0.0
 11
-79.065630353
 21
-28.5912162162
 31
0.0
  0
SPLINE
  5
D5
330
1F
100
AcDbEntity
  8
0
  6
Continuous
 62
   254
370
    25
100
AcDbSpline
210
0.0
220
0.0
230
1.0
 70
     8
 71
     3
 72
    15
 73
    11
 74
     0
 42
0.00000001
 43
0.00000001
 40
0.0
 40
0.0
 40
0.0
 40
0.0
 40
0.1403809848658729
 40
0.2648831426138569
 40
0.3785090656406991
 40
0.4878340234969521
 40
0.5981382739832355
 40
0.7181942276023302
 40
0.8511097501478616
 40
1.0
 40
1.0
 40
1.0
 40
1.0
 10
-79.06563035303697
 20
-28.59121621621627
 30
0.0
 10
-79.0693741489845
 20
-28.49971546058117
 30
0.0
 10
-79.07643827121468
 20
-28.32706381743075
 30
0.0
 10
-79.13251899565442
 20
-28.08469332886493
 30
0.0
 10
-79.23311904730598
 20
-27.88010151766064
 30
0.0
 10
-79.36955647275516
 20
-27.70796984529946
 30
0.0
 10
-79.55410370385214
 20
-27.58083394887019
 30
0.0
 10
-79.77424122911908
 20
-27.4911741116429
 30
0.0
 10
-80.03105235743679
 20
-27.43185526960784
 30
0.0
 10
-80.21504215821362
 20
-27.42781194171258
 30
0.0
 10
-80.31225197465858
 20
-27.42567567567573
 30
0.0
  0
LINE
  5
D6
330
1F
100
AcDbEntity
  8
0
  6
Continuous
 62
   254
370
    25
100
AcDbLine
 10
-80.3122519747
 20
-27.4256756757
 30
0.0
 11
-92.7683330557
 21
-27.4256756757
 31
0.0
  0
LINE
  5
D7
330
1F
100
AcDbEntity
  8
0
  6
Continuous
 62
   254
370
    25
100
AcDbLine
 10
-92.7683330557
 20
-27.4256756757
 30
0.0
 11
-95.261576299
 21
-24.0
 31
0.0
  0
LINE
  5
D8
330
1F
100
AcDbEntity
  8
0
  6
Continuous
 62
   254
370
    25
100
AcDbLine
 10
-95.261576299
 20
-24.0
 30
0.0
 11
-80.3122519747
 21
-24.0
 31
0.0
  0
SPLINE
  5
D9
330
1F
100
AcDbEntity
  8
0
  6
Continuous
 62
   254
370
    25
100
AcDbSpline
210
0.0
220
0.0
230
1.0
 70
     8
 71
     3
 72
    23
 73
    19
 74
     0
 42
0.00000001
 43
0.00000001
 40
0.0
 40
0.0
 40
0.0
 40
0.0
 40
0.0852965283105183
 40
0.1654518855965864
 40
0.2407311941966759
 40
0.3110022460377512
 40
0.3767137979597971
 40
0.4390636872307055
 40
0.4977218312892808
 40
0.5535102406959994
 40
0.6075152909491266
 40
0.6602767271924962
 40
0.7126877884752124
 40
0.7658866970671494
 40
0.8202210823797412
 40
0.8769813344752958
 40
0.9368473219007519
 40
0.9999999999999999
 40
0.9999999999999999
 40
0.9999999999999999
 40
0.9999999999999999
 10
-80.31225197465858
 20
-24.00000000000005
 30
0.0
 10
-80.06102769502286
 20
-24.0028033051554
 30
0.0
 10
-79.57372145177158
 20
-24.00824094878571
 30
0.0
 10
-78.86630670754803
 20
-24.06258692829427
 30
0.0
 10
-78.20749404037541
 20
-24.15317377524233
 30
0.0
 10
-77.59699073206455
 20
-24.27582830982401
 30
0.0
 10
-77.03524326892231
 20
-24.43842001793698
 30
0.0
 10
-76.5215958645047
 20
-24.63661465806171
 30
0.0
 10
-76.05458679776733
 20
-24.86893690429534
 30
0.0
 10
-75.63825466609214
 20
-25.14099414955383
 30
0.0
 10
-75.27152000327371
 20
-25.4502786613083
 30
0.0
 10
-74.9495550708612
 20
-25.79284645575836
 30
0.0
 10
-74.68113162853389
 20
-26.17601271609895
 30
0.0
 10
-74.46024167340009
 20
-26.59340821690811
 30
0.0
 10
-74.29093818046161
 20
-27.04805703501051
 30
0.0
 10
-74.17059849962496
 20
-27.53772143921629
 30
0.0
 10
-74.09423193356876
 20
-28.06292181972434
 30
0.0
 10
-74.08649438254639
 20
-28.42540345597122
 30
0.0
 10
-74.08252224492884
 20
-28.61148648648654
 30
0.0
  0
LINE
  5
DA
330
1F
100
AcDbEntity
  8
0
  6
Continuous
 62
   254
370
    25
100
AcDbLine
 10
-74.0825222449
 20
-28.6114864865
 30
0.0
 11
-74.0825222449
 21
-29.7635135135
 31
0.0
  0
SPLINE
  5
DB
330
1F
100
AcDbEntity
  8
0
  6
Continuous
 62
   254
370
    25
100
AcDbSpline
210
0.0
220
0.0
230
1.0
 70
     8
 71
     3
 72
    23
 73
    19
 74
     0
 42
0.00000001
 43
0.00000001
 40
0.0
 40
0.0
 40
0.0
 40
0.0
 40
0.068592313689013
 40
0.133441345075489
 40
0.1959419025138033
 40
0.2560174724843187
 40
0.3143405198836768
 40
0.3713063453975928
 40
0.4274905447082125
 40
0.4842124041095752
 40
0.5410011131032602
 40
0.5991624262745717
 40
0.658890729393625
 40
0.7209058586619138
 40
0.7857246211789164
 40
0.8535111122108088
 40
0.9247585739438328
 40
0.9999999999999999
 40
0.9999999999999999
 40
0.9999999999999999
 40
0.9999999999999999
 10
-74.08252224492884
 20
-29.76351351351356
 30
0.0
 10
-74.08579881450319
 20
-29.91454770605844
 30
0.0
 10
-74.09217314170868
 20
-30.20837371544127
 30
0.0
 10
-74.1407799831347
 20
-30.63759817003865
 30
0.0
 10
-74.21763261247682
 20
-31.04333737006489
 30
0.0
 10
-74.32465973079925
 20
-31.42762818791279
 30
0.0
 10
-74.46768007929518
 20
-31.78694631520397
 30
0.0
 10
-74.6402301273898
 20
-32.12338368091492
 30
0.0
 10
-74.84489949912663
 20
-32.43715910351209
 30
0.0
 10
-75.08068918902431
 20
-32.72794639996359
 30
0.0
 10
-75.35135263563086
 20
-32.9926930188365
 30
0.0
 10
-75.64919524039242
 20
-33.23661242423005
 30
0.0
 10
-75.97830999848372
 20
-33.45839625936946
 30
0.0
 10
-76.34294379842639
 20
-33.64857829187212
 30
0.0
 10
-76.73497587035004
 20
-33.82240277719283
 30
0.0
 10
-77.1595862170036
 20
-33.96868136061681
 30
0.0
 10
-77.61297917135599
 20
-34.10065428697057
 30
0.0
 10
-77.92988454199174
 20
-34.16137793821254
 30
0.0
 10
-78.09265738006398
 20
-34.19256756756761
 30
0.0
  0
LINE
  5
DC
330
1F
100
AcDbEntity
  8
0
  6
Continuous
 62
   254
370
    25
100
AcDbLine
 10
-78.0926573801
 20
-34.1925675676
 30
0.0
 11
-74.0825222449
 21
-40.0
 31
0.0
  0
LINE
  5
DD
330
1F
100
AcDbEntity
  8
0
  6
Continuous
 62
   254
370
    25
100
AcDbLine
 10
-74.0825222449
 20
-40.0
 30
0.0
 11
-80.3122519747
 21
-40.0
 31
0.0
  0
LINE
  5
DE
330
1F
100
AcDbEntity
  8
0
  6
Continuous
 62
   254
370
    25
100
AcDbLine
 10
-80.3122519747
 20
-40.0
 30
0.0
 11
-86.538603326
 21
-30.9189189189
 31
0.0
  0
LINE
  5
DF
330
1F
100
AcDbEntity
  8
0
  6
Continuous
 62
   254
370
    25
100
AcDbLine
 10
-86.538603326
 20
-30.9189189189
 30
0.0
 11
-80.3122519747
 21
-30.9189189189
 31
0.0
  0
SPLINE
  5
E0
330
1F
100
AcDbEntity
  8
0
  6
Continuous
 62
   254
370
    25
100
AcDbSpline
210
0.0
220
0.0
230
1.0
 70
     8
 71
     3
 72
    15
 73
    11
 74
     0
 42
0.00000001
 43
0.00000001
 40
0.0
 40
0.0
 40
0.0
 40
0.0
 40
0.1488902498521385
 40
0.2818057723976705
 40
0.4018617260167654
 40
0.5121659765030488
 40
0.6214909343593006
 40
0.7351168573861445
 40
0.8596190151341286
 40
1.0
 40
1.0
 40
1.0
 40
1.0
 10
-80.3122519746586
 20
-30.91891891891897
 30
0.0
 10
-80.21504215821363
 20
-30.91678265288213
 30
0.0
 10
-80.03105235743682
 20
-30.91273932498688
 30
0.0
 10
-79.77424122911904
 20
-30.85342048295177
 30
0.0
 10
-79.55410370385214
 20
-30.76376064572452
 30
0.0
 10
-79.36955647275515
 20
-30.63662474929524
 30
0.0
 10
-79.23311904730599
 20
-30.46449307693405
 30
0.0
 10
-79.13251899565445
 20
-30.25990126572977
 30
0.0
 10
-79.07643827121466
 20
-30.01753077716394
 30
0.0
 10
-79.06937414898448
 20
-29.84487913401353
 30
0.0
 10
-79.06563035303697
 20
-29.75337837837843
 30
0.0
  0
SPLINE
  5
E1
330
1F
100
AcDbEntity
  8
0
  6
Continuous
 62
   254
370
    25
100
AcDbSpline
210
0.0
220
0.0
230
1.0
 70
     8
 71
     3
 72
    15
 73
    11
 74
     0
 42
0.00000001
 43
0.00000001
 40
0.0
 40
0.0
 40
0.0
 40
0.0
 40
0.1501140779009132
 40
0.2837477174756768
 40
0.4047904908738194
 40
0.5160014054014235
 40
0.623547759833101
 40
0.7381076499384223
 40
0.8619405078823579
 40
1.0
 40
1.0
 40
1.0
 40
1.0
 10
-103.6203600827667
 20
-36.57432432432437
 30
0.0
 10
-103.5232350656245
 20
-36.57176465201611
 30
0.0
 10
-103.3396480076401
 20
-36.56692632382526
 30
0.0
 10
-103.0819988535187
 20
-36.51306544722551
 30
0.0
 10
-102.8619290548461
 20
-36.42257564589426
 30
0.0
 10
-102.6802242254522
 20
-36.29554294051439
 30
0.0
 10
-102.5390375225644
 20
-36.12960121816692
 30
0.0
 10
-102.4417017872998
 20
-35.92605674333512
 30
0.0
 10
-102.3845384460926
 20
-35.68774567504546
 30
0.0
 10
-102.3774665110738
 20
-35.51835188954989
 30
0.0
 10
-102.373738461145
 20
-35.42905405405411
 30
0.0
  0
LINE
  5
E2
330
1F
100
AcDbEntity
  8
0
  6
Continuous
 62
   254
370
    25
100
AcDbLine
 10
-102.3737384611
 20
-35.4290540541
 30
0.0
 11
-102.3737384611
 21
-28.5675675676
 31
0.0
  0
SPLINE
  5
E3
330
1F
100
AcDbEntity
  8
0
  6
Continuous
 62
   254
370
    25
100
AcDbSpline
210
0.0
220
0.0
230
1.0
 70
     8
 71
     3
 72
    15
 73
    11
 74
     0
 42
0.00000001
 43
0.00000001
 40
0.0
 40
0.0
 40
0.0
 40
0.0
 40
0.1382294419960695
 40
0.2622147369715329
 40
0.3753524747393817
 40
0.4843657517553375
 40
0.5947112160087907
 40
0.7159029918717983
 40
0.849701133143991
 40
1.0
 40
1.0
 40
1.0
 40
1.0
 10
-102.373738461145
 20
-28.56756756756762
 30
0.0
 10
-102.3775541229627
 20
-28.47832425862297
 30
0.0
 10
-102.3847922536058
 20
-28.30903390742519
 30
0.0
 10
-102.440602548375
 20
-28.0710166387352
 30
0.0
 10
-102.5413272016145
 20
-27.86983704280001
 30
0.0
 10
-102.6778232085841
 20
-27.70071644957843
 30
0.0
 10
-102.8633436687194
 20
-27.5781988020112
 30
0.0
 10
-103.0817483924286
 20
-27.48661948836198
 30
0.0
 10
-103.3397226011114
 20
-27.43316751010414
 30
0.0
 10
-103.523260874604
 20
-27.42826781406863
 30
0.0
 10
-103.6203600827667
 20
-27.42567567567573
 30
0.0
  0
LINE
  5
E4
330
1F
100
AcDbEntity
  8
0
  6
Continuous
 62
   254
370
    25
100
AcDbLine
 10
-103.6203600828
 20
-27.4256756757
 30
0.0
 11
-103.6203600828
 21
-24.0
 31
0.0
  0
SPLINE
  5
E5
330
1F
100
AcDbEntity
  8
0
  6
Continuous
 62
   254
370
    25
100
AcDbSpline
210
0.0
220
0.0
230
1.0
 70
     8
 71
     3
 72
    23
 73
    19
 74
     0
 42
0.00000001
 43
0.00000001
 40
0.0
 40
0.0
 40
0.0
 40
0.0
 40
0.085600611847481
 40
0.1660417243106101
 40
0.2415894048933891
 40
0.3121109741988111
 40
0.3779506237784548
 40
0.4403849502451456
 40
0.4992522115593736
 40
0.5550299917884686
 40
0.6089810901390736
 40
0.6619306217770142
 40
0.7142153978260861
 40
0.7669265832308375
 40
0.8210956226761948
 40
0.877685997956976
 40
0.9370055973654016
 40
1.0
 40
1.0
 40
1.0
 40
1.0
 10
-103.6203600827667
 20
-24.00000000000005
 30
0.0
 10
-103.369134051095
 20
-24.00279615379257
 30
0.0
 10
-102.8818244093741
 20
-24.00821992573913
 30
0.0
 10
-102.174433494763
 20
-24.06266317163156
 30
0.0
 10
-101.5155385386616
 20
-24.15291413621693
 30
0.0
 10
-100.9056188308563
 20
-24.27664154905824
 30
0.0
 10
-100.3436103962073
 20
-24.43515706109289
 30
0.0
 10
-99.82890874889956
 20
-24.6290889331083
 30
0.0
 10
-99.36372779152072
 20
-24.86277457414472
 30
0.0
 10
-98.9465625030274
 20
-25.13071420494504
 30
0.0
 10
-98.5785806591272
 20
-25.43672558696496
 30
0.0
 10
-98.25873929436135
 20
-25.77905691100371
 30
0.0
 10
-97.99016076156637
 20
-26.1582981459344
 30
0.0
 10
-97.76751321762501
 20
-26.57034808624741
 30
0.0
 10
-97.59915573034095
 20
-27.02103669852811
 30
0.0
 10
-97.47904621156007
 20
-27.50619235005364
 30
0.0
 10
-97.40210872565974
 20
-28.02683670291886
 30
0.0
 10
-97.39453235212784
 20
-28.38597950153628
 30
0.0
 10
-97.39063035303693
 20
-28.570945945946
 30
0.0
  0
LINE
  5
E6
330
1F
100
AcDbEntity
  8
0
  6
Continuous
 62
   254
370
    25
100
AcDbLine
 10
-97.390630353
 20
-28.5709459459
 30
0.0
 11
-97.390630353
 21
-35.4290540541
 31
0.0
  0
SPLINE
  5
E7
330
1F
100
AcDbEntity
  8
0
  6
Continuous
 62
   254
370
    25
100
AcDbSpline
210
0.0
220
0.0
230
1.0
 70
     8
 71
     3
 72
    23
 73
    19
 74
     0
 42
0.00000001
 43
0.00000001
 40
0.0
 40
0.0
 40
0.0
 40
0.0
 40
0.062994402634598
 40
0.1223140020430236
 40
0.1789043773238051
 40
0.2330734167691625
 40
0.285784602173914
 40
0.3380693782229859
 40
0.3910189098609267
 40
0.4449700082115314
 40
0.5007477884406264
 40
0.5596150497548543
 40
0.6220493762215453
 40
0.6878890258011889
 40
0.758410595106611
 40
0.83395827568939
 40
0.9143993881525191
 40
1.0
 40
1.0
 40
1.0
 40
1.0
 10
-97.39063035303693
 20
-35.42905405405411
 30
0.0
 10
-97.39453235212784
 20
-35.61402049846383
 30
0.0
 10
-97.40210872565972
 20
-35.97316329708124
 30
0.0
 10
-97.47904621156009
 20
-36.49380764994645
 30
0.0
 10
-97.59915573034094
 20
-36.97896330147199
 30
0.0
 10
-97.76751321762501
 20
-37.42965191375269
 30
0.0
 10
-97.99016076156637
 20
-37.84170185406569
 30
0.0
 10
-98.25873929436135
 20
-38.22094308899639
 30
0.0
 10
-98.5785806591272
 20
-38.56327441303515
 30
0.0
 10
-98.94656250302738
 20
-38.86928579505504
 30
0.0
 10
-99.3637277915207
 20
-39.13722542585538
 30
0.0
 10
-99.82890874889956
 20
-39.3709110668918
 30
0.0
 10
-100.3436103962073
 20
-39.56484293890721
 30
0.0
 10
-100.9056188308563
 20
-39.72335845094186
 30
0.0
 10
-101.5155385386616
 20
-39.84708586378317
 30
0.0
 10
-102.174433494763
 20
-39.93733682836853
 30
0.0
 10
-102.881824409374
 20
-39.99178007426097
 30
0.0
 10
-103.3691340510949
 20
-39.99720384620753
 30
0.0
 10
-103.6203600827667
 20
-40.00000000000005
 30
0.0
  0
LINE
  5
E8
330
1F
100
AcDbEntity
  8
0
  6
Continuous
 62
   254
370
    25
100
AcDbLine
 10
-103.6203600828
 20
-40.0
 30
0.0
 11
-108.6034681909
 21
-40.0
 31
0.0
  0
LINE
  5
E9
330
1F
100
AcDbEntity
  8
0
  6
Continuous
 62
   254
370
    25
100
AcDbLine
 10
-108.6034681909
 20
-40.0
 30
0.0
 11
-108.6034681909
 21
-36.5743243243
 31
0.0
  0
LINE
  5
EA
330
1F
100
AcDbEntity
  8
0
  6
Continuous
 62
   254
370
    25
100
AcDbLine
 10
-108.6034681909
 20
-36.5743243243
 30
0.0
 11
-103.6203600828
 21
-36.5743243243
 31
0.0
  0
SPLINE
  5
EB
330
1F
100
AcDbEntity
  8
0
  6
Continuous
 62
   254
370
    25
100
AcDbSpline
210
0.0
220
0.0
230
1.0
 70
     8
 71
     3
 72
    15
 73
    11
 74
     0
 42
0.00000001
 43
0.00000001
 40
0.0
 40
0.0
 40
0.0
 40
0.0
 40
0.1502988668560092
 40
0.2840970081282018
 40
0.4052887839912093
 40
0.5156342482446625
 40
0.6246475252606183
 40
0.7377852630284671
 40
0.8617705580039304
 40
1.0
 40
1.0
 40
1.0
 40
1.0
 10
-109.846711434118
 20
-27.42567567567573
 30
0.0
 10
-109.9438106422807
 20
-27.42826781406863
 30
0.0
 10
-110.1273489157732
 20
-27.43316751010415
 30
0.0
 10
-110.3853231244561
 20
-27.48661948836197
 30
0.0
 10
-110.6037278481653
 20
-27.57819880201121
 30
0.0
 10
-110.7892483083006
 20
-27.70071644957843
 30
0.0
 10
-110.9257443152702
 20
-27.8698370428
 30
0.0
 10
-111.0264689685097
 20
-28.07101663873521
 30
0.0
 10
-111.0822792632788
 20
-28.30903390742519
 30
0.0
 10
-111.089517393922
 20
-28.47832425862297
 30
0.0
 10
-111.0933330557396
 20
-28.56756756756762
 30
0.0
  0
LINE
  5
EC
330
1F
100
AcDbEntity
  8
0
  6
Continuous
 62
   254
370
    25
100
AcDbLine
 10
-111.0933330557
 20
-28.5675675676
 30
0.0
 11
-111.0933330557
 21
-35.4290540541
 31
0.0
  0
SPLINE
  5
ED
330
1F
100
AcDbEntity
  8
0
  6
Continuous
 62
   254
370
    25
100
AcDbSpline
210
0.0
220
0.0
230
1.0
 70
     8
 71
     3
 72
    15
 73
    11
 74
     0
 42
0.00000001
 43
0.00000001
 40
0.0
 40
0.0
 40
0.0
 40
0.0
 40
0.1380594921176422
 40
0.2618923500615777
 40
0.376452240166899
 40
0.4839985945985766
 40
0.5952095091261806
 40
0.7162522825243233
 40
0.8498859220990869
 40
1.0
 40
1.0
 40
1.0
 40
1.0
 10
-111.0933330557396
 20
-35.42905405405411
 30
0.0
 10
-111.0896050058109
 20
-35.5183518895499
 30
0.0
 10
-111.0825330707921
 20
-35.68774567504547
 30
0.0
 10
-111.0253697295848
 20
-35.92605674333509
 30
0.0
 10
-110.9280339943202
 20
-36.12960121816694
 30
0.0
 10
-110.7868472914324
 20
-36.29554294051439
 30
0.0
 10
-110.6051424620386
 20
-36.42257564589428
 30
0.0
 10
-110.3850726633659
 20
-36.51306544722551
 30
0.0
 10
-110.1274235092446
 20
-36.56692632382526
 30
0.0
 10
-109.9438364512602
 20
-36.57176465201612
 30
0.0
 10
-109.846711434118
 20
-36.57432432432437
 30
0.0
  0
LINE
  5
EE
330
1F
100
AcDbEntity
  8
0
  6
Continuous
 62
   254
370
    25
100
AcDbLine
 10
-109.8467114341
 20
-36.5743243243
 30
0.0
 11
-109.8467114341
 21
-40.0
 31
0.0
  0
SPLINE
  5
EF
330
1F
100
AcDbEntity
  8
0
  6
Continuous
 62
   254
370
    25
100
AcDbSpline
210
0.0
220
0.0
230
1.0
 70
     8
 71
     3
 72
    23
 73
    19
 74
     0
 42
0.00000001
 43
0.00000001
 40
0.0
 40
0.0
 40
0.0
 40
0.0
 40
0.085600611847481
 40
0.16604172431061
 40
0.241589404893389
 40
0.312110974198811
 40
0.3779506237784547
 40
0.4403849502451456
 40
0.4992522115593736
 40
0.5550299917884686
 40
0.6089810901390733
 40
0.6619306217770141
 40
0.714215397826086
 40
0.7669265832308374
 40
0.8210956226761948
 40
0.8776859979569763
 40
0.937005597365402
 40
1.0
 40
1.0
 40
1.0
 40
1.0
 10
-109.846711434118
 20
-40.00000000000005
 30
0.0
 10
-110.0979374657897
 20
-39.99720384620753
 30
0.0
 10
-110.5852471075106
 20
-39.99178007426097
 30
0.0
 10
-111.2926380221217
 20
-39.93733682836853
 30
0.0
 10
-111.9515329782231
 20
-39.84708586378319
 30
0.0
 10
-112.5614526860283
 20
-39.72335845094184
 30
0.0
 10
-113.1234611206774
 20
-39.56484293890722
 30
0.0
 10
-113.6381627679852
 20
-39.37091106689181
 30
0.0
 10
-114.1033437253639
 20
-39.13722542585538
 30
0.0
 10
-114.5205090138572
 20
-38.86928579505506
 30
0.0
 10
-114.8884908577575
 20
-38.56327441303515
 30
0.0
 10
-115.2083322225233
 20
-38.22094308899639
 30
0.0
 10
-115.4769107553183
 20
-37.84170185406569
 30
0.0
 10
-115.6995582992597
 20
-37.42965191375269
 30
0.0
 10
-115.8679157865437
 20
-36.97896330147198
 30
0.0
 10
-115.9880253053246
 20
-36.49380764994646
 30
0.0
 10
-116.0649627912249
 20
-35.97316329708123
 30
0.0
 10
-116.0725391647568
 20
-35.61402049846382
 30
0.0
 10
-116.0764411638477
 20
-35.42905405405411
 30
0.0
  0
LINE
  5
F0
330
1F
100
AcDbEntity
  8
0
  6
Continuous
 62
   254
370
    25
100
AcDbLine
 10
-116.0764411638
 20
-35.4290540541
 30
0.0
 11
-116.0764411638
 21
-28.5709459459
 31
0.0
  0
SPLINE
  5
F1
330
1F
100
AcDbEntity
  8
0
  6
Continuous
 62
   254
370
    25
100
AcDbSpline
210
0.0
220
0.0
230
1.0
 70
     8
 71
     3
 72
    23
 73
    19
 74
     0
 42
0.00000001
 43
0.00000001
 40
0.0
 40
0.0
 40
0.0
 40
0.0
 40
0.0629944026345984
 40
0.122314002043024
 40
0.1789043773238051
 40
0.2330734167691625
 40
0.285784602173914
 40
0.3380693782229859
 40
0.3910189098609264
 40
0.4449700082115314
 40
0.5007477884406264
 40
0.5596150497548543
 40
0.6220493762215452
 40
0.6878890258011888
 40
0.7584105951066109
 40
0.83395827568939
 40
0.9143993881525191
 40
1.0
 40
1.0
 40
1.0
 40
1.0
 10
-116.0764411638477
 20
-28.570945945946
 30
0.0
 10
-116.0725391647568
 20
-28.38597950153627
 30
0.0
 10
-116.0649627912249
 20
-28.02683670291885
 30
0.0
 10
-115.9880253053246
 20
-27.50619235005365
 30
0.0
 10
-115.8679157865437
 20
-27.02103669852811
 30
0.0
 10
-115.6995582992597
 20
-26.57034808624742
 30
0.0
 10
-115.4769107553183
 20
-26.15829814593441
 30
0.0
 10
-115.2083322225233
 20
-25.7790569110037
 30
0.0
 10
-114.8884908577575
 20
-25.43672558696495
 30
0.0
 10
-114.5205090138573
 20
-25.13071420494504
 30
0.0
 10
-114.1033437253639
 20
-24.86277457414471
 30
0.0
 10
-113.6381627679851
 20
-24.62908893310829
 30
0.0
 10
-113.1234611206774
 20
-24.43515706109289
 30
0.0
 10
-112.5614526860283
 20
-24.27664154905824
 30
0.0
 10
-111.9515329782231
 20
-24.15291413621693
 30
0.0
 10
-111.2926380221217
 20
-24.06266317163157
 30
0.0
 10
-110.5852471075106
 20
-24.00821992573913
 30
0.0
 10
-110.0979374657897
 20
-24.00279615379257
 30
0.0
 10
-109.846711434118
 20
-24.00000000000005
 30
0.0
  0
LINE
  5
F2
330
1F
100
AcDbEntity
  8
0
  6
Continuous
 62
   254
370
    25
100
AcDbLine
 10
-109.8467114341
 20
-24.0
 30
0.0
 11
-104.863603326
 21
-24.0
 31
0.0
  0
LINE
  5
F3
330
1F
100
AcDbEntity
  8
0
  6
Continuous
 62
   254
370
    25
100
AcDbLine
 10
-104.863603326
 20
-24.0
 30
0.0
 11
-104.863603326
 21
-27.4256756757
 31
0.0
  0
LINE
  5
F4
330
1F
100
AcDbEntity
  8
0
  6
Continuous
 62
   254
370
    25
100
AcDbLine
 10
-104.863603326
 20
-27.4256756757
 30
0.0
 11
-109.8467114341
 21
-27.4256756757
 31
0.0
  0
LINE
  5
F5
330
1F
100
AcDbEntity
  8
0
  6
Continuous
 62
   254
370
    25
100
AcDbLine
 10
-140.5804952179
 20
-24.0
 30
0.0
 11
-120.6480627855
 21
-24.0
 31
0.0
  0
LINE
  5
F6
330
1F
100
AcDbEntity
  8
0
  6
Continuous
 62
   254
370
    25
100
AcDbLine
 10
-120.6480627855
 20
-24.0
 30
0.0
 11
-120.6480627855
 21
-27.4256756757
 31
0.0
  0
LINE
  5
F7
330
1F
100
AcDbEntity
  8
0
  6
Continuous
 62
   254
370
    25
100
AcDbLine
 10
-120.6480627855
 20
-27.4256756757
 30
0.0
 11
-138.0872519747
 21
-27.4256756757
 31
0.0
  0
LINE
  5
F8
330
1F
100
AcDbEntity
  8
0
  6
Continuous
 62
   254
370
    25
100
AcDbLine
 10
-138.0872519747
 20
-27.4256756757
 30
0.0
 11
-140.5804952179
 21
-24.0
 31
0.0
  0
LINE
  5
F9
330
1F
100
AcDbEntity
  8
0
  6
Continuous
 62
   254
370
    25
100
AcDbLine
 10
-126.8744141368
 20
-40.0
 30
0.0
 11
-131.8575222449
 21
-40.0
 31
0.0
  0
LINE
  5
FA
330
1F
100
AcDbEntity
  8
0
  6
Continuous
 62
   254
370
    25
100
AcDbLine
 10
-131.8575222449
 20
-40.0
 30
0.0
 11
-131.8575222449
 21
-28.5405405405
 31
0.0
  0
LINE
  5
FB
330
1F
100
AcDbEntity
  8
0
  6
Continuous
 62
   254
370
    25
100
AcDbLine
 10
-131.8575222449
 20
-28.5405405405
 30
0.0
 11
-126.8744141368
 21
-28.5405405405
 31
0.0
  0
LINE
  5
FC
330
1F
100
AcDbEntity
  8
0
  6
Continuous
 62
   254
370
    25
100
AcDbLine
 10
-126.8744141368
 20
-28.5405405405
 30
0.0
 11
-126.8744141368
 21
-40.0
 31
0.0
  0
SPLINE
  5
FD
330
1F
100
AcDbEntity
  8
0
  6
Continuous
 62
   254
370
    25
100
AcDbSpline
210
0.0
220
0.0
230
1.0
 70
     8
 71
     3
 72
    15
 73
    11
 74
     0
 42
0.00000001
 43
0.00000001
 40
0.0
 40
0.0
 40
0.0
 40
0.0
 40
0.1501140779009068
 40
0.2837477174756782
 40
0.4047904908738148
 40
0.5160014054014137
 40
0.6235477598331011
 40
0.7381076499384198
 40
0.8619405078823577
 40
1.0
 40
1.0
 40
1.0
 40
1.0
 10
-148.9392790016855
 20
-36.57432432432437
 30
0.0
 10
-148.8421539845434
 20
-36.57176465201612
 30
0.0
 10
-148.658566926559
 20
-36.56692632382525
 30
0.0
 10
-148.4009177724376
 20
-36.51306544722553
 30
0.0
 10
-148.180847973765
 20
-36.42257564589426
 30
0.0
 10
-147.9991431443711
 20
-36.29554294051437
 30
0.0
 10
-147.8579564414834
 20
-36.12960121816695
 30
0.0
 10
-147.7606207062187
 20
-35.92605674333509
 30
0.0
 10
-147.7034573650115
 20
-35.68774567504549
 30
0.0
 10
-147.6963854299927
 20
-35.5183518895499
 30
0.0
 10
-147.6926573800639
 20
-35.42905405405411
 30
0.0
  0
LINE
  5
FE
330
1F
100
AcDbEntity
  8
0
  6
Continuous
 62
   254
370
    25
100
AcDbLine
 10
-147.6926573801
 20
-35.4290540541
 30
0.0
 11
-147.6926573801
 21
-28.5675675676
 31
0.0
  0
SPLINE
  5
FF
330
1F
100
AcDbEntity
  8
0
  6
Continuous
 62
   254
370
    25
100
AcDbSpline
210
0.0
220
0.0
230
1.0
 70
     8
 71
     3
 72
    15
 73
    11
 74
     0
 42
0.00000001
 43
0.00000001
 40
0.0
 40
0.0
 40
0.0
 40
0.0
 40
0.1382294419960698
 40
0.2622147369715355
 40
0.3753524747393817
 40
0.4843657517553472
 40
0.5947112160087952
 40
0.7159029918717967
 40
0.8497011331439971
 40
0.9999999999999999
 40
0.9999999999999999
 40
0.9999999999999999
 40
0.9999999999999999
 10
-147.6926573800639
 20
-28.56756756756762
 30
0.0
 10
-147.6964730418816
 20
-28.47832425862297
 30
0.0
 10
-147.7037111725247
 20
-28.30903390742519
 30
0.0
 10
-147.7595214672939
 20
-28.0710166387352
 30
0.0
 10
-147.8602461205334
 20
-27.86983704279999
 30
0.0
 10
-147.996742127503
 20
-27.70071644957845
 30
0.0
 10
-148.1822625876383
 20
-27.57819880201121
 30
0.0
 10
-148.4006673113474
 20
-27.48661948836198
 30
0.0
 10
-148.6586415200303
 20
-27.43316751010415
 30
0.0
 10
-148.8421797935229
 20
-27.42826781406863
 30
0.0
 10
-148.9392790016855
 20
-27.42567567567573
 30
0.0
  0
LINE
  5
100
330
1F
100
AcDbEntity
  8
0
  6
Continuous
 62
   254
370
    25
100
AcDbLine
 10
-148.9392790017
 20
-27.4256756757
 30
0.0
 11
-148.9392790017
 21
-24.0
 31
0.0
  0
SPLINE
  5
101
330
1F
100
AcDbEntity
  8
0
  6
Continuous
 62
   254
370
    25
100
AcDbSpline
210
0.0
220
0.0
230
1.0
 70
     8
 71
     3
 72
    23
 73
    19
 74
     0
 42
0.00000001
 43
0.00000001
 40
0.0
 40
0.0
 40
0.0
 40
0.0
 40
0.0856006118474781
 40
0.1660417243106072
 40
0.2415894048933864
 40
0.3121109741988117
 40
0.377950623778454
 40
0.4403849502451435
 40
0.4992522115593729
 40
0.555029991788468
 40
0.6089810901390732
 40
0.6619306217770138
 40
0.7142153978260858
 40
0.7669265832308366
 40
0.8210956226761946
 40
0.8776859979569763
 40
0.9370055973654016
 40
1.0
 40
1.0
 40
1.0
 40
1.0
 10
-148.9392790016855
 20
-24.00000000000005
 30
0.0
 10
-148.6880529700138
 20
-24.00279615379257
 30
0.0
 10
-148.200743328293
 20
-24.00821992573913
 30
0.0
 10
-147.4933524136819
 20
-24.06266317163158
 30
0.0
 10
-146.8344574575805
 20
-24.15291413621693
 30
0.0
 10
-146.2245377497752
 20
-24.27664154905823
 30
0.0
 10
-145.6625293151262
 20
-24.43515706109289
 30
0.0
 10
-145.1478276678184
 20
-24.62908893310831
 30
0.0
 10
-144.6826467104396
 20
-24.8627745741447
 30
0.0
 10
-144.2654814219463
 20
-25.13071420494504
 30
0.0
 10
-143.8974995780461
 20
-25.43672558696494
 30
0.0
 10
-143.5776582132803
 20
-25.77905691100372
 30
0.0
 10
-143.3090796804853
 20
-26.1582981459344
 30
0.0
 10
-143.0864321365439
 20
-26.57034808624741
 30
0.0
 10
-142.9180746492598
 20
-27.02103669852811
 30
0.0
 10
-142.7979651304789
 20
-27.50619235005363
 30
0.0
 10
-142.7210276445786
 20
-28.02683670291886
 30
0.0
 10
-142.7134512710467
 20
-28.38597950153627
 30
0.0
 10
-142.7095492719558
 20
-28.570945945946
 30
0.0
  0
LINE
  5
102
330
1F
100
AcDbEntity
  8
0
  6
Continuous
 62
   254
370
    25
100
AcDbLine
 10
-142.709549272
 20
-28.5709459459
 30
0.0
 11
-142.709549272
 21
-35.4290540541
 31
0.0
  0
SPLINE
  5
103
330
1F
100
AcDbEntity
  8
0
  6
Continuous
 62
   254
370
    25
100
AcDbSpline
210
0.0
220
0.0
230
1.0
 70
     8
 71
     3
 72
    23
 73
    19
 74
     0
 42
0.00000001
 43
0.00000001
 40
0.0
 40
0.0
 40
0.0
 40
0.0
 40
0.0629944026345981
 40
0.1223140020430234
 40
0.1789043773238054
 40
0.2330734167691635
 40
0.2857846021739143
 40
0.3380693782229863
 40
0.3910189098609272
 40
0.4449700082115322
 40
0.5007477884406272
 40
0.5596150497548567
 40
0.6220493762215462
 40
0.6878890258011886
 40
0.7584105951066138
 40
0.833958275689393
 40
0.9143993881525221
 40
1.0
 40
1.0
 40
1.0
 40
1.0
 10
-142.7095492719558
 20
-35.42905405405411
 30
0.0
 10
-142.7134512710467
 20
-35.61402049846382
 30
0.0
 10
-142.7210276445786
 20
-35.97316329708124
 30
0.0
 10
-142.797965130479
 20
-36.49380764994646
 30
0.0
 10
-142.9180746492599
 20
-36.97896330147199
 30
0.0
 10
-143.0864321365439
 20
-37.42965191375269
 30
0.0
 10
-143.3090796804853
 20
-37.84170185406568
 30
0.0
 10
-143.5776582132803
 20
-38.2209430889964
 30
0.0
 10
-143.8974995780461
 20
-38.56327441303515
 30
0.0
 10
-144.2654814219463
 20
-38.86928579505505
 30
0.0
 10
-144.6826467104396
 20
-39.13722542585539
 30
0.0
 10
-145.1478276678184
 20
-39.37091106689179
 30
0.0
 10
-145.6625293151262
 20
-39.56484293890722
 30
0.0
 10
-146.2245377497752
 20
-39.72335845094187
 30
0.0
 10
-146.8344574575805
 20
-39.84708586378316
 30
0.0
 10
-147.4933524136819
 20
-39.93733682836851
 30
0.0
 10
-148.200743328293
 20
-39.99178007426098
 30
0.0
 10
-148.6880529700139
 20
-39.99720384620754
 30
0.0
 10
-148.9392790016856
 20
-40.00000000000006
 30
0.0
  0
LINE
  5
104
330
1F
100
AcDbEntity
  8
0
  6
Continuous
 62
   254
370
    25
100
AcDbLine
 10
-148.9392790017
 20
-40.0
 30
0.0
 11
-153.9223871098
 21
-40.0
 31
0.0
  0
LINE
  5
105
330
1F
100
AcDbEntity
  8
0
  6
Continuous
 62
   254
370
    25
100
AcDbLine
 10
-153.9223871098
 20
-40.0
 30
0.0
 11
-153.9223871098
 21
-36.5743243243
 31
0.0
  0
LINE
  5
106
330
1F
100
AcDbEntity
  8
0
  6
Continuous
 62
   254
370
    25
100
AcDbLine
 10
-153.9223871098
 20
-36.5743243243
 30
0.0
 11
-148.9392790017
 21
-36.5743243243
 31
0.0
  0
SPLINE
  5
107
330
1F
100
AcDbEntity
  8
0
  6
Continuous
 62
   254
370
    25
100
AcDbSpline
210
0.0
220
0.0
230
1.0
 70
     8
 71
     3
 72
    15
 73
    11
 74
     0
 42
0.00000001
 43
0.00000001
 40
0.0
 40
0.0
 40
0.0
 40
0.0
 40
0.1502988668560017
 40
0.2840970081282012
 40
0.4052887839912152
 40
0.5156342482446623
 40
0.6246475252606178
 40
0.7377852630284697
 40
0.8617705580039311
 40
0.9999999999999999
 40
0.9999999999999999
 40
0.9999999999999999
 40
0.9999999999999999
 10
-155.1656303530369
 20
-27.42567567567573
 30
0.0
 10
-155.2627295611996
 20
-27.42826781406863
 30
0.0
 10
-155.4462678346921
 20
-27.43316751010414
 30
0.0
 10
-155.704242043375
 20
-27.48661948836199
 30
0.0
 10
-155.9226467670842
 20
-27.5781988020112
 30
0.0
 10
-156.1081672272195
 20
-27.70071644957844
 30
0.0
 10
-156.2446632341891
 20
-27.86983704280001
 30
0.0
 10
-156.3453878874286
 20
-28.07101663873518
 30
0.0
 10
-156.4011981821977
 20
-28.30903390742519
 30
0.0
 10
-156.4084363128408
 20
-28.47832425862298
 30
0.0
 10
-156.4122519746585
 20
-28.56756756756762
 30
0.0
  0
LINE
  5
108
330
1F
100
AcDbEntity
  8
0
  6
Continuous
 62
   254
370
    25
100
AcDbLine
 10
-156.4122519747
 20
-28.5675675676
 30
0.0
 11
-156.4122519747
 21
-35.4290540541
 31
0.0
  0
SPLINE
  5
109
330
1F
100
AcDbEntity
  8
0
  6
Continuous
 62
   254
370
    25
100
AcDbSpline
210
0.0
220
0.0
230
1.0
 70
     8
 71
     3
 72
    15
 73
    11
 74
     0
 42
0.00000001
 43
0.00000001
 40
0.0
 40
0.0
 40
0.0
 40
0.0
 40
0.1380594921176414
 40
0.2618923500615751
 40
0.3764522401668993
 40
0.4839985945985767
 40
0.5952095091261748
 40
0.7162522825243238
 40
0.8498859220990942
 40
1.0
 40
1.0
 40
1.0
 40
1.0
 10
-156.4122519746585
 20
-35.42905405405411
 30
0.0
 10
-156.4085239247298
 20
-35.5183518895499
 30
0.0
 10
-156.4014519897109
 20
-35.68774567504546
 30
0.0
 10
-156.3442886485038
 20
-35.92605674333511
 30
0.0
 10
-156.2469529132391
 20
-36.12960121816693
 30
0.0
 10
-156.1057662103514
 20
-36.29554294051439
 30
0.0
 10
-155.9240613809575
 20
-36.42257564589427
 30
0.0
 10
-155.7039915822849
 20
-36.51306544722551
 30
0.0
 10
-155.4463424281634
 20
-36.56692632382526
 30
0.0
 10
-155.2627553701791
 20
-36.57176465201611
 30
0.0
 10
-155.1656303530369
 20
-36.57432432432437
 30
0.0
  0
LINE
  5
10A
330
1F
100
AcDbEntity
  8
0
  6
Continuous
 62
   254
370
    25
100
AcDbLine
 10
-155.165630353
 20
-36.5743243243
 30
0.0
 11
-155.165630353
 21
-40.0
 31
0.0
  0
SPLINE
  5
10B
330
1F
100
AcDbEntity
  8
0
  6
Continuous
 62
   254
370
    25
100
AcDbSpline
210
0.0
220
0.0
230
1.0
 70
     8
 71
     3
 72
    23
 73
    19
 74
     0
 42
0.00000001
 43
0.00000001
 40
0.0
 40
0.0
 40
0.0
 40
0.0
 40
0.085600611847481
 40
0.16604172431061
 40
0.241589404893389
 40
0.312110974198811
 40
0.3779506237784562
 40
0.4403849502451457
 40
0.4992522115593749
 40
0.5550299917884672
 40
0.6089810901390721
 40
0.6619306217770129
 40
0.7142153978260866
 40
0.7669265832308373
 40
0.8210956226761952
 40
0.8776859979569762
 40
0.937005597365402
 40
1.0
 40
1.0
 40
1.0
 40
1.0
 10
-155.1656303530369
 20
-40.00000000000005
 30
0.0
 10
-155.4168563847086
 20
-39.99720384620753
 30
0.0
 10
-155.9041660264295
 20
-39.99178007426097
 30
0.0
 10
-156.6115569410406
 20
-39.93733682836853
 30
0.0
 10
-157.270451897142
 20
-39.84708586378318
 30
0.0
 10
-157.8803716049473
 20
-39.72335845094187
 30
0.0
 10
-158.4423800395963
 20
-39.56484293890721
 30
0.0
 10
-158.957081686904
 20
-39.3709110668918
 30
0.0
 10
-159.4222626442829
 20
-39.13722542585541
 30
0.0
 10
-159.8394279327761
 20
-38.86928579505505
 30
0.0
 10
-160.2074097766764
 20
-38.56327441303516
 30
0.0
 10
-160.5272511414422
 20
-38.22094308899638
 30
0.0
 10
-160.7958296742372
 20
-37.8417018540657
 30
0.0
 10
-161.0184772181786
 20
-37.42965191375268
 30
0.0
 10
-161.1868347054626
 20
-36.97896330147198
 30
0.0
 10
-161.3069442242435
 20
-36.49380764994647
 30
0.0
 10
-161.3838817101438
 20
-35.97316329708122
 30
0.0
 10
-161.3914580836757
 20
-35.61402049846381
 30
0.0
 10
-161.3953600827666
 20
-35.42905405405411
 30
0.0
  0
LINE
  5
10C
330
1F
100
AcDbEntity
  8
0
  6
Continuous
 62
   254
370
    25
100
AcDbLine
 10
-161.3953600828
 20
-35.4290540541
 30
0.0
 11
-161.3953600828
 21
-28.5709459459
 31
0.0
  0
SPLINE
  5
10D
330
1F
100
AcDbEntity
  8
0
  6
Continuous
 62
   254
370
    25
100
AcDbSpline
210
0.0
220
0.0
230
1.0
 70
     8
 71
     3
 72
    23
 73
    19
 74
     0
 42
0.00000001
 43
0.00000001
 40
0.0
 40
0.0
 40
0.0
 40
0.0
 40
0.0629944026345984
 40
0.122314002043024
 40
0.1789043773238047
 40
0.2330734167691627
 40
0.2857846021739134
 40
0.3380693782229871
 40
0.3910189098609276
 40
0.4449700082115327
 40
0.500747788440625
 40
0.5596150497548543
 40
0.6220493762215437
 40
0.6878890258011888
 40
0.7584105951066109
 40
0.83395827568939
 40
0.914399388152519
 40
1.0
 40
1.0
 40
1.0
 40
1.0
 10
-161.3953600827666
 20
-28.570945945946
 30
0.0
 10
-161.3914580836758
 20
-28.38597950153627
 30
0.0
 10
-161.3838817101439
 20
-28.02683670291886
 30
0.0
 10
-161.3069442242435
 20
-27.50619235005364
 30
0.0
 10
-161.1868347054626
 20
-27.02103669852811
 30
0.0
 10
-161.0184772181786
 20
-26.57034808624741
 30
0.0
 10
-160.7958296742372
 20
-26.15829814593439
 30
0.0
 10
-160.5272511414422
 20
-25.77905691100372
 30
0.0
 10
-160.2074097766763
 20
-25.43672558696495
 30
0.0
 10
-159.8394279327761
 20
-25.13071420494506
 30
0.0
 10
-159.4222626442828
 20
-24.86277457414469
 30
0.0
 10
-158.9570816869041
 20
-24.62908893310832
 30
0.0
 10
-158.4423800395963
 20
-24.43515706109288
 30
0.0
 10
-157.8803716049473
 20
-24.27664154905824
 30
0.0
 10
-157.270451897142
 20
-24.15291413621692
 30
0.0
 10
-156.6115569410405
 20
-24.06266317163158
 30
0.0
 10
-155.9041660264295
 20
-24.00821992573913
 30
0.0
 10
-155.4168563847086
 20
-24.00279615379257
 30
0.0
 10
-155.1656303530369
 20
-24.00000000000005
 30
0.0
  0
LINE
  5
10E
330
1F
100
AcDbEntity
  8
0
  6
Continuous
 62
   254
370
    25
100
AcDbLine
 10
-155.165630353
 20
-24.0
 30
0.0
 11
-150.1825222449
 21
-24.0
 31
0.0
  0
LINE
  5
10F
330
1F
100
AcDbEntity
  8
0
  6
Continuous
 62
   254
370
    25
100
AcDbLine
 10
-150.1825222449
 20
-24.0
 30
0.0
 11
-150.1825222449
 21
-27.4256756757
 31
0.0
  0
LINE
  5
110
330
1F
100
AcDbEntity
  8
0
  6
Continuous
 62
   254
370
    25
100
AcDbLine
 10
-150.1825222449
 20
-27.4256756757
 30
0.0
 11
-155.165630353
 21
-27.4256756757
 31
0.0
  0
LINE
  5
111
330
1F
100
AcDbEntity
  8
0
  6
Continuous
 62
   254
370
    25
100
AcDbLine
 10
-174.588603326
 20
-37.3040540541
 30
0.0
 11
-177.1663060287
 21
-41.8614864865
 31
0.0
  0
LINE
  5
112
330
1F
100
AcDbEntity
  8
0
  6
Continuous
 62
   254
370
    25
100
AcDbLine
 10
-177.1663060287
 20
-41.8614864865
 30
0.0
 11
-183.3960357584
 21
-30.8344594595
 31
0.0
  0
LINE
  5
113
330
1F
100
AcDbEntity
  8
0
  6
Continuous
 62
   254
370
    25
100
AcDbLine
 10
-183.3960357584
 20
-30.8344594595
 30
0.0
 11
-183.3960357584
 21
-40.0
 31
0.0
  0
LINE
  5
114
330
1F
100
AcDbEntity
  8
0
  6
Continuous
 62
   254
370
    25
100
AcDbLine
 10
-183.3960357584
 20
-40.0
 30
0.0
 11
-188.3791438666
 21
-40.0
 31
0.0
  0
LINE
  5
115
330
1F
100
AcDbEntity
  8
0
  6
Continuous
 62
   254
370
    25
100
AcDbLine
 10
-188.3791438666
 20
-40.0
 30
0.0
 11
-188.3791438666
 21
-24.0
 31
0.0
  0
LINE
  5
116
330
1F
100
AcDbEntity
  8
0
  6
Continuous
 62
   254
370
    25
100
AcDbLine
 10
-188.3791438666
 20
-24.0
 30
0.0
 11
-181.9027925152
 21
-24.0
 31
0.0
  0
LINE
  5
117
330
1F
100
AcDbEntity
  8
0
  6
Continuous
 62
   254
370
    25
100
AcDbLine
 10
-181.9027925152
 20
-24.0
 30
0.0
 11
-174.588603326
 21
-37.3040540541
 31
0.0
  0
LINE
  5
118
330
1F
100
AcDbEntity
  8
0
  6
Continuous
 62
   254
370
    25
100
AcDbLine
 10
-176.4331979206
 20
-31.222972973
 30
0.0
 11
-172.4331979206
 21
-24.0
 31
0.0
  0
LINE
  5
119
330
1F
100
AcDbEntity
  8
0
  6
Continuous
 62
   254
370
    25
100
AcDbLine
 10
-172.4331979206
 20
-24.0
 30
0.0
 11
-165.9568465693
 21
-24.0
 31
0.0
  0
LINE
  5
11A
330
1F
100
AcDbEntity
  8
0
  6
Continuous
 62
   254
370
    25
100
AcDbLine
 10
-165.9568465693
 20
-24.0
 30
0.0
 11
-165.9568465693
 21
-40.0
 31
0.0
  0
LINE
  5
11B
330
1F
100
AcDbEntity
  8
0
  6
Continuous
 62
   254
370
    25
100
AcDbLine
 10
-165.9568465693
 20
-40.0
 30
0.0
 11
-170.9399546774
 21
-40.0
 31
0.0
  0
LINE
  5
11C
330
1F
100
AcDbEntity
  8
0
  6
Continuous
 62
   254
370
    25
100
AcDbLine
 10
-170.9399546774
 20
-40.0
 30
0.0
 11
-170.9399546774
 21
-30.8344594595
 31
0.0
  0
LINE
  5
11D
330
1F
100
AcDbEntity
  8
0
  6
Continuous
 62
   254
370
    25
100
AcDbLine
 10
-170.9399546774
 20
-30.8344594595
 30
0.0
 11
-173.8284681909
 21
-35.9560810811
 31
0.0
  0
LINE
  5
11E
330
1F
100
AcDbEntity
  8
0
  6
Continuous
 62
   254
370
    25
100
AcDbLine
 10
-173.8284681909
 20
-35.9560810811
 30
0.0
 11
-176.4331979206
 21
-31.222972973
 31
0.0
  0
LINE
  5
11F
330
1F
100
AcDbEntity
  8
0
  6
Continuous
 62
   254
370
    25
100
AcDbLine
 10
-220.0764411638
 20
-29.7466216216
 30
0.0
 11
-220.0764411638
 21
-28.597972973
 31
0.0
  0
SPLINE
  5
120
330
1F
100
AcDbEntity
  8
0
  6
Continuous
 62
   254
370
    25
100
AcDbSpline
210
0.0
220
0.0
230
1.0
 70
     8
 71
     3
 72
    23
 73
    19
 74
     0
 42
0.00000001
 43
0.00000001
 40
0.0
 40
0.0
 40
0.0
 40
0.0
 40
0.0632299130722606
 40
0.1227900722365046
 40
0.1796197414442187
 40
0.2336623661269437
 40
0.2869263363503587
 40
0.3390890949588199
 40
0.3919150578101978
 40
0.4459861555964524
 40
0.5016337667304297
 40
0.5605368626216614
 40
0.6228254855528764
 40
0.6886174019201396
 40
0.7589743944205172
 40
0.8343457687182645
 40
0.9145991550514476
 40
1.0
 40
1.0
 40
1.0
 40
1.0
 10
-220.0764411638477
 20
-28.59797297297302
 30
0.0
 10
-220.0725547457451
 20
-28.41187482940213
 30
0.0
 10
-220.0650074704703
 20
-28.05047935403536
 30
0.0
 10
-219.9878263743165
 20
-27.52657822592309
 30
0.0
 10
-219.8688241513979
 20
-27.03873470363116
 30
0.0
 10
-219.6976924521185
 20
-26.58596798666192
 30
0.0
 10
-219.4789702856186
 20
-26.16961527075392
 30
0.0
 10
-219.2082438734805
 20
-25.78911939673756
 30
0.0
 10
-218.8874227710835
 20
-25.44708715263481
 30
0.0
 10
-218.5218365301497
 20
-25.13689076136566
 30
0.0
 10
-218.1022500121173
 20
-24.87046221738637
 30
0.0
 10
-217.6392927976588
 20
-24.63128543398017
 30
0.0
 10
-217.1226914801736
 20
-24.43982110861814
 30
0.0
 10
-216.5621611276354
 20
-24.27538234012501
 30
0.0
 10
-215.9514134637349
 20
-24.15330607380953
 30
0.0
 10
-215.2926731177063
 20
-24.06254807864803
 30
0.0
 10
-214.585237430388
 20
-24.00825166103876
 30
0.0
 10
-214.0979341739445
 20
-24.00280694911861
 30
0.0
 10
-213.8467114341179
 20
-24.00000000000005
 30
0.0
  0
LINE
  5
121
330
1F
100
AcDbEntity
  8
0
  6
Continuous
 62
   254
370
    25
100
AcDbLine
 10
-213.8467114341
 20
-24.0
 30
0.0
 11
-201.390630353
 21
-24.0
 31
0.0
  0
LINE
  5
122
330
1F
100
AcDbEntity
  8
0
  6
Continuous
 62
   254
370
    25
100
AcDbLine
 10
-201.390630353
 20
-24.0
 30
0.0
 11
-201.390630353
 21
-27.4256756757
 31
0.0
  0
LINE
  5
123
330
1F
100
AcDbEntity
  8
0
  6
Continuous
 62
   254
370
    25
100
AcDbLine
 10
-201.390630353
 20
-27.4256756757
 30
0.0
 11
-213.8467114341
 21
-27.4256756757
 31
0.0
  0
SPLINE
  5
124
330
1F
100
AcDbEntity
  8
0
  6
Continuous
 62
   254
370
    25
100
AcDbSpline
210
0.0
220
0.0
230
1.0
 70
     8
 71
     3
 72
    15
 73
    11
 74
     0
 42
0.00000001
 43
0.00000001
 40
0.0
 40
0.0
 40
0.0
 40
0.0
 40
0.1488902498521309
 40
0.281805772397669
 40
0.4018617260167701
 40
0.5121659765030473
 40
0.6214909343593001
 40
0.7351168573861453
 40
0.8596190151341273
 40
1.0
 40
1.0
 40
1.0
 40
1.0
 10
-213.8467114341179
 20
-27.42567567567573
 30
0.0
 10
-213.9439212505629
 20
-27.42781194171257
 30
0.0
 10
-214.1279110513397
 20
-27.43185526960783
 30
0.0
 10
-214.3847221796574
 20
-27.49117411164291
 30
0.0
 10
-214.6048597049243
 20
-27.58083394887016
 30
0.0
 10
-214.7894069360215
 20
-27.70796984529947
 30
0.0
 10
-214.9258443614704
 20
-27.88010151766064
 30
0.0
 10
-215.0264444131222
 20
-28.08469332886493
 30
0.0
 10
-215.0825251375617
 20
-28.32706381743074
 30
0.0
 10
-215.089589259792
 20
-28.49971546058117
 30
0.0
 10
-215.0933330557395
 20
-28.59121621621627
 30
0.0
  0
LINE
  5
125
330
1F
100
AcDbEntity
  8
0
  6
Continuous
 62
   254
370
    25
100
AcDbLine
 10
-215.0933330557
 20
-28.5912162162
 30
0.0
 11
-215.0933330557
 21
-29.7533783784
 31
0.0
  0
SPLINE
  5
126
330
1F
100
AcDbEntity
  8
0
  6
Continuous
 62
   254
370
    25
100
AcDbSpline
210
0.0
220
0.0
230
1.0
 70
     8
 71
     3
 72
    15
 73
    11
 74
     0
 42
0.00000001
 43
0.00000001
 40
0.0
 40
0.0
 40
0.0
 40
0.0
 40
0.1403809848658711
 40
0.2648831426138532
 40
0.3785090656407001
 40
0.4878340234969516
 40
0.598138273983229
 40
0.7181942276023302
 40
0.8511097501478688
 40
1.0
 40
1.0
 40
1.0
 40
1.0
 10
-215.0933330557395
 20
-29.75337837837843
 30
0.0
 10
-215.089589259792
 20
-29.84487913401353
 30
0.0
 10
-215.0825251375618
 20
-30.01753077716395
 30
0.0
 10
-215.0264444131221
 20
-30.25990126572976
 30
0.0
 10
-214.9258443614706
 20
-30.46449307693407
 30
0.0
 10
-214.7894069360214
 20
-30.63662474929522
 30
0.0
 10
-214.6048597049244
 20
-30.76376064572452
 30
0.0
 10
-214.3847221796574
 20
-30.85342048295179
 30
0.0
 10
-214.1279110513397
 20
-30.91273932498686
 30
0.0
 10
-213.9439212505628
 20
-30.91678265288212
 30
0.0
 10
-213.8467114341179
 20
-30.91891891891897
 30
0.0
  0
LINE
  5
127
330
1F
100
AcDbEntity
  8
0
  6
Continuous
 62
   254
370
    25
100
AcDbLine
 10
-213.8467114341
 20
-30.9189189189
 30
0.0
 11
-211.3568465693
 21
-30.9189189189
 31
0.0
  0
LINE
  5
128
330
1F
100
AcDbEntity
  8
0
  6
Continuous
 62
   254
370
    25
100
AcDbLine
 10
-211.3568465693
 20
-30.9189189189
 30
0.0
 11
-211.3568465693
 21
-34.3445945946
 31
0.0
  0
LINE
  5
129
330
1F
100
AcDbEntity
  8
0
  6
Continuous
 62
   254
370
    25
100
AcDbLine
 10
-211.3568465693
 20
-34.3445945946
 30
0.0
 11
-213.8467114341
 21
-34.3445945946
 31
0.0
  0
SPLINE
  5
12A
330
1F
100
AcDbEntity
  8
0
  6
Continuous
 62
   254
370
    25
100
AcDbSpline
210
0.0
220
0.0
230
1.0
 70
     8
 71
     3
 72
    23
 73
    19
 74
     0
 42
0.00000001
 43
0.00000001
 40
0.0
 40
0.0
 40
0.0
 40
0.0
 40
0.0854008449485524
 40
0.1656542312817356
 40
0.2410256055794829
 40
0.3113825980798604
 40
0.3771745144471236
 40
0.4394631373783385
 40
0.4983662332695704
 40
0.5540138444035476
 40
0.6080849421898019
 40
0.6609109050411798
 40
0.713073663649641
 40
0.7663376338730563
 40
0.8203802585557806
 40
0.8772099277634954
 40
0.936770086927739
 40
1.0
 40
1.0
 40
1.0
 40
1.0
 10
-213.8467114341179
 20
-34.34459459459465
 30
0.0
 10
-214.0979341739445
 20
-34.34178764547607
 30
0.0
 10
-214.585237430388
 20
-34.33634293355593
 30
0.0
 10
-215.2926731177064
 20
-34.28204651594665
 30
0.0
 10
-215.9514134637348
 20
-34.19128852078516
 30
0.0
 10
-216.5621611276354
 20
-34.0692122544697
 30
0.0
 10
-217.1226914801736
 20
-33.90477348597654
 30
0.0
 10
-217.6392927976588
 20
-33.71330916061454
 30
0.0
 10
-218.1022500121173
 20
-33.47413237720831
 30
0.0
 10
-218.5218365301498
 20
-33.20770383322902
 30
0.0
 10
-218.8874227710836
 20
-32.89750744195987
 30
0.0
 10
-219.2082438734804
 20
-32.55547519785713
 30
0.0
 10
-219.4789702856186
 20
-32.17497932384078
 30
0.0
 10
-219.6976924521185
 20
-31.75862660793277
 30
0.0
 10
-219.8688241513979
 20
-31.30585989096354
 30
0.0
 10
-219.9878263743165
 20
-30.81801636867159
 30
0.0
 10
-220.0650074704703
 20
-30.29411524055933
 30
0.0
 10
-220.0725547457451
 20
-29.93271976519257
 30
0.0
 10
-220.0764411638477
 20
-29.74662162162167
 30
0.0
  0
SPLINE
  5
12B
330
1F
100
AcDbEntity
  8
0
  6
Continuous
 62
   254
370
    25
100
AcDbSpline
210
0.0
220
0.0
230
1.0
 70
     8
 71
     3
 72
    23
 73
    19
 74
     0
 42
0.00000001
 43
0.00000001
 40
0.0
 40
0.0
 40
0.0
 40
0.0
 40
0.0858198515358865
 40
0.1664669892136844
 40
0.242156352424995
 40
0.3128585410805266
 40
0.3788668187102169
 40
0.4414610515372132
 40
0.5003070205016196
 40
0.5562276583913501
 40
0.6100714389882639
 40
0.6628755941897465
 40
0.7149812976361171
 40
0.7678274865602862
 40
0.8217756369584012
 40
0.8781379252204972
 40
0.9372286500899175
 40
1.0
 40
1.0
 40
1.0
 40
1.0
 10
-207.6203600827666
 20
-30.91891891891897
 30
0.0
 10
-207.3691170768061
 20
-30.92159233691534
 30
0.0
 10
-206.8817745096176
 20
-30.92677803505861
 30
0.0
 10
-206.1747657291095
 20
-30.98287861972461
 30
0.0
 10
-205.5152229339942
 20
-31.06733514539958
 30
0.0
 10
-204.9057040862016
 20
-31.19254708874053
 30
0.0
 10
-204.3434371565484
 20
-31.35031195340517
 30
0.0
 10
-203.829947389244
 20
-31.5455647865065
 30
0.0
 10
-203.3626902247261
 20
-31.77408698284381
 30
0.0
 10
-202.9477763524828
 20
-32.04333776280792
 30
0.0
 10
-202.5785276898577
 20
-32.34516587862137
 30
0.0
 10
-202.2590077022008
 20
-32.68449089255267
 30
0.0
 10
-201.9891491367201
 20
-33.06076245544713
 30
0.0
 10
-201.7684553265577
 20
-33.47165991017508
 30
0.0
 10
-201.5989880378057
 20
-33.91953556823106
 30
0.0
 10
-201.4790831981442
 20
-34.40145168303636
 30
0.0
 10
-201.4020888442465
 20
-34.91870564596238
 30
0.0
 10
-201.3945259909061
 20
-35.27561492048013
 30
0.0
 10
-201.3906303530369
 20
-35.45945945945951
 30
0.0
  0
SPLINE
  5
12C
330
1F
100
AcDbEntity
  8
0
  6
Continuous
 62
   254
370
    25
100
AcDbSpline
210
0.0
220
0.0
230
1.0
 70
     8
 71
     3
 72
    23
 73
    19
 74
     0
 42
0.00000001
 43
0.00000001
 40
0.0
 40
0.0
 40
0.0
 40
0.0
 40
0.0627713499100826
 40
0.1218620747795022
 40
0.178224363041599
 40
0.232172513439714
 40
0.2850187023638833
 40
0.3371244058102532
 40
0.3899285610117365
 40
0.4437723416086498
 40
0.4996929794983808
 40
0.558538948462787
 40
0.6211331812897831
 40
0.6871414589194735
 40
0.7578436475750052
 40
0.8335330107863158
 40
0.9141801484641136
 40
1.0
 40
1.0
 40
1.0
 40
1.0
 10
-201.3906303530369
 20
-35.45945945945951
 30
0.0
 10
-201.3945259909062
 20
-35.6433039984389
 30
0.0
 10
-201.4020888442465
 20
-36.00021327295665
 30
0.0
 10
-201.4790831981443
 20
-36.51746723588265
 30
0.0
 10
-201.5989880378056
 20
-36.99938335068798
 30
0.0
 10
-201.7684553265577
 20
-37.44725900874393
 30
0.0
 10
-201.9891491367201
 20
-37.8581564634719
 30
0.0
 10
-202.2590077022009
 20
-38.23442802636634
 30
0.0
 10
-202.5785276898578
 20
-38.57375304029765
 30
0.0
 10
-202.9477763524828
 20
-38.87558115611109
 30
0.0
 10
-203.3626902247262
 20
-39.14483193607521
 30
0.0
 10
-203.829947389244
 20
-39.37335413241249
 30
0.0
 10
-204.3434371565484
 20
-39.56860696551384
 30
0.0
 10
-204.9057040862016
 20
-39.7263718301785
 30
0.0
 10
-205.5152229339942
 20
-39.85158377351942
 30
0.0
 10
-206.1747657291095
 20
-39.9360402991944
 30
0.0
 10
-206.8817745096177
 20
-39.99214088386041
 30
0.0
 10
-207.3691170768062
 20
-39.99732658200369
 30
0.0
 10
-207.6203600827666
 20
-40.00000000000006
 30
0.0
  0
LINE
  5
12D
330
1F
100
AcDbEntity
  8
0
  6
Continuous
 62
   254
370
    25
100
AcDbLine
 10
-207.6203600828
 20
-40.0
 30
0.0
 11
-220.0764411638
 21
-40.0
 31
0.0
  0
LINE
  5
12E
330
1F
100
AcDbEntity
  8
0
  6
Continuous
 62
   254
370
    25
100
AcDbLine
 10
-220.0764411638
 20
-40.0
 30
0.0
 11
-220.0764411638
 21
-36.5743243243
 31
0.0
  0
LINE
  5
12F
330
1F
100
AcDbEntity
  8
0
  6
Continuous
 62
   254
370
    25
100
AcDbLine
 10
-220.0764411638
 20
-36.5743243243
 30
0.0
 11
-207.6203600828
 21
-36.5743243243
 31
0.0
  0
SPLINE
  5
130
330
1F
100
AcDbEntity
  8
0
  6
Continuous
 62
   254
370
    25
100
AcDbSpline
210
0.0
220
0.0
230
1.0
 70
     8
 71
     3
 72
    15
 73
    11
 74
     0
 42
0.00000001
 43
0.00000001
 40
0.0
 40
0.0
 40
0.0
 40
0.0
 40
0.1520305298305234
 40
0.2873702215624669
 40
0.4086299506037127
 40
0.5212606544989785
 40
0.6288421174853321
 40
0.7417076271987973
 40
0.8636971875016589
 40
1.0
 40
1.0
 40
1.0
 40
1.0
 10
-207.6203600827666
 20
-36.57432432432437
 30
0.0
 10
-207.5231332515101
 20
-36.57200932671186
 30
0.0
 10
-207.3393537430709
 20
-36.56763348603322
 30
0.0
 10
-207.0838175840777
 20
-36.51087552792154
 30
0.0
 10
-206.8603088154211
 20
-36.43092676173663
 30
0.0
 10
-206.6815198210751
 20
-36.30191437305255
 30
0.0
 10
-206.5399276831289
 20
-36.14087423331159
 30
0.0
 10
-206.4415807112636
 20
-35.94324810431002
 30
0.0
 10
-206.3845274866221
 20
-35.71147529178492
 30
0.0
 10
-206.3774652539986
 20
-35.54651188184015
 30
0.0
 10
-206.373738461145
 20
-35.45945945945951
 30
0.0
  0
SPLINE
  5
131
330
1F
100
AcDbEntity
  8
0
  6
Continuous
 62
   254
370
    25
100
AcDbSpline
210
0.0
220
0.0
230
1.0
 70
     8
 71
     3
 72
    15
 73
    11
 74
     0
 42
0.00000001
 43
0.00000001
 40
0.0
 40
0.0
 40
0.0
 40
0.0
 40
0.136258664915718
 40
0.2582087136040036
 40
0.3710376669227442
 40
0.479921748351121
 40
0.5915024019440976
 40
0.712722855758303
 40
0.8480187118560892
 40
1.0
 40
1.0
 40
1.0
 40
1.0
 10
-206.373738461145
 20
-35.45945945945951
 30
0.0
 10
-206.3774906643903
 20
-35.37243136616559
 30
0.0
 10
-206.3846010494345
 20
-35.20751405958011
 30
0.0
 10
-206.441330104798
 20
-34.97543087236387
 30
0.0
 10
-206.5411639283538
 20
-34.77808831047312
 30
0.0
 10
-206.679223111016
 20
-34.61329931387488
 30
0.0
 10
-206.8616970655908
 20
-34.48876869011281
 30
0.0
 10
-207.0835769525725
 20
-34.40773391898947
 30
0.0
 10
-207.339425711695
 20
-34.35137799048569
 30
0.0
 10
-207.5231581523051
 20
-34.34694161668803
 30
0.0
 10
-207.6203600827666
 20
-34.34459459459465
 30
0.0
  0
LINE
  5
132
330
1F
100
AcDbEntity
  8
0
  6
Continuous
 62
   254
370
    25
100
AcDbLine
 10
-207.6203600828
 20
-34.3445945946
 30
0.0
 11
-210.1102249476
 21
-34.3445945946
 31
0.0
  0
LINE
  5
133
330
1F
100
AcDbEntity
  8
0
  6
Continuous
 62
   254
370
    25
100
AcDbLine
 10
-210.1102249476
 20
-34.3445945946
 30
0.0
 11
-210.1102249476
 21
-30.9189189189
 31
0.0
  0
LINE
  5
134
330
1F
100
AcDbEntity
  8
0
  6
Continuous
 62
   254
370
    25
100
AcDbLine
 10
-210.1102249476
 20
-30.9189189189
 30
0.0
 11
-207.6203600828
 21
-30.9189189189
 31
0.0
  0
LINE
  5
135
330
1F
100
AcDbEntity
  8
0
  6
Continuous
 62
   254
370
    25
100
AcDbLine
 10
-233.2696844071
 20
-37.3040540541
 30
0.0
 11
-235.8473871098
 21
-41.8614864865
 31
0.0
  0
LINE
  5
136
330
1F
100
AcDbEntity
  8
0
  6
Continuous
 62
   254
370
    25
100
AcDbLine
 10
-235.8473871098
 20
-41.8614864865
 30
0.0
 11
-242.0771168395
 21
-30.8344594595
 31
0.0
  0
LINE
  5
137
330
1F
100
AcDbEntity
  8
0
  6
Continuous
 62
   254
370
    25
100
AcDbLine
 10
-242.0771168395
 20
-30.8344594595
 30
0.0
 11
-242.0771168395
 21
-40.0
 31
0.0
  0
LINE
  5
138
330
1F
100
AcDbEntity
  8
0
  6
Continuous
 62
   254
370
    25
100
AcDbLine
 10
-242.0771168395
 20
-40.0
 30
0.0
 11
-247.0602249476
 21
-40.0
 31
0.0
  0
LINE
  5
139
330
1F
100
AcDbEntity
  8
0
  6
Continuous
 62
   254
370
    25
100
AcDbLine
 10
-247.0602249476
 20
-40.0
 30
0.0
 11
-247.0602249476
 21
-24.0
 31
0.0
  0
LINE
  5
13A
330
1F
100
AcDbEntity
  8
0
  6
Continuous
 62
   254
370
    25
100
AcDbLine
 10
-247.0602249476
 20
-24.0
 30
0.0
 11
-240.5838735963
 21
-24.0
 31
0.0
  0
LINE
  5
13B
330
1F
100
AcDbEntity
  8
0
  6
Continuous
 62
   254
370
    25
100
AcDbLine
 10
-240.5838735963
 20
-24.0
 30
0.0
 11
-233.2696844071
 21
-37.3040540541
 31
0.0
  0
LINE
  5
13C
330
1F
100
AcDbEntity
  8
0
  6
Continuous
 62
   254
370
    25
100
AcDbLine
 10
-235.1142790017
 20
-31.222972973
 30
0.0
 11
-231.1142790017
 21
-24.0
 31
0.0
  0
LINE
  5
13D
330
1F
100
AcDbEntity
  8
0
  6
Continuous
 62
   254
370
    25
100
AcDbLine
 10
-231.1142790017
 20
-24.0
 30
0.0
 11
-224.6379276503
 21
-24.0
 31
0.0
  0
LINE
  5
13E
330
1F
100
AcDbEntity
  8
0
  6
Continuous
 62
   254
370
    25
100
AcDbLine
 10
-224.6379276503
 20
-24.0
 30
0.0
 11
-224.6379276503
 21
-40.0
 31
0.0
  0
LINE
  5
13F
330
1F
100
AcDbEntity
  8
0
  6
Continuous
 62
   254
370
    25
100
AcDbLine
 10
-224.6379276503
 20
-40.0
 30
0.0
 11
-229.6210357584
 21
-40.0
 31
0.0
  0
LINE
  5
140
330
1F
100
AcDbEntity
  8
0
  6
Continuous
 62
   254
370
    25
100
AcDbLine
 10
-229.6210357584
 20
-40.0
 30
0.0
 11
-229.6210357584
 21
-30.8344594595
 31
0.0
  0
LINE
  5
141
330
1F
100
AcDbEntity
  8
0
  6
Continuous
 62
   254
370
    25
100
AcDbLine
 10
-229.6210357584
 20
-30.8344594595
 30
0.0
 11
-232.509549272
 21
-35.9560810811
 31
0.0
  0
LINE
  5
142
330
1F
100
AcDbEntity
  8
0
  6
Continuous
 62
   254
370
    25
100
AcDbLine
 10
-232.509549272
 20
-35.9560810811
 30
0.0
 11
-235.1142790017
 21
-31.222972973
 31
0.0
  0
LINE
  5
143
330
1F
100
AcDbEntity
  8
0
  6
Continuous
 62
   254
370
    25
100
AcDbLine
 10
-270.3683330557
 20
-28.5405405405
 30
0.0
 11
-265.3852249476
 21
-28.5405405405
 31
0.0
  0
LINE
  5
144
330
1F
100
AcDbEntity
  8
0
  6
Continuous
 62
   254
370
    25
100
AcDbLine
 10
-265.3852249476
 20
-28.5405405405
 30
0.0
 11
-265.3852249476
 21
-40.0
 31
0.0
  0
LINE
  5
145
330
1F
100
AcDbEntity
  8
0
  6
Continuous
 62
   254
370
    25
100
AcDbLine
 10
-265.3852249476
 20
-40.0
 30
0.0
 11
-270.3683330557
 21
-40.0
 31
0.0
  0
LINE
  5
146
330
1F
100
AcDbEntity
  8
0
  6
Continuous
 62
   254
370
    25
100
AcDbLine
 10
-270.3683330557
 20
-40.0
 30
0.0
 11
-270.3683330557
 21
-28.5405405405
 31
0.0
  0
LINE
  5
147
330
1F
100
AcDbEntity
  8
0
  6
Continuous
 62
   254
370
    25
100
AcDbLine
 10
-256.665630353
 20
-35.4290540541
 30
0.0
 11
-256.665630353
 21
-28.5675675676
 31
0.0
  0
SPLINE
  5
148
330
1F
100
AcDbEntity
  8
0
  6
Continuous
 62
   254
370
    25
100
AcDbSpline
210
0.0
220
0.0
230
1.0
 70
     8
 71
     3
 72
    15
 73
    11
 74
     0
 42
0.00000001
 43
0.00000001
 40
0.0
 40
0.0
 40
0.0
 40
0.0
 40
0.1382294419960684
 40
0.262214736971525
 40
0.3753524747393756
 40
0.48436575175533
 40
0.5947112160087759
 40
0.7159029918718017
 40
0.8497011331439857
 40
1.0
 40
1.0
 40
1.0
 40
1.0
 10
-256.665630353037
 20
-28.56756756756762
 30
0.0
 10
-256.6694460148547
 20
-28.47832425862298
 30
0.0
 10
-256.6766841454979
 20
-28.30903390742521
 30
0.0
 10
-256.7324944402669
 20
-28.07101663873518
 30
0.0
 10
-256.8332190935064
 20
-27.8698370428
 30
0.0
 10
-256.969715100476
 20
-27.70071644957844
 30
0.0
 10
-257.1552355606113
 20
-27.57819880201119
 30
0.0
 10
-257.3736402843204
 20
-27.486619488362
 30
0.0
 10
-257.6316144930034
 20
-27.43316751010413
 30
0.0
 10
-257.8151527664959
 20
-27.42826781406863
 30
0.0
 10
-257.9122519746586
 20
-27.42567567567573
 30
0.0
  0
LINE
  5
149
330
1F
100
AcDbEntity
  8
0
  6
Continuous
 62
   254
370
    25
100
AcDbLine
 10
-257.9122519747
 20
-27.4256756757
 30
0.0
 11
-270.3683330557
 21
-27.4256756757
 31
0.0
  0
LINE
  5
14A
330
1F
100
AcDbEntity
  8
0
  6
Continuous
 62
   254
370
    25
100
AcDbLine
 10
-270.3683330557
 20
-27.4256756757
 30
0.0
 11
-272.861576299
 21
-24.0
 31
0.0
  0
LINE
  5
14B
330
1F
100
AcDbEntity
  8
0
  6
Continuous
 62
   254
370
    25
100
AcDbLine
 10
-272.861576299
 20
-24.0
 30
0.0
 11
-257.9122519747
 21
-24.0
 31
0.0
  0
SPLINE
  5
14C
330
1F
100
AcDbEntity
  8
0
  6
Continuous
 62
   254
370
    25
100
AcDbSpline
210
0.0
220
0.0
230
1.0
 70
     8
 71
     3
 72
    23
 73
    19
 74
     0
 42
0.00000001
 43
0.00000001
 40
0.0
 40
0.0
 40
0.0
 40
0.0
 40
0.0856006118474841
 40
0.1660417243106099
 40
0.241589404893392
 40
0.3121109741988108
 40
0.377950623778456
 40
0.4403849502451482
 40
0.4992522115593719
 40
0.5550299917884668
 40
0.6089810901390719
 40
0.6619306217770123
 40
0.7142153978260878
 40
0.7669265832308384
 40
0.8210956226761953
 40
0.8776859979569759
 40
0.9370055973654019
 40
1.0
 40
1.0
 40
1.0
 40
1.0
 10
-257.9122519746586
 20
-24.00000000000005
 30
0.0
 10
-257.6610259429869
 20
-24.00279615379257
 30
0.0
 10
-257.173716301266
 20
-24.00821992573914
 30
0.0
 10
-256.4663253866549
 20
-24.06266317163158
 30
0.0
 10
-255.8074304305534
 20
-24.15291413621691
 30
0.0
 10
-255.1975107227483
 20
-24.27664154905825
 30
0.0
 10
-254.6355022880993
 20
-24.43515706109289
 30
0.0
 10
-254.1208006407914
 20
-24.62908893310828
 30
0.0
 10
-253.6556196834127
 20
-24.86277457414473
 30
0.0
 10
-253.2384543949194
 20
-25.13071420494504
 30
0.0
 10
-252.8704725510191
 20
-25.43672558696495
 30
0.0
 10
-252.5506311862533
 20
-25.77905691100372
 30
0.0
 10
-252.2820526534583
 20
-26.15829814593438
 30
0.0
 10
-252.059405109517
 20
-26.57034808624741
 30
0.0
 10
-251.8910476222329
 20
-27.02103669852812
 30
0.0
 10
-251.7709381034521
 20
-27.50619235005365
 30
0.0
 10
-251.6940006175516
 20
-28.02683670291885
 30
0.0
 10
-251.6864242440198
 20
-28.38597950153627
 30
0.0
 10
-251.6825222449289
 20
-28.570945945946
 30
0.0
  0
LINE
  5
14D
330
1F
100
AcDbEntity
  8
0
  6
Continuous
 62
   254
370
    25
100
AcDbLine
 10
-251.6825222449
 20
-28.5709459459
 30
0.0
 11
-251.6825222449
 21
-35.4290540541
 31
0.0
  0
SPLINE
  5
14E
330
1F
100
AcDbEntity
  8
0
  6
Continuous
 62
   254
370
    25
100
AcDbSpline
210
0.0
220
0.0
230
1.0
 70
     8
 71
     3
 72
    23
 73
    19
 74
     0
 42
0.00000001
 43
0.00000001
 40
0.0
 40
0.0
 40
0.0
 40
0.0
 40
0.0629944026345978
 40
0.1223140020430238
 40
0.1789043773238048
 40
0.2330734167691616
 40
0.2857846021739123
 40
0.3380693782229878
 40
0.3910189098609285
 40
0.4449700082115333
 40
0.5007477884406282
 40
0.5596150497548518
 40
0.6220493762215441
 40
0.6878890258011893
 40
0.7584105951066081
 40
0.8339582756893901
 40
0.914399388152516
 40
1.0
 40
1.0
 40
1.0
 40
1.0
 10
-251.6825222449289
 20
-35.42905405405411
 30
0.0
 10
-251.6864242440198
 20
-35.61402049846383
 30
0.0
 10
-251.6940006175516
 20
-35.97316329708124
 30
0.0
 10
-251.770938103452
 20
-36.49380764994645
 30
0.0
 10
-251.8910476222329
 20
-36.97896330147197
 30
0.0
 10
-252.0594051095169
 20
-37.42965191375269
 30
0.0
 10
-252.2820526534583
 20
-37.84170185406571
 30
0.0
 10
-252.5506311862534
 20
-38.22094308899637
 30
0.0
 10
-252.8704725510191
 20
-38.56327441303515
 30
0.0
 10
-253.2384543949194
 20
-38.86928579505506
 30
0.0
 10
-253.6556196834127
 20
-39.13722542585537
 30
0.0
 10
-254.1208006407914
 20
-39.37091106689181
 30
0.0
 10
-254.6355022880992
 20
-39.56484293890721
 30
0.0
 10
-255.1975107227483
 20
-39.72335845094186
 30
0.0
 10
-255.8074304305535
 20
-39.84708586378318
 30
0.0
 10
-256.4663253866551
 20
-39.93733682836852
 30
0.0
 10
-257.1737163012659
 20
-39.99178007426097
 30
0.0
 10
-257.6610259429869
 20
-39.99720384620753
 30
0.0
 10
-257.9122519746586
 20
-40.00000000000005
 30
0.0
  0
LINE
  5
14F
330
1F
100
AcDbEntity
  8
0
  6
Continuous
 62
   254
370
    25
100
AcDbLine
 10
-257.9122519747
 20
-40.0
 30
0.0
 11
-264.138603326
 21
-40.0
 31
0.0
  0
LINE
  5
150
330
1F
100
AcDbEntity
  8
0
  6
Continuous
 62
   254
370
    25
100
AcDbLine
 10
-264.138603326
 20
-40.0
 30
0.0
 11
-264.138603326
 21
-36.5743243243
 31
0.0
  0
LINE
  5
151
330
1F
100
AcDbEntity
  8
0
  6
Continuous
 62
   254
370
    25
100
AcDbLine
 10
-264.138603326
 20
-36.5743243243
 30
0.0
 11
-257.9122519747
 21
-36.5743243243
 31
0.0
  0
SPLINE
  5
152
330
1F
100
AcDbEntity
  8
0
  6
Continuous
 62
   254
370
    25
100
AcDbSpline
210
0.0
220
0.0
230
1.0
 70
     8
 71
     3
 72
    15
 73
    11
 74
     0
 42
0.00000001
 43
0.00000001
 40
0.0
 40
0.0
 40
0.0
 40
0.0
 40
0.1501140779009184
 40
0.2837477174756734
 40
0.4047904908738342
 40
0.516001405401431
 40
0.6235477598331072
 40
0.7381076499384301
 40
0.861940507882359
 40
1.0
 40
1.0
 40
1.0
 40
1.0
 10
-257.9122519746587
 20
-36.57432432432438
 30
0.0
 10
-257.8151269575164
 20
-36.57176465201613
 30
0.0
 10
-257.6315398995321
 20
-36.56692632382527
 30
0.0
 10
-257.3738907454107
 20
-36.51306544722551
 30
0.0
 10
-257.1538209467379
 20
-36.42257564589427
 30
0.0
 10
-256.9721161173442
 20
-36.29554294051439
 30
0.0
 10
-256.8309294144564
 20
-36.12960121816693
 30
0.0
 10
-256.7335936791916
 20
-35.9260567433351
 30
0.0
 10
-256.6764303379846
 20
-35.68774567504548
 30
0.0
 10
-256.6693584029658
 20
-35.5183518895499
 30
0.0
 10
-256.665630353037
 20
-35.42905405405411
 30
0.0
  0
MTEXT
  5
154
330
1F
100
AcDbEntity
  8
0
  6
Continuous
 62
   141
100
AcDbMText
 10
-371.9494141368
 20
-51.0195663917
 30
0.0
 40
4.83362
 41
0.0
 71
     1
 72
     1
  1
SOLIDWORKS Educational Product.
  7
SLDTEXTSTYLE0
 73
     1
 44
1.0
  0
MTEXT
  5
155
330
1F
100
AcDbEntity
  8
0
  6
Continuous
 62
   141
100
AcDbMText
 10
-371.9494141368
 20
-58.2699963917
 30
0.0
 40
4.83362
 41
0.0
 71
     1
 72
     1
  1
For Instructional Use Only.
  7
SLDTEXTSTYLE0
 73
     1
 44
1.0
  0
ENDSEC
  0
SECTION
  2
OBJECTS
  0
DICTIONARY
  5
C
330
0
100
AcDbDictionary
281
     1
  3
ACAD_GROUP
350
D
  3
ACAD_LAYOUT
350
1A
  3
ACAD_MLINESTYLE
350
17
  3
ACAD_PLOTSETTINGS
350
19
  3
ACAD_PLOTSTYLENAME
350
E
  3
ACAD_SCALELIST
350
47
  3
DWGPROPS
350
156
  0
DICTIONARY
  5
D
102
{ACAD_REACTORS
330
C
102
}
330
C
100
AcDbDictionary
281
     1
  0
DICTIONARY
  5
1A
102
{ACAD_REACTORS
330
C
102
}
330
C
100
AcDbDictionary
281
     1
  3
Layout1
350
1E
  3
Layout2
350
26
  3
Model
350
22
  0
DICTIONARY
  5
17
102
{ACAD_REACTORS
330
C
102
}
330
C
100
AcDbDictionary
281
     1
  3
Standard
350
18
  0
DICTIONARY
  5
19
102
{ACAD_REACTORS
330
C
102
}
330
C
100
AcDbDictionary
281
     1
  0
ACDBDICTIONARYWDFLT
  5
E
102
{ACAD_REACTORS
330
C
102
}
330
C
100
AcDbDictionary
281
     1
  3
Normal
350
F
100
AcDbDictionaryWithDefault
340
F
  0
DICTIONARY
  5
47
102
{ACAD_REACTORS
330
C
102
}
330
C
100
AcDbDictionary
281
     1
  3
A0
350
48
  3
A1
350
49
  3
A2
350
4A
  3
A3
350
4B
  3
A4
350
4C
  3
A5
350
4D
  3
A6
350
4E
  3
A7
350
4F
  3
A8
350
50
  3
A9
350
51
  3
B0
350
52
  3
B1
350
53
  3
B2
350
54
  3
B3
350
55
  3
B4
350
56
  3
B5
350
57
  3
B6
350
58
  0
XRECORD
  5
156
102
{ACAD_REACTORS
330
C
102
}
330
C
100
AcDbXrecord
280
     1
  1
DWGPROPS COOKIE
  2

  3

  4

  6

  7

  8
John
  9

300
=
301
=
302
=
303
=
304
=
305
=
306
=
307
=
308
=
309
=
 40
0.0
 41
2460596.180103252
 42
2460596.180140903
  1

 90
        0
  0
LAYOUT
  5
1E
102
{ACAD_REACTORS
330
1A
102
}
330
1A
100
AcDbPlotSettings
  1

  2
none_device
  4

  6

 40
0.0
 41
0.0
 42
0.0
 43
0.0
 44
0.0
 45
0.0
 46
0.0
 47
0.0
 48
0.0
 49
0.0
140
0.0
141
0.0
142
1.0
143
1.0
 70
   688
 72
     1
 73
     0
 74
     5
  7

 75
    16
147
1.0
148
0.0
149
0.0
100
AcDbLayout
  1
Layout1
 70
     1
 71
     1
 10
0.0
 20
0.0
 11
420.0
 21
297.0
 12
0.0
 22
0.0
 32
0.0
 14
1.0000000000E+20
 24
1.0000000000E+20
 34
1.0000000000E+20
 15
-1.0000000000E+20
 25
-1.0000000000E+20
 35
-1.0000000000E+20
146
0.0
 13
0.0
 23
0.0
 33
0.0
 16
1.0
 26
0.0
 36
0.0
 17
0.0
 27
1.0
 37
0.0
 76
     0
330
1B
  0
LAYOUT
  5
26
102
{ACAD_REACTORS
330
1A
102
}
330
1A
100
AcDbPlotSettings
  1

  2
none_device
  4

  6

 40
0.0
 41
0.0
 42
0.0
 43
0.0
 44
0.0
 45
0.0
 46
0.0
 47
0.0
 48
0.0
 49
0.0
140
0.0
141
0.0
142
1.0
143
1.0
 70
   688
 72
     1
 73
     0
 74
     5
  7

 75
    16
147
1.0
148
0.0
149
0.0
100
AcDbLayout
  1
Layout2
 70
     1
 71
     2
 10
0.0
 20
0.0
 11
0.0
 21
0.0
 12
0.0
 22
0.0
 32
0.0
 14
0.0
 24
0.0
 34
0.0
 15
0.0
 25
0.0
 35
0.0
146
0.0
 13
0.0
 23
0.0
 33
0.0
 16
1.0
 26
0.0
 36
0.0
 17
0.0
 27
1.0
 37
0.0
 76
     0
330
23
  0
LAYOUT
  5
22
102
{ACAD_REACTORS
330
1A
102
}
330
1A
100
AcDbPlotSettings
  1

  2
none_device
  4
ANSI_A_(11.00_x_8.50_Inches)
  6

 40
6.35
 41
19.05
 42
6.35000508
 43
19.05000254
 44
279.4
 45
215.9
 46
224.8642524926
 47
104.3468072406
 48
0.0
 49
0.0
140
0.0
141
0.0
142
0.0243256827
143
1.0
 70
  1696
 72
     0
 73
     0
 74
     0
  7

 75
     0
147
0.0179189148
148
-1300.4909072572
149
0.0
100
AcDbLayout
  1
Model
 70
     1
 71
     0
 10
0.0
 20
0.0
 11
420.0
 21
297.0
 12
0.0
 22
0.0
 32
0.0
 14
-371.9494141368
 24
-50.0
 34
0.0
 15
75.7255858632
 25
0.0
 35
0.0
146
0.0
 13
0.0
 23
0.0
 33
0.0
 16
1.0
 26
0.0
 36
0.0
 17
0.0
 27
1.0
 37
0.0
 76
     0
330
1F
331
29
  0
MLINESTYLE
  5
18
102
{ACAD_REACTORS
330
17
102
}
330
17
100
AcDbMlineStyle
  2
Standard
 70
     0
  3

 62
   256
 51
90.0
 52
90.0
 71
     2
 49
0.5
 62
   256
  6
BYLAYER
 49
-0.5
 62
   256
  6
BYLAYER
  0
ACDBPLACEHOLDER
  5
F
102
{ACAD_REACTORS
330
E
102
}
330
E
  0
SCALE
  5
48
102
{ACAD_REACTORS
330
47
102
}
330
47
100
AcDbScale
 70
     0
300
1:1
140
1.0
141
1.0
290
     1
  0
SCALE
  5
49
102
{ACAD_REACTORS
330
47
102
}
330
47
100
AcDbScale
 70
     0
300
1:2
140
1.0
141
2.0
290
     0
  0
SCALE
  5
4A
102
{ACAD_REACTORS
330
47
102
}
330
47
100
AcDbScale
 70
     0
300
1:4
140
1.0
141
4.0
290
     0
  0
SCALE
  5
4B
102
{ACAD_REACTORS
330
47
102
}
330
47
100
AcDbScale
 70
     0
300
1:5
140
1.0
141
5.0
290
     0
  0
SCALE
  5
4C
102
{ACAD_REACTORS
330
47
102
}
330
47
100
AcDbScale
 70
     0
300
1:8
140
1.0
141
8.0
290
     0
  0
SCALE
  5
4D
102
{ACAD_REACTORS
330
47
102
}
330
47
100
AcDbScale
 70
     0
300
1:10
140
1.0
141
10.0
290
     0
  0
SCALE
  5
4E
102
{ACAD_REACTORS
330
47
102
}
330
47
100
AcDbScale
 70
     0
300
1:16
140
1.0
141
16.0
290
     0
  0
SCALE
  5
4F
102
{ACAD_REACTORS
330
47
102
}
330
47
100
AcDbScale
 70
     0
300
1:20
140
1.0
141
20.0
290
     0
  0
SCALE
  5
50
102
{ACAD_REACTORS
330
47
102
}
330
47
100
AcDbScale
 70
     0
300
1:30
140
1.0
141
30.0
290
     0
  0
SCALE
  5
51
102
{ACAD_REACTORS
330
47
102
}
330
47
100
AcDbScale
 70
     0
300
1:40
140
1.0
141
40.0
290
     0
  0
SCALE
  5
52
102
{ACAD_REACTORS
330
47
102
}
330
47
100
AcDbScale
 70
     0
300
1:50
140
1.0
141
50.0
290
     0
  0
SCALE
  5
53
102
{ACAD_REACTORS
330
47
102
}
330
47
100
AcDbScale
 70
     0
300
1:100
140
1.0
141
100.0
290
     0
  0
SCALE
  5
54
102
{ACAD_REACTORS
330
47
102
}
330
47
100
AcDbScale
 70
     0
300
2:1
140
2.0
141
1.0
290
     0
  0
SCALE
  5
55
102
{ACAD_REACTORS
330
47
102
}
330
47
100
AcDbScale
 70
     0
300
4:1
140
4.0
141
1.0
290
     0
  0
SCALE
  5
56
102
{ACAD_REACTORS
330
47
102
}
330
47
100
AcDbScale
 70
     0
300
8:1
140
8.0
141
1.0
290
     0
  0
SCALE
  5
57
102
{ACAD_REACTORS
330
47
102
}
330
47
100
AcDbScale
 70
     0
300
10:1
140
10.0
141
1.0
290
     0
  0
SCALE
  5
58
102
{ACAD_REACTORS
330
47
102
}
330
47
100
AcDbScale
 70
     0
300
100:1
140
100.0
141
1.0
290
     0
  0
ENDSEC
  0
EOF
