  0
SECTION
  2
HEADER
  9
$ACADVER
  1
AC1014
  9
$HANDSEED
  5
FFFF
  9
$MEASUREMENT
 70
     1
  0
ENDSEC
  0
SECTION
  2
TABLES
  0
TABLE
  2
VPORT
  5
8
330
0
100
AcDbSymbolTable
 70
     4
  0
VPORT
  5
2E
330
8
100
AcDbSymbolTableRecord
100
AcDbViewportTableRecord
  2
*ACTIVE
 70
     0
 10
0.0
 20
0.0
 11
1.0
 21
1.0
 12
210.0
 22
148.5
 13
0.0
 23
0.0
 14
10.0
 24
10.0
 15
10.0
 25
10.0
 16
0.0
 26
0.0
 36
1.0
 17
0.0
 27
0.0
 37
0.0
 40
341.0
 41
1.24
 42
50.0
 43
0.0
 44
0.0
 50
0.0
 51
0.0
 71
     0
 72
   100
 73
     1
 74
     3
 75
     0
 76
     0
 77
     0
 78
     0
  0
ENDTAB
  0
TABLE
  2
LTYPE
  5
5
330
0
100
AcDbSymbolTable
 70
     1
  0
LTYPE
  5
14
330
5
100
AcDbSymbolTableRecord
100
AcDbLinetypeTableRecord
  2
BYBLOCK
 70
     0
  3

 72
    65
 73
     0
 40
0.0
  0
LTYPE
  5
15
330
5
100
AcDbSymbolTableRecord
100
AcDbLinetypeTableRecord
  2
BYLAYER
 70
     0
  3

 72
    65
 73
     0
 40
0.0
  0
LTYPE
  5
16
330
5
100
AcDbSymbolTableRecord
100
AcDbLinetypeTableRecord
  2
CONTINUOUS
 70
     0
  3
Solid line
 72
    65
 73
     0
 40
0.0
  0
ENDTAB
  0
TABLE
  2
LAYER
  5
2
100
AcDbSymbolTable
 70
2
  0
LAYER
  5
50
100
AcDbSymbolTableRecord
100
AcDbLayerTableRecord
  2
0
 70
0
  6
CONTINUOUS
  0
LAYER
  5
51
100
AcDbSymbolTableRecord
100
AcDbLayerTableRecord
  2
Left
 70
0
  6
CONTINUOUS
  0
ENDTAB
  0
TABLE
  2
STYLE
  5
3
330
0
100
AcDbSymbolTable
 70
     1
  0
STYLE
  5
11
330
3
100
AcDbSymbolTableRecord
100
AcDbTextStyleTableRecord
  2
STANDARD
 70
     0
 40
0.0
 41
1.0
 50
0.0
 71
     0
 42
2.5
  3
txt
  4

  0
ENDTAB
  0
TABLE
  2
VIEW
  5
6
330
0
100
AcDbSymbolTable
 70
     0
  0
ENDTAB
  0
TABLE
  2
UCS
  5
7
330
0
100
AcDbSymbolTable
 70
     0
  0
ENDTAB
  0
TABLE
  2
APPID
  5
9
330
0
100
AcDbSymbolTable
 70
     2
  0
APPID
  5
12
330
9
100
AcDbSymbolTableRecord
100
AcDbRegAppTableRecord
  2
ACAD
 70
     0
  0
ENDTAB
  0
TABLE
  2
DIMSTYLE
  5
A
330
0
100
AcDbSymbolTable
 70
     1
  0
DIMSTYLE
105
27
330
A
100
AcDbSymbolTableRecord
100
AcDbDimStyleTableRecord
  2
ISO-25
 70
     0
  3

  4

  5

  6

  7

 40
1.0
 41
2.5
 42
0.625
 43
3.75
 44
1.25
 45
0.0
 46
0.0
 47
0.0
 48
0.0
140
2.5
141
2.5
142
0.0
143
0.03937007874016
144
1.0
145
0.0
146
1.0
147
0.625
 71
     0
 72
     0
 73
     0
 74
     0
 75
     0
 76
     0
 77
     1
 78
     8
170
     0
171
     3
172
     1
173
     0
174
     0
175
     0
176
     0
177
     0
178
     0
270
     2
271
     2
272
     2
273
     2
274
     3
340
11
275
     0
280
     0
281
     0
282
     0
283
     0
284
     8
285
     0
286
     0
287
     3
288
     0
  0
ENDTAB
  0
TABLE
  2
BLOCK_RECORD
  5
1
330
0
100
AcDbSymbolTable
 70
     1
  0
BLOCK_RECORD
  5
1F
330
1
100
AcDbSymbolTableRecord
100
AcDbBlockTableRecord
  2
*MODEL_SPACE
  0
BLOCK_RECORD
  5
1B
330
1
100
AcDbSymbolTableRecord
100
AcDbBlockTableRecord
  2
*PAPER_SPACE
  0
ENDTAB
  0
ENDSEC
  0
SECTION
  2
BLOCKS
  0
BLOCK
  5
20
330
1F
100
AcDbEntity
  8
0
100
AcDbBlockBegin
  2
*MODEL_SPACE
 70
     0
 10
0.0
 20
0.0
 30
0.0
  3
*MODEL_SPACE
  1

  0
ENDBLK
  5
21
330
1F
100
AcDbEntity
  8
0
100
AcDbBlockEnd
  0
BLOCK
  5
1C
330
1B
100
AcDbEntity
 67
     1
  8
0
100
AcDbBlockBegin
  2
*PAPER_SPACE
  1

  0
ENDBLK
  5
1D
330
1B
100
AcDbEntity
 67
     1
  8
0
100
AcDbBlockEnd
  0
ENDSEC
  0
SECTION
  2
ENTITIES
  0
SPLINE
  5
100
100
AcDbEntity
  8
Left
 62
7
100
AcDbSpline
 70
8
 71
3
 72
8
 73
4
 74
0
 40
0
 40
0
 40
0
 40
0
 40
1
 40
1
 40
1
 40
1
 10
501.650355
 20
39.236014
 30
0.0
 10
502.331287
 20
39.703114
 30
0.0
 10
503.012227
 20
40.170139
 30
0.0
 10
503.693160
 20
40.637164
 30
0.0
  0
SPLINE
  5
101
100
AcDbEntity
  8
Left
 62
7
100
AcDbSpline
 70
8
 71
3
 72
8
 73
4
 74
0
 40
0
 40
0
 40
0
 40
0
 40
1
 40
1
 40
1
 40
1
 10
502.493850
 20
41.565139
 30
0.0
 10
502.212682
 20
40.788739
 30
0.0
 10
501.931523
 20
40.012414
 30
0.0
 10
501.650355
 20
39.236014
 30
0.0
  0
SPLINE
  5
102
100
AcDbEntity
  8
Left
 62
7
100
AcDbSpline
 70
8
 71
3
 72
8
 73
4
 74
0
 40
0
 40
0
 40
0
 40
0
 40
1
 40
1
 40
1
 40
1
 10
107.502637
 20
269.703829
 30
0.0
 10
107.786715
 20
270.494329
 30
0.0
 10
108.070793
 20
271.284904
 30
0.0
 10
108.354878
 20
272.075404
 30
0.0
  0
SPLINE
  5
103
100
AcDbEntity
  8
Left
 62
7
100
AcDbSpline
 70
8
 71
3
 72
8
 73
4
 74
0
 40
0
 40
0
 40
0
 40
0
 40
1
 40
1
 40
1
 40
1
 10
116.411587
 20
152.868829
 30
0.0
 10
114.927143
 20
170.130979
 30
0.0
 10
117.221445
 20
175.680979
 30
0.0
 10
128.920800
 20
188.459779
 30
0.0
  0
SPLINE
  5
104
100
AcDbEntity
  8
Left
 62
7
100
AcDbSpline
 70
8
 71
3
 72
8
 73
4
 74
0
 40
0
 40
0
 40
0
 40
0
 40
1
 40
1
 40
1
 40
1
 10
131.717738
 20
149.611504
 30
0.0
 10
124.688648
 20
149.400004
 30
0.0
 10
122.797448
 20
149.927929
 30
0.0
 10
116.411588
 20
152.868829
 30
0.0
  0
SPLINE
  5
105
100
AcDbEntity
  8
Left
 62
7
100
AcDbSpline
 70
8
 71
3
 72
8
 73
4
 74
0
 40
0
 40
0
 40
0
 40
0
 40
1
 40
1
 40
1
 40
1
 10
130.961805
 20
131.177329
 30
0.0
 10
131.592608
 20
139.354954
 30
0.0
 10
131.671913
 20
141.409879
 30
0.0
 10
131.717738
 20
149.611504
 30
0.0
  0
SPLINE
  5
106
100
AcDbEntity
  8
Left
 62
7
100
AcDbSpline
 70
8
 71
3
 72
8
 73
4
 74
0
 40
0
 40
0
 40
0
 40
0
 40
1
 40
1
 40
1
 40
1
 10
129.306128
 20
131.228404
 30
0.0
 10
129.858023
 20
131.211154
 30
0.0
 10
130.409918
 20
131.194654
 30
0.0
 10
130.961805
 20
131.177404
 30
0.0
  0
SPLINE
  5
107
100
AcDbEntity
  8
Left
 62
7
100
AcDbSpline
 70
8
 71
3
 72
8
 73
4
 74
0
 40
0
 40
0
 40
0
 40
0
 40
1
 40
1
 40
1
 40
1
 10
129.440828
 20
135.555604
 30
0.0
 10
129.395903
 20
134.113204
 30
0.0
 10
129.351030
 20
132.670804
 30
0.0
 10
129.306128
 20
131.228404
 30
0.0
  0
SPLINE
  5
108
100
AcDbEntity
  8
Left
 62
7
100
AcDbSpline
 70
8
 71
3
 72
8
 73
4
 74
0
 40
0
 40
0
 40
0
 40
0
 40
1
 40
1
 40
1
 40
1
 10
113.023853
 20
136.061404
 30
0.0
 10
118.496175
 20
135.892804
 30
0.0
 10
123.968505
 20
135.724204
 30
0.0
 10
129.440828
 20
135.555604
 30
0.0
  0
SPLINE
  5
109
100
AcDbEntity
  8
Left
 62
7
100
AcDbSpline
 70
8
 71
3
 72
8
 73
4
 74
0
 40
0
 40
0
 40
0
 40
0
 40
1
 40
1
 40
1
 40
1
 10
112.773675
 20
128.018254
 30
0.0
 10
112.857067
 20
130.699279
 30
0.0
 10
112.940460
 20
133.380304
 30
0.0
 10
113.023853
 20
136.061404
 30
0.0
  0
SPLINE
  5
10a
100
AcDbEntity
  8
Left
 62
7
100
AcDbSpline
 70
8
 71
3
 72
8
 73
4
 74
0
 40
0
 40
0
 40
0
 40
0
 40
1
 40
1
 40
1
 40
1
 10
94.994363
 20
128.566054
 30
0.0
 10
100.920795
 20
128.383429
 30
0.0
 10
106.847235
 20
128.200804
 30
0.0
 10
112.773675
 20
128.018254
 30
0.0
  0
SPLINE
  5
10b
100
AcDbEntity
  8
Left
 62
7
100
AcDbSpline
 70
8
 71
3
 72
8
 73
4
 74
0
 40
0
 40
0
 40
0
 40
0
 40
1
 40
1
 40
1
 40
1
 10
95.244405
 20
136.609204
 30
0.0
 10
95.161057
 20
133.928179
 30
0.0
 10
95.077710
 20
131.247079
 30
0.0
 10
94.994363
 20
128.566054
 30
0.0
  0
SPLINE
  5
10c
100
AcDbEntity
  8
Left
 62
7
100
AcDbSpline
 70
8
 71
3
 72
8
 73
4
 74
0
 40
0
 40
0
 40
0
 40
0
 40
1
 40
1
 40
1
 40
1
 10
78.827415
 20
137.115004
 30
0.0
 10
84.299745
 20
136.946404
 30
0.0
 10
89.772075
 20
136.777804
 30
0.0
 10
95.244405
 20
136.609204
 30
0.0
  0
SPLINE
  5
10d
100
AcDbEntity
  8
Left
 62
7
100
AcDbSpline
 70
8
 71
3
 72
8
 73
4
 74
0
 40
0
 40
0
 40
0
 40
0
 40
1
 40
1
 40
1
 40
1
 10
78.693022
 20
132.787804
 30
0.0
 10
78.737797
 20
134.230204
 30
0.0
 10
78.782618
 20
135.672604
 30
0.0
 10
78.827415
 20
137.115004
 30
0.0
  0
SPLINE
  5
10e
100
AcDbEntity
  8
Left
 62
7
100
AcDbSpline
 70
8
 71
3
 72
8
 73
4
 74
0
 40
0
 40
0
 40
0
 40
0
 40
1
 40
1
 40
1
 40
1
 10
77.037338
 20
132.838804
 30
0.0
 10
77.589233
 20
132.821554
 30
0.0
 10
78.141128
 20
132.805054
 30
0.0
 10
78.693023
 20
132.787804
 30
0.0
  0
SPLINE
  5
10f
100
AcDbEntity
  8
Left
 62
7
100
AcDbSpline
 70
8
 71
3
 72
8
 73
4
 74
0
 40
0
 40
0
 40
0
 40
0
 40
1
 40
1
 40
1
 40
1
 10
77.428148
 20
151.284229
 30
0.0
 10
76.964325
 20
143.095429
 30
0.0
 10
76.915808
 20
141.039604
 30
0.0
 10
77.037338
 20
132.838804
 30
0.0
  0
SPLINE
  5
110
100
AcDbEntity
  8
Left
 62
7
100
AcDbSpline
 70
8
 71
3
 72
8
 73
4
 74
0
 40
0
 40
0
 40
0
 40
0
 40
1
 40
1
 40
1
 40
1
 10
92.907375
 20
153.593029
 30
0.0
 10
86.351025
 20
151.050904
 30
0.0
 10
84.430643
 20
150.640354
 30
0.0
 10
77.428148
 20
151.284229
 30
0.0
  0
SPLINE
  5
111
100
AcDbEntity
  8
Left
 62
7
100
AcDbSpline
 70
8
 71
3
 72
8
 73
4
 74
0
 40
0
 40
0
 40
0
 40
0
 40
1
 40
1
 40
1
 40
1
 10
82.633358
 20
189.885904
 30
0.0
 10
93.516435
 20
176.411404
 30
0.0
 10
95.461478
 20
170.730754
 30
0.0
 10
92.907375
 20
153.593029
 30
0.0
  0
SPLINE
  5
112
100
AcDbEntity
  8
Left
 62
7
100
AcDbSpline
 70
8
 71
3
 72
8
 73
4
 74
0
 40
0
 40
0
 40
0
 40
0
 40
1
 40
1
 40
1
 40
1
 10
107.503838
 20
269.703379
 30
0.0
 10
95.221958
 20
235.424779
 30
0.0
 10
90.235823
 20
226.294429
 30
0.0
 10
82.633358
 20
189.885904
 30
0.0
  0
SPLINE
  5
113
100
AcDbEntity
  8
Left
 62
7
100
AcDbSpline
 70
8
 71
3
 72
8
 73
4
 74
0
 40
0
 40
0
 40
0
 40
0
 40
1
 40
1
 40
1
 40
1
 10
108.354878
 20
272.075404
 30
0.0
 10
108.071198
 20
271.284754
 30
0.0
 10
107.787518
 20
270.494029
 30
0.0
 10
107.503838
 20
269.703379
 30
0.0
  0
SPLINE
  5
114
100
AcDbEntity
  8
Left
 62
7
100
AcDbSpline
 70
8
 71
3
 72
8
 73
4
 74
0
 40
0
 40
0
 40
0
 40
0
 40
1
 40
1
 40
1
 40
1
 10
109.056915
 20
269.655529
 30
0.0
 10
108.822900
 20
270.462154
 30
0.0
 10
108.588885
 20
271.268779
 30
0.0
 10
108.354878
 20
272.075404
 30
0.0
  0
SPLINE
  5
115
100
AcDbEntity
  8
Left
 62
7
100
AcDbSpline
 70
8
 71
3
 72
8
 73
4
 74
0
 40
0
 40
0
 40
0
 40
0
 40
1
 40
1
 40
1
 40
1
 10
128.920800
 20
188.459779
 30
0.0
 10
123.595058
 20
225.266629
 30
0.0
 10
119.185613
 20
234.686254
 30
0.0
 10
109.056915
 20
269.655529
 30
0.0
  0
SPLINE
  5
116
100
AcDbEntity
  8
Left
 62
7
100
AcDbSpline
 70
8
 71
3
 72
8
 73
4
 74
0
 40
0
 40
0
 40
0
 40
0
 40
1
 40
1
 40
1
 40
1
 10
108.354878
 20
272.075404
 30
0.0
 10
108.589298
 20
271.268929
 30
0.0
 10
108.823725
 20
270.462379
 30
0.0
 10
109.058145
 20
269.655904
 30
0.0
  0
SPLINE
  5
117
100
AcDbEntity
  8
Left
 62
7
100
AcDbSpline
 70
8
 71
3
 72
8
 73
4
 74
0
 40
0
 40
0
 40
0
 40
0
 40
1
 40
1
 40
1
 40
1
 10
98.591648
 20
11.384614
 30
0.0
 10
98.817615
 20
10.594114
 30
0.0
 10
99.043988
 20
9.803689
 30
0.0
 10
99.270750
 20
9.013414
 30
0.0
  0
SPLINE
  5
118
100
AcDbEntity
  8
Left
 62
7
100
AcDbSpline
 70
8
 71
3
 72
8
 73
4
 74
0
 40
0
 40
0
 40
0
 40
0
 40
1
 40
1
 40
1
 40
1
 10
76.346910
 20
106.391479
 30
0.0
 10
77.829682
 20
84.709639
 30
0.0
 10
81.184718
 20
73.152889
 30
0.0
 10
85.204380
 20
58.403164
 30
0.0
  0
SPLINE
  5
119
100
AcDbEntity
  8
Left
 62
7
100
AcDbSpline
 70
8
 71
3
 72
8
 73
4
 74
0
 40
0
 40
0
 40
0
 40
0
 40
1
 40
1
 40
1
 40
1
 10
85.204380
 20
58.403164
 30
0.0
 10
89.224042
 20
43.653514
 30
0.0
 10
93.331755
 20
29.814139
 30
0.0
 10
98.591648
 20
11.384614
 30
0.0
  0
SPLINE
  5
11a
100
AcDbEntity
  8
Left
 62
7
100
AcDbSpline
 70
8
 71
3
 72
8
 73
4
 74
0
 40
0
 40
0
 40
0
 40
0
 40
1
 40
1
 40
1
 40
1
 10
90.681248
 20
104.075104
 30
0.0
 10
85.632698
 20
104.894179
 30
0.0
 10
81.658605
 20
105.536329
 30
0.0
 10
76.346910
 20
106.391479
 30
0.0
  0
SPLINE
  5
11b
100
AcDbEntity
  8
Left
 62
7
100
AcDbSpline
 70
8
 71
3
 72
8
 73
4
 74
0
 40
0
 40
0
 40
0
 40
0
 40
1
 40
1
 40
1
 40
1
 10
90.421808
 20
96.303154
 30
0.0
 10
90.508283
 20
98.893804
 30
0.0
 10
90.594765
 20
101.484454
 30
0.0
 10
90.681248
 20
104.075104
 30
0.0
  0
SPLINE
  5
11c
100
AcDbEntity
  8
Left
 62
7
100
AcDbSpline
 70
8
 71
3
 72
8
 73
4
 74
0
 40
0
 40
0
 40
0
 40
0
 40
1
 40
1
 40
1
 40
1
 10
102.118943
 20
94.297054
 30
0.0
 10
97.907108
 20
95.024104
 30
0.0
 10
94.710128
 20
95.572279
 30
0.0
 10
90.421808
 20
96.303154
 30
0.0
  0
SPLINE
  5
11d
100
AcDbEntity
  8
Left
 62
7
100
AcDbSpline
 70
8
 71
3
 72
8
 73
4
 74
0
 40
0
 40
0
 40
0
 40
0
 40
1
 40
1
 40
1
 40
1
 10
113.925900
 20
95.579479
 30
0.0
 10
109.598467
 20
95.114029
 30
0.0
 10
106.370685
 20
94.763554
 30
0.0
 10
102.118943
 20
94.297054
 30
0.0
  0
SPLINE
  5
11e
100
AcDbEntity
  8
Left
 62
7
100
AcDbSpline
 70
8
 71
3
 72
8
 73
4
 74
0
 40
0
 40
0
 40
0
 40
0
 40
1
 40
1
 40
1
 40
1
 10
114.185580
 20
103.351429
 30
0.0
 10
114.099015
 20
100.760779
 30
0.0
 10
114.012458
 20
98.170129
 30
0.0
 10
113.925900
 20
95.579479
 30
0.0
  0
SPLINE
  5
11f
100
AcDbEntity
  8
Left
 62
7
100
AcDbSpline
 70
8
 71
3
 72
8
 73
4
 74
0
 40
0
 40
0
 40
0
 40
0
 40
1
 40
1
 40
1
 40
1
 10
128.645025
 20
104.781304
 30
0.0
 10
123.301020
 20
104.256004
 30
0.0
 10
119.304338
 20
103.860829
 30
0.0
 10
114.185580
 20
103.351429
 30
0.0
  0
SPLINE
  5
120
100
AcDbEntity
  8
Left
 62
7
100
AcDbSpline
 70
8
 71
3
 72
8
 73
4
 74
0
 40
0
 40
0
 40
0
 40
0
 40
1
 40
1
 40
1
 40
1
 10
100.106670
 20
11.337964
 30
0.0
 10
106.584878
 20
29.404414
 30
0.0
 10
111.008325
 20
41.226589
 30
0.0
 10
116.603745
 20
57.436414
 30
0.0
  0
SPLINE
  5
121
100
AcDbEntity
  8
Left
 62
7
100
AcDbSpline
 70
8
 71
3
 72
8
 73
4
 74
0
 40
0
 40
0
 40
0
 40
0
 40
1
 40
1
 40
1
 40
1
 10
116.603745
 20
57.436414
 30
0.0
 10
122.199165
 20
73.646314
 30
0.0
 10
125.718615
 20
83.235214
 30
0.0
 10
128.645025
 20
104.781304
 30
0.0
  0
SPLINE
  5
122
100
AcDbEntity
  8
Left
 62
7
100
AcDbSpline
 70
8
 71
3
 72
8
 73
4
 74
0
 40
0
 40
0
 40
0
 40
0
 40
1
 40
1
 40
1
 40
1
 10
99.270750
 20
9.013414
 30
0.0
 10
99.549780
 20
9.788089
 30
0.0
 10
99.828420
 20
10.562989
 30
0.0
 10
100.106670
 20
11.337964
 30
0.0
  0
SPLINE
  5
123
100
AcDbEntity
  8
Left
 62
7
100
AcDbSpline
 70
8
 71
3
 72
8
 73
4
 74
0
 40
0
 40
0
 40
0
 40
0
 40
1
 40
1
 40
1
 40
1
 10
175.850437
 20
259.788371
 30
0.0
 10
176.120715
 20
260.583581
 30
0.0
 10
176.390985
 20
261.378791
 30
0.0
 10
176.661255
 20
262.174001
 30
0.0
  0
SPLINE
  5
124
100
AcDbEntity
  8
Left
 62
7
100
AcDbSpline
 70
8
 71
3
 72
8
 73
4
 74
0
 40
0
 40
0
 40
0
 40
0
 40
1
 40
1
 40
1
 40
1
 10
172.488998
 20
16.488064
 30
0.0
 10
172.730498
 20
15.699439
 30
0.0
 10
172.972050
 20
14.910889
 30
0.0
 10
173.213550
 20
14.122264
 30
0.0
  0
SPLINE
  5
125
100
AcDbEntity
  8
Left
 62
7
100
AcDbSpline
 70
8
 71
3
 72
8
 73
4
 74
0
 40
0
 40
0
 40
0
 40
0
 40
1
 40
1
 40
1
 40
1
 10
148.418693
 20
111.371029
 30
0.0
 10
152.286225
 20
67.934839
 30
0.0
 10
159.881708
 20
57.813739
 30
0.0
 10
172.488982
 20
16.488064
 30
0.0
  0
SPLINE
  5
126
100
AcDbEntity
  8
Left
 62
7
100
AcDbSpline
 70
8
 71
3
 72
8
 73
4
 74
0
 40
0
 40
0
 40
0
 40
0
 40
1
 40
1
 40
1
 40
1
 10
149.661240
 20
111.489274
 30
0.0
 10
149.247030
 20
111.449824
 30
0.0
 10
148.832865
 20
111.410426
 30
0.0
 10
148.418692
 20
111.371029
 30
0.0
  0
SPLINE
  5
127
100
AcDbEntity
  8
Left
 62
7
100
AcDbSpline
 70
8
 71
3
 72
8
 73
4
 74
0
 40
0
 40
0
 40
0
 40
0
 40
1
 40
1
 40
1
 40
1
 10
151.230127
 20
105.005224
 30
0.0
 10
150.458663
 20
107.868919
 30
0.0
 10
150.284340
 20
108.589361
 30
0.0
 10
149.661240
 20
111.489274
 30
0.0
  0
SPLINE
  5
128
100
AcDbEntity
  8
Left
 62
7
100
AcDbSpline
 70
8
 71
3
 72
8
 73
4
 74
0
 40
0
 40
0
 40
0
 40
0
 40
1
 40
1
 40
1
 40
1
 10
179.809372
 20
129.588274
 30
0.0
 10
176.784577
 20
112.129009
 30
0.0
 10
167.958937
 20
110.759989
 30
0.0
 10
151.230127
 20
105.005224
 30
0.0
  0
SPLINE
  5
129
100
AcDbEntity
  8
Left
 62
7
100
AcDbSpline
 70
8
 71
3
 72
8
 73
4
 74
0
 40
0
 40
0
 40
0
 40
0
 40
1
 40
1
 40
1
 40
1
 10
159.638670
 20
127.762834
 30
0.0
 10
168.661875
 20
127.438429
 30
0.0
 10
170.991247
 20
127.629206
 30
0.0
 10
179.809372
 20
129.588274
 30
0.0
  0
SPLINE
  5
12a
100
AcDbEntity
  8
Left
 62
7
100
AcDbSpline
 70
8
 71
3
 72
8
 73
4
 74
0
 40
0
 40
0
 40
0
 40
0
 40
1
 40
1
 40
1
 40
1
 10
160.011008
 20
122.313619
 30
0.0
 10
159.798915
 20
124.732204
 30
0.0
 10
159.757537
 20
125.337671
 30
0.0
 10
159.638670
 20
127.762834
 30
0.0
  0
SPLINE
  5
12b
100
AcDbEntity
  8
Left
 62
7
100
AcDbSpline
 70
8
 71
3
 72
8
 73
4
 74
0
 40
0
 40
0
 40
0
 40
0
 40
1
 40
1
 40
1
 40
1
 10
147.759607
 20
122.463386
 30
0.0
 10
151.843410
 20
122.413436
 30
0.0
 10
155.927205
 20
122.363539
 30
0.0
 10
160.011015
 20
122.313611
 30
0.0
  0
SPLINE
  5
12c
100
AcDbEntity
  8
Left
 62
7
100
AcDbSpline
 70
8
 71
3
 72
8
 73
4
 74
0
 40
0
 40
0
 40
0
 40
0
 40
1
 40
1
 40
1
 40
1
 10
147.833445
 20
140.902061
 30
0.0
 10
147.516487
 20
132.710704
 30
0.0
 10
147.503580
 20
130.655981
 30
0.0
 10
147.759645
 20
122.463386
 30
0.0
  0
SPLINE
  5
12d
100
AcDbEntity
  8
Left
 62
7
100
AcDbSpline
 70
8
 71
3
 72
8
 73
4
 74
0
 40
0
 40
0
 40
0
 40
0
 40
1
 40
1
 40
1
 40
1
 10
161.908125
 20
143.833429
 30
0.0
 10
155.837917
 20
141.762559
 30
0.0
 10
154.227892
 20
141.372259
 30
0.0
 10
147.833482
 20
140.902061
 30
0.0
  0
SPLINE
  5
12e
100
AcDbEntity
  8
Left
 62
7
100
AcDbSpline
 70
8
 71
3
 72
8
 73
4
 74
0
 40
0
 40
0
 40
0
 40
0
 40
1
 40
1
 40
1
 40
1
 10
155.946240
 20
181.825699
 30
0.0
 10
164.060947
 20
166.409134
 30
0.0
 10
164.547742
 20
161.071346
 30
0.0
 10
161.908125
 20
143.833429
 30
0.0
  0
SPLINE
  5
12f
100
AcDbEntity
  8
Left
 62
7
100
AcDbSpline
 70
8
 71
3
 72
8
 73
4
 74
0
 40
0
 40
0
 40
0
 40
0
 40
1
 40
1
 40
1
 40
1
 10
152.371823
 20
179.571259
 30
0.0
 10
153.945780
 20
180.596524
 30
0.0
 10
154.342928
 20
180.847016
 30
0.0
 10
155.946233
 20
181.825699
 30
0.0
  0
SPLINE
  5
130
100
AcDbEntity
  8
Left
 62
7
100
AcDbSpline
 70
8
 71
3
 72
8
 73
4
 74
0
 40
0
 40
0
 40
0
 40
0
 40
1
 40
1
 40
1
 40
1
 10
175.851705
 20
259.787974
 30
0.0
 10
163.919588
 20
224.567554
 30
0.0
 10
159.366098
 20
216.088256
 30
0.0
 10
152.371778
 20
179.571191
 30
0.0
  0
SPLINE
  5
131
100
AcDbEntity
  8
Left
 62
7
100
AcDbSpline
 70
8
 71
3
 72
8
 73
4
 74
0
 40
0
 40
0
 40
0
 40
0
 40
1
 40
1
 40
1
 40
1
 10
176.661293
 20
262.174001
 30
0.0
 10
176.391443
 20
261.378679
 30
0.0
 10
176.121548
 20
260.583296
 30
0.0
 10
175.851705
 20
259.787974
 30
0.0
  0
SPLINE
  5
132
100
AcDbEntity
  8
Left
 62
7
100
AcDbSpline
 70
8
 71
3
 72
8
 73
4
 74
0
 40
0
 40
0
 40
0
 40
0
 40
1
 40
1
 40
1
 40
1
 10
177.404288
 20
259.768924
 30
0.0
 10
177.156638
 20
260.570629
 30
0.0
 10
176.908942
 20
261.372266
 30
0.0
 10
176.661293
 20
262.173971
 30
0.0
  0
SPLINE
  5
133
100
AcDbEntity
  8
Left
 62
7
100
AcDbSpline
 70
8
 71
3
 72
8
 73
4
 74
0
 40
0
 40
0
 40
0
 40
0
 40
1
 40
1
 40
1
 40
1
 10
174.003570
 20
16.469539
 30
0.0
 10
178.426463
 20
29.658514
 30
0.0
 10
181.714372
 20
39.522364
 30
0.0
 10
183.963855
 20
46.141714
 30
0.0
  0
SPLINE
  5
134
100
AcDbEntity
  8
Left
 62
7
100
AcDbSpline
 70
8
 71
3
 72
8
 73
4
 74
0
 40
0
 40
0
 40
0
 40
0
 40
1
 40
1
 40
1
 40
1
 10
183.963855
 20
46.141714
 30
0.0
 10
186.213292
 20
52.761064
 30
0.0
 10
190.830593
 20
66.490714
 30
0.0
 10
193.559438
 20
75.930514
 30
0.0
  0
SPLINE
  5
135
100
AcDbEntity
  8
Left
 62
7
100
AcDbSpline
 70
8
 71
3
 72
8
 73
4
 74
0
 40
0
 40
0
 40
0
 40
0
 40
1
 40
1
 40
1
 40
1
 10
193.559438
 20
75.930514
 30
0.0
 10
199.017128
 20
94.810024
 30
0.0
 10
202.204815
 20
116.793236
 30
0.0
 10
202.128967
 20
137.690329
 30
0.0
  0
SPLINE
  5
136
100
AcDbEntity
  8
Left
 62
7
100
AcDbSpline
 70
8
 71
3
 72
8
 73
4
 74
0
 40
0
 40
0
 40
0
 40
0
 40
1
 40
1
 40
1
 40
1
 10
202.128967
 20
137.690329
 30
0.0
 10
202.053128
 20
158.587414
 30
0.0
 10
199.257105
 20
179.160131
 30
0.0
 10
194.650755
 20
199.673419
 30
0.0
  0
SPLINE
  5
137
100
AcDbEntity
  8
Left
 62
7
100
AcDbSpline
 70
8
 71
3
 72
8
 73
4
 74
0
 40
0
 40
0
 40
0
 40
0
 40
1
 40
1
 40
1
 40
1
 10
194.650755
 20
199.673419
 30
0.0
 10
190.044360
 20
220.186646
 30
0.0
 10
185.103960
 20
234.803494
 30
0.0
 10
177.404295
 20
259.768924
 30
0.0
  0
SPLINE
  5
138
100
AcDbEntity
  8
Left
 62
7
100
AcDbSpline
 70
8
 71
3
 72
8
 73
4
 74
0
 40
0
 40
0
 40
0
 40
0
 40
1
 40
1
 40
1
 40
1
 10
173.213587
 20
14.122264
 30
0.0
 10
173.476905
 20
14.904664
 30
0.0
 10
173.740260
 20
15.687139
 30
0.0
 10
174.003570
 20
16.469539
 30
0.0
  0
SPLINE
  5
139
100
AcDbEntity
  8
Left
 62
7
100
AcDbSpline
 70
8
 71
3
 72
8
 73
4
 74
0
 40
0
 40
0
 40
0
 40
0
 40
1
 40
1
 40
1
 40
1
 10
35.014082
 20
12.066889
 30
0.0
 10
35.270012
 20
11.281864
 30
0.0
 10
35.525987
 20
10.496764
 30
0.0
 10
35.781925
 20
9.711739
 30
0.0
  0
SPLINE
  5
13a
100
AcDbEntity
  8
Left
 62
7
100
AcDbSpline
 70
8
 71
3
 72
8
 73
4
 74
0
 40
0
 40
0
 40
0
 40
0
 40
1
 40
1
 40
1
 40
1
 10
33.994367
 20
255.534356
 30
0.0
 10
26.043190
 20
230.622281
 30
0.0
 10
20.883145
 20
215.736746
 30
0.0
 10
16.139995
 20
195.544399
 30
0.0
  0
SPLINE
  5
13b
100
AcDbEntity
  8
Left
 62
7
100
AcDbSpline
 70
8
 71
3
 72
8
 73
4
 74
0
 40
0
 40
0
 40
0
 40
0
 40
1
 40
1
 40
1
 40
1
 10
16.139995
 20
195.544399
 30
0.0
 10
11.396897
 20
175.351999
 30
0.0
 10
8.324215
 20
154.294721
 30
0.0
 10
8.046152
 20
133.586321
 30
0.0
  0
SPLINE
  5
13c
100
AcDbEntity
  8
Left
 62
7
100
AcDbSpline
 70
8
 71
3
 72
8
 73
4
 74
0
 40
0
 40
0
 40
0
 40
0
 40
1
 40
1
 40
1
 40
1
 10
8.046152
 20
133.586321
 30
0.0
 10
7.768090
 20
112.877906
 30
0.0
 10
10.115815
 20
92.898716
 30
0.0
 10
16.019635
 20
71.721139
 30
0.0
  0
SPLINE
  5
13d
100
AcDbEntity
  8
Left
 62
7
100
AcDbSpline
 70
8
 71
3
 72
8
 73
4
 74
0
 40
0
 40
0
 40
0
 40
0
 40
1
 40
1
 40
1
 40
1
 10
16.019635
 20
71.721139
 30
0.0
 10
18.971552
 20
61.132414
 30
0.0
 10
21.549002
 20
53.330464
 30
0.0
 10
25.333772
 20
41.837089
 30
0.0
  0
SPLINE
  5
13e
100
AcDbEntity
  8
Left
 62
7
100
AcDbSpline
 70
8
 71
3
 72
8
 73
4
 74
0
 40
0
 40
0
 40
0
 40
0
 40
1
 40
1
 40
1
 40
1
 10
25.333772
 20
41.837089
 30
0.0
 10
29.118497
 20
30.343864
 30
0.0
 10
30.715615
 20
25.299439
 30
0.0
 10
35.014045
 20
12.066889
 30
0.0
  0
SPLINE
  5
13f
100
AcDbEntity
  8
Left
 62
7
100
AcDbSpline
 70
8
 71
3
 72
8
 73
4
 74
0
 40
0
 40
0
 40
0
 40
0
 40
1
 40
1
 40
1
 40
1
 10
34.761737
 20
257.934776
 30
0.0
 10
34.505965
 20
257.134616
 30
0.0
 10
34.250140
 20
256.334516
 30
0.0
 10
33.994367
 20
255.534356
 30
0.0
  0
SPLINE
  5
140
100
AcDbEntity
  8
Left
 62
7
100
AcDbSpline
 70
8
 71
3
 72
8
 73
4
 74
0
 40
0
 40
0
 40
0
 40
0
 40
1
 40
1
 40
1
 40
1
 10
35.548832
 20
255.541106
 30
0.0
 10
35.286482
 20
256.339084
 30
0.0
 10
35.024125
 20
257.137054
 30
0.0
 10
34.761737
 20
257.935091
 30
0.0
  0
SPLINE
  5
141
100
AcDbEntity
  8
Left
 62
7
100
AcDbSpline
 70
8
 71
3
 72
8
 73
4
 74
0
 40
0
 40
0
 40
0
 40
0
 40
1
 40
1
 40
1
 40
1
 10
58.268012
 20
175.087091
 30
0.0
 10
51.624010
 20
211.682044
 30
0.0
 10
47.148722
 20
220.203341
 30
0.0
 10
35.548817
 20
255.541099
 30
0.0
  0
SPLINE
  5
142
100
AcDbEntity
  8
Left
 62
7
100
AcDbSpline
 70
8
 71
3
 72
8
 73
4
 74
0
 40
0
 40
0
 40
0
 40
0
 40
1
 40
1
 40
1
 40
1
 10
54.711775
 20
177.371951
 30
0.0
 10
56.307257
 20
176.379634
 30
0.0
 10
56.702357
 20
176.125804
 30
0.0
 10
58.268012
 20
175.087091
 30
0.0
  0
SPLINE
  5
143
100
AcDbEntity
  8
Left
 62
7
100
AcDbSpline
 70
8
 71
3
 72
8
 73
4
 74
0
 40
0
 40
0
 40
0
 40
0
 40
1
 40
1
 40
1
 40
1
 10
48.370945
 20
139.406276
 30
0.0
 10
45.897445
 20
156.675566
 30
0.0
 10
46.437047
 20
162.012499
 30
0.0
 10
54.711767
 20
177.371944
 30
0.0
  0
SPLINE
  5
144
100
AcDbEntity
  8
Left
 62
7
100
AcDbSpline
 70
8
 71
3
 72
8
 73
4
 74
0
 40
0
 40
0
 40
0
 40
0
 40
1
 40
1
 40
1
 40
1
 10
62.432237
 20
136.358839
 30
0.0
 10
56.035450
 20
136.881281
 30
0.0
 10
54.427540
 20
137.284826
 30
0.0
 10
48.370937
 20
139.406284
 30
0.0
  0
SPLINE
  5
145
100
AcDbEntity
  8
Left
 62
7
100
AcDbSpline
 70
8
 71
3
 72
8
 73
4
 74
0
 40
0
 40
0
 40
0
 40
0
 40
1
 40
1
 40
1
 40
1
 10
62.325557
 20
117.908944
 30
0.0
 10
62.662150
 20
126.104119
 30
0.0
 10
62.669387
 20
128.160154
 30
0.0
 10
62.432252
 20
136.358846
 30
0.0
  0
SPLINE
  5
146
100
AcDbEntity
  8
Left
 62
7
100
AcDbSpline
 70
8
 71
3
 72
8
 73
4
 74
0
 40
0
 40
0
 40
0
 40
0
 40
1
 40
1
 40
1
 40
1
 10
50.059330
 20
117.858611
 30
0.0
 10
54.148067
 20
117.875411
 30
0.0
 10
58.236820
 20
117.892136
 30
0.0
 10
62.325550
 20
117.908936
 30
0.0
  0
SPLINE
  5
147
100
AcDbEntity
  8
Left
 62
7
100
AcDbSpline
 70
8
 71
3
 72
8
 73
4
 74
0
 40
0
 40
0
 40
0
 40
0
 40
1
 40
1
 40
1
 40
1
 10
50.485465
 20
123.307931
 30
0.0
 10
50.342717
 20
120.882349
 30
0.0
 10
50.295347
 20
120.276881
 30
0.0
 10
50.059330
 20
117.858611
 30
0.0
  0
SPLINE
  5
148
100
AcDbEntity
  8
Left
 62
7
100
AcDbSpline
 70
8
 71
3
 72
8
 73
4
 74
0
 40
0
 40
0
 40
0
 40
0
 40
1
 40
1
 40
1
 40
1
 10
30.310637
 20
125.298386
 30
0.0
 10
39.119162
 20
123.266531
 30
0.0
 10
41.449202
 20
123.056704
 30
0.0
 10
50.485465
 20
123.307939
 30
0.0
  0
SPLINE
  5
149
100
AcDbEntity
  8
Left
 62
7
100
AcDbSpline
 70
8
 71
3
 72
8
 73
4
 74
0
 40
0
 40
0
 40
0
 40
0
 40
1
 40
1
 40
1
 40
1
 10
58.680107
 20
100.468774
 30
0.0
 10
41.989442
 20
106.362904
 30
0.0
 10
33.167507
 20
107.804456
 30
0.0
 10
30.310630
 20
125.298379
 30
0.0
  0
SPLINE
  5
14a
100
AcDbEntity
  8
Left
 62
7
100
AcDbSpline
 70
8
 71
3
 72
8
 73
4
 74
0
 40
0
 40
0
 40
0
 40
0
 40
1
 40
1
 40
1
 40
1
 10
60.314260
 20
106.943801
 30
0.0
 10
59.662037
 20
104.047316
 30
0.0
 10
59.480462
 20
103.327886
 30
0.0
 10
58.680115
 20
100.468774
 30
0.0
  0
SPLINE
  5
14b
100
AcDbEntity
  8
Left
 62
7
100
AcDbSpline
 70
8
 71
3
 72
8
 73
4
 74
0
 40
0
 40
0
 40
0
 40
0
 40
1
 40
1
 40
1
 40
1
 10
61.557025
 20
106.815364
 30
0.0
 10
61.142762
 20
106.858189
 30
0.0
 10
60.728522
 20
106.900984
 30
0.0
 10
60.314260
 20
106.943801
 30
0.0
  0
SPLINE
  5
14c
100
AcDbEntity
  8
Left
 62
7
100
AcDbSpline
 70
8
 71
3
 72
8
 73
4
 74
0
 40
0
 40
0
 40
0
 40
0
 40
1
 40
1
 40
1
 40
1
 10
36.530425
 20
12.073414
 30
0.0
 10
49.556470
 20
53.320114
 30
0.0
 10
57.259487
 20
63.385639
 30
0.0
 10
61.557025
 20
106.815364
 30
0.0
  0
SPLINE
  5
14d
100
AcDbEntity
  8
Left
 62
7
100
AcDbSpline
 70
8
 71
3
 72
8
 73
4
 74
0
 40
0
 40
0
 40
0
 40
0
 40
1
 40
1
 40
1
 40
1
 10
35.781925
 20
9.712039
 30
0.0
 10
36.031442
 20
10.499164
 30
0.0
 10
36.280960
 20
11.286289
 30
0.0
 10
36.530432
 20
12.073414
 30
0.0
  0
SPLINE
  5
14e
100
AcDbEntity
  8
Left
 62
7
100
AcDbSpline
 70
8
 71
3
 72
8
 73
4
 74
0
 40
0
 40
0
 40
0
 40
0
 40
1
 40
1
 40
1
 40
1
 10
34.761737
 20
257.935091
 30
0.0
 10
35.024537
 20
257.137189
 30
0.0
 10
35.287300
 20
256.339339
 30
0.0
 10
35.550055
 20
255.541489
 30
0.0
  0
SPLINE
  5
14f
100
AcDbEntity
  8
Left
 62
7
100
AcDbSpline
 70
8
 71
3
 72
8
 73
4
 74
0
 40
0
 40
0
 40
0
 40
0
 40
1
 40
1
 40
1
 40
1
 10
243.862560
 20
11.579561
 30
0.0
 10
244.125277
 20
10.797761
 30
0.0
 10
244.388062
 20
10.015961
 30
0.0
 10
244.650780
 20
9.234161
 30
0.0
  0
SPLINE
  5
150
100
AcDbEntity
  8
Left
 62
7
100
AcDbSpline
 70
8
 71
3
 72
8
 73
4
 74
0
 40
0
 40
0
 40
0
 40
0
 40
1
 40
1
 40
1
 40
1
 10
240.654083
 20
254.503039
 30
0.0
 10
232.978365
 20
229.736314
 30
0.0
 10
227.915602
 20
214.715936
 30
0.0
 10
223.359503
 20
194.540861
 30
0.0
  0
SPLINE
  5
151
100
AcDbEntity
  8
Left
 62
7
100
AcDbSpline
 70
8
 71
3
 72
8
 73
4
 74
0
 40
0
 40
0
 40
0
 40
0
 40
1
 40
1
 40
1
 40
1
 10
223.359503
 20
194.540861
 30
0.0
 10
218.803395
 20
174.365861
 30
0.0
 10
215.923095
 20
153.335936
 30
0.0
 10
215.831430
 20
132.672236
 30
0.0
  0
SPLINE
  5
152
100
AcDbEntity
  8
Left
 62
7
100
AcDbSpline
 70
8
 71
3
 72
8
 73
4
 74
0
 40
0
 40
0
 40
0
 40
0
 40
1
 40
1
 40
1
 40
1
 10
215.831430
 20
132.672236
 30
0.0
 10
215.739833
 20
112.008536
 30
0.0
 10
218.264610
 20
92.087411
 30
0.0
 10
224.352600
 20
70.990511
 30
0.0
  0
SPLINE
  5
153
100
AcDbEntity
  8
Left
 62
7
100
AcDbSpline
 70
8
 71
3
 72
8
 73
4
 74
0
 40
0
 40
0
 40
0
 40
0
 40
1
 40
1
 40
1
 40
1
 10
224.352600
 20
70.990511
 30
0.0
 10
227.396603
 20
60.442061
 30
0.0
 10
230.040645
 20
52.674686
 30
0.0
 10
233.925180
 20
41.227211
 30
0.0
  0
SPLINE
  5
154
100
AcDbEntity
  8
Left
 62
7
100
AcDbSpline
 70
8
 71
3
 72
8
 73
4
 74
0
 40
0
 40
0
 40
0
 40
0
 40
1
 40
1
 40
1
 40
1
 10
233.925180
 20
41.227211
 30
0.0
 10
237.809715
 20
29.779811
 30
0.0
 10
239.449718
 20
24.757586
 30
0.0
 10
243.862560
 20
11.579561
 30
0.0
  0
SPLINE
  5
155
100
AcDbEntity
  8
Left
 62
7
100
AcDbSpline
 70
8
 71
3
 72
8
 73
4
 74
0
 40
0
 40
0
 40
0
 40
0
 40
1
 40
1
 40
1
 40
1
 10
241.399020
 20
256.902664
 30
0.0
 10
241.150875
 20
256.102714
 30
0.0
 10
240.902018
 20
255.303064
 30
0.0
 10
240.654083
 20
254.503039
 30
0.0
  0
SPLINE
  5
156
100
AcDbEntity
  8
Left
 62
7
100
AcDbSpline
 70
8
 71
3
 72
8
 73
4
 74
0
 40
0
 40
0
 40
0
 40
0
 40
1
 40
1
 40
1
 40
1
 10
242.206755
 20
254.518789
 30
0.0
 10
241.937490
 20
255.313489
 30
0.0
 10
241.668293
 20
256.108189
 30
0.0
 10
241.399020
 20
256.902889
 30
0.0
  0
SPLINE
  5
157
100
AcDbEntity
  8
Left
 62
7
100
AcDbSpline
 70
8
 71
3
 72
8
 73
4
 74
0
 40
0
 40
0
 40
0
 40
0
 40
1
 40
1
 40
1
 40
1
 10
245.377163
 20
11.594936
 30
0.0
 10
249.442898
 20
24.857561
 30
0.0
 10
252.426068
 20
34.655861
 30
0.0
 10
254.533538
 20
41.433086
 30
0.0
  0
SPLINE
  5
158
100
AcDbEntity
  8
Left
 62
7
100
AcDbSpline
 70
8
 71
3
 72
8
 73
4
 74
0
 40
0
 40
0
 40
0
 40
0
 40
1
 40
1
 40
1
 40
1
 10
254.533538
 20
41.433086
 30
0.0
 10
256.641015
 20
48.210311
 30
0.0
 10
260.848620
 20
61.895561
 30
0.0
 10
263.322165
 20
71.379611
 30
0.0
  0
SPLINE
  5
159
100
AcDbEntity
  8
Left
 62
7
100
AcDbSpline
 70
8
 71
3
 72
8
 73
4
 74
0
 40
0
 40
0
 40
0
 40
0
 40
1
 40
1
 40
1
 40
1
 10
263.322165
 20
71.379611
 30
0.0
 10
268.269188
 20
90.347636
 30
0.0
 10
270.861870
 20
112.358336
 30
0.0
 10
270.221648
 20
133.215236
 30
0.0
  0
SPLINE
  5
15a
100
AcDbEntity
  8
Left
 62
7
100
AcDbSpline
 70
8
 71
3
 72
8
 73
4
 74
0
 40
0
 40
0
 40
0
 40
0
 40
1
 40
1
 40
1
 40
1
 10
270.221648
 20
133.215236
 30
0.0
 10
269.581343
 20
154.072136
 30
0.0
 10
266.229758
 20
174.546611
 30
0.0
 10
261.071213
 20
194.917436
 30
0.0
  0
SPLINE
  5
15b
100
AcDbEntity
  8
Left
 62
7
100
AcDbSpline
 70
8
 71
3
 72
8
 73
4
 74
0
 40
0
 40
0
 40
0
 40
0
 40
1
 40
1
 40
1
 40
1
 10
261.071213
 20
194.917436
 30
0.0
 10
255.912600
 20
215.288336
 30
0.0
 10
250.531005
 20
229.911064
 30
0.0
 10
242.206755
 20
254.518789
 30
0.0
  0
SPLINE
  5
15c
100
AcDbEntity
  8
Left
 62
7
100
AcDbSpline
 70
8
 71
3
 72
8
 73
4
 74
0
 40
0
 40
0
 40
0
 40
0
 40
1
 40
1
 40
1
 40
1
 10
244.650780
 20
9.234386
 30
0.0
 10
244.892813
 20
10.021286
 30
0.0
 10
245.134845
 20
10.808111
 30
0.0
 10
245.377163
 20
11.594936
 30
0.0
  0
ENDSEC
  0
SECTION
  2
OBJECTS
  0
DICTIONARY
  5
C
330
0
100
AcDbDictionary
  3
ACAD_GROUP
350
D
  3
ACAD_MLINESTYLE
350
17
  0
DICTIONARY
  5
D
330
C
100
AcDbDictionary
  0
DICTIONARY
  5
1A
330
C
100
AcDbDictionary
  0
DICTIONARY
  5
17
330
C
100
AcDbDictionary
  3
STANDARD
350
18
  0
DICTIONARY
  5
19
330
C
100
AcDbDictionary
  0
ENDSEC
  0
EOF
