  0
SECTION
  2
HEADER
  9
$ACADVER
  1
AC1015
  9
$ACADMAINTVER
 70
     6
  9
$DWGCODEPAGE
  3
ANSI_1252
  9
$INSBASE
 10
0.0
 20
0.0
 30
0.0
  9
$EXTMIN
 10
6.146018366
 20
66.146018366
 30
0.0
  9
$EXTMAX
 10
54.853981634
 20
114.853981634
 30
0.0
  9
$LIMMIN
 10
0.0
 20
0.0
  9
$LIMMAX
 10
420.0
 20
297.0
  9
$ORTHOMODE
 70
     0
  9
$REGENMODE
 70
     1
  9
$FILLMODE
 70
     1
  9
$QTEXTMODE
 70
     0
  9
$MIRRTEXT
 70
     1
  9
$LTSCALE
 40
1.0
  9
$ATTMODE
 70
     1
  9
$TEXTSIZE
 40
3.5
  9
$TRACEWID
 40
1.0
  9
$TEXTSTYLE
  7
Standard
  9
$CLAYER
  8
0
  9
$CELTYPE
  6
ByLayer
  9
$CECOLOR
 62
   256
  9
$CELTSCALE
 40
1.0
  9
$DISPSILH
 70
     0
  9
$DIMSCALE
 40
1.0
  9
$DIMASZ
 40
3.302
  9
$DIMEXO
 40
0.0
  9
$DIMDLI
 40
3.75
  9
$DIMRND
 40
0.0
  9
$DIMDLE
 40
0.0
  9
$DIMEXE
 40
1.0
  9
$DIMTP
 40
0.0
  9
$DIMTM
 40
0.0
  9
$DIMTXT
 40
3.5
  9
$DIMCEN
 40
2.5
  9
$DIMTSZ
 40
0.0
  9
$DIMTOL
 70
     0
  9
$DIMLIM
 70
     0
  9
$DIMTIH
 70
     1
  9
$DIMTOH
 70
     1
  9
$DIMSE1
 70
     0
  9
$DIMSE2
 70
     0
  9
$DIMTAD
 70
     1
  9
$DIMZIN
 70
     1
  9
$DIMBLK
  1

  9
$DIMASO
 70
     1
  9
$DIMSHO
 70
     1
  9
$DIMPOST
  1

  9
$DIMAPOST
  1

  9
$DIMALT
 70
     0
  9
$DIMALTD
 70
     3
  9
$DIMALTF
 40
0.0393700787
  9
$DIMLFAC
 40
1.0
  9
$DIMTOFL
 70
     1
  9
$DIMTVP
 40
0.0
  9
$DIMTIX
 70
     0
  9
$DIMSOXD
 70
     0
  9
$DIMSAH
 70
     0
  9
$DIMBLK1
  1

  9
$DIMBLK2
  1

  9
$DIMSTYLE
  2
ISO-25
  9
$DIMCLRD
 70
     0
  9
$DIMCLRE
 70
     0
  9
$DIMCLRT
 70
     0
  9
$DIMTFAC
 40
1.0
  9
$DIMGAP
 40
1.524
  9
$DIMJUST
 70
     0
  9
$DIMSD1
 70
     0
  9
$DIMSD2
 70
     0
  9
$DIMTOLJ
 70
     0
  9
$DIMTZIN
 70
     1
  9
$DIMALTZ
 70
     0
  9
$DIMALTTZ
 70
     0
  9
$DIMUPT
 70
     0
  9
$DIMDEC
 70
     2
  9
$DIMTDEC
 70
     2
  9
$DIMALTU
 70
     2
  9
$DIMALTTD
 70
     3
  9
$DIMTXSTY
  7
Standard
  9
$DIMAUNIT
 70
     0
  9
$DIMADEC
 70
     2
  9
$DIMALTRND
 40
0.0
  9
$DIMAZIN
 70
     0
  9
$DIMDSEP
 70
    44
  9
$DIMATFIT
 70
     3
  9
$DIMFRAC
 70
     0
  9
$DIMLDRBLK
  1

  9
$DIMLUNIT
 70
     2
  9
$DIMLWD
 70
    -2
  9
$DIMLWE
 70
    -2
  9
$DIMTMOVE
 70
     0
  9
$LUNITS
 70
     2
  9
$LUPREC
 70
     2
  9
$SKETCHINC
 40
1.0
  9
$FILLETRAD
 40
0.0
  9
$AUNITS
 70
     0
  9
$AUPREC
 70
     2
  9
$MENU
  1
.
  9
$ELEVATION
 40
0.0
  9
$PELEVATION
 40
0.0
  9
$THICKNESS
 40
0.0
  9
$LIMCHECK
 70
     0
  9
$CHAMFERA
 40
0.0
  9
$CHAMFERB
 40
0.0
  9
$CHAMFERC
 40
0.0
  9
$CHAMFERD
 40
0.0
  9
$SKPOLY
 70
     0
  9
$TDCREATE
 40
2460004.02099463
  9
$TDUCREATE
 40
2460004.27099463
  9
$TDUPDATE
 40
2460004.021020787
  9
$TDUUPDATE
 40
2460004.271020787
  9
$TDINDWG
 40
0.0000000116
  9
$TDUSRTIMER
 40
0.0000000116
  9
$USRTIMER
 70
     1
  9
$ANGBASE
 50
0.0
  9
$ANGDIR
 70
     0
  9
$PDMODE
 70
     0
  9
$PDSIZE
 40
-1.0
  9
$PLINEWID
 40
0.0
  9
$SPLFRAME
 70
     0
  9
$SPLINETYPE
 70
     6
  9
$SPLINESEGS
 70
     8
  9
$HANDSEED
  5
85
  9
$SURFTAB1
 70
     6
  9
$SURFTAB2
 70
     6
  9
$SURFTYPE
 70
     6
  9
$SURFU
 70
     6
  9
$SURFV
 70
     6
  9
$UCSBASE
  2

  9
$UCSNAME
  2

  9
$UCSORG
 10
0.0
 20
0.0
 30
0.0
  9
$UCSXDIR
 10
1.0
 20
0.0
 30
0.0
  9
$UCSYDIR
 10
0.0
 20
1.0
 30
0.0
  9
$UCSORTHOREF
  2

  9
$UCSORTHOVIEW
 70
     0
  9
$UCSORGTOP
 10
0.0
 20
0.0
 30
0.0
  9
$UCSORGBOTTOM
 10
0.0
 20
0.0
 30
0.0
  9
$UCSORGLEFT
 10
0.0
 20
0.0
 30
0.0
  9
$UCSORGRIGHT
 10
0.0
 20
0.0
 30
0.0
  9
$UCSORGFRONT
 10
0.0
 20
0.0
 30
0.0
  9
$UCSORGBACK
 10
0.0
 20
0.0
 30
0.0
  9
$PUCSBASE
  2

  9
$PUCSNAME
  2

  9
$PUCSORG
 10
0.0
 20
0.0
 30
0.0
  9
$PUCSXDIR
 10
1.0
 20
0.0
 30
0.0
  9
$PUCSYDIR
 10
0.0
 20
1.0
 30
0.0
  9
$PUCSORTHOREF
  2

  9
$PUCSORTHOVIEW
 70
     0
  9
$PUCSORGTOP
 10
0.0
 20
0.0
 30
0.0
  9
$PUCSORGBOTTOM
 10
0.0
 20
0.0
 30
0.0
  9
$PUCSORGLEFT
 10
0.0
 20
0.0
 30
0.0
  9
$PUCSORGRIGHT
 10
0.0
 20
0.0
 30
0.0
  9
$PUCSORGFRONT
 10
0.0
 20
0.0
 30
0.0
  9
$PUCSORGBACK
 10
0.0
 20
0.0
 30
0.0
  9
$USERI1
 70
     0
  9
$USERI2
 70
     0
  9
$USERI3
 70
     0
  9
$USERI4
 70
     0
  9
$USERI5
 70
     0
  9
$USERR1
 40
0.0
  9
$USERR2
 40
0.0
  9
$USERR3
 40
0.0
  9
$USERR4
 40
0.0
  9
$USERR5
 40
0.0
  9
$WORLDVIEW
 70
     1
  9
$SHADEDGE
 70
     3
  9
$SHADEDIF
 70
    70
  9
$TILEMODE
 70
     1
  9
$MAXACTVP
 70
    64
  9
$PINSBASE
 10
0.0
 20
0.0
 30
0.0
  9
$PLIMCHECK
 70
     0
  9
$PEXTMIN
 10
1.0000000000E+20
 20
1.0000000000E+20
 30
1.0000000000E+20
  9
$PEXTMAX
 10
-1.0000000000E+20
 20
-1.0000000000E+20
 30
-1.0000000000E+20
  9
$PLIMMIN
 10
0.0
 20
0.0
  9
$PLIMMAX
 10
420.0
 20
297.0
  9
$UNITMODE
 70
     0
  9
$VISRETAIN
 70
     1
  9
$PLINEGEN
 70
     0
  9
$PSLTSCALE
 70
     1
  9
$TREEDEPTH
 70
  3020
  9
$CMLSTYLE
  2
Standard
  9
$CMLJUST
 70
     0
  9
$CMLSCALE
 40
20.0
  9
$PROXYGRAPHICS
 70
     1
  9
$MEASUREMENT
 70
     1
  9
$CELWEIGHT
370
    -1
  9
$ENDCAPS
280
     0
  9
$JOINSTYLE
280
     0
  9
$LWDISPLAY
290
     1
  9
$INSUNITS
 70
     4
  9
$HYPERLINKBASE
  1

  9
$STYLESHEET
  1

  9
$XEDIT
290
     1
  9
$CEPSNTYPE
380
     0
  9
$PSTYLEMODE
290
     1
  9
$FINGERPRINTGUID
  2
{8ac4e203-b961-45ba-8f35-8bfd34439a08}
  9
$VERSIONGUID
  2
{FAEB1C32-E019-11D5-929B-00C0DF256EC4}
  9
$EXTNAMES
290
     1
  9
$PSVPSCALE
 40
0.0
  9
$OLESTARTUP
290
     0
  0
ENDSEC
  0
SECTION
  2
CLASSES
  0
CLASS
  1
ACDBDICTIONARYWDFLT
  2
AcDbDictionaryWithDefault
  3
ObjectDBX Classes
 90
        0
280
     0
281
     0
  0
CLASS
  1
VISUALSTYLE
  2
AcDbVisualStyle
  3
ObjectDBX Classes
 90
     4095
280
     0
281
     0
  0
CLASS
  1
MATERIAL
  2
AcDbMaterial
  3
ObjectDBX Classes
 90
     1153
280
     0
281
     0
  0
CLASS
  1
SCALE
  2
AcDbScale
  3
ObjectDBX Classes
 90
     1153
280
     0
281
     0
  0
CLASS
  1
TABLESTYLE
  2
AcDbTableStyle
  3
ObjectDBX Classes
 90
     4095
280
     0
281
     0
  0
CLASS
  1
MLEADERSTYLE
  2
AcDbMLeaderStyle
  3
ACDB_MLEADERSTYLE_CLASS
 90
     4095
280
     0
281
     0
  0
CLASS
  1
SUN
  2
AcDbSun
  3
SCENEOE
 90
     1153
280
     0
281
     0
  0
CLASS
  1
ACDBPLACEHOLDER
  2
AcDbPlaceHolder
  3
ObjectDBX Classes
 90
        0
280
     0
281
     0
  0
CLASS
  1
LAYOUT
  2
AcDbLayout
  3
ObjectDBX Classes
 90
        0
280
     0
281
     0
  0
ENDSEC
  0
SECTION
  2
TABLES
  0
TABLE
  2
VPORT
  5
8
330
0
100
AcDbSymbolTable
 70
     1
  0
VPORT
  5
29
330
8
100
AcDbSymbolTableRecord
100
AcDbViewportTableRecord
  2
*Active
 70
     0
 10
0.0
 20
0.0
 11
1.0
 21
1.0
 12
30.5
 22
90.5
 13
0.0
 23
0.0
 14
10.0
 24
10.0
 15
10.0
 25
10.0
 16
0.0
 26
0.0
 36
1.0
 17
0.0
 27
0.0
 37
0.0
 40
49.6821225333
 41
1.0
 42
50.0
 43
0.0
 44
0.0
 50
0.0
 51
0.0
 71
     0
 72
   100
 73
     1
 74
     3
 75
     0
 76
     0
 77
     0
 78
     0
281
     0
 65
     1
110
0.0
120
0.0
130
0.0
111
1.0
121
0.0
131
0.0
112
0.0
122
1.0
132
0.0
 79
     0
146
0.0
  0
ENDTAB
  0
TABLE
  2
LTYPE
  5
5
330
0
100
AcDbSymbolTable
 70
     6
  0
LTYPE
  5
14
330
5
100
AcDbSymbolTableRecord
100
AcDbLinetypeTableRecord
  2
ByBlock
 70
     0
  3

 72
    65
 73
     0
 40
0.0
  0
LTYPE
  5
15
330
5
100
AcDbSymbolTableRecord
100
AcDbLinetypeTableRecord
  2
ByLayer
 70
     0
  3

 72
    65
 73
     0
 40
0.0
  0
LTYPE
  5
16
330
5
100
AcDbSymbolTableRecord
100
AcDbLinetypeTableRecord
  2
Continuous
 70
     0
  3
Solid line
 72
    65
 73
     0
 40
0.0
  0
LTYPE
  5
5E
330
5
100
AcDbSymbolTableRecord
100
AcDbLinetypeTableRecord
  2
HIDDEN
 70
     0
  3
Hidden __ __ __ __ __ __ __ __ __ __ __ __ __ __
 72
    65
 73
     2
 40
1.905
 49
1.27
 74
     0
 49
-0.635
 74
     0
  0
LTYPE
  5
5F
330
5
100
AcDbSymbolTableRecord
100
AcDbLinetypeTableRecord
  2
PHANTOM
 70
     0
  3
Phantom ______  __  __  ______  __  __  ______
 72
    65
 73
     6
 40
12.7
 49
6.35
 74
     0
 49
-1.27
 74
     0
 49
1.27
 74
     0
 49
-1.27
 74
     0
 49
1.27
 74
     0
 49
-1.27
 74
     0
  0
LTYPE
  5
60
330
5
100
AcDbSymbolTableRecord
100
AcDbLinetypeTableRecord
  2
CENTER
 70
     0
  3
Center ____ _ ____ _ ____ _ ____ _ ____ _ ____
 72
    65
 73
     4
 40
10.16
 49
6.35
 74
     0
 49
-1.27
 74
     0
 49
1.27
 74
     0
 49
-1.27
 74
     0
  0
LTYPE
  5
61
330
5
100
AcDbSymbolTableRecord
100
AcDbLinetypeTableRecord
  2
CENTERX2
 70
     0
  3
Center (2x) ________  __  ________  __  _____
 72
    65
 73
     4
 40
20.32
 49
12.7
 74
     0
 49
-2.54
 74
     0
 49
2.54
 74
     0
 49
-2.54
 74
     0
  0
LTYPE
  5
62
330
5
100
AcDbSymbolTableRecord
100
AcDbLinetypeTableRecord
  2
DOT2
 70
     0
  3
Dot (.5x) ........................................
 72
    65
 73
     2
 40
0.635
 49
0.0
 74
     0
 49
-0.635
 74
     0
  0
ENDTAB
  0
TABLE
  2
LAYER
  5
2
330
0
100
AcDbSymbolTable
 70
     1
  0
LAYER
  5
10
330
2
100
AcDbSymbolTableRecord
100
AcDbLayerTableRecord
  2
0
 70
     0
 62
     7
  6
Continuous
370
    -3
390
F
  0
ENDTAB
  0
TABLE
  2
STYLE
  5
3
330
0
100
AcDbSymbolTable
 70
     2
  0
STYLE
  5
11
330
3
100
AcDbSymbolTableRecord
100
AcDbTextStyleTableRecord
  2
Standard
 70
     0
 40
0.0
 41
1.0
 50
0.0
 71
     0
 42
3.5
  3
txt
  4

  0
STYLE
  5
81
330
3
100
AcDbSymbolTableRecord
100
AcDbTextStyleTableRecord
  2
SLDTEXTSTYLE0
 70
     0
 40
0.0
 41
0.7
 50
0.0
 71
     0
 42
3.5
  3
TXT
  4

  0
ENDTAB
  0
TABLE
  2
VIEW
  5
6
330
0
100
AcDbSymbolTable
 70
     0
  0
ENDTAB
  0
TABLE
  2
UCS
  5
7
330
0
100
AcDbSymbolTable
 70
     0
  0
ENDTAB
  0
TABLE
  2
APPID
  5
9
330
0
100
AcDbSymbolTable
 70
     1
  0
APPID
  5
12
330
9
100
AcDbSymbolTableRecord
100
AcDbRegAppTableRecord
  2
ACAD
 70
     0
  0
ENDTAB
  0
TABLE
  2
DIMSTYLE
  5
A
330
0
100
AcDbSymbolTable
 70
     1
100
AcDbDimStyleTable
  0
DIMSTYLE
105
27
330
A
100
AcDbSymbolTableRecord
100
AcDbDimStyleTableRecord
  2
ISO-25
 70
     0
 41
2.5
 42
0.625
 43
3.75
 44
1.25
 73
     0
 74
     0
 77
     1
 78
     8
140
2.5
141
2.5
143
0.0393700787
147
0.625
171
     3
172
     1
178
     0
271
     2
272
     2
274
     3
278
    44
283
     0
284
     8
340
11
  0
ENDTAB
  0
TABLE
  2
BLOCK_RECORD
  5
1
330
0
100
AcDbSymbolTable
 70
     1
  0
BLOCK_RECORD
  5
1F
330
1
100
AcDbSymbolTableRecord
100
AcDbBlockTableRecord
  2
*Model_Space
340
22
  0
BLOCK_RECORD
  5
1B
330
1
100
AcDbSymbolTableRecord
100
AcDbBlockTableRecord
  2
*Paper_Space
340
1E
  0
BLOCK_RECORD
  5
23
330
1
100
AcDbSymbolTableRecord
100
AcDbBlockTableRecord
  2
*Paper_Space0
340
26
  0
ENDTAB
  0
ENDSEC
  0
SECTION
  2
BLOCKS
  0
BLOCK
  5
20
330
1F
100
AcDbEntity
  8
0
100
AcDbBlockBegin
  2
*Model_Space
 70
     0
 10
0.0
 20
0.0
 30
0.0
  3
*Model_Space
  1

  0
ENDBLK
  5
21
330
1F
100
AcDbEntity
  8
0
100
AcDbBlockEnd
  0
BLOCK
  5
1C
330
1B
100
AcDbEntity
 67
     1
  8
0
100
AcDbBlockBegin
  2
*Paper_Space
 70
     0
 10
0.0
 20
0.0
 30
0.0
  3
*Paper_Space
  1

  0
ENDBLK
  5
1D
330
1B
100
AcDbEntity
 67
     1
  8
0
100
AcDbBlockEnd
  0
BLOCK
  5
24
330
23
100
AcDbEntity
  8
0
100
AcDbBlockBegin
  2
*Paper_Space0
 70
     0
 10
0.0
 20
0.0
 30
0.0
  3
*Paper_Space0
  1

  0
ENDBLK
  5
25
330
23
100
AcDbEntity
  8
0
100
AcDbBlockEnd
  0
ENDSEC
  0
SECTION
  2
ENTITIES
  0
LINE
  5
63
330
1F
100
AcDbEntity
  8
0
  6
Continuous
 62
     7
370
    25
100
AcDbLine
 10
46.2787510832
 20
74.0
 30
0.0
 11
46.2787510832
 21
74.9852443428
 31
0.0
  0
LINE
  5
64
330
1F
100
AcDbEntity
  8
0
  6
Continuous
 62
     7
370
    25
100
AcDbLine
 10
46.2787510832
 20
74.9852443428
 30
0.0
 11
47.0
 21
74.6246198844
 31
0.0
  0
LINE
  5
65
330
1F
100
AcDbEntity
  8
0
  6
Continuous
 62
     7
370
    25
100
AcDbLine
 10
47.0
 20
74.6246198844
 30
0.0
 11
47.5052315291
 21
74.4126693322
 31
0.0
  0
SPLINE
  5
66
330
1F
100
AcDbEntity
  8
0
  6
Continuous
 62
     7
370
    25
100
AcDbSpline
210
0.0
220
0.0
230
1.0
 70
     8
 71
     3
 72
    40
 73
    36
 74
     0
 42
0.00000001
 43
0.00000001
 40
0.0
 40
0.0
 40
0.0
 40
0.0
 40
0.125
 40
0.125
 40
0.1875
 40
0.1875
 40
0.21875
 40
0.21875
 40
0.234375
 40
0.234375
 40
0.2421875
 40
0.2421875
 40
0.25
 40
0.25
 40
0.375
 40
0.375
 40
0.4375
 40
0.4375
 40
0.46875
 40
0.46875
 40
0.484375
 40
0.484375
 40
0.5
 40
0.5
 40
0.625
 40
0.625
 40
0.6875
 40
0.6875
 40
0.71875
 40
0.71875
 40
0.734375
 40
0.734375
 40
0.75
 40
0.75
 40
1.0
 40
1.0
 40
1.0
 40
1.0
 10
47.50523152910955
 20
74.41266933222478
 30
0.0
 10
47.82770608665994
 20
74.1351943109643
 30
0.0
 10
48.12515444812981
 20
73.88365735059635
 30
0.0
 10
48.53378769621381
 20
73.54525900138326
 30
0.0
 10
48.66374222988834
 20
73.43894406686871
 30
0.0
 10
48.84928920686993
 20
73.28919843793156
 30
0.0
 10
48.9095740619421
 20
73.24090435709164
 30
0.0
 10
48.9976551386678
 20
73.17089492904043
 30
0.0
 10
49.02662446326261
 20
73.1479637352248
 30
0.0
 10
49.06949189868418
 20
73.11417486780354
 30
0.0
 10
49.08368328524627
 20
73.1030132325468
 30
0.0
 10
49.11187054121356
 20
73.08089260313406
 30
0.0
 10
49.12033613915805
 20
73.0742540438357
 30
0.0
 10
49.45061863804519
 20
72.8162261999602
 30
0.0
 10
49.75054362236333
 20
72.59295888022223
 30
0.0
 10
50.18403740041823
 20
72.28743152412666
 30
0.0
 10
50.32580304336614
 20
72.19048467601337
 30
0.0
 10
50.53435308318244
 20
72.05240780972127
 30
0.0
 10
50.60318669235361
 20
72.00760608860357
 30
0.0
 10
50.70541249995897
 20
71.94223935839645
 30
0.0
 10
50.73931700146887
 20
71.9207564235723
 30
0.0
 10
50.80678446910484
 20
71.87840250441387
 30
0.0
 10
50.83233552286764
 20
71.86246575796447
 30
0.0
 10
51.20497252004497
 20
71.63297253519565
 30
0.0
 10
51.52906826559845
 20
71.45318249369303
 30
0.0
 10
52.00450617268915
 20
71.21980333287695
 30
0.0
 10
52.16120118984612
 20
71.14806126284454
 30
0.0
 10
52.3935672877717
 20
71.0495246331554
 30
0.0
 10
52.47057658244523
 20
71.01819183581895
 30
0.0
 10
52.58542141750308
 20
70.97346175865411
 30
0.0
 10
52.62359151136362
 20
70.9589299194058
 30
0.0
 10
52.69970866343387
 20
70.93062261385583
 30
0.0
 10
52.73202021977794
 20
70.91884263631154
 30
0.0
 10
53.47102793802684
 20
70.65716557035338
 30
0.0
 10
54.16385806200906
 20
70.53201256511447
 30
0.0
 10
54.85398163397455
 20
70.52799085200903
 30
0.0
  0
LINE
  5
67
330
1F
100
AcDbEntity
  8
0
  6
Continuous
 62
     7
370
    25
100
AcDbLine
 10
54.853981634
 20
70.527990852
 30
0.0
 11
54.853981634
 21
110.472009148
 31
0.0
  0
SPLINE
  5
68
330
1F
100
AcDbEntity
  8
0
  6
Continuous
 62
     7
370
    25
100
AcDbSpline
210
0.0
220
0.0
230
1.0
 70
     8
 71
     3
 72
    38
 73
    34
 74
     0
 42
0.00000001
 43
0.00000001
 40
0.0
 40
0.0
 40
0.0
 40
0.0
 40
0.125
 40
0.125
 40
0.1875
 40
0.1875
 40
0.21875
 40
0.21875
 40
0.25
 40
0.25
 40
0.375
 40
0.375
 40
0.4375
 40
0.4375
 40
0.46875
 40
0.46875
 40
0.484375
 40
0.484375
 40
0.5
 40
0.5
 40
0.625
 40
0.625
 40
0.6875
 40
0.6875
 40
0.71875
 40
0.71875
 40
0.734375
 40
0.734375
 40
0.7421875
 40
0.7421875
 40
0.75
 40
0.75
 40
1.0
 40
1.0
 40
1.0
 40
1.0
 10
54.85398163397456
 20
110.4720091479907
 30
0.0
 10
54.50591195769251
 20
110.4688573533289
 30
0.0
 10
54.1586687229397
 20
110.4359931824823
 30
0.0
 10
53.63904353310432
 20
110.3421283619355
 30
0.0
 10
53.46604174687484
 20
110.3034119943737
 30
0.0
 10
53.20684898310407
 20
110.2341953019618
 30
0.0
 10
53.12050304777605
 20
110.2092660476463
 30
0.0
 10
52.94791448231118
 20
110.1556934919921
 30
0.0
 10
52.85105109868428
 20
110.1232918340269
 30
0.0
 10
52.47319997842811
 20
109.9895819929094
 30
0.0
 10
52.16357977511008
 20
109.8583046335823
 30
0.0
 10
51.6881405094634
 20
109.624924364942
 30
0.0
 10
51.52782592746956
 20
109.5410535704536
 30
0.0
 10
51.28460181431141
 20
109.4061313213086
 30
0.0
 10
51.20306840323079
 20
109.3596378953582
 30
0.0
 10
51.080080226568
 20
109.2876187420795
 30
0.0
 10
51.03896949100676
 20
109.2632325219277
 30
0.0
 10
50.95651866653701
 20
109.2137004101732
 30
0.0
 10
50.90710154248195
 20
109.1835810928646
 30
0.0
 10
50.60670196856131
 20
108.9986103782615
 30
0.0
 10
50.32869403636532
 20
108.8145593535841
 30
0.0
 10
49.89520300500487
 20
108.5090338990226
 30
0.0
 10
49.74795947237365
 20
108.4022839279112
 30
0.0
 10
49.52297439016019
 20
108.2347967418577
 30
0.0
 10
49.44729273221127
 20
108.1777406416089
 30
0.0
 10
49.33274029947123
 20
108.090315933889
 30
0.0
 10
49.29438449758845
 20
108.0608676050913
 30
0.0
 10
49.23659330831011
 20
108.016234972558
 30
0.0
 10
49.21728666414163
 20
108.0012807384908
 30
0.0
 10
49.17858754698662
 20
107.9712188905776
 30
0.0
 10
49.15376231379413
 20
107.9518668189592
 30
0.0
 10
48.69167561653732
 20
107.5908519021745
 30
0.0
 10
48.14683289737302
 20
107.139653133768
 30
0.0
 10
47.50523152911155
 20
106.5873306677767
 30
0.0
  0
LINE
  5
69
330
1F
100
AcDbEntity
  8
0
  6
Continuous
 62
     7
370
    25
100
AcDbLine
 10
47.5052315291
 20
106.5873306678
 30
0.0
 11
47.0
 21
106.3753801156
 31
0.0
  0
LINE
  5
6A
330
1F
100
AcDbEntity
  8
0
  6
Continuous
 62
     7
370
    25
100
AcDbLine
 10
47.0
 20
106.3753801156
 30
0.0
 11
46.2787510832
 21
106.0147556572
 31
0.0
  0
LINE
  5
6B
330
1F
100
AcDbEntity
  8
0
  6
Continuous
 62
     7
370
    25
100
AcDbLine
 10
46.2787510832
 20
106.0147556572
 30
0.0
 11
46.2787510832
 21
107.0
 31
0.0
  0
LINE
  5
6C
330
1F
100
AcDbEntity
  8
0
  6
Continuous
 62
     7
370
    25
100
AcDbLine
 10
46.2787510832
 20
107.0
 30
0.0
 11
46.2881017751
 21
107.3419491441
 31
0.0
  0
LINE
  5
6D
330
1F
100
AcDbEntity
  8
0
  6
Continuous
 62
     7
370
    25
100
AcDbLine
 10
46.2881017751
 20
107.3419491441
 30
0.0
 11
46.5695581275
 21
107.5265726573
 31
0.0
  0
SPLINE
  5
6E
330
1F
100
AcDbEntity
  8
0
  6
Continuous
 62
     7
370
    25
100
AcDbSpline
210
0.0
220
0.0
230
1.0
 70
     8
 71
     3
 72
     8
 73
     4
 74
     0
 42
0.00000001
 43
0.00000001
 40
0.0
 40
0.0
 40
0.0
 40
0.0
 40
1.0
 40
1.0
 40
1.0
 40
1.0
 10
46.56955812747578
 20
107.5265726572864
 30
0.0
 10
47.03793902870618
 20
108.1723457768008
 30
0.0
 10
47.41684249893186
 20
108.72452005696
 30
0.0
 10
47.70626853815284
 20
109.1830954977638
 30
0.0
  0
SPLINE
  5
6F
330
1F
100
AcDbEntity
  8
0
  6
Continuous
 62
     7
370
    25
100
AcDbSpline
210
0.0
220
0.0
230
1.0
 70
     8
 71
     3
 72
    26
 73
    22
 74
     0
 42
0.00000001
 43
0.00000001
 40
-0.0000003984217018
 40
-0.0000003984217018
 40
-0.0000003984217018
 40
-0.0000003984217018
 40
0.25
 40
0.25
 40
0.375
 40
0.375
 40
0.4375
 40
0.4375
 40
0.46875
 40
0.46875
 40
0.484375
 40
0.484375
 40
0.5
 40
0.5
 40
0.625
 40
0.625
 40
0.6875
 40
0.6875
 40
0.75
 40
0.75
 40
1.0
 40
1.0
 40
1.0
 40
1.0
 10
47.7062701258743
 20
109.1830980133986
 30
0.0
 10
48.1161540766165
 20
109.6393761817556
 30
0.0
 10
48.47938152441231
 20
110.0840650696782
 30
0.0
 10
48.95423794168649
 20
110.7337144809107
 30
0.0
 10
49.10085928837461
 20
110.9473669645463
 30
0.0
 10
49.30329511980192
 20
111.2634997098368
 30
0.0
 10
49.36785769884352
 20
111.3681529615732
 30
0.0
 10
49.46032752025473
 20
111.5240463441371
 30
0.0
 10
49.49042178619992
 20
111.5758297224849
 30
0.0
 10
49.53446967332992
 20
111.6532331662465
 30
0.0
 10
49.54897005040862
 20
111.6789890435403
 30
0.0
 10
49.57760630063675
 20
111.7304102568745
 30
0.0
 10
49.58847065292476
 20
111.7500687952987
 30
0.0
 10
49.74349693134052
 20
112.0347105625689
 30
0.0
 10
49.86472957795844
 20
112.2847674923586
 30
0.0
 10
50.02172581325786
 20
112.655415925367
 30
0.0
 10
50.06991576925309
 20
112.7782259094238
 30
0.0
 10
50.15801143636774
 20
113.0223668903121
 30
0.0
 10
50.1953596959073
 20
113.135074397673
 30
0.0
 10
50.38696489721401
 20
113.7811493611196
 30
0.0
 10
50.46640770115476
 20
114.3110467756569
 30
0.0
 10
50.47200914799088
 20
114.8539816339745
 30
0.0
  0
LINE
  5
70
330
1F
100
AcDbEntity
  8
0
  6
Continuous
 62
     7
370
    25
100
AcDbLine
 10
50.472009148
 20
114.853981634
 30
0.0
 11
10.7212489168
 21
114.853981634
 31
0.0
  0
SPLINE
  5
71
330
1F
100
AcDbEntity
  8
0
  6
Continuous
 62
     7
370
    25
100
AcDbSpline
210
0.0
220
0.0
230
1.0
 70
     8
 71
     3
 72
    40
 73
    36
 74
     0
 42
0.00000001
 43
0.00000001
 40
0.0
 40
0.0
 40
0.0
 40
0.0
 40
0.125
 40
0.125
 40
0.1875
 40
0.1875
 40
0.21875
 40
0.21875
 40
0.234375
 40
0.234375
 40
0.25
 40
0.25
 40
0.375
 40
0.375
 40
0.4375
 40
0.4375
 40
0.46875
 40
0.46875
 40
0.484375
 40
0.484375
 40
0.5
 40
0.5
 40
0.625
 40
0.625
 40
0.6875
 40
0.6875
 40
0.71875
 40
0.71875
 40
0.734375
 40
0.734375
 40
0.7421875
 40
0.7421875
 40
0.75
 40
0.75
 40
1.0
 40
1.0
 40
1.0
 40
1.0
 10
10.72124891681029
 20
114.8539816339744
 30
0.0
 10
10.72430139988933
 20
114.4838337373404
 30
0.0
 10
10.75769956096649
 20
114.1150673627142
 30
0.0
 10
10.85331531957941
 20
113.5639900837868
 30
0.0
 10
10.89277365861658
 20
113.3806430379796
 30
0.0
 10
10.96334079642163
 20
113.1061405400218
 30
0.0
 10
10.98875978056486
 20
113.0147260524947
 30
0.0
 10
11.02973316409204
 20
112.8777338388923
 30
0.0
 10
11.04386510981981
 20
112.8320913539728
 30
0.0
 10
11.07307730371281
 20
112.7408495566967
 30
0.0
 10
11.09005428243953
 20
112.6896924170118
 30
0.0
 10
11.21297330184155
 20
112.3295133282881
 30
0.0
 10
11.34803972882372
 20
112.0006784799884
 30
0.0
 10
11.58934698390085
 20
111.4944127200543
 30
0.0
 10
11.67623400469388
 20
111.3234885521621
 30
0.0
 10
11.81624143953438
 20
111.0638489284527
 30
0.0
 10
11.86452340175638
 20
110.9767601585711
 30
0.0
 10
11.93936557100212
 20
110.8453136607808
 30
0.0
 10
11.96471616506949
 20
110.8013626043561
 30
0.0
 10
12.01622376184181
 20
110.7131893771841
 30
0.0
 10
12.04820682455289
 20
110.6592372075591
 30
0.0
 10
12.23481414771144
 20
110.3475876462803
 30
0.0
 10
12.42328080450865
 20
110.0544523081248
 30
0.0
 10
12.7398710106889
 20
109.5905790420299
 30
0.0
 10
12.85104944957972
 20
109.4319262435214
 30
0.0
 10
13.02628966316206
 20
109.1879044810431
 30
0.0
 10
13.08611516023053
 20
109.1055567994311
 30
0.0
 10
13.17797154464475
 20
108.9805246358343
 30
0.0
 10
13.20894336258474
 20
108.9385954744389
 30
0.0
 10
13.25593062419762
 20
108.875324072051
 30
0.0
 10
13.27168130051905
 20
108.854170661206
 30
0.0
 10
13.30335916472956
 20
108.8117379527509
 30
0.0
 10
13.32605017577963
 20
108.7814451587383
 30
0.0
 10
13.63135365267157
 20
108.3745965872756
 30
0.0
 10
14.09333602617784
 20
107.7848911158928
 30
0.0
 10
14.72124891681029
 20
107.0
 30
0.0
  0
LINE
  5
72
330
1F
100
AcDbEntity
  8
0
  6
Continuous
 62
     7
370
    25
100
AcDbLine
 10
14.7212489168
 20
107.0
 30
0.0
 11
14.9852443428
 21
106.736004574
 31
0.0
  0
LINE
  5
73
330
1F
100
AcDbEntity
  8
0
  6
Continuous
 62
     7
370
    25
100
AcDbLine
 10
14.9852443428
 20
106.736004574
 30
0.0
 11
14.263995426
 21
106.0147556572
 31
0.0
  0
LINE
  5
74
330
1F
100
AcDbEntity
  8
0
  6
Continuous
 62
     7
370
    25
100
AcDbLine
 10
14.263995426
 20
106.0147556572
 30
0.0
 11
14.0
 21
106.2787510832
 31
0.0
  0
SPLINE
  5
75
330
1F
100
AcDbEntity
  8
0
  6
Continuous
 62
     7
370
    25
100
AcDbSpline
210
0.0
220
0.0
230
1.0
 70
     8
 71
     3
 72
    40
 73
    36
 74
     0
 42
0.00000001
 43
0.00000001
 40
0.0
 40
0.0
 40
0.0
 40
0.0
 40
0.125
 40
0.125
 40
0.1875
 40
0.1875
 40
0.21875
 40
0.21875
 40
0.234375
 40
0.234375
 40
0.2421875
 40
0.2421875
 40
0.25
 40
0.25
 40
0.375
 40
0.375
 40
0.4375
 40
0.4375
 40
0.46875
 40
0.46875
 40
0.484375
 40
0.484375
 40
0.5
 40
0.5
 40
0.625
 40
0.625
 40
0.6875
 40
0.6875
 40
0.71875
 40
0.71875
 40
0.734375
 40
0.734375
 40
0.75
 40
0.75
 40
1.0
 40
1.0
 40
1.0
 40
1.0
 10
14.00000000000001
 20
106.2787510831897
 30
0.0
 10
13.60781821063681
 20
106.5924965275533
 30
0.0
 10
13.26430079826693
 20
106.8648649557662
 30
0.0
 10
12.82202124520207
 20
107.2113520738597
 30
0.0
 10
12.68676082176212
 20
107.3165035258532
 30
0.0
 10
12.50211932797468
 20
107.458714322787
 30
0.0
 10
12.44361368694094
 20
107.5035318582555
 30
0.0
 10
12.36041751073347
 20
107.5668790661942
 30
0.0
 10
12.33344583288816
 20
107.5873482862963
 30
0.0
 10
12.29412888745599
 20
107.6170823426336
 30
0.0
 10
12.28121333420123
 20
107.6268320657767
 30
0.0
 10
12.25576241813696
 20
107.6460082541242
 30
0.0
 10
12.25219918502821
 20
107.6487013446348
 30
0.0
 10
11.88980343113878
 20
107.9206709304249
 30
0.0
 10
11.56463972445409
 20
108.1541867259029
 30
0.0
 10
11.10076613930274
 20
108.4707770500449
 30
0.0
 10
10.95012027339824
 20
108.5706932632465
 30
0.0
 10
10.73011946826041
 20
108.71214674078
 30
0.0
 10
10.65778053216762
 20
108.7578944262464
 30
0.0
 10
10.55076412645817
 20
108.8244107438788
 30
0.0
 10
10.51534065762664
 20
108.8462319813284
 30
0.0
 10
10.44499105277349
 20
108.8891727193719
 30
0.0
 10
10.41968972750436
 20
108.9045278387581
 30
0.0
 10
10.02096920418196
 20
109.1433249591208
 30
0.0
 10
9.67500499694703
 20
109.3298926422208
 30
0.0
 10
9.168739739672114
 20
109.5711995310373
 30
0.0
 10
9.002098162843389
 20
109.6452110546706
 30
0.0
 10
8.75530606099467
 20
109.7465921811621
 30
0.0
 10
8.673570404277491
 20
109.7787798634995
 30
0.0
 10
8.551759485050319
 20
109.8246523472661
 30
0.0
 10
8.511287939616027
 20
109.839541668565
 30
0.0
 10
8.430609037363638
 20
109.8685172979163
 30
0.0
 10
8.396523608052961
 20
109.8805131053193
 30
0.0
 10
7.611171377756913
 20
110.1486932406545
 30
0.0
 10
6.8764020270869
 20
110.2761807992518
 30
0.0
 10
6.146018366025501
 20
110.2787510831897
 30
0.0
  0
LINE
  5
76
330
1F
100
AcDbEntity
  8
0
  6
Continuous
 62
     7
370
    25
100
AcDbLine
 10
6.146018366
 20
110.2787510832
 30
0.0
 11
6.146018366
 21
70.7212489168
 31
0.0
  0
SPLINE
  5
77
330
1F
100
AcDbEntity
  8
0
  6
Continuous
 62
     7
370
    25
100
AcDbSpline
210
0.0
220
0.0
230
1.0
 70
     8
 71
     3
 72
    40
 73
    36
 74
     0
 42
0.00000001
 43
0.00000001
 40
0.0
 40
0.0
 40
0.0
 40
0.0
 40
0.125
 40
0.125
 40
0.1875
 40
0.1875
 40
0.21875
 40
0.21875
 40
0.234375
 40
0.234375
 40
0.25
 40
0.25
 40
0.375
 40
0.375
 40
0.4375
 40
0.4375
 40
0.46875
 40
0.46875
 40
0.484375
 40
0.484375
 40
0.5
 40
0.5
 40
0.625
 40
0.625
 40
0.6875
 40
0.6875
 40
0.71875
 40
0.71875
 40
0.734375
 40
0.734375
 40
0.7421875
 40
0.7421875
 40
0.75
 40
0.75
 40
1.0
 40
1.0
 40
1.0
 40
1.0
 10
6.146018366025508
 20
70.72124891681025
 30
0.0
 10
6.516166262666236
 20
70.7243013998893
 30
0.0
 10
6.884932637295745
 20
70.75769956096647
 30
0.0
 10
7.436009916223176
 20
70.85331531957941
 30
0.0
 10
7.619356962029515
 20
70.89277365861658
 30
0.0
 10
7.893859459984814
 20
70.96334079642162
 30
0.0
 10
7.98527394751088
 20
70.98875978056485
 30
0.0
 10
8.122266161111426
 20
71.02973316409202
 30
0.0
 10
8.167908646030185
 20
71.0438651098198
 30
0.0
 10
8.259150443304845
 20
71.0730773037128
 30
0.0
 10
8.310307582990113
 20
71.09005428243992
 30
0.0
 10
8.670486671696201
 20
71.21297330183816
 30
0.0
 10
8.999321519988072
 20
71.34803972881866
 30
0.0
 10
9.50558727992223
 20
71.58934698389578
 30
0.0
 10
9.67651144781634
 20
71.6762340046892
 30
0.0
 10
9.936151071531595
 20
71.81624143953097
 30
0.0
 10
10.02323984141569
 20
71.8645234017535
 30
0.0
 10
10.15468633921037
 20
71.93936557100018
 30
0.0
 10
10.19863739563668
 20
71.96471616506788
 30
0.0
 10
10.28681062281214
 20
72.01622376184095
 30
0.0
 10
10.34076279244559
 20
72.04820682455623
 30
0.0
 10
10.65241235368206
 20
72.23481414768416
 30
0.0
 10
10.94554769181879
 20
72.42328080446778
 30
0.0
 10
11.40942095791368
 20
72.73987101064803
 30
0.0
 10
11.56807375642695
 20
72.85104944954226
 30
0.0
 10
11.81209551891929
 20
73.0262896631348
 30
0.0
 10
11.89444320053715
 20
73.08611516020753
 30
0.0
 10
12.01947536414455
 20
73.1779715446294
 30
0.0
 10
12.06140452554378
 20
73.20894336257217
 30
0.0
 10
12.12467592793779
 20
73.2559306241895
 30
0.0
 10
12.14582933878498
 20
73.27168130051248
 30
0.0
 10
12.18826204724442
 20
73.30335916472616
 30
0.0
 10
12.21855484126247
 20
73.32605017578024
 30
0.0
 10
12.62540341269843
 20
73.63135365265094
 30
0.0
 10
13.21510888408129
 20
74.09333602615723
 30
0.0
 10
14.00000000000001
 20
74.72124891681028
 30
0.0
  0
LINE
  5
78
330
1F
100
AcDbEntity
  8
0
  6
Continuous
 62
     7
370
    25
100
AcDbLine
 10
14.0
 20
74.7212489168
 30
0.0
 11
14.263995426
 21
74.9852443428
 31
0.0
  0
LINE
  5
79
330
1F
100
AcDbEntity
  8
0
  6
Continuous
 62
     7
370
    25
100
AcDbLine
 10
14.263995426
 20
74.9852443428
 30
0.0
 11
14.9852443428
 21
74.263995426
 31
0.0
  0
LINE
  5
7A
330
1F
100
AcDbEntity
  8
0
  6
Continuous
 62
     7
370
    25
100
AcDbLine
 10
14.9852443428
 20
74.263995426
 30
0.0
 11
14.7212489168
 21
74.0
 31
0.0
  0
SPLINE
  5
7B
330
1F
100
AcDbEntity
  8
0
  6
Continuous
 62
     7
370
    25
100
AcDbSpline
210
0.0
220
0.0
230
1.0
 70
     8
 71
     3
 72
    40
 73
    36
 74
     0
 42
0.00000001
 43
0.00000001
 40
0.0
 40
0.0
 40
0.0
 40
0.0
 40
0.125
 40
0.125
 40
0.1875
 40
0.1875
 40
0.21875
 40
0.21875
 40
0.234375
 40
0.234375
 40
0.2421875
 40
0.2421875
 40
0.25
 40
0.25
 40
0.375
 40
0.375
 40
0.4375
 40
0.4375
 40
0.46875
 40
0.46875
 40
0.484375
 40
0.484375
 40
0.5
 40
0.5
 40
0.625
 40
0.625
 40
0.6875
 40
0.6875
 40
0.71875
 40
0.71875
 40
0.734375
 40
0.734375
 40
0.75
 40
0.75
 40
1.0
 40
1.0
 40
1.0
 40
1.0
 10
14.72124891681029
 20
73.99999999999999
 30
0.0
 10
14.40750347241866
 20
73.60781821060186
 30
0.0
 10
14.1351350441917
 20
73.26430079821453
 30
0.0
 10
13.78864792609821
 20
72.82202124514968
 30
0.0
 10
13.68349647410821
 20
72.68676082171409
 30
0.0
 10
13.54128567718495
 20
72.50211932793974
 30
0.0
 10
13.49646814172081
 20
72.44361368691145
 30
0.0
 10
13.43312093379006
 20
72.36041751071379
 30
0.0
 10
13.41265171369071
 20
72.33344583287202
 30
0.0
 10
13.38291765735804
 20
72.29412888744558
 30
0.0
 10
13.37316793421655
 20
72.2812133341928
 30
0.0
 10
13.35399174587235
 20
72.25576241813262
 30
0.0
 10
13.35129865536727
 20
72.25219918503123
 30
0.0
 10
13.07932906954126
 20
71.88980343108942
 30
0.0
 10
12.84581327404639
 20
71.56463972438009
 30
0.0
 10
12.52922294990438
 20
71.10076613922875
 30
0.0
 10
12.42930673670709
 20
70.95012027333041
 30
0.0
 10
12.28785325918623
 20
70.73011946821109
 30
0.0
 10
12.24210557372512
 20
70.657780532126
 30
0.0
 10
12.17558925610223
 20
70.55076412643042
 30
0.0
 10
12.15376801865606
 20
70.5153406576039
 30
0.0
 10
12.11082728061997
 20
70.44499105276152
 30
0.0
 10
12.09547216124285
 20
70.41968972750708
 30
0.0
 10
11.85667504087171
 20
70.02096920416025
 30
0.0
 10
11.67010735776791
 20
69.67500499691447
 30
0.0
 10
11.42880046895137
 20
69.16873973963953
 30
0.0
 10
11.35478894531905
 20
69.00209816281352
 30
0.0
 10
11.25340781883036
 20
68.75530606097296
 30
0.0
 10
11.2212201364941
 20
68.67357040425915
 30
0.0
 10
11.17534765272964
 20
68.55175948503808
 30
0.0
 10
11.16045833143149
 20
68.51128793960599
 30
0.0
 10
11.13148270208182
 20
68.43060903735835
 30
0.0
 10
11.11948689468068
 20
68.39652360805303
 30
0.0
 10
10.85130675934523
 20
67.61117137775528
 30
0.0
 10
10.72381920074795
 20
66.87640202708529
 30
0.0
 10
10.72124891681029
 20
66.14601836602546
 30
0.0
  0
LINE
  5
7C
330
1F
100
AcDbEntity
  8
0
  6
Continuous
 62
     7
370
    25
100
AcDbLine
 10
10.7212489168
 20
66.146018366
 30
0.0
 11
50.472009148
 21
66.146018366
 31
0.0
  0
SPLINE
  5
7D
330
1F
100
AcDbEntity
  8
0
  6
Continuous
 62
     7
370
    25
100
AcDbSpline
210
0.0
220
0.0
230
1.0
 70
     8
 71
     3
 72
    26
 73
    22
 74
     0
 42
0.00000001
 43
0.00000001
 40
0.0
 40
0.0
 40
0.0
 40
0.0
 40
0.249999897724643
 40
0.249999897724643
 40
0.3124998721558038
 40
0.3124998721558038
 40
0.3749998465869645
 40
0.3749998465869645
 40
0.499999795449286
 40
0.499999795449286
 40
0.5156247890570762
 40
0.5156247890570762
 40
0.5312497826648663
 40
0.5312497826648663
 40
0.5624997698804468
 40
0.5624997698804468
 40
0.6249997443116075
 40
0.6249997443116075
 40
0.749999693173929
 40
0.749999693173929
 40
0.9999995908985719
 40
0.9999995908985719
 40
0.9999995908985719
 40
0.9999995908985719
 10
50.47200914799087
 20
66.14601836602542
 30
0.0
 10
50.46682644090937
 20
66.68712990476624
 30
0.0
 10
50.38738292019035
 20
67.21702697106433
 30
0.0
 10
50.1952525022447
 20
67.86538021338356
 30
0.0
 10
50.1581556183506
 20
67.97730375007026
 30
0.0
 10
50.07014383351378
 20
68.22125708951405
 30
0.0
 10
50.0219749974838
 20
68.3440201591646
 30
0.0
 10
49.86497965855916
 20
68.71466856790211
 30
0.0
 10
49.74366432482981
 20
68.96491310677499
 30
0.0
 10
49.58845132813224
 20
69.2499770126858
 30
0.0
 10
49.57753456332001
 20
69.2697370441604
 30
0.0
 10
49.54882876031871
 20
69.32129936332149
 30
0.0
 10
49.53429476631473
 20
69.34712344128836
 30
0.0
 10
49.49014950679281
 20
69.42472443034802
 30
0.0
 10
49.45999496376488
 20
69.47663009659983
 30
0.0
 10
49.36735822464114
 20
69.63286211599139
 30
0.0
 10
49.3027029185054
 20
69.73770348976723
 30
0.0
 10
49.10004455993837
 20
70.05428769363913
 30
0.0
 10
48.95334906734733
 20
70.26809060627959
 30
0.0
 10
48.47849282893504
 20
70.91773967437862
 30
0.0
 10
48.11556232247471
 20
71.36182616001481
 30
0.0
 10
47.70627213516219
 20
71.8168997525545
 30
0.0
  0
SPLINE
  5
7E
330
1F
100
AcDbEntity
  8
0
  6
Continuous
 62
     7
370
    25
100
AcDbSpline
210
0.0
220
0.0
230
1.0
 70
     8
 71
     3
 72
     8
 73
     4
 74
     0
 42
0.00000001
 43
0.00000001
 40
0.0
 40
0.0
 40
0.0
 40
0.0
 40
1.0
 40
1.0
 40
1.0
 40
1.0
 10
47.7062701258666
 20
71.81690198661059
 30
0.0
 10
47.40533942700628
 20
72.29129285218431
 30
0.0
 10
47.02643542754228
 20
72.84346797088554
 30
0.0
 10
46.56955812747464
 20
73.4734273427143
 30
0.0
  0
LINE
  5
7F
330
1F
100
AcDbEntity
  8
0
  6
Continuous
 62
     7
370
    25
100
AcDbLine
 10
46.5695581275
 20
73.4734273427
 30
0.0
 11
46.2881017751
 21
73.6580508559
 31
0.0
  0
LINE
  5
80
330
1F
100
AcDbEntity
  8
0
  6
Continuous
 62
     7
370
    25
100
AcDbLine
 10
46.2881017751
 20
73.6580508559
 30
0.0
 11
46.2787510832
 21
74.0
 31
0.0
  0
MTEXT
  5
82
330
1F
100
AcDbEntity
  8
0
  6
Continuous
 62
     7
100
AcDbMText
 10
6.146018366
 20
65.1264519743
 30
0.0
 40
4.83362
 41
0.0
 71
     1
 72
     1
  1
SOLIDWORKS Educational Product.
  7
SLDTEXTSTYLE0
 73
     1
 44
1.0
  0
MTEXT
  5
83
330
1F
100
AcDbEntity
  8
0
  6
Continuous
 62
     7
100
AcDbMText
 10
6.146018366
 20
57.8760219743
 30
0.0
 40
4.83362
 41
0.0
 71
     1
 72
     1
  1
For Instructional Use Only.
  7
SLDTEXTSTYLE0
 73
     1
 44
1.0
  0
ENDSEC
  0
SECTION
  2
OBJECTS
  0
DICTIONARY
  5
C
330
0
100
AcDbDictionary
281
     1
  3
ACAD_GROUP
350
D
  3
ACAD_LAYOUT
350
1A
  3
ACAD_MLINESTYLE
350
17
  3
ACAD_PLOTSETTINGS
350
19
  3
ACAD_PLOTSTYLENAME
350
E
  3
ACAD_SCALELIST
350
47
  3
DWGPROPS
350
84
  0
DICTIONARY
  5
D
102
{ACAD_REACTORS
330
C
102
}
330
C
100
AcDbDictionary
281
     1
  0
DICTIONARY
  5
1A
102
{ACAD_REACTORS
330
C
102
}
330
C
100
AcDbDictionary
281
     1
  3
Layout1
350
1E
  3
Layout2
350
26
  3
Model
350
22
  0
DICTIONARY
  5
17
102
{ACAD_REACTORS
330
C
102
}
330
C
100
AcDbDictionary
281
     1
  3
Standard
350
18
  0
DICTIONARY
  5
19
102
{ACAD_REACTORS
330
C
102
}
330
C
100
AcDbDictionary
281
     1
  0
ACDBDICTIONARYWDFLT
  5
E
102
{ACAD_REACTORS
330
C
102
}
330
C
100
AcDbDictionary
281
     1
  3
Normal
350
F
100
AcDbDictionaryWithDefault
340
F
  0
DICTIONARY
  5
47
102
{ACAD_REACTORS
330
C
102
}
330
C
100
AcDbDictionary
281
     1
  3
A0
350
48
  3
A1
350
49
  3
A2
350
4A
  3
A3
350
4B
  3
A4
350
4C
  3
A5
350
4D
  3
A6
350
4E
  3
A7
350
4F
  3
A8
350
50
  3
A9
350
51
  3
B0
350
52
  3
B1
350
53
  3
B2
350
54
  3
B3
350
55
  3
B4
350
56
  3
B5
350
57
  3
B6
350
58
  0
XRECORD
  5
84
102
{ACAD_REACTORS
330
C
102
}
330
C
100
AcDbXrecord
280
     1
  1
DWGPROPS COOKIE
  2

  3

  4

  6

  7

  8
John
  9

300
=
301
=
302
=
303
=
304
=
305
=
306
=
307
=
308
=
309
=
 40
0.0
 41
2460004.27099463
 42
2460004.271020787
  1

 90
        0
  0
LAYOUT
  5
1E
102
{ACAD_REACTORS
330
1A
102
}
330
1A
100
AcDbPlotSettings
  1

  2
none_device
  4

  6

 40
0.0
 41
0.0
 42
0.0
 43
0.0
 44
0.0
 45
0.0
 46
0.0
 47
0.0
 48
0.0
 49
0.0
140
0.0
141
0.0
142
1.0
143
1.0
 70
   688
 72
     1
 73
     0
 74
     5
  7

 75
    16
147
1.0
148
0.0
149
0.0
100
AcDbLayout
  1
Layout1
 70
     1
 71
     1
 10
0.0
 20
0.0
 11
420.0
 21
297.0
 12
0.0
 22
0.0
 32
0.0
 14
1.0000000000E+20
 24
1.0000000000E+20
 34
1.0000000000E+20
 15
-1.0000000000E+20
 25
-1.0000000000E+20
 35
-1.0000000000E+20
146
0.0
 13
0.0
 23
0.0
 33
0.0
 16
1.0
 26
0.0
 36
0.0
 17
0.0
 27
1.0
 37
0.0
 76
     0
330
1B
  0
LAYOUT
  5
26
102
{ACAD_REACTORS
330
1A
102
}
330
1A
100
AcDbPlotSettings
  1

  2
none_device
  4

  6

 40
0.0
 41
0.0
 42
0.0
 43
0.0
 44
0.0
 45
0.0
 46
0.0
 47
0.0
 48
0.0
 49
0.0
140
0.0
141
0.0
142
1.0
143
1.0
 70
   688
 72
     1
 73
     0
 74
     5
  7

 75
    16
147
1.0
148
0.0
149
0.0
100
AcDbLayout
  1
Layout2
 70
     1
 71
     2
 10
0.0
 20
0.0
 11
0.0
 21
0.0
 12
0.0
 22
0.0
 32
0.0
 14
0.0
 24
0.0
 34
0.0
 15
0.0
 25
0.0
 35
0.0
146
0.0
 13
0.0
 23
0.0
 33
0.0
 16
1.0
 26
0.0
 36
0.0
 17
0.0
 27
1.0
 37
0.0
 76
     0
330
23
  0
LAYOUT
  5
22
102
{ACAD_REACTORS
330
1A
102
}
330
1A
100
AcDbPlotSettings
  1

  2
none_device
  4
ANSI_A_(11.00_x_8.50_Inches)
  6

 40
6.35
 41
19.05
 42
6.35000508
 43
19.05000254
 44
279.4
 45
215.9
 46
-0.4905506273
 47
-308.2334308406
 48
0.0
 49
0.0
140
0.0
141
0.0
142
0.1727643579
143
1.0
 70
  1696
 72
     0
 73
     0
 74
     0
  7

 75
     0
147
0.0179189148
148
-1300.4909072572
149
0.0
100
AcDbLayout
  1
Model
 70
     1
 71
     0
 10
0.0
 20
0.0
 11
420.0
 21
297.0
 12
0.0
 22
0.0
 32
0.0
 14
6.146018366
 24
66.146018366
 34
0.0
 15
54.853981634
 25
114.853981634
 35
0.0
146
0.0
 13
0.0
 23
0.0
 33
0.0
 16
1.0
 26
0.0
 36
0.0
 17
0.0
 27
1.0
 37
0.0
 76
     0
330
1F
331
29
  0
MLINESTYLE
  5
18
102
{ACAD_REACTORS
330
17
102
}
330
17
100
AcDbMlineStyle
  2
Standard
 70
     0
  3

 62
   256
 51
90.0
 52
90.0
 71
     2
 49
0.5
 62
   256
  6
BYLAYER
 49
-0.5
 62
   256
  6
BYLAYER
  0
ACDBPLACEHOLDER
  5
F
102
{ACAD_REACTORS
330
E
102
}
330
E
  0
SCALE
  5
48
102
{ACAD_REACTORS
330
47
102
}
330
47
100
AcDbScale
 70
     0
300
1:1
140
1.0
141
1.0
290
     1
  0
SCALE
  5
49
102
{ACAD_REACTORS
330
47
102
}
330
47
100
AcDbScale
 70
     0
300
1:2
140
1.0
141
2.0
290
     0
  0
SCALE
  5
4A
102
{ACAD_REACTORS
330
47
102
}
330
47
100
AcDbScale
 70
     0
300
1:4
140
1.0
141
4.0
290
     0
  0
SCALE
  5
4B
102
{ACAD_REACTORS
330
47
102
}
330
47
100
AcDbScale
 70
     0
300
1:5
140
1.0
141
5.0
290
     0
  0
SCALE
  5
4C
102
{ACAD_REACTORS
330
47
102
}
330
47
100
AcDbScale
 70
     0
300
1:8
140
1.0
141
8.0
290
     0
  0
SCALE
  5
4D
102
{ACAD_REACTORS
330
47
102
}
330
47
100
AcDbScale
 70
     0
300
1:10
140
1.0
141
10.0
290
     0
  0
SCALE
  5
4E
102
{ACAD_REACTORS
330
47
102
}
330
47
100
AcDbScale
 70
     0
300
1:16
140
1.0
141
16.0
290
     0
  0
SCALE
  5
4F
102
{ACAD_REACTORS
330
47
102
}
330
47
100
AcDbScale
 70
     0
300
1:20
140
1.0
141
20.0
290
     0
  0
SCALE
  5
50
102
{ACAD_REACTORS
330
47
102
}
330
47
100
AcDbScale
 70
     0
300
1:30
140
1.0
141
30.0
290
     0
  0
SCALE
  5
51
102
{ACAD_REACTORS
330
47
102
}
330
47
100
AcDbScale
 70
     0
300
1:40
140
1.0
141
40.0
290
     0
  0
SCALE
  5
52
102
{ACAD_REACTORS
330
47
102
}
330
47
100
AcDbScale
 70
     0
300
1:50
140
1.0
141
50.0
290
     0
  0
SCALE
  5
53
102
{ACAD_REACTORS
330
47
102
}
330
47
100
AcDbScale
 70
     0
300
1:100
140
1.0
141
100.0
290
     0
  0
SCALE
  5
54
102
{ACAD_REACTORS
330
47
102
}
330
47
100
AcDbScale
 70
     0
300
2:1
140
2.0
141
1.0
290
     0
  0
SCALE
  5
55
102
{ACAD_REACTORS
330
47
102
}
330
47
100
AcDbScale
 70
     0
300
4:1
140
4.0
141
1.0
290
     0
  0
SCALE
  5
56
102
{ACAD_REACTORS
330
47
102
}
330
47
100
AcDbScale
 70
     0
300
8:1
140
8.0
141
1.0
290
     0
  0
SCALE
  5
57
102
{ACAD_REACTORS
330
47
102
}
330
47
100
AcDbScale
 70
     0
300
10:1
140
10.0
141
1.0
290
     0
  0
SCALE
  5
58
102
{ACAD_REACTORS
330
47
102
}
330
47
100
AcDbScale
 70
     0
300
100:1
140
100.0
141
1.0
290
     0
  0
ENDSEC
  0
EOF
